<?xml version="1.0" encoding="UTF-8" standalone="no"?><!DOCTYPE svg PUBLIC "-//W3C//DTD SVG 1.1//EN" "http://www.w3.org/Graphics/SVG/1.1/DTD/svg11.dtd"><svg width="100%" height="100%" viewBox="0 0 813 178" version="1.1" xmlns="http://www.w3.org/2000/svg" xmlns:xlink="http://www.w3.org/1999/xlink" xml:space="preserve" xmlns:serif="http://www.serif.com/" style="fill-rule:evenodd;clip-rule:evenodd;stroke-linejoin:round;stroke-miterlimit:2;"><g id="Trim"><clipPath id="_clip1"><rect id="contempo_elan_qualiton_black_wide.svg" x="-0.123" y="0.23" width="812.844" height="176.705"/></clipPath><g clip-path="url(#_clip1)"><g><path d="M812.692,97.094c-4.19,0.546 -6.998,2.279 -10.075,3.699c-7.854,3.625 -15.72,7.27 -24.854,9.615c-7.056,1.811 -11.906,0.607 -13.777,-3.852c-2.756,-6.567 -3.703,-13.09 5.386,-18.568c6.261,-3.774 12.092,-7.821 17.963,-11.829c2.189,-1.494 5.015,-2.786 5.726,-5.271c-4.072,-1.169 -7.556,0.099 -10.822,1.097c-25.741,7.862 -49.35,17.737 -66.731,31.84c-9.97,8.091 -21.738,6.405 -36.971,6.095c19.421,-13.704 37.388,-26.383 56.744,-40.041c-8.201,0.535 -12.921,2.729 -17.761,4.496c-9.138,3.338 -17.479,7.405 -24.978,12.006c-7.401,4.541 -15.967,7.517 -26.247,8.479c-4.36,0.408 -7.699,1.6 -10.785,3.398c-13.059,7.61 -28.824,12.093 -46.607,12.494c-19.798,0.447 -26.775,-3.405 -26.414,-13.927c0.041,-1.201 0.704,-2.533 -1.564,-4.021c-11.477,5.22 -23.699,9.835 -36.863,13.469c-8.322,2.297 -17.029,3.735 -25.938,4.697c-7.102,0.766 -10.101,-0.882 -10.251,-5.341c-0.138,-4.089 -0.03,-8.182 -0.03,-12.527c-4.043,0.283 -5.957,1.878 -8.26,3.01c-10.098,4.964 -20.316,9.854 -31.974,13.369c-10.013,3.018 -14.44,1.413 -15.316,-5.42c-0.461,-3.595 -0.082,-7.23 -0.082,-10.762c-3.648,-0.632 -4.991,0.832 -6.68,1.626c-9.247,4.351 -18.769,8.403 -29.171,11.694c-11.111,3.516 -22.879,4.785 -35.215,4.504c-6.352,-0.145 -10.218,-1.815 -10.041,-6.12c0.179,-4.364 0.039,-8.733 0.039,-14.308c-10.973,6.046 -20.904,10.794 -31.598,14.904c-1.97,0.757 -3.891,1.571 -5.929,2.251c-12.608,4.208 -16.639,2.745 -16.463,-6.225c0.068,-3.45 1.102,-6.893 1.852,-11.249c-9.16,4.012 -17.34,7.654 -25.623,11.205c-5.93,2.542 -11.838,5.127 -18.041,7.4c-8.453,3.097 -12.638,1.631 -12.846,-4.309c-0.132,-3.765 -0.024,-7.532 -0.024,-12.026c-7.862,3.557 -14.649,6.861 -21.823,9.814c-8.79,3.617 -17.749,7.096 -28.641,8.026c-7.951,0.679 -11.109,-0.744 -11.258,-5.688c-0.057,-1.881 0.51,-3.776 0.932,-5.653c0.379,-1.687 0.948,-3.357 1.743,-6.108c-6.443,3.175 -11.51,5.789 -16.779,8.241c-8.257,3.844 -16.81,7.423 -27.103,8.944c-7.798,1.152 -11.003,-0.34 -11.823,-5.232c-0.618,-3.683 0.932,-7.204 2.507,-11.714c-15.821,7.155 -31.791,12.647 -49.498,16.948c11.977,10.37 4.518,18.731 -5.444,26.78c-13.198,10.662 -30.887,18.176 -48.799,25.441c-13.154,5.334 -27.275,9.685 -41.342,14.054c-1.319,0.41 -2.851,0.565 -5.266,0.341c26.401,-29.015 57.143,-56.172 91.682,-81.774c-0.484,-0.289 -0.967,-0.578 -1.452,-0.867c-6.702,3.046 -13.394,6.102 -20.113,9.135c-3.123,1.41 -6.17,2.906 -9.484,4.128c-3.806,1.403 -7.339,4.284 -12.386,2.557c-4.906,-1.678 -3.037,-5.142 -3.462,-7.829c-0.444,-2.806 0.353,-5.68 0.496,-8.526c0.194,-3.875 2.539,-6.951 7.813,-9.307c11.93,-5.329 24.453,-10.084 37.152,-14.669c2.412,-0.871 5.245,-1.813 7.903,-1.835c18.833,-0.158 37.67,-0.084 57.864,1.001c-17.513,12.257 -35.026,24.513 -52.54,36.769c0.194,0.26 0.387,0.52 0.581,0.78c2.382,-0.557 4.853,-1.003 7.129,-1.691c12.548,-3.793 24.599,-8.083 35.682,-13.36c5.15,-2.452 9.477,-5.256 13.25,-8.557c3.678,-3.218 8.802,-5.802 12.706,-8.939c8.92,-7.167 20.936,-6.852 35.218,-5.683c-19.548,12.934 -40.937,24.071 -55.404,39.99c8.564,-0.002 13.7,-1.774 18.657,-3.661c22.827,-8.691 42.064,-20.003 60.216,-31.95c5.252,-3.457 10.003,-5.537 17.682,-4.94c4.278,0.333 8.709,-0.445 14.14,0.692c-17.647,13.475 -37.653,25.271 -55.077,39.022c5.694,1.143 9.661,-0.136 13.541,-1.175c14.639,-3.923 26.958,-10.011 38.888,-16.319c14.569,-7.703 30.348,-14.256 47.052,-20.039c4.371,-1.513 8.966,-2.237 14.065,-2.213c19.079,0.09 38.16,0.036 59.444,0.036c-23.129,12.168 -41.84,24.908 -58.435,39.443c4.488,0.637 6.434,-0.571 8.554,-1.34c16.996,-6.165 32.146,-13.73 46.339,-22.153c45.704,-27.121 91.684,-54.068 137.587,-81.063c1.256,-0.738 2.843,-1.264 5.155,-2.273c4.646,5.408 3.536,10.776 1.546,15.798c-6.929,17.486 -24.484,30.895 -46.018,42.449c-16.647,8.932 -34.895,16.393 -56.938,19.59c-1.219,0.177 -2.555,0.528 -3.427,1.053c-14.192,8.55 -26.246,18.167 -38.997,28.44c10.091,1.862 18.73,1.268 26.823,-0.6c19.854,-4.584 37.116,-11.789 52.048,-20.982c10.253,-6.313 21.411,-11.959 33.041,-17.231c5.062,-2.294 11.365,-1.06 18.763,-0.635c-15.942,13.697 -35.944,24.823 -47.486,39.739c8.248,-0.654 14.409,-3.513 20.628,-6.124c24.401,-10.249 45.027,-23.282 67.787,-34.747c18.376,-9.257 36.546,-18.668 54.853,-27.978c1.933,-0.983 3.756,-2.213 9.369,-2.333c-14.19,10.357 -27.183,19.839 -40.601,29.631c8.065,2.329 16.27,0.489 24.326,1.901c-2.813,2.458 -6.563,2.227 -9.494,1.936c-15.267,-1.517 -25.64,2.318 -34.689,9.741c-10.184,8.354 -22.192,15.872 -33.298,23.811c-1.596,1.141 -3.857,2.164 -3.774,4.226c4.692,1.24 9.038,-0.18 13.203,-0.993c20.704,-4.038 39.3,-10.511 55.877,-19.069c11.114,-5.737 22.866,-10.862 35.352,-15.407c9.816,-3.574 20.334,-5.518 31.712,-5.422c18.173,0.154 25.797,6.876 19.847,17.467c-1.401,2.494 -3.581,4.825 -5.741,7.678c8.434,0.208 14.132,-2.347 19.574,-5.207c11.185,-5.878 22.136,-11.94 35.093,-16.395c1.353,-0.465 2.638,-1.034 4.066,-1.385c10.052,-2.469 17.46,-3.448 16.604,6.326c-0.302,3.459 -1.131,6.829 -2.673,10.955c13.269,-5.716 24.908,-11.527 38.459,-15.55c4.704,-1.396 9.517,-2.514 14.603,-3.095c6.017,-0.686 9.332,0.979 9.927,4.748c1.246,7.898 -0.56,15.109 -10.739,20.88c-4.726,2.679 -8.806,5.798 -12.997,8.812c-2.264,1.627 -5.199,3.102 -5.214,6.623c16.248,-3.176 27.462,-10.199 40.498,-15.996c0.46,1.172 0.46,2.493 0.46,4.209m-176.066,-25.313c-16.943,10.155 -31.976,21.298 -46.582,32.653c13.517,7.151 45.285,2.998 59.314,-7.419c-4.901,-0.857 -10.332,1.156 -15.121,-1.222c9.916,-4.502 19.619,-8.643 28.823,-13.165c8.103,-3.983 6.506,-9.896 -3.23,-12.232c-7.483,-1.797 -15.143,-1.82 -23.204,1.385m-545.225,41.874c-26.548,18.361 -52.769,36.89 -77.773,56.088c11.991,-2.676 22.52,-6.641 32.866,-10.813c18.89,-7.619 36.211,-16.3 49.702,-27.564c4.741,-3.958 7.499,-8.341 6.337,-13.316c-0.987,-4.226 -4.821,-5.905 -11.132,-4.395m381.294,-57.519c14.745,-8.109 27.588,-17.174 36.597,-28.06c5.3,-6.405 10.45,-12.913 8.869,-21.891c-31.825,23.538 -63.088,45.671 -94.35,67.9c18.894,-3.015 33.668,-10.055 48.884,-17.949m-202.307,47.223c-1.029,1.201 -3.018,2.291 -0.257,4.705c28.592,-11.802 57.139,-23.565 83.602,-37.342c-8.031,-0.799 -15.716,-1.391 -23.349,-1.198c-7.099,0.179 -14.384,0.431 -20.005,4.057c-14.239,9.185 -28.043,18.57 -39.991,29.778m-220.348,2.888c3.989,2.394 6.414,-0.324 8.657,-1.328c20.195,-9.037 40.223,-18.215 60.177,-27.452c4.236,-1.961 7.968,-4.33 13.441,-7.341c-11.515,-0.625 -20.84,-1.19 -30.319,-0.215c-4.504,0.464 -8.416,1.414 -11.557,3.458c-15.236,9.918 -29.496,20.29 -40.399,32.878Z" style="fill-rule:nonzero;stroke:#000;stroke-width:2.55px;"/><path d="M505.988,53.044c-1.798,-2.572 -1.385,-4.643 1.069,-6.545c4.195,-3.25 13.134,-3.935 17.955,-1.223c4.303,2.42 4.388,5.224 0.811,7.973c-4.77,3.667 -13.012,3.682 -19.835,-0.205Z" style="fill-rule:nonzero;"/></g></g><g id="contempo_elan_qualiton_black_wide.svg1" serif:id="contempo_elan_qualiton_black_wide.svg"></g></g></svg>