<?xml version="1.0" encoding="UTF-8" standalone="no"?><!DOCTYPE svg PUBLIC "-//W3C//DTD SVG 1.1//EN" "http://www.w3.org/Graphics/SVG/1.1/DTD/svg11.dtd"><svg width="100%" height="100%" viewBox="0 0 3388 742" version="1.1" xmlns="http://www.w3.org/2000/svg" xmlns:xlink="http://www.w3.org/1999/xlink" xml:space="preserve" xmlns:serif="http://www.serif.com/" style="fill-rule:evenodd;clip-rule:evenodd;stroke-linejoin:round;stroke-miterlimit:2;"><g id="Trim"><g><g><path d="M3386.22,404.558c-17.459,2.275 -29.159,9.496 -41.979,15.413c-32.726,15.104 -65.501,30.291 -103.559,40.062c-29.4,7.546 -49.608,2.529 -57.404,-16.05c-11.483,-27.362 -15.429,-54.541 22.442,-77.366c26.087,-15.725 50.383,-32.588 74.845,-49.288c9.121,-6.225 20.896,-11.608 23.859,-21.962c-16.967,-4.871 -31.484,0.412 -45.092,4.57c-107.254,32.759 -205.625,73.905 -278.046,132.667c-41.541,33.713 -90.575,26.688 -154.046,25.396c80.921,-57.1 155.784,-109.929 236.434,-166.838c-34.171,2.23 -53.838,11.371 -74.004,18.734c-38.075,13.908 -72.83,30.854 -104.075,50.025c-30.838,18.921 -66.53,31.321 -109.363,35.329c-18.167,1.7 -32.079,6.667 -44.937,14.158c-54.413,31.709 -120.1,50.388 -194.196,52.059c-82.492,1.862 -111.563,-14.188 -110.059,-58.03c0.171,-5.004 2.934,-10.554 -6.516,-16.754c-47.821,21.75 -98.746,40.979 -153.596,56.121c-34.675,9.571 -70.954,15.563 -108.075,19.571c-29.592,3.192 -42.088,-3.675 -42.713,-22.254c-0.574,-17.038 -0.124,-34.092 -0.124,-52.196c-16.846,1.179 -24.821,7.825 -34.417,12.542c-42.075,20.683 -84.65,41.058 -133.225,55.704c-41.721,12.575 -60.167,5.887 -63.817,-22.583c-1.921,-14.98 -0.341,-30.125 -0.341,-44.842c-15.201,-2.633 -20.796,3.467 -27.834,6.775c-38.529,18.129 -78.204,35.012 -121.546,48.725c-46.295,14.65 -95.329,19.937 -146.729,18.767c-26.466,-0.605 -42.575,-7.563 -41.837,-25.5c0.745,-18.184 0.162,-36.388 0.162,-59.617c-45.721,25.192 -87.1,44.975 -131.658,62.1c-8.209,3.154 -16.213,6.546 -24.704,9.379c-52.534,17.533 -69.33,11.438 -68.596,-25.937c0.283,-14.375 4.591,-28.721 7.716,-46.871c-38.166,16.716 -72.25,31.891 -106.762,46.687c-24.708,10.592 -49.325,21.363 -75.171,30.834c-35.221,12.904 -52.658,6.795 -53.525,-17.955c-0.55,-15.687 -0.1,-31.383 -0.1,-50.108c-32.758,14.821 -61.037,28.588 -90.929,40.892c-36.625,15.071 -73.954,29.566 -119.338,33.441c-33.129,2.83 -46.287,-3.1 -46.908,-23.7c-0.237,-7.837 2.125,-15.733 3.883,-23.554c1.58,-7.029 3.95,-13.987 7.263,-25.45c-26.846,13.229 -47.958,24.121 -69.913,34.338c-34.404,16.016 -70.041,30.929 -112.929,37.266c-32.491,4.8 -45.846,-1.416 -49.262,-21.8c-2.575,-15.346 3.883,-30.016 10.446,-48.808c-65.921,29.813 -132.463,52.696 -206.242,70.617c49.904,43.208 18.825,78.046 -22.683,111.583c-54.992,44.425 -128.696,75.733 -203.33,106.004c-54.808,22.225 -113.645,40.354 -172.258,58.558c-5.496,1.709 -11.879,2.355 -21.942,1.421c110.005,-120.896 238.096,-234.05 382.009,-340.725c-2.017,-1.204 -4.029,-2.408 -6.05,-3.612c-27.925,12.692 -55.809,25.425 -83.804,38.062c-13.013,5.875 -25.709,12.109 -39.517,17.2c-15.858,5.846 -30.579,17.85 -51.608,10.655c-20.442,-6.992 -12.655,-21.425 -14.425,-32.621c-1.85,-11.692 1.47,-23.667 2.066,-35.525c0.809,-16.146 10.579,-28.963 32.554,-38.779c49.709,-22.205 101.888,-42.017 154.8,-61.121c10.05,-3.629 21.855,-7.555 32.93,-7.646c78.47,-0.658 156.958,-0.35 241.1,4.171c-72.971,51.071 -145.942,102.137 -218.917,153.204c0.808,1.083 1.612,2.167 2.421,3.25c9.925,-2.321 20.221,-4.179 29.704,-7.046c52.283,-15.804 102.496,-33.679 148.675,-55.667c21.458,-10.216 39.487,-21.9 55.208,-35.654c15.325,-13.408 36.675,-24.175 52.942,-37.246c37.167,-29.862 87.233,-28.55 146.742,-23.679c-81.45,53.892 -170.571,100.296 -230.85,166.625c35.683,-0.008 57.083,-7.391 77.737,-15.254c95.113,-36.212 175.267,-83.346 250.9,-133.125c21.883,-14.404 41.679,-23.071 73.675,-20.583c17.825,1.387 36.288,-1.854 58.917,2.883c-73.529,56.146 -156.888,105.296 -229.488,162.592c23.725,4.762 40.254,-0.567 56.421,-4.896c60.996,-16.346 112.325,-41.713 162.033,-67.996c60.705,-32.096 126.45,-59.4 196.05,-83.496c18.213,-6.304 37.359,-9.321 58.605,-9.221c79.495,0.375 159,0.15 247.683,0.15c-96.371,50.7 -174.333,103.784 -243.479,164.346c18.7,2.654 26.808,-2.379 35.641,-5.583c70.817,-25.688 133.942,-57.208 193.08,-92.304c190.433,-113.004 382.016,-225.284 573.279,-337.763c5.233,-3.075 11.846,-5.266 21.479,-9.471c19.358,22.534 14.733,44.9 6.442,65.825c-28.871,72.859 -102.017,128.73 -191.742,176.871c-69.362,37.217 -145.396,68.304 -237.242,81.625c-5.079,0.738 -10.646,2.2 -14.279,4.388c-59.133,35.625 -109.358,75.696 -162.487,118.5c42.045,7.758 78.041,5.283 111.762,-2.5c82.725,-19.1 154.65,-49.121 216.867,-87.425c42.721,-26.304 89.212,-49.829 137.671,-71.796c21.091,-9.558 47.354,-4.417 78.179,-2.646c-66.425,57.071 -149.767,103.429 -197.859,165.579c34.367,-2.725 60.038,-14.637 85.95,-25.516c101.671,-42.705 187.613,-97.009 282.446,-144.78c76.567,-38.57 152.275,-77.783 228.554,-116.575c8.055,-4.095 15.65,-9.22 39.038,-9.72c-59.125,43.154 -113.263,82.662 -169.171,123.462c33.604,9.704 67.792,2.038 101.358,7.921c-11.72,10.242 -27.345,9.279 -39.558,8.067c-63.612,-6.321 -106.833,9.658 -144.537,40.587c-42.434,34.808 -92.467,66.133 -138.742,99.213c-6.65,4.754 -16.071,9.016 -15.725,17.608c19.55,5.166 37.658,-0.75 55.012,-4.138c86.267,-16.825 163.75,-43.796 232.821,-79.454c46.309,-23.904 95.275,-45.258 147.3,-64.196c40.9,-14.891 84.725,-22.991 132.134,-22.591c75.72,0.641 107.487,28.65 82.695,72.779c-5.837,10.391 -14.92,20.104 -23.92,31.991c35.141,0.867 58.883,-9.779 81.558,-21.695c46.604,-24.492 92.233,-49.75 146.221,-68.313c5.637,-1.937 10.991,-4.308 16.941,-5.771c41.884,-10.287 72.75,-14.366 69.184,26.359c-1.259,14.412 -4.713,28.454 -11.138,45.645c55.288,-23.816 103.784,-48.029 160.246,-64.791c19.6,-5.817 39.654,-10.475 60.846,-12.896c25.071,-2.858 38.883,4.079 41.362,19.783c5.192,32.909 -2.333,62.954 -44.745,87c-19.692,11.163 -36.692,24.159 -54.155,36.717c-9.433,6.779 -21.662,12.925 -21.725,27.596c67.7,-13.233 114.425,-42.496 168.742,-66.65c1.917,4.883 1.917,10.387 1.917,17.537m-733.609,-105.47c-70.595,42.312 -133.233,88.741 -194.091,136.054c56.321,29.796 188.687,12.491 247.141,-30.913c-20.42,-3.571 -43.05,4.817 -63.004,-5.091c41.317,-18.759 81.746,-36.013 120.096,-54.855c33.763,-16.595 27.108,-41.233 -13.458,-50.966c-31.179,-7.488 -63.096,-7.584 -96.684,5.771m-2271.77,174.475c-110.617,76.504 -219.871,153.708 -324.055,233.7c49.963,-11.15 93.834,-27.671 136.942,-45.055c78.708,-31.745 150.879,-67.916 207.092,-114.85c19.754,-16.491 31.246,-34.754 26.404,-55.483c-4.113,-17.608 -20.088,-24.604 -46.383,-18.312m1588.73,-239.663c61.437,-33.787 114.95,-71.558 152.487,-116.917c22.083,-26.687 43.542,-53.804 36.954,-91.212c-132.604,98.075 -262.866,190.296 -393.125,282.917c78.725,-12.563 140.284,-41.896 203.684,-74.788m-842.946,196.763c-4.288,5.004 -12.575,9.545 -1.071,19.604c119.133,-49.175 238.079,-98.188 348.342,-155.592c-33.463,-3.329 -65.484,-5.796 -97.288,-4.992c-29.579,0.746 -59.933,1.796 -83.354,16.905c-59.329,38.27 -116.846,77.375 -166.629,124.075m-918.117,12.033c16.621,9.975 26.725,-1.35 36.071,-5.533c84.146,-37.655 167.596,-75.896 250.737,-114.384c17.65,-8.171 33.2,-18.041 56.005,-30.587c-47.98,-2.604 -86.834,-4.959 -126.33,-0.896c-18.766,1.933 -35.066,5.892 -48.154,14.408c-63.483,41.325 -122.9,84.542 -168.329,136.992Z" style="fill:#323232;fill-rule:nonzero;stroke:#323232;stroke-width:10.63px;"/><path d="M2108.28,221.017c-7.491,-10.717 -5.77,-19.346 4.455,-27.271c17.479,-13.542 54.725,-16.396 74.812,-5.096c17.929,10.083 18.283,21.767 3.379,33.221c-19.875,15.279 -54.216,15.342 -82.646,-0.854Z" style="fill:#323232;fill-rule:nonzero;stroke:#323232;stroke-width:4.17px;"/></g></g></g></svg>