<?xml version="1.0" encoding="UTF-8" standalone="no"?><!DOCTYPE svg PUBLIC "-//W3C//DTD SVG 1.1//EN" "http://www.w3.org/Graphics/SVG/1.1/DTD/svg11.dtd"><svg width="100%" height="100%" viewBox="0 0 696 696" version="1.1" xmlns="http://www.w3.org/2000/svg" xmlns:xlink="http://www.w3.org/1999/xlink" xml:space="preserve" xmlns:serif="http://www.serif.com/" style="fill-rule:evenodd;clip-rule:evenodd;stroke-linejoin:round;stroke-miterlimit:2;"><path d="M695.833,83.73c0,-46.212 -37.518,-83.73 -83.73,-83.73l-528.373,-0c-46.212,-0 -83.73,37.518 -83.73,83.73l0,528.373c0,46.212 37.518,83.73 83.73,83.73l528.373,0c46.212,0 83.73,-37.518 83.73,-83.73l0,-528.373Z" style="fill:#ebebeb;"/><path d="M306.342,486.689c-85.858,44.947 -175.233,82.912 -274.749,110.017c111.05,-134.4 233.739,-262.229 374.699,-382.652c-6.882,2.996 -13.959,5.799 -20.595,9.039c-7.464,3.643 -14.574,7.641 -21.763,11.551c-35.979,19.57 -72.156,38.999 -111.084,55.661c-22.055,9.439 -37.332,5.028 -41.162,-12.726c-5.728,-26.556 -2.062,-53.158 6.718,-79.27c3.067,-9.12 13.506,-14.894 23.89,-20.234c49.273,-25.339 101,-48.044 153.904,-69.508c16.379,-6.646 34.831,-8.682 52.606,-8.927c64.848,-0.895 129.737,-0.37 194.61,-0.257c3.319,0.006 6.634,1.162 16.383,2.985c-74.124,58.852 -145.693,115.676 -217.263,172.5c84.775,-15.476 150.734,-52.942 221.704,-84.495c-62.329,49.385 -143.095,79.106 -231.629,103.996c51.832,43.846 21.601,80.794 -15.922,116.587c-30.365,28.965 -69.447,52.105 -110.347,75.733m-74.16,-46.064c-52.906,43.268 -105.812,86.535 -158.718,129.803c121.559,-40.334 234.58,-88.125 322.444,-160.027c20.793,-17.015 38.678,-35.285 46.987,-57.342c8.676,-23.027 -3.083,-40.792 -36.017,-51.512c-57.085,45.472 -114.583,91.271 -174.696,139.078m12.66,-159.821c105.013,-53.484 213.88,-103.571 315.421,-167.596c-12.909,-2.188 -17.145,-3.552 -21.366,-3.528c-135.894,0.748 -116.13,-9.834 -201.328,59.583c-35.56,28.973 -69.122,59.161 -96.634,92.191c-4.272,5.129 -23.378,13.935 3.907,19.35Z" style="fill-rule:nonzero;"/></svg>