<?xml version="1.0" encoding="UTF-8" standalone="no"?><!DOCTYPE svg PUBLIC "-//W3C//DTD SVG 1.1//EN" "http://www.w3.org/Graphics/SVG/1.1/DTD/svg11.dtd"><svg width="100%" height="100%" viewBox="0 0 8000 4500" version="1.1" xmlns="http://www.w3.org/2000/svg" xmlns:xlink="http://www.w3.org/1999/xlink" xml:space="preserve" xmlns:serif="http://www.serif.com/" style="fill-rule:evenodd;clip-rule:evenodd;stroke-linecap:round;stroke-linejoin:round;stroke-miterlimit:1.5;"><path d="M8000,112.372c0,-62.02 -50.352,-112.372 -112.372,-112.372l-7775.26,0c-62.02,0 -112.372,50.352 -112.372,112.372l0,4275.26c0,62.02 50.352,112.372 112.372,112.372l7775.26,-0c62.02,-0 112.372,-50.352 112.372,-112.372l0,-4275.26Z" style="fill:#fafafa;"/><g><g><g><g><circle cx="6195.96" cy="3103.16" r="260.028" style="fill:none;stroke:#000;stroke-width:7.78px;"/></g><g><circle cx="6195.97" cy="3102.07" r="61.533" style="fill:none;stroke:#000;stroke-width:5.32px;"/></g><g><circle cx="6195.98" cy="3250.12" r="28.015" style="fill:none;stroke:#000;stroke-width:5.33px;"/></g><g><path d="M6122.41,3196.91c12.219,9.474 14.448,27.086 4.974,39.305c-9.474,12.219 -27.087,14.448 -39.306,4.974c-12.219,-9.474 -14.448,-27.086 -4.974,-39.305c9.474,-12.219 27.086,-14.448 39.306,-4.974Z" style="fill:none;stroke:#000;stroke-width:5.33px;"/></g><g><path d="M6080.53,3134.96c4.238,14.87 -4.394,30.383 -19.263,34.62c-14.87,4.238 -30.383,-4.393 -34.621,-19.263c-4.237,-14.87 4.394,-30.383 19.264,-34.62c14.869,-4.238 30.382,4.393 34.62,19.263Z" style="fill:none;stroke:#000;stroke-width:5.33px;"/></g><g><path d="M6086.45,3052.99c-6.322,14.11 -22.91,20.434 -37.02,14.112c-14.111,-6.321 -20.434,-22.91 -14.113,-37.02c6.322,-14.111 22.91,-20.434 37.02,-14.113c14.111,6.322 20.434,22.91 14.113,37.021Z" style="fill:none;stroke:#000;stroke-width:5.33px;"/></g><g><path d="M6138.78,2996.56c-13.595,7.366 -30.612,2.309 -37.978,-11.286c-7.366,-13.594 -2.309,-30.611 11.286,-37.977c13.594,-7.366 30.611,-2.309 37.977,11.285c7.366,13.595 2.309,30.612 -11.285,37.978Z" style="fill:none;stroke:#000;stroke-width:5.33px;"/></g><g><path d="M6269.5,3196.91c-12.22,9.474 -14.448,27.086 -4.974,39.305c9.474,12.219 27.086,14.448 39.305,4.974c12.219,-9.474 14.448,-27.086 4.974,-39.305c-9.474,-12.219 -27.086,-14.448 -39.305,-4.974Z" style="fill:none;stroke:#000;stroke-width:5.33px;"/></g><g><path d="M6311.38,3134.96c-4.238,14.87 4.394,30.383 19.263,34.62c14.87,4.238 30.383,-4.393 34.621,-19.263c4.238,-14.87 -4.394,-30.383 -19.264,-34.62c-14.869,-4.238 -30.382,4.393 -34.62,19.263Z" style="fill:none;stroke:#000;stroke-width:5.33px;"/></g><g><path d="M6305.5,3052.99c6.322,14.11 22.91,20.434 37.02,14.112c14.111,-6.321 20.435,-22.91 14.113,-37.02c-6.322,-14.111 -22.91,-20.434 -37.02,-14.113c-14.111,6.322 -20.434,22.91 -14.113,37.021Z" style="fill:none;stroke:#000;stroke-width:5.33px;"/></g><g><path d="M6253.13,2996.56c13.595,7.366 30.612,2.309 37.978,-11.286c7.366,-13.594 2.309,-30.611 -11.285,-37.977c-13.595,-7.366 -30.612,-2.309 -37.978,11.285c-7.366,13.595 -2.309,30.612 11.285,37.978Z" style="fill:none;stroke:#000;stroke-width:5.33px;"/></g><g><circle cx="6196.49" cy="2948.93" r="75.644" style="fill:none;stroke:#000;stroke-width:7.74px;"/></g><g><circle cx="6060.49" cy="2783.81" r="104.274" style="fill:#fff;stroke:#000;stroke-width:7.73px;"/></g><g><path d="M6070.78,2803.11l-20.272,0l-4.259,-81.26l28.79,0l-4.259,81.26Zm-24.872,28.45c-0,-4.6 1.192,-8.177 3.748,-10.562c2.555,-2.385 6.133,-3.578 10.903,-3.578c4.599,0 8.177,1.193 10.732,3.748c2.555,2.385 3.748,5.792 3.748,10.392c-0,4.429 -1.193,7.836 -3.748,10.392c-2.555,2.555 -6.133,3.747 -10.732,3.747c-4.6,0 -8.178,-1.192 -10.733,-3.747c-2.555,-2.385 -3.918,-5.793 -3.918,-10.392Z" style="fill-rule:nonzero;"/></g></g><g><text x="5787.69px" y="3550.06px" style="font-family:'Arial-BoldMT', 'Arial', sans-serif;font-weight:700;font-size:128.178px;">12A<tspan x="6013.32px 6091.62px " y="3550.06px 3550.06px ">T7</tspan>/ECC81</text></g><g><text x="6043.17px" y="2497.88px" style="font-family:'Arial-BoldMT', 'Arial', sans-serif;font-weight:700;font-size:128.178px;">300B</text></g></g><g><circle cx="6195.97" cy="1890.46" r="400.703" style="fill:none;stroke:#1d1d1b;stroke-width:7.13px;stroke-linecap:square;stroke-linejoin:miter;"/><g><circle cx="6338.72" cy="2029.46" r="80.927" style="fill:none;stroke:#1d1d1b;stroke-width:7.13px;stroke-linecap:square;stroke-linejoin:miter;"/></g><g><circle cx="6338.72" cy="1761.47" r="52.535" style="fill:none;stroke:#1d1d1b;stroke-width:7.15px;stroke-linecap:square;stroke-linejoin:miter;"/></g><g><circle cx="6045.11" cy="1761.47" r="52.535" style="fill:none;stroke:#1d1d1b;stroke-width:7.15px;stroke-linecap:square;stroke-linejoin:miter;"/></g><g><circle cx="6045.11" cy="2029.46" r="80.927" style="fill:none;stroke:#1d1d1b;stroke-width:7.13px;stroke-linecap:square;stroke-linejoin:miter;"/></g></g><g><circle cx="6196.59" cy="2107.22" r="133.908" style="fill:none;stroke:#1d1d1b;stroke-width:7.13px;stroke-linecap:square;stroke-linejoin:miter;"/></g><g><path d="M4541.25,3800.23l9.788,9.45m363.508,0l9.451,-9.45m-0,-0l-0,-105.306m-382.747,-0l-0,105.306m22.951,9.45l0,14.514m336.845,-0l-0,-14.514m-2569.87,-9.45l0,-105.306m-382.409,-0l-0,105.306m-0,-0l9.45,9.45m363.509,0l9.45,-9.45m-359.458,9.45l0,14.514m336.507,-0l0,-14.514m-53.328,-1169.51l0,282.167m210.275,-0l-0,-282.167m-210.275,282.167l0,2.7l0.675,3.038l1.013,2.7l3.375,4.725l2.362,2.025l2.363,1.35l2.7,1.35m185.298,0l2.701,-1.35l2.362,-1.35l2.363,-2.025l1.687,-2.363l1.351,-2.362l1.35,-2.7l0.675,-3.038l-0,-2.7m-0,-282.167l-0.338,-5.062l-0.675,-5.401l-1.35,-5.062l-2.025,-4.726l-2.7,-4.725l-3.038,-4.388l-3.375,-3.712l-3.713,-3.713m-175.847,-0l-7.426,7.425l-2.7,4.388l-2.7,4.725l-2.025,4.726l-1.35,5.062l-1.013,5.401l0,5.062m12.488,300.055l30.715,11.138m123.869,0l30.714,-11.138m-4.725,-336.844l-9.788,-8.101m-156.271,0l-9.788,8.101m166.059,-8.101l-7.088,-5.062l-4.725,-2.701l-2.7,-1.35l-2.363,-1.012l-2.7,-1.013m-117.119,0l-2.7,1.013l-2.363,1.012l-2.7,1.35l-2.363,1.351l-2.7,1.35l-2.363,1.687l-2.025,1.688l-2.362,1.687m16.201,356.083l0.675,0.338l1.012,0.337l0.675,0l1.013,0.338l1.35,-0l1.012,0.338l0.675,-0m110.707,-0l1.012,-0l0.675,-0.338l1.688,-0l1.013,-0.338l0.675,0l0.675,-0.337l1.012,-0.338m-90.793,-381.059l-3.375,2.025l-3.712,1.688l-3.713,2.025l-11.138,5.063l-4.051,1.687l-3.712,1.35m117.119,0l-4.05,-1.35l-14.851,-6.75l-3.713,-2.025l-3.713,-1.688l-3.712,-2.025m-0,-0l-5.738,-3.375m-45.903,-0l-5.738,3.375m9.789,-10.126l-0,1.013l-0.676,2.025l-0.337,0.675l-0.675,1.013l-1.35,1.35l-1.013,0.675m45.903,-0l-2.025,-2.025l-0.675,-1.013l-0.338,-0.675l-0.675,-2.025l0,-1.013m-38.139,-21.601l-0,21.601m38.139,0l0,-21.601m-30.714,-7.763l-2.7,0.675l-1.35,0.675l-1.35,1.013l-0.675,1.012l-1.013,1.35l-0.337,1.688l-0,1.35m38.139,0l0,-1.35l-0.675,-1.688l-0.675,-1.35l-2.025,-2.025l-1.35,-0.675l-1.35,-0.337l-1.688,-0.338m-17.213,-4.725l-0,1.012l-0.338,1.013l-0.337,0.675l-1.35,1.35l-0.675,0.338l-1.013,0.337l-1.013,0m21.264,0l-1.012,0l-1.013,-0.337l-0.675,-0.338l-1.35,-1.35l-0.338,-0.675l-0.675,-2.025m-11.475,-8.438l-0,8.438m11.475,-0l0,-8.438m-6.412,-5.063l-2.026,0.675l-0.675,0.338l-1.35,1.35l-0.337,0.675l-0.675,2.025m11.475,-0l0,-1.013l-0.337,-1.012l-0.338,-0.675l-1.35,-1.35l-0.675,-0.338l-2.025,-0.675m965.306,127.582l-0,-5.062l-1.013,-5.401l-1.35,-5.062l-2.025,-4.726l-2.7,-4.725l-2.7,-4.388l-7.426,-7.425m-175.847,-0l-3.713,3.713l-3.375,3.712l-3.038,4.388l-2.7,4.725l-2.025,4.726l-1.35,5.062l-0.675,5.401l-0.338,5.062m0,0l0,282.167m210.275,-0l-0,-282.167m-210.275,282.167l0,2.7l0.675,3.038l1.35,2.7l1.35,2.362l2.025,2.363l2.026,2.025l2.362,1.35l2.7,1.35m185.299,0l2.7,-1.35l2.362,-1.35l2.363,-2.025l3.375,-4.725l1.013,-2.7l0.675,-3.038l-0,-2.7m-197.787,17.888l30.715,11.138m123.869,0l30.715,-11.138m-4.726,-336.844l-9.788,-8.101m-156.271,0l-9.788,8.101m166.059,-8.101l-2.362,-1.687l-2.026,-1.688l-2.362,-1.687l-2.7,-1.35l-4.726,-2.701l-5.4,-2.025m-117.119,0l-2.7,1.013l-2.363,1.012l-2.7,1.35l-4.725,2.701l-7.088,5.062m16.201,356.083l1.012,0.338l0.675,0.337l0.675,0l1.013,0.338l1.687,-0l0.675,0.338l1.013,-0m110.706,-0l0.675,-0l1.013,-0.338l1.35,-0l1.013,-0.338l0.675,0l1.012,-0.337l0.675,-0.338m-90.455,-381.059l-3.713,2.025l-3.712,1.688l-3.713,2.025l-14.851,6.75l-4.05,1.35m117.119,0l-3.713,-1.35l-4.05,-1.687l-11.138,-5.063l-3.713,-2.025l-3.712,-1.688l-3.376,-2.025m0,-0l-5.737,-3.375m-45.903,-0l-5.738,3.375m9.451,-10.126l-0,1.013l-0.675,2.025l-0.338,0.675l-0.675,1.013l-2.025,2.025m45.903,-0l-1.013,-0.675l-1.35,-1.35l-0.675,-1.013l-0.338,-0.675l-0.337,-1.013l-0,-1.012l-0.338,-1.013m-38.139,-21.601l-0,21.601m38.139,0l0,-21.601m-30.376,-7.763l-1.688,0.338l-1.35,0.337l-1.35,0.675l-2.025,2.025l-0.675,1.35l-0.675,1.688l-0,1.35m38.139,0l0,-1.35l-0.337,-1.688l-1.013,-1.35l-0.675,-1.012l-1.35,-1.013l-1.35,-0.675l-2.7,-0.675m-17.214,-4.725l-0.337,1.012l-0,1.013l-2.025,2.025l-0.675,0.338l-1.013,0.337l-1.012,0m21.263,0l-1.012,0l-1.013,-0.337l-0.675,-0.338l-1.35,-1.35l-0.337,-0.675l-0.338,-1.013l0,-1.012m-11.476,-8.438l0,8.438m11.476,-0l0,-8.438m-6.75,-5.063l-2.025,0.675l-0.675,0.338l-1.351,1.35l-0.337,0.675l-0.338,1.012l0,1.013m11.476,-0l-0.337,-1.013l-0,-1.012l-2.026,-2.025l-0.675,-0.338l-2.025,-0.675m755.031,127.582l0,282.167m210.612,-0l0,-282.167m-210.612,282.167l0.338,2.7l0.675,3.038l1.012,2.7l1.351,2.362l2.025,2.363l2.025,2.025l2.362,1.35l2.701,1.35m185.298,0l2.7,-1.35l2.363,-1.35l2.362,-2.025l3.375,-4.725l1.013,-2.7l0.675,-3.038l0.337,-2.7m0,-282.167l-0.337,-5.062l-1.013,-5.401l-1.35,-5.062l-2.025,-4.726l-2.362,-4.725l-3.038,-4.388l-3.375,-3.712l-4.051,-3.713m-175.51,-0l-4.05,3.713l-3.375,3.712l-3.038,4.388l-2.362,4.725l-2.026,4.726l-1.687,5.062l-0.675,5.401l-0.338,5.062m12.489,300.055l30.714,11.138m123.869,0l30.715,-11.138m-4.726,-336.844l-9.788,-8.101m-156.271,0l-9.451,8.101m165.722,-8.101l-2.025,-1.687l-4.725,-3.375l-2.363,-1.35l-2.7,-1.351l-2.362,-1.35l-5.401,-2.025m-117.119,0l-2.363,1.013l-2.7,1.012l-2.7,1.35l-4.725,2.701l-7.088,5.062m16.201,356.083l1.012,0.338l0.675,0.337l1.013,0l0.675,0.338l1.688,-0l0.675,0.338l1.012,-0m110.707,-0l0.675,-0l1.012,-0.338l1.688,-0l0.675,-0.338l0.675,0l1.012,-0.337l0.675,-0.338m-90.455,-381.059l-3.712,2.025l-3.713,1.688l-3.713,2.025l-14.851,6.75l-4.05,1.35m117.119,0l-3.712,-1.35l-4.051,-1.687l-11.138,-5.063l-3.713,-2.025l-3.712,-1.688l-3.375,-2.025m-0,-0l-5.738,-3.375m-45.903,-0l-5.738,3.375m9.451,-10.126l-0,1.013l-0.675,2.025l-0.338,0.675l-0.675,1.013l-2.025,2.025m45.903,-0l-1.013,-0.675l-1.35,-1.35l-0.337,-1.013l-0.675,-0.675l-0.338,-1.013l-0,-1.012l-0.338,-1.013m-38.139,-21.601l-0,21.601m38.139,0l0,-21.601m-30.376,-7.763l-1.688,0.338l-1.35,0.337l-1.35,0.675l-2.025,2.025l-0.675,1.35l-0.338,1.688l-0.337,1.35m38.139,0l0,-1.35l-0.337,-1.688l-0.675,-1.35l-1.013,-1.012l-1.35,-1.013l-1.35,-0.675l-2.7,-0.675m-17.213,-4.725l-0,1.012l-0.338,1.013l-0.675,0.675l-0.338,0.675l-1.012,0.675l-0.675,0.338l-1.013,0.337l-0.675,0m20.926,0l-1.012,0l-0.675,-0.337l-1.013,-0.338l-1.35,-1.35l-0.337,-0.675l-0.338,-1.013l0,-1.012m-6.75,-13.501l-1.013,0.338l-0.675,0.337l-1.012,0.338l-1.35,1.35l-0.338,0.675l-0.337,1.012l-0,1.013m11.475,-0l0,-1.013l-0.337,-1.012l-0.675,-0.675l-0.338,-0.675l-0.675,-0.675l-2.025,-0.675l-0.675,-0.338m-6.75,5.063l-0,8.438m11.475,-0l0,-8.438m-1192.12,122.519l-0.337,-5.062l-1.013,-5.401l-1.35,-5.062l-2.025,-4.726l-2.362,-4.725l-3.038,-4.388l-3.375,-3.712l-4.051,-3.713m-175.51,-0l-4.05,3.713l-3.375,3.712l-3.038,4.388l-2.362,4.725l-2.025,4.726l-1.351,5.062l-1.012,5.401l-0.338,5.062m0,0l0,282.167m210.612,-0l0,-282.167m-210.612,282.167l0.338,2.7l0.675,3.038l1.012,2.7l1.351,2.362l2.025,2.363l2.025,2.025l5.4,2.7m185.298,0l2.363,-1.35l2.7,-1.35l2.025,-2.025l2.025,-2.363l1.35,-2.362l1.013,-2.7l0.675,-3.038l0.337,-2.7m-197.786,17.888l30.714,11.138m123.532,0l31.052,-11.138m-5.063,-336.844l-9.788,-8.101m-155.934,0l-9.788,8.101m165.722,-8.101l-2.025,-1.687l-4.725,-3.375l-2.363,-1.35l-2.7,-1.351l-2.362,-1.35l-5.401,-2.025m-116.781,0l-5.401,2.025l-2.362,1.35l-2.701,1.351l-2.362,1.35l-4.725,3.375l-2.026,1.687m16.201,356.083l1.35,0.675l1.013,0l0.675,0.338l1.688,-0l1.012,0.338l0.675,-0m110.707,-0l0.675,-0l1.012,-0.338l1.688,-0l0.675,-0.338l1.012,0l1.35,-0.675m-90.455,-381.059l-3.712,2.025l-3.376,1.688l-3.712,2.025l-7.426,3.375l-4.05,1.688l-3.713,1.687l-3.712,1.35m116.781,0l-3.712,-1.35l-3.713,-1.687l-4.05,-1.688l-7.426,-3.375l-3.713,-2.025l-3.375,-1.688l-3.712,-2.025m-0,-0l-5.738,-3.375m-45.903,-0l-5.738,3.375m9.451,-10.126l-0,2.025l-0.338,1.013l-0.675,0.675l-0.337,1.013l-0.675,0.675l-1.013,0.675l-0.675,0.675m45.903,-0l-0.675,-0.675l-1.013,-0.675l-0.675,-0.675l-0.337,-1.013l-0.675,-0.675l-0.338,-1.013l0,-2.025m-38.477,-21.601l-0,21.601m38.477,0l0,-21.601m-30.714,-7.763l-1.35,0.338l-1.688,0.337l-1.35,0.675l-2.025,2.025l-0.675,1.35l-0.338,1.688l-0.337,1.35m38.477,0l-0.337,-1.35l-0.338,-1.688l-0.675,-1.35l-2.025,-2.025l-1.35,-0.675l-1.688,-0.337l-1.35,-0.338m-17.213,-4.725l-0,1.012l-0.338,1.013l-0.337,0.675l-1.351,1.35l-1.012,0.338l-0.675,0.337l-1.013,0m20.927,0l-1.013,0l-0.675,-0.337l-1.013,-0.338l-1.35,-1.35l-0.337,-0.675l-0.338,-1.013l0,-1.012m-6.75,-13.501l-1.013,0.338l-0.675,0.337l-1.012,0.338l-1.35,1.35l-0.338,0.675l-0.337,1.012l-0,1.013m11.475,-0l0,-1.013l-0.337,-1.012l-0.338,-0.675l-1.35,-1.35l-1.012,-0.338l-0.675,-0.337l-1.013,-0.338m-6.75,5.063l-0,8.438m11.475,-0l0,-8.438m1821.59,-113.744l-0.338,-5.4l-0.675,-5.063l-1.35,-5.063l-2.025,-5.063l-2.7,-4.388l-3.038,-4.387l-3.375,-4.051l-3.713,-3.712m-175.847,-0l-3.713,3.712l-3.713,4.051l-5.4,8.775l-2.025,5.063l-1.35,5.063l-1.013,5.063l0,5.4m0,281.829l0,3.037l0.675,2.7l1.013,2.701l1.687,2.7l1.688,2.025l2.363,2.025l2.362,1.688l2.7,1.012m185.299,0l2.7,-1.012l2.362,-1.688l4.051,-4.05l2.7,-5.401l0.675,-2.7l-0,-3.037m-210.275,-281.829l0,281.829m210.275,-0l-0,-281.829m-197.787,299.717l30.715,11.476m123.869,-0l30.715,-11.476m-4.726,-336.844l-9.788,-7.763m-156.271,-0l-9.788,7.763m166.059,-7.763l-2.362,-2.025l-2.363,-1.688l-2.363,-1.35l-2.362,-1.688l-2.363,-1.35l-2.7,-1.012l-2.363,-1.35l-2.7,-1.013m-117.119,0l-2.7,1.013l-2.363,1.35l-2.7,1.012l-2.363,1.35l-2.7,1.688l-2.363,1.35l-2.025,1.688l-2.362,2.025m16.201,356.083l0.675,-0l1.012,0.337l0.675,0.338l1.013,-0l0.675,0.337l2.363,0m110.706,0l2.7,0l0.675,-0.337l1.013,-0l1.35,-0.675l1.012,-0m-90.792,-381.397l-3.376,2.025l-3.712,2.025l-3.713,1.688l-3.713,2.025l-3.713,1.687l-3.712,1.35l-4.05,1.688l-3.713,1.35m117.119,0l-4.05,-1.35l-3.713,-1.688l-3.713,-1.35l-3.712,-1.687l-3.713,-2.025l-3.713,-1.688l-7.425,-4.05m-0,-0l-5.738,-3.375m-45.903,-0l-5.737,3.375m9.788,-9.788l-0,1.012l-0.338,0.675l-0.675,2.025l-0.675,0.676l-0.675,1.012l-0.675,0.675l-1.013,0.338m45.903,-0l-0.675,-0.338l-0.675,-0.675l-0.675,-1.012l-0.675,-0.676l-0.675,-2.025l-0.338,-0.675l0,-1.012m-38.139,-21.939l-0,21.939m38.139,-0l0,-21.939m-30.714,-7.425l-1.35,-0l-4.05,2.025l-0.675,1.35l-1.013,1.35l-0.337,1.35l-0,1.35m38.139,-0l0,-1.35l-1.35,-2.7l-1.012,-1.35l-1.013,-0.675l-2.7,-1.35l-1.688,-0m-17.213,-4.726l-0,0.675l-0.338,1.013l-0.337,0.675l-0.675,1.012l-0.675,0.338l-0.675,0.675l-1.013,0.338l-1.012,-0m21.263,-0l-1.012,-0l-1.013,-0.338l-0.675,-0.675l-0.675,-0.338l-0.675,-1.012l-0.675,-0.675l0,-1.013l-0.337,-0.675m-6.413,-13.5l-1.013,-0l-1.012,0.337l-0.676,0.338l-1.35,1.35l-0.675,1.012l0,0.675l-0.337,1.013m11.476,-0l-0,-1.013l-0.338,-0.675l-0.338,-1.012l-1.35,-1.35l-0.675,-0.338l-1.012,-0.337l-1.013,-0m-6.75,4.725l-0,8.775m11.476,0l-0,-8.775m-972.057,641.287l0.338,2.7l0.675,3.038l1.013,2.7l3.375,4.725l2.362,2.025l2.363,1.35l2.7,1.35m185.298,0l2.701,-1.35l2.362,-1.35l2.025,-2.025l2.025,-2.363l1.351,-2.362l1.012,-2.7l0.675,-3.038l0.338,-2.7m-0,-282.167l-0.338,-5.062l-0.675,-5.401l-1.688,-5.062l-2.025,-4.726l-2.362,-4.725l-3.038,-4.388l-3.375,-3.712l-4.05,-3.713m-175.511,-0l-4.05,3.713l-3.375,3.712l-3.038,4.388l-2.362,4.725l-2.025,4.726l-1.35,5.062l-1.013,5.401l-0.338,5.062m0,0l0,282.167m210.613,-0l-0,-282.167m-197.787,300.055l30.714,11.138m123.87,0l30.714,-11.138m-5.062,-336.844l-9.451,-8.101m-156.271,0l-9.789,8.101m166.06,-8.101l-7.088,-5.062l-4.725,-2.701l-2.7,-1.35l-2.7,-1.012l-2.363,-1.013m-117.119,0l-5.401,2.025l-2.362,1.35l-2.7,1.351l-2.363,1.35l-4.725,3.375l-2.025,1.687m16.2,356.083l0.676,0.338l1.012,0.337l0.675,0l0.675,0.338l1.688,-0l1.012,0.338l0.675,-0m110.707,-0l1.012,-0l0.675,-0.338l1.688,-0l0.675,-0.338l1.013,0l0.675,-0.337l1.012,-0.338m-90.793,-381.059l-3.375,2.025l-3.713,1.688l-3.712,2.025l-11.138,5.063l-4.051,1.687l-3.712,1.35m117.119,0l-4.05,-1.35l-14.851,-6.75l-3.713,-2.025l-3.713,-1.688l-3.712,-2.025m-0,-0l-5.738,-3.375m-45.903,-0l-5.738,3.375m9.788,-10.126l-0.337,1.013l-0,1.012l-0.338,1.013l-0.675,0.675l-0.337,1.013l-1.35,1.35l-1.013,0.675m45.903,-0l-2.025,-2.025l-0.675,-1.013l-0.338,-0.675l-0.675,-2.025l0,-1.013m-38.14,-21.601l0,21.601m38.14,0l0,-21.601m-30.714,-7.763l-2.7,0.675l-1.35,0.675l-1.35,1.013l-1.013,1.012l-0.675,1.35l-0.338,1.688l0,1.35m38.14,0l-0.337,-1.35l-0.338,-1.688l-0.675,-1.35l-2.025,-2.025l-1.35,-0.675l-1.35,-0.337l-1.688,-0.338m-17.213,-4.725l-0,1.012l-0.338,1.013l-0.337,0.675l-1.35,1.35l-1.013,0.338l-0.675,0.337l-1.013,0m20.927,0l-0.675,0l-1.013,-0.337l-0.675,-0.338l-1.013,-0.675l-0.337,-0.675l-0.675,-0.675l-0.338,-1.013l0,-1.012m-11.475,-8.438l-0,8.438m11.475,-0l0,-8.438m-6.75,-5.063l-0.675,0.338l-1.013,0.337l-0.675,0.338l-1.012,0.675l-0.338,0.675l-0.675,0.675l-0.337,1.012l-0,1.013m11.475,-0l0,-1.013l-0.337,-1.012l-0.338,-0.675l-1.35,-1.35l-1.012,-0.338l-0.675,-0.337l-1.013,-0.338m307.48,440.126l0,-76.617m-1765.23,-0l-0,76.617m330.094,-0l-0,-76.617m1822.61,-925.479l0.675,4.05l1.012,4.051l2.025,3.712l2.701,3.376l3.375,2.7l3.712,2.025l4.051,1.35l4.05,0.337m287.229,0l4.05,-0.337l4.05,-1.35l3.713,-2.025l3.375,-2.7l2.701,-3.376l2.025,-3.712l1.012,-4.051l0.338,-4.05m-330.094,-251.114l-0,251.114m330.094,-166.397l-0,-84.717m-0,251.114l-0,-107.331m1.012,-43.202l0,-8.438m0,44.215l0,-9.451m-1.012,0l-0,-26.326m-1765.23,1076.01l-0,76.617m669.301,-843.799l-22.951,22.276l-19.914,24.977l-16.201,27.001l-12.488,29.364l-8.776,30.377l-4.725,31.727l-0.337,31.727l3.712,31.389m590.322,0l3.713,-31.389l-0.338,-31.727l-4.725,-31.727l-8.776,-30.377l-12.488,-29.364l-16.538,-27.001l-19.577,-24.977l-22.951,-22.276m-508.642,228.838l51.303,281.491m496.154,-45.902l42.865,-235.589m-81.68,-228.838l-15.188,-12.826m-396.586,0l-15.188,12.826m32.064,-48.603l-0.337,5.063l-1.013,5.063l-1.35,4.725l-2.025,4.725l-2.363,4.388l-2.7,4.388l-3.375,3.712l-3.713,3.713m396.586,0l-3.713,-3.713l-3.375,-3.712l-5.4,-8.776l-1.688,-4.725l-1.35,-4.725l-1.013,-5.063l-0.337,-5.063m-23.627,815.785l23.964,-23.964m-0.337,-791.821l-2.025,-122.519m-358.784,-0l-2.025,122.519m24.302,-162.347l-5.063,3.713l-4.05,3.713l-4.05,4.725l-3.038,5.063l-2.7,5.062l-1.688,5.738l-1.35,5.738l-0.338,6.076m358.784,-0l-0.338,-6.076l-1.35,-5.738l-2.025,-5.738l-2.363,-5.062l-3.375,-5.063l-3.713,-4.725l-4.387,-3.713l-4.726,-3.713m0,0l-29.026,-16.201l-30.377,-12.825l-32.064,-9.113l-32.402,-5.738l-33.415,-1.688l-33.077,1.688l-32.739,5.738l-31.727,9.113l-30.714,12.825l-28.689,16.201m-773.932,210.95l-22.952,22.276l-19.913,24.977l-16.201,27.001l-12.488,29.364l-8.776,30.377l-4.725,31.727l-0.338,31.727l3.713,31.389m590.321,0l3.713,-31.389l-0.337,-31.727l-4.726,-31.727l-8.775,-30.377l-12.488,-29.364l-16.539,-27.001l-19.576,-24.977l-22.951,-22.276m-508.642,228.838l42.865,235.589m496.154,45.902l51.302,-281.491m-81.679,-228.838l-15.189,-12.826m-396.585,0l-15.188,12.826m32.064,-48.603l-0.338,5.063l-1.012,5.063l-1.35,4.725l-2.025,4.725l-2.363,4.388l-2.7,4.388l-3.375,3.712l-3.713,3.713m396.585,0l-3.712,-3.713l-3.376,-3.712l-2.7,-4.388l-2.362,-4.388l-2.025,-4.725l-1.35,-4.725l-1.013,-5.063l-0.338,-5.063m-363.171,791.821l23.964,23.964m339.207,-815.785l-2.025,-122.519m-358.783,-0l-2.025,122.519m24.301,-162.347l-5.062,3.713l-4.051,3.713l-4.05,4.725l-3.038,5.063l-2.7,5.062l-1.687,5.738l-1.35,5.738l-0.338,6.076m358.783,-0l-0.337,-6.076l-1.35,-5.738l-2.025,-5.738l-2.363,-5.062l-3.375,-5.063l-3.713,-4.725l-4.388,-3.713l-4.725,-3.713m0,0l-29.027,-16.201l-30.376,-12.825l-32.065,-9.113l-32.402,-5.738l-33.414,-1.688l-33.077,1.688l-32.739,5.738l-31.727,9.113l-30.714,12.825l-28.69,16.201m1378.77,-965.643l-22.951,22.276l-19.914,24.977l-16.201,27.001l-12.488,29.365l-8.775,30.376l-4.726,31.727l-0.337,31.727l3.375,31.389m590.659,0l3.713,-31.389l-0.338,-31.727l-4.725,-31.727l-8.775,-30.376l-12.489,-29.365l-16.538,-27.001l-19.576,-24.977l-22.951,-22.276m-508.98,228.838l87.08,475.903m416.837,-0l86.742,-475.903m-81.679,-228.838l-15.189,-12.826m-396.585,0l-15.189,12.826m5.063,704.741l0.675,3.375l1.013,3.375l1.35,3.375l1.687,3.375l1.688,3.038l2.025,3.038l2.363,3.037l2.362,2.363m390.51,0l2.363,-2.363l2.363,-3.037l2.025,-3.038l1.687,-3.038l2.701,-6.75l2.025,-6.75m-389.835,-753.344l-0.338,5.063l-1.012,5.063l-1.35,4.725l-2.026,4.725l-2.362,4.388l-2.7,4.388l-3.376,3.713l-3.712,3.712m396.585,0l-3.713,-3.712l-3.375,-3.713l-5.4,-8.776l-1.688,-4.725l-1.35,-4.725l-1.012,-5.063l-0.338,-5.063m-376.672,778.32l37.465,37.465m315.581,-0l37.464,-37.465m-13.838,-778.32l-2.025,-122.519m-358.783,-0l-2.025,122.519m24.301,-162.347l-5.063,3.713l-4.05,4.05l-4.05,4.388l-3.038,5.063l-2.7,5.063l-1.688,5.737l-1.35,5.738l-0.337,6.076m358.783,-0l-0.675,-6.076l-1.013,-5.738l-2.025,-5.737l-2.362,-5.063l-3.376,-5.063l-3.712,-4.388l-4.388,-4.05l-4.725,-3.713m-0,0l-29.027,-16.201l-30.377,-12.825l-32.064,-9.113l-32.402,-5.738l-33.414,-1.688l-33.077,1.688l-32.74,5.738l-31.726,9.113l-30.715,12.825l-28.689,16.201m-2209.07,1387.54l-22.951,22.276l-19.914,24.977l-16.201,27.001l-12.488,29.364l-8.775,30.377l-4.726,31.727l-0.337,31.727l3.713,31.389m590.321,0l3.713,-31.389l-0.338,-31.727l-4.725,-31.727l-8.775,-30.377l-12.489,-29.364l-16.538,-27.001l-19.576,-24.977l-22.952,-22.276m-508.641,228.838l86.742,475.902m416.837,0l86.742,-475.902m-81.68,-228.838l-15.188,-12.826m-396.585,0l-15.189,12.826m5.063,704.74l0.675,3.376l1.013,3.375l1.35,3.375l1.687,3.375l1.688,3.038l2.025,3.038l4.725,5.4m390.51,-0l4.726,-5.4l2.025,-3.038l1.687,-3.038l1.688,-3.375l1.012,-3.375l1.351,-3.375l0.675,-3.376m-389.835,-753.343l-0.338,5.063l-1.012,5.063l-1.351,4.725l-2.025,4.725l-2.362,4.388l-2.7,4.388l-3.376,3.712l-3.712,3.713m396.585,0l-3.713,-3.713l-3.375,-3.712l-2.7,-4.388l-2.363,-4.388l-2.025,-4.725l-1.35,-4.725l-1.012,-5.063l-0.338,-5.063m-376.672,778.32l37.465,37.465m315.581,-0l37.464,-37.465m-13.838,-778.32l-2.025,-122.519m-358.783,-0l-2.025,122.519m24.301,-162.347l-5.063,3.713l-4.05,3.713l-4.05,4.725l-3.038,5.063l-2.7,5.062l-1.688,5.738l-1.35,5.738l-0.337,6.076m358.783,-0l-0.338,-6.076l-1.35,-5.738l-2.025,-5.738l-2.362,-5.062l-3.376,-5.063l-3.712,-4.725l-4.388,-3.713l-4.725,-3.713m-0,0l-29.027,-16.201l-30.377,-12.825l-32.064,-9.113l-32.402,-5.738l-33.414,-1.688l-33.077,1.688l-32.74,5.738l-31.727,9.113l-30.714,12.825l-28.689,16.201m-777.982,1611.99l-0,9.113m4022.89,0l0,-9.113m-724.654,-181.585l-0,-181.923m-420.887,-0l0,181.923m420.887,-181.923l-420.887,-0m0,181.923l420.887,-0m-2144.6,-71.554l2.025,-1.688m0,-0l1.688,-2.025m-0,-0l1.012,-2.7m0,-0l0.676,-2.363m-0,0l0.337,-2.7m0,-0l-0.675,-2.363m-0,0l-1.688,-2.7m0,0l-2.362,-2.025m-0,-0l-2.7,-1.35m-0,-0l-3.038,-0.675m-0,-0l-2.7,0.337m-0,0l-2.7,1.35m-0,0l-1.688,1.688m0,0l-0.675,3.038m-0,-0l0.337,3.375m0,-0l0,1.688m0,-0l-0.337,1.687m-0,0l-2.025,2.7m-0,0l-3.038,1.688m0,-0l-3.375,0.337m-0,0l2.025,2.026m0,-0l2.025,1.687m0,0l4.725,2.025m0,0l2.363,0.338m0,-0l2.7,-0m0,-0l2.363,-0.675m-0,-0l2.7,-1.013m0,0l2.025,-1.687m-209.262,-69.867l2.025,-4.388m0,0l0.675,-2.025m0,0l0,-2.025m0,0l-0.337,-2.025m-0,-0l-1.35,-2.025m-0,-0l-1.013,-0.675m0,-0l-1.012,-0m-0,-0l-3.038,1.012m-0,0l-3.375,2.363m-0,-0l-3.375,3.375m-0,0l-6.413,7.088m-0,0l-4.051,5.063m0,-0l-3.375,4.388m0,-0l-2.7,4.725m0,-0l-4.388,9.788m0,-0l15.864,-10.463m-0,-0l7.088,-5.063m-0,0l3.375,-2.7m-0,-0l3.037,-3.038m0,0l2.363,-3.375m-120.832,52.316l-0.675,-2.701m0,0l-1.35,-2.025m0,0l-1.688,-1.012m0,-0l-2.362,-0m-0,-0l-2.025,1.012m-0,0l-1.688,2.025m0,0l-1.35,3.038m0,0l-0.337,3.038m-0,-0l0.675,2.7m-0,-0l1.012,2.025m0,-0l2.025,1.013m0,-0l2.363,-0m-0,-0l2.025,-1.013m-0,-0l1.688,-2.363m-0,0l1.35,-2.7m-0,0l0.337,-3.037m-176.86,1.012l5.4,-2.7m0,-0l3.038,-3.038m-0,0l0.675,-1.35m-0,0l-0,-1.35m-0,0l-0.338,-1.012m0,-0l-1.35,-1.013m0,-0l-4.387,-1.013m-0,0l-5.738,0m-0,0l-6.751,1.351m0,-0l-6.75,2.025m0,-0l-5.063,2.7m0,-0l-3.037,3.037m-0,0l-0.675,1.351m-0,-0l-0.338,1.35m0,-0l0.675,1.012m0,0l1.35,1.013m0,-0l4.05,1.012m0,0l6.076,-0.337m-0,-0l6.75,-1.013m0,0l6.413,-2.025m607.873,3.038l-1.688,1.687m4.05,-2.025l-2.362,0.338m4.725,0.337l-2.363,-0.675m4.725,2.025l-2.362,-1.35m4.05,3.375l-1.688,-2.025m2.701,4.388l-1.013,-2.363m1.013,4.726l-0,-2.363m-1.013,4.725l1.013,-2.362m-5.738,7.763l4.725,-5.401m-9.788,10.463l5.063,-5.062m-11.138,9.45l6.075,-4.388m-12.488,8.101l6.413,-3.713m-13.164,6.413l6.751,-2.7m-39.828,-0.338l5.738,3.038m-10.463,-7.088l4.725,4.05m-8.438,-9.45l3.713,5.4m-5.063,-8.438l1.35,3.038m-3.375,-6.413l2.025,3.375m-3.375,-4.388l1.35,1.013m-2.7,-1.35l1.35,0.337m-3.037,0l1.687,-0.337m-3.375,2.025l1.688,-1.688m-4.051,4.726l2.363,-3.038m-4.05,6.075l1.687,-3.037m-3.712,10.125l2.025,-7.088m-2.363,8.776l0.338,-1.688m-1.688,2.7l1.35,-1.012m-2.7,1.688l1.35,-0.676m-3.038,0.676l1.688,-0m-4.05,-0.676l2.362,0.676m-4.725,-1.351l2.363,0.675m-3.713,-2.362l1.35,1.687m-2.363,-3.712l1.013,2.025m-1.013,-4.388l0,2.363m0.675,-7.426l-0.675,5.063m-1.35,-2.363l2.025,-2.7m-4.725,5.063l2.7,-2.363m-5.738,4.051l3.038,-1.688m-6.413,3.038l3.375,-1.35m-10.125,3.037l6.75,-1.687m-13.163,2.025l6.413,-0.338m-10.463,0l4.05,0.338m-7.425,-1.013l3.375,0.675m-6.751,-1.687l3.376,1.012m-6.751,-2.7l3.375,1.688m-6.075,-3.713l2.7,2.025m-5.4,-4.725l2.7,2.7m-4.725,-5.4l2.025,2.7m-4.05,-6.075l2.025,3.375m-3.713,-9.451l1.688,6.076m-3.376,-13.501l1.688,7.425m-3.713,-14.176l2.025,6.751m-3.712,-9.451l1.687,2.7m-3.712,-4.725l2.025,2.025m-6.751,-4.388l4.726,2.363m-10.126,-3.375l5.4,1.012m-15.863,-2.025l10.463,1.013m-20.589,-1.688l10.126,0.675m-20.251,-0.675l10.125,0m-29.701,0l19.576,0m-39.152,0.675l19.576,-0.675m-57.041,23.964l17.213,-12.151m-21.601,14.851l4.388,-2.7m-8.776,5.063l4.388,-2.363m-9.45,4.051l5.062,-1.688m-9.788,2.7l4.726,-1.012m-10.126,1.012l5.4,0m-10.8,-1.012l5.4,1.012m-9.788,-3.375l4.388,2.363m-8.438,-6.076l4.05,3.713m-6.075,-7.425l2.025,3.712m-3.713,-7.425l1.688,3.713m-3.038,-2.026l1.35,-1.687m-7.088,6.75l5.738,-5.063m-12.151,9.113l6.413,-4.05m-12.488,7.088l6.075,-3.038m-12.826,5.401l6.751,-2.363m-10.463,2.7l3.712,-0.337m-7.087,0.337l3.375,0m-6.751,-1.012l3.376,1.012m-6.751,-2.362l3.375,1.35m-8.775,-5.401l5.4,4.051m-9.45,-9.113l4.05,5.062m-7.426,-10.8l3.376,5.738m-5.401,-12.151l2.025,6.413m-2.362,-11.476l0.337,5.063m0,-10.126l-0.337,5.063m-8.438,2.7l8.775,-7.763m-18.226,15.526l9.451,-7.763m-19.576,14.851l10.125,-7.088m-15.188,10.126l5.063,-3.038m-10.463,5.4l5.4,-2.362m-12.488,5.063l7.088,-2.701m-14.851,4.388l7.763,-1.687m-11.814,2.025l4.051,-0.338m-7.763,0.338l3.712,-0m-7.087,-1.013l3.375,1.013m-6.076,-2.7l2.701,1.687m-7.088,0l4.387,-1.687m-9.45,2.025l5.063,-0.338m-9.788,-0.337l4.725,0.675m-9.788,-3.038l5.063,2.363m-7.426,-4.051l2.363,1.688m-4.388,-3.713l2.025,2.025m-3.713,-4.387l1.688,2.362m-2.7,-4.725l1.012,2.363m-4.725,-0.338l3.713,-2.025m-7.088,3.038l3.375,-1.013m-8.1,1.688l4.725,-0.675m-9.113,0.337l4.388,0.338m-8.776,-1.35l4.388,1.012m-8.438,-3.375l4.05,2.363m-7.425,-5.401l3.375,3.038m-6.075,-6.75l2.7,3.712m-5.063,-7.763l2.363,4.051m-5.063,-7.763l2.7,3.712m-4.725,-3.037l2.025,-0.675m-9.451,5.062l7.426,-4.387m-22.952,15.188l15.526,-10.801m-21.938,14.514l6.412,-3.713m-13.163,6.075l6.751,-2.362m-10.464,2.7l3.713,-0.338m-7.088,0.338l3.375,-0m-7.087,-0.675l3.712,0.675m-7.425,-1.688l3.713,1.013m-6.751,-3.038l3.038,2.025m-4.725,-4.387l1.687,2.362m-2.7,-5.063l1.013,2.701m-1.351,-5.738l0.338,3.037m-0,-9.45l-0.338,6.413m1.013,-12.488l-0.675,6.075m0.337,-11.476l0.338,5.401m-2.7,-3.376l2.362,-2.025m-11.475,11.476l9.113,-9.451m-17.551,19.239l8.438,-9.788m-17.889,22.276l9.451,-12.488m-18.564,25.314l9.113,-12.826m-30.376,-6.413l4.05,-1.35m-8.101,2.363l4.051,-1.013m-11.476,1.688l7.425,-0.675m-12.825,1.012l5.4,-0.337m-11.138,-0l5.738,0.337m-11.139,-1.687l5.401,1.35m-10.463,-3.713l5.062,2.363m-7.763,-4.725l2.701,2.362m-5.063,-5.4l2.362,3.038m-4.05,-6.413l1.688,3.375m-2.025,-5.063l0.337,1.688m0,-3.713l-0.337,2.025m2.025,-5.738l-1.688,3.713m3.713,-7.088l-2.025,3.375m5.063,-6.413l-3.038,3.038m6.413,-5.738l-3.375,2.7m7.088,-4.725l-3.713,2.025m7.425,-4.05l-3.712,2.025m11.475,-4.05l-7.763,2.025m14.514,-3.038l-6.751,1.013m13.501,-1.013l-6.75,0m13.163,0.675l-6.413,-0.675m12.826,2.025l-6.413,-1.35m7.088,-1.012l-0.675,2.362m1.687,-3.375l-1.012,1.013m2.362,-1.013l-1.35,0m3.376,0.675l-2.026,-0.675m4.051,2.025l-2.025,-1.35m5.737,4.726l-3.712,-3.376m4.387,5.401l-0.675,-2.025m1.013,3.712l-0.338,-1.687m-1.012,5.738l1.35,-4.051m-3.375,11.813l2.025,-7.762m-8.776,30.039l6.751,-22.277m0.675,12.151l-7.426,10.126m15.189,-19.914l-7.763,9.788m16.538,-20.251l-8.775,10.463m13.5,-15.526l-4.725,5.063m10.126,-9.113l-5.401,4.05m8.776,-5.738l-3.375,1.688m7.088,-2.363l-3.713,0.675m7.763,-1.012l-4.05,0.337m8.1,0l-4.05,-0.337m7.763,1.687l-3.713,-1.35m7.088,3.376l-3.375,-2.026m5.738,5.063l-2.363,-3.037m3.375,6.75l-1.012,-3.713m1.35,7.763l-0.338,-4.05m0.338,7.763l-0,-3.713m-0.675,11.476l0.675,-7.763m-1.013,12.151l0.338,-4.388m6.75,0.675l-7.088,3.713m14.514,-8.776l-7.426,5.063m14.851,-10.126l-7.425,5.063m15.525,-9.788l-8.1,4.725m12.151,-6.413l-4.051,1.688m7.763,-2.7l-3.712,1.012m7.763,-1.687l-4.051,0.675m7.763,-0.675l-3.712,-0m7.425,1.012l-3.713,-1.012m7.426,2.7l-3.713,-1.688m7.088,4.726l-3.375,-3.038m6.75,7.088l-3.375,-4.05m6.075,8.1l-2.7,-4.05m5.4,8.1l-2.7,-4.05m4.726,3.038l-2.026,1.012m7.088,-4.725l-5.062,3.713m9.113,-7.426l-4.051,3.713m8.101,-7.763l-4.05,4.05m8.775,-7.763l-4.725,3.713m7.088,-5.063l-2.363,1.35m4.725,-2.362l-2.362,1.012m7.425,-1.35l-5.063,0.338m10.126,-0l-5.063,-0.338m10.126,1.688l-5.063,-1.35m9.788,3.375l-4.725,-2.025m8.438,5.063l-3.713,-3.038m6.75,7.088l-3.037,-4.05m3.712,6.075l-0.675,-2.025m1.351,4.388l-0.676,-2.363m0.676,4.725l-0,-2.362m-0.676,5.062l0.676,-2.7m-0.676,3.713l0,-1.013m1.013,3.713l-1.013,-2.7m3.038,4.388l-2.025,-1.688m4.725,2.7l-2.7,-1.012m5.738,1.012l-3.038,0m6.076,-0.675l-3.038,0.675m6.413,-1.687l-3.375,1.012m9.45,-3.712l-6.075,2.7m11.138,-5.738l-5.063,3.038m10.126,-6.413l-5.063,3.375m14.513,-11.813l-9.45,8.438m18.901,-16.876l-9.451,8.438m18.226,-16.539l-8.775,8.101m12.151,-16.876l-3.376,8.775m7.426,-16.538l-4.05,7.763m8.775,-15.526l-4.725,7.763m10.463,-14.851l-5.738,7.088m13.163,-14.514l-7.425,7.426m11.138,-10.463l-3.713,3.037m7.763,-5.062l-4.05,2.025m8.438,-4.05l-4.388,2.025m9.113,-3.038l-4.725,1.013m9.451,-1.013l-4.726,0m10.126,0.338l-5.4,-0.338m9.113,1.35l-3.713,-1.012m7.425,2.362l-3.712,-1.35m6.75,3.713l-3.038,-2.363m4.051,4.05l-1.013,-1.687m1.35,3.713l-0.337,-2.026m0.675,4.388l-0.338,-2.362m0,4.725l0.338,-2.363m-2.026,6.751l1.688,-4.388m-4.725,8.775l3.037,-4.387m-6.412,7.762l3.375,-3.375m-8.438,7.763l5.063,-4.388m-10.464,8.438l5.401,-4.05m-16.539,11.476l11.138,-7.426m-22.951,14.514l11.813,-7.088m-22.951,14.513l11.138,-7.425m-12.151,7.763l1.013,-0.338m-2.025,4.388l1.012,-4.05m-1.687,8.438l0.675,-4.388m-0.338,8.438l-0.337,-4.05m1.687,8.1l-1.35,-4.05m3.376,6.75l-2.026,-2.7m4.388,4.388l-2.362,-1.688m5.4,2.363l-3.038,-0.675m6.076,0.675l-3.038,-0m6.413,-0.675l-3.375,0.675m6.75,-1.688l-3.375,1.013m8.775,-3.713l-5.4,2.7m10.463,-6.75l-5.063,4.05m9.788,-8.1l-4.725,4.05m13.501,-13.163l-8.776,9.113m11.814,-11.476l-3.038,2.363m6.075,-3.375l-3.037,1.012m6.075,-0.337l-3.038,-0.675m6.076,3.037l-3.038,-2.362m4.725,4.725l-1.687,-2.363m2.362,4.726l-0.675,-2.363m1.013,7.425l-0.338,-5.062m-1.35,10.125l1.688,-5.063m-2.363,7.763l0.675,-2.7m-0.675,4.388l0,-1.688m1.35,2.7l-1.35,-1.012m3.038,1.35l-1.688,-0.338m6.075,0l-4.387,0.338m8.775,-1.35l-4.388,1.012m7.763,-2.025l-3.375,1.013m9.113,-4.05l-5.738,3.037m11.139,-6.075l-5.401,3.038m16.201,-10.463l-10.8,7.425m-0,-6.75l10.8,-0.675m-13.838,0.675l3.038,-0m-5.063,-1.351l2.025,1.351m-4.05,-3.376l2.025,2.025m-3.038,-4.387l1.013,2.362m-1.013,-5.062l0,2.7m0.338,-4.726l-0.338,2.026m2.025,-4.051l-1.687,2.025m4.387,-2.7l-2.7,0.675m20.589,-2.025l-17.889,1.35m35.44,-2.025l-17.551,0.675m26.326,-20.926l-8.775,20.251m10.801,-23.289l-2.026,3.038m5.063,-5.063l-3.037,2.025m6.75,-2.7l-3.713,0.675m7.426,0l-3.713,-0.675m5.063,1.688l-1.35,-1.013m2.362,2.7l-1.012,-1.687m1.35,3.375l-0.338,-1.688m0,3.713l0.338,-2.025m-8.776,21.264l8.438,-19.239m18.226,18.564l-26.664,0.675m39.828,-0.338l-13.164,-0.337m26.327,1.012l-13.163,-0.675m24.639,1.688l-11.476,-1.013m17.551,1.688l-6.075,-0.675m11.475,1.687l-5.4,-1.012m10.801,3.037l-5.401,-2.025m9.788,5.063l-4.387,-3.038m8.1,7.088l-3.713,-4.05m5.063,6.751l-1.35,-2.701m2.7,5.738l-1.35,-3.037m2.7,9.788l-1.35,-6.751m3.038,2.025l-1.688,4.726m4.725,-9.113l-3.037,4.387m6.75,-7.425l-3.713,3.038m9.113,-5.063l-5.4,2.025m13.163,-3.375l-7.763,1.35m11.814,-1.013l-4.051,-0.337m8.101,0.675l-4.05,-0.338m7.425,1.688l-3.375,-1.35m7.088,3.037l-3.713,-1.687m6.413,4.388l-2.7,-2.701m5.4,5.738l-2.7,-3.037m3.038,3.712l-0.338,-0.675m1.013,-6.075l-0.675,6.75m1.35,-8.1l-0.675,1.35m1.687,-1.35l-1.012,-0m2.362,1.012l-1.35,-1.012m3.038,2.362l-1.688,-1.35m4.726,5.738l-3.038,-4.388m3.713,6.413l-0.675,-2.025m1.012,3.713l-0.337,-1.688m-0.338,7.763l0.675,-6.075m2.7,5.063l-3.375,1.012m6.751,-1.35l-3.376,0.338m6.413,-0l-3.037,-0.338m6.075,1.35l-3.038,-1.012m6.076,2.7l-3.038,-1.688m5.4,4.051l-2.362,-2.363m4.725,4.725l-2.363,-2.362m4.05,5.4l-1.687,-3.038m5.4,9.788l-3.713,-6.75m6.076,9.45l-2.363,-2.7m5.738,4.388l-3.375,-1.688m9.788,2.363l-6.413,-0.675m13.163,-0l-6.75,0.675m15.188,-3.375l-8.438,2.7m16.201,-7.088l-7.763,4.388m14.514,-9.788l-6.751,5.4m12.826,-12.151l-6.075,6.751m-76.28,4.725l2.025,-0.337l2.025,-1.351l1.013,-1.687l0.675,-2.363l-0.675,-2.025l-1.013,-2.025l-2.025,-1.013l-2.025,-0.675l-2.362,0.675l-1.688,1.013l-1.35,2.025l-0.338,2.025l0.338,2.363l1.35,1.687l1.688,1.351l2.362,0.337m-156.609,-22.951l2.025,-0.338l2.025,-1.35l1.013,-1.687l0.675,-2.363l-0.675,-2.025l-1.013,-2.025l-2.025,-1.35l-2.025,-0.338l-2.362,0.338l-1.688,1.35l-1.35,2.025l-0.338,2.025l0.338,2.363l1.35,1.687l1.688,1.35l2.362,0.338m-356.42,42.865l2.025,-0.675l2.025,-1.013l1.35,-2.025l0.337,-2.025l-0.337,-2.363l-1.35,-1.687l-2.025,-1.35l-2.025,-0.338l-2.363,0.338l-1.688,1.35l-1.35,1.687l-0.337,2.363l0.337,2.025l1.35,2.025l1.688,1.013l2.363,0.675m-21.939,78.642l0.675,-1.013m-2.363,1.35l1.688,-0.337m571.42,-79.655l6.076,1.688m-576.821,76.954l8.775,-27.339m363.846,-88.093l-16.538,37.803m-340.557,-24.977l-29.027,99.231m38.477,-65.479l7.763,-13.163m-14.176,27.677l6.413,-14.514m566.02,-8.1l7.088,-1.688m-14.175,2.363l7.087,-0.675m-14.175,-0l7.088,0.675m-575.134,48.94l4.388,-13.838m354.396,-28.689l1.35,-2.025m-3.376,3.375l2.026,-1.35m-4.388,1.687l2.362,-0.337m-4.725,-0l2.363,0.337m-3.713,-1.012l1.35,0.675m-3.375,-2.363l2.025,1.688m-3.375,-3.713l1.35,2.025m-1.688,-4.05l0.338,2.025m-0,-4.725l-0.338,2.7m-369.246,71.554l0,0.337m6.413,4.051l4.725,0.337m15.526,-42.527l5.4,-13.163m350.346,-17.551l23.964,-54.679m-406.374,123.532l0.338,1.351m-0,-0l1.687,1.012m0,0l4.388,1.688m2823.69,445.188l46.24,-0m-382.747,-0l336.507,-0m-7.088,9.45l-319.631,0m363.508,0l-43.877,0m30.377,14.514l-336.845,-0m-2279.27,-23.964l46.24,-0m-382.409,-0l336.169,-0m-7.088,9.45l-319.631,0m363.509,0l-43.878,0m30.377,14.514l-336.507,-0m376.672,-1293.38l22.951,0m-12.15,-18.226l1.687,0m848.862,18.226l22.951,0m-12.488,-18.226l1.687,0m848.862,18.226l22.951,0m-12.488,-18.226l2.025,0m-1304.17,18.226l22.951,0m-12.488,-18.226l2.025,0m1773.66,203.524l2.7,0m-110.706,0l108.006,0m-64.129,-421.561l22.951,-0m-12.15,-18.226l1.687,-0m-873.5,254.489l22.951,0m-12.488,-18.226l2.025,0m142.433,363.509l165.047,-0m-203.186,-0l38.139,-0m-1329.83,-0l59.741,-0m-330.094,-0l60.078,-0m2257.67,-903.878l143.783,0m-287.229,0l143.446,0m-0,-272.715l165.047,-0m-330.094,-0l165.047,-0m165.047,84.717l1.012,1.688l0,5.738m0,44.215l0,4.725m0,-0l-0.337,2.025l-0.675,0.675m-0,-5.738l0.675,-1.687l0.337,-4.726m0,0l0,-17.213m0,-0l0,-17.551m0,-0l-0.337,-5.063l-0.675,-1.688m-0,6.751l-0,-5.063m-0,8.776l-0,-3.713m-0,34.764l-0,-4.725m-0,9.451l-0,-4.726m-0,-34.764l1.012,-0m-1.012,34.764l1.012,0m-1.012,-17.213l1.012,-0m-1601.19,1062.17l38.477,-0m-203.524,-0l165.047,-0m358.783,509.654l22.614,-1.688l22.276,-5.4l20.926,-8.438l19.577,-11.476l17.551,-14.513l15.188,-16.876l12.151,-19.239l9.45,-20.588l6.076,-21.939l2.362,-22.614l-0.675,-22.614l-4.388,-22.276l-7.763,-21.264l-10.8,-19.913l-13.838,-18.226l-16.201,-15.864l-18.564,-12.825l-20.251,-10.126l-21.601,-6.75l-22.614,-3.713l-22.614,-0l-22.614,3.713l-21.601,6.75l-20.251,10.126l-18.564,12.825l-16.538,15.864l-13.501,18.226l-11.138,19.913l-7.426,21.264l-4.387,22.276l-1.013,22.614l2.7,22.614l6.076,21.939l9.113,20.588l12.488,19.239l15.188,16.876l17.551,14.513l19.239,11.476l21.264,8.438l21.938,5.4l22.614,1.688m0,9.451l-22.951,-1.688l-22.276,-5.063l-21.602,-8.1l-20.251,-11.476l-18.226,-13.838l-15.863,-16.539l-13.501,-18.901l-10.463,-20.589l-7.426,-21.601l-4.05,-22.951l-1.012,-22.951l2.362,-22.952l6.076,-22.276l8.775,-21.264l12.151,-19.576l14.851,-17.551l17.213,-15.526l19.239,-12.826l20.588,-9.788l22.277,-6.412l22.613,-3.376l23.289,0l22.614,3.376l21.939,6.412l20.926,9.788l19.239,12.826l17.213,15.526l14.851,17.551l11.813,19.576l9.113,21.264l5.738,22.276l2.7,22.952l-1.012,22.951l-4.051,22.951l-7.425,21.601l-10.463,20.589l-13.501,18.901l-15.863,16.539l-18.564,13.838l-19.913,11.476l-21.602,8.1l-22.276,5.063l-23.289,1.688m0,33.414l25.652,-1.688l24.976,-5.062l24.301,-8.438l22.614,-11.476l21.264,-14.513l18.901,-17.214l16.539,-19.239l13.838,-21.601l10.463,-23.289l7.763,-24.301l4.05,-25.314l1.013,-25.651l-2.7,-25.314l-5.738,-24.977l-9.113,-23.626l-12.489,-22.614l-15.188,-20.589l-17.551,-18.226l-20.251,-15.863l-21.939,-13.163l-23.626,-9.788l-24.639,-6.751l-25.314,-3.375l-25.314,-0l-25.652,3.375l-24.638,6.751l-23.289,9.788l-21.939,13.163l-20.251,15.863l-17.889,18.226l-14.851,20.589l-12.488,22.614l-9.113,23.626l-6.075,24.977l-2.363,25.314l0.675,25.651l4.388,25.314l7.425,24.301l10.801,23.289l13.838,21.601l16.539,19.239l18.901,17.214l20.926,14.513l22.951,11.476l24.302,8.438l24.976,5.062l25.314,1.688m-1674.1,-1624.14l-0,30.715m3348.53,-30.715l-30.714,0m-3287.44,0l-30.376,0m3348.53,0l0,30.715m-2516.21,1421.29l-4.051,-8.438m1797.97,-106.319l-0,4.726m-0,181.923l-0,4.725m133.995,-191.374l-0,4.726m-0,181.923l-0,4.725m-133.995,-0l-0,-4.725m-0,-181.923l-0,-4.726m267.99,191.374l-0,-4.725m-0,-181.923l-0,-4.726m-0,0l-0,4.726m-0,181.923l-0,4.725m-133.995,-0l-0,-4.725m-0,-181.923l-0,-4.726m-2436.55,124.208l-0,9.113m3010,-1439.86l-3.712,-10.801l-3.376,-9.113l-3.712,-7.088l-3.376,-3.375l-1.687,-0.338m-3287.44,0l2555.02,0m330.094,0l402.323,0m-3287.44,0l-3.375,2.025l-3.375,5.401l-3.713,8.438l-3.375,10.125l-1.688,4.726m-14.85,1086.81l14.85,0m-14.85,-1086.81l-0,1086.81m3333.68,-1086.81l14.851,-0m0,-0l0,1086.81m0,0l-14.851,0m-3318.83,-1086.81l-14.85,-0m14.85,1117.53l0,-30.715m3318.83,0l0,30.715m-3319.5,-1117.53l1.351,-6.413l3.037,-4.388m-18.563,10.801l2.362,-11.814l6.413,-9.788l10.126,-6.75l11.475,-2.363m3287.44,0l11.813,2.363l9.788,6.75l6.751,9.788l2.362,11.814m-18.563,-10.801l3.037,4.388l1.35,6.413m14.176,1098.29l0,-11.476m-14.176,11.476l14.176,-0m-14.176,-11.476l0,11.476m-3334.35,-0l14.175,-0m-14.175,19.239l-0,-19.239m14.175,-0l0,19.239m-14.175,-19.239l-0,-11.476m14.175,0l0,11.476m3320.18,19.239l0,-19.239m14.176,-0l0,19.239m-3702.59,21.263l-1.013,0l-0.675,0.338l-1.012,0.337l-1.351,1.35l-0.337,1.013l-0.338,0.675l0,1.013m4050.57,-4.726l-4035.05,0m4035.05,0l10.801,0m4.725,4.726l0,-1.013l-0.337,-0.675l-0.338,-1.013l-1.35,-1.35l-1.012,-0.337l-0.675,-0.338l-1.013,0m4.725,4.726l0,517.079m-4.725,5.063l1.013,-0.337l0.675,-0l1.012,-0.675l0.675,-0.338l0.675,-1.013l0.338,-0.675l0.337,-1.012l0,-1.013m-4.725,5.063l-10.801,0m-4035.05,0l4035.05,0m-4045.85,0l10.8,0m-15.526,-5.063l0,1.013l0.338,1.012l0.337,0.675l0.676,1.013l0.675,0.338l1.012,0.675l0.675,-0l1.013,0.337m-4.726,-522.142l0,517.079m2894.23,-162.684l430.337,-0m0,-0l0,-191.374m0,0l-430.337,0m-0,0l-0,191.374m-1898.55,-127.92l-0.338,-2.363l-1.35,-2.025l-2.025,-1.35l-2.363,-0.337l-2.7,0.337l-2.025,1.35l-1.35,2.025l-0.337,2.363l0.337,2.363l1.35,2.025l2.025,1.35l2.7,0.675l2.363,-0.675l2.025,-1.35l1.35,-2.025l0.338,-2.363m-980.157,-231.201l-10.8,0m16.538,-21.263l4023.57,-0m-0,-0l1.012,1.012l1.35,3.713l1.35,5.4l1.013,6.75l1.012,4.388m-4035.05,0l1.35,-7.088l1.35,-6.413l1.013,-4.725l1.35,-2.7l0.675,-0.337m4019.18,562.982l-4014.79,-0m-0,-0l-2.363,-3.038l-2.7,-3.712l-2.363,-4.051l-2.7,-4.05m4035.05,0l-2.7,4.05l-2.362,4.051l-2.7,3.712l-2.363,3.038m-4014.79,-0l-1.013,0.337l-1.35,0.338l-1.35,1.35l-0.337,1.013l-0,1.687l0.675,0.675m4021.54,0l0.338,-0.675l0.337,-1.012l0,-0.675l-0.337,-1.013l-0.675,-0.675l-1.013,-0.675l-2.025,-0.675m-163.022,171.46l166.397,-166.06m-170.11,167.747l0.675,0l0.338,-0.337l1.012,-0l0.675,-0.338l1.013,-1.012m-10.126,1.687l6.413,0m-6.413,0l-3668.84,0m-6.075,0l6.075,0m-10.126,-1.687l0.338,0.337l0.675,0.338l0.675,0.675l1.35,-0l0.338,0.337l0.675,0m-170.11,-167.747l166.059,166.06m3873.04,-186.311l4.725,0m0,-526.868l0,4.726m0,517.079l0,5.063m-4.725,-526.868l4.725,0m-4061.37,526.868l-4.726,0m4.726,-526.868l-4.726,0m0,0l0,4.726m0,517.079l0,5.063m21.264,-548.131l-8.1,1.35l-7.088,4.725l-4.388,7.088l-1.688,8.1m16.539,-5.063l-0.338,0l-1.35,2.363l-0.675,2.7m4051.92,0l-1.687,-8.1l-4.726,-7.088l-6.75,-4.725l-8.1,-1.35m7.088,21.263l-0.676,-2.7l-1.687,-2.363m10.125,546.782l2.701,-3.038l2.025,-3.712l1.35,-4.051l0.337,-4.05m-6.413,14.851l-10.125,-10.126m-0,0l2.025,-2.7l0.338,-2.025m-4045.85,14.851l10.125,-10.126m-16.201,-4.725l0.338,4.05l1.35,4.051l1.688,3.712l2.7,3.038m8.1,-14.851l0.338,1.688l0.675,1.35l1.012,1.687m0,0l5.401,5.401m-10.126,10.125l-5.4,-5.4m4038.42,-4.725l0.675,-0.675l0.675,-1.013l1.013,-0.675l2.7,-2.7l-0,-0.338m10.125,10.126l0,0.337l-5.062,5.063m-4043.15,0l166.06,166.06m3711.03,-0l166.06,-166.06m-3856.16,173.823l3668.84,-0m-3668.84,-0l-0,-6.076m3668.84,0l0,6.076m-3682.67,-11.476l-5.401,5.4m0,0l-0.337,0l-0,-0.337l-0.338,-0l0,-0.338l-1.012,-1.012m3709.34,1.687l-5.401,-5.4m7.088,3.713l-1.687,1.687m-3689.09,0l-0,6.076m0.675,-0l-0.675,-0m-3.713,-0l3.713,-0m3670.19,-6.076l0,6.076m0,-0l-0.675,-0m-3688.08,-6.076l1.35,1.351l1.688,1.35l2.025,1.012l1.688,0.675l2.025,1.013l4.05,0.675l2.025,-0m3673.9,-0l3.713,-0m0,-0l2.363,-0l4.05,-0.675l2.025,-1.013l1.688,-0.675l2.025,-1.012l1.687,-1.35l1.351,-1.351m-2830.44,-766.506l5.401,-0m-210.275,-0l204.874,-0m-133.32,-282.167l-71.554,0m210.275,0l-138.721,0m121.507,300.055l4.725,0m-185.298,0l180.573,0m-175.847,-336.844l175.847,-0m-29.364,347.982l3.375,0m-123.869,0l120.494,0m19.576,-356.083l-156.271,0m19.576,-11.138l117.119,0m-87.418,-13.838l57.379,-0m-51.641,-3.375l45.903,-0m-41.852,-6.751l38.139,0m-38.139,-21.601l38.139,0m-24.976,-12.488l11.475,-0m-11.475,-8.438l11.475,-0m767.52,85.73l175.847,-0m-121.507,36.789l-71.554,0m210.275,0l-138.721,0m133.32,282.167l5.401,-0m-210.275,-0l204.874,-0m-11.813,17.888l4.726,0m-185.299,0l180.573,0m-29.364,11.138l3.375,0m-123.869,0l120.494,0m19.576,-356.083l-156.271,0m19.576,-11.138l117.119,0m-87.08,-13.838l57.378,-0m-51.64,-3.375l45.903,-0m-42.19,-6.751l38.139,0m-38.139,-21.601l38.139,0m-24.639,-12.488l11.476,-0m-11.476,-8.438l11.476,-0m954.843,404.686l5.737,-0m-210.612,-0l204.875,-0m-132.983,-282.167l-71.892,0m210.612,0l-138.72,0m121.169,300.055l4.726,0m-185.298,0l180.572,0m-175.51,-336.844l175.51,-0m-29.026,347.982l3.037,0m-123.869,0l120.832,0m19.238,-356.083l-156.271,0m19.576,-11.138l117.119,0m-87.08,-13.838l57.379,-0m-51.641,-3.375l45.903,-0m-42.19,-6.751l38.139,0m-38.139,-21.601l38.139,0m-24.638,-12.488l11.475,-0m-11.475,-8.438l11.475,-0m-1385.18,85.73l175.51,-0m-121.169,36.789l-71.892,0m210.612,0l-138.72,0m133.32,282.167l5.4,-0m-210.612,-0l205.212,-0m-12.151,17.888l5.063,0m-185.298,0l180.235,0m-29.026,11.138l3.037,0m-123.532,0l120.495,0m19.238,-356.083l-155.934,0m19.577,-11.138l116.781,0m-87.08,-13.838l57.379,-0m-51.641,-3.375l45.903,-0m-42.19,-6.751l38.477,0m-38.477,-21.601l38.477,0m-24.976,-12.488l11.475,-0m-11.475,-8.438l11.475,-0m1628.53,-150.871l175.847,-0m-121.507,37.127l-71.554,-0m210.275,-0l-138.721,-0m133.32,281.829l5.401,-0m-210.275,-0l204.874,-0m-11.813,17.888l4.726,0m-185.299,0l180.573,0m-29.364,11.476l3.375,-0m-123.869,-0l120.494,-0m19.576,-356.083l-156.271,-0m19.576,-11.476l117.119,0m-87.417,-13.838l57.378,-0m-51.641,-3.375l45.903,-0m-41.852,-6.413l38.139,-0m-38.139,-21.939l38.139,-0m-24.976,-12.151l11.476,0m-11.476,-8.775l11.476,-0m-766.845,641.287l5.401,-0m-210.613,-0l205.212,-0m-12.15,17.888l5.062,0m-185.298,0l180.236,0m-175.511,-336.844l175.511,-0m-121.17,36.789l-71.892,0m210.613,0l-138.721,0m92.143,311.193l3.375,0m-123.87,0l120.495,0m19.576,-356.083l-156.271,0m19.576,-11.138l117.119,0m-87.418,-13.838l57.379,-0m-51.641,-3.375l45.903,-0m-41.853,-6.751l38.14,0m-38.14,-21.601l38.14,0m-24.976,-12.488l11.475,-0m-11.475,-8.438l11.475,-0m855.275,-567.033l165.047,0m-330.094,0l165.047,0m-717.567,387.135l295.33,0m-590.322,0l294.992,0m0,-228.838l213.65,-0m-426.962,-0l213.312,-0m0,704.74l181.923,0m-220.062,0l38.139,0m0,-717.566l198.462,0m-396.586,0l198.124,0m0,742.543l181.923,-0m-220.062,-0l38.139,-0m0,-778.32l181.586,0m-362.834,0l181.248,0m0,-122.519l179.561,-0m-358.784,-0l179.223,-0m0,-39.828l157.284,0m-314.23,0l156.946,0m-717.566,439.788l295.329,0m-590.321,0l294.992,0m-0,-228.838l213.65,-0m-426.962,-0l213.312,-0m-0,704.74l38.477,0m-220.063,0l181.586,0m-0,-717.566l198.461,0m-396.585,0l198.124,0m-0,742.543l38.477,-0m-220.063,-0l181.586,-0m-0,-778.32l181.585,0m-362.833,0l181.248,0m-0,-122.519l179.56,-0m-358.783,-0l179.223,-0m-0,-39.828l157.284,0m-314.231,0l156.947,0m1435.13,-736.805l295.329,0m-590.659,0l295.33,0m-0,-228.838l213.65,0m-426.963,0l213.313,0m-0,704.741l208.587,-0m-416.837,-0l208.25,-0m-0,-717.567l198.461,0m-396.585,0l198.124,0m-0,742.543l195.423,0m-390.51,0l195.087,0m-0,-778.32l181.585,0m-362.833,0l181.248,0m-0,-122.519l179.56,-0m-358.783,-0l179.223,-0m-0,-39.828l157.284,0m-314.231,0l156.947,0m-2152.7,1616.38l295.329,0m-590.321,0l294.992,0m-0,-228.838l213.649,-0m-426.962,-0l213.313,-0m105.306,704.74l103.281,0m-416.837,0l103.281,0m104.969,-717.566l198.461,0m-396.585,0l198.124,0m105.306,742.543l90.117,-0m-390.51,-0l90.118,-0m104.969,-778.32l181.585,0m-362.833,0l181.248,0m-0,-122.519l179.56,-0m-358.783,-0l179.223,-0m-0,-39.828l157.284,0m-314.231,0l156.947,0m-272.041,1370.67l-0,3.712m-310.856,-1437.16l2570.55,-0m331.106,-0l417.174,-0m-3318.83,1086.81l417.85,0m330.094,0l160.321,0m210.612,0l16.539,0m413.799,0l220.062,0m413.799,0l16.876,0m210.612,0l908.265,0m-3670.86,589.309l-6.751,6.413l-3.375,3.375m4043.15,0l-6.751,-6.75l-3.375,-3.038m-3866.96,175.848l5.4,-5.4m3699.89,-0l5.738,5.4m-3694.49,1.687l0,6.076m3677.61,-6.076l0,6.076" style="fill:none;fill-rule:nonzero;stroke:#000;stroke-width:4.76px;stroke-miterlimit:10;"/></g><g><g><path d="M4546.82,2602.74l-33.342,66.685l-33.343,-66.685l66.685,0Z"/><path d="M4513.47,2448.77l-0,167.304" style="fill:none;stroke:#000;stroke-width:11.13px;"/></g></g><g><g><path d="M4546.82,1423.1l-33.342,66.684l-33.343,-66.684l66.685,-0Z"/><path d="M4513.47,1269.13l-0,167.304" style="fill:none;stroke:#000;stroke-width:11.13px;"/></g></g><g><g><g><circle cx="5958.39" cy="2275.73" r="104.274" style="fill:#fff;stroke:#000;stroke-width:7.73px;"/></g><g><path d="M5968.68,2295.03l-20.273,-0l-4.259,-81.261l28.791,0l-4.259,81.261Zm-24.872,28.449c-0,-4.6 1.192,-8.177 3.748,-10.562c2.555,-2.385 6.132,-3.578 10.902,-3.578c4.6,0 8.178,1.193 10.733,3.748c2.555,2.385 3.748,5.792 3.748,10.392c-0,4.429 -1.193,7.836 -3.748,10.392c-2.555,2.555 -6.133,3.748 -10.733,3.748c-4.599,-0 -8.177,-1.193 -10.732,-3.748c-2.555,-2.385 -3.918,-5.792 -3.918,-10.392Z" style="fill-rule:nonzero;"/></g></g></g></g></svg>