<?xml version="1.0" encoding="UTF-8" standalone="no"?><!DOCTYPE svg PUBLIC "-//W3C//DTD SVG 1.1//EN" "http://www.w3.org/Graphics/SVG/1.1/DTD/svg11.dtd"><svg width="100%" height="100%" viewBox="0 0 8000 4500" version="1.1" xmlns="http://www.w3.org/2000/svg" xmlns:xlink="http://www.w3.org/1999/xlink" xml:space="preserve" xmlns:serif="http://www.serif.com/" style="fill-rule:evenodd;clip-rule:evenodd;stroke-linecap:square;stroke-miterlimit:1.5;"><path d="M8000,112.372c0,-62.02 -50.352,-112.372 -112.372,-112.372l-7775.26,0c-62.02,0 -112.372,50.352 -112.372,112.372l0,4275.26c0,62.02 50.352,112.372 112.372,112.372l7775.26,-0c62.02,-0 112.372,-50.352 112.372,-112.372l0,-4275.26Z" style="fill:#fafafa;"/><g id="description"><text x="3903.34px" y="1252.88px" style="font-family:'Inter-Medium', 'Inter';font-weight:500;font-size:150px;">1<tspan x="3968.06px 4008.81px 4048.54px 4143.41px 4231.25px 4352.49px " y="1252.88px 1252.88px 1252.88px 1252.88px 1252.88px 1252.88px ">. Powe</tspan>r / Input Select<tspan x="5490.27px " y="1252.88px ">o</tspan>r</text><text x="3901.21px" y="1712.79px" style="font-family:'Inter-Medium', 'Inter';font-weight:500;font-size:150px;">2.<tspan x="4033.95px 4073.69px 4170.47px " y="1712.79px 1712.79px 1712.79px "> Vo</tspan>lume Up</text><text x="3901.42px" y="2189px" style="font-family:'Inter-Medium', 'Inter';font-weight:500;font-size:150px;">3<tspan x="3994.74px 4035.49px 4075.23px 4172.02px " y="2189px 2189px 2189px 2189px ">. Vo</tspan>lume Do<tspan x="4845.31px " y="2189px ">w</tspan>n</text><text x="3903.76px" y="2637.19px" style="font-family:'Inter-Medium', 'Inter';font-weight:500;font-size:150px;">4<tspan x="3997.78px 4038.53px " y="2637.19px 2637.19px ">. </tspan>Mut<tspan x="4357.01px " y="2637.19px ">e</tspan> / Brightness</text></g><g id="gombfeliratok"><text x="2749.41px" y="1062.23px" style="font-family:'Inter-Medium', 'Inter';font-weight:500;font-size:66.667px;">PO<tspan x="2842.62px " y="1062.23px ">W</tspan>ER</text><g transform="matrix(66.6667,0,0,66.6667,2921.56,1516.45)"><path d="M0.285,-0.122l0,-0.48l0.096,-0l-0,0.48l-0.096,-0Zm-0.192,-0.193l0,-0.095l0.48,0l0,0.095l-0.48,0Z" style="fill-rule:nonzero;"/></g><text x="2793.03px" y="1516.45px" style="font-family:'Inter-Medium', 'Inter';font-weight:500;font-size:66.667px;">V<tspan x="2837.28px " y="1516.45px ">O</tspan>L</text><g transform="matrix(66.6667,0,0,66.6667,2929.11,1980.57)"><rect x="0.07" y="-0.41" width="0.322" height="0.092" style="fill-rule:nonzero;"/></g><text x="2800.59px" y="1980.57px" style="font-family:'Inter-Medium', 'Inter';font-weight:500;font-size:66.667px;">V<tspan x="2844.83px " y="1980.57px ">O</tspan>L</text><text x="2782.37px" y="2420.16px" style="font-family:'Inter-Medium', 'Inter';font-weight:500;font-size:66.667px;">MUTE</text></g><g><g><path d="M3373.86,843.241c-0,-24.891 -9.895,-48.759 -27.506,-66.356c-17.584,-17.601 -41.471,-27.486 -66.348,-27.486l-805.023,-0c-24.877,-0 -48.765,9.885 -66.348,27.486c-17.612,17.597 -27.478,41.465 -27.478,66.356l-0,2813.48c-0,24.915 9.866,48.788 27.478,66.361c17.583,17.62 41.471,27.519 66.348,27.519l805.023,0c24.877,0 48.764,-9.899 66.348,-27.519c17.611,-17.573 27.506,-41.446 27.506,-66.361l-0,-2813.48Z" style="fill:none;stroke:#1d1d1b;stroke-width:10.44px;"/></g><g><circle cx="2877.49" cy="1211.12" r="92.344" style="fill:none;stroke:#1d1d1b;stroke-width:10.44px;"/></g><g><circle cx="2877.49" cy="1672.84" r="92.344" style="fill:none;stroke:#1d1d1b;stroke-width:10.44px;"/></g><g><circle cx="2877.49" cy="2134.56" r="92.344" style="fill:none;stroke:#1d1d1b;stroke-width:10.44px;"/></g><g><circle cx="2877.49" cy="2596.28" r="115.43" style="fill:none;stroke:#1d1d1b;stroke-width:10.44px;"/></g></g></svg>