<?xml version="1.0" encoding="UTF-8" standalone="no"?><!DOCTYPE svg PUBLIC "-//W3C//DTD SVG 1.1//EN" "http://www.w3.org/Graphics/SVG/1.1/DTD/svg11.dtd"><svg width="100%" height="100%" viewBox="0 0 8000 4500" version="1.1" xmlns="http://www.w3.org/2000/svg" xmlns:xlink="http://www.w3.org/1999/xlink" xml:space="preserve" xmlns:serif="http://www.serif.com/" style="fill-rule:evenodd;clip-rule:evenodd;stroke-linecap:square;stroke-miterlimit:1.5;"><path d="M8000,112.372c0,-62.02 -50.352,-112.372 -112.372,-112.372l-7775.26,0c-62.02,0 -112.372,50.352 -112.372,112.372l0,4275.26c0,62.02 50.352,112.372 112.372,112.372l7775.26,-0c62.02,-0 112.372,-50.352 112.372,-112.372l0,-4275.26Z" style="fill:#fafafa;"/><g><g id="Réteg-1" serif:id="Réteg 1"><g><text x="3885.47px" y="1634.21px" style="font-family:'Roboto-Regular', 'Roboto';font-size:159.689px;fill:#1d1d1b;">1.</text><g><text x="4056px" y="1634.21px" style="font-family:'Roboto-Light', 'Roboto';font-weight:300;font-size:159.689px;fill:#1d1d1b;">POWER ON / ST</text><text x="5182.87px" y="1634.21px" style="font-family:'Roboto-Light', 'Roboto';font-weight:300;font-size:159.689px;fill:#1d1d1b;">AND B</text><text x="5632.93px" y="1634.21px" style="font-family:'Roboto-Light', 'Roboto';font-weight:300;font-size:159.689px;fill:#1d1d1b;">Y</text></g></g><g><text x="3885.47px" y="2004.59px" style="font-family:'Roboto-Regular', 'Roboto';font-size:159.689px;fill:#1d1d1b;">2.</text><g><text x="4056px" y="2004.59px" style="font-family:'Roboto-Light', 'Roboto';font-weight:300;font-size:159.689px;fill:#1d1d1b;">V<tspan x="4153.47px " y="2004.59px ">O</tspan>L</text><text x="4341.47px" y="2004.59px" style="font-family:'Roboto-Light', 'Roboto';font-weight:300;font-size:159.689px;fill:#1d1d1b;">UME UP</text></g></g><g><text x="3885.47px" y="2740.25px" style="font-family:'Roboto-Regular', 'Roboto';font-size:159.689px;fill:#1d1d1b;">4.</text><g><text x="4056px" y="2740.25px" style="font-family:'Roboto-Light', 'Roboto';font-weight:300;font-size:159.689px;fill:#1d1d1b;">MUTE / BRIGH</text><text x="5087.97px" y="2740.25px" style="font-family:'Roboto-Light', 'Roboto';font-weight:300;font-size:159.689px;fill:#1d1d1b;">TNESS LEVEL</text></g></g><g><text x="3885.47px" y="2374.98px" style="font-family:'Roboto-Regular', 'Roboto';font-size:159.689px;fill:#1d1d1b;">3.</text><g><text x="4056px" y="2374.98px" style="font-family:'Roboto-Light', 'Roboto';font-weight:300;font-size:159.689px;fill:#1d1d1b;">V<tspan x="4153.47px " y="2374.98px ">O</tspan>L</text><text x="4341.47px" y="2374.98px" style="font-family:'Roboto-Light', 'Roboto';font-weight:300;font-size:159.689px;fill:#1d1d1b;">UME DOWN</text></g></g></g><g><path d="M3373.86,843.241c-0,-24.891 -9.895,-48.759 -27.506,-66.356c-17.584,-17.601 -41.471,-27.486 -66.348,-27.486l-805.023,-0c-24.877,-0 -48.765,9.885 -66.348,27.486c-17.612,17.597 -27.478,41.465 -27.478,66.356l-0,2813.48c-0,24.915 9.866,48.788 27.478,66.361c17.583,17.62 41.471,27.519 66.348,27.519l805.023,0c24.877,0 48.764,-9.899 66.348,-27.519c17.611,-17.573 27.506,-41.446 27.506,-66.361l-0,-2813.48Z" style="fill:none;stroke:#1d1d1b;stroke-width:10.44px;"/></g><g><circle cx="2877.49" cy="1211.12" r="92.344" style="fill:none;stroke:#1d1d1b;stroke-width:10.44px;"/></g><g><circle cx="2877.49" cy="1672.84" r="92.344" style="fill:none;stroke:#1d1d1b;stroke-width:10.44px;"/></g><g><circle cx="2877.49" cy="2134.56" r="92.344" style="fill:none;stroke:#1d1d1b;stroke-width:10.44px;"/></g><g><circle cx="2877.49" cy="2596.28" r="115.43" style="fill:none;stroke:#1d1d1b;stroke-width:10.44px;"/></g><g><text x="2749.72px" y="1081.39px" style="font-family:'SFUIText-Regular', 'SF UI Text';font-size:70.298px;">PO<tspan x="2846.51px " y="1081.39px ">W</tspan>ER</text></g><g><text x="2813.83px" y="1543.12px" style="font-family:'SFUIText-Regular', 'SF UI Text';font-size:70.298px;">V<tspan x="2859.48px 2913.68px 2947.77px " y="1543.12px 1543.12px 1543.12px ">OL+</tspan></text></g><g><g><text x="2808.19px" y="2004.84px" style="font-family:'SFUIText-Regular', 'SF UI Text';font-size:70.298px;">V<tspan x="2853.84px " y="2004.84px ">O</tspan>L</text><text x="2939.29px" y="2004.84px" style="font-family:'SFUIText-Regular', 'SF UI Text';font-size:70.298px;">-</text></g></g><g><text x="2778.83px" y="2441.2px" style="font-family:'SFUIText-Regular', 'SF UI Text';font-size:70.298px;">MUTE</text></g></g></svg>