<?xml version="1.0" encoding="UTF-8" standalone="no"?><!DOCTYPE svg PUBLIC "-//W3C//DTD SVG 1.1//EN" "http://www.w3.org/Graphics/SVG/1.1/DTD/svg11.dtd"><svg width="100%" height="100%" viewBox="0 0 8000 4500" version="1.1" xmlns="http://www.w3.org/2000/svg" xmlns:xlink="http://www.w3.org/1999/xlink" xml:space="preserve" xmlns:serif="http://www.serif.com/" style="fill-rule:evenodd;clip-rule:evenodd;stroke-linecap:round;stroke-linejoin:round;stroke-miterlimit:10;"><path d="M8000,112.372c0,-62.02 -50.352,-112.372 -112.372,-112.372l-7775.26,0c-62.02,0 -112.372,50.352 -112.372,112.372l0,4275.26c0,62.02 50.352,112.372 112.372,112.372l7775.26,-0c62.02,-0 112.372,-50.352 112.372,-112.372l0,-4275.26Z" style="fill:#fafafa;"/><g><g><path d="M5123.92,3353.66l9.957,9.614m369.776,-0l9.614,-9.614m-0,0l-0,-107.122m-389.347,0l0,107.122m23.347,9.614l0,14.763m342.653,0l-0,-14.763m-2614.18,-9.614l-0,-107.122m-389.004,0l0,107.122m0,0l9.614,9.614m369.776,-0l9.614,-9.614m-365.657,9.614l0,14.763m342.309,0l0,-14.763m-54.247,-902.639l-0,2.746l0.687,3.09l1.03,2.747l3.433,4.807l2.403,2.06l2.404,1.373l2.746,1.374m188.494,-0l2.746,-1.374l2.404,-1.373l2.403,-2.06l1.717,-2.404l1.373,-2.403l1.374,-2.747l0.686,-3.09l0,-2.746m-213.9,-219.394l-0,219.394m213.9,-0l0,-219.394m-201.197,237.591l31.244,11.33m126.006,-0l31.244,-11.33m-157.25,11.33l0.687,0.343l1.03,0.343l0.687,0l1.03,0.344l1.373,-0l1.03,0.343l0.687,0m112.615,0l1.03,0l0.687,-0.343l1.716,-0l1.03,-0.344l0.687,0l0.687,-0.343l1.03,-0.343m-92.358,-387.63l-3.434,2.06l-1.373,0.343m68.324,0l-1.373,-0.343l-3.777,-2.06m0,-0l-5.837,-3.434m-46.694,0l-5.836,3.434m9.956,-10.3l0,1.03l-0.686,2.06l-0.344,0.686l-0.686,1.03l-1.374,1.374l-1.03,0.686m46.694,0l-2.06,-2.06l-0.686,-1.03l-0.344,-0.686l-0.686,-2.06l-0,-1.03m-38.798,-16.481l0,16.481m38.798,-0l-0,-16.481m-20.257,-31.93l-2.06,0.686l-0.687,0.344l-1.717,1.716m10.644,0l-1.717,-1.716l-0.687,-0.344l-2.06,-0.686m768.05,416.814l0,2.746l0.687,3.09l1.373,2.747l1.374,2.403l2.06,2.404l2.06,2.06l2.403,1.373l2.747,1.374m188.493,-0l2.747,-1.374l2.403,-1.373l2.404,-2.06l3.433,-4.807l1.03,-2.747l0.687,-3.09l-0,-2.746m-213.901,-219.394l0,219.394m213.901,-0l-0,-219.394m-201.197,237.591l31.244,11.33m126.005,-0l31.244,-11.33m-157.249,11.33l1.03,0.343l0.686,0.343l0.687,0l1.03,0.344l1.717,-0l0.687,0.343l1.03,0m112.615,0l0.687,0l1.03,-0.343l1.373,-0l1.03,-0.344l0.687,0l1.03,-0.343l0.686,-0.343m-92.015,-387.63l-3.776,2.06l-1.374,0.343m10.987,-5.837l-5.837,3.434m9.614,-10.3l-0,1.03l-0.687,2.06l-0.343,0.686l-0.687,1.03l-2.06,2.06m3.777,-23.347l-0,16.481m788.307,368.403l0.343,2.746l0.687,3.09l1.03,2.747l1.373,2.403l2.06,2.404l2.06,2.06l2.404,1.373l2.746,1.374m188.494,-0l2.746,-1.374l2.404,-1.373l2.403,-2.06l3.434,-4.807l1.03,-2.747l0.686,-3.09l0.344,-2.746m-214.244,-219.394l-0,219.394m214.244,-0l-0,-219.394m-201.541,237.591l31.244,11.33m126.006,-0l31.244,-11.33m-157.25,11.33l1.03,0.343l0.687,0.343l1.03,0l0.687,0.344l1.716,-0l0.687,0.343l1.03,0m112.615,0l0.687,0l1.03,-0.343l1.717,-0l0.686,-0.344l0.687,0l1.03,-0.343l0.687,-0.343m-92.015,-387.63l-3.777,2.06l-1.03,0.343m67.981,0l-1.373,-0.343l-3.433,-2.06m-0,-0l-5.837,-3.434m-46.694,0l-5.837,3.434m9.613,-10.3l0,1.03l-0.686,2.06l-0.344,0.686l-0.686,1.03l-2.06,2.06m46.694,0l-1.03,-0.686l-1.374,-1.374l-0.343,-1.03l-0.687,-0.686l-0.343,-1.03l0,-1.03l-0.343,-1.03m-38.798,-16.481l0,16.481m38.798,-0l-0,-16.481m-20.257,-31.93l-1.03,0.343l-0.687,0.343l-1.03,0.344l-1.717,1.716m10.644,0l-0.344,-0.343l-0.343,-0.687l-0.687,-0.686l-2.06,-0.687l-0.686,-0.343m-1422.11,197.42l0,219.394m214.244,-0l0,-219.394m-214.244,219.394l0.344,2.746l0.686,3.09l1.03,2.747l1.374,2.403l2.06,2.404l2.06,2.06l5.493,2.747m188.494,-0l2.403,-1.374l2.747,-1.373l2.06,-2.06l2.06,-2.404l1.373,-2.403l1.03,-2.747l0.687,-3.09l0.343,-2.746m-201.197,18.197l31.244,11.33m125.662,-0l31.588,-11.33m-157.25,11.33l1.374,0.686l1.03,0l0.686,0.344l1.717,-0l1.03,0.343l0.687,0m112.615,0l0.687,0l1.03,-0.343l1.716,-0l0.687,-0.344l1.03,0l1.373,-0.686m-92.015,-387.63l-3.776,2.06l-1.03,0.343m67.981,0l-1.03,-0.343l-3.777,-2.06m0,-0l-5.837,-3.434m-46.694,0l-5.837,3.434m9.614,-10.3l-0,2.06l-0.343,1.03l-0.687,0.686l-0.343,1.03l-0.687,0.687l-1.03,0.687l-0.687,0.686m46.694,0l-0.686,-0.686l-1.03,-0.687l-0.687,-0.687l-0.343,-1.03l-0.687,-0.686l-0.343,-1.03l-0,-2.06m-39.141,-16.481l-0,16.481m39.141,-0l-0,-16.481m-20.601,-31.93l-1.03,0.343l-0.686,0.343l-1.03,0.344l-1.717,1.716m10.987,0l-1.717,-1.716l-1.03,-0.344l-0.687,-0.343l-1.03,-0.343m1643.91,197.42l-0,219.394m213.9,-0l0,-219.394m-213.9,219.394l-0,2.746l0.686,3.09l1.03,2.747l3.434,4.807l2.403,2.06l2.404,1.373l2.746,1.374m188.494,-0l2.746,-1.374l2.404,-1.373l2.06,-2.06l2.06,-2.404l1.373,-2.403l1.373,-2.747l0.687,-3.09l0,-2.746m-201.197,18.197l31.244,11.33m126.006,-0l31.244,-11.33m-157.25,11.33l0.687,0.343l1.03,0.343l0.687,0l1.03,0.344l1.373,-0l1.03,0.343l0.687,0m112.615,0l1.03,0l0.687,-0.343l1.716,-0l1.03,-0.344l0.687,0l0.687,-0.343l1.03,-0.343m-92.359,-387.63l-3.433,2.06l-1.373,0.343m68.324,0l-1.373,-0.343l-3.777,-2.06m0,-0l-5.837,-3.434m-46.694,0l-5.837,3.434m9.957,-10.3l0,1.03l-0.686,2.06l-0.344,0.686l-0.686,1.03l-1.374,1.374l-1.03,0.686m46.694,0l-2.06,-2.06l-0.686,-1.03l-0.344,-0.686l-0.686,-2.06l-0,-1.03m-38.798,-16.481l0,16.481m38.798,-0l-0,-16.481m-20.257,-31.93l-2.06,0.686l-0.687,0.344l-1.717,1.716m10.644,0l-1.717,-1.716l-0.687,-0.344l-2.06,-0.686m-984.01,416.814l0.343,2.746l0.687,3.09l1.03,2.747l3.433,4.807l2.404,2.06l2.403,1.373l2.747,1.374m188.493,-0l2.747,-1.374l2.403,-1.373l2.06,-2.06l2.06,-2.404l1.374,-2.403l1.03,-2.747l0.686,-3.09l0.344,-2.746m-214.244,-219.394l-0,219.394m214.244,-0l-0,-219.394m-201.197,237.591l31.244,11.33m126.005,-0l31.244,-11.33m-157.249,11.33l0.686,0.343l1.03,0.343l0.687,0l0.687,0.344l1.716,-0l1.03,0.343l0.687,0m112.615,0l1.03,0l0.687,-0.343l1.717,-0l0.686,-0.344l1.031,0l0.686,-0.343l1.03,-0.343m-29.184,-385.227l-1.03,-0.343l-3.776,-2.06m-0,-0l-5.837,-3.434m-0,0l-2.06,-2.06l-0.687,-1.03l-0.343,-0.686l-0.687,-2.06l0,-1.03m0,-0l0,-16.481m294.242,415.784l-0,-77.938m-1795.66,0l0,77.938m335.786,0l0,-77.938m1854.03,0l0,77.938m335.786,0l0,-77.938m-329.949,270.208l0.687,0.687l3.433,2.747l2.404,1.373m311.408,-0l2.404,-1.373l3.433,-2.747l0.687,-0.687m-1790.17,-270.208l-0,77.938m646.508,-822.984l-9.271,12.703l-9.613,15.107m-14.764,29.184l-4.806,13.047l-5.15,16.137m-6.524,29.184l-2.06,17.854l-0.687,11.33m0.687,29.184l3.433,23.69m600.501,0l3.433,-23.69m0.687,-29.184l-0.687,-11.33l-2.06,-17.854m-6.523,-29.184l-5.15,-16.137l-5.15,-13.047m-14.421,-29.184l-9.957,-15.107l-10.3,-14.076m-27.467,-29.184l-5.493,-4.807m-517.413,232.784l0.687,5.493m5.494,29.184l5.15,29.184m5.493,29.184l5.494,29.184m5.15,29.184l5.493,29.183m5.15,29.184l5.494,29.184m513.292,0l5.493,-29.184m5.15,-29.184l5.494,-29.183m5.15,-29.184l5.493,-29.184m5.15,-29.184l5.494,-29.184m5.15,-29.184l1.03,-5.493m-83.088,-232.784l-15.451,-13.047m0,0l-4.806,-4.807m-36.394,798.264l24.377,-24.377m-87.552,-1000.83l-30.557,-8.583l-24.72,-4.807m-84.118,-0l-25.064,4.807l-32.274,9.27l-31.244,13.047l-3.433,2.06m-813.028,229.007l-5.493,4.807m-27.467,29.184l-10.644,14.076l-9.613,15.107m-14.764,29.184l-4.807,13.047l-5.15,16.137m-6.523,29.184l-2.06,17.854l-0.687,11.33m0.687,29.184l3.433,23.69m600.501,0l3.433,-23.69m0.687,-29.184l-0.687,-11.33l-2.06,-17.854m-6.524,-29.184l-5.15,-16.137l-5.15,-13.047m-14.42,-29.184l-9.957,-15.107l-8.927,-12.703m-551.746,197.42l0.687,5.493m5.493,29.184l5.15,29.184m5.494,29.184l5.493,29.184m5.15,29.184l5.494,29.183m5.15,29.184l5.493,29.184m513.292,0l5.494,-29.184m5.15,-29.184l5.493,-29.183m5.15,-29.184l5.494,-29.184m5.15,-29.184l5.493,-29.184m5.151,-29.184l1.03,-5.493m-501.962,-245.831l-15.451,13.047m20.257,-17.854l-4.806,4.807m16.823,769.08l24.377,24.377m294.585,-1009.42l-3.776,-2.06l-30.901,-13.047l-32.617,-9.27l-24.721,-4.807m-84.118,-0l-25.063,4.807l-30.214,8.583m1255.59,396.214l-2.06,17.167l-0.686,10.986m0.686,29.871l3.09,23.347m600.844,0l3.09,-23.69m1.03,-29.184l-0.686,-11.33l-2.061,-17.854m-6.523,-29.184l-5.15,-16.137l-5.15,-13.047m-14.42,-29.184l-9.957,-15.107l-10.3,-14.076m-27.468,-29.184l-5.493,-4.807m-517.756,232.784l0.687,3.777m67.981,371.493l19.914,108.838m424.024,0l19.914,-108.838m24.72,-136.306l5.493,-29.184m5.151,-29.184l5.493,-29.183m5.15,-29.184l5.494,-29.184m5.15,-29.184l5.493,-29.184m5.15,-29.184l1.03,-5.493m-83.088,-232.784l-15.45,-13.047m-413.724,729.939l0.687,3.434l1.03,3.433l1.373,3.434l1.717,3.433l1.716,3.09l2.06,3.09l4.807,5.494m397.244,-0l4.806,-5.494l2.06,-3.09l1.717,-3.09l2.747,-6.867l2.06,-6.867m-10.3,-729.939l-3.777,-3.777l-3.433,-3.776l-2.747,-3.777m-390.377,766.677l38.111,38.11m321.022,0l38.111,-38.11m-14.077,-795.861l-0.687,-29.184m-0.343,-29.184l-0.687,-29.183m-0.343,-29.184l-0,-3.777m-364.97,-0l0,3.433m-0.687,29.528l-0.343,28.497m-0.687,30.214l-0.343,28.153m9.614,-145.575l-1.374,2.746l-2.746,5.15l-1.717,5.837l-1.374,5.837l-0.343,6.18m364.97,-0l-0.687,-6.18l-1.03,-5.837l-2.06,-5.837l-2.403,-5.15l-1.374,-2.746m-216.99,-58.368l-25.064,4.807l-32.274,9.27l-31.244,13.047l-4.12,2.06m-2272.22,229.007l-5.493,4.807m-27.468,29.184l-10.643,14.076l-9.614,15.107m-14.763,29.184l-4.807,13.047l-5.15,16.137m-6.523,29.184l-2.061,17.854l-0.686,11.33m0.686,29.184l3.434,23.69m600.5,0l3.09,-23.347m1.03,-29.871l-0.686,-10.986l-2.06,-17.167m-601.874,81.371l0.687,5.493m5.493,29.184l5.493,29.184m5.15,29.184l5.494,29.184m5.15,29.184l5.493,29.183m5.151,29.184l5.493,29.184m24.72,136.306l19.914,108.838m424.024,0l19.914,-108.838m67.638,-371.493l0.686,-3.777m-501.962,-245.831l-15.45,13.047m5.15,716.892l0.687,3.434l1.03,3.433l1.373,3.434l1.717,3.433l1.717,3.09l2.06,3.09l4.806,5.494m397.244,-0l4.807,-5.494l2.06,-3.09l1.716,-3.09l1.717,-3.433l1.03,-3.434l1.373,-3.433l0.687,-3.434m-404.11,-741.269l-2.404,3.777l-3.433,3.776l-3.777,3.777m3.09,755.347l38.111,38.11m321.022,0l38.111,-38.11m-14.077,-796.548l-0.687,-28.153m-0.343,-30.214l-0.343,-28.497m-0.687,-29.528l-0,-3.433m-364.97,-0l0,3.777m-0.686,29.184l-0.344,29.183m-0.343,29.184l-0.687,29.184m9.614,-146.262l-1.374,2.746l-2.746,5.15l-1.717,5.837l-1.373,5.837l-0.344,6.18m364.97,-0l-0.343,-6.18l-1.374,-5.837l-2.06,-5.837l-2.403,-5.15l-1.374,-2.746m-40.17,-29.184l-4.464,-2.06l-30.9,-13.047l-32.617,-9.27l-24.721,-4.807m-993.28,1683.39l-0,9.27m4092.26,0l0,-9.27m-1165.29,-184.716l428.144,-0m-428.144,-185.06l-0,185.06m428.144,-185.06l-428.144,-0m428.144,185.06l-0,-185.06m-2181.58,112.272l2.06,-1.717m0,0l1.717,-2.06m-0,0l1.03,-2.747m-0,0l0.687,-2.403m-0,0l0.343,-2.747m0,0l-0.687,-2.403m0,-0l-1.716,-2.747m-0,0l-2.404,-2.06m0,0l-2.746,-1.373m-0,-0l-3.091,-0.687m0,0l-2.746,0.344m-0,-0l-2.747,1.373m0,-0l-1.717,1.717m0,-0l-0.686,3.09m-0,-0l0.343,3.433m0,0l0,1.717m0,-0l-0.343,1.716m-0,0l-2.06,2.747m-0,0l-3.09,1.717m-0,-0l-3.434,0.343m0,0l2.06,2.06m0,0l2.06,1.717m0,-0l4.807,2.06m0,-0l2.403,0.343m0,0l2.747,0m0,0l2.403,-0.686m0,-0l2.747,-1.03m0,-0l2.06,-1.717m-212.87,-71.071l2.06,-4.464m-0,0l0.687,-2.06m-0,0l-0,-2.06m-0,0l-0.344,-2.06m0,0l-1.373,-2.06m-0,0l-1.03,-0.687m-0,0l-1.03,0m-0,0l-3.09,1.03m-0,0l-3.434,2.404m0,-0l-3.433,3.433m0,0l-6.523,7.21m-0,0l-4.12,5.15m-0,0l-3.434,4.464m0,-0l-2.747,4.807m0,-0l-4.463,9.956m0,0l16.137,-10.643m-0,-0l7.21,-5.15m0,-0l3.433,-2.747m0,0l3.091,-3.09m-0,0l2.403,-3.433m-122.916,53.217l-0.686,-2.746m-0,-0l-1.374,-2.061m0,0l-1.716,-1.03m-0,0l-2.404,0m0,0l-2.06,1.03m0,0l-1.716,2.061m-0,-0l-1.374,3.09m0,-0l-0.343,3.09m-0,-0l0.687,2.746m-0,0l1.03,2.06m-0,0l2.06,1.03m-0,0l2.403,0m0,0l2.06,-1.03m0,0l1.717,-2.403m-0,-0l1.373,-2.747m0,0l0.343,-3.09m-179.909,1.03l5.493,-2.746m0,-0l3.09,-3.091m0,0l0.687,-1.373m-0,0l-0,-1.373m-0,-0l-0.344,-1.03m0,-0l-1.373,-1.03m0,-0l-4.463,-1.03m-0,-0l-5.837,-0m-0,-0l-6.867,1.373m0,0l-6.867,2.06m0,0l-5.15,2.747m0,-0l-3.09,3.09m0,-0l-0.686,1.373m-0,0l-0.344,1.374m0,-0l0.687,1.03m-0,-0l1.373,1.03m0,-0l4.12,1.03m0,-0l6.18,-0.344m0,0l6.867,-1.03m0,0l6.524,-2.06m618.354,3.09l-1.717,1.717m4.12,-2.06l-2.403,0.343m4.806,0.344l-2.403,-0.687m4.807,2.06l-2.404,-1.373m4.121,3.433l-1.717,-2.06m2.747,4.463l-1.03,-2.403m1.03,4.807l-0,-2.404m-1.03,4.807l1.03,-2.403m-5.837,7.897l4.807,-5.494m-9.957,10.644l5.15,-5.15m-11.33,9.613l6.18,-4.463m-12.704,8.24l6.524,-3.777m-13.391,6.524l6.867,-2.747m-40.514,-0.344l5.837,3.091m-10.644,-7.211l4.807,4.12m-8.583,-9.613l3.776,5.493m-5.15,-8.583l1.374,3.09m-3.434,-6.523l2.06,3.433m-3.433,-4.463l1.373,1.03m-2.747,-1.374l1.374,0.344m-3.09,-0l1.716,-0.344m-3.433,2.06l1.717,-1.716m-4.12,4.806l2.403,-3.09m-4.12,6.18l1.717,-3.09m-3.777,10.3l2.06,-7.21m-2.403,8.927l0.343,-1.717m-1.717,2.747l1.374,-1.03m-2.747,1.717l1.373,-0.687m-3.09,0.687l1.717,-0m-4.12,-0.687l2.403,0.687m-4.807,-1.374l2.404,0.687m-3.777,-2.403l1.373,1.716m-2.403,-3.776l1.03,2.06m-1.03,-4.464l0,2.404m0.687,-7.554l-0.687,5.15m-1.373,-2.403l2.06,-2.747m-4.807,5.15l2.747,-2.403m-5.837,4.12l3.09,-1.717m-6.523,3.09l3.433,-1.373m-10.3,3.09l6.867,-1.717m-13.391,2.06l6.524,-0.343m-10.644,0l4.12,0.343m-7.553,-1.03l3.433,0.687m-6.866,-1.717l3.433,1.03m-6.867,-2.746l3.434,1.716m-6.181,-3.776l2.747,2.06m-5.493,-4.807l2.746,2.747m-4.806,-5.494l2.06,2.747m-4.12,-6.18l2.06,3.433m-3.777,-9.613l1.717,6.18m-3.434,-13.734l1.717,7.554m-3.777,-14.42l2.06,6.866m-3.777,-9.613l1.717,2.747m-3.777,-4.807l2.06,2.06m-6.866,-4.464l4.806,2.404m-10.3,-3.434l5.494,1.03m-16.137,-2.06l10.643,1.03m-20.943,-1.716l10.3,0.686m-20.601,-0.686l10.301,-0m-30.214,-0l19.913,-0m-39.827,0.686l19.914,-0.686m-45.664,58.367l1.373,-2.06m-3.433,3.434l2.06,-1.374m5.15,-46.35l-16.824,38.454m-0.687,-26.094l17.511,-12.36m-21.974,15.106l4.463,-2.746m-8.926,5.15l4.463,-2.404m-9.614,4.121l5.151,-1.717m-9.957,2.747l4.806,-1.03m-10.3,1.03l5.494,-0m-10.987,-1.03l5.493,1.03m-9.957,-3.434l4.464,2.404m-8.584,-6.181l4.12,3.777m-6.18,-7.553l2.06,3.776m-3.776,-7.553l1.716,3.777m-3.09,-2.06l1.374,-1.717m-7.21,6.867l5.836,-5.15m-12.36,9.27l6.524,-4.12m-12.704,7.21l6.18,-3.09m-13.047,5.493l6.867,-2.403m-10.644,2.747l3.777,-0.344m-7.21,0.344l3.433,-0m-6.866,-1.03l3.433,1.03m-6.867,-2.404l3.434,1.374m-8.927,-5.494l5.493,4.12m-9.613,-9.27l4.12,5.15m-7.554,-10.987l3.434,5.837m-5.494,-12.36l2.06,6.523m-2.403,-11.673l0.343,5.15m0,-10.3l-0.343,5.15m-8.583,2.746l8.926,-7.896m-18.54,15.793l9.614,-7.897m-19.914,15.107l10.3,-7.21m-15.45,10.3l5.15,-3.09m-10.644,5.494l5.494,-2.404m-12.704,5.151l7.21,-2.747m-15.107,4.463l7.897,-1.716m-12.017,2.06l4.12,-0.344m-7.896,0.344l3.776,-0m-7.21,-1.03l3.434,1.03m-6.18,-2.747l2.746,1.717m-7.21,-0l4.464,-1.717m-9.614,2.06l5.15,-0.343m-9.957,-0.344l4.807,0.687m-9.957,-3.09l5.15,2.403m-7.553,-4.12l2.403,1.717m-4.463,-3.777l2.06,2.06m-3.777,-4.463l1.717,2.403m-2.747,-4.807l1.03,2.404m-4.807,-0.344l3.777,-2.06m-7.21,3.09l3.433,-1.03m-8.24,1.717l4.807,-0.687m-9.27,0.344l4.463,0.343m-8.927,-1.373l4.464,1.03m-8.584,-3.434l4.12,2.404m-7.553,-5.494l3.433,3.09m-6.18,-6.866l2.747,3.776m-5.15,-7.896l2.403,4.12m-5.15,-7.897l2.747,3.777m-4.807,-3.091l2.06,-0.686m-9.613,5.15l7.553,-4.464m-23.347,15.451l15.794,-10.987m-22.317,14.763l6.523,-3.776m-13.39,6.18l6.867,-2.404m-10.644,2.747l3.777,-0.343m-7.21,0.343l3.433,0m-7.21,-0.687l3.777,0.687m-7.554,-1.717l3.777,1.03m-6.867,-3.09l3.09,2.06m-4.807,-4.463l1.717,2.403m-2.747,-5.15l1.03,2.747m-1.373,-5.837l0.343,3.09m0,-9.613l-0.343,6.523m1.03,-12.703l-0.687,6.18m0.344,-11.674l0.343,5.494m-2.747,-3.434l2.404,-2.06m-11.674,11.674l9.27,-9.614m-17.853,19.571l8.583,-9.957m-18.197,22.66l9.614,-12.703m-18.884,25.75l9.27,-13.047m-23.69,41.201l6.523,-14.764m-16.48,42.231l4.463,-14.077m-13.39,41.888l8.927,-27.811m-9.614,28.841l0.687,-1.03m-2.403,1.373l1.716,-0.343m-6.523,-0l4.807,0.343m-9.27,-2.06l4.463,1.717m-6.523,-4.12l0.343,1.373m-0.343,-1.717l-0,0.344m29.527,-101.286l-29.527,100.942m25.407,-99.568l4.12,-1.374m-8.24,2.404l4.12,-1.03m-11.674,1.716l7.554,-0.686m-13.047,1.03l5.493,-0.344m-11.33,0l5.837,0.344m-11.33,-1.717l5.493,1.373m-10.644,-3.776l5.151,2.403m-7.897,-4.807l2.746,2.404m-5.15,-5.494l2.404,3.09m-4.12,-6.523l1.716,3.433m-2.06,-5.15l0.344,1.717m-0,-3.777l-0.344,2.06m2.06,-5.837l-1.716,3.777m3.776,-7.21l-2.06,3.433m5.15,-6.523l-3.09,3.09m6.524,-5.837l-3.434,2.747m7.211,-4.807l-3.777,2.06m7.553,-4.12l-3.776,2.06m11.673,-4.12l-7.897,2.06m14.764,-3.09l-6.867,1.03m13.734,-1.03l-6.867,0m13.39,0.687l-6.523,-0.687m13.047,2.06l-6.524,-1.373m7.21,-1.03l-0.686,2.403m1.716,-3.433l-1.03,1.03m2.404,-1.03l-1.374,-0m3.434,0.687l-2.06,-0.687m4.12,2.06l-2.06,-1.373m5.836,4.806l-3.776,-3.433m4.463,5.493l-0.687,-2.06m1.03,3.777l-0.343,-1.717m-1.03,5.837l1.373,-4.12m-3.433,12.017l2.06,-7.897m-8.927,30.557l6.867,-22.66m0.687,12.36l-7.554,10.3m15.451,-20.257l-7.897,9.957m16.823,-20.6l-8.926,10.643m13.733,-15.793l-4.807,5.15m10.301,-9.27l-5.494,4.12m8.927,-5.837l-3.433,1.717m7.21,-2.404l-3.777,0.687m7.897,-1.03l-4.12,0.343m8.24,0l-4.12,-0.343m7.897,1.717l-3.777,-1.374m7.21,3.434l-3.433,-2.06m5.836,5.15l-2.403,-3.09m3.433,6.866l-1.03,-3.776m1.374,7.896l-0.344,-4.12m0.344,7.897l-0,-3.777m-0.687,11.674l0.687,-7.897m-1.03,12.36l0.343,-4.463m6.867,0.687l-7.21,3.776m14.763,-8.926l-7.553,5.15m15.107,-10.301l-7.554,5.151m15.794,-9.957l-8.24,4.806m12.36,-6.523l-4.12,1.717m7.897,-2.747l-3.777,1.03m7.897,-1.717l-4.12,0.687m7.896,-0.687l-3.776,0m7.553,1.03l-3.777,-1.03m7.554,2.747l-3.777,-1.717m7.21,4.807l-3.433,-3.09m6.867,7.21l-3.434,-4.12m6.18,8.24l-2.746,-4.12m5.493,8.24l-2.747,-4.12m4.807,3.09l-2.06,1.03m7.21,-4.806l-5.15,3.776m9.27,-7.553l-4.12,3.777m8.24,-7.897l-4.12,4.12m8.927,-7.897l-4.807,3.777m7.21,-5.15l-2.403,1.373m4.807,-2.403l-2.404,1.03m7.554,-1.374l-5.15,0.344m10.3,-0l-5.15,-0.344m10.3,1.717l-5.15,-1.373m9.957,3.433l-4.807,-2.06m8.584,5.15l-3.777,-3.09m6.867,7.21l-3.09,-4.12m3.776,6.18l-0.686,-2.06m1.373,4.464l-0.687,-2.404m0.687,4.807l0,-2.403m-0.687,5.15l0.687,-2.747m-0.687,3.777l0,-1.03m1.03,3.776l-1.03,-2.746m3.09,4.463l-2.06,-1.717m4.807,2.747l-2.747,-1.03m5.837,1.03l-3.09,0m6.18,-0.687l-3.09,0.687m6.524,-1.717l-3.434,1.03m9.614,-3.776l-6.18,2.746m11.33,-5.836l-5.15,3.09m10.3,-6.524l-5.15,3.434m14.763,-12.017l-9.613,8.583m19.227,-17.167l-9.614,8.584m18.541,-16.824l-8.927,8.24m12.36,-17.167l-3.433,8.927m7.553,-16.823l-4.12,7.896m8.927,-15.793l-4.807,7.897m10.644,-15.107l-5.837,7.21m13.39,-14.764l-7.553,7.554m11.33,-10.644l-3.777,3.09m7.897,-5.15l-4.12,2.06m8.583,-4.12l-4.463,2.06m9.27,-3.09l-4.807,1.03m9.614,-1.03l-4.807,-0m10.3,0.343l-5.493,-0.343m9.27,1.373l-3.777,-1.03m7.554,2.404l-3.777,-1.374m6.867,3.777l-3.09,-2.403m4.12,4.12l-1.03,-1.717m1.373,3.777l-0.343,-2.06m0.687,4.463l-0.344,-2.403m0,4.807l0.344,-2.404m-2.061,6.867l1.717,-4.463m-4.807,8.926l3.09,-4.463m-6.523,7.897l3.433,-3.434m-8.583,7.897l5.15,-4.463m-10.643,8.583l5.493,-4.12m-16.824,11.674l11.331,-7.554m-23.348,14.764l12.017,-7.21m-23.347,14.763l11.33,-7.553m-12.36,7.897l1.03,-0.344m-2.06,4.464l1.03,-4.12m-1.716,8.583l0.686,-4.463m-0.343,8.583l-0.343,-4.12m1.716,8.24l-1.373,-4.12m3.433,6.867l-2.06,-2.747m4.464,4.464l-2.404,-1.717m5.494,2.403l-3.09,-0.686m6.18,0.686l-3.09,0m6.523,-0.686l-3.433,0.686m6.867,-1.716l-3.434,1.03m8.927,-3.777l-5.493,2.747m10.643,-6.867l-5.15,4.12m9.957,-8.24l-4.807,4.12m13.734,-13.39l-8.927,9.27m12.017,-11.674l-3.09,2.404m6.18,-3.434l-3.09,1.03m6.18,-0.343l-3.09,-0.687m6.18,3.09l-3.09,-2.403m4.807,4.807l-1.717,-2.404m2.403,4.807l-0.686,-2.403m1.03,7.553l-0.344,-5.15m-1.373,10.3l1.717,-5.15m-2.404,7.897l0.687,-2.747m-0.687,4.464l0,-1.717m1.374,2.747l-1.374,-1.03m3.09,1.373l-1.716,-0.343m6.18,-0l-4.464,0.343m8.927,-1.373l-4.463,1.03m7.896,-2.06l-3.433,1.03m9.27,-4.12l-5.837,3.09m11.331,-6.18l-5.494,3.09m16.481,-10.644l-10.987,7.554m-0,-6.867l10.987,-0.687m-14.077,0.687l3.09,-0m-5.15,-1.374l2.06,1.374m-4.12,-3.434l2.06,2.06m-3.09,-4.463l1.03,2.403m-1.03,-5.15l-0,2.747m0.343,-4.807l-0.343,2.06m2.06,-4.12l-1.717,2.06m4.463,-2.746l-2.746,0.686m20.943,-2.06l-18.197,1.374m36.051,-2.061l-17.854,0.687m26.781,-21.287l-8.927,20.6m10.987,-23.69l-2.06,3.09m5.15,-5.15l-3.09,2.06m6.867,-2.747l-3.777,0.687m7.553,0l-3.776,-0.687m5.15,1.717l-1.374,-1.03m2.404,2.747l-1.03,-1.717m1.373,3.433l-0.343,-1.716m-0,3.776l0.343,-2.06m-8.927,21.631l8.584,-19.571m18.54,18.884l-27.124,0.687m40.514,-0.344l-13.39,-0.343m26.78,1.03l-13.39,-0.687m25.064,1.717l-11.674,-1.03m17.854,1.717l-6.18,-0.687m11.673,1.717l-5.493,-1.03m10.987,3.09l-5.494,-2.06m9.957,5.15l-4.463,-3.09m8.24,7.21l-3.777,-4.12m5.15,6.867l-1.373,-2.747m2.747,5.837l-1.374,-3.09m2.747,9.957l-1.373,-6.867m3.09,2.06l-1.717,4.807m4.807,-9.271l-3.09,4.464m6.867,-7.554l-3.777,3.09m9.27,-5.15l-5.493,2.06m13.39,-3.433l-7.897,1.373m12.017,-1.03l-4.12,-0.343m8.24,0.687l-4.12,-0.344m7.553,1.717l-3.433,-1.373m7.21,3.09l-3.777,-1.717m6.524,4.463l-2.747,-2.746m5.494,5.836l-2.747,-3.09m3.09,3.777l-0.343,-0.687m1.03,-6.18l-0.687,6.867m1.373,-8.24l-0.686,1.373m1.716,-1.373l-1.03,0m2.404,1.03l-1.374,-1.03m3.09,2.403l-1.716,-1.373m4.806,5.837l-3.09,-4.464m3.777,6.524l-0.687,-2.06m1.03,3.777l-0.343,-1.717m-0.343,7.897l0.686,-6.18m2.747,5.15l-3.433,1.03m6.866,-1.374l-3.433,0.344m6.524,-0l-3.091,-0.344m6.181,1.374l-3.09,-1.03m6.18,2.746l-3.09,-1.716m5.493,4.12l-2.403,-2.404m4.806,4.807l-2.403,-2.403m4.12,5.493l-1.717,-3.09m5.494,9.957l-3.777,-6.867m6.18,9.614l-2.403,-2.747m5.837,4.463l-3.434,-1.716m9.957,2.403l-6.523,-0.687m13.39,0l-6.867,0.687m15.45,-3.433l-8.583,2.746m16.48,-7.21l-7.897,4.464m14.764,-9.957l-6.867,5.493m13.047,-12.36l-6.18,6.867m-77.595,4.807l2.06,-0.344l2.06,-1.373l1.03,-1.717l0.687,-2.403l-0.687,-2.06l-1.03,-2.06l-2.06,-1.03l-2.06,-0.687l-2.403,0.687l-1.717,1.03l-1.373,2.06l-0.344,2.06l0.344,2.403l1.373,1.717l1.717,1.373l2.403,0.344m-159.309,-23.348l2.06,-0.343l2.06,-1.373l1.03,-1.717l0.687,-2.403l-0.687,-2.06l-1.03,-2.06l-2.06,-1.374l-2.06,-0.343l-2.404,0.343l-1.716,1.374l-1.374,2.06l-0.343,2.06l0.343,2.403l1.374,1.717l1.716,1.373l2.404,0.343m-362.566,43.605l2.06,-0.687l2.06,-1.03l1.373,-2.06l0.343,-2.06l-0.343,-2.404l-1.373,-1.716l-2.06,-1.374l-2.06,-0.343l-2.404,0.343l-1.717,1.374l-1.373,1.716l-0.343,2.404l0.343,2.06l1.373,2.06l1.717,1.03l2.404,0.687m-8.241,37.08l5.494,-13.39m356.386,-17.854l24.377,-55.621m180.94,48.755l6.18,1.716m-217.334,8.927l2.404,-0.343m-4.807,-0l2.403,0.343m-3.777,-1.03l1.374,0.687m-3.434,-2.404l2.06,1.717m-379.046,68.668l1.717,1.03m373.896,-73.475l1.373,2.06m-1.716,-4.12l0.343,2.06m0,-4.806l-0.343,2.746m-336.473,6.18l7.897,-13.39m567.883,5.15l7.21,-1.716m-14.42,2.403l7.21,-0.687m-14.42,0l7.21,0.687m2271.19,531.489l47.038,0m-389.347,0l342.309,0m-7.21,9.614l-325.142,-0m369.776,-0l-44.634,-0m30.901,14.763l-342.653,0m-2318.57,-24.377l47.038,0m-389.004,0l341.966,0m-7.21,9.614l-325.142,-0m369.776,-0l-44.634,-0m30.9,14.763l-342.309,0m394.154,-1334.22l1.716,-0m1750,-0l2.06,-0m-1316.02,-0l2.06,-0m1750,-0l1.716,-0m-730.969,369.776l167.893,0m-206.69,0l38.797,0m-1352.76,0l60.771,0m-335.786,0l61.115,0m2403.72,0l60.771,0m-335.786,0l61.115,0m-1353.1,0l39.14,0m-207.033,0l167.893,0m364.969,518.442l23.004,-1.716l22.66,-5.494l21.287,-8.583l19.914,-11.674l17.854,-14.763l15.45,-17.167l12.36,-19.571l9.614,-20.943l6.18,-22.317l2.403,-23.004l-0.686,-23.004l-4.464,-22.66l-7.897,-21.631l-10.986,-20.257l-14.077,-18.54l-16.481,-16.137l-18.883,-13.047l-20.601,-10.3l-21.973,-6.867l-23.004,-3.776l-23.004,-0l-23.004,3.776l-21.973,6.867l-20.601,10.3l-18.883,13.047l-16.824,16.137l-13.734,18.54l-11.33,20.257l-7.553,21.631l-4.464,22.66l-1.03,23.004l2.747,23.004l6.18,22.317l9.27,20.943l12.704,19.571l15.45,17.167l17.854,14.763l19.57,11.674l21.631,8.583l22.317,5.494l23.003,1.716m0,9.614l-23.347,-1.717l-22.66,-5.15l-21.974,-8.24l-20.6,-11.674l-18.541,-14.076l-16.136,-16.824l-13.734,-19.227l-10.644,-20.944l-7.553,-21.973l-4.12,-23.348l-1.03,-23.347l2.403,-23.347l6.18,-22.66l8.927,-21.63l12.36,-19.914l15.107,-17.854l17.511,-15.793l19.57,-13.047l20.944,-9.957l22.66,-6.524l23.004,-3.433l23.69,0l23.004,3.433l22.317,6.524l21.287,9.957l19.57,13.047l17.511,15.793l15.107,17.854l12.016,19.914l9.271,21.63l5.836,22.66l2.747,23.347l-1.03,23.347l-4.12,23.348l-7.553,21.973l-10.644,20.944l-13.734,19.227l-16.136,16.824l-18.884,14.076l-20.257,11.674l-21.974,8.24l-22.66,5.15l-23.691,1.717m0,33.991l26.094,-1.717l25.407,-5.15l24.721,-8.584l23.003,-11.673l21.631,-14.764l19.227,-17.51l16.823,-19.57l14.077,-21.974l10.644,-23.691l7.897,-24.72l4.12,-25.75l1.03,-26.094l-2.747,-25.751l-5.837,-25.407l-9.27,-24.034l-12.703,-23.003l-15.451,-20.944l-17.853,-18.54l-20.601,-16.137l-22.317,-13.39l-24.034,-9.957l-25.063,-6.867l-25.751,-3.434l-25.75,0l-26.094,3.434l-25.064,6.867l-23.69,9.957l-22.317,13.39l-20.601,16.137l-18.197,18.54l-15.107,20.944l-12.703,23.003l-9.27,24.034l-6.18,25.407l-2.404,25.751l0.687,26.094l4.463,25.75l7.554,24.72l10.987,23.691l14.077,21.974l16.823,19.57l19.227,17.51l21.287,14.764l23.347,11.673l24.721,8.584l25.407,5.15l25.75,1.717m-856.288,-175.103l-4.12,-8.584m1828.97,81.715l0,4.807m136.306,-4.807l0,4.807m-136.306,-0l0,-4.807m272.612,4.807l-0,-4.807m-0,-0l-0,4.807m-136.306,-0l0,-4.807m-2478.57,-63.518l-0,9.27m-329.262,-609.084l15.106,0m-15.106,-1057.14l-0,1057.14m15.106,-1057.14l-15.106,-0m15.106,-0l3376.06,-0m-0,-0l15.106,-0m0,-0l0,1057.14m0,0l-15.106,0m-3376.06,0l3376.06,0m-1794.98,-543.162l-5.837,1.03l-4.463,3.09l-3.434,4.806l-1.03,5.494l1.03,5.837l3.434,4.463l4.463,3.433l5.837,1.03m-0,0l213.9,0m0,0l5.494,-1.03l4.806,-3.433l3.434,-4.463l1.03,-5.837l-1.03,-5.494l-3.434,-4.806l-4.806,-3.09l-5.494,-1.03m0,-0l-213.9,-0m-0,-58.368l-5.837,1.03l-4.463,3.09l-3.434,4.807l-1.03,5.493l1.03,5.837l3.434,4.463l4.463,3.434l5.837,1.03m-0,-0l213.9,-0m0,-0l5.494,-1.03l4.806,-3.434l3.434,-4.463l1.03,-5.837l-1.03,-5.493l-3.434,-4.807l-4.806,-3.09l-5.494,-1.03m0,-0l-213.9,-0m-0,408.574l-5.837,1.373l-4.463,3.09l-3.434,4.807l-1.03,5.493l1.03,5.494l3.434,4.806l4.463,3.09l5.837,1.03m-0,0l213.9,0m0,0l5.494,-1.03l4.806,-3.09l3.434,-4.806l1.03,-5.494l-1.03,-5.493l-3.434,-4.807l-4.806,-3.09l-5.494,-1.373m0,-0l-213.9,-0m-0,-58.368l-5.837,1.03l-4.463,3.433l-3.434,4.464l-1.03,5.837l1.03,5.493l3.434,4.807l4.463,3.09l5.837,1.03m-0,-0l213.9,-0m0,-0l5.494,-1.03l4.806,-3.09l3.434,-4.807l1.03,-5.493l-1.03,-5.837l-3.434,-4.464l-4.806,-3.433l-5.494,-1.03m0,-0l-213.9,-0m-0,116.735l-5.837,1.374l-4.463,3.09l-3.434,4.806l-1.03,5.494l1.03,5.493l3.434,4.807l4.463,3.09l5.837,1.03m-0,0l213.9,0m0,0l5.494,-1.03l4.806,-3.09l3.434,-4.807l1.03,-5.493l-1.03,-5.494l-3.434,-4.806l-4.806,-3.09l-5.494,-1.374m0,0l-213.9,0m-0,-291.838l-5.837,1.03l-4.463,3.09l-3.434,4.807l-1.03,5.493l1.03,5.837l3.434,4.807l4.463,3.09l5.837,1.03m-0,-0l213.9,-0m0,-0l5.494,-1.03l4.806,-3.09l3.434,-4.807l1.03,-5.837l-1.03,-5.493l-3.434,-4.807l-4.806,-3.09l-5.494,-1.03m0,-0l-213.9,-0m-0,-233.471l-5.837,1.03l-4.463,3.09l-3.434,4.807l-1.03,5.493l1.03,5.494l3.434,4.807l4.463,3.09l5.837,1.373m-0,0l213.9,0m0,0l5.494,-1.373l4.806,-3.09l3.434,-4.807l1.03,-5.494l-1.03,-5.493l-3.434,-4.807l-4.806,-3.09l-5.494,-1.03m0,0l-213.9,0m-0,-58.367l-5.837,1.03l-4.463,3.09l-3.434,4.806l-1.03,5.494l1.03,5.493l3.434,4.807l4.463,3.09l5.837,1.373m-0,0l213.9,0m0,0l5.494,-1.373l4.806,-3.09l3.434,-4.807l1.03,-5.493l-1.03,-5.494l-3.434,-4.806l-4.806,-3.09l-5.494,-1.03m0,-0l-213.9,-0m-0,-58.711l-5.837,1.373l-4.463,3.09l-3.434,4.807l-1.03,5.493l1.03,5.494l3.434,4.806l4.463,3.09l5.837,1.374m-0,-0l213.9,-0m0,-0l5.494,-1.374l4.806,-3.09l3.434,-4.806l1.03,-5.494l-1.03,-5.493l-3.434,-4.807l-4.806,-3.09l-5.494,-1.373m0,-0l-213.9,-0m-0,-58.368l-5.837,1.373l-4.463,3.09l-3.434,4.807l-1.03,5.493l1.03,5.494l3.434,4.807l4.463,3.09l5.837,1.03m-0,-0l213.9,-0m0,-0l5.494,-1.03l4.806,-3.09l3.434,-4.807l1.03,-5.494l-1.03,-5.493l-3.434,-4.807l-4.806,-3.09l-5.494,-1.373m0,-0l-213.9,-0m-0,-58.368l-5.837,1.374l-4.463,3.09l-3.434,4.806l-1.03,5.494l1.03,5.493l3.434,4.807l4.463,3.09l5.837,1.03m-0,0l213.9,0m0,0l5.494,-1.03l4.806,-3.09l3.434,-4.807l1.03,-5.493l-1.03,-5.494l-3.434,-4.806l-4.806,-3.09l-5.494,-1.374m0,0l-213.9,0m-0,-58.367l-5.837,1.03l-4.463,3.433l-3.434,4.807l-1.03,5.493l1.03,5.494l3.434,4.806l4.463,3.09l5.837,1.03m-0,0l213.9,0m0,0l5.494,-1.03l4.806,-3.09l3.434,-4.806l1.03,-5.494l-1.03,-5.493l-3.434,-4.807l-4.806,-3.433l-5.494,-1.03m0,-0l-213.9,-0m-0,467.284l-5.837,1.03l-4.463,3.09l-3.434,4.807l-1.03,5.494l1.03,5.836l3.434,4.464l4.463,3.433l5.837,1.03m-0,0l213.9,0m0,0l5.494,-1.03l4.806,-3.433l3.434,-4.464l1.03,-5.836l-1.03,-5.494l-3.434,-4.807l-4.806,-3.09l-5.494,-1.03m0,0l-213.9,0m-0,175.103l-5.837,1.03l-4.463,3.434l-3.434,4.463l-1.03,5.837l1.03,5.493l3.434,4.807l4.463,3.09l5.837,1.03m-0,0l213.9,0m0,0l5.494,-1.03l4.806,-3.09l3.434,-4.807l1.03,-5.493l-1.03,-5.837l-3.434,-4.463l-4.806,-3.434l-5.494,-1.03m0,0l-213.9,0m-0,-58.367l-5.837,1.03l-4.463,3.09l-3.434,4.806l-1.03,5.837l1.03,5.494l3.434,4.806l4.463,3.09l5.837,1.03m-0,0l213.9,0m0,0l5.494,-1.03l4.806,-3.09l3.434,-4.806l1.03,-5.494l-1.03,-5.837l-3.434,-4.806l-4.806,-3.09l-5.494,-1.03m0,-0l-213.9,-0m340.592,-175.103l-5.836,1.03l-4.464,3.09l-3.433,4.806l-1.03,5.494l1.03,5.837l3.433,4.463l4.464,3.433l5.836,1.03m0,0l213.901,0m-0,0l5.837,-1.03l4.463,-3.433l3.433,-4.463l1.03,-5.837l-1.03,-5.494l-3.433,-4.806l-4.463,-3.09l-5.837,-1.03m-0,-0l-213.901,-0m-1703.31,-0l-5.493,1.03l-4.807,3.09l-3.09,4.806l-1.03,5.494l1.03,5.837l3.09,4.463l4.807,3.433l5.493,1.03m0,0l214.244,0m-0,0l5.493,-1.03l4.807,-3.433l3.09,-4.463l1.03,-5.837l-1.03,-5.494l-3.09,-4.806l-4.807,-3.09l-5.493,-1.03m-0,-0l-214.244,-0m2043.9,-0l-5.493,1.03l-4.807,3.09l-3.09,4.806l-1.374,5.494l1.374,5.837l3.09,4.463l4.807,3.433l5.493,1.03m-0,0l213.9,0m0,0l5.837,-1.03l4.807,-3.433l3.09,-4.463l1.03,-5.837l-1.03,-5.494l-3.09,-4.806l-4.807,-3.09l-5.837,-1.03m0,-0l-213.9,-0m340.592,-0l-5.493,1.03l-4.807,3.09l-3.09,4.806l-1.373,5.494l1.373,5.837l3.09,4.463l4.807,3.433l5.493,1.03m0,0l214.244,0m0,0l5.494,-1.03l4.806,-3.433l3.09,-4.463l1.03,-5.837l-1.03,-5.494l-3.09,-4.806l-4.806,-3.09l-5.494,-1.03m0,-0l-214.244,-0m340.593,-0l-5.493,1.03l-4.807,3.09l-3.09,4.806l-1.03,5.494l1.03,5.837l3.09,4.463l4.807,3.433l5.493,1.03m0,0l214.244,0m-0,0l5.493,-1.03l4.807,-3.433l3.09,-4.463l1.03,-5.837l-1.03,-5.494l-3.09,-4.806l-4.807,-3.09l-5.493,-1.03m-0,-0l-214.244,-0m-1703.31,-0l-5.494,1.03l-4.806,3.09l-3.09,4.806l-1.03,5.494l1.03,5.837l3.09,4.463l4.806,3.433l5.494,1.03m-0,0l214.244,0m-0,0l5.493,-1.03l4.807,-3.433l3.09,-4.463l1.373,-5.837l-1.373,-5.494l-3.09,-4.806l-4.807,-3.09l-5.493,-1.03m-0,-0l-214.244,-0m-681.185,-0l-5.494,1.03l-4.806,3.09l-3.09,4.806l-1.03,5.494l1.03,5.837l3.09,4.463l4.806,3.433l5.494,1.03m-0,0l214.244,0m-0,0l5.493,-1.03l4.807,-3.433l3.09,-4.463l1.03,-5.837l-1.03,-5.494l-3.09,-4.806l-4.807,-3.09l-5.493,-1.03m-0,-0l-214.244,-0m340.592,-0l-5.493,1.03l-4.807,3.09l-3.09,4.806l-1.03,5.494l1.03,5.837l3.09,4.463l4.807,3.433l5.493,1.03m0,0l214.244,0m0,0l5.493,-1.03l4.807,-3.433l3.09,-4.463l1.03,-5.837l-1.03,-5.494l-3.09,-4.806l-4.807,-3.09l-5.493,-1.03m0,-0l-214.244,-0m1022.12,-58.368l-5.836,1.03l-4.464,3.09l-3.433,4.807l-1.03,5.493l1.03,5.837l3.433,4.463l4.464,3.434l5.836,1.03m0,-0l213.901,-0m-0,-0l5.837,-1.03l4.463,-3.434l3.433,-4.463l1.03,-5.837l-1.03,-5.493l-3.433,-4.807l-4.463,-3.09l-5.837,-1.03m-0,-0l-213.901,-0m-1703.31,-0l-5.493,1.03l-4.807,3.09l-3.09,4.807l-1.03,5.493l1.03,5.837l3.09,4.463l4.807,3.434l5.493,1.03m0,-0l214.244,-0m-0,-0l5.493,-1.03l4.807,-3.434l3.09,-4.463l1.03,-5.837l-1.03,-5.493l-3.09,-4.807l-4.807,-3.09l-5.493,-1.03m-0,-0l-214.244,-0m2043.9,-0l-5.493,1.03l-4.807,3.09l-3.09,4.807l-1.374,5.493l1.374,5.837l3.09,4.463l4.807,3.434l5.493,1.03m-0,-0l213.9,-0m0,-0l5.837,-1.03l4.807,-3.434l3.09,-4.463l1.03,-5.837l-1.03,-5.493l-3.09,-4.807l-4.807,-3.09l-5.837,-1.03m0,-0l-213.9,-0m340.592,-0l-5.493,1.03l-4.807,3.09l-3.09,4.807l-1.373,5.493l1.373,5.837l3.09,4.463l4.807,3.434l5.493,1.03m0,-0l214.244,-0m0,-0l5.494,-1.03l4.806,-3.434l3.09,-4.463l1.03,-5.837l-1.03,-5.493l-3.09,-4.807l-4.806,-3.09l-5.494,-1.03m0,-0l-214.244,-0m340.593,-0l-5.493,1.03l-4.807,3.09l-3.09,4.807l-1.03,5.493l1.03,5.837l3.09,4.463l4.807,3.434l5.493,1.03m0,-0l214.244,-0m-0,-0l5.493,-1.03l4.807,-3.434l3.09,-4.463l1.03,-5.837l-1.03,-5.493l-3.09,-4.807l-4.807,-3.09l-5.493,-1.03m-0,-0l-214.244,-0m-1703.31,-0l-5.494,1.03l-4.806,3.09l-3.09,4.807l-1.03,5.493l1.03,5.837l3.09,4.463l4.806,3.434l5.494,1.03m-0,-0l214.244,-0m-0,-0l5.493,-1.03l4.807,-3.434l3.09,-4.463l1.373,-5.837l-1.373,-5.493l-3.09,-4.807l-4.807,-3.09l-5.493,-1.03m-0,-0l-214.244,-0m-681.185,-0l-5.494,1.03l-4.806,3.09l-3.09,4.807l-1.03,5.493l1.03,5.837l3.09,4.463l4.806,3.434l5.494,1.03m-0,-0l214.244,-0m-0,-0l5.493,-1.03l4.807,-3.434l3.09,-4.463l1.03,-5.837l-1.03,-5.493l-3.09,-4.807l-4.807,-3.09l-5.493,-1.03m-0,-0l-214.244,-0m340.592,-0l-5.493,1.03l-4.807,3.09l-3.09,4.807l-1.03,5.493l1.03,5.837l3.09,4.463l4.807,3.434l5.493,1.03m0,-0l214.244,-0m0,-0l5.493,-1.03l4.807,-3.434l3.09,-4.463l1.03,-5.837l-1.03,-5.493l-3.09,-4.807l-4.807,-3.09l-5.493,-1.03m0,-0l-214.244,-0m1022.12,408.574l-5.836,1.373l-4.464,3.09l-3.433,4.807l-1.03,5.493l1.03,5.494l3.433,4.806l4.464,3.09l5.836,1.03m0,0l213.901,0m-0,0l5.837,-1.03l4.463,-3.09l3.433,-4.806l1.03,-5.494l-1.03,-5.493l-3.433,-4.807l-4.463,-3.09l-5.837,-1.373m-0,-0l-213.901,-0m-1703.31,-0l-5.493,1.373l-4.807,3.09l-3.09,4.807l-1.03,5.493l1.03,5.494l3.09,4.806l4.807,3.09l5.493,1.03m0,0l214.244,0m-0,0l5.493,-1.03l4.807,-3.09l3.09,-4.806l1.03,-5.494l-1.03,-5.493l-3.09,-4.807l-4.807,-3.09l-5.493,-1.373m-0,-0l-214.244,-0m2043.9,-0l-5.493,1.373l-4.807,3.09l-3.09,4.807l-1.374,5.493l1.374,5.494l3.09,4.806l4.807,3.09l5.493,1.03m-0,0l213.9,0m0,0l5.837,-1.03l4.807,-3.09l3.09,-4.806l1.03,-5.494l-1.03,-5.493l-3.09,-4.807l-4.807,-3.09l-5.837,-1.373m0,-0l-213.9,-0m340.592,-0l-5.493,1.373l-4.807,3.09l-3.09,4.807l-1.373,5.493l1.373,5.494l3.09,4.806l4.807,3.09l5.493,1.03m0,0l214.244,0m0,0l5.494,-1.03l4.806,-3.09l3.09,-4.806l1.03,-5.494l-1.03,-5.493l-3.09,-4.807l-4.806,-3.09l-5.494,-1.373m0,-0l-214.244,-0m340.593,-0l-5.493,1.373l-4.807,3.09l-3.09,4.807l-1.03,5.493l1.03,5.494l3.09,4.806l4.807,3.09l5.493,1.03m0,0l214.244,0m-0,0l5.493,-1.03l4.807,-3.09l3.09,-4.806l1.03,-5.494l-1.03,-5.493l-3.09,-4.807l-4.807,-3.09l-5.493,-1.373m-0,-0l-214.244,-0m-1703.31,-0l-5.494,1.373l-4.806,3.09l-3.09,4.807l-1.03,5.493l1.03,5.494l3.09,4.806l4.806,3.09l5.494,1.03m-0,0l214.244,0m-0,0l5.493,-1.03l4.807,-3.09l3.09,-4.806l1.373,-5.494l-1.373,-5.493l-3.09,-4.807l-4.807,-3.09l-5.493,-1.373m-0,-0l-214.244,-0m-681.185,-0l-5.494,1.373l-4.806,3.09l-3.09,4.807l-1.03,5.493l1.03,5.494l3.09,4.806l4.806,3.09l5.494,1.03m-0,0l214.244,0m-0,0l5.493,-1.03l4.807,-3.09l3.09,-4.806l1.03,-5.494l-1.03,-5.493l-3.09,-4.807l-4.807,-3.09l-5.493,-1.373m-0,-0l-214.244,-0m340.592,-0l-5.493,1.373l-4.807,3.09l-3.09,4.807l-1.03,5.493l1.03,5.494l3.09,4.806l4.807,3.09l5.493,1.03m0,0l214.244,0m0,0l5.493,-1.03l4.807,-3.09l3.09,-4.806l1.03,-5.494l-1.03,-5.493l-3.09,-4.807l-4.807,-3.09l-5.493,-1.373m0,-0l-214.244,-0m1022.12,-58.368l-5.836,1.03l-4.464,3.433l-3.433,4.464l-1.03,5.837l1.03,5.493l3.433,4.807l4.464,3.09l5.836,1.03m0,-0l213.901,-0m-0,-0l5.837,-1.03l4.463,-3.09l3.433,-4.807l1.03,-5.493l-1.03,-5.837l-3.433,-4.464l-4.463,-3.433l-5.837,-1.03m-0,-0l-213.901,-0m-1703.31,-0l-5.493,1.03l-4.807,3.433l-3.09,4.464l-1.03,5.837l1.03,5.493l3.09,4.807l4.807,3.09l5.493,1.03m0,-0l214.244,-0m-0,-0l5.493,-1.03l4.807,-3.09l3.09,-4.807l1.03,-5.493l-1.03,-5.837l-3.09,-4.464l-4.807,-3.433l-5.493,-1.03m-0,-0l-214.244,-0m2043.9,-0l-5.493,1.03l-4.807,3.433l-3.09,4.464l-1.374,5.837l1.374,5.493l3.09,4.807l4.807,3.09l5.493,1.03m-0,-0l213.9,-0m0,-0l5.837,-1.03l4.807,-3.09l3.09,-4.807l1.03,-5.493l-1.03,-5.837l-3.09,-4.464l-4.807,-3.433l-5.837,-1.03m0,-0l-213.9,-0m340.592,-0l-5.493,1.03l-4.807,3.433l-3.09,4.464l-1.373,5.837l1.373,5.493l3.09,4.807l4.807,3.09l5.493,1.03m0,-0l214.244,-0m0,-0l5.494,-1.03l4.806,-3.09l3.09,-4.807l1.03,-5.493l-1.03,-5.837l-3.09,-4.464l-4.806,-3.433l-5.494,-1.03m0,-0l-214.244,-0m340.593,-0l-5.493,1.03l-4.807,3.433l-3.09,4.464l-1.03,5.837l1.03,5.493l3.09,4.807l4.807,3.09l5.493,1.03m0,-0l214.244,-0m-0,-0l5.493,-1.03l4.807,-3.09l3.09,-4.807l1.03,-5.493l-1.03,-5.837l-3.09,-4.464l-4.807,-3.433l-5.493,-1.03m-0,-0l-214.244,-0m-1703.31,-0l-5.494,1.03l-4.806,3.433l-3.09,4.464l-1.03,5.837l1.03,5.493l3.09,4.807l4.806,3.09l5.494,1.03m-0,-0l214.244,-0m-0,-0l5.493,-1.03l4.807,-3.09l3.09,-4.807l1.373,-5.493l-1.373,-5.837l-3.09,-4.464l-4.807,-3.433l-5.493,-1.03m-0,-0l-214.244,-0m-681.185,-0l-5.494,1.03l-4.806,3.433l-3.09,4.464l-1.03,5.837l1.03,5.493l3.09,4.807l4.806,3.09l5.494,1.03m-0,-0l214.244,-0m-0,-0l5.493,-1.03l4.807,-3.09l3.09,-4.807l1.03,-5.493l-1.03,-5.837l-3.09,-4.464l-4.807,-3.433l-5.493,-1.03m-0,-0l-214.244,-0m340.592,-0l-5.493,1.03l-4.807,3.433l-3.09,4.464l-1.03,5.837l1.03,5.493l3.09,4.807l4.807,3.09l5.493,1.03m0,-0l214.244,-0m0,-0l5.493,-1.03l4.807,-3.09l3.09,-4.807l1.03,-5.493l-1.03,-5.837l-3.09,-4.464l-4.807,-3.433l-5.493,-1.03m0,-0l-214.244,-0m1022.12,116.735l-5.836,1.374l-4.464,3.09l-3.433,4.806l-1.03,5.494l1.03,5.493l3.433,4.807l4.464,3.09l5.836,1.03m0,0l213.901,0m-0,0l5.837,-1.03l4.463,-3.09l3.433,-4.807l1.03,-5.493l-1.03,-5.494l-3.433,-4.806l-4.463,-3.09l-5.837,-1.374m-0,0l-213.901,0m-1703.31,0l-5.493,1.374l-4.807,3.09l-3.09,4.806l-1.03,5.494l1.03,5.493l3.09,4.807l4.807,3.09l5.493,1.03m0,0l214.244,0m-0,0l5.493,-1.03l4.807,-3.09l3.09,-4.807l1.03,-5.493l-1.03,-5.494l-3.09,-4.806l-4.807,-3.09l-5.493,-1.374m-0,0l-214.244,0m2043.9,0l-5.493,1.374l-4.807,3.09l-3.09,4.806l-1.374,5.494l1.374,5.493l3.09,4.807l4.807,3.09l5.493,1.03m-0,0l213.9,0m0,0l5.837,-1.03l4.807,-3.09l3.09,-4.807l1.03,-5.493l-1.03,-5.494l-3.09,-4.806l-4.807,-3.09l-5.837,-1.374m0,0l-213.9,0m340.592,0l-5.493,1.374l-4.807,3.09l-3.09,4.806l-1.373,5.494l1.373,5.493l3.09,4.807l4.807,3.09l5.493,1.03m0,0l214.244,0m0,0l5.494,-1.03l4.806,-3.09l3.09,-4.807l1.03,-5.493l-1.03,-5.494l-3.09,-4.806l-4.806,-3.09l-5.494,-1.374m0,0l-214.244,0m340.593,0l-5.493,1.374l-4.807,3.09l-3.09,4.806l-1.03,5.494l1.03,5.493l3.09,4.807l4.807,3.09l5.493,1.03m0,0l214.244,0m-0,0l5.493,-1.03l4.807,-3.09l3.09,-4.807l1.03,-5.493l-1.03,-5.494l-3.09,-4.806l-4.807,-3.09l-5.493,-1.374m-0,0l-214.244,0m-1703.31,0l-5.494,1.374l-4.806,3.09l-3.09,4.806l-1.03,5.494l1.03,5.493l3.09,4.807l4.806,3.09l5.494,1.03m-0,0l214.244,0m-0,0l5.493,-1.03l4.807,-3.09l3.09,-4.807l1.373,-5.493l-1.373,-5.494l-3.09,-4.806l-4.807,-3.09l-5.493,-1.374m-0,0l-214.244,0m-681.185,0l-5.494,1.374l-4.806,3.09l-3.09,4.806l-1.03,5.494l1.03,5.493l3.09,4.807l4.806,3.09l5.494,1.03m-0,0l214.244,0m-0,0l5.493,-1.03l4.807,-3.09l3.09,-4.807l1.03,-5.493l-1.03,-5.494l-3.09,-4.806l-4.807,-3.09l-5.493,-1.374m-0,0l-214.244,0m340.592,0l-5.493,1.374l-4.807,3.09l-3.09,4.806l-1.03,5.494l1.03,5.493l3.09,4.807l4.807,3.09l5.493,1.03m0,0l214.244,0m0,0l5.493,-1.03l4.807,-3.09l3.09,-4.807l1.03,-5.493l-1.03,-5.494l-3.09,-4.806l-4.807,-3.09l-5.493,-1.374m0,0l-214.244,0m1022.12,-291.838l-5.836,1.03l-4.464,3.09l-3.433,4.807l-1.03,5.493l1.03,5.837l3.433,4.807l4.464,3.09l5.836,1.03m0,-0l213.901,-0m-0,-0l5.837,-1.03l4.463,-3.09l3.433,-4.807l1.03,-5.837l-1.03,-5.493l-3.433,-4.807l-4.463,-3.09l-5.837,-1.03m-0,-0l-213.901,-0m-1703.31,-0l-5.493,1.03l-4.807,3.09l-3.09,4.807l-1.03,5.493l1.03,5.837l3.09,4.807l4.807,3.09l5.493,1.03m0,-0l214.244,-0m-0,-0l5.493,-1.03l4.807,-3.09l3.09,-4.807l1.03,-5.837l-1.03,-5.493l-3.09,-4.807l-4.807,-3.09l-5.493,-1.03m-0,-0l-214.244,-0m2043.9,-0l-5.493,1.03l-4.807,3.09l-3.09,4.807l-1.374,5.493l1.374,5.837l3.09,4.807l4.807,3.09l5.493,1.03m-0,-0l213.9,-0m0,-0l5.837,-1.03l4.807,-3.09l3.09,-4.807l1.03,-5.837l-1.03,-5.493l-3.09,-4.807l-4.807,-3.09l-5.837,-1.03m0,-0l-213.9,-0m340.592,-0l-5.493,1.03l-4.807,3.09l-3.09,4.807l-1.373,5.493l1.373,5.837l3.09,4.807l4.807,3.09l5.493,1.03m0,-0l214.244,-0m0,-0l5.494,-1.03l4.806,-3.09l3.09,-4.807l1.03,-5.837l-1.03,-5.493l-3.09,-4.807l-4.806,-3.09l-5.494,-1.03m0,-0l-214.244,-0m340.593,-0l-5.493,1.03l-4.807,3.09l-3.09,4.807l-1.03,5.493l1.03,5.837l3.09,4.807l4.807,3.09l5.493,1.03m0,-0l214.244,-0m-0,-0l5.493,-1.03l4.807,-3.09l3.09,-4.807l1.03,-5.837l-1.03,-5.493l-3.09,-4.807l-4.807,-3.09l-5.493,-1.03m-0,-0l-214.244,-0m-1703.31,-0l-5.494,1.03l-4.806,3.09l-3.09,4.807l-1.03,5.493l1.03,5.837l3.09,4.807l4.806,3.09l5.494,1.03m-0,-0l214.244,-0m-0,-0l5.493,-1.03l4.807,-3.09l3.09,-4.807l1.373,-5.837l-1.373,-5.493l-3.09,-4.807l-4.807,-3.09l-5.493,-1.03m-0,-0l-214.244,-0m-681.185,-0l-5.494,1.03l-4.806,3.09l-3.09,4.807l-1.03,5.493l1.03,5.837l3.09,4.807l4.806,3.09l5.494,1.03m-0,-0l214.244,-0m-0,-0l5.493,-1.03l4.807,-3.09l3.09,-4.807l1.03,-5.837l-1.03,-5.493l-3.09,-4.807l-4.807,-3.09l-5.493,-1.03m-0,-0l-214.244,-0m340.592,-0l-5.493,1.03l-4.807,3.09l-3.09,4.807l-1.03,5.493l1.03,5.837l3.09,4.807l4.807,3.09l5.493,1.03m0,-0l214.244,-0m0,-0l5.493,-1.03l4.807,-3.09l3.09,-4.807l1.03,-5.837l-1.03,-5.493l-3.09,-4.807l-4.807,-3.09l-5.493,-1.03m0,-0l-214.244,-0m1022.12,-233.471l-5.836,1.03l-4.464,3.09l-3.433,4.807l-1.03,5.493l1.03,5.494l3.433,4.807l4.464,3.09l5.836,1.373m0,0l213.901,0m-0,0l5.837,-1.373l4.463,-3.09l3.433,-4.807l1.03,-5.494l-1.03,-5.493l-3.433,-4.807l-4.463,-3.09l-5.837,-1.03m-0,0l-213.901,0m-1703.31,0l-5.493,1.03l-4.807,3.09l-3.09,4.807l-1.03,5.493l1.03,5.494l3.09,4.807l4.807,3.09l5.493,1.373m0,0l214.244,0m-0,0l5.493,-1.373l4.807,-3.09l3.09,-4.807l1.03,-5.494l-1.03,-5.493l-3.09,-4.807l-4.807,-3.09l-5.493,-1.03m-0,0l-214.244,0m2043.9,0l-5.493,1.03l-4.807,3.09l-3.09,4.807l-1.374,5.493l1.374,5.494l3.09,4.807l4.807,3.09l5.493,1.373m-0,0l213.9,0m0,0l5.837,-1.373l4.807,-3.09l3.09,-4.807l1.03,-5.494l-1.03,-5.493l-3.09,-4.807l-4.807,-3.09l-5.837,-1.03m0,0l-213.9,0m340.592,0l-5.493,1.03l-4.807,3.09l-3.09,4.807l-1.373,5.493l1.373,5.494l3.09,4.807l4.807,3.09l5.493,1.373m0,0l214.244,0m0,0l5.494,-1.373l4.806,-3.09l3.09,-4.807l1.03,-5.494l-1.03,-5.493l-3.09,-4.807l-4.806,-3.09l-5.494,-1.03m0,0l-214.244,0m340.593,0l-5.493,1.03l-4.807,3.09l-3.09,4.807l-1.03,5.493l1.03,5.494l3.09,4.807l4.807,3.09l5.493,1.373m0,0l214.244,0m-0,0l5.493,-1.373l4.807,-3.09l3.09,-4.807l1.03,-5.494l-1.03,-5.493l-3.09,-4.807l-4.807,-3.09l-5.493,-1.03m-0,0l-214.244,0m-1703.31,0l-5.494,1.03l-4.806,3.09l-3.09,4.807l-1.03,5.493l1.03,5.494l3.09,4.807l4.806,3.09l5.494,1.373m-0,0l214.244,0m-0,0l5.493,-1.373l4.807,-3.09l3.09,-4.807l1.373,-5.494l-1.373,-5.493l-3.09,-4.807l-4.807,-3.09l-5.493,-1.03m-0,0l-214.244,0m-681.185,0l-5.494,1.03l-4.806,3.09l-3.09,4.807l-1.03,5.493l1.03,5.494l3.09,4.807l4.806,3.09l5.494,1.373m-0,0l214.244,0m-0,0l5.493,-1.373l4.807,-3.09l3.09,-4.807l1.03,-5.494l-1.03,-5.493l-3.09,-4.807l-4.807,-3.09l-5.493,-1.03m-0,0l-214.244,0m340.592,0l-5.493,1.03l-4.807,3.09l-3.09,4.807l-1.03,5.493l1.03,5.494l3.09,4.807l4.807,3.09l5.493,1.373m0,0l214.244,0m0,0l5.493,-1.373l4.807,-3.09l3.09,-4.807l1.03,-5.494l-1.03,-5.493l-3.09,-4.807l-4.807,-3.09l-5.493,-1.03m0,0l-214.244,0m1022.12,-58.367l-5.836,1.03l-4.464,3.09l-3.433,4.806l-1.03,5.494l1.03,5.493l3.433,4.807l4.464,3.09l5.836,1.373m0,0l213.901,0m-0,0l5.837,-1.373l4.463,-3.09l3.433,-4.807l1.03,-5.493l-1.03,-5.494l-3.433,-4.806l-4.463,-3.09l-5.837,-1.03m-0,-0l-213.901,-0m-1703.31,-0l-5.493,1.03l-4.807,3.09l-3.09,4.806l-1.03,5.494l1.03,5.493l3.09,4.807l4.807,3.09l5.493,1.373m0,0l214.244,0m-0,0l5.493,-1.373l4.807,-3.09l3.09,-4.807l1.03,-5.493l-1.03,-5.494l-3.09,-4.806l-4.807,-3.09l-5.493,-1.03m-0,-0l-214.244,-0m2043.9,-0l-5.493,1.03l-4.807,3.09l-3.09,4.806l-1.374,5.494l1.374,5.493l3.09,4.807l4.807,3.09l5.493,1.373m-0,0l213.9,0m0,0l5.837,-1.373l4.807,-3.09l3.09,-4.807l1.03,-5.493l-1.03,-5.494l-3.09,-4.806l-4.807,-3.09l-5.837,-1.03m0,-0l-213.9,-0m340.592,-0l-5.493,1.03l-4.807,3.09l-3.09,4.806l-1.373,5.494l1.373,5.493l3.09,4.807l4.807,3.09l5.493,1.373m0,0l214.244,0m0,0l5.494,-1.373l4.806,-3.09l3.09,-4.807l1.03,-5.493l-1.03,-5.494l-3.09,-4.806l-4.806,-3.09l-5.494,-1.03m0,-0l-214.244,-0m340.593,-0l-5.493,1.03l-4.807,3.09l-3.09,4.806l-1.03,5.494l1.03,5.493l3.09,4.807l4.807,3.09l5.493,1.373m0,0l214.244,0m-0,0l5.493,-1.373l4.807,-3.09l3.09,-4.807l1.03,-5.493l-1.03,-5.494l-3.09,-4.806l-4.807,-3.09l-5.493,-1.03m-0,-0l-214.244,-0m-1703.31,-0l-5.494,1.03l-4.806,3.09l-3.09,4.806l-1.03,5.494l1.03,5.493l3.09,4.807l4.806,3.09l5.494,1.373m-0,0l214.244,0m-0,0l5.493,-1.373l4.807,-3.09l3.09,-4.807l1.373,-5.493l-1.373,-5.494l-3.09,-4.806l-4.807,-3.09l-5.493,-1.03m-0,-0l-214.244,-0m-681.185,-0l-5.494,1.03l-4.806,3.09l-3.09,4.806l-1.03,5.494l1.03,5.493l3.09,4.807l4.806,3.09l5.494,1.373m-0,0l214.244,0m-0,0l5.493,-1.373l4.807,-3.09l3.09,-4.807l1.03,-5.493l-1.03,-5.494l-3.09,-4.806l-4.807,-3.09l-5.493,-1.03m-0,-0l-214.244,-0m340.592,-0l-5.493,1.03l-4.807,3.09l-3.09,4.806l-1.03,5.494l1.03,5.493l3.09,4.807l4.807,3.09l5.493,1.373m0,0l214.244,0m0,0l5.493,-1.373l4.807,-3.09l3.09,-4.807l1.03,-5.493l-1.03,-5.494l-3.09,-4.806l-4.807,-3.09l-5.493,-1.03m0,-0l-214.244,-0m1022.12,-58.711l-5.836,1.373l-4.464,3.09l-3.433,4.807l-1.03,5.493l1.03,5.494l3.433,4.806l4.464,3.09l5.836,1.374m0,-0l213.901,-0m-0,-0l5.837,-1.374l4.463,-3.09l3.433,-4.806l1.03,-5.494l-1.03,-5.493l-3.433,-4.807l-4.463,-3.09l-5.837,-1.373m-0,-0l-213.901,-0m-1703.31,-0l-5.493,1.373l-4.807,3.09l-3.09,4.807l-1.03,5.493l1.03,5.494l3.09,4.806l4.807,3.09l5.493,1.374m0,-0l214.244,-0m-0,-0l5.493,-1.374l4.807,-3.09l3.09,-4.806l1.03,-5.494l-1.03,-5.493l-3.09,-4.807l-4.807,-3.09l-5.493,-1.373m-0,-0l-214.244,-0m2043.9,-0l-5.493,1.373l-4.807,3.09l-3.09,4.807l-1.374,5.493l1.374,5.494l3.09,4.806l4.807,3.09l5.493,1.374m-0,-0l213.9,-0m0,-0l5.837,-1.374l4.807,-3.09l3.09,-4.806l1.03,-5.494l-1.03,-5.493l-3.09,-4.807l-4.807,-3.09l-5.837,-1.373m0,-0l-213.9,-0m340.592,-0l-5.493,1.373l-4.807,3.09l-3.09,4.807l-1.373,5.493l1.373,5.494l3.09,4.806l4.807,3.09l5.493,1.374m0,-0l214.244,-0m0,-0l5.494,-1.374l4.806,-3.09l3.09,-4.806l1.03,-5.494l-1.03,-5.493l-3.09,-4.807l-4.806,-3.09l-5.494,-1.373m0,-0l-214.244,-0m340.593,-0l-5.493,1.373l-4.807,3.09l-3.09,4.807l-1.03,5.493l1.03,5.494l3.09,4.806l4.807,3.09l5.493,1.374m0,-0l214.244,-0m-0,-0l5.493,-1.374l4.807,-3.09l3.09,-4.806l1.03,-5.494l-1.03,-5.493l-3.09,-4.807l-4.807,-3.09l-5.493,-1.373m-0,-0l-214.244,-0m-1703.31,-0l-5.494,1.373l-4.806,3.09l-3.09,4.807l-1.03,5.493l1.03,5.494l3.09,4.806l4.806,3.09l5.494,1.374m-0,-0l214.244,-0m-0,-0l5.493,-1.374l4.807,-3.09l3.09,-4.806l1.373,-5.494l-1.373,-5.493l-3.09,-4.807l-4.807,-3.09l-5.493,-1.373m-0,-0l-214.244,-0m-681.185,-0l-5.494,1.373l-4.806,3.09l-3.09,4.807l-1.03,5.493l1.03,5.494l3.09,4.806l4.806,3.09l5.494,1.374m-0,-0l214.244,-0m-0,-0l5.493,-1.374l4.807,-3.09l3.09,-4.806l1.03,-5.494l-1.03,-5.493l-3.09,-4.807l-4.807,-3.09l-5.493,-1.373m-0,-0l-214.244,-0m340.592,-0l-5.493,1.373l-4.807,3.09l-3.09,4.807l-1.03,5.493l1.03,5.494l3.09,4.806l4.807,3.09l5.493,1.374m0,-0l214.244,-0m0,-0l5.493,-1.374l4.807,-3.09l3.09,-4.806l1.03,-5.494l-1.03,-5.493l-3.09,-4.807l-4.807,-3.09l-5.493,-1.373m0,-0l-214.244,-0m1022.12,-58.368l-5.836,1.373l-4.464,3.09l-3.433,4.807l-1.03,5.493l1.03,5.494l3.433,4.807l4.464,3.09l5.836,1.03m0,-0l213.901,-0m-0,-0l5.837,-1.03l4.463,-3.09l3.433,-4.807l1.03,-5.494l-1.03,-5.493l-3.433,-4.807l-4.463,-3.09l-5.837,-1.373m-0,-0l-213.901,-0m-1703.31,-0l-5.493,1.373l-4.807,3.09l-3.09,4.807l-1.03,5.493l1.03,5.494l3.09,4.807l4.807,3.09l5.493,1.03m0,-0l214.244,-0m-0,-0l5.493,-1.03l4.807,-3.09l3.09,-4.807l1.03,-5.494l-1.03,-5.493l-3.09,-4.807l-4.807,-3.09l-5.493,-1.373m-0,-0l-214.244,-0m2043.9,-0l-5.493,1.373l-4.807,3.09l-3.09,4.807l-1.374,5.493l1.374,5.494l3.09,4.807l4.807,3.09l5.493,1.03m-0,-0l213.9,-0m0,-0l5.837,-1.03l4.807,-3.09l3.09,-4.807l1.03,-5.494l-1.03,-5.493l-3.09,-4.807l-4.807,-3.09l-5.837,-1.373m0,-0l-213.9,-0m340.592,-0l-5.493,1.373l-4.807,3.09l-3.09,4.807l-1.373,5.493l1.373,5.494l3.09,4.807l4.807,3.09l5.493,1.03m0,-0l214.244,-0m0,-0l5.494,-1.03l4.806,-3.09l3.09,-4.807l1.03,-5.494l-1.03,-5.493l-3.09,-4.807l-4.806,-3.09l-5.494,-1.373m0,-0l-214.244,-0m340.593,-0l-5.493,1.373l-4.807,3.09l-3.09,4.807l-1.03,5.493l1.03,5.494l3.09,4.807l4.807,3.09l5.493,1.03m0,-0l214.244,-0m-0,-0l5.493,-1.03l4.807,-3.09l3.09,-4.807l1.03,-5.494l-1.03,-5.493l-3.09,-4.807l-4.807,-3.09l-5.493,-1.373m-0,-0l-214.244,-0m-1703.31,-0l-5.494,1.373l-4.806,3.09l-3.09,4.807l-1.03,5.493l1.03,5.494l3.09,4.807l4.806,3.09l5.494,1.03m-0,-0l214.244,-0m-0,-0l5.493,-1.03l4.807,-3.09l3.09,-4.807l1.373,-5.494l-1.373,-5.493l-3.09,-4.807l-4.807,-3.09l-5.493,-1.373m-0,-0l-214.244,-0m-681.185,-0l-5.494,1.373l-4.806,3.09l-3.09,4.807l-1.03,5.493l1.03,5.494l3.09,4.807l4.806,3.09l5.494,1.03m-0,-0l214.244,-0m-0,-0l5.493,-1.03l4.807,-3.09l3.09,-4.807l1.03,-5.494l-1.03,-5.493l-3.09,-4.807l-4.807,-3.09l-5.493,-1.373m-0,-0l-214.244,-0m340.592,-0l-5.493,1.373l-4.807,3.09l-3.09,4.807l-1.03,5.493l1.03,5.494l3.09,4.807l4.807,3.09l5.493,1.03m0,-0l214.244,-0m0,-0l5.493,-1.03l4.807,-3.09l3.09,-4.807l1.03,-5.494l-1.03,-5.493l-3.09,-4.807l-4.807,-3.09l-5.493,-1.373m0,-0l-214.244,-0m1022.12,-58.368l-5.836,1.374l-4.464,3.09l-3.433,4.806l-1.03,5.494l1.03,5.493l3.433,4.807l4.464,3.09l5.836,1.03m0,0l213.901,0m-0,0l5.837,-1.03l4.463,-3.09l3.433,-4.807l1.03,-5.493l-1.03,-5.494l-3.433,-4.806l-4.463,-3.09l-5.837,-1.374m-0,0l-213.901,0m-1703.31,0l-5.493,1.374l-4.807,3.09l-3.09,4.806l-1.03,5.494l1.03,5.493l3.09,4.807l4.807,3.09l5.493,1.03m0,0l214.244,0m-0,0l5.493,-1.03l4.807,-3.09l3.09,-4.807l1.03,-5.493l-1.03,-5.494l-3.09,-4.806l-4.807,-3.09l-5.493,-1.374m-0,0l-214.244,0m2043.9,0l-5.493,1.374l-4.807,3.09l-3.09,4.806l-1.374,5.494l1.374,5.493l3.09,4.807l4.807,3.09l5.493,1.03m-0,0l213.9,0m0,0l5.837,-1.03l4.807,-3.09l3.09,-4.807l1.03,-5.493l-1.03,-5.494l-3.09,-4.806l-4.807,-3.09l-5.837,-1.374m0,0l-213.9,0m340.592,0l-5.493,1.374l-4.807,3.09l-3.09,4.806l-1.373,5.494l1.373,5.493l3.09,4.807l4.807,3.09l5.493,1.03m0,0l214.244,0m0,0l5.494,-1.03l4.806,-3.09l3.09,-4.807l1.03,-5.493l-1.03,-5.494l-3.09,-4.806l-4.806,-3.09l-5.494,-1.374m0,0l-214.244,0m340.593,0l-5.493,1.374l-4.807,3.09l-3.09,4.806l-1.03,5.494l1.03,5.493l3.09,4.807l4.807,3.09l5.493,1.03m0,0l214.244,0m-0,0l5.493,-1.03l4.807,-3.09l3.09,-4.807l1.03,-5.493l-1.03,-5.494l-3.09,-4.806l-4.807,-3.09l-5.493,-1.374m-0,0l-214.244,0m-1703.31,0l-5.494,1.374l-4.806,3.09l-3.09,4.806l-1.03,5.494l1.03,5.493l3.09,4.807l4.806,3.09l5.494,1.03m-0,0l214.244,0m-0,0l5.493,-1.03l4.807,-3.09l3.09,-4.807l1.373,-5.493l-1.373,-5.494l-3.09,-4.806l-4.807,-3.09l-5.493,-1.374m-0,0l-214.244,0m-681.185,0l-5.494,1.374l-4.806,3.09l-3.09,4.806l-1.03,5.494l1.03,5.493l3.09,4.807l4.806,3.09l5.494,1.03m-0,0l214.244,0m-0,0l5.493,-1.03l4.807,-3.09l3.09,-4.807l1.03,-5.493l-1.03,-5.494l-3.09,-4.806l-4.807,-3.09l-5.493,-1.374m-0,0l-214.244,0m340.592,0l-5.493,1.374l-4.807,3.09l-3.09,4.806l-1.03,5.494l1.03,5.493l3.09,4.807l4.807,3.09l5.493,1.03m0,0l214.244,0m0,0l5.493,-1.03l4.807,-3.09l3.09,-4.807l1.03,-5.493l-1.03,-5.494l-3.09,-4.806l-4.807,-3.09l-5.493,-1.374m0,0l-214.244,0m1022.12,-58.367l-5.836,1.03l-4.464,3.433l-3.433,4.807l-1.03,5.493l1.03,5.494l3.433,4.806l4.464,3.09l5.836,1.03m0,0l213.901,0m-0,0l5.837,-1.03l4.463,-3.09l3.433,-4.806l1.03,-5.494l-1.03,-5.493l-3.433,-4.807l-4.463,-3.433l-5.837,-1.03m-0,-0l-213.901,-0m-1703.31,-0l-5.493,1.03l-4.807,3.433l-3.09,4.807l-1.03,5.493l1.03,5.494l3.09,4.806l4.807,3.09l5.493,1.03m0,0l214.244,0m-0,0l5.493,-1.03l4.807,-3.09l3.09,-4.806l1.03,-5.494l-1.03,-5.493l-3.09,-4.807l-4.807,-3.433l-5.493,-1.03m-0,-0l-214.244,-0m2043.9,-0l-5.493,1.03l-4.807,3.433l-3.09,4.807l-1.374,5.493l1.374,5.494l3.09,4.806l4.807,3.09l5.493,1.03m-0,0l213.9,0m0,0l5.837,-1.03l4.807,-3.09l3.09,-4.806l1.03,-5.494l-1.03,-5.493l-3.09,-4.807l-4.807,-3.433l-5.837,-1.03m0,-0l-213.9,-0m340.592,-0l-5.493,1.03l-4.807,3.433l-3.09,4.807l-1.373,5.493l1.373,5.494l3.09,4.806l4.807,3.09l5.493,1.03m0,0l214.244,0m0,0l5.494,-1.03l4.806,-3.09l3.09,-4.806l1.03,-5.494l-1.03,-5.493l-3.09,-4.807l-4.806,-3.433l-5.494,-1.03m0,-0l-214.244,-0m340.593,-0l-5.493,1.03l-4.807,3.433l-3.09,4.807l-1.03,5.493l1.03,5.494l3.09,4.806l4.807,3.09l5.493,1.03m0,0l214.244,0m-0,0l5.493,-1.03l4.807,-3.09l3.09,-4.806l1.03,-5.494l-1.03,-5.493l-3.09,-4.807l-4.807,-3.433l-5.493,-1.03m-0,-0l-214.244,-0m-1703.31,-0l-5.494,1.03l-4.806,3.433l-3.09,4.807l-1.03,5.493l1.03,5.494l3.09,4.806l4.806,3.09l5.494,1.03m-0,0l214.244,0m-0,0l5.493,-1.03l4.807,-3.09l3.09,-4.806l1.373,-5.494l-1.373,-5.493l-3.09,-4.807l-4.807,-3.433l-5.493,-1.03m-0,-0l-214.244,-0m-681.185,-0l-5.494,1.03l-4.806,3.433l-3.09,4.807l-1.03,5.493l1.03,5.494l3.09,4.806l4.806,3.09l5.494,1.03m-0,0l214.244,0m-0,0l5.493,-1.03l4.807,-3.09l3.09,-4.806l1.03,-5.494l-1.03,-5.493l-3.09,-4.807l-4.807,-3.433l-5.493,-1.03m-0,-0l-214.244,-0m340.592,-0l-5.493,1.03l-4.807,3.433l-3.09,4.807l-1.03,5.493l1.03,5.494l3.09,4.806l4.807,3.09l5.493,1.03m0,0l214.244,0m0,0l5.493,-1.03l4.807,-3.09l3.09,-4.806l1.03,-5.494l-1.03,-5.493l-3.09,-4.807l-4.807,-3.433l-5.493,-1.03m0,-0l-214.244,-0m1022.12,467.284l-5.836,1.03l-4.464,3.09l-3.433,4.807l-1.03,5.494l1.03,5.836l3.433,4.464l4.464,3.433l5.836,1.03m0,0l213.901,0m-0,0l5.837,-1.03l4.463,-3.433l3.433,-4.464l1.03,-5.836l-1.03,-5.494l-3.433,-4.807l-4.463,-3.09l-5.837,-1.03m-0,0l-213.901,0m-1703.31,0l-5.493,1.03l-4.807,3.09l-3.09,4.807l-1.03,5.494l1.03,5.836l3.09,4.464l4.807,3.433l5.493,1.03m0,0l214.244,0m-0,0l5.493,-1.03l4.807,-3.433l3.09,-4.464l1.03,-5.836l-1.03,-5.494l-3.09,-4.807l-4.807,-3.09l-5.493,-1.03m-0,0l-214.244,0m2043.9,0l-5.493,1.03l-4.807,3.09l-3.09,4.807l-1.374,5.494l1.374,5.836l3.09,4.464l4.807,3.433l5.493,1.03m-0,0l213.9,0m0,0l5.837,-1.03l4.807,-3.433l3.09,-4.464l1.03,-5.836l-1.03,-5.494l-3.09,-4.807l-4.807,-3.09l-5.837,-1.03m0,0l-213.9,0m340.592,0l-5.493,1.03l-4.807,3.09l-3.09,4.807l-1.373,5.494l1.373,5.836l3.09,4.464l4.807,3.433l5.493,1.03m0,0l214.244,0m0,0l5.494,-1.03l4.806,-3.433l3.09,-4.464l1.03,-5.836l-1.03,-5.494l-3.09,-4.807l-4.806,-3.09l-5.494,-1.03m0,0l-214.244,0m340.593,0l-5.493,1.03l-4.807,3.09l-3.09,4.807l-1.03,5.494l1.03,5.836l3.09,4.464l4.807,3.433l5.493,1.03m0,0l214.244,0m-0,0l5.493,-1.03l4.807,-3.433l3.09,-4.464l1.03,-5.836l-1.03,-5.494l-3.09,-4.807l-4.807,-3.09l-5.493,-1.03m-0,0l-214.244,0m-1703.31,0l-5.494,1.03l-4.806,3.09l-3.09,4.807l-1.03,5.494l1.03,5.836l3.09,4.464l4.806,3.433l5.494,1.03m-0,0l214.244,0m-0,0l5.493,-1.03l4.807,-3.433l3.09,-4.464l1.373,-5.836l-1.373,-5.494l-3.09,-4.807l-4.807,-3.09l-5.493,-1.03m-0,0l-214.244,0m-681.185,0l-5.494,1.03l-4.806,3.09l-3.09,4.807l-1.03,5.494l1.03,5.836l3.09,4.464l4.806,3.433l5.494,1.03m-0,0l214.244,0m-0,0l5.493,-1.03l4.807,-3.433l3.09,-4.464l1.03,-5.836l-1.03,-5.494l-3.09,-4.807l-4.807,-3.09l-5.493,-1.03m-0,0l-214.244,0m340.592,0l-5.493,1.03l-4.807,3.09l-3.09,4.807l-1.03,5.494l1.03,5.836l3.09,4.464l4.807,3.433l5.493,1.03m0,0l214.244,0m0,0l5.493,-1.03l4.807,-3.433l3.09,-4.464l1.03,-5.836l-1.03,-5.494l-3.09,-4.807l-4.807,-3.09l-5.493,-1.03m0,0l-214.244,0m1022.12,175.103l-5.836,1.03l-4.464,3.434l-3.433,4.463l-1.03,5.837l1.03,5.493l3.433,4.807l4.464,3.09l5.836,1.03m0,0l213.901,0m-0,0l5.837,-1.03l4.463,-3.09l3.433,-4.807l1.03,-5.493l-1.03,-5.837l-3.433,-4.463l-4.463,-3.434l-5.837,-1.03m-0,0l-213.901,0m-1703.31,0l-5.493,1.03l-4.807,3.434l-3.09,4.463l-1.03,5.837l1.03,5.493l3.09,4.807l4.807,3.09l5.493,1.03m0,0l214.244,0m-0,0l5.493,-1.03l4.807,-3.09l3.09,-4.807l1.03,-5.493l-1.03,-5.837l-3.09,-4.463l-4.807,-3.434l-5.493,-1.03m-0,0l-214.244,0m2043.9,0l-5.493,1.03l-4.807,3.434l-3.09,4.463l-1.374,5.837l1.374,5.493l3.09,4.807l4.807,3.09l5.493,1.03m-0,0l213.9,0m0,0l5.837,-1.03l4.807,-3.09l3.09,-4.807l1.03,-5.493l-1.03,-5.837l-3.09,-4.463l-4.807,-3.434l-5.837,-1.03m0,0l-213.9,0m340.592,0l-5.493,1.03l-4.807,3.434l-3.09,4.463l-1.373,5.837l1.373,5.493l3.09,4.807l4.807,3.09l5.493,1.03m0,0l214.244,0m0,0l5.494,-1.03l4.806,-3.09l3.09,-4.807l1.03,-5.493l-1.03,-5.837l-3.09,-4.463l-4.806,-3.434l-5.494,-1.03m0,0l-214.244,0m340.593,0l-5.493,1.03l-4.807,3.434l-3.09,4.463l-1.03,5.837l1.03,5.493l3.09,4.807l4.807,3.09l5.493,1.03m0,0l214.244,0m-0,0l5.493,-1.03l4.807,-3.09l3.09,-4.807l1.03,-5.493l-1.03,-5.837l-3.09,-4.463l-4.807,-3.434l-5.493,-1.03m-0,0l-214.244,0m-1703.31,0l-5.494,1.03l-4.806,3.434l-3.09,4.463l-1.03,5.837l1.03,5.493l3.09,4.807l4.806,3.09l5.494,1.03m-0,0l214.244,0m-0,0l5.493,-1.03l4.807,-3.09l3.09,-4.807l1.373,-5.493l-1.373,-5.837l-3.09,-4.463l-4.807,-3.434l-5.493,-1.03m-0,0l-214.244,0m-681.185,0l-5.494,1.03l-4.806,3.434l-3.09,4.463l-1.03,5.837l1.03,5.493l3.09,4.807l4.806,3.09l5.494,1.03m-0,0l214.244,0m-0,0l5.493,-1.03l4.807,-3.09l3.09,-4.807l1.03,-5.493l-1.03,-5.837l-3.09,-4.463l-4.807,-3.434l-5.493,-1.03m-0,0l-214.244,0m340.592,0l-5.493,1.03l-4.807,3.434l-3.09,4.463l-1.03,5.837l1.03,5.493l3.09,4.807l4.807,3.09l5.493,1.03m0,0l214.244,0m0,0l5.493,-1.03l4.807,-3.09l3.09,-4.807l1.03,-5.493l-1.03,-5.837l-3.09,-4.463l-4.807,-3.434l-5.493,-1.03m0,0l-214.244,0m1022.12,-58.367l-5.836,1.03l-4.464,3.09l-3.433,4.806l-1.03,5.837l1.03,5.494l3.433,4.806l4.464,3.09l5.836,1.03m0,0l213.901,0m-0,0l5.837,-1.03l4.463,-3.09l3.433,-4.806l1.03,-5.494l-1.03,-5.837l-3.433,-4.806l-4.463,-3.09l-5.837,-1.03m-0,-0l-213.901,-0m-1703.31,-0l-5.493,1.03l-4.807,3.09l-3.09,4.806l-1.03,5.837l1.03,5.494l3.09,4.806l4.807,3.09l5.493,1.03m0,0l214.244,0m-0,0l5.493,-1.03l4.807,-3.09l3.09,-4.806l1.03,-5.494l-1.03,-5.837l-3.09,-4.806l-4.807,-3.09l-5.493,-1.03m-0,-0l-214.244,-0m2043.9,-0l-5.493,1.03l-4.807,3.09l-3.09,4.806l-1.374,5.837l1.374,5.494l3.09,4.806l4.807,3.09l5.493,1.03m-0,0l213.9,0m0,0l5.837,-1.03l4.807,-3.09l3.09,-4.806l1.03,-5.494l-1.03,-5.837l-3.09,-4.806l-4.807,-3.09l-5.837,-1.03m0,-0l-213.9,-0m340.592,-0l-5.493,1.03l-4.807,3.09l-3.09,4.806l-1.373,5.837l1.373,5.494l3.09,4.806l4.807,3.09l5.493,1.03m0,0l214.244,0m0,0l5.494,-1.03l4.806,-3.09l3.09,-4.806l1.03,-5.494l-1.03,-5.837l-3.09,-4.806l-4.806,-3.09l-5.494,-1.03m0,-0l-214.244,-0m340.593,-0l-5.493,1.03l-4.807,3.09l-3.09,4.806l-1.03,5.837l1.03,5.494l3.09,4.806l4.807,3.09l5.493,1.03m0,0l214.244,0m-0,0l5.493,-1.03l4.807,-3.09l3.09,-4.806l1.03,-5.494l-1.03,-5.837l-3.09,-4.806l-4.807,-3.09l-5.493,-1.03m-0,-0l-214.244,-0m-1703.31,-0l-5.494,1.03l-4.806,3.09l-3.09,4.806l-1.03,5.837l1.03,5.494l3.09,4.806l4.806,3.09l5.494,1.03m-0,0l214.244,0m-0,0l5.493,-1.03l4.807,-3.09l3.09,-4.806l1.373,-5.494l-1.373,-5.837l-3.09,-4.806l-4.807,-3.09l-5.493,-1.03m-0,-0l-214.244,-0m-681.185,-0l-5.494,1.03l-4.806,3.09l-3.09,4.806l-1.03,5.837l1.03,5.494l3.09,4.806l4.806,3.09l5.494,1.03m-0,0l214.244,0m-0,0l5.493,-1.03l4.807,-3.09l3.09,-4.806l1.03,-5.494l-1.03,-5.837l-3.09,-4.806l-4.807,-3.09l-5.493,-1.03m-0,-0l-214.244,-0m340.592,-0l-5.493,1.03l-4.807,3.09l-3.09,4.806l-1.03,5.837l1.03,5.494l3.09,4.806l4.807,3.09l5.493,1.03m0,0l214.244,0m0,0l5.493,-1.03l4.807,-3.09l3.09,-4.806l1.03,-5.494l-1.03,-5.837l-3.09,-4.806l-4.807,-3.09l-5.493,-1.03m0,-0l-214.244,-0m-883.755,-720.326l3344.12,-0m16.137,31.244l-3.777,-10.644l-3.434,-9.613l-3.776,-6.867l-3.434,-3.777l-1.716,-0.343m-3344.12,-0l-3.433,2.06l-3.434,5.493l-3.776,8.584l-3.434,10.3l-1.717,4.807m3376.06,1057.14l-0,30.901m-0,-0l-3376.06,-0m0,-0l0,-30.901m3359.92,-1088.38l12.016,2.403l9.957,6.867l6.867,9.957l2.403,12.017m-18.883,-10.987l3.09,4.807l1.373,6.18m-3377.43,-0l1.373,-6.18l3.09,-4.807m-18.883,10.987l2.403,-12.017l6.523,-9.957l10.301,-6.867l11.673,-2.403m-30.9,1100.06l14.42,-0m-0,-0l-0,19.227m-0,-0l-14.42,-0m-0,-0l-0,-19.227m14.42,-11.674l-0,11.674m-14.42,-0l-0,-11.674m3406.27,11.674l0,-11.674m-14.42,11.674l14.42,-0m-14.42,-11.674l0,11.674m14.42,19.227l-14.42,-0m14.42,-19.227l0,19.227m-14.42,-0l0,-19.227m-3391.85,238.277l15.106,0m-15.106,-219.05l-0,219.05m3406.27,-219.05l0,219.05m0,0l-15.106,0m-3170.05,-1136.8l238.964,-0m101.629,-0l238.964,-0m101.628,-0l238.964,-0m101.972,-0l238.621,-0m101.972,-0l238.62,-0m101.972,-0l238.621,-0m101.972,-0l238.621,-0m101.971,-0l238.621,-0m101.972,-0l238.964,-0m206.004,1136.8l-0,31.244m-3376.06,0l0,-31.244m-15.106,11.674l14.42,-0m-14.42,-0l-0,-11.674m14.42,0l-0,11.674m-14.42,19.57l-0,-19.57m14.42,-0l-0,19.57m3377.43,0l0,-19.57m0,-0l14.42,-0m0,-0l0,19.57m-14.42,-31.244l0,11.674m14.42,-0l0,-11.674m-3766.43,52.875l-1.03,-0l-0.687,0.343l-1.03,0.343l-1.373,1.374l-0.344,1.03l-0.343,0.686l-0,1.03m15.794,-4.806l-10.987,-0m4115.61,-0l-4104.62,-0m4120.41,4.806l0,-1.03l-0.343,-0.686l-0.344,-1.03l-1.373,-1.374l-1.03,-0.343l-0.687,-0.343l-1.03,-0m4.807,4.806l0,525.996m-4.807,5.15l1.03,-0.343l0.687,-0l1.03,-0.687l0.687,-0.343l0.686,-1.03l0.344,-0.687l0.343,-1.03l0,-1.03m-4.807,5.15l-10.987,0m-4104.62,0l4104.62,0m-4115.61,0l10.987,0m-15.794,-5.15l-0,1.03l0.343,1.03l0.344,0.687l0.686,1.03l0.687,0.343l1.03,0.687l0.687,-0l1.03,0.343m-4.807,-531.146l-0,525.996m2944.13,-165.489l437.758,-0m-0,-0l-0,-194.674m-0,0l-437.758,0m0,0l0,194.674m-1931.28,-130.126l-0.344,-2.403l-1.373,-2.06l-2.06,-1.374l-2.403,-0.343l-2.747,0.343l-2.06,1.374l-1.373,2.06l-0.344,2.403l0.344,2.403l1.373,2.06l2.06,1.374l2.747,0.686l2.403,-0.686l2.06,-1.374l1.373,-2.06l0.344,-2.403m3107.56,-235.187l10.987,-0m-4109.77,-21.631l4092.95,0m-4098.78,21.631l1.373,-7.211l1.373,-6.523l1.03,-4.807l1.374,-2.746l0.686,-0.344m4092.95,0l1.03,1.03l1.373,3.777l1.373,5.493l1.03,6.867l1.03,4.464m0,535.952l-2.746,4.12l-2.404,4.12l-2.746,3.777l-2.404,3.09m0,0l-4084.02,0m-0,0l-2.404,-3.09l-2.746,-3.777l-2.404,-4.12l-2.746,-4.12m10.3,15.107l-1.03,0.343l-1.374,0.344l-1.373,1.373l-0.343,1.03l-0,1.717l0.686,0.687m4090.89,-0l0.343,-0.687l0.343,-1.03l0,-0.687l-0.343,-1.03l-0.687,-0.687l-1.03,-0.686l-2.06,-0.687m-165.833,174.416l169.267,-168.922m-173.043,170.639l0.686,0l0.344,-0.343l1.03,-0l0.686,-0.344l1.03,-1.03m-10.3,1.717l6.524,0m-6.524,0l-3732.1,0m-6.18,0l6.18,0m-10.3,-1.717l0.344,0.344l0.686,0.343l0.687,0.687l1.373,-0l0.344,0.343l0.686,0m-173.043,-170.639l168.923,168.922m-186.776,-189.523l-4.807,0m-0,-535.952l-0,4.806m-0,525.996l-0,5.15m4.807,-535.952l-4.807,-0m4131.4,535.952l4.807,0m0,-535.952l0,4.806m0,525.996l0,5.15m-4.807,-535.952l4.807,-0m-14.42,-0l-0.687,-2.747l-1.717,-2.404m16.824,5.151l-1.717,-8.241l-4.806,-7.21l-6.867,-4.806l-8.24,-1.374m-4097.75,16.48l-0.344,0l-1.373,2.404l-0.687,2.747m7.21,-21.631l-8.24,1.374l-7.21,4.806l-4.463,7.21l-1.717,8.241m4129.69,551.059l-10.301,-10.3m0,-0l2.061,-2.747l0.343,-2.06m7.897,15.107l2.746,-3.09l2.06,-3.777l1.374,-4.12l0.343,-4.12m-4130.03,15.107l10.3,-10.3m-16.48,-4.807l0.343,4.12l1.374,4.12l1.716,3.777l2.747,3.09m8.24,-15.107l0.343,1.717l0.687,1.373l1.03,1.717m0,-0l5.494,5.493m-10.301,10.301l-5.493,-5.494m4108.05,-4.807l0.687,-0.686l0.687,-1.03l1.03,-0.687l2.746,-2.747l0,-0.343m10.301,10.3l-0,0.343l-5.15,5.151m-4112.86,-0l168.923,168.922m3775.02,0l168.923,-168.922m-190.554,170.639l0,6.18m-3732.1,0l3732.1,0m-3732.1,0l0,-6.18m-14.077,-5.493l-5.493,5.493m0,0l-0.343,0l-0,-0.343l-0.344,-0l0,-0.344l-1.03,-1.03m3773.3,1.717l-5.493,-5.493m7.21,3.776l-1.717,1.717m-3752.7,0l-0,6.18m0.686,0l-0.686,0m-3.777,0l3.777,0m3733.47,0l3.777,0m-3.777,-6.18l-0,6.18m-3752.36,-6.18l1.373,1.373l1.717,1.374l2.06,1.03l1.717,0.687l2.06,1.03l4.12,0.686l2.06,0m3737.25,0l-0.687,0m4.464,0l2.403,0l4.12,-0.686l2.06,-1.03l1.717,-0.687l2.06,-1.03l1.717,-1.374l1.373,-1.373m-2879.24,-779.723l5.493,-0m-213.9,-0l208.407,-0m-12.017,18.197l4.807,-0m-188.494,-0l183.687,-0m-29.871,11.33l3.434,-0m-126.006,-0l122.572,-0m-88.924,-387.63l58.367,-0m-52.531,-3.434l46.694,0m-42.574,-6.866l38.798,-0m957.916,368.403l5.494,-0m-213.901,-0l208.407,-0m-12.017,18.197l4.807,-0m-188.493,-0l183.686,-0m-29.87,11.33l3.433,-0m-126.005,-0l122.572,-0m-88.582,-387.63l23.004,-0m-17.167,-3.434l20.601,0m-16.824,-6.866l19.227,-0m977.487,368.403l5.837,-0m-214.244,-0l208.407,-0m-12.017,18.197l4.807,-0m-188.494,-0l183.687,-0m-29.527,11.33l3.09,-0m-126.006,-0l122.916,-0m-88.925,-387.63l58.368,-0m-52.531,-3.434l46.694,0m-42.918,-6.866l38.798,-0m-1231.56,368.403l5.493,-0m-214.244,-0l208.751,-0m-12.36,18.197l5.15,-0m-188.494,-0l183.344,-0m-29.528,11.33l3.09,-0m-125.662,-0l122.572,-0m-88.925,-387.63l58.368,-0m-52.531,-3.434l46.694,0m-42.917,-6.866l39.141,-0m1833.78,368.403l5.493,-0m-213.9,-0l208.407,-0m-12.017,18.197l4.807,-0m-188.494,-0l183.687,-0m-29.871,11.33l3.434,-0m-126.006,-0l122.572,-0m-88.925,-387.63l58.368,-0m-52.531,-3.434l46.694,0m-42.574,-6.866l38.798,-0m-793.801,368.403l5.494,-0m-214.244,-0l208.75,-0m-12.36,18.197l5.15,-0m-188.493,-0l183.343,-0m-29.527,11.33l3.433,-0m-126.005,-0l122.572,-0m-53.561,-387.63l23.004,-0m-26.438,-3.434l20.601,0m-23.004,-6.866l19.227,-0m126.349,-226.261l94.075,0m104.032,0l102.315,0m-600.501,0l53.561,0m104.032,0l142.486,0m-0,-232.784l93.388,0m105.405,0l18.541,0m-359.133,0l141.799,0m-0,716.892l185.06,0m-223.857,0l38.797,0m-0,-729.939l97.165,0m97.852,0l6.866,0m-347.459,0l145.576,0m-0,755.347l185.06,-0m-223.857,-0l38.797,-0m-0,-916.373l92.702,-0m-233.814,-0l141.112,-0m-729.939,406.857l142.829,0m104.032,0l53.561,0m-600.501,0l102.315,0m103.689,0l94.075,0m-0,-232.784l142.142,0m-359.133,0l18.541,0m105.061,0l93.389,0m-0,716.892l39.14,0m-223.857,0l184.717,0m-0,-729.939l145.919,0m-347.459,0l6.523,0m98.195,0l96.822,0m-0,755.347l39.14,-0m-223.857,-0l184.717,-0m-0,-916.373l141.455,-0m-233.814,-0l92.359,-0m1459.88,406.857l45.664,0m103.689,0l151.069,0m-600.844,0l5.494,0m103.688,0l191.24,0m0,-232.784l44.978,0m105.062,0l67.294,0m-407.887,0l190.553,0m107.122,716.892l105.062,0m-424.024,0l105.062,0m106.778,-729.939l48.411,0m98.195,0l55.278,0m-395.87,0l193.986,0m107.122,755.347l91.672,-0m-397.244,-0l91.672,-0m106.778,-916.373l43.948,-0m107.122,-0l31.587,-0m-364.97,-0l182.313,-0m-2189.82,406.857l191.584,0m103.688,0l5.15,0m-600.5,0l151.069,0m103.689,0l45.32,0m0,-232.784l190.897,0m-407.887,0l67.294,0m105.062,0l44.634,0m107.122,716.892l105.062,0m-424.024,0l105.062,0m106.778,-729.939l194.33,0m-395.87,0l55.278,0m98.195,0l48.067,0m107.122,755.347l91.672,-0m-397.244,-0l91.672,-0m106.778,-916.373l182.657,-0m-364.97,-0l31.587,-0m107.122,-0l43.604,-0m-276.731,1353.79l-0,3.776m-316.216,-356.386l425.054,0m335.786,0l163.086,0m214.244,0l16.824,0m420.934,0l223.857,0m420.934,0l17.167,0m214.244,0l162.742,0m335.786,0l425.398,0m-3734.16,599.471l-6.867,6.523l-3.434,3.434m4112.86,-0l-6.867,-6.867l-3.434,-3.09m-3933.64,178.879l5.494,-5.493m3763.68,0l5.837,5.493m-3758.19,1.717l-0,6.18m3741.03,-6.18l-0,6.18" style="fill:none;fill-rule:nonzero;stroke:#000;stroke-width:6.25px;"/></g><g><g><path d="M2223.1,1741.34l-33.958,67.84l-33.9,-67.84l67.858,0Z" style="stroke:#000;stroke-width:6.25px;stroke-linecap:butt;stroke-miterlimit:2;"/><path d="M2189.14,1584.72l-0,170.189" style="fill:none;stroke:#000;stroke-width:6.25px;stroke-miterlimit:1.5;"/></g></g><g><g><path d="M5903.55,1741.34l-33.958,67.84l-33.9,-67.84l67.858,0Z" style="stroke:#000;stroke-width:6.25px;stroke-linecap:butt;stroke-miterlimit:2;"/><path d="M5869.59,1584.72l-0,170.189" style="fill:none;stroke:#000;stroke-width:6.25px;stroke-miterlimit:1.5;"/></g></g></g></svg>