<?xml version="1.0" encoding="UTF-8" standalone="no"?>
<!DOCTYPE svg PUBLIC "-//W3C//DTD SVG 1.1//EN" "http://www.w3.org/Graphics/SVG/1.1/DTD/svg11.dtd">
<svg width="100%" height="100%" viewBox="0 0 1920 1080" version="1.1" xmlns="http://www.w3.org/2000/svg" xmlns:xlink="http://www.w3.org/1999/xlink" xml:space="preserve" xmlns:serif="http://www.serif.com/" style="fill-rule:evenodd;clip-rule:evenodd;stroke-linecap:square;stroke-miterlimit:1.5;">
    <g transform="matrix(1,0,0,0.986541,1.08002e-12,0)">
        <path d="M1920,27.337C1920,12.249 1907.91,0 1893.03,0L26.969,0C12.085,0 0,12.249 0,27.337L0,1067.4C0,1082.48 12.085,1094.73 26.969,1094.73L1893.03,1094.73C1907.91,1094.73 1920,1082.48 1920,1067.4L1920,27.337Z" style="fill:rgb(250,250,250);"/>
    </g>
    <g transform="matrix(1,0,0,1,-168.19,-225.725)">
        <g id="Réteg-1" serif:id="Réteg 1" transform="matrix(3.71665,0,0,3.71665,-484.782,82.8582)">
            <g transform="matrix(1.23118,0,0,1.23118,472.874,-117.705)">
                <g transform="matrix(0.318753,0,0,0.318753,-89.0055,171.589)">
                    <path d="M0.499,-2.219C1.054,-11.383 8.657,-18.619 17.959,-18.619C27.626,-18.619 35.454,-10.792 35.454,-1.124C35.454,8.543 27.626,16.37 17.959,16.37C17.683,16.37 17.459,16.594 17.459,16.87C17.459,17.146 17.683,17.37 17.959,17.37C28.178,17.37 36.454,9.095 36.454,-1.124C36.454,-11.344 28.178,-19.619 17.959,-19.619C8.125,-19.619 0.088,-11.967 -0.499,-2.279C-0.516,-2.004 -0.306,-1.767 -0.03,-1.75C0.245,-1.733 0.482,-1.943 0.499,-2.219Z" style="fill:rgb(35,31,32);"/>
                </g>
                <g transform="matrix(0.318753,0,0,0.318753,-56.384,171.589)">
                    <path d="M0.499,-2.219C1.054,-11.383 8.657,-18.619 17.959,-18.619C27.626,-18.619 35.454,-10.792 35.454,-1.124C35.454,8.543 27.626,16.37 17.959,16.37C17.683,16.37 17.459,16.594 17.459,16.87C17.459,17.146 17.683,17.37 17.959,17.37C28.178,17.37 36.454,9.095 36.454,-1.124C36.454,-11.344 28.178,-19.619 17.959,-19.619C8.125,-19.619 0.088,-11.967 -0.499,-2.279C-0.516,-2.004 -0.306,-1.767 -0.03,-1.75C0.245,-1.733 0.482,-1.943 0.499,-2.219Z" style="fill:rgb(35,31,32);"/>
                </g>
                <g transform="matrix(-0.300391,0.106626,0.106626,0.300391,-89.6303,172.949)">
                    <path d="M-8.533,-6.62L-4.509,-6.62L-1.716,-9.516L-1.693,0.011L-8.533,-6.62Z" style="fill:rgb(35,31,32);fill-rule:nonzero;"/>
                </g>
                <g transform="matrix(-0.300391,0.106626,0.106626,0.300391,-57.0088,172.949)">
                    <path d="M-8.533,-6.62L-4.509,-6.62L-1.716,-9.516L-1.693,0.011L-8.533,-6.62Z" style="fill:rgb(35,31,32);fill-rule:nonzero;"/>
                </g>
            </g>
            <g transform="matrix(1.23118,0,0,1.23118,472.874,63.7418)">
                <g transform="matrix(0.318753,0,0,0.318753,-89.0055,171.589)">
                    <path d="M0.499,-2.219C1.054,-11.383 8.657,-18.619 17.959,-18.619C27.626,-18.619 35.454,-10.792 35.454,-1.124C35.454,8.543 27.626,16.37 17.959,16.37C17.683,16.37 17.459,16.594 17.459,16.87C17.459,17.146 17.683,17.37 17.959,17.37C28.178,17.37 36.454,9.095 36.454,-1.124C36.454,-11.344 28.178,-19.619 17.959,-19.619C8.125,-19.619 0.088,-11.967 -0.499,-2.279C-0.516,-2.004 -0.306,-1.767 -0.03,-1.75C0.245,-1.733 0.482,-1.943 0.499,-2.219Z" style="fill:rgb(35,31,32);"/>
                </g>
                <g transform="matrix(0.318753,0,0,0.318753,-56.384,171.589)">
                    <path d="M0.499,-2.219C1.054,-11.383 8.657,-18.619 17.959,-18.619C27.626,-18.619 35.454,-10.792 35.454,-1.124C35.454,8.543 27.626,16.37 17.959,16.37C17.683,16.37 17.459,16.594 17.459,16.87C17.459,17.146 17.683,17.37 17.959,17.37C28.178,17.37 36.454,9.095 36.454,-1.124C36.454,-11.344 28.178,-19.619 17.959,-19.619C8.125,-19.619 0.088,-11.967 -0.499,-2.279C-0.516,-2.004 -0.306,-1.767 -0.03,-1.75C0.245,-1.733 0.482,-1.943 0.499,-2.219Z" style="fill:rgb(35,31,32);"/>
                </g>
                <g transform="matrix(-0.300391,0.106626,0.106626,0.300391,-89.6303,172.949)">
                    <path d="M-8.533,-6.62L-4.509,-6.62L-1.716,-9.516L-1.693,0.011L-8.533,-6.62Z" style="fill:rgb(35,31,32);fill-rule:nonzero;"/>
                </g>
                <g transform="matrix(-0.300391,0.106626,0.106626,0.300391,-57.0088,172.949)">
                    <path d="M-8.533,-6.62L-4.509,-6.62L-1.716,-9.516L-1.693,0.011L-8.533,-6.62Z" style="fill:rgb(35,31,32);fill-rule:nonzero;"/>
                </g>
            </g>
            <g transform="matrix(0.317787,0,0,0.317787,368.231,107.643)">
                <text x="0px" y="0px" style="font-family:'Roboto-Regular', 'Roboto';font-size:24.205px;">a.</text>
            </g>
            <g transform="matrix(0.317787,0,0,0.317787,368.295,264.754)">
                <text x="0px" y="0px" style="font-family:'Roboto-Regular', 'Roboto';font-size:24.205px;">c.</text>
            </g>
            <g transform="matrix(0.317787,0,0,0.317787,408.14,107.707)">
                <text x="0px" y="0px" style="font-family:'Roboto-Regular', 'Roboto';font-size:24.205px;">b.</text>
            </g>
            <g transform="matrix(0.317787,0,0,0.317787,408.117,264.754)">
                <text x="0px" y="0px" style="font-family:'Roboto-Regular', 'Roboto';font-size:24.205px;">d.</text>
            </g>
        </g>
        <g transform="matrix(0.723742,0,0,1.21266,-76.4637,-175.275)">
            <path d="M1616.18,478.985C1616.18,473.73 1612.68,468.691 1606.45,464.976C1600.23,461.26 1591.78,459.173 1582.98,459.173L1298.21,459.173C1289.41,459.173 1280.96,461.26 1274.74,464.976C1268.51,468.691 1265.02,473.73 1265.02,478.985L1265.02,1072.97C1265.02,1078.23 1268.51,1083.27 1274.74,1086.98C1280.96,1090.7 1289.41,1092.79 1298.21,1092.79L1582.98,1092.79C1591.78,1092.79 1600.23,1090.7 1606.45,1086.98C1612.68,1083.27 1616.18,1078.23 1616.18,1072.97L1616.18,478.985Z" style="fill:none;stroke:rgb(29,29,27);stroke-width:2.68px;"/>
        </g>
        <g transform="matrix(0.723742,0,0,1.21266,247.597,-175.275)">
            <path d="M1616.18,478.985C1616.18,473.73 1612.68,468.691 1606.45,464.976C1600.23,461.26 1591.78,459.173 1582.98,459.173L1298.21,459.173C1289.41,459.173 1280.96,461.26 1274.74,464.976C1268.51,468.691 1265.02,473.73 1265.02,478.985L1265.02,1072.97C1265.02,1078.23 1268.51,1083.27 1274.74,1086.98C1280.96,1090.7 1289.41,1092.79 1298.21,1092.79L1582.98,1092.79C1591.78,1092.79 1600.23,1090.7 1606.45,1086.98C1612.68,1083.27 1616.18,1078.23 1616.18,1072.97L1616.18,478.985Z" style="fill:none;stroke:rgb(29,29,27);stroke-width:2.68px;"/>
        </g>
        <g transform="matrix(0.723742,0,0,1.21266,-76.4637,-175.275)">
            <path d="M1591.71,478.985L1591.71,1072.97C1591.71,1074.36 1590.79,1075.68 1589.16,1076.66C1587.52,1077.64 1585.3,1078.19 1582.98,1078.19L1298.21,1078.19C1295.9,1078.19 1293.67,1077.64 1292.04,1076.66C1290.4,1075.68 1289.48,1074.36 1289.48,1072.97L1289.48,478.985C1289.48,477.602 1290.4,476.277 1292.04,475.299C1293.67,474.322 1295.9,473.773 1298.21,473.773L1582.98,473.773C1585.3,473.773 1587.52,474.322 1589.16,475.299C1590.79,476.277 1591.71,477.602 1591.71,478.985Z" style="fill:none;stroke:rgb(29,29,27);stroke-width:2.68px;"/>
        </g>
        <g transform="matrix(0.723742,0,0,1.21266,247.597,-175.275)">
            <path d="M1591.71,478.985L1591.71,1072.97C1591.71,1074.36 1590.79,1075.68 1589.16,1076.66C1587.52,1077.64 1585.3,1078.19 1582.98,1078.19L1298.21,1078.19C1295.9,1078.19 1293.67,1077.64 1292.04,1076.66C1290.4,1075.68 1289.48,1074.36 1289.48,1072.97L1289.48,478.985C1289.48,477.602 1290.4,476.277 1292.04,475.299C1293.67,474.322 1295.9,473.773 1298.21,473.773L1582.98,473.773C1585.3,473.773 1587.52,474.322 1589.16,475.299C1590.79,476.277 1591.71,477.602 1591.71,478.985Z" style="fill:none;stroke:rgb(29,29,27);stroke-width:2.68px;"/>
        </g>
        <g transform="matrix(0.663099,0,0,1.05996,334.96,-56.7845)">
            <path d="M1589.48,481.839L1589.48,1070.12C1589.48,1071.7 1588.47,1073.22 1586.68,1074.34C1584.9,1075.45 1582.47,1076.08 1579.94,1076.08L1301.25,1076.08C1298.72,1076.08 1296.3,1075.45 1294.51,1074.34C1292.72,1073.22 1291.72,1071.7 1291.72,1070.12L1291.72,481.839C1291.72,480.257 1292.72,478.741 1294.51,477.622C1296.3,476.504 1298.72,475.876 1301.25,475.876L1579.94,475.876C1582.47,475.876 1584.9,476.504 1586.68,477.622C1588.47,478.741 1589.48,480.257 1589.48,481.839Z" style="fill:none;stroke:rgb(29,29,27);stroke-width:3.02px;"/>
        </g>
        <g transform="matrix(2.64708,0,0,2.64708,1255.78,997.731)">
            <text x="0px" y="0px" style="font-family:'Inter-Regular', 'Inter';font-size:6.799px;">CR2032</text>
        </g>
        <g transform="matrix(2.64708,0,0,2.64708,1278.33,1026.54)">
            <text x="0px" y="0px" style="font-family:'Inter-Regular', 'Inter';font-size:6.799px;">3V</text>
        </g>
        <g transform="matrix(8.09733,0,0,8.09733,1272.37,977.794)">
            <text x="0px" y="0px" style="font-family:'Inter-Regular', 'Inter';font-size:6.799px;">+</text>
        </g>
        <g transform="matrix(0.891995,0,0,0.891995,-486.214,84.3221)">
            <circle cx="1544.85" cy="385.559" r="16.26" style="fill:none;stroke:rgb(29,29,27);stroke-width:1.5px;"/>
            <g transform="matrix(1,0,0,1,0,756.695)">
                <circle cx="1544.85" cy="385.559" r="16.26" style="fill:none;stroke:rgb(29,29,27);stroke-width:1.5px;"/>
            </g>
            <g transform="matrix(1,0,0,1,166.754,0)">
                <circle cx="1544.85" cy="385.559" r="16.26" style="fill:none;stroke:rgb(29,29,27);stroke-width:1.5px;"/>
            </g>
            <g transform="matrix(1,0,0,1,166.754,756.695)">
                <circle cx="1544.85" cy="385.559" r="16.26" style="fill:none;stroke:rgb(29,29,27);stroke-width:1.5px;"/>
            </g>
            <g transform="matrix(0.707107,0.707107,-0.707107,0.707107,725.107,-979.447)">
                <path d="M1548.82,381.589L1548.82,375.781L1540.88,375.781L1540.88,381.589L1535.07,381.589L1535.07,389.528L1540.88,389.528L1540.88,395.337L1548.82,395.337L1548.82,389.528L1554.63,389.528L1554.63,381.589L1548.82,381.589Z" style="fill:none;stroke:rgb(29,29,27);stroke-width:1.5px;"/>
            </g>
            <g transform="matrix(0.707107,0.707107,-0.707107,0.707107,725.107,-222.752)">
                <path d="M1548.82,381.589L1548.82,375.781L1540.88,375.781L1540.88,381.589L1535.07,381.589L1535.07,389.528L1540.88,389.528L1540.88,395.337L1548.82,395.337L1548.82,389.528L1554.63,389.528L1554.63,381.589L1548.82,381.589Z" style="fill:none;stroke:rgb(29,29,27);stroke-width:1.5px;"/>
            </g>
            <g transform="matrix(0.707107,0.707107,-0.707107,0.707107,891.862,-979.447)">
                <path d="M1548.82,381.589L1548.82,375.781L1540.88,375.781L1540.88,381.589L1535.07,381.589L1535.07,389.528L1540.88,389.528L1540.88,395.337L1548.82,395.337L1548.82,389.528L1554.63,389.528L1554.63,381.589L1548.82,381.589Z" style="fill:none;stroke:rgb(29,29,27);stroke-width:1.5px;"/>
            </g>
            <g transform="matrix(0.707107,0.707107,-0.707107,0.707107,891.862,-222.752)">
                <path d="M1548.82,381.589L1548.82,375.781L1540.88,375.781L1540.88,381.589L1535.07,381.589L1535.07,389.528L1540.88,389.528L1540.88,395.337L1548.82,395.337L1548.82,389.528L1554.63,389.528L1554.63,381.589L1548.82,381.589Z" style="fill:none;stroke:rgb(29,29,27);stroke-width:1.5px;"/>
            </g>
        </g>
        <g transform="matrix(0.891995,0,0,0.891995,-484.782,82.8582)">
            <circle cx="1989.92" cy="1018.54" r="69.094" style="fill:none;stroke:rgb(29,29,27);stroke-width:3px;"/>
        </g>
    </g>
</svg>
