<?xml version="1.0" encoding="UTF-8" standalone="no"?><!DOCTYPE svg PUBLIC "-//W3C//DTD SVG 1.1//EN" "http://www.w3.org/Graphics/SVG/1.1/DTD/svg11.dtd"><svg width="100%" height="100%" viewBox="0 0 8000 4500" version="1.1" xmlns="http://www.w3.org/2000/svg" xmlns:xlink="http://www.w3.org/1999/xlink" xml:space="preserve" xmlns:serif="http://www.serif.com/" style="fill-rule:evenodd;clip-rule:evenodd;stroke-linecap:round;stroke-linejoin:round;stroke-miterlimit:10;"><path d="M8000,112.372c0,-62.02 -50.352,-112.372 -112.372,-112.372l-7775.26,0c-62.02,0 -112.372,50.352 -112.372,112.372l0,4275.26c0,62.02 50.352,112.372 112.372,112.372l7775.26,-0c62.02,-0 112.372,-50.352 112.372,-112.372l0,-4275.26Z" style="fill:#fafafa;"/><g><g><text x="2346.49px" y="2289.33px" style="font-family:'Arial-BoldMT', 'Arial', sans-serif;font-weight:700;font-size:121.544px;">300B</text></g><g><text x="3347.2px" y="2289.33px" style="font-family:'Arial-BoldMT', 'Arial', sans-serif;font-weight:700;font-size:121.544px;">300B</text></g><g><text x="4347.87px" y="2289.33px" style="font-family:'Arial-BoldMT', 'Arial', sans-serif;font-weight:700;font-size:121.544px;">300B</text></g><g><text x="5348.58px" y="2289.33px" style="font-family:'Arial-BoldMT', 'Arial', sans-serif;font-weight:700;font-size:121.544px;">300B</text></g><g><text x="2310.17px" y="3235.61px" style="font-family:'Arial-BoldMT', 'Arial', sans-serif;font-weight:700;font-size:121.544px;">12A<tspan x="2524.11px 2598.36px " y="3235.61px 3235.61px ">T7</tspan></text><text x="2310.49px" y="3357.15px" style="font-family:'Arial-BoldMT', 'Arial', sans-serif;font-weight:700;font-size:121.544px;">ECC81</text></g><g><text x="2910.79px" y="3235.61px" style="font-family:'Arial-BoldMT', 'Arial', sans-serif;font-weight:700;font-size:121.544px;">12A<tspan x="3124.74px 3198.98px " y="3235.61px 3235.61px ">T7</tspan></text><text x="2911.12px" y="3357.15px" style="font-family:'Arial-BoldMT', 'Arial', sans-serif;font-weight:700;font-size:121.544px;">ECC81</text></g><g><text x="3505.57px" y="3235.61px" style="font-family:'Arial-BoldMT', 'Arial', sans-serif;font-weight:700;font-size:121.544px;">12AX7</text><text x="3511.24px" y="3357.15px" style="font-family:'Arial-BoldMT', 'Arial', sans-serif;font-weight:700;font-size:121.544px;">ECC83</text></g><g><text x="4105.7px" y="3235.61px" style="font-family:'Arial-BoldMT', 'Arial', sans-serif;font-weight:700;font-size:121.544px;">12AX7</text><text x="4111.36px" y="3357.15px" style="font-family:'Arial-BoldMT', 'Arial', sans-serif;font-weight:700;font-size:121.544px;">ECC83</text></g><g><text x="4711.17px" y="3235.61px" style="font-family:'Arial-BoldMT', 'Arial', sans-serif;font-weight:700;font-size:121.544px;">12A<tspan x="4925.11px 4999.36px " y="3235.61px 3235.61px ">T7</tspan></text><text x="4711.49px" y="3357.15px" style="font-family:'Arial-BoldMT', 'Arial', sans-serif;font-weight:700;font-size:121.544px;">ECC81</text></g><g><text x="5312.25px" y="3235.61px" style="font-family:'Arial-BoldMT', 'Arial', sans-serif;font-weight:700;font-size:121.544px;">12A<tspan x="5526.2px 5600.44px " y="3235.61px 3235.61px ">T7</tspan></text><text x="5312.57px" y="3357.15px" style="font-family:'Arial-BoldMT', 'Arial', sans-serif;font-weight:700;font-size:121.544px;">ECC81</text></g><g><path d="M6201.98,2940.34l-2.383,-13.82l-7.148,-11.914l-10.961,-9.055l-12.867,-5.242l-14.297,-0l-13.344,5.242l-10.485,9.055l-7.148,11.914l-2.383,13.82l2.383,13.821l7.148,12.39l10.485,9.055l13.344,4.766l14.297,-0l12.867,-4.766l10.961,-9.055l7.148,-12.39l2.383,-13.821m-2505.79,-209.212l24.781,-2.383l24.305,-7.149l21.922,-11.914l19.539,-15.727l16.204,-19.539l11.437,-21.922l7.625,-24.305l2.383,-24.781l-2.383,-25.258l-7.625,-24.305l-11.437,-21.922l-16.204,-19.54l-19.539,-15.726l-21.922,-11.914l-24.305,-7.626l-24.781,-2.382l-25.258,2.382l-23.829,7.626l-22.398,11.914l-19.539,15.726l-15.727,19.54l-11.914,21.922l-7.149,24.305l-2.859,25.258l2.859,24.781l7.149,24.305l11.914,21.922l15.727,19.539l19.539,15.727l22.398,11.914l23.829,7.149l25.258,2.383m-1354.4,-275.933l-4.289,6.196l-1.906,7.625l0.953,8.101l4.289,6.672l6.672,4.29l7.625,1.906l7.625,-0.953l6.672,-4.289m0,-0l7.149,-6.196l7.148,-5.719l7.625,-5.242l7.625,-4.766l8.102,-4.289l17.156,-7.625l8.579,-2.859m-0,-0l7.148,-3.813l4.766,-6.195l2.383,-7.148l-0.954,-8.102l-3.336,-7.149l-6.195,-4.765l-7.625,-2.383l-8.102,0.953m0,0l-10.961,3.813l-10.484,4.289l-10.485,4.765l-10.008,5.243l-10.007,6.195l-9.532,6.672l-9.055,7.148l-8.578,7.625m-59.094,193.486l3.336,7.149l5.719,5.719l7.625,2.859l7.625,-0.476l7.148,-3.336l5.719,-5.719l2.86,-7.149l-0.477,-8.101m0,-0l-1.906,-9.055l-1.43,-9.055l-0.953,-18.109l0.477,-9.532l0.476,-9.054l1.43,-9.055l1.906,-9.055m0,0l0.477,-8.102l-2.86,-7.148l-5.719,-5.719l-7.148,-3.336l-7.625,-0.476l-7.625,2.859l-5.719,5.719l-3.336,7.148m0,0l-2.383,10.961l-1.43,11.438l-0.953,11.437l-0.476,11.915l0.476,11.437l0.953,11.438l1.43,11.437l2.383,10.961m138.204,147.736l8.102,0.953l7.625,-2.383l6.195,-4.765l3.336,-7.149l0.954,-8.101l-2.383,-7.149l-4.766,-6.195l-7.148,-3.813m-0,0l-8.579,-2.859l-17.156,-7.625l-8.102,-4.289l-7.625,-4.766l-7.625,-5.242l-14.297,-11.438m0,0l-6.672,-4.289l-7.625,-0.953l-7.625,1.906l-6.672,4.289l-4.289,6.196l-0.953,8.101l1.906,7.625l4.289,6.196m0,-0l8.578,7.625l9.055,7.148l9.532,6.672l10.007,6.196l10.008,5.242l10.485,4.766l10.484,4.289l10.961,3.812m197.776,-45.75l4.289,-6.196l1.906,-7.625l-1.43,-8.101l-3.812,-6.196l-6.672,-4.289l-7.625,-1.906l-7.625,0.953l-6.672,4.289m-0,0l-14.297,11.438l-7.625,5.242l-7.625,4.766l-8.102,4.289l-17.157,7.625l-8.578,2.859m0,0l-7.148,3.813l-4.766,6.195l-2.383,7.149l0.477,8.101l3.812,7.149l6.196,4.765l7.625,2.383l8.101,-0.953m0,0l10.485,-3.812l10.961,-4.289l10.484,-4.766l10.008,-5.242l10.008,-6.196l9.055,-6.672l9.055,-7.148l9.055,-7.625m59.094,-193.01l-3.336,-7.148l-5.719,-5.719l-7.625,-2.859l-7.625,0.476l-7.149,3.336l-5.718,5.719l-2.86,7.148l0.477,8.102m-0,0l1.906,9.055l1.906,18.109l0.477,9.532l-0.477,9.054l-1.906,18.11l-1.906,9.055m-0,-0l-0.477,8.101l2.86,7.149l5.718,5.719l7.149,3.336l7.625,0.476l7.625,-2.859l5.719,-5.719l3.336,-7.149m-0,0l1.906,-10.961l1.906,-11.437l0.953,-11.438l0.477,-11.437l-0.477,-11.915l-0.953,-11.437l-1.906,-11.438l-1.906,-10.961m-197.775,173.471l25.258,-2.383l23.828,-7.149l22.399,-11.914l19.539,-15.727l15.727,-19.539l11.914,-21.922l7.625,-24.305l2.383,-24.781l-2.383,-25.258l-7.625,-24.305l-11.914,-21.922l-15.727,-19.54l-19.539,-15.726l-22.399,-11.914l-23.828,-7.626l-25.258,-2.382l-24.782,2.382l-24.305,7.626l-21.922,11.914l-19.539,15.726l-15.727,19.54l-11.914,21.922l-7.625,24.305l-2.383,25.258l2.383,24.781l7.625,24.305l11.914,21.922l15.727,19.539l19.539,15.727l21.922,11.914l24.305,7.149l24.782,2.383m667.193,-321.683l-7.625,-0.953l-7.625,2.383l-6.196,4.765l-3.812,7.149l-0.953,8.102l2.383,7.148l5.242,6.195l6.672,3.813m-0,-0l9.055,2.859l8.578,3.813l8.101,3.812l8.102,4.289l8.102,4.766l7.148,5.242l7.625,5.719l6.672,6.196m0,-0l6.672,4.289l8.102,0.953l7.625,-1.906l6.195,-4.29l4.289,-6.672l1.43,-8.101l-1.906,-7.625l-4.766,-6.196m0,0l-8.578,-7.625l-9.055,-7.148l-9.531,-6.672l-9.532,-6.195l-10.484,-5.243l-10.485,-4.765l-10.484,-4.289l-10.961,-3.813m-197.299,45.75l-4.765,6.196l-1.907,7.625l1.43,8.101l4.289,6.672l6.196,4.29l7.625,1.906l8.101,-0.953l6.672,-4.289m0,-0l6.672,-6.196l7.625,-5.719l7.149,-5.242l8.101,-4.766l8.102,-4.289l8.102,-3.812l8.578,-3.813l9.055,-2.859m-0,-0l6.672,-3.813l5.242,-6.195l2.383,-7.148l-0.954,-8.102l-3.812,-7.149l-6.195,-4.765l-7.626,-2.383l-7.625,0.953m0,0l-10.961,3.813l-10.484,4.289l-10.485,4.765l-10.484,5.243l-9.531,6.195l-9.532,6.672l-9.054,7.148l-8.579,7.625m-410.324,-45.75l-8.101,-0.953l-7.625,2.383l-6.196,4.765l-3.812,7.149l-0.477,8.102l2.383,7.148l4.766,6.195l7.148,3.813m0,-0l8.578,2.859l17.157,7.625l8.102,4.289l7.625,4.766l7.625,5.242l7.148,5.719l7.149,6.196m-0,-0l6.672,4.289l7.625,0.953l7.625,-1.906l6.672,-4.29l3.812,-6.672l1.43,-8.101l-1.906,-7.625l-4.289,-6.196m-0,0l-9.055,-7.625l-9.055,-7.148l-9.055,-6.672l-10.008,-6.195l-10.008,-5.243l-10.484,-4.765l-10.961,-4.289l-10.485,-3.813m1902.45,341.222l4.765,-6.196l1.907,-7.625l-1.43,-8.101l-4.289,-6.196l-6.196,-4.289l-7.625,-1.906l-8.101,0.953l-6.672,4.289m-0,0l-6.672,5.719l-7.149,5.719l-7.625,5.242l-8.101,4.766l-8.102,4.289l-8.102,3.812l-8.578,3.813l-9.055,2.859m0,0l-6.672,3.813l-5.242,6.195l-1.906,7.149l0.476,8.101l3.813,7.149l6.195,4.765l7.625,2.383l7.626,-0.953m-0,0l10.961,-3.812l10.961,-4.289l10.484,-4.766l10.008,-5.242l9.531,-6.196l9.532,-6.672l9.054,-7.148l8.579,-7.625m-197.299,45.75l8.102,0.953l7.148,-2.383l6.195,-4.765l3.813,-7.149l0.953,-8.101l-2.383,-7.149l-4.765,-6.195l-7.149,-3.813m0,0l-8.578,-2.859l-17.156,-7.625l-8.102,-4.289l-7.625,-4.766l-7.625,-5.242l-14.297,-11.438m-0,0l-6.672,-4.289l-7.625,-0.953l-8.102,1.906l-6.195,4.289l-4.289,6.196l-0.953,8.101l1.429,7.625l4.766,6.196m-0,-0l8.578,7.625l9.055,7.148l9.531,6.672l10.008,6.196l10.008,5.242l10.484,4.766l10.485,4.289l10.961,3.812m-138.204,-147.736l3.336,7.149l5.718,5.719l7.149,2.859l8.102,-0.476l7.148,-3.336l5.242,-5.719l2.86,-7.149l-0,-8.101m-0,-0l-1.907,-9.055l-1.429,-9.055l-0.953,-18.109l0.476,-9.532l0.477,-9.054l1.429,-9.055l1.907,-9.055m-0,0l-0,-8.102l-2.86,-7.148l-5.242,-5.719l-7.148,-3.336l-8.102,-0.476l-7.149,2.859l-5.718,5.719l-3.336,7.148m-0,0l-2.383,10.961l-1.43,11.438l-0.953,11.437l-0.477,11.915l0.477,11.437l0.953,11.438l1.43,11.437l2.383,10.961m59.094,-193.486l-4.766,6.196l-1.429,7.625l0.953,8.101l4.289,6.672l6.195,4.29l8.102,1.906l7.625,-0.953l6.672,-4.289m-0,-0l7.148,-6.196l7.149,-5.719l7.625,-5.242l7.625,-4.766l8.102,-4.289l17.156,-7.625l8.578,-2.859m0,-0l7.149,-3.813l4.765,-6.195l2.383,-7.148l-0.953,-8.102l-3.813,-7.149l-6.195,-4.765l-7.148,-2.383l-8.102,0.953m-0,0l-10.961,3.813l-10.485,4.289l-10.484,4.765l-10.008,5.243l-10.008,6.195l-9.531,6.672l-9.055,7.148l-8.578,7.625m884.508,295.472l4.765,-6.196l1.43,-7.625l-0.953,-8.101l-4.289,-6.196l-6.196,-4.289l-8.101,-1.906l-7.625,0.953l-6.672,4.289m-0,0l-14.297,11.438l-7.625,5.242l-7.625,4.766l-8.102,4.289l-17.156,7.625l-8.579,2.859m0,0l-7.148,3.813l-4.766,6.195l-2.383,7.149l0.954,8.101l3.812,7.149l6.195,4.765l7.149,2.383l8.102,-0.953m-0,0l10.961,-3.812l10.484,-4.289l10.485,-4.766l10.007,-5.242l10.008,-6.196l9.532,-6.672l9.054,-7.148l8.579,-7.625m59.094,-193.01l-3.336,-7.148l-5.719,-5.719l-7.148,-2.859l-8.102,0.476l-7.148,3.336l-5.243,5.719l-2.859,7.148l-0,8.102m-0,0l1.906,9.055l1.43,9.055l0.476,9.054l0.477,9.532l-0.953,18.109l-1.43,9.055l-1.906,9.055m-0,-0l-0,8.101l2.859,7.149l5.243,5.719l7.148,3.336l8.102,0.476l7.148,-2.859l5.719,-5.719l3.336,-7.149m-0,0l2.383,-10.961l1.429,-11.437l0.954,-11.438l0.476,-11.437l-0.476,-11.915l-0.954,-11.437l-1.429,-11.438l-2.383,-10.961m-197.299,173.471l24.782,-2.383l24.305,-7.149l21.922,-11.914l19.539,-15.727l16.203,-19.539l11.914,-21.922l7.149,-24.305l2.383,-24.781l-2.383,-25.258l-7.149,-24.305l-11.914,-21.922l-16.203,-19.54l-19.539,-15.726l-21.922,-11.914l-24.305,-7.626l-24.782,-2.382l-25.258,2.382l-23.828,7.626l-22.399,11.914l-19.539,15.726l-15.727,19.54l-11.914,21.922l-7.148,24.305l-2.383,25.258l2.383,24.781l7.148,24.305l11.914,21.922l15.727,19.539l19.539,15.727l22.399,11.914l23.828,7.149l25.258,2.383m-549.004,-321.683l-7.626,-0.953l-7.625,2.383l-6.195,4.765l-3.813,7.149l-0.476,8.102l1.906,7.148l5.242,6.195l6.672,3.813m0,-0l9.055,2.859l8.578,3.813l8.102,3.812l8.102,4.289l8.101,4.766l7.625,5.242l7.149,5.719l6.672,6.196m-0,-0l6.672,4.289l8.101,0.953l7.625,-1.906l6.196,-4.29l4.289,-6.672l1.43,-8.101l-1.907,-7.625l-4.765,-6.196m-0,0l-8.579,-7.625l-9.054,-7.148l-9.532,-6.672l-9.531,-6.195l-10.008,-5.243l-10.484,-4.765l-10.961,-4.289l-10.961,-3.813m-469.419,148.212l-3.336,-7.148l-5.718,-5.719l-7.625,-2.859l-7.626,0.476l-7.148,3.336l-5.719,5.719l-2.383,7.148l0,8.102m0,0l1.907,9.055l1.429,9.055l0.477,9.054l0.476,9.532l-0.953,18.109l-1.429,9.055l-1.907,9.055m0,-0l0,8.101l2.383,7.149l5.719,5.719l7.148,3.336l7.626,0.476l7.625,-2.859l5.718,-5.719l3.336,-7.149m0,0l2.383,-10.961l1.43,-11.437l0.953,-11.438l0.477,-11.437l-0.477,-11.915l-0.953,-11.437l-1.43,-11.438l-2.383,-10.961m410.324,173.471l25.258,-2.383l23.829,-7.149l22.398,-11.914l19.539,-15.727l15.727,-19.539l11.914,-21.922l7.149,-24.305l2.859,-24.781l-2.859,-25.258l-7.149,-24.305l-11.914,-21.922l-15.727,-19.54l-19.539,-15.726l-22.398,-11.914l-23.829,-7.626l-25.258,-2.382l-24.781,2.382l-24.305,7.626l-21.922,11.914l-19.539,15.726l-16.204,19.54l-11.914,21.922l-7.148,24.305l-2.383,25.258l2.383,24.781l7.148,24.305l11.914,21.922l16.204,19.539l19.539,15.727l21.922,11.914l24.305,7.149l24.781,2.383m-469.418,19.539l4.289,-6.196l1.906,-7.625l-0.953,-8.101l-4.289,-6.196l-6.672,-4.289l-7.625,-1.906l-7.625,0.953l-6.672,4.289m0,0l-14.297,11.438l-7.625,5.242l-7.625,4.766l-8.102,4.289l-17.156,7.625l-8.578,2.859m-0,0l-7.149,3.813l-4.765,6.195l-2.383,7.149l0.953,8.101l3.336,7.149l6.195,4.765l7.625,2.383l8.102,-0.953m0,0l10.961,-3.812l10.485,-4.289l10.484,-4.766l10.008,-5.242l10.008,-6.196l9.531,-6.672l9.055,-7.148l8.578,-7.625m-197.299,45.75l7.626,0.953l7.625,-2.383l6.195,-4.765l3.813,-7.149l0.476,-8.101l-2.383,-7.149l-4.765,-6.195l-7.149,-3.813m0,0l-8.578,-2.859l-8.578,-3.813l-8.102,-3.812l-8.102,-4.289l-8.101,-4.766l-7.625,-5.242l-7.149,-5.719l-6.672,-5.719m0,0l-7.148,-4.289l-7.625,-0.953l-7.625,1.906l-6.672,4.289l-3.813,6.196l-1.43,8.101l1.907,7.625l4.289,6.196m-0,-0l9.055,7.625l9.054,7.148l9.055,6.672l10.008,6.196l10.008,5.242l10.484,4.766l10.961,4.289l10.961,3.812m-138.68,-147.736l3.336,7.149l5.718,5.719l7.625,2.859l7.625,-0.476l7.626,-3.336l5.242,-5.719l2.859,-7.149l-0.476,-8.101m-0,-0l-1.907,-9.055l-1.906,-18.11l-0.476,-9.054l0.476,-9.532l1.906,-18.109l1.907,-9.055m-0,0l0.476,-8.102l-2.859,-7.148l-5.242,-5.719l-7.626,-3.336l-7.625,-0.476l-7.625,2.859l-5.718,5.719l-3.336,7.148m-0,0l-1.907,10.961l-1.906,11.438l-0.953,11.437l-0.477,11.915l0.477,11.437l0.953,11.438l1.906,11.437l1.907,10.961m59.094,-193.486l-4.289,6.196l-1.907,7.625l1.43,8.101l3.813,6.672l6.672,4.29l7.625,1.906l7.625,-0.953l7.148,-4.289m0,-0l6.672,-6.196l7.149,-5.719l7.625,-5.242l8.101,-4.766l8.102,-4.289l8.102,-3.812l8.578,-3.813l8.578,-2.859m0,-0l7.149,-3.813l4.765,-6.195l2.383,-7.148l-0.476,-8.102l-3.813,-7.149l-6.195,-4.765l-7.625,-2.383l-7.626,0.953m0,0l-10.961,3.813l-10.961,4.289l-10.484,4.765l-10.008,5.243l-10.008,6.195l-9.055,6.672l-9.054,7.148l-9.055,7.625m197.775,-45.75l-8.102,-0.953l-7.625,2.383l-6.195,4.765l-3.336,7.149l-0.953,8.102l2.383,7.148l4.765,6.195l7.149,3.813m-0,-0l8.578,2.859l17.156,7.625l8.102,4.289l7.625,4.766l7.625,5.242l7.149,5.719l7.148,6.196m0,-0l6.672,4.289l7.625,0.953l7.625,-1.906l6.672,-4.29l4.289,-6.672l0.953,-8.101l-1.906,-7.625l-4.289,-6.196m0,0l-8.578,-7.625l-9.055,-7.148l-9.531,-6.672l-10.008,-6.195l-10.008,-5.243l-10.484,-4.765l-10.485,-4.289l-10.961,-3.813m745.827,148.212l-2.86,-7.148l-5.718,-5.719l-7.625,-2.859l-8.102,0.476l-7.149,3.336l-5.242,5.719l-2.859,7.148l0.476,8.102m0,0l2.86,18.11l0.953,9.054l-0,18.586l-0.953,9.055l-2.86,18.11m0,-0l-0.476,8.101l2.859,7.149l5.242,5.719l7.149,3.336l8.102,0.476l7.625,-2.859l5.718,-5.719l2.86,-7.149m-0,0l2.383,-10.961l1.906,-11.437l0.953,-11.438l0,-23.352l-0.953,-11.437l-1.906,-11.438l-2.383,-10.961m-1413.02,173.471l25.258,-2.383l23.828,-7.149l22.399,-11.914l19.062,-15.727l16.204,-19.539l11.914,-21.922l7.148,-24.305l2.383,-24.781l-2.383,-25.258l-7.148,-24.305l-11.914,-21.922l-16.204,-19.54l-19.062,-15.726l-22.399,-11.914l-23.828,-7.626l-25.258,-2.382l-25.258,2.382l-23.829,7.626l-22.398,11.914l-19.063,15.726l-16.203,19.54l-11.914,21.922l-7.149,24.305l-2.383,25.258l2.383,24.781l7.149,24.305l11.914,21.922l16.203,19.539l19.063,15.727l22.398,11.914l23.829,7.149l25.258,2.383m2490.54,-321.683l-7.625,-0.953l-7.625,2.383l-6.195,4.765l-3.813,7.149l-0.477,8.102l2.383,7.148l4.766,6.195l7.148,3.813m0,-0l8.579,2.859l8.578,3.813l8.102,3.812l8.101,4.289l8.102,4.766l7.625,5.242l7.148,5.719l7.149,6.196m-0,-0l6.672,4.289l7.625,0.953l7.625,-1.906l6.672,-4.29l3.812,-6.672l1.43,-8.101l-1.906,-7.625l-4.289,-6.196m-0,0l-9.055,-7.625l-9.055,-7.148l-9.055,-6.672l-10.007,-6.195l-10.008,-5.243l-10.485,-4.765l-10.961,-4.289l-10.961,-3.813m-197.299,45.75l-4.289,6.196l-1.906,7.625l0.953,8.101l4.289,6.672l6.672,4.29l7.625,1.906l7.625,-0.953l6.672,-4.289m0,-0l7.149,-6.196l7.148,-5.719l7.625,-5.242l7.625,-4.766l8.102,-4.289l17.157,-7.625l8.578,-2.859m-0,-0l7.148,-3.813l4.766,-6.195l2.383,-7.148l-0.953,-8.102l-3.336,-7.149l-6.196,-4.765l-7.625,-2.383l-8.101,0.953m-0,0l-10.961,3.813l-10.485,4.289l-10.484,4.765l-10.008,5.243l-10.008,6.195l-9.532,6.672l-9.054,7.148l-8.579,7.625m-59.094,193.486l3.336,7.149l5.719,5.719l7.625,2.859l7.625,-0.476l7.149,-3.336l5.718,-5.719l2.86,-7.149l-0.477,-8.101m0,-0l-1.906,-9.055l-1.43,-9.055l-0.953,-18.109l0.477,-9.532l0.476,-9.054l1.43,-9.055l1.906,-9.055m0,0l0.477,-8.102l-2.86,-7.148l-5.718,-5.719l-7.149,-3.336l-7.625,-0.476l-7.625,2.859l-5.719,5.719l-3.336,7.148m0,0l-2.383,10.961l-1.429,11.438l-0.953,11.437l-0.477,11.915l0.477,11.437l0.953,11.438l1.429,11.437l2.383,10.961m-2036.85,-91.024l-3.336,-7.148l-5.718,-5.719l-7.149,-2.859l-8.102,0.476l-7.148,3.336l-5.242,5.719l-2.86,7.148l0,8.102m0,0l1.907,9.055l1.429,9.055l0.953,9.054l0,18.586l-0.953,9.055l-1.429,9.055l-1.907,9.055m0,-0l0,8.101l2.86,7.149l5.242,5.719l7.148,3.336l8.102,0.476l7.149,-2.859l5.718,-5.719l3.336,-7.149m0,0l2.383,-10.961l2.86,-22.875l-0,-23.352l-2.86,-22.875l-2.383,-10.961m-59.094,193.01l4.766,-6.196l1.906,-7.625l-1.43,-8.101l-4.289,-6.196l-6.195,-4.289l-7.625,-1.906l-8.102,0.953l-6.672,4.289m0,0l-6.672,5.719l-7.625,5.719l-7.148,5.242l-8.102,4.766l-8.102,4.289l-8.101,3.812l-8.578,3.813l-9.055,2.859m-0,0l-6.672,3.813l-5.242,6.195l-2.383,7.149l0.953,8.101l3.812,7.149l6.196,4.765l7.625,2.383l7.625,-0.953m-0,0l10.961,-3.812l10.484,-4.289l10.485,-4.766l10.484,-5.242l9.532,-6.196l9.531,-6.672l9.055,-7.148l8.578,-7.625m-197.299,45.75l7.625,0.953l7.626,-2.383l6.195,-4.765l3.812,-7.149l0.954,-8.101l-2.383,-7.149l-5.242,-6.195l-6.672,-3.813m-0,0l-9.055,-2.859l-8.578,-3.813l-8.102,-3.812l-8.102,-4.289l-8.101,-4.766l-7.149,-5.242l-7.625,-5.719l-6.672,-5.719m0,0l-6.672,-4.289l-8.101,-0.953l-7.625,1.906l-6.196,4.289l-4.289,6.196l-1.43,8.101l1.907,7.625l4.765,6.196m0,-0l8.579,7.625l9.054,7.148l9.532,6.672l9.531,6.196l10.484,5.242l10.485,4.766l10.484,4.289l10.961,3.812m-138.204,-147.736l3.336,7.149l5.719,5.719l7.148,2.859l8.102,-0.476l7.148,-3.336l5.243,-5.719l2.859,-7.149l0,-8.101m0,-0l-1.906,-9.055l-1.43,-9.055l-0.953,-9.055l0,-18.586l0.953,-9.054l1.43,-9.055l1.906,-9.055m0,0l0,-8.102l-2.859,-7.148l-5.243,-5.719l-7.148,-3.336l-8.102,-0.476l-7.148,2.859l-5.719,5.719l-3.336,7.148m0,0l-2.383,10.961l-1.429,11.438l-0.954,11.437l-0.476,11.915l0.476,11.437l0.954,11.438l1.429,11.437l2.383,10.961m2628.74,82.447l25.258,-2.383l23.828,-7.149l22.399,-11.914l19.539,-15.727l15.727,-19.539l11.914,-21.922l7.625,-24.305l2.383,-24.781l-2.383,-25.258l-7.625,-24.305l-11.914,-21.922l-15.727,-19.54l-19.539,-15.726l-22.399,-11.914l-23.828,-7.626l-25.258,-2.382l-24.782,2.382l-24.305,7.626l-21.922,11.914l-19.539,15.726l-16.203,19.54l-11.438,21.922l-7.625,24.305l-2.383,25.258l2.383,24.781l7.625,24.305l11.438,21.922l16.203,19.539l19.539,15.727l21.922,11.914l24.305,7.149l24.782,2.383m197.775,-173.471l-3.336,-7.148l-5.719,-5.719l-7.625,-2.859l-7.625,0.476l-7.148,3.336l-5.719,5.719l-2.86,7.148l0.477,8.102m-0,0l1.906,9.055l1.906,18.109l0.477,9.532l-0.477,9.054l-1.906,18.11l-1.906,9.055m-0,-0l-0.477,8.101l2.86,7.149l5.719,5.719l7.148,3.336l7.625,0.476l7.625,-2.859l5.719,-5.719l3.336,-7.149m-0,0l1.906,-10.961l1.907,-11.437l0.953,-11.438l0.476,-11.437l-0.476,-11.915l-0.953,-11.437l-1.907,-11.438l-1.906,-10.961m-59.094,193.01l4.289,-6.196l1.906,-7.625l-1.43,-8.101l-3.812,-6.196l-6.672,-4.289l-7.625,-1.906l-7.625,0.953l-6.672,4.289m-0,0l-14.297,11.438l-7.625,5.242l-8.102,4.766l-8.101,4.289l-8.102,3.812l-8.578,3.813l-8.579,2.859m0,0l-7.148,3.813l-4.766,6.195l-2.383,7.149l0.477,8.101l3.813,7.149l6.195,4.765l7.625,2.383l7.625,-0.953m0,0l10.961,-3.812l10.961,-4.289l10.485,-4.766l10.008,-5.242l10.007,-6.196l9.055,-6.672l9.055,-7.148l9.055,-7.625m-197.775,45.75l8.101,0.953l7.625,-2.383l6.196,-4.765l3.336,-7.149l0.953,-8.101l-2.383,-7.149l-4.766,-6.195l-7.148,-3.813m-0,0l-8.578,-2.859l-17.157,-7.625l-8.102,-4.289l-7.625,-4.766l-7.625,-5.242l-14.297,-11.438m0,0l-6.672,-4.289l-7.625,-0.953l-7.625,1.906l-6.672,4.289l-4.289,6.196l-0.953,8.101l1.906,7.625l4.289,6.196m0,-0l8.579,7.625l9.054,7.148l9.532,6.672l10.008,6.196l10.008,5.242l10.484,4.766l10.485,4.289l10.961,3.812m-489.434,-386.972l-8.102,-0.953l-7.149,2.383l-6.195,4.765l-3.812,7.149l-0.954,8.102l2.383,7.148l4.766,6.195l7.148,3.813m0,-0l8.579,2.859l17.156,7.625l8.102,4.289l7.625,4.766l7.625,5.242l7.148,5.719l7.149,6.196m-0,-0l6.672,4.289l7.625,0.953l8.101,-1.906l6.196,-4.29l4.289,-6.672l0.953,-8.101l-1.43,-7.625l-4.765,-6.196m-0,0l-8.579,-7.625l-9.054,-7.148l-9.532,-6.672l-10.008,-6.195l-10.007,-5.243l-10.485,-4.765l-10.484,-4.289l-10.961,-3.813m-197.299,45.75l-4.766,6.196l-1.906,7.625l1.43,8.101l4.289,6.672l6.195,4.29l7.625,1.906l8.102,-0.953l6.672,-4.289m-0,-0l6.672,-6.196l7.148,-5.719l7.625,-5.242l8.102,-4.766l8.102,-4.289l8.101,-3.812l8.578,-3.813l9.055,-2.859m0,-0l6.672,-3.813l5.242,-6.195l1.907,-7.148l-0.477,-8.102l-3.812,-7.149l-6.196,-4.765l-7.625,-2.383l-7.625,0.953m0,0l-10.961,3.813l-10.961,4.289l-10.484,4.765l-10.008,5.243l-9.532,6.195l-9.531,6.672l-9.055,7.148l-8.578,7.625m-59.094,193.486l2.859,7.149l5.719,5.719l7.625,2.859l8.102,-0.476l7.148,-3.336l5.242,-5.719l2.86,-7.149l-0.477,-8.101m0,-0l-2.859,-18.11l-0.953,-9.055l-0,-18.586l0.953,-9.054l2.859,-18.11m0,0l0.477,-8.102l-2.86,-7.148l-5.242,-5.719l-7.148,-3.336l-8.102,-0.476l-7.625,2.859l-5.719,5.719l-2.859,7.148m-0,0l-2.383,10.961l-1.906,11.438l-0.954,11.437l0,23.352l0.954,11.438l1.906,11.437l2.383,10.961m138.204,147.736l7.625,0.953l7.625,-2.383l6.196,-4.765l3.812,-7.149l0.477,-8.101l-1.907,-7.149l-5.242,-6.195l-6.672,-3.813m0,0l-9.055,-2.859l-8.578,-3.813l-8.101,-3.812l-8.102,-4.289l-8.102,-4.766l-7.625,-5.242l-7.148,-5.719l-6.672,-5.719m-0,0l-6.672,-4.289l-8.102,-0.953l-7.625,1.906l-6.195,4.289l-4.289,6.196l-1.43,8.101l1.906,7.625l4.766,6.196m-0,-0l8.578,7.625l9.055,7.148l9.531,6.672l9.532,6.196l10.008,5.242l10.484,4.766l10.961,4.289l10.961,3.812m-1359.64,-767.272l38.126,-2.383l37.648,-7.149l36.22,-11.914l34.789,-16.203l31.93,-20.492l29.547,-24.305l26.211,-27.641l22.399,-30.977l18.586,-33.36l13.82,-35.742l9.532,-37.172l4.765,-37.649l0,-38.125l-4.765,-38.126l-9.532,-36.695l-13.82,-35.743l-18.586,-33.36l-22.399,-30.976l-26.211,-27.641l-29.547,-24.305l-31.93,-20.492l-34.789,-16.204l-36.22,-11.914l-37.648,-7.148l-38.126,-2.383l-38.125,2.383l-37.172,7.148l-36.219,11.914l-34.79,16.204l-31.93,20.492l-29.547,24.305l-26.211,27.641l-22.399,30.976l-18.586,33.36l-13.82,35.743l-9.531,36.695l-4.766,38.126l-0,38.125l4.766,37.649l9.531,37.172l13.82,35.742l18.586,33.36l22.399,30.977l26.211,27.641l29.547,24.305l31.93,20.492l34.79,16.203l36.219,11.914l37.172,7.149l38.125,2.383m373.629,-397.933l-3.336,-7.149l-6.196,-5.242l-7.148,-2.859l-8.102,0.476l-7.148,3.336l-5.243,6.195l-2.382,7.149l-0,8.102m-0,-0l4.765,20.492l3.336,20.969l1.906,21.445l0.477,20.969l-0.477,20.969l-1.906,21.446l-3.336,20.969l-4.765,20.492m-0,0l-0,8.102l2.382,7.148l5.243,6.196l7.148,3.335l8.102,0.477l7.148,-2.859l6.196,-5.243l3.336,-7.148m-0,-0l5.242,-23.352l3.336,-23.352l2.383,-23.351l0.476,-23.829l-0.476,-23.828l-2.383,-23.352l-3.336,-23.352l-5.242,-23.351m-105.322,370.292l4.289,-6.672l1.907,-7.625l-1.43,-7.625l-4.289,-6.672l-6.672,-4.289l-7.625,-1.906l-8.102,1.429l-6.672,4.289m0,0l-15.25,14.297l-16.68,13.344l-17.156,12.391l-18.11,10.961l-18.586,10.008l-19.539,9.055l-19.539,7.625l-20.492,6.195m-0,0l-6.672,3.813l-5.243,5.718l-2.382,7.626l0.476,8.101l3.813,6.672l5.718,5.242l7.626,2.383l8.101,-0.476m0,-0l22.399,-7.149l21.922,-8.578l21.922,-10.008l20.492,-10.961l20.493,-12.867l19.062,-13.344l18.586,-14.774l17.633,-16.203m-373.628,93.884l8.102,0.476l7.625,-2.383l5.719,-5.242l3.812,-6.672l0.477,-8.101l-2.383,-7.626l-5.242,-5.718l-7.149,-3.813m0,0l-20.016,-6.195l-19.539,-7.625l-19.539,-9.055l-18.586,-10.008l-18.11,-10.961l-17.156,-12.391l-16.68,-13.344l-15.727,-14.297m0,0l-6.672,-4.289l-7.625,-1.429l-7.625,1.906l-6.672,4.289l-4.289,6.672l-1.429,7.625l1.906,7.625l4.289,6.672m-0,-0l17.633,16.203l18.586,14.774l19.063,13.344l20.492,12.867l20.492,10.961l21.446,10.008l22.398,8.578l22.399,7.149m-267.83,-276.409l3.336,7.148l5.718,5.243l7.625,2.859l8.102,-0.477l7.149,-3.335l5.242,-6.196l2.383,-7.148l-0.477,-8.102m0,0l-4.289,-20.492l-3.336,-20.969l-1.906,-21.446l-0.477,-20.969l0.477,-20.969l1.906,-21.445l3.336,-20.969l4.289,-20.492m0,-0l0.477,-8.102l-2.383,-7.149l-5.242,-6.195l-7.149,-3.336l-8.102,-0.476l-7.625,2.859l-5.718,5.242l-3.336,7.149m-0,-0l-5.243,23.351l-3.336,23.352l-2.382,23.352l-0.477,23.828l0.477,23.829l2.382,23.351l3.336,23.352l5.243,23.352m105.321,-370.292l-4.289,6.672l-1.906,7.625l1.429,7.625l4.289,6.672l6.672,4.289l7.625,1.906l7.625,-1.43l6.672,-4.289m0,0l15.727,-14.297l16.68,-13.344l17.156,-12.39l18.11,-10.961l18.586,-10.008l19.539,-9.055l19.539,-7.625l20.016,-6.196m0,0l7.149,-3.812l5.242,-5.719l2.383,-7.625l-0.477,-8.102l-3.812,-6.672l-5.719,-5.242l-7.625,-2.383l-8.102,0.477m0,-0l-22.399,7.148l-22.398,8.579l-21.446,10.008l-20.492,10.961l-20.492,12.867l-19.063,13.344l-18.586,14.773l-17.633,16.204m373.628,-93.884l-8.101,-0.477l-7.626,2.383l-5.718,5.242l-3.813,6.672l-0.476,8.102l2.382,7.625l5.243,5.719l6.672,3.812m-0,0l20.492,6.196l19.539,7.625l19.539,9.055l18.586,10.008l18.11,10.961l17.156,12.39l16.68,13.344l15.25,14.297m0,0l6.672,4.289l8.102,1.43l7.625,-1.906l6.672,-4.289l4.289,-6.672l1.43,-7.625l-1.907,-7.625l-4.289,-6.672m0,-0l-17.633,-16.204l-18.586,-14.773l-19.062,-13.344l-20.493,-12.867l-20.492,-10.961l-21.922,-10.008l-21.922,-8.579l-22.399,-7.148m1013.18,-0l-8.102,-0.477l-7.625,2.383l-5.719,5.242l-3.812,6.672l-0.477,8.102l2.383,7.625l5.242,5.719l6.672,3.812m0,0l20.493,6.196l19.539,7.625l19.539,9.055l18.586,10.008l18.11,10.961l17.156,12.39l16.68,13.344l15.25,14.297m0,0l6.672,4.289l8.102,1.43l7.625,-1.906l6.672,-4.289l4.289,-6.672l1.429,-7.625l-1.906,-7.625l-4.289,-6.672m0,-0l-17.633,-16.204l-18.586,-14.773l-19.063,-13.344l-20.492,-12.867l-20.492,-10.961l-21.922,-10.008l-21.922,-8.579l-22.399,-7.148m-2026.36,-0l-8.101,-0.477l-7.625,2.383l-5.719,5.242l-3.813,6.672l-0.476,8.102l2.383,7.625l5.242,5.719l6.672,3.812m-0,0l20.492,6.196l19.539,7.625l19.54,9.055l18.586,10.008l18.109,10.961l17.157,12.39l16.68,13.344l15.25,14.297m-0,0l6.672,4.289l8.101,1.43l7.625,-1.906l6.672,-4.289l4.289,-6.672l1.43,-7.625l-1.906,-7.625l-4.289,-6.672m-0,-0l-17.633,-16.204l-18.586,-14.773l-19.063,-13.344l-20.492,-12.867l-20.493,-10.961l-21.922,-10.008l-21.922,-8.579l-22.399,-7.148m3039.54,-0l-8.102,-0.477l-7.625,2.383l-5.719,5.242l-3.812,6.672l-0.477,8.102l2.383,7.625l5.242,5.719l6.672,3.812m0,0l20.492,6.196l19.54,7.625l19.539,9.055l18.586,10.008l18.109,10.961l17.157,12.39l16.68,13.344l15.25,14.297m-0,0l6.672,4.289l8.101,1.43l7.625,-1.906l6.672,-4.289l4.29,-6.672l1.429,-7.625l-1.906,-7.625l-4.289,-6.672m-0,-0l-17.633,-16.204l-18.586,-14.773l-19.063,-13.344l-20.492,-12.867l-20.493,-10.961l-21.922,-10.008l-21.922,-8.579l-22.398,-7.148m-1118.98,674.342l38.125,-2.383l37.649,-7.149l36.219,-11.914l34.79,-16.203l31.93,-20.492l29.547,-24.305l26.211,-27.641l22.399,-30.977l18.109,-33.36l14.297,-35.742l9.531,-37.172l4.766,-37.649l0,-38.125l-4.766,-38.126l-9.531,-36.695l-14.297,-35.743l-18.109,-33.36l-22.399,-30.976l-26.211,-27.641l-29.547,-24.305l-31.93,-20.492l-34.79,-16.204l-36.219,-11.914l-37.649,-7.148l-38.125,-2.383l-38.125,2.383l-37.172,7.148l-36.22,11.914l-34.789,16.204l-31.93,20.492l-29.547,24.305l-26.211,27.641l-22.399,30.976l-18.586,33.36l-13.82,35.743l-9.532,36.695l-4.765,38.126l-0,38.125l4.765,37.649l9.532,37.172l13.82,35.742l18.586,33.36l22.399,30.977l26.211,27.641l29.547,24.305l31.93,20.492l34.789,16.203l36.22,11.914l37.172,7.149l38.125,2.383m-2026.36,-0l38.125,-2.383l37.649,-7.149l36.219,-11.914l34.789,-16.203l31.93,-20.492l29.547,-24.305l26.211,-27.641l22.399,-30.977l18.586,-33.36l13.821,-35.742l9.531,-37.172l4.766,-37.649l-0,-38.125l-4.766,-38.126l-9.531,-36.695l-13.821,-35.743l-18.586,-33.36l-22.399,-30.976l-26.211,-27.641l-29.547,-24.305l-31.93,-20.492l-34.789,-16.204l-36.219,-11.914l-37.649,-7.148l-38.125,-2.383l-38.126,2.383l-37.172,7.148l-36.219,11.914l-34.789,16.204l-31.93,20.492l-29.547,24.305l-26.212,27.641l-22.398,30.976l-18.586,33.36l-13.821,35.743l-9.531,36.695l-4.766,38.126l0,38.125l4.766,37.649l9.531,37.172l13.821,35.742l18.586,33.36l22.398,30.977l26.212,27.641l29.547,24.305l31.93,20.492l34.789,16.203l36.219,11.914l37.172,7.149l38.126,2.383m3039.54,-0l38.125,-2.383l37.649,-7.149l36.219,-11.914l34.789,-16.203l31.93,-20.492l29.547,-24.305l26.212,-27.641l22.398,-30.977l18.11,-33.36l14.297,-35.742l9.531,-37.172l4.766,-37.649l-0,-38.125l-4.766,-38.126l-9.531,-36.695l-14.297,-35.743l-18.11,-33.36l-22.398,-30.976l-26.212,-27.641l-29.547,-24.305l-31.93,-20.492l-34.789,-16.204l-36.219,-11.914l-37.649,-7.148l-38.125,-2.383l-38.126,2.383l-37.172,7.148l-36.219,11.914l-34.789,16.204l-31.93,20.492l-29.547,24.305l-26.211,27.641l-22.399,30.976l-18.586,33.36l-13.821,35.743l-9.531,36.695l-4.766,38.126l0,38.125l4.766,37.649l9.531,37.172l13.821,35.742l18.586,33.36l22.399,30.977l26.211,27.641l29.547,24.305l31.93,20.492l34.789,16.203l36.219,11.914l37.172,7.149l38.126,2.383m-639.553,-397.933l-3.336,-7.149l-6.195,-5.242l-7.148,-2.859l-8.102,0.476l-7.149,3.336l-5.242,6.195l-2.383,7.149l0,8.102m0,-0l4.766,20.492l3.336,20.969l1.906,21.445l0.477,20.969l-0.477,20.969l-1.906,21.446l-3.336,20.969l-4.766,20.492m0,0l0,8.102l2.383,7.148l5.242,6.196l7.149,3.335l8.102,0.477l7.148,-2.859l6.195,-5.243l3.336,-7.148m0,-0l5.243,-23.352l3.336,-23.352l2.382,-23.351l0.477,-23.829l-0.477,-23.828l-2.382,-23.352l-3.336,-23.352l-5.243,-23.351m-2026.36,-0l-3.336,-7.149l-5.719,-5.242l-7.625,-2.859l-8.102,0.476l-7.148,3.336l-5.242,6.195l-2.383,7.149l-0,8.102m-0,-0l4.766,20.492l3.335,20.969l1.907,21.445l0.476,20.969l-0.476,20.969l-1.907,21.446l-3.335,20.969l-4.766,20.492m-0,0l-0,8.102l2.383,7.148l5.242,6.196l7.148,3.335l8.102,0.477l7.625,-2.859l5.719,-5.243l3.336,-7.148m-0,-0l5.242,-23.352l3.336,-23.352l2.383,-23.351l0.476,-23.829l-0.476,-23.828l-2.383,-23.352l-3.336,-23.352l-5.242,-23.351m3039.54,-0l-3.336,-7.149l-6.195,-5.242l-7.149,-2.859l-8.101,0.476l-7.149,3.336l-5.242,6.195l-2.383,7.149l0,8.102m0,-0l4.766,20.492l3.336,20.969l1.906,21.445l0.477,20.969l-0.477,20.969l-1.906,21.446l-3.336,20.969l-4.766,20.492m0,0l0,8.102l2.383,7.148l5.242,6.196l7.149,3.335l8.101,0.477l7.149,-2.859l6.195,-5.243l3.336,-7.148m0,-0l4.766,-23.352l3.812,-23.352l2.383,-23.351l0.477,-23.829l-0.477,-23.828l-2.383,-23.352l-3.812,-23.352l-4.766,-23.351m-1118.5,370.292l4.289,-6.672l1.906,-7.625l-1.429,-7.625l-4.289,-6.672l-6.672,-4.289l-7.625,-1.906l-8.102,1.429l-6.672,4.289m0,0l-15.25,14.297l-16.68,13.344l-17.156,12.391l-18.11,10.961l-18.586,10.008l-19.539,9.055l-19.539,7.625l-20.493,6.195m0,0l-6.672,3.813l-5.242,5.718l-2.383,7.626l0.477,8.101l3.812,6.672l5.719,5.242l7.625,2.383l8.102,-0.476m-0,-0l22.399,-7.149l21.922,-8.578l21.922,-10.008l20.492,-10.961l20.492,-12.867l19.063,-13.344l18.586,-14.774l17.633,-16.203m-2026.36,-0l4.289,-6.672l1.906,-7.625l-1.43,-7.625l-4.289,-6.672l-6.672,-4.289l-7.625,-1.906l-8.101,1.429l-6.672,4.289m-0,0l-15.25,14.297l-16.68,13.344l-17.157,12.391l-18.109,10.961l-18.586,10.008l-19.54,9.055l-19.539,7.625l-20.492,6.195m-0,0l-6.672,3.813l-5.242,5.718l-2.383,7.626l0.476,8.101l3.813,6.672l5.719,5.242l7.625,2.383l8.101,-0.476m0,-0l22.399,-7.149l21.922,-8.578l21.922,-10.008l20.493,-10.961l20.492,-12.867l19.063,-13.344l18.586,-14.774l17.633,-16.203m3039.54,-0l4.289,-6.672l1.906,-7.625l-1.429,-7.625l-4.29,-6.672l-6.672,-4.289l-7.625,-1.906l-8.101,1.429l-6.672,4.289m-0,0l-15.25,14.297l-16.68,13.344l-17.157,12.391l-18.109,10.961l-18.586,10.008l-19.539,9.055l-19.54,7.625l-20.492,6.195m0,0l-6.672,3.813l-5.242,5.718l-2.383,7.626l0.477,8.101l3.812,6.672l5.719,5.242l7.625,2.383l8.102,-0.476m-0,-0l22.398,-7.149l21.922,-8.578l21.922,-10.008l20.493,-10.961l20.492,-12.867l19.063,-13.344l18.586,-14.774l17.633,-16.203m-1386.81,93.884l8.101,0.476l7.149,-2.383l6.195,-5.242l3.813,-6.672l0.476,-8.101l-2.382,-7.626l-5.243,-5.718l-7.148,-3.813m-0,0l-20.016,-6.195l-19.539,-7.625l-19.539,-9.055l-18.586,-10.008l-18.11,-10.961l-17.156,-12.391l-16.68,-13.344l-15.727,-14.297m0,0l-6.672,-4.289l-7.625,-1.429l-7.625,1.906l-6.672,4.289l-4.289,6.672l-1.43,7.625l1.907,7.625l4.289,6.672m-0,-0l17.633,16.203l18.586,14.774l19.062,13.344l20.016,12.867l20.969,10.961l21.446,10.008l22.398,8.578l22.399,7.149m-2026.36,-0l8.102,0.476l7.625,-2.383l5.719,-5.242l3.812,-6.672l0.477,-8.101l-2.383,-7.626l-5.242,-5.718l-7.149,-3.813m0,0l-20.015,-6.195l-19.54,-7.625l-19.539,-9.055l-18.586,-10.008l-18.109,-10.961l-17.157,-12.391l-16.68,-13.344l-15.726,-14.297m-0,0l-6.672,-4.289l-7.625,-1.429l-7.625,1.906l-6.672,4.289l-4.29,6.672l-1.429,7.625l1.906,7.625l4.289,6.672m0,-0l17.633,16.203l18.586,14.774l19.063,13.344l20.492,12.867l20.493,10.961l21.445,10.008l22.399,8.578l22.398,7.149m3039.54,-0l8.101,0.476l7.149,-2.383l6.195,-5.242l3.813,-6.672l0.476,-8.101l-2.383,-7.626l-5.242,-5.718l-7.148,-3.813m-0,0l-20.016,-6.195l-19.539,-7.625l-19.54,-9.055l-18.586,-10.008l-18.109,-10.961l-17.157,-12.391l-16.68,-13.344l-15.726,-14.297m-0,0l-6.672,-4.289l-7.625,-1.429l-7.625,1.906l-6.672,4.289l-4.289,6.672l-1.43,7.625l1.906,7.625l4.289,6.672m0,-0l17.633,16.203l18.586,14.774l19.063,13.344l20.016,12.867l20.969,10.961l21.445,10.008l22.399,8.578l22.399,7.149m-1281.01,-276.409l3.336,7.148l5.719,5.243l7.625,2.859l8.102,-0.477l7.148,-3.335l5.243,-6.196l2.382,-7.148l-0.476,-8.102m-0,0l-4.289,-20.492l-3.336,-20.969l-1.906,-21.446l-0.477,-20.969l0.477,-20.969l1.906,-21.445l3.336,-20.969l4.289,-20.492m-0,-0l0.476,-8.102l-2.382,-7.149l-5.243,-6.195l-7.148,-3.336l-8.102,-0.476l-7.625,2.859l-5.719,5.242l-3.336,7.149m0,-0l-5.242,23.351l-3.336,23.352l-2.383,23.352l-0.476,23.828l0.476,23.829l2.383,23.351l3.336,23.352l5.242,23.352m-2026.36,-0l3.336,7.148l5.719,5.243l7.625,2.859l8.101,-0.477l7.149,-3.335l5.242,-6.196l2.383,-7.148l-0.477,-8.102m0,0l-4.289,-20.492l-3.336,-20.969l-1.906,-21.446l-0.477,-20.969l0.477,-20.969l1.906,-21.445l3.336,-20.969l4.289,-20.492m0,-0l0.477,-8.102l-2.383,-7.149l-5.242,-6.195l-7.149,-3.336l-8.101,-0.476l-7.625,2.859l-5.719,5.242l-3.336,7.149m-0,-0l-5.242,23.351l-3.336,23.352l-2.383,23.352l-0.477,23.828l0.477,23.829l2.383,23.351l3.336,23.352l5.242,23.352m3039.54,-0l3.336,7.148l5.719,5.243l7.625,2.859l8.102,-0.477l7.148,-3.335l5.242,-6.196l2.383,-7.148l-0.476,-8.102m-0,0l-4.29,-20.492l-3.335,-20.969l-1.907,-21.446l-0.476,-20.969l0.476,-20.969l1.907,-21.445l3.335,-20.969l4.29,-20.492m-0,-0l0.476,-8.102l-2.383,-7.149l-5.242,-6.195l-7.148,-3.336l-8.102,-0.476l-7.625,2.859l-5.719,5.242l-3.336,7.149m0,-0l-5.242,23.351l-3.336,23.352l-2.383,23.352l-0.476,23.828l0.476,23.829l2.383,23.351l3.336,23.352l5.242,23.352m-907.859,-370.292l-4.289,6.672l-1.907,7.625l1.43,7.625l4.289,6.672l6.672,4.289l7.625,1.906l7.625,-1.43l6.672,-4.289m0,0l15.727,-14.297l16.68,-13.344l17.156,-12.39l18.11,-10.961l18.586,-10.008l19.539,-9.055l19.539,-7.625l20.016,-6.196m-0,0l7.148,-3.812l5.243,-5.719l2.382,-7.625l-0.476,-8.102l-3.813,-6.672l-6.195,-5.242l-7.149,-2.383l-8.101,0.477m-0,-0l-22.399,7.148l-22.398,8.579l-21.446,10.008l-20.969,10.961l-20.016,12.867l-19.062,13.344l-18.586,14.773l-17.633,16.204m-2026.36,-0l-4.289,6.672l-1.906,7.625l1.429,7.625l4.29,6.672l6.672,4.289l7.625,1.906l7.625,-1.43l6.672,-4.289m-0,0l15.726,-14.297l16.68,-13.344l17.157,-12.39l18.109,-10.961l18.586,-10.008l19.539,-9.055l19.54,-7.625l20.015,-6.196m0,0l7.149,-3.812l5.242,-5.719l2.383,-7.625l-0.477,-8.102l-3.812,-6.672l-5.719,-5.242l-7.625,-2.383l-8.102,0.477m0,-0l-22.398,7.148l-22.399,8.579l-21.445,10.008l-20.493,10.961l-20.492,12.867l-19.063,13.344l-18.586,14.773l-17.633,16.204m3039.54,-0l-4.289,6.672l-1.906,7.625l1.43,7.625l4.289,6.672l6.672,4.289l7.625,1.906l7.625,-1.43l6.672,-4.289m-0,0l15.726,-14.297l16.68,-13.344l17.157,-12.39l18.109,-10.961l18.586,-10.008l19.54,-9.055l19.539,-7.625l20.016,-6.196m-0,0l7.148,-3.812l5.242,-5.719l2.383,-7.625l-0.476,-8.102l-3.813,-6.672l-6.195,-5.242l-7.149,-2.383l-8.101,0.477m-0,-0l-22.399,7.148l-22.399,8.579l-21.445,10.008l-20.969,10.961l-20.016,12.867l-19.063,13.344l-18.586,14.773l-17.633,16.204m-3413.17,1535.02l14.773,-2.86l12.868,-7.148l10.008,-11.438l4.765,-14.297l0,-15.25l-4.765,-13.82l-10.008,-11.438l-12.868,-7.625l-14.773,-2.859l-14.774,2.859l-12.867,7.625l-10.008,11.438l-4.766,13.82l0,15.25l4.766,14.297l10.008,11.438l12.867,7.148l14.774,2.86m-0,-1755.67l14.773,-2.859l12.868,-7.149l10.008,-11.914l4.765,-13.82l0,-15.25l-4.765,-13.821l-10.008,-11.437l-12.868,-7.625l-14.773,-2.86l-14.774,2.86l-12.867,7.625l-10.008,11.437l-4.766,13.821l0,15.25l4.766,13.82l10.008,11.914l12.867,7.149l14.774,2.859m4322.94,0l14.774,-2.859l12.867,-7.149l9.531,-11.914l5.243,-13.82l-0,-15.25l-5.243,-13.821l-9.531,-11.437l-12.867,-7.625l-14.774,-2.86l-14.773,2.86l-12.868,7.625l-10.008,11.437l-4.765,13.821l-0,15.25l4.765,13.82l10.008,11.914l12.868,7.149l14.773,2.859m0,1755.67l14.774,-2.86l12.867,-7.148l9.531,-11.438l5.243,-14.297l-0,-15.25l-5.243,-13.82l-9.531,-11.438l-12.867,-7.625l-14.774,-2.859l-14.773,2.859l-12.868,7.625l-10.008,11.438l-4.765,13.82l-0,15.25l4.765,14.297l10.008,11.438l12.868,7.148l14.773,2.86" style="fill:none;fill-rule:nonzero;stroke:#000;stroke-width:8.33px;"/></g></g></svg>