<?xml version="1.0" encoding="UTF-8" standalone="no"?>
<!DOCTYPE svg PUBLIC "-//W3C//DTD SVG 1.1//EN" "http://www.w3.org/Graphics/SVG/1.1/DTD/svg11.dtd">
<svg width="100%" height="100%" viewBox="0 0 2093 800" version="1.1" xmlns="http://www.w3.org/2000/svg" xmlns:xlink="http://www.w3.org/1999/xlink" xml:space="preserve" xmlns:serif="http://www.serif.com/" style="fill-rule:evenodd;clip-rule:evenodd;stroke-linecap:round;stroke-linejoin:round;stroke-miterlimit:10;">
    <g transform="matrix(1,0,0,1,-2522.04,-395.255)">
        <g transform="matrix(0.840974,0,0,0.840974,838.834,-1147.77)">
            <g transform="matrix(1,0,0,1,2104.42,2613.53)">
                <path d="M813.1,-389.6L813.1,-389.6" style="fill:none;fill-rule:nonzero;stroke:black;stroke-width:1.12px;"/>
            </g>
            <g transform="matrix(-1,-7.05332e-16,-7.05332e-16,1,3183.6,1592.77)">
                <g transform="matrix(-1.1891,-8.38708e-16,-8.38708e-16,1.1891,1182.1,242.038)">
                    <path d="M897.904,100.475L905.473,85.338L913.041,100.475L897.904,100.475Z"/>
                    <path d="M905.473,135.425L905.473,97.448" style="fill:none;stroke:black;stroke-width:2.52px;stroke-miterlimit:1.5;"/>
                </g>
            </g>
            <g transform="matrix(-1,-7.05332e-16,-7.05332e-16,1,2171.66,1592.77)">
                <g transform="matrix(-1.1891,-8.38708e-16,-8.38708e-16,1.1891,170.168,242.038)">
                    <path d="M46.892,100.475L54.461,85.338L62.03,100.475L46.892,100.475Z"/>
                    <path d="M54.461,135.425L54.461,97.448" style="fill:none;stroke:black;stroke-width:2.52px;stroke-miterlimit:1.5;"/>
                </g>
            </g>
        </g>
        <g transform="matrix(1.8974,0,0,1.8974,2964.25,-701.085)">
            <text x="381.736px" y="775.809px" style="font-family:'OpenSans-Bold', 'Open Sans', sans-serif;font-weight:700;font-size:15.374px;">300B</text>
        </g>
        <g transform="matrix(1.8974,0,0,1.8974,3204.42,-701.085)">
            <text x="381.736px" y="775.809px" style="font-family:'OpenSans-Bold', 'Open Sans', sans-serif;font-weight:700;font-size:15.374px;">300B</text>
        </g>
        <g transform="matrix(1.8974,0,0,1.8974,3444.58,-701.085)">
            <text x="381.736px" y="775.809px" style="font-family:'OpenSans-Bold', 'Open Sans', sans-serif;font-weight:700;font-size:15.374px;">300B</text>
        </g>
        <g transform="matrix(1.8974,0,0,1.8974,3684.75,-701.085)">
            <text x="381.736px" y="775.809px" style="font-family:'OpenSans-Bold', 'Open Sans', sans-serif;font-weight:700;font-size:15.374px;">300B</text>
        </g>
        <g transform="matrix(1.8974,0,0,1.8974,2964.24,-473.978)">
            <text x="377.146px" y="775.809px" style="font-family:'OpenSans-Bold', 'Open Sans', sans-serif;font-weight:700;font-size:15.374px;">12AT7</text>
            <text x="377.187px" y="791.183px" style="font-family:'OpenSans-Bold', 'Open Sans', sans-serif;font-weight:700;font-size:15.374px;">ECC81</text>
        </g>
        <g transform="matrix(1.8974,0,0,1.8974,3108.39,-473.978)">
            <text x="377.146px" y="775.809px" style="font-family:'OpenSans-Bold', 'Open Sans', sans-serif;font-weight:700;font-size:15.374px;">12AT7</text>
            <text x="377.187px" y="791.183px" style="font-family:'OpenSans-Bold', 'Open Sans', sans-serif;font-weight:700;font-size:15.374px;">ECC81</text>
        </g>
        <g transform="matrix(1.8974,0,0,1.8974,3252.42,-473.978)">
            <text x="376.47px" y="775.809px" style="font-family:'OpenSans-Bold', 'Open Sans', sans-serif;font-weight:700;font-size:15.374px;">12AX7</text>
            <text x="377.187px" y="791.183px" style="font-family:'OpenSans-Bold', 'Open Sans', sans-serif;font-weight:700;font-size:15.374px;">ECC83</text>
        </g>
        <g transform="matrix(1.8974,0,0,1.8974,3396.45,-473.978)">
            <text x="376.47px" y="775.809px" style="font-family:'OpenSans-Bold', 'Open Sans', sans-serif;font-weight:700;font-size:15.374px;">12AX7</text>
            <text x="377.187px" y="791.183px" style="font-family:'OpenSans-Bold', 'Open Sans', sans-serif;font-weight:700;font-size:15.374px;">ECC83</text>
        </g>
        <g transform="matrix(1.8974,0,0,1.8974,3540.48,-473.978)">
            <text x="377.146px" y="775.809px" style="font-family:'OpenSans-Bold', 'Open Sans', sans-serif;font-weight:700;font-size:15.374px;">12AT7</text>
            <text x="377.187px" y="791.183px" style="font-family:'OpenSans-Bold', 'Open Sans', sans-serif;font-weight:700;font-size:15.374px;">ECC81</text>
        </g>
        <g transform="matrix(1.8974,0,0,1.8974,3684.74,-473.978)">
            <text x="377.146px" y="775.809px" style="font-family:'OpenSans-Bold', 'Open Sans', sans-serif;font-weight:700;font-size:15.374px;">12AT7</text>
            <text x="377.187px" y="791.183px" style="font-family:'OpenSans-Bold', 'Open Sans', sans-serif;font-weight:700;font-size:15.374px;">ECC81</text>
        </g>
        <g transform="matrix(1,0,0,1,2362.2,0)">
            <clipPath id="_clip1">
                <rect x="0" y="0" width="2362.2" height="1417.32"/>
            </clipPath>
            <g clip-path="url(#_clip1)">
                <g id="Réteg-3" serif:id="Réteg 3">
                </g>
                <g id="Réteg-1" serif:id="Réteg 1">
                </g>
            </g>
        </g>
        <g transform="matrix(0.796132,0,0,0.796132,3352.9,401.325)">
            <path d="M0,989.3L0,958.1M-113.4,958.1L-113.4,989.3M-113.4,989.3L-110.5,992.2M-2.8,992.2L0,989.3M-106.6,992.2L-106.6,996.4M-6.8,996.4L-6.8,992.2M-881.5,989.3L-878.7,992.2M-771,992.2L-768.2,989.3M-768.2,989.3L-768.2,958.1M-881.5,958.1L-881.5,989.3M-874.7,992.2L-874.7,996.4M-775,996.4L-775,992.2M-1036.7,903.3L-1036.7,906.1M155.2,906.1L155.2,903.3M-59.5,795.6L-184.2,795.6M-59.5,849.5L-59.5,795.6M-184.2,849.5L-59.5,849.5M-184.2,795.6L-184.2,849.5M-694.9,828.4L-694.3,827.8M-694.3,827.8L-693.8,827.2M-693.8,827.2L-693.5,826.5M-693.5,826.5L-693.3,825.7M-693.3,825.7L-693.2,824.9M-693.2,824.9L-693.4,824.2M-693.4,824.2L-693.9,823.4M-693.9,823.4L-694.6,822.8M-694.6,822.8L-695.4,822.4M-695.4,822.4L-696.3,822.2M-696.3,822.2L-697.1,822.3M-697.1,822.3L-697.9,822.7M-697.9,822.7L-698.4,823.2M-698.4,823.2L-698.6,824.1M-698.6,824.1L-698.5,825.1M-698.5,825.1L-698.5,825.6M-698.5,825.6L-698.6,826.1M-698.6,826.1L-699.2,826.9M-699.2,826.9L-700.1,827.4M-700.1,827.4L-701.1,827.5M-701.1,827.5L-701.1,827.6M-701.1,827.6L-700.5,828.1M-700.5,828.1L-699.9,828.6M-699.9,828.6L-698.5,829.2M-698.5,829.2L-697.8,829.3M-697.8,829.3L-697,829.3M-697,829.3L-696.3,829.1M-696.3,829.1L-695.5,828.8M-695.5,828.8L-694.9,828.4M-756.9,807.6L-756.3,806.4M-756.3,806.4L-756.1,805.7M-756.1,805.7L-756.1,805.1M-756.1,805.1L-756.2,804.5M-756.2,804.5L-756.6,803.9M-756.6,803.9L-756.9,803.7M-756.9,803.7L-757.2,803.7M-757.2,803.7L-758.1,804M-758.1,804L-759.1,804.7M-759.1,804.7L-760.1,805.7M-760.1,805.7L-762,807.9M-762,807.9L-763.2,809.3M-763.2,809.3L-764.2,810.6M-764.2,810.6L-765,812M-765,812L-766.3,814.9M-766.3,814.9L-761.6,811.8M-761.6,811.8L-759.5,810.3M-759.5,810.3L-758.5,809.5M-758.5,809.5L-757.6,808.6M-757.6,808.6L-756.9,807.6M-792.7,823.1L-792.9,822.3M-792.9,822.3L-793.3,821.7M-793.3,821.7L-793.8,821.4M-793.8,821.4L-794.5,821.4M-794.5,821.4L-795.1,821.7M-795.1,821.7L-795.6,822.4M-795.6,822.4L-796,823.2M-796,823.2L-796.1,824.1M-796.1,824.1L-795.9,824.9M-795.9,824.9L-795.6,825.5M-795.6,825.5L-795,825.8M-795,825.8L-794.3,825.8M-794.3,825.8L-793.7,825.5M-793.7,825.5L-793.2,824.9M-793.2,824.9L-792.8,824M-792.8,824L-792.7,823.1M-845.1,823.4L-843.5,822.6M-843.5,822.6L-842.6,821.7M-842.6,821.7L-842.4,821.3M-842.4,821.3L-842.4,820.9M-842.4,820.9L-842.5,820.6M-842.5,820.6L-842.9,820.3M-842.9,820.3L-844.2,820M-844.2,820L-845.9,820.1M-845.9,820.1L-847.9,820.4M-847.9,820.4L-849.9,821M-849.9,821L-851.4,821.8M-851.4,821.8L-852.3,822.7M-852.3,822.7L-852.5,823.1M-852.5,823.1L-852.6,823.5M-852.6,823.5L-852.4,823.8M-852.4,823.8L-852,824.1M-852,824.1L-850.8,824.4M-850.8,824.4L-849,824.4M-849,824.4L-847,824M-847,824L-845.1,823.4M-665,824.3L-665.5,824.8M-664.3,824.2L-665,824.3M-663.6,824.4L-664.3,824.2M-662.9,824.8L-663.6,824.4M-662.4,825.4L-662.9,824.8M-662.1,826.1L-662.4,825.4M-662.1,826.8L-662.1,826.1M-662.4,827.6L-662.1,826.8M-663.8,829.1L-662.4,827.6M-665.3,830.6L-663.8,829.1M-667.1,831.9L-665.3,830.6M-669,833L-667.1,831.9M-671,833.8L-669,833M-673.1,834.3L-671,833.8M-675.2,834.5L-673.1,834.3M-677.3,834.3L-675.2,834.5M-680.8,832.9L-679.1,833.8M-682.2,831.7L-680.8,832.9M-683.3,830.2L-682.2,831.7M-683.7,829.2L-683.3,830.2M-684.3,828.2L-683.7,829.2M-684.7,827.9L-684.3,828.2M-685.1,827.8L-684.7,827.9M-685.6,827.9L-685.1,827.8M-686.1,828.4L-685.6,827.9M-686.8,829.3L-686.1,828.4M-687.3,830.2L-686.8,829.3M-687.9,832.4L-687.3,830.2M-688,832.8L-687.9,832.4M-688.4,833.1L-688,832.8M-688.8,833.3L-688.4,833.1M-689.3,833.3L-688.8,833.3M-690,833.1L-689.3,833.3M-690.7,832.9L-690,833.1M-691.1,832.4L-690.7,832.9M-691.4,831.8L-691.1,832.4M-691.4,831.2L-691.4,831.8M-691.2,829.6L-691.4,831.2M-691.8,830.4L-691.2,829.6M-692.6,831.1L-691.8,830.4M-693.5,831.6L-692.6,831.1M-694.5,832L-693.5,831.6M-696.5,832.5L-694.5,832M-698.4,832.6L-696.5,832.5M-699.6,832.6L-698.4,832.6M-700.6,832.3L-699.6,832.6M-701.6,832L-700.6,832.3M-702.6,831.5L-701.6,832M-703.4,830.9L-702.6,831.5M-704.2,830.1L-703.4,830.9M-704.8,829.3L-704.2,830.1M-705.4,828.3L-704.8,829.3M-705.9,826.5L-705.4,828.3M-706.4,824.3L-705.9,826.5M-707,822.3L-706.4,824.3M-707.5,821.5L-707,822.3M-708.1,820.9L-707.5,821.5M-709.5,820.2L-708.1,820.9M-711.1,819.9L-709.5,820.2M-714.2,819.6L-711.1,819.9M-717.2,819.5L-714.2,819.6M-720.2,819.4L-717.2,819.5M-726,819.4L-720.2,819.4M-731.8,819.6L-726,819.4M-739.9,836.8L-739.3,836.4M-740.6,836.9L-739.9,836.8M-741.3,836.8L-740.6,836.9M-741.7,836.6L-741.3,836.8M-742.3,836.2L-741.7,836.6M-742.7,835.6L-742.3,836.2M-742.8,834.9L-742.7,835.6M-742.7,834.2L-742.8,834.9M-737.8,822.9L-742.7,834.2M-742.9,826.5L-737.8,822.9M-744.2,827.3L-742.9,826.5M-745.5,828L-744.2,827.3M-747,828.5L-745.5,828M-748.4,828.8L-747,828.5M-750,828.8L-748.4,828.8M-751.6,828.5L-750,828.8M-752.9,827.8L-751.6,828.5M-754.1,826.7L-752.9,827.8M-754.7,825.7L-754.1,826.7M-755.2,824.5L-754.7,825.7M-755.6,825L-755.2,824.5M-757.3,826.5L-755.6,825M-759.2,827.7L-757.3,826.5M-761,828.7L-759.2,827.7M-763,829.3L-761,828.7M-764.1,829.4L-763,829.3M-765.1,829.4L-764.1,829.4M-766.1,829.1L-765.1,829.4M-767.1,828.7L-766.1,829.1M-768.7,827.5L-767.1,828.7M-769.9,826.1L-768.7,827.5M-770.9,824.4L-769.9,826.1M-771.5,822.5L-770.9,824.4M-771.6,820.9L-771.5,822.5M-771.5,819.4L-771.6,820.9M-774.1,821.7L-771.5,819.4M-776.9,824L-774.1,821.7M-779.9,826.1L-776.9,824M-781.4,827L-779.9,826.1M-783,827.8L-781.4,827M-785.1,828.5L-783,827.8M-787.4,829L-785.1,828.5M-788.6,829.1L-787.4,829M-789.7,829.1L-788.6,829.1M-790.7,828.8L-789.7,829.1M-791.5,828.3L-790.7,828.8M-792.8,828.8L-791.5,828.3M-794.3,828.9L-792.8,828.8M-795.7,828.7L-794.3,828.9M-797.2,828L-795.7,828.7M-797.9,827.5L-797.2,828M-798.5,826.9L-797.9,827.5M-799,826.2L-798.5,826.9M-799.3,825.5L-799,826.2M-800.4,826.1L-799.3,825.5M-801.4,826.5L-800.4,826.1M-802.8,826.6L-801.4,826.5M-804.1,826.6L-802.8,826.6M-805.4,826.2L-804.1,826.6M-806.6,825.5L-805.4,826.2M-807.6,824.6L-806.6,825.5M-808.4,823.5L-807.6,824.6M-809.1,822.3L-808.4,823.5M-809.9,821.2L-809.1,822.3M-810.5,821.4L-809.9,821.2M-812.7,822.7L-810.5,821.4M-817.3,825.9L-812.7,822.7M-819.2,827L-817.3,825.9M-821.2,827.7L-819.2,827M-822.3,827.8L-821.2,827.7M-823.3,827.8L-822.3,827.8M-824.4,827.7L-823.3,827.8M-825.5,827.3L-824.4,827.7M-826.4,826.7L-825.5,827.3M-826.9,826.1L-826.4,826.7M-827.2,825.2L-826.9,826.1M-827.3,824.4L-827.2,825.2M-827.2,822.4L-827.3,824.4M-827,820.6L-827.2,822.4M-827.1,819L-827,820.6M-827.8,819.6L-827.1,819M-830.5,822.4L-827.8,819.6M-833,825.3L-830.5,822.4M-835.8,829L-833,825.3M-838.5,832.8L-835.8,829M-845.6,849L-844.3,844.9M-848.2,857.1L-845.6,849M-848.4,857.4L-848.2,857.1M-848.9,857.5L-848.4,857.4M-850.3,857.4L-848.9,857.5M-851.6,856.9L-850.3,857.4M-852.1,856.6L-851.6,856.9M-843.6,826.7L-852.2,856.1M-844.8,827.1L-843.6,826.7M-846,827.4L-844.8,827.1M-848.2,827.6L-846,827.4M-849.8,827.7L-848.2,827.6M-851.5,827.6L-849.8,827.7M-853.1,827.2L-851.5,827.6M-854.6,826.5L-853.1,827.2M-855.4,825.8L-854.6,826.5M-856.1,824.9L-855.4,825.8M-856.6,823.9L-856.1,824.9M-856.7,823.4L-856.6,823.9M-856.6,822.8L-856.7,823.4M-856.1,821.7L-856.6,822.8M-855.5,820.7L-856.1,821.7M-854.6,819.8L-855.5,820.7M-853.6,819L-854.6,819.8M-852.5,818.4L-853.6,819M-851.4,817.9L-852.5,818.4M-849.1,817.2L-851.4,817.9M-847.1,816.9L-849.1,817.2M-845.1,816.9L-847.1,816.9M-843.2,817.1L-845.1,816.9M-841.3,817.5L-843.2,817.1M-841.1,816.8L-841.3,817.5M-840.8,816.5L-841.1,816.8M-840.4,816.5L-840.8,816.5M-839.8,816.7L-840.4,816.5M-839.2,817.1L-839.8,816.7M-838.1,818.1L-839.2,817.1M-837.9,818.7L-838.1,818.1M-837.8,819.2L-837.9,818.7M-838.2,820.4L-837.8,819.2M-838.8,822.7L-838.2,820.4M-840.8,829.3L-838.8,822.7M-838.6,826.3L-840.8,829.3M-836.3,823.4L-838.6,826.3M-833.7,820.3L-836.3,823.4M-832.3,818.8L-833.7,820.3M-830.7,817.6L-832.3,818.8M-829.7,817.2L-830.7,817.6M-828.6,816.9L-829.7,817.2M-827.4,816.8L-828.6,816.9M-826.2,817L-827.4,816.8M-825.1,817.3L-826.2,817M-824.1,817.9L-825.1,817.3M-823.4,818.8L-824.1,817.9M-823.1,819.9L-823.4,818.8M-823,821.1L-823.1,819.9M-823,822.2L-823,821.1M-823.2,824.5L-823,822.2M-823.3,825.8L-823.2,824.5M-821.2,824.7L-823.3,825.8M-819,823.2L-821.2,824.7M-816.8,821.7L-819,823.2M-814.4,820.3L-816.8,821.7M-813.2,819.8L-814.4,820.3M-812.1,819.5L-813.2,819.8M-810.9,819.3L-812.1,819.5M-809.8,819.3L-810.9,819.3M-808.7,819.6L-809.8,819.3M-807.6,820.1L-808.7,819.6M-806.6,821L-807.6,820.1M-805.6,822.2L-806.6,821M-804.8,823.4L-805.6,822.2M-804,824.6L-804.8,823.4M-803.4,824.3L-804,824.6M-801.9,823.2L-803.4,824.3M-800.7,822.2L-801.9,823.2M-799.5,820.9L-800.7,822.2M-798.1,819.8L-799.5,820.9M-797.4,819.4L-798.1,819.8M-796.7,819.2L-797.4,819.4M-795.2,819L-796.7,819.2M-793.7,819.1L-795.2,819M-792.2,819.5L-793.7,819.1M-790.8,820.1L-792.2,819.5M-789.7,821L-790.8,820.1M-788.8,822.2L-789.7,821M-788.6,822.8L-788.8,822.2M-788.4,823.5L-788.6,822.8M-788.4,824.3L-788.4,823.5M-788.6,825L-788.4,824.3M-788.6,825.3L-788.6,825M-788.3,826.1L-788.6,825.3M-787.7,826.7L-788.3,826.1M-786.9,826.9L-787.7,826.7M-786,826.9L-786.9,826.9M-785.1,826.7L-786,826.9M-784.1,826.4L-785.1,826.7M-782.3,825.6L-784.1,826.4M-780.8,824.7L-782.3,825.6M-779.3,823.7L-780.8,824.7M-776.5,821.3L-779.3,823.7M-773.7,818.7L-776.5,821.3M-771.1,816.3L-773.7,818.7M-770.1,813.7L-771.1,816.3M-768.9,811.4L-770.1,813.7M-767.5,809.1L-768.9,811.4M-765.8,807L-767.5,809.1M-763.6,804.8L-765.8,807M-762.5,804L-763.6,804.8M-761.3,803.3L-762.5,804M-760,802.8L-761.3,803.3M-758.6,802.5L-760,802.8M-757.2,802.4L-758.6,802.5M-755.6,802.5L-757.2,802.4M-754.5,802.8L-755.6,802.5M-753.4,803.3L-754.5,802.8M-752.5,804L-753.4,803.3M-752.2,804.4L-752.5,804M-752.1,805L-752.2,804.4M-752,805.7L-752.1,805M-752.1,806.4L-752,805.7M-752.6,807.8L-752.1,806.4M-753.5,809L-752.6,807.8M-754.5,810L-753.5,809M-756,811.3L-754.5,810M-757.6,812.5L-756,811.3M-760.9,814.7L-757.6,812.5M-764.4,816.8L-760.9,814.7M-767.7,819L-764.4,816.8M-768,819.1L-767.7,819M-768.3,820.3L-768,819.1M-768.5,821.6L-768.3,820.3M-768.4,822.8L-768.5,821.6M-768,824L-768.4,822.8M-767.4,824.8L-768,824M-766.7,825.3L-767.4,824.8M-765.8,825.5L-766.7,825.3M-764.9,825.5L-765.8,825.5M-763.9,825.3L-764.9,825.5M-762.9,825L-763.9,825.3M-761.3,824.2L-762.9,825M-759.8,823L-761.3,824.2M-758.4,821.8L-759.8,823M-755.8,819.1L-758.4,821.8M-754.9,818.4L-755.8,819.1M-754,818.1L-754.9,818.4M-753.1,818.3L-754,818.1M-752.2,819L-753.1,818.3M-751.7,819.7L-752.2,819M-751.5,820.4L-751.7,819.7M-751.4,821.9L-751.5,820.4M-751.9,823.4L-751.4,821.9M-752.1,824.2L-751.9,823.4M-752.1,824.7L-752.1,824.2M-751.7,825L-752.1,824.7M-751.2,825.1L-751.7,825M-749.9,825.1L-751.2,825.1M-748.6,824.7L-749.9,825.1M-747.6,824.4L-748.6,824.7M-745.9,823.6L-747.6,824.4M-744.3,822.6L-745.9,823.6M-741.1,820.4L-744.3,822.6M-744.3,820.7L-741.1,820.4M-745.2,820.6L-744.3,820.7M-745.8,820.2L-745.2,820.6M-746.4,819.6L-745.8,820.2M-746.7,818.9L-746.4,819.6M-746.7,818.1L-746.7,818.9M-746.6,817.5L-746.7,818.1M-746.1,817L-746.6,817.5M-745.3,816.7L-746.1,817M-740,816.3L-745.3,816.7M-734.8,816.1L-740,816.3M-732.2,810.1L-734.8,816.1M-731.6,809.2L-732.2,810.1M-730.7,808.6L-731.6,809.2M-729.6,808.4L-730.7,808.6M-728.5,808.6L-729.6,808.4M-728.1,809L-728.5,808.6M-727.8,809.4L-728.1,809M-727.7,809.9L-727.8,809.4M-727.8,810.5L-727.7,809.9M-730.3,816.2L-727.8,810.5M-722.4,816L-730.3,816.2M-718.5,816.1L-722.4,816M-714.6,816.3L-718.5,816.1M-711.2,816.6L-714.6,816.3M-709.4,816.8L-711.2,816.6M-707.8,817.1L-709.4,816.8M-706.2,817.7L-707.8,817.1M-704.9,818.6L-706.2,817.7M-703.8,819.8L-704.9,818.6M-703.4,820.6L-703.8,819.8M-703,821.5L-703.4,820.6M-702.6,823.5L-703,821.5M-702.1,822.1L-702.6,823.5M-701.2,820.8L-702.1,822.1M-700.1,819.9L-701.2,820.8M-698.5,819.3L-700.1,819.9M-696.2,818.9L-698.5,819.3M-695,819L-696.2,818.9M-693.8,819.1L-695,819M-692.8,819.5L-693.8,819.1M-691.7,820L-692.8,819.5M-690.9,820.8L-691.7,820M-690.1,821.8L-690.9,820.8M-690,821.9L-690.1,821.8M-689.8,819.9L-690,821.9M-689.6,819.6L-689.8,819.9M-689.3,819.5L-689.6,819.6M-688.9,819.8L-689.3,819.5M-688.4,820.3L-688.9,819.8M-687.5,821.5L-688.4,820.3M-687.3,822.1L-687.5,821.5M-687.2,822.6L-687.3,822.1M-687.4,824.4L-687.2,822.6M-686.4,824.1L-687.4,824.4M-685.4,824L-686.4,824.1M-684.5,824.1L-685.4,824M-683.6,824.4L-684.5,824.1M-682.7,824.9L-683.6,824.4M-682,825.6L-682.7,824.9M-681.3,826.4L-682,825.6M-680.8,827.2L-681.3,826.4M-679.7,829.2L-680.8,827.2M-679,830L-679.7,829.2M-678,830.5L-679,830M-676.1,830.7L-678,830.5M-674.1,830.5L-676.1,830.7M-671.6,829.7L-674.1,830.5M-669.3,828.4L-671.6,829.7M-667.3,826.8L-669.3,828.4M-665.5,824.8L-667.3,826.8M-689.9,828.2L-689.3,828.1L-688.7,827.7L-688.4,827.2L-688.2,826.5L-688.4,825.9L-688.7,825.3L-689.3,825L-689.9,824.8L-690.6,825L-691.1,825.3L-691.5,825.9L-691.6,826.5L-691.5,827.2L-691.1,827.7L-690.6,828.1L-689.9,828.2M-736.3,821.4L-735.7,821.3L-735.1,820.9L-734.8,820.4L-734.6,819.7L-734.8,819.1L-735.1,818.5L-735.7,818.1L-736.3,818L-737,818.1L-737.5,818.5L-737.9,819.1L-738,819.7L-737.9,820.4L-737.5,820.9L-737,821.3L-736.3,821.4M-841.9,834.1L-841.3,833.9L-840.7,833.6L-840.3,833L-840.2,832.4L-840.3,831.7L-840.7,831.2L-841.3,830.8L-841.9,830.7L-842.6,830.8L-843.1,831.2L-843.5,831.7L-843.6,832.4L-843.5,833L-843.1,833.6L-842.6,833.9L-841.9,834.1M-852.2,856.1L-852.2,856.2M-739.3,836.4L-738.9,835.8M-842.7,841L-840.8,836.8M-844.3,844.9L-842.7,841M-679.1,833.8L-677.3,834.3M-852.2,856.2L-852.1,856.6M-738.9,835.8L-731.8,819.6M-840.8,836.8L-838.5,832.8M-13.7,989.3L0,989.3M-113.4,989.3L-13.7,989.3M-15.8,992.2L-110.5,992.2M-2.8,992.2L-15.8,992.2M-6.8,996.4L-106.6,996.4M-781.9,989.3L-768.2,989.3M-881.5,989.3L-781.9,989.3M-784,992.2L-878.7,992.2M-771,992.2L-784,992.2M-775,996.4L-874.7,996.4M-440.8,866.5L-434.1,866L-427.5,864.4L-421.3,861.9L-415.5,858.5L-410.3,854.2L-405.8,849.2L-402.2,843.5L-399.4,837.4L-397.6,830.9L-396.9,824.2L-397.1,817.5L-398.4,810.9L-400.7,804.6L-403.9,798.7L-408,793.3L-412.8,788.6L-418.3,784.8L-424.3,781.8L-430.7,779.8L-437.4,778.7L-444.1,778.7L-450.8,779.8L-457.2,781.8L-463.2,784.8L-468.7,788.6L-473.6,793.3L-477.6,798.7L-480.9,804.6L-483.1,810.9L-484.4,817.5L-484.7,824.2L-483.9,830.9L-482.1,837.4L-479.4,843.5L-475.7,849.2L-471.2,854.2L-466,858.5L-460.3,861.9L-454,864.4L-447.5,866L-440.8,866.5M-440.8,869.3L-447.6,868.8L-454.2,867.3L-460.6,864.9L-466.6,861.6L-472,857.4L-476.7,852.5L-480.7,846.9L-483.8,840.8L-486,834.4L-487.2,827.7L-487.5,820.8L-486.8,814L-485,807.4L-482.4,801.2L-478.8,795.3L-474.4,790.1L-469.3,785.5L-463.6,781.8L-457.5,778.9L-450.9,776.9L-444.2,775.9L-437.3,775.9L-430.6,776.9L-424.1,778.9L-417.9,781.8L-412.2,785.5L-407.1,790.1L-402.7,795.3L-399.2,801.2L-396.5,807.4L-394.8,814L-394,820.8L-394.3,827.7L-395.5,834.4L-397.7,840.8L-400.8,846.9L-404.8,852.5L-409.5,857.4L-415,861.6L-420.9,864.9L-427.3,867.3L-433.9,868.8L-440.8,869.3M-440.8,879.2L-433.2,878.7L-425.8,877.2L-418.6,874.7L-411.9,871.3L-405.6,867L-400,862L-395.1,856.2L-391,849.8L-387.9,842.9L-385.6,835.7L-384.4,828.2L-384.1,820.6L-384.9,813.1L-386.6,805.7L-389.3,798.7L-393,792L-397.5,785.9L-402.7,780.5L-408.7,775.8L-415.2,771.9L-422.2,769L-429.5,767L-437,766L-444.5,766L-452.1,767L-459.4,769L-466.3,771.9L-472.8,775.8L-478.8,780.5L-484.1,785.9L-488.5,792L-492.2,798.7L-494.9,805.7L-496.7,813.1L-497.4,820.6L-497.2,828.2L-495.9,835.7L-493.7,842.9L-490.5,849.8L-486.4,856.2L-481.5,862L-475.9,867L-469.7,871.3L-462.9,874.7L-455.7,877.2L-448.3,878.7L-440.8,879.2M-936.8,398L-936.8,407.1M55.3,398L46.2,398M-927.8,398L-936.8,398M55.3,398L55.3,407.1M-690.2,828.2L-691.4,825.7M-79.3,794.2L-79.3,795.6M-79.3,849.5L-79.3,850.9M-119,850.9L-119,849.5M-119,795.6L-119,794.2M-119,794.2L-119,795.6M-119,849.5L-119,850.9M-158.7,850.9L-158.7,849.5M-158.7,795.6L-158.7,794.2M-158.7,794.2L-158.7,795.6M-158.7,849.5L-158.7,850.9M-79.3,850.9L-79.3,849.5M-79.3,795.6L-79.3,794.2M-840.9,831L-840.9,833.7M-936.8,309.8L-932.4,309.8M-936.8,1.9L-936.8,309.8M-932.4,1.9L-936.8,1.9M-932.4,1.9L50.9,1.9M50.9,1.9L55.3,1.9M55.3,1.9L55.3,309.8M55.3,309.8L50.9,309.8M-932.4,309.8L50.9,309.8M-471.9,151.6L-473.6,151.9L-474.9,152.9L-475.9,154.2L-476.2,155.9L-475.9,157.5L-474.9,158.9L-473.6,159.8L-471.9,160.1M-471.9,160.1L-409.6,160.1M-409.6,160.1L-408,159.8L-406.6,158.9L-405.6,157.5L-405.3,155.9L-405.6,154.2L-406.6,152.9L-408,151.9L-409.6,151.6M-409.6,151.6L-471.9,151.6M-471.9,134.6L-473.6,134.9L-474.9,135.9L-475.9,137.2L-476.2,138.9L-475.9,140.5L-474.9,141.9L-473.6,142.8L-471.9,143.1M-471.9,143.1L-409.6,143.1M-409.6,143.1L-408,142.8L-406.6,141.9L-405.6,140.5L-405.3,138.9L-405.6,137.2L-406.6,135.9L-408,134.9L-409.6,134.6M-409.6,134.6L-471.9,134.6M-471.9,253.7L-473.6,254L-474.9,254.9L-475.9,256.3L-476.2,257.9L-475.9,259.5L-474.9,260.9L-473.6,261.8L-471.9,262.2M-471.9,262.2L-409.6,262.2M-409.6,262.2L-408,261.8L-406.6,260.9L-405.6,259.5L-405.3,257.9L-405.6,256.3L-406.6,254.9L-408,254L-409.6,253.7M-409.6,253.7L-471.9,253.7M-471.9,236.7L-473.6,237L-474.9,237.9L-475.9,239.3L-476.2,240.9L-475.9,242.5L-474.9,243.9L-473.6,244.8L-471.9,245.2M-471.9,245.2L-409.6,245.2M-409.6,245.2L-408,244.8L-406.6,243.9L-405.6,242.5L-405.3,240.9L-405.6,239.3L-406.6,237.9L-408,237L-409.6,236.7M-409.6,236.7L-471.9,236.7M-471.9,270.7L-473.6,271L-474.9,271.9L-475.9,273.3L-476.2,274.9L-475.9,276.5L-474.9,277.9L-473.6,278.8L-471.9,279.2M-471.9,279.2L-409.6,279.2M-409.6,279.2L-408,278.8L-406.6,277.9L-405.6,276.5L-405.3,274.9L-405.6,273.3L-406.6,271.9L-408,271L-409.6,270.7M-409.6,270.7L-471.9,270.7M-471.9,185.6L-473.6,186L-474.9,186.9L-475.9,188.3L-476.2,189.9L-475.9,191.5L-474.9,192.9L-473.6,193.8L-471.9,194.1M-471.9,194.1L-409.6,194.1M-409.6,194.1L-408,193.8L-406.6,192.9L-405.6,191.5L-405.3,189.9L-405.6,188.3L-406.6,186.9L-408,186L-409.6,185.6M-409.6,185.6L-471.9,185.6M-471.9,117.6L-473.6,117.9L-474.9,118.8L-475.9,120.2L-476.2,121.9L-475.9,123.5L-474.9,124.9L-473.6,125.8L-471.9,126.1M-471.9,126.1L-409.6,126.1M-409.6,126.1L-408,125.8L-406.6,124.9L-405.6,123.5L-405.3,121.9L-405.6,120.2L-406.6,118.8L-408,117.9L-409.6,117.6M-409.6,117.6L-471.9,117.6M-471.9,100.6L-473.6,100.9L-474.9,101.8L-475.9,103.2L-476.2,104.8L-475.9,106.5L-474.9,107.8L-473.6,108.8L-471.9,109.1M-471.9,109.1L-409.6,109.1M-409.6,109.1L-408,108.8L-406.6,107.8L-405.6,106.5L-405.3,104.8L-405.6,103.2L-406.6,101.8L-408,100.9L-409.6,100.6M-409.6,100.6L-471.9,100.6M-471.9,83.6L-473.6,83.9L-474.9,84.8L-475.9,86.2L-476.2,87.8L-475.9,89.5L-474.9,90.8L-473.6,91.8L-471.9,92.1M-471.9,92.1L-409.6,92.1M-409.6,92.1L-408,91.8L-406.6,90.8L-405.6,89.5L-405.3,87.8L-405.6,86.2L-406.6,84.8L-408,83.9L-409.6,83.6M-409.6,83.6L-471.9,83.6M-471.9,66.6L-473.6,66.9L-474.9,67.8L-475.9,69.2L-476.2,70.8L-475.9,72.5L-474.9,73.8L-473.6,74.8L-471.9,75.1M-471.9,75.1L-409.6,75.1M-409.6,75.1L-408,74.8L-406.6,73.8L-405.6,72.5L-405.3,70.8L-405.6,69.2L-406.6,67.8L-408,66.9L-409.6,66.6M-409.6,66.6L-471.9,66.6M-471.9,49.6L-473.6,49.9L-474.9,50.8L-475.9,52.2L-476.2,53.8L-475.9,55.4L-474.9,56.8L-473.6,57.7L-471.9,58.1M-471.9,58.1L-409.6,58.1M-409.6,58.1L-408,57.7L-406.6,56.8L-405.6,55.4L-405.3,53.8L-405.6,52.2L-406.6,50.8L-408,49.9L-409.6,49.6M-409.6,49.6L-471.9,49.6M-471.9,32.6L-473.6,32.9L-474.9,33.8L-475.9,35.2L-476.2,36.8L-475.9,38.4L-474.9,39.8L-473.6,40.7L-471.9,41.1M-471.9,41.1L-409.6,41.1M-409.6,41.1L-408,40.7L-406.6,39.8L-405.6,38.4L-405.3,36.8L-405.6,35.2L-406.6,33.8L-408,32.9L-409.6,32.6M-409.6,32.6L-471.9,32.6M-471.9,168.6L-473.6,168.9L-474.9,169.9L-475.9,171.2L-476.2,172.9L-475.9,174.5L-474.9,175.9L-473.6,176.8L-471.9,177.1M-471.9,177.1L-409.6,177.1M-409.6,177.1L-408,176.8L-406.6,175.9L-405.6,174.5L-405.3,172.9L-405.6,171.2L-406.6,169.9L-408,168.9L-409.6,168.6M-409.6,168.6L-471.9,168.6M-471.9,219.6L-473.6,220L-474.9,220.9L-475.9,222.3L-476.2,223.9L-475.9,225.5L-474.9,226.9L-473.6,227.8L-471.9,228.1M-471.9,228.1L-409.6,228.1M-409.6,228.1L-408,227.8L-406.6,226.9L-405.6,225.5L-405.3,223.9L-405.6,222.3L-406.6,220.9L-408,220L-409.6,219.6M-409.6,219.6L-471.9,219.6M-471.9,202.6L-473.6,203L-474.9,203.9L-475.9,205.3L-476.2,206.9L-475.9,208.5L-474.9,209.9L-473.6,210.8L-471.9,211.1M-471.9,211.1L-409.6,211.1M-409.6,211.1L-408,210.8L-406.6,209.9L-405.6,208.5L-405.3,206.9L-405.6,205.3L-406.6,203.9L-408,203L-409.6,202.6M-409.6,202.6L-471.9,202.6M-372.7,151.6L-374.4,151.9L-375.7,152.9L-376.7,154.2L-377,155.9L-376.7,157.5L-375.7,158.9L-374.4,159.8L-372.7,160.1M-372.7,160.1L-310.4,160.1M-310.4,160.1L-308.7,159.8L-307.4,158.9L-306.4,157.5L-306.1,155.9L-306.4,154.2L-307.4,152.9L-308.7,151.9L-310.4,151.6M-310.4,151.6L-372.7,151.6M-868.8,151.6L-870.4,151.9L-871.8,152.9L-872.7,154.2L-873,155.9L-872.7,157.5L-871.8,158.9L-870.4,159.8L-868.8,160.1M-868.8,160.1L-806.4,160.1M-806.4,160.1L-804.8,159.8L-803.4,158.9L-802.5,157.5L-802.2,155.9L-802.5,154.2L-803.4,152.9L-804.8,151.9L-806.4,151.6M-806.4,151.6L-868.8,151.6M-273.5,151.6L-275.1,151.9L-276.5,152.9L-277.4,154.2L-277.8,155.9L-277.4,157.5L-276.5,158.9L-275.1,159.8L-273.5,160.1M-273.5,160.1L-211.2,160.1M-211.2,160.1L-209.5,159.8L-208.1,158.9L-207.2,157.5L-206.9,155.9L-207.2,154.2L-208.1,152.9L-209.5,151.9L-211.2,151.6M-211.2,151.6L-273.5,151.6M-174.3,151.6L-175.9,151.9L-177.3,152.9L-178.2,154.2L-178.6,155.9L-178.2,157.5L-177.3,158.9L-175.9,159.8L-174.3,160.1M-174.3,160.1L-111.9,160.1M-111.9,160.1L-110.3,159.8L-108.9,158.9L-108,157.5L-107.7,155.9L-108,154.2L-108.9,152.9L-110.3,151.9L-111.9,151.6M-111.9,151.6L-174.3,151.6M-75.1,151.6L-76.7,151.9L-78.1,152.9L-79,154.2L-79.3,155.9L-79,157.5L-78.1,158.9L-76.7,159.8L-75.1,160.1M-75.1,160.1L-12.7,160.1M-12.7,160.1L-11.1,159.8L-9.7,158.9L-8.8,157.5L-8.5,155.9L-8.8,154.2L-9.7,152.9L-11.1,151.9L-12.7,151.6M-12.7,151.6L-75.1,151.6M-571.2,151.6L-572.8,151.9L-574.2,152.9L-575.1,154.2L-575.4,155.9L-575.1,157.5L-574.2,158.9L-572.8,159.8L-571.2,160.1M-571.2,160.1L-508.8,160.1M-508.8,160.1L-507.2,159.8L-505.8,158.9L-504.9,157.5L-504.5,155.9L-504.9,154.2L-505.8,152.9L-507.2,151.9L-508.8,151.6M-508.8,151.6L-571.2,151.6M-769.6,151.6L-771.2,151.9L-772.6,152.9L-773.5,154.2L-773.8,155.9L-773.5,157.5L-772.6,158.9L-771.2,159.8L-769.6,160.1M-769.6,160.1L-707.2,160.1M-707.2,160.1L-705.6,159.8L-704.2,158.9L-703.3,157.5L-703,155.9L-703.3,154.2L-704.2,152.9L-705.6,151.9L-707.2,151.6M-707.2,151.6L-769.6,151.6M-670.4,151.6L-672,151.9L-673.4,152.9L-674.3,154.2L-674.6,155.9L-674.3,157.5L-673.4,158.9L-672,159.8L-670.4,160.1M-670.4,160.1L-608,160.1M-608,160.1L-606.4,159.8L-605,158.9L-604.1,157.5L-603.8,155.9L-604.1,154.2L-605,152.9L-606.4,151.9L-608,151.6M-608,151.6L-670.4,151.6M-372.7,134.6L-374.4,134.9L-375.7,135.9L-376.7,137.2L-377,138.9L-376.7,140.5L-375.7,141.9L-374.4,142.8L-372.7,143.1M-372.7,143.1L-310.4,143.1M-310.4,143.1L-308.7,142.8L-307.4,141.9L-306.4,140.5L-306.1,138.9L-306.4,137.2L-307.4,135.9L-308.7,134.9L-310.4,134.6M-310.4,134.6L-372.7,134.6M-868.8,134.6L-870.4,134.9L-871.8,135.9L-872.7,137.2L-873,138.9L-872.7,140.5L-871.8,141.9L-870.4,142.8L-868.8,143.1M-868.8,143.1L-806.4,143.1M-806.4,143.1L-804.8,142.8L-803.4,141.9L-802.5,140.5L-802.2,138.9L-802.5,137.2L-803.4,135.9L-804.8,134.9L-806.4,134.6M-806.4,134.6L-868.8,134.6M-273.5,134.6L-275.1,134.9L-276.5,135.9L-277.4,137.2L-277.8,138.9L-277.4,140.5L-276.5,141.9L-275.1,142.8L-273.5,143.1M-273.5,143.1L-211.2,143.1M-211.2,143.1L-209.5,142.8L-208.1,141.9L-207.2,140.5L-206.9,138.9L-207.2,137.2L-208.1,135.9L-209.5,134.9L-211.2,134.6M-211.2,134.6L-273.5,134.6M-174.3,134.6L-175.9,134.9L-177.3,135.9L-178.2,137.2L-178.6,138.9L-178.2,140.5L-177.3,141.9L-175.9,142.8L-174.3,143.1M-174.3,143.1L-111.9,143.1M-111.9,143.1L-110.3,142.8L-108.9,141.9L-108,140.5L-107.7,138.9L-108,137.2L-108.9,135.9L-110.3,134.9L-111.9,134.6M-111.9,134.6L-174.3,134.6M-75.1,134.6L-76.7,134.9L-78.1,135.9L-79,137.2L-79.3,138.9L-79,140.5L-78.1,141.9L-76.7,142.8L-75.1,143.1M-75.1,143.1L-12.7,143.1M-12.7,143.1L-11.1,142.8L-9.7,141.9L-8.8,140.5L-8.5,138.9L-8.8,137.2L-9.7,135.9L-11.1,134.9L-12.7,134.6M-12.7,134.6L-75.1,134.6M-571.2,134.6L-572.8,134.9L-574.2,135.9L-575.1,137.2L-575.4,138.9L-575.1,140.5L-574.2,141.9L-572.8,142.8L-571.2,143.1M-571.2,143.1L-508.8,143.1M-508.8,143.1L-507.2,142.8L-505.8,141.9L-504.9,140.5L-504.5,138.9L-504.9,137.2L-505.8,135.9L-507.2,134.9L-508.8,134.6M-508.8,134.6L-571.2,134.6M-769.6,134.6L-771.2,134.9L-772.6,135.9L-773.5,137.2L-773.8,138.9L-773.5,140.5L-772.6,141.9L-771.2,142.8L-769.6,143.1M-769.6,143.1L-707.2,143.1M-707.2,143.1L-705.6,142.8L-704.2,141.9L-703.3,140.5L-703,138.9L-703.3,137.2L-704.2,135.9L-705.6,134.9L-707.2,134.6M-707.2,134.6L-769.6,134.6M-670.4,134.6L-672,134.9L-673.4,135.9L-674.3,137.2L-674.6,138.9L-674.3,140.5L-673.4,141.9L-672,142.8L-670.4,143.1M-670.4,143.1L-608,143.1M-608,143.1L-606.4,142.8L-605,141.9L-604.1,140.5L-603.8,138.9L-604.1,137.2L-605,135.9L-606.4,134.9L-608,134.6M-608,134.6L-670.4,134.6M-372.7,253.7L-374.4,254L-375.7,254.9L-376.7,256.3L-377,257.9L-376.7,259.5L-375.7,260.9L-374.4,261.8L-372.7,262.2M-372.7,262.2L-310.4,262.2M-310.4,262.2L-308.7,261.8L-307.4,260.9L-306.4,259.5L-306.1,257.9L-306.4,256.3L-307.4,254.9L-308.7,254L-310.4,253.7M-310.4,253.7L-372.7,253.7M-868.8,253.7L-870.4,254L-871.8,254.9L-872.7,256.3L-873,257.9L-872.7,259.5L-871.8,260.9L-870.4,261.8L-868.8,262.2M-868.8,262.2L-806.4,262.2M-806.4,262.2L-804.8,261.8L-803.4,260.9L-802.5,259.5L-802.2,257.9L-802.5,256.3L-803.4,254.9L-804.8,254L-806.4,253.7M-806.4,253.7L-868.8,253.7M-273.5,253.7L-275.1,254L-276.5,254.9L-277.4,256.3L-277.8,257.9L-277.4,259.5L-276.5,260.9L-275.1,261.8L-273.5,262.2M-273.5,262.2L-211.2,262.2M-211.2,262.2L-209.5,261.8L-208.1,260.9L-207.2,259.5L-206.9,257.9L-207.2,256.3L-208.1,254.9L-209.5,254L-211.2,253.7M-211.2,253.7L-273.5,253.7M-174.3,253.7L-175.9,254L-177.3,254.9L-178.2,256.3L-178.6,257.9L-178.2,259.5L-177.3,260.9L-175.9,261.8L-174.3,262.2M-174.3,262.2L-111.9,262.2M-111.9,262.2L-110.3,261.8L-108.9,260.9L-108,259.5L-107.7,257.9L-108,256.3L-108.9,254.9L-110.3,254L-111.9,253.7M-111.9,253.7L-174.3,253.7M-75.1,253.7L-76.7,254L-78.1,254.9L-79,256.3L-79.3,257.9L-79,259.5L-78.1,260.9L-76.7,261.8L-75.1,262.2M-75.1,262.2L-12.7,262.2M-12.7,262.2L-11.1,261.8L-9.7,260.9L-8.8,259.5L-8.5,257.9L-8.8,256.3L-9.7,254.9L-11.1,254L-12.7,253.7M-12.7,253.7L-75.1,253.7M-571.2,253.7L-572.8,254L-574.2,254.9L-575.1,256.3L-575.4,257.9L-575.1,259.5L-574.2,260.9L-572.8,261.8L-571.2,262.2M-571.2,262.2L-508.8,262.2M-508.8,262.2L-507.2,261.8L-505.8,260.9L-504.9,259.5L-504.5,257.9L-504.9,256.3L-505.8,254.9L-507.2,254L-508.8,253.7M-508.8,253.7L-571.2,253.7M-769.6,253.7L-771.2,254L-772.6,254.9L-773.5,256.3L-773.8,257.9L-773.5,259.5L-772.6,260.9L-771.2,261.8L-769.6,262.2M-769.6,262.2L-707.2,262.2M-707.2,262.2L-705.6,261.8L-704.2,260.9L-703.3,259.5L-703,257.9L-703.3,256.3L-704.2,254.9L-705.6,254L-707.2,253.7M-707.2,253.7L-769.6,253.7M-670.4,253.7L-672,254L-673.4,254.9L-674.3,256.3L-674.6,257.9L-674.3,259.5L-673.4,260.9L-672,261.8L-670.4,262.2M-670.4,262.2L-608,262.2M-608,262.2L-606.4,261.8L-605,260.9L-604.1,259.5L-603.8,257.9L-604.1,256.3L-605,254.9L-606.4,254L-608,253.7M-608,253.7L-670.4,253.7M-372.7,236.7L-374.4,237L-375.7,237.9L-376.7,239.3L-377,240.9L-376.7,242.5L-375.7,243.9L-374.4,244.8L-372.7,245.2M-372.7,245.2L-310.4,245.2M-310.4,245.2L-308.7,244.8L-307.4,243.9L-306.4,242.5L-306.1,240.9L-306.4,239.3L-307.4,237.9L-308.7,237L-310.4,236.7M-310.4,236.7L-372.7,236.7M-868.8,236.7L-870.4,237L-871.8,237.9L-872.7,239.3L-873,240.9L-872.7,242.5L-871.8,243.9L-870.4,244.8L-868.8,245.2M-868.8,245.2L-806.4,245.2M-806.4,245.2L-804.8,244.8L-803.4,243.9L-802.5,242.5L-802.2,240.9L-802.5,239.3L-803.4,237.9L-804.8,237L-806.4,236.7M-806.4,236.7L-868.8,236.7M-273.5,236.7L-275.1,237L-276.5,237.9L-277.4,239.3L-277.8,240.9L-277.4,242.5L-276.5,243.9L-275.1,244.8L-273.5,245.2M-273.5,245.2L-211.2,245.2M-211.2,245.2L-209.5,244.8L-208.1,243.9L-207.2,242.5L-206.9,240.9L-207.2,239.3L-208.1,237.9L-209.5,237L-211.2,236.7M-211.2,236.7L-273.5,236.7M-174.3,236.7L-175.9,237L-177.3,237.9L-178.2,239.3L-178.6,240.9L-178.2,242.5L-177.3,243.9L-175.9,244.8L-174.3,245.2M-174.3,245.2L-111.9,245.2M-111.9,245.2L-110.3,244.8L-108.9,243.9L-108,242.5L-107.7,240.9L-108,239.3L-108.9,237.9L-110.3,237L-111.9,236.7M-111.9,236.7L-174.3,236.7M-75.1,236.7L-76.7,237L-78.1,237.9L-79,239.3L-79.3,240.9L-79,242.5L-78.1,243.9L-76.7,244.8L-75.1,245.2M-75.1,245.2L-12.7,245.2M-12.7,245.2L-11.1,244.8L-9.7,243.9L-8.8,242.5L-8.5,240.9L-8.8,239.3L-9.7,237.9L-11.1,237L-12.7,236.7M-12.7,236.7L-75.1,236.7M-571.2,236.7L-572.8,237L-574.2,237.9L-575.1,239.3L-575.4,240.9L-575.1,242.5L-574.2,243.9L-572.8,244.8L-571.2,245.2M-571.2,245.2L-508.8,245.2M-508.8,245.2L-507.2,244.8L-505.8,243.9L-504.9,242.5L-504.5,240.9L-504.9,239.3L-505.8,237.9L-507.2,237L-508.8,236.7M-508.8,236.7L-571.2,236.7M-769.6,236.7L-771.2,237L-772.6,237.9L-773.5,239.3L-773.8,240.9L-773.5,242.5L-772.6,243.9L-771.2,244.8L-769.6,245.2M-769.6,245.2L-707.2,245.2M-707.2,245.2L-705.6,244.8L-704.2,243.9L-703.3,242.5L-703,240.9L-703.3,239.3L-704.2,237.9L-705.6,237L-707.2,236.7M-707.2,236.7L-769.6,236.7M-670.4,236.7L-672,237L-673.4,237.9L-674.3,239.3L-674.6,240.9L-674.3,242.5L-673.4,243.9L-672,244.8L-670.4,245.2M-670.4,245.2L-608,245.2M-608,245.2L-606.4,244.8L-605,243.9L-604.1,242.5L-603.8,240.9L-604.1,239.3L-605,237.9L-606.4,237L-608,236.7M-608,236.7L-670.4,236.7M-372.7,270.7L-374.4,271L-375.7,271.9L-376.7,273.3L-377,274.9L-376.7,276.5L-375.7,277.9L-374.4,278.8L-372.7,279.2M-372.7,279.2L-310.4,279.2M-310.4,279.2L-308.7,278.8L-307.4,277.9L-306.4,276.5L-306.1,274.9L-306.4,273.3L-307.4,271.9L-308.7,271L-310.4,270.7M-310.4,270.7L-372.7,270.7M-868.8,270.7L-870.4,271L-871.8,271.9L-872.7,273.3L-873,274.9L-872.7,276.5L-871.8,277.9L-870.4,278.8L-868.8,279.2M-868.8,279.2L-806.4,279.2M-806.4,279.2L-804.8,278.8L-803.4,277.9L-802.5,276.5L-802.2,274.9L-802.5,273.3L-803.4,271.9L-804.8,271L-806.4,270.7M-806.4,270.7L-868.8,270.7M-273.5,270.7L-275.1,271L-276.5,271.9L-277.4,273.3L-277.8,274.9L-277.4,276.5L-276.5,277.9L-275.1,278.8L-273.5,279.2M-273.5,279.2L-211.2,279.2M-211.2,279.2L-209.5,278.8L-208.1,277.9L-207.2,276.5L-206.9,274.9L-207.2,273.3L-208.1,271.9L-209.5,271L-211.2,270.7M-211.2,270.7L-273.5,270.7M-174.3,270.7L-175.9,271L-177.3,271.9L-178.2,273.3L-178.6,274.9L-178.2,276.5L-177.3,277.9L-175.9,278.8L-174.3,279.2M-174.3,279.2L-111.9,279.2M-111.9,279.2L-110.3,278.8L-108.9,277.9L-108,276.5L-107.7,274.9L-108,273.3L-108.9,271.9L-110.3,271L-111.9,270.7M-111.9,270.7L-174.3,270.7M-75.1,270.7L-76.7,271L-78.1,271.9L-79,273.3L-79.3,274.9L-79,276.5L-78.1,277.9L-76.7,278.8L-75.1,279.2M-75.1,279.2L-12.7,279.2M-12.7,279.2L-11.1,278.8L-9.7,277.9L-8.8,276.5L-8.5,274.9L-8.8,273.3L-9.7,271.9L-11.1,271L-12.7,270.7M-12.7,270.7L-75.1,270.7M-571.2,270.7L-572.8,271L-574.2,271.9L-575.1,273.3L-575.4,274.9L-575.1,276.5L-574.2,277.9L-572.8,278.8L-571.2,279.2M-571.2,279.2L-508.8,279.2M-508.8,279.2L-507.2,278.8L-505.8,277.9L-504.9,276.5L-504.5,274.9L-504.9,273.3L-505.8,271.9L-507.2,271L-508.8,270.7M-508.8,270.7L-571.2,270.7M-769.6,270.7L-771.2,271L-772.6,271.9L-773.5,273.3L-773.8,274.9L-773.5,276.5L-772.6,277.9L-771.2,278.8L-769.6,279.2M-769.6,279.2L-707.2,279.2M-707.2,279.2L-705.6,278.8L-704.2,277.9L-703.3,276.5L-703,274.9L-703.3,273.3L-704.2,271.9L-705.6,271L-707.2,270.7M-707.2,270.7L-769.6,270.7M-670.4,270.7L-672,271L-673.4,271.9L-674.3,273.3L-674.6,274.9L-674.3,276.5L-673.4,277.9L-672,278.8L-670.4,279.2M-670.4,279.2L-608,279.2M-608,279.2L-606.4,278.8L-605,277.9L-604.1,276.5L-603.8,274.9L-604.1,273.3L-605,271.9L-606.4,271L-608,270.7M-608,270.7L-670.4,270.7M-372.7,185.6L-374.4,186L-375.7,186.9L-376.7,188.3L-377,189.9L-376.7,191.5L-375.7,192.9L-374.4,193.8L-372.7,194.1M-372.7,194.1L-310.4,194.1M-310.4,194.1L-308.7,193.8L-307.4,192.9L-306.4,191.5L-306.1,189.9L-306.4,188.3L-307.4,186.9L-308.7,186L-310.4,185.6M-310.4,185.6L-372.7,185.6M-868.8,185.6L-870.4,186L-871.8,186.9L-872.7,188.3L-873,189.9L-872.7,191.5L-871.8,192.9L-870.4,193.8L-868.8,194.1M-868.8,194.1L-806.4,194.1M-806.4,194.1L-804.8,193.8L-803.4,192.9L-802.5,191.5L-802.2,189.9L-802.5,188.3L-803.4,186.9L-804.8,186L-806.4,185.6M-806.4,185.6L-868.8,185.6M-273.5,185.6L-275.1,186L-276.5,186.9L-277.4,188.3L-277.8,189.9L-277.4,191.5L-276.5,192.9L-275.1,193.8L-273.5,194.1M-273.5,194.1L-211.2,194.1M-211.2,194.1L-209.5,193.8L-208.1,192.9L-207.2,191.5L-206.9,189.9L-207.2,188.3L-208.1,186.9L-209.5,186L-211.2,185.6M-211.2,185.6L-273.5,185.6M-174.3,185.6L-175.9,186L-177.3,186.9L-178.2,188.3L-178.6,189.9L-178.2,191.5L-177.3,192.9L-175.9,193.8L-174.3,194.1M-174.3,194.1L-111.9,194.1M-111.9,194.1L-110.3,193.8L-108.9,192.9L-108,191.5L-107.7,189.9L-108,188.3L-108.9,186.9L-110.3,186L-111.9,185.6M-111.9,185.6L-174.3,185.6M-75.1,185.6L-76.7,186L-78.1,186.9L-79,188.3L-79.3,189.9L-79,191.5L-78.1,192.9L-76.7,193.8L-75.1,194.1M-75.1,194.1L-12.7,194.1M-12.7,194.1L-11.1,193.8L-9.7,192.9L-8.8,191.5L-8.5,189.9L-8.8,188.3L-9.7,186.9L-11.1,186L-12.7,185.6M-12.7,185.6L-75.1,185.6M-571.2,185.6L-572.8,186L-574.2,186.9L-575.1,188.3L-575.4,189.9L-575.1,191.5L-574.2,192.9L-572.8,193.8L-571.2,194.1M-571.2,194.1L-508.8,194.1M-508.8,194.1L-507.2,193.8L-505.8,192.9L-504.9,191.5L-504.5,189.9L-504.9,188.3L-505.8,186.9L-507.2,186L-508.8,185.6M-508.8,185.6L-571.2,185.6M-769.6,185.6L-771.2,186L-772.6,186.9L-773.5,188.3L-773.8,189.9L-773.5,191.5L-772.6,192.9L-771.2,193.8L-769.6,194.1M-769.6,194.1L-707.2,194.1M-707.2,194.1L-705.6,193.8L-704.2,192.9L-703.3,191.5L-703,189.9L-703.3,188.3L-704.2,186.9L-705.6,186L-707.2,185.6M-707.2,185.6L-769.6,185.6M-670.4,185.6L-672,186L-673.4,186.9L-674.3,188.3L-674.6,189.9L-674.3,191.5L-673.4,192.9L-672,193.8L-670.4,194.1M-670.4,194.1L-608,194.1M-608,194.1L-606.4,193.8L-605,192.9L-604.1,191.5L-603.8,189.9L-604.1,188.3L-605,186.9L-606.4,186L-608,185.6M-608,185.6L-670.4,185.6M-372.7,117.6L-374.4,117.9L-375.7,118.8L-376.7,120.2L-377,121.9L-376.7,123.5L-375.7,124.9L-374.4,125.8L-372.7,126.1M-372.7,126.1L-310.4,126.1M-310.4,126.1L-308.7,125.8L-307.4,124.9L-306.4,123.5L-306.1,121.9L-306.4,120.2L-307.4,118.8L-308.7,117.9L-310.4,117.6M-310.4,117.6L-372.7,117.6M-868.8,117.6L-870.4,117.9L-871.8,118.8L-872.7,120.2L-873,121.9L-872.7,123.5L-871.8,124.9L-870.4,125.8L-868.8,126.1M-868.8,126.1L-806.4,126.1M-806.4,126.1L-804.8,125.8L-803.4,124.9L-802.5,123.5L-802.2,121.9L-802.5,120.2L-803.4,118.8L-804.8,117.9L-806.4,117.6M-806.4,117.6L-868.8,117.6M-273.5,117.6L-275.1,117.9L-276.5,118.8L-277.4,120.2L-277.8,121.9L-277.4,123.5L-276.5,124.9L-275.1,125.8L-273.5,126.1M-273.5,126.1L-211.2,126.1M-211.2,126.1L-209.5,125.8L-208.1,124.9L-207.2,123.5L-206.9,121.9L-207.2,120.2L-208.1,118.8L-209.5,117.9L-211.2,117.6M-211.2,117.6L-273.5,117.6M-174.3,117.6L-175.9,117.9L-177.3,118.8L-178.2,120.2L-178.6,121.9L-178.2,123.5L-177.3,124.9L-175.9,125.8L-174.3,126.1M-174.3,126.1L-111.9,126.1M-111.9,126.1L-110.3,125.8L-108.9,124.9L-108,123.5L-107.7,121.9L-108,120.2L-108.9,118.8L-110.3,117.9L-111.9,117.6M-111.9,117.6L-174.3,117.6M-75.1,117.6L-76.7,117.9L-78.1,118.8L-79,120.2L-79.3,121.9L-79,123.5L-78.1,124.9L-76.7,125.8L-75.1,126.1M-75.1,126.1L-12.7,126.1M-12.7,126.1L-11.1,125.8L-9.7,124.9L-8.8,123.5L-8.5,121.9L-8.8,120.2L-9.7,118.8L-11.1,117.9L-12.7,117.6M-12.7,117.6L-75.1,117.6M-571.2,117.6L-572.8,117.9L-574.2,118.8L-575.1,120.2L-575.4,121.9L-575.1,123.5L-574.2,124.9L-572.8,125.8L-571.2,126.1M-571.2,126.1L-508.8,126.1M-508.8,126.1L-507.2,125.8L-505.8,124.9L-504.9,123.5L-504.5,121.9L-504.9,120.2L-505.8,118.8L-507.2,117.9L-508.8,117.6M-508.8,117.6L-571.2,117.6M-769.6,117.6L-771.2,117.9L-772.6,118.8L-773.5,120.2L-773.8,121.9L-773.5,123.5L-772.6,124.9L-771.2,125.8L-769.6,126.1M-769.6,126.1L-707.2,126.1M-707.2,126.1L-705.6,125.8L-704.2,124.9L-703.3,123.5L-703,121.9L-703.3,120.2L-704.2,118.8L-705.6,117.9L-707.2,117.6M-707.2,117.6L-769.6,117.6M-670.4,117.6L-672,117.9L-673.4,118.8L-674.3,120.2L-674.6,121.9L-674.3,123.5L-673.4,124.9L-672,125.8L-670.4,126.1M-670.4,126.1L-608,126.1M-608,126.1L-606.4,125.8L-605,124.9L-604.1,123.5L-603.8,121.9L-604.1,120.2L-605,118.8L-606.4,117.9L-608,117.6M-608,117.6L-670.4,117.6M-372.7,100.6L-374.4,100.9L-375.7,101.8L-376.7,103.2L-377,104.8L-376.7,106.5L-375.7,107.8L-374.4,108.8L-372.7,109.1M-372.7,109.1L-310.4,109.1M-310.4,109.1L-308.7,108.8L-307.4,107.8L-306.4,106.5L-306.1,104.8L-306.4,103.2L-307.4,101.8L-308.7,100.9L-310.4,100.6M-310.4,100.6L-372.7,100.6M-868.8,100.6L-870.4,100.9L-871.8,101.8L-872.7,103.2L-873,104.8L-872.7,106.5L-871.8,107.8L-870.4,108.8L-868.8,109.1M-868.8,109.1L-806.4,109.1M-806.4,109.1L-804.8,108.8L-803.4,107.8L-802.5,106.5L-802.2,104.8L-802.5,103.2L-803.4,101.8L-804.8,100.9L-806.4,100.6M-806.4,100.6L-868.8,100.6M-273.5,100.6L-275.1,100.9L-276.5,101.8L-277.4,103.2L-277.8,104.8L-277.4,106.5L-276.5,107.8L-275.1,108.8L-273.5,109.1M-273.5,109.1L-211.2,109.1M-211.2,109.1L-209.5,108.8L-208.1,107.8L-207.2,106.5L-206.9,104.8L-207.2,103.2L-208.1,101.8L-209.5,100.9L-211.2,100.6M-211.2,100.6L-273.5,100.6M-174.3,100.6L-175.9,100.9L-177.3,101.8L-178.2,103.2L-178.6,104.8L-178.2,106.5L-177.3,107.8L-175.9,108.8L-174.3,109.1M-174.3,109.1L-111.9,109.1M-111.9,109.1L-110.3,108.8L-108.9,107.8L-108,106.5L-107.7,104.8L-108,103.2L-108.9,101.8L-110.3,100.9L-111.9,100.6M-111.9,100.6L-174.3,100.6M-75.1,100.6L-76.7,100.9L-78.1,101.8L-79,103.2L-79.3,104.8L-79,106.5L-78.1,107.8L-76.7,108.8L-75.1,109.1M-75.1,109.1L-12.7,109.1M-12.7,109.1L-11.1,108.8L-9.7,107.8L-8.8,106.5L-8.5,104.8L-8.8,103.2L-9.7,101.8L-11.1,100.9L-12.7,100.6M-12.7,100.6L-75.1,100.6M-571.2,100.6L-572.8,100.9L-574.2,101.8L-575.1,103.2L-575.4,104.8L-575.1,106.5L-574.2,107.8L-572.8,108.8L-571.2,109.1M-571.2,109.1L-508.8,109.1M-508.8,109.1L-507.2,108.8L-505.8,107.8L-504.9,106.5L-504.5,104.8L-504.9,103.2L-505.8,101.8L-507.2,100.9L-508.8,100.6M-508.8,100.6L-571.2,100.6M-769.6,100.6L-771.2,100.9L-772.6,101.8L-773.5,103.2L-773.8,104.8L-773.5,106.5L-772.6,107.8L-771.2,108.8L-769.6,109.1M-769.6,109.1L-707.2,109.1M-707.2,109.1L-705.6,108.8L-704.2,107.8L-703.3,106.5L-703,104.8L-703.3,103.2L-704.2,101.8L-705.6,100.9L-707.2,100.6M-707.2,100.6L-769.6,100.6M-670.4,100.6L-672,100.9L-673.4,101.8L-674.3,103.2L-674.6,104.8L-674.3,106.5L-673.4,107.8L-672,108.8L-670.4,109.1M-670.4,109.1L-608,109.1M-608,109.1L-606.4,108.8L-605,107.8L-604.1,106.5L-603.8,104.8L-604.1,103.2L-605,101.8L-606.4,100.9L-608,100.6M-608,100.6L-670.4,100.6M-372.7,83.6L-374.4,83.9L-375.7,84.8L-376.7,86.2L-377,87.8L-376.7,89.5L-375.7,90.8L-374.4,91.8L-372.7,92.1M-372.7,92.1L-310.4,92.1M-310.4,92.1L-308.7,91.8L-307.4,90.8L-306.4,89.5L-306.1,87.8L-306.4,86.2L-307.4,84.8L-308.7,83.9L-310.4,83.6M-310.4,83.6L-372.7,83.6M-868.8,83.6L-870.4,83.9L-871.8,84.8L-872.7,86.2L-873,87.8L-872.7,89.5L-871.8,90.8L-870.4,91.8L-868.8,92.1M-868.8,92.1L-806.4,92.1M-806.4,92.1L-804.8,91.8L-803.4,90.8L-802.5,89.5L-802.2,87.8L-802.5,86.2L-803.4,84.8L-804.8,83.9L-806.4,83.6M-806.4,83.6L-868.8,83.6M-273.5,83.6L-275.1,83.9L-276.5,84.8L-277.4,86.2L-277.8,87.8L-277.4,89.5L-276.5,90.8L-275.1,91.8L-273.5,92.1M-273.5,92.1L-211.2,92.1M-211.2,92.1L-209.5,91.8L-208.1,90.8L-207.2,89.5L-206.9,87.8L-207.2,86.2L-208.1,84.8L-209.5,83.9L-211.2,83.6M-211.2,83.6L-273.5,83.6M-174.3,83.6L-175.9,83.9L-177.3,84.8L-178.2,86.2L-178.6,87.8L-178.2,89.5L-177.3,90.8L-175.9,91.8L-174.3,92.1M-174.3,92.1L-111.9,92.1M-111.9,92.1L-110.3,91.8L-108.9,90.8L-108,89.5L-107.7,87.8L-108,86.2L-108.9,84.8L-110.3,83.9L-111.9,83.6M-111.9,83.6L-174.3,83.6M-75.1,83.6L-76.7,83.9L-78.1,84.8L-79,86.2L-79.3,87.8L-79,89.5L-78.1,90.8L-76.7,91.8L-75.1,92.1M-75.1,92.1L-12.7,92.1M-12.7,92.1L-11.1,91.8L-9.7,90.8L-8.8,89.5L-8.5,87.8L-8.8,86.2L-9.7,84.8L-11.1,83.9L-12.7,83.6M-12.7,83.6L-75.1,83.6M-571.2,83.6L-572.8,83.9L-574.2,84.8L-575.1,86.2L-575.4,87.8L-575.1,89.5L-574.2,90.8L-572.8,91.8L-571.2,92.1M-571.2,92.1L-508.8,92.1M-508.8,92.1L-507.2,91.8L-505.8,90.8L-504.9,89.5L-504.5,87.8L-504.9,86.2L-505.8,84.8L-507.2,83.9L-508.8,83.6M-508.8,83.6L-571.2,83.6M-769.6,83.6L-771.2,83.9L-772.6,84.8L-773.5,86.2L-773.8,87.8L-773.5,89.5L-772.6,90.8L-771.2,91.8L-769.6,92.1M-769.6,92.1L-707.2,92.1M-707.2,92.1L-705.6,91.8L-704.2,90.8L-703.3,89.5L-703,87.8L-703.3,86.2L-704.2,84.8L-705.6,83.9L-707.2,83.6M-707.2,83.6L-769.6,83.6M-670.4,83.6L-672,83.9L-673.4,84.8L-674.3,86.2L-674.6,87.8L-674.3,89.5L-673.4,90.8L-672,91.8L-670.4,92.1M-670.4,92.1L-608,92.1M-608,92.1L-606.4,91.8L-605,90.8L-604.1,89.5L-603.8,87.8L-604.1,86.2L-605,84.8L-606.4,83.9L-608,83.6M-608,83.6L-670.4,83.6M-372.7,66.6L-374.4,66.9L-375.7,67.8L-376.7,69.2L-377,70.8L-376.7,72.5L-375.7,73.8L-374.4,74.8L-372.7,75.1M-372.7,75.1L-310.4,75.1M-310.4,75.1L-308.7,74.8L-307.4,73.8L-306.4,72.5L-306.1,70.8L-306.4,69.2L-307.4,67.8L-308.7,66.9L-310.4,66.6M-310.4,66.6L-372.7,66.6M-868.8,66.6L-870.4,66.9L-871.8,67.8L-872.7,69.2L-873,70.8L-872.7,72.5L-871.8,73.8L-870.4,74.8L-868.8,75.1M-868.8,75.1L-806.4,75.1M-806.4,75.1L-804.8,74.8L-803.4,73.8L-802.5,72.5L-802.2,70.8L-802.5,69.2L-803.4,67.8L-804.8,66.9L-806.4,66.6M-806.4,66.6L-868.8,66.6M-273.5,66.6L-275.1,66.9L-276.5,67.8L-277.4,69.2L-277.8,70.8L-277.4,72.5L-276.5,73.8L-275.1,74.8L-273.5,75.1M-273.5,75.1L-211.2,75.1M-211.2,75.1L-209.5,74.8L-208.1,73.8L-207.2,72.5L-206.9,70.8L-207.2,69.2L-208.1,67.8L-209.5,66.9L-211.2,66.6M-211.2,66.6L-273.5,66.6M-174.3,66.6L-175.9,66.9L-177.3,67.8L-178.2,69.2L-178.6,70.8L-178.2,72.5L-177.3,73.8L-175.9,74.8L-174.3,75.1M-174.3,75.1L-111.9,75.1M-111.9,75.1L-110.3,74.8L-108.9,73.8L-108,72.5L-107.7,70.8L-108,69.2L-108.9,67.8L-110.3,66.9L-111.9,66.6M-111.9,66.6L-174.3,66.6M-75.1,66.6L-76.7,66.9L-78.1,67.8L-79,69.2L-79.3,70.8L-79,72.5L-78.1,73.8L-76.7,74.8L-75.1,75.1M-75.1,75.1L-12.7,75.1M-12.7,75.1L-11.1,74.8L-9.7,73.8L-8.8,72.5L-8.5,70.8L-8.8,69.2L-9.7,67.8L-11.1,66.9L-12.7,66.6M-12.7,66.6L-75.1,66.6M-571.2,66.6L-572.8,66.9L-574.2,67.8L-575.1,69.2L-575.4,70.8L-575.1,72.5L-574.2,73.8L-572.8,74.8L-571.2,75.1M-571.2,75.1L-508.8,75.1M-508.8,75.1L-507.2,74.8L-505.8,73.8L-504.9,72.5L-504.5,70.8L-504.9,69.2L-505.8,67.8L-507.2,66.9L-508.8,66.6M-508.8,66.6L-571.2,66.6M-769.6,66.6L-771.2,66.9L-772.6,67.8L-773.5,69.2L-773.8,70.8L-773.5,72.5L-772.6,73.8L-771.2,74.8L-769.6,75.1M-769.6,75.1L-707.2,75.1M-707.2,75.1L-705.6,74.8L-704.2,73.8L-703.3,72.5L-703,70.8L-703.3,69.2L-704.2,67.8L-705.6,66.9L-707.2,66.6M-707.2,66.6L-769.6,66.6M-670.4,66.6L-672,66.9L-673.4,67.8L-674.3,69.2L-674.6,70.8L-674.3,72.5L-673.4,73.8L-672,74.8L-670.4,75.1M-670.4,75.1L-608,75.1M-608,75.1L-606.4,74.8L-605,73.8L-604.1,72.5L-603.8,70.8L-604.1,69.2L-605,67.8L-606.4,66.9L-608,66.6M-608,66.6L-670.4,66.6M-372.7,49.6L-374.4,49.9L-375.7,50.8L-376.7,52.2L-377,53.8L-376.7,55.4L-375.7,56.8L-374.4,57.7L-372.7,58.1M-372.7,58.1L-310.4,58.1M-310.4,58.1L-308.7,57.7L-307.4,56.8L-306.4,55.4L-306.1,53.8L-306.4,52.2L-307.4,50.8L-308.7,49.9L-310.4,49.6M-310.4,49.6L-372.7,49.6M-868.8,49.6L-870.4,49.9L-871.8,50.8L-872.7,52.2L-873,53.8L-872.7,55.4L-871.8,56.8L-870.4,57.7L-868.8,58.1M-868.8,58.1L-806.4,58.1M-806.4,58.1L-804.8,57.7L-803.4,56.8L-802.5,55.4L-802.2,53.8L-802.5,52.2L-803.4,50.8L-804.8,49.9L-806.4,49.6M-806.4,49.6L-868.8,49.6M-273.5,49.6L-275.1,49.9L-276.5,50.8L-277.4,52.2L-277.8,53.8L-277.4,55.4L-276.5,56.8L-275.1,57.7L-273.5,58.1M-273.5,58.1L-211.2,58.1M-211.2,58.1L-209.5,57.7L-208.1,56.8L-207.2,55.4L-206.9,53.8L-207.2,52.2L-208.1,50.8L-209.5,49.9L-211.2,49.6M-211.2,49.6L-273.5,49.6M-174.3,49.6L-175.9,49.9L-177.3,50.8L-178.2,52.2L-178.6,53.8L-178.2,55.4L-177.3,56.8L-175.9,57.7L-174.3,58.1M-174.3,58.1L-111.9,58.1M-111.9,58.1L-110.3,57.7L-108.9,56.8L-108,55.4L-107.7,53.8L-108,52.2L-108.9,50.8L-110.3,49.9L-111.9,49.6M-111.9,49.6L-174.3,49.6M-75.1,49.6L-76.7,49.9L-78.1,50.8L-79,52.2L-79.3,53.8L-79,55.4L-78.1,56.8L-76.7,57.7L-75.1,58.1M-75.1,58.1L-12.7,58.1M-12.7,58.1L-11.1,57.7L-9.7,56.8L-8.8,55.4L-8.5,53.8L-8.8,52.2L-9.7,50.8L-11.1,49.9L-12.7,49.6M-12.7,49.6L-75.1,49.6M-571.2,49.6L-572.8,49.9L-574.2,50.8L-575.1,52.2L-575.4,53.8L-575.1,55.4L-574.2,56.8L-572.8,57.7L-571.2,58.1M-571.2,58.1L-508.8,58.1M-508.8,58.1L-507.2,57.7L-505.8,56.8L-504.9,55.4L-504.5,53.8L-504.9,52.2L-505.8,50.8L-507.2,49.9L-508.8,49.6M-508.8,49.6L-571.2,49.6M-769.6,49.6L-771.2,49.9L-772.6,50.8L-773.5,52.2L-773.8,53.8L-773.5,55.4L-772.6,56.8L-771.2,57.7L-769.6,58.1M-769.6,58.1L-707.2,58.1M-707.2,58.1L-705.6,57.7L-704.2,56.8L-703.3,55.4L-703,53.8L-703.3,52.2L-704.2,50.8L-705.6,49.9L-707.2,49.6M-707.2,49.6L-769.6,49.6M-670.4,49.6L-672,49.9L-673.4,50.8L-674.3,52.2L-674.6,53.8L-674.3,55.4L-673.4,56.8L-672,57.7L-670.4,58.1M-670.4,58.1L-608,58.1M-608,58.1L-606.4,57.7L-605,56.8L-604.1,55.4L-603.8,53.8L-604.1,52.2L-605,50.8L-606.4,49.9L-608,49.6M-608,49.6L-670.4,49.6M-372.7,32.6L-374.4,32.9L-375.7,33.8L-376.7,35.2L-377,36.8L-376.7,38.4L-375.7,39.8L-374.4,40.7L-372.7,41.1M-372.7,41.1L-310.4,41.1M-310.4,41.1L-308.7,40.7L-307.4,39.8L-306.4,38.4L-306.1,36.8L-306.4,35.2L-307.4,33.8L-308.7,32.9L-310.4,32.6M-310.4,32.6L-372.7,32.6M-868.8,32.6L-870.4,32.9L-871.8,33.8L-872.7,35.2L-873,36.8L-872.7,38.4L-871.8,39.8L-870.4,40.7L-868.8,41.1M-868.8,41.1L-806.4,41.1M-806.4,41.1L-804.8,40.7L-803.4,39.8L-802.5,38.4L-802.2,36.8L-802.5,35.2L-803.4,33.8L-804.8,32.9L-806.4,32.6M-806.4,32.6L-868.8,32.6M-273.5,32.6L-275.1,32.9L-276.5,33.8L-277.4,35.2L-277.8,36.8L-277.4,38.4L-276.5,39.8L-275.1,40.7L-273.5,41.1M-273.5,41.1L-211.2,41.1M-211.2,41.1L-209.5,40.7L-208.1,39.8L-207.2,38.4L-206.9,36.8L-207.2,35.2L-208.1,33.8L-209.5,32.9L-211.2,32.6M-211.2,32.6L-273.5,32.6M-174.3,32.6L-175.9,32.9L-177.3,33.8L-178.2,35.2L-178.6,36.8L-178.2,38.4L-177.3,39.8L-175.9,40.7L-174.3,41.1M-174.3,41.1L-111.9,41.1M-111.9,41.1L-110.3,40.7L-108.9,39.8L-108,38.4L-107.7,36.8L-108,35.2L-108.9,33.8L-110.3,32.9L-111.9,32.6M-111.9,32.6L-174.3,32.6M-75.1,32.6L-76.7,32.9L-78.1,33.8L-79,35.2L-79.3,36.8L-79,38.4L-78.1,39.8L-76.7,40.7L-75.1,41.1M-75.1,41.1L-12.7,41.1M-12.7,41.1L-11.1,40.7L-9.7,39.8L-8.8,38.4L-8.5,36.8L-8.8,35.2L-9.7,33.8L-11.1,32.9L-12.7,32.6M-12.7,32.6L-75.1,32.6M-571.2,32.6L-572.8,32.9L-574.2,33.8L-575.1,35.2L-575.4,36.8L-575.1,38.4L-574.2,39.8L-572.8,40.7L-571.2,41.1M-571.2,41.1L-508.8,41.1M-508.8,41.1L-507.2,40.7L-505.8,39.8L-504.9,38.4L-504.5,36.8L-504.9,35.2L-505.8,33.8L-507.2,32.9L-508.8,32.6M-508.8,32.6L-571.2,32.6M-769.6,32.6L-771.2,32.9L-772.6,33.8L-773.5,35.2L-773.8,36.8L-773.5,38.4L-772.6,39.8L-771.2,40.7L-769.6,41.1M-769.6,41.1L-707.2,41.1M-707.2,41.1L-705.6,40.7L-704.2,39.8L-703.3,38.4L-703,36.8L-703.3,35.2L-704.2,33.8L-705.6,32.9L-707.2,32.6M-707.2,32.6L-769.6,32.6M-670.4,32.6L-672,32.9L-673.4,33.8L-674.3,35.2L-674.6,36.8L-674.3,38.4L-673.4,39.8L-672,40.7L-670.4,41.1M-670.4,41.1L-608,41.1M-608,41.1L-606.4,40.7L-605,39.8L-604.1,38.4L-603.8,36.8L-604.1,35.2L-605,33.8L-606.4,32.9L-608,32.6M-608,32.6L-670.4,32.6M-372.7,168.6L-374.4,168.9L-375.7,169.9L-376.7,171.2L-377,172.9L-376.7,174.5L-375.7,175.9L-374.4,176.8L-372.7,177.1M-372.7,177.1L-310.4,177.1M-310.4,177.1L-308.7,176.8L-307.4,175.9L-306.4,174.5L-306.1,172.9L-306.4,171.2L-307.4,169.9L-308.7,168.9L-310.4,168.6M-310.4,168.6L-372.7,168.6M-868.8,168.6L-870.4,168.9L-871.8,169.9L-872.7,171.2L-873,172.9L-872.7,174.5L-871.8,175.9L-870.4,176.8L-868.8,177.1M-868.8,177.1L-806.4,177.1M-806.4,177.1L-804.8,176.8L-803.4,175.9L-802.5,174.5L-802.2,172.9L-802.5,171.2L-803.4,169.9L-804.8,168.9L-806.4,168.6M-806.4,168.6L-868.8,168.6M-273.5,168.6L-275.1,168.9L-276.5,169.9L-277.4,171.2L-277.8,172.9L-277.4,174.5L-276.5,175.9L-275.1,176.8L-273.5,177.1M-273.5,177.1L-211.2,177.1M-211.2,177.1L-209.5,176.8L-208.1,175.9L-207.2,174.5L-206.9,172.9L-207.2,171.2L-208.1,169.9L-209.5,168.9L-211.2,168.6M-211.2,168.6L-273.5,168.6M-174.3,168.6L-175.9,168.9L-177.3,169.9L-178.2,171.2L-178.6,172.9L-178.2,174.5L-177.3,175.9L-175.9,176.8L-174.3,177.1M-174.3,177.1L-111.9,177.1M-111.9,177.1L-110.3,176.8L-108.9,175.9L-108,174.5L-107.7,172.9L-108,171.2L-108.9,169.9L-110.3,168.9L-111.9,168.6M-111.9,168.6L-174.3,168.6M-75.1,168.6L-76.7,168.9L-78.1,169.9L-79,171.2L-79.3,172.9L-79,174.5L-78.1,175.9L-76.7,176.8L-75.1,177.1M-75.1,177.1L-12.7,177.1M-12.7,177.1L-11.1,176.8L-9.7,175.9L-8.8,174.5L-8.5,172.9L-8.8,171.2L-9.7,169.9L-11.1,168.9L-12.7,168.6M-12.7,168.6L-75.1,168.6M-571.2,168.6L-572.8,168.9L-574.2,169.9L-575.1,171.2L-575.4,172.9L-575.1,174.5L-574.2,175.9L-572.8,176.8L-571.2,177.1M-571.2,177.1L-508.8,177.1M-508.8,177.1L-507.2,176.8L-505.8,175.9L-504.9,174.5L-504.5,172.9L-504.9,171.2L-505.8,169.9L-507.2,168.9L-508.8,168.6M-508.8,168.6L-571.2,168.6M-769.6,168.6L-771.2,168.9L-772.6,169.9L-773.5,171.2L-773.8,172.9L-773.5,174.5L-772.6,175.9L-771.2,176.8L-769.6,177.1M-769.6,177.1L-707.2,177.1M-707.2,177.1L-705.6,176.8L-704.2,175.9L-703.3,174.5L-703,172.9L-703.3,171.2L-704.2,169.9L-705.6,168.9L-707.2,168.6M-707.2,168.6L-769.6,168.6M-670.4,168.6L-672,168.9L-673.4,169.9L-674.3,171.2L-674.6,172.9L-674.3,174.5L-673.4,175.9L-672,176.8L-670.4,177.1M-670.4,177.1L-608,177.1M-608,177.1L-606.4,176.8L-605,175.9L-604.1,174.5L-603.8,172.9L-604.1,171.2L-605,169.9L-606.4,168.9L-608,168.6M-608,168.6L-670.4,168.6M-372.7,219.6L-374.4,220L-375.7,220.9L-376.7,222.3L-377,223.9L-376.7,225.5L-375.7,226.9L-374.4,227.8L-372.7,228.1M-372.7,228.1L-310.4,228.1M-310.4,228.1L-308.7,227.8L-307.4,226.9L-306.4,225.5L-306.1,223.9L-306.4,222.3L-307.4,220.9L-308.7,220L-310.4,219.6M-310.4,219.6L-372.7,219.6M-868.8,219.6L-870.4,220L-871.8,220.9L-872.7,222.3L-873,223.9L-872.7,225.5L-871.8,226.9L-870.4,227.8L-868.8,228.1M-868.8,228.1L-806.4,228.1M-806.4,228.1L-804.8,227.8L-803.4,226.9L-802.5,225.5L-802.2,223.9L-802.5,222.3L-803.4,220.9L-804.8,220L-806.4,219.6M-806.4,219.6L-868.8,219.6M-273.5,219.6L-275.1,220L-276.5,220.9L-277.4,222.3L-277.8,223.9L-277.4,225.5L-276.5,226.9L-275.1,227.8L-273.5,228.1M-273.5,228.1L-211.2,228.1M-211.2,228.1L-209.5,227.8L-208.1,226.9L-207.2,225.5L-206.9,223.9L-207.2,222.3L-208.1,220.9L-209.5,220L-211.2,219.6M-211.2,219.6L-273.5,219.6M-174.3,219.6L-175.9,220L-177.3,220.9L-178.2,222.3L-178.6,223.9L-178.2,225.5L-177.3,226.9L-175.9,227.8L-174.3,228.1M-174.3,228.1L-111.9,228.1M-111.9,228.1L-110.3,227.8L-108.9,226.9L-108,225.5L-107.7,223.9L-108,222.3L-108.9,220.9L-110.3,220L-111.9,219.6M-111.9,219.6L-174.3,219.6M-75.1,219.6L-76.7,220L-78.1,220.9L-79,222.3L-79.3,223.9L-79,225.5L-78.1,226.9L-76.7,227.8L-75.1,228.1M-75.1,228.1L-12.7,228.1M-12.7,228.1L-11.1,227.8L-9.7,226.9L-8.8,225.5L-8.5,223.9L-8.8,222.3L-9.7,220.9L-11.1,220L-12.7,219.6M-12.7,219.6L-75.1,219.6M-571.2,219.6L-572.8,220L-574.2,220.9L-575.1,222.3L-575.4,223.9L-575.1,225.5L-574.2,226.9L-572.8,227.8L-571.2,228.1M-571.2,228.1L-508.8,228.1M-508.8,228.1L-507.2,227.8L-505.8,226.9L-504.9,225.5L-504.5,223.9L-504.9,222.3L-505.8,220.9L-507.2,220L-508.8,219.6M-508.8,219.6L-571.2,219.6M-769.6,219.6L-771.2,220L-772.6,220.9L-773.5,222.3L-773.8,223.9L-773.5,225.5L-772.6,226.9L-771.2,227.8L-769.6,228.1M-769.6,228.1L-707.2,228.1M-707.2,228.1L-705.6,227.8L-704.2,226.9L-703.3,225.5L-703,223.9L-703.3,222.3L-704.2,220.9L-705.6,220L-707.2,219.6M-707.2,219.6L-769.6,219.6M-670.4,219.6L-672,220L-673.4,220.9L-674.3,222.3L-674.6,223.9L-674.3,225.5L-673.4,226.9L-672,227.8L-670.4,228.1M-670.4,228.1L-608,228.1M-608,228.1L-606.4,227.8L-605,226.9L-604.1,225.5L-603.8,223.9L-604.1,222.3L-605,220.9L-606.4,220L-608,219.6M-608,219.6L-670.4,219.6M-372.7,202.6L-374.4,203L-375.7,203.9L-376.7,205.3L-377,206.9L-376.7,208.5L-375.7,209.9L-374.4,210.8L-372.7,211.1M-372.7,211.1L-310.4,211.1M-310.4,211.1L-308.7,210.8L-307.4,209.9L-306.4,208.5L-306.1,206.9L-306.4,205.3L-307.4,203.9L-308.7,203L-310.4,202.6M-310.4,202.6L-372.7,202.6M-868.8,202.6L-870.4,203L-871.8,203.9L-872.7,205.3L-873,206.9L-872.7,208.5L-871.8,209.9L-870.4,210.8L-868.8,211.1M-868.8,211.1L-806.4,211.1M-806.4,211.1L-804.8,210.8L-803.4,209.9L-802.5,208.5L-802.2,206.9L-802.5,205.3L-803.4,203.9L-804.8,203L-806.4,202.6M-806.4,202.6L-868.8,202.6M-273.5,202.6L-275.1,203L-276.5,203.9L-277.4,205.3L-277.8,206.9L-277.4,208.5L-276.5,209.9L-275.1,210.8L-273.5,211.1M-273.5,211.1L-211.2,211.1M-211.2,211.1L-209.5,210.8L-208.1,209.9L-207.2,208.5L-206.9,206.9L-207.2,205.3L-208.1,203.9L-209.5,203L-211.2,202.6M-211.2,202.6L-273.5,202.6M-174.3,202.6L-175.9,203L-177.3,203.9L-178.2,205.3L-178.6,206.9L-178.2,208.5L-177.3,209.9L-175.9,210.8L-174.3,211.1M-174.3,211.1L-111.9,211.1M-111.9,211.1L-110.3,210.8L-108.9,209.9L-108,208.5L-107.7,206.9L-108,205.3L-108.9,203.9L-110.3,203L-111.9,202.6M-111.9,202.6L-174.3,202.6M-75.1,202.6L-76.7,203L-78.1,203.9L-79,205.3L-79.3,206.9L-79,208.5L-78.1,209.9L-76.7,210.8L-75.1,211.1M-75.1,211.1L-12.7,211.1M-12.7,211.1L-11.1,210.8L-9.7,209.9L-8.8,208.5L-8.5,206.9L-8.8,205.3L-9.7,203.9L-11.1,203L-12.7,202.6M-12.7,202.6L-75.1,202.6M-571.2,202.6L-572.8,203L-574.2,203.9L-575.1,205.3L-575.4,206.9L-575.1,208.5L-574.2,209.9L-572.8,210.8L-571.2,211.1M-571.2,211.1L-508.8,211.1M-508.8,211.1L-507.2,210.8L-505.8,209.9L-504.9,208.5L-504.5,206.9L-504.9,205.3L-505.8,203.9L-507.2,203L-508.8,202.6M-508.8,202.6L-571.2,202.6M-769.6,202.6L-771.2,203L-772.6,203.9L-773.5,205.3L-773.8,206.9L-773.5,208.5L-772.6,209.9L-771.2,210.8L-769.6,211.1M-769.6,211.1L-707.2,211.1M-707.2,211.1L-705.6,210.8L-704.2,209.9L-703.3,208.5L-703,206.9L-703.3,205.3L-704.2,203.9L-705.6,203L-707.2,202.6M-707.2,202.6L-769.6,202.6M-670.4,202.6L-672,203L-673.4,203.9L-674.3,205.3L-674.6,206.9L-674.3,208.5L-673.4,209.9L-672,210.8L-670.4,211.1M-670.4,211.1L-608,211.1M-608,211.1L-606.4,210.8L-605,209.9L-604.1,208.5L-603.8,206.9L-604.1,205.3L-605,203.9L-606.4,203L-608,202.6M-608,202.6L-670.4,202.6M-927.8,-7.1L46.2,-7.1M50.9,1.9L49.8,-1.2L48.8,-4L47.7,-6L46.7,-7L46.2,-7.1M-927.8,-7.1L-928.8,-6.6L-929.8,-4.9L-930.9,-2.5L-931.9,0.6L-932.4,1.9M50.9,309.8L50.9,318.9M50.9,318.9L-932.4,318.9M-932.4,318.9L-932.4,309.8M49.8,-1.2L50.7,0.1L51.1,1.9M46.2,-7.1L49.7,-6.4L52.6,-4.5L54.6,-1.5L55.3,1.9M-932.6,1.9L-932.2,0.1L-931.3,-1.3M-936.8,1.9L-936.1,-1.5L-934.2,-4.5L-931.2,-6.4L-927.8,-7.1M-936.8,313.2L-932.6,313.2M-932.6,318.9L-936.8,318.9M-936.8,318.9L-936.8,313.2M-932.6,313.2L-932.6,318.9M-936.8,313.2L-936.8,309.8M-932.6,309.8L-932.6,313.2M55.3,318.9L51.1,318.9M51.1,313.2L55.3,313.2M55.3,313.2L55.3,318.9M51.1,318.9L51.1,313.2M55.3,313.2L55.3,309.8M51.1,309.8L51.1,313.2M50.9,407.1L49.8,403.9L48.8,401.2L47.7,399.2L46.7,398.1L46.2,398M-932.4,407.1L50.9,407.1M-927.8,398L-928.8,398.6L-929.8,400.2L-930.9,402.7L-931.9,405.7L-932.4,407.1M-927.8,398L46.2,398M-936.8,729.1L-932.4,729.1M-936.8,407.1L-936.8,729.1M50.9,407.1L55.3,407.1M55.3,407.1L55.3,729.1M55.3,729.1L50.9,729.1M-932.4,729.1L50.9,729.1M-932.4,407.1L-936.8,407.1M-932.4,738.2L-932.4,729.1M50.9,729.1L50.9,738.2M-936.8,407.1L-936.1,403.6L-934.2,400.7L-931.2,398.7L-927.8,398M-932.6,407.1L-932.2,405.2L-931.3,403.9M46.2,398L49.7,398.7L52.6,400.7L54.6,403.6L55.3,407.1M49.8,403.9L50.7,405.2L51.1,407.1M55.3,732.5L55.3,729.1M51.1,732.5L55.3,732.5M51.1,729.1L51.1,732.5M51.1,738.2L51.1,732.5M55.3,732.5L55.3,738.2M-936.8,732.5L-932.6,732.5M-936.8,738.2L-936.8,732.5M-932.6,732.5L-932.6,738.2M-936.8,732.5L-936.8,729.1M-932.6,729.1L-932.6,732.5M155.3,738.2L155.6,738.5L156,739.6L156.4,741.2L156.7,743.2L157,744.5M157,744.5L-1038.5,744.5M-1038.5,744.5L-1038.1,742.4L-1037.7,740.5L-1037.4,739.1L-1037,738.3L-1036.8,738.2M-1036.8,738.2L155.3,738.2M-1041.7,744.5L-1042,744.5L-1042.2,744.6L-1042.5,744.7L-1042.9,745.1L-1043.1,745.7L-1043.1,745.9M-1038.5,744.5L-1041.7,744.5M157,744.5L160.2,744.5M161.6,745.9L161.6,745.7L161.4,745.1L161,744.7L160.7,744.6L160.5,744.5L160.2,744.5M161.6,745.9L161.6,899.2M160.2,900.6L160.5,900.5L160.7,900.5L161,900.3L161.2,900.2L161.4,899.9L161.5,899.7L161.6,899.4L161.6,899.2M160.2,900.6L157,900.6M-1038.5,900.6L157,900.6M-1041.7,900.6L-1038.5,900.6M-1043.1,899.2L-1043.1,899.4L-1043,899.7L-1042.9,899.9L-1042.7,900.2L-1042.5,900.3L-1042.2,900.5L-1042,900.5L-1041.7,900.6M-1043.1,745.9L-1043.1,899.2M-185.6,850.9L-58.1,850.9M-58.1,850.9L-58.1,794.2M-58.1,794.2L-185.6,794.2M-185.6,794.2L-185.6,850.9M-748.1,813L-748.2,812.3L-748.6,811.7L-749.2,811.3L-749.9,811.2L-750.7,811.3L-751.3,811.7L-751.7,812.3L-751.8,813L-751.7,813.7L-751.3,814.3L-750.7,814.7L-749.9,814.9L-749.2,814.7L-748.6,814.3L-748.2,813.7L-748.1,813M154,905.1L-1035.5,905.1M-1035.5,905.1L-1036.2,904.1L-1037,903L-1037.7,901.8L-1038.5,900.6M157,900.6L156.2,901.8L155.5,903L154.7,904.1L154,905.1M-1035.5,905.1L-1035.8,905.1L-1036.2,905.2L-1036.6,905.6L-1036.7,905.9L-1036.7,906.4L-1036.5,906.6M155,906.6L155.2,906.2L155.2,905.9L155.1,905.6L154.9,905.4L154.6,905.2L154.3,905.1L154,905.1M105.7,955.9L155,906.6M104.6,956.3L104.9,956.3L105.1,956.2L105.2,956.2L105.4,956.1L105.6,955.9L105.7,955.9M102.7,956.3L104.6,956.3M102.7,956.3L-984.3,956.3M-986.1,956.3L-984.3,956.3M-987.3,955.9L-987.2,955.9L-987,956L-986.8,956.2L-986.6,956.2L-986.4,956.3L-986.1,956.3M-1036.5,906.6L-987.3,955.9M-1041.7,900.6L-1043.1,900.6M-1041.7,744.5L-1043.1,744.5M-1043.1,744.5L-1043.1,745.9M-1043.1,899.2L-1043.1,900.6M160.2,900.6L161.6,900.6M161.6,744.5L161.6,745.9M161.6,899.2L161.6,900.6M160.2,744.5L161.6,744.5M157.4,744.5L157.2,743.7L156.7,743M161.6,744.5L161.1,742.1L159.7,740L157.7,738.7L155.3,738.2M-1038.2,743L-1038.3,743L-1038.7,743.7L-1038.9,744.5M-1036.8,738.2L-1039.2,738.7L-1041.3,740L-1042.6,742.1L-1043.1,744.5M-1038.9,900.6L-1038.8,901.1L-1038.3,902.1M-1041.3,905.1L-1038.3,902.1M-1043.1,900.6L-1043,901.8L-1042.6,903L-1042.1,904.1L-1041.3,905.1M159.7,905.1L156.7,902.1M156.7,902.1L157,901.7L157.3,901.2L157.4,900.6M159.7,905.1L160.5,904.1L161.1,903L161.5,901.8L161.6,900.6M-1038.3,902.1L-1038.2,902.1L-1036.7,903.6M-1039.7,906.6L-1039.9,906.4L-1040.2,906.2L-1040.4,905.9L-1041.2,905.1L-1041.3,905.1M155.2,903.6L155.4,903.4L155.6,903.1L155.9,902.9L156.7,902.1M159.7,905.1L158.9,905.9L158.7,906.2L158.4,906.4L158.2,906.6M-1039.7,906.6L-990.5,955.9M109,955.9L158.2,906.6M102.7,956.3L102.7,958.1M-984.3,958.1L102.7,958.1M-984.3,958.1L-984.3,956.3M-988.4,954.7L-990,956.3M-990,956.3L-990.1,956.3L-990.1,956.2L-990.2,956.2L-990.2,956.1L-990.4,955.9L-990.5,955.9M108.5,956.3L106.9,954.7M109,955.9L108.9,955.9L108.6,956.2L108.6,956.3L108.5,956.3M-985.6,958.1L-984.5,958.1M-984.5,956.3L-984.5,958.1M-984.3,958.1L-984.5,958.1M102.9,956.3L102.9,958.1M102.9,958.1L102.7,958.1M102.9,958.1L104,958.1M-990,956.3L-989.6,956.7L-989.1,957.1L-988.5,957.4L-988,957.7L-987.4,957.9L-986.2,958.1L-985.6,958.1M104,958.1L104.7,958.1L105.9,957.9L106.5,957.7L107,957.4L107.6,957.1L108.1,956.7L108.5,956.3M-840.3,831.8L-840.3,832.9M-1036.7,903.7L-1038.7,905.6L-1039.7,906.6M158.2,906.6L156.2,904.6L155.2,903.7M-990.5,955.9L-988.9,954.3M107.3,954.3L109,955.9M-985.6,956.3L-985.6,958.1M104,956.3L104,958.1" style="fill:none;fill-rule:nonzero;stroke:black;stroke-width:1.05px;"/>
        </g>
        <g transform="matrix(1.14376,0,0,1.14376,4099.98,-324.209)">
            <path d="M449.3,1094.1L448.8,1091.2L447.3,1088.7L445,1086.8L442.3,1085.7L439.3,1085.7L436.5,1086.8L434.3,1088.7L432.8,1091.2L432.3,1094.1L432.8,1097L434.3,1099.6L436.5,1101.5L439.3,1102.5L442.3,1102.5L445,1101.5L447.3,1099.6L448.8,1097L449.3,1094.1M-76.5,1050.2L-71.3,1049.7L-66.2,1048.2L-61.6,1045.7L-57.5,1042.4L-54.1,1038.3L-51.7,1033.7L-50.1,1028.6L-49.6,1023.4L-50.1,1018.1L-51.7,1013L-54.1,1008.4L-57.5,1004.3L-61.6,1001L-66.2,998.5L-71.3,996.9L-76.5,996.4L-81.8,996.9L-86.8,998.5L-91.5,1001L-95.6,1004.3L-98.9,1008.4L-101.4,1013L-102.9,1018.1L-103.5,1023.4L-102.9,1028.6L-101.4,1033.7L-98.9,1038.3L-95.6,1042.4L-91.5,1045.7L-86.8,1048.2L-81.8,1049.7L-76.5,1050.2M-360.7,992.3L-361.6,993.6L-362,995.2L-361.8,996.9L-360.9,998.3L-359.5,999.2L-357.9,999.6L-356.3,999.4L-354.9,998.5M-354.9,998.5L-353.4,997.2L-351.9,996L-350.3,994.9L-348.7,993.9L-347,993L-343.4,991.4L-341.6,990.8M-341.6,990.8L-340.1,990L-339.1,988.7L-338.6,987.2L-338.8,985.5L-339.5,984L-340.8,983L-342.4,982.5L-344.1,982.7M-344.1,982.7L-346.4,983.5L-348.6,984.4L-350.8,985.4L-352.9,986.5L-355,987.8L-357,989.2L-358.9,990.7L-360.7,992.3M-373.1,1032.9L-372.4,1034.4L-371.2,1035.6L-369.6,1036.2L-368,1036.1L-366.5,1035.4L-365.3,1034.2L-364.7,1032.7L-364.8,1031M-364.8,1031L-365.2,1029.1L-365.5,1027.2L-365.7,1023.4L-365.6,1021.4L-365.5,1019.5L-365.2,1017.6L-364.8,1015.7M-364.8,1015.7L-364.7,1014L-365.3,1012.5L-366.5,1011.3L-368,1010.6L-369.6,1010.5L-371.2,1011.1L-372.4,1012.3L-373.1,1013.8M-373.1,1013.8L-373.6,1016.1L-373.9,1018.5L-374.1,1020.9L-374.2,1023.4L-374.1,1025.8L-373.9,1028.2L-373.6,1030.6L-373.1,1032.9M-344.1,1063.9L-342.4,1064.1L-340.8,1063.6L-339.5,1062.6L-338.8,1061.1L-338.6,1059.4L-339.1,1057.9L-340.1,1056.6L-341.6,1055.8M-341.6,1055.8L-343.4,1055.2L-347,1053.6L-348.7,1052.7L-350.3,1051.7L-351.9,1050.6L-354.9,1048.2M-354.9,1048.2L-356.3,1047.3L-357.9,1047.1L-359.5,1047.5L-360.9,1048.4L-361.8,1049.7L-362,1051.4L-361.6,1053L-360.7,1054.3M-360.7,1054.3L-358.9,1055.9L-357,1057.4L-355,1058.8L-352.9,1060.1L-350.8,1061.2L-348.6,1062.2L-346.4,1063.1L-344.1,1063.9M-302.6,1054.3L-301.7,1053L-301.3,1051.4L-301.6,1049.7L-302.4,1048.4L-303.8,1047.5L-305.4,1047.1L-307,1047.3L-308.4,1048.2M-308.4,1048.2L-311.4,1050.6L-313,1051.7L-314.6,1052.7L-316.3,1053.6L-319.9,1055.2L-321.7,1055.8M-321.7,1055.8L-323.2,1056.6L-324.2,1057.9L-324.7,1059.4L-324.6,1061.1L-323.8,1062.6L-322.5,1063.6L-320.9,1064.1L-319.2,1063.9M-319.2,1063.9L-317,1063.1L-314.7,1062.2L-312.5,1061.2L-310.4,1060.1L-308.3,1058.8L-306.4,1057.4L-304.5,1055.9L-302.6,1054.3M-290.2,1013.8L-290.9,1012.3L-292.1,1011.1L-293.7,1010.5L-295.3,1010.6L-296.8,1011.3L-298,1012.5L-298.6,1014L-298.5,1015.7M-298.5,1015.7L-298.1,1017.6L-297.7,1021.4L-297.6,1023.4L-297.7,1025.3L-298.1,1029.1L-298.5,1031M-298.5,1031L-298.6,1032.7L-298,1034.2L-296.8,1035.4L-295.3,1036.1L-293.7,1036.2L-292.1,1035.6L-290.9,1034.4L-290.2,1032.9M-290.2,1032.9L-289.8,1030.6L-289.4,1028.2L-289.2,1025.8L-289.1,1023.4L-289.2,1020.9L-289.4,1018.5L-289.8,1016.1L-290.2,1013.8M-331.7,1050.2L-326.4,1049.7L-321.4,1048.2L-316.7,1045.7L-312.6,1042.4L-309.3,1038.3L-306.8,1033.7L-305.2,1028.6L-304.7,1023.4L-305.2,1018.1L-306.8,1013L-309.3,1008.4L-312.6,1004.3L-316.7,1001L-321.4,998.5L-326.4,996.9L-331.7,996.4L-336.9,996.9L-342,998.5L-346.6,1001L-350.7,1004.3L-354,1008.4L-356.5,1013L-358.1,1018.1L-358.6,1023.4L-358.1,1028.6L-356.5,1033.7L-354,1038.3L-350.7,1042.4L-346.6,1045.7L-342,1048.2L-336.9,1049.7L-331.7,1050.2M-191.7,982.7L-193.3,982.5L-194.9,983L-196.2,984L-197,985.5L-197.2,987.2L-196.7,988.7L-195.6,990L-194.2,990.8M-194.2,990.8L-192.3,991.4L-190.5,992.2L-188.8,993L-187.1,993.9L-185.4,994.9L-183.9,996L-182.3,997.2L-180.9,998.5M-180.9,998.5L-179.5,999.4L-177.8,999.6L-176.2,999.2L-174.9,998.3L-174,996.9L-173.7,995.2L-174.1,993.6L-175.1,992.3M-175.1,992.3L-176.9,990.7L-178.8,989.2L-180.8,987.8L-182.8,986.5L-185,985.4L-187.2,984.4L-189.4,983.5L-191.7,982.7M-233.1,992.3L-234.1,993.6L-234.5,995.2L-234.2,996.9L-233.3,998.3L-232,999.2L-230.4,999.6L-228.7,999.4L-227.3,998.5M-227.3,998.5L-225.9,997.2L-224.3,996L-222.8,994.9L-221.1,993.9L-219.4,993L-217.7,992.2L-215.9,991.4L-214,990.8M-214,990.8L-212.6,990L-211.5,988.7L-211,987.2L-211.2,985.5L-212,984L-213.3,983L-214.9,982.5L-216.5,982.7M-216.5,982.7L-218.8,983.5L-221,984.4L-223.2,985.4L-225.4,986.5L-227.4,987.8L-229.4,989.2L-231.3,990.7L-233.1,992.3M-319.2,982.7L-320.9,982.5L-322.5,983L-323.8,984L-324.6,985.5L-324.7,987.2L-324.2,988.7L-323.2,990L-321.7,990.8M-321.7,990.8L-319.9,991.4L-316.3,993L-314.6,993.9L-313,994.9L-311.4,996L-309.9,997.2L-308.4,998.5M-308.4,998.5L-307,999.4L-305.4,999.6L-303.8,999.2L-302.4,998.3L-301.6,996.9L-301.3,995.2L-301.7,993.6L-302.6,992.3M-302.6,992.3L-304.5,990.7L-306.4,989.2L-308.3,987.8L-310.4,986.5L-312.5,985.4L-314.7,984.4L-317,983.5L-319.2,982.7M80,1054.3L81,1053L81.4,1051.4L81.1,1049.7L80.2,1048.4L78.9,1047.5L77.3,1047.1L75.6,1047.3L74.2,1048.2M74.2,1048.2L72.8,1049.4L71.3,1050.6L69.7,1051.7L68,1052.7L66.3,1053.6L64.6,1054.4L62.8,1055.2L60.9,1055.8M60.9,1055.8L59.5,1056.6L58.4,1057.9L58,1059.4L58.1,1061.1L58.9,1062.6L60.2,1063.6L61.8,1064.1L63.4,1063.9M63.4,1063.9L65.7,1063.1L68,1062.2L70.2,1061.2L72.3,1060.1L74.3,1058.8L76.3,1057.4L78.2,1055.9L80,1054.3M38.6,1063.9L40.3,1064.1L41.8,1063.6L43.1,1062.6L43.9,1061.1L44.1,1059.4L43.6,1057.9L42.6,1056.6L41.1,1055.8M41.1,1055.8L39.3,1055.2L35.7,1053.6L34,1052.7L32.4,1051.7L30.8,1050.6L27.8,1048.2M27.8,1048.2L26.4,1047.3L24.8,1047.1L23.1,1047.5L21.8,1048.4L20.9,1049.7L20.7,1051.4L21,1053L22,1054.3M22,1054.3L23.8,1055.9L25.7,1057.4L27.7,1058.8L29.8,1060.1L31.9,1061.2L34.1,1062.2L36.3,1063.1L38.6,1063.9M9.6,1032.9L10.3,1034.4L11.5,1035.6L13,1036.2L14.7,1036.1L16.2,1035.4L17.3,1034.2L17.9,1032.7L17.9,1031M17.9,1031L17.5,1029.1L17.2,1027.2L17,1023.4L17.1,1021.4L17.2,1019.5L17.5,1017.6L17.9,1015.7M17.9,1015.7L17.9,1014L17.3,1012.5L16.2,1011.3L14.7,1010.6L13,1010.5L11.5,1011.1L10.3,1012.3L9.6,1013.8M9.6,1013.8L9.1,1016.1L8.8,1018.5L8.6,1020.9L8.5,1023.4L8.6,1025.8L8.8,1028.2L9.1,1030.6L9.6,1032.9M22,992.3L21,993.6L20.7,995.2L20.9,996.9L21.8,998.3L23.1,999.2L24.8,999.6L26.4,999.4L27.8,998.5M27.8,998.5L29.3,997.2L30.8,996L32.4,994.9L34,993.9L35.7,993L39.3,991.4L41.1,990.8M41.1,990.8L42.6,990L43.6,988.7L44.1,987.2L43.9,985.5L43.1,984L41.8,983L40.3,982.5L38.6,982.7M38.6,982.7L36.3,983.5L34.1,984.4L31.9,985.4L29.8,986.5L27.7,987.8L25.7,989.2L23.8,990.7L22,992.3M207.6,1054.3L208.6,1053L208.9,1051.4L208.7,1049.7L207.8,1048.4L206.5,1047.5L204.8,1047.1L203.2,1047.3L201.8,1048.2M201.8,1048.2L198.8,1050.6L197.2,1051.7L195.6,1052.7L193.9,1053.6L190.3,1055.2L188.5,1055.8M188.5,1055.8L187,1056.6L186,1057.9L185.5,1059.4L185.7,1061.1L186.5,1062.6L187.8,1063.6L189.3,1064.1L191,1063.9M191,1063.9L193.3,1063.1L195.5,1062.2L197.7,1061.2L199.8,1060.1L201.9,1058.8L203.9,1057.4L205.8,1055.9L207.6,1054.3M220,1013.8L219.3,1012.3L218.1,1011.1L216.6,1010.5L214.9,1010.6L213.4,1011.3L212.3,1012.5L211.7,1014L211.7,1015.7M211.7,1015.7L212.1,1017.6L212.4,1019.5L212.5,1021.4L212.6,1023.4L212.4,1027.2L212.1,1029.1L211.7,1031M211.7,1031L211.7,1032.7L212.3,1034.2L213.4,1035.4L214.9,1036.1L216.6,1036.2L218.1,1035.6L219.3,1034.4L220,1032.9M220,1032.9L220.5,1030.6L220.8,1028.2L221,1025.8L221.1,1023.4L221,1020.9L220.8,1018.5L220.5,1016.1L220,1013.8M178.6,1050.2L183.8,1049.7L188.9,1048.2L193.5,1045.7L197.6,1042.4L201,1038.3L203.5,1033.7L205,1028.6L205.5,1023.4L205,1018.1L203.5,1013L201,1008.4L197.6,1004.3L193.5,1001L188.9,998.5L183.8,996.9L178.6,996.4L173.3,996.9L168.3,998.5L163.6,1001L159.5,1004.3L156.2,1008.4L153.7,1013L152.2,1018.1L151.7,1023.4L152.2,1028.6L153.7,1033.7L156.2,1038.3L159.5,1042.4L163.6,1045.7L168.3,1048.2L173.3,1049.7L178.6,1050.2M63.4,982.7L61.8,982.5L60.2,983L58.9,984L58.1,985.5L58,987.2L58.4,988.7L59.5,990L60.9,990.8M60.9,990.8L62.8,991.4L64.6,992.2L66.3,993L68,993.9L69.7,994.9L71.3,996L72.8,997.2L74.2,998.5M74.2,998.5L75.6,999.4L77.3,999.6L78.9,999.2L80.2,998.3L81.1,996.9L81.4,995.2L81,993.6L80,992.3M80,992.3L78.2,990.7L76.3,989.2L74.3,987.8L72.3,986.5L70.2,985.4L68,984.4L65.7,983.5L63.4,982.7M-35.1,1013.8L-35.8,1012.3L-37,1011.1L-38.6,1010.5L-40.2,1010.6L-41.7,1011.3L-42.9,1012.5L-43.4,1014L-43.4,1015.7M-43.4,1015.7L-43,1017.6L-42.7,1019.5L-42.6,1021.4L-42.5,1023.4L-42.7,1027.2L-43,1029.1L-43.4,1031M-43.4,1031L-43.4,1032.7L-42.9,1034.2L-41.7,1035.4L-40.2,1036.1L-38.6,1036.2L-37,1035.6L-35.8,1034.4L-35.1,1032.9M-35.1,1032.9L-34.6,1030.6L-34.3,1028.2L-34.1,1025.8L-34,1023.4L-34.1,1020.9L-34.3,1018.5L-34.6,1016.1L-35.1,1013.8M51,1050.2L56.3,1049.7L61.3,1048.2L66,1045.7L70.1,1042.4L73.4,1038.3L75.9,1033.7L77.4,1028.6L78,1023.4L77.4,1018.1L75.9,1013L73.4,1008.4L70.1,1004.3L66,1001L61.3,998.5L56.3,996.9L51,996.4L45.8,996.9L40.7,998.5L36.1,1001L32,1004.3L28.6,1008.4L26.1,1013L24.6,1018.1L24.1,1023.4L24.6,1028.6L26.1,1033.7L28.6,1038.3L32,1042.4L36.1,1045.7L40.7,1048.2L45.8,1049.7L51,1050.2M-47.5,1054.3L-46.6,1053L-46.2,1051.4L-46.4,1049.7L-47.3,1048.4L-48.7,1047.5L-50.3,1047.1L-51.9,1047.3L-53.3,1048.2M-53.3,1048.2L-56.3,1050.6L-57.9,1051.7L-59.5,1052.7L-61.2,1053.6L-64.8,1055.2L-66.6,1055.8M-66.6,1055.8L-68.1,1056.6L-69.1,1057.9L-69.6,1059.4L-69.4,1061.1L-68.7,1062.6L-67.4,1063.6L-65.8,1064.1L-64.1,1063.9M-64.1,1063.9L-61.8,1063.1L-59.6,1062.2L-57.4,1061.2L-55.3,1060.1L-53.2,1058.8L-51.2,1057.4L-49.3,1055.9L-47.5,1054.3M-88.9,1063.9L-87.3,1064.1L-85.7,1063.6L-84.4,1062.6L-83.6,1061.1L-83.5,1059.4L-84,1057.9L-85,1056.6L-86.5,1055.8M-86.5,1055.8L-88.3,1055.2L-90.1,1054.4L-91.8,1053.6L-93.5,1052.7L-95.2,1051.7L-96.8,1050.6L-98.3,1049.4L-99.7,1048.2M-99.7,1048.2L-101.2,1047.3L-102.8,1047.1L-104.4,1047.5L-105.8,1048.4L-106.6,1049.7L-106.9,1051.4L-106.5,1053L-105.6,1054.3M-105.6,1054.3L-103.7,1055.9L-101.8,1057.4L-99.9,1058.8L-97.8,1060.1L-95.7,1061.2L-93.5,1062.2L-91.2,1063.1L-88.9,1063.9M-118,1032.9L-117.3,1034.4L-116.1,1035.6L-114.5,1036.2L-112.9,1036.1L-111.3,1035.4L-110.2,1034.2L-109.6,1032.7L-109.7,1031M-109.7,1031L-110.1,1029.1L-110.5,1025.3L-110.6,1023.4L-110.5,1021.4L-110.1,1017.6L-109.7,1015.7M-109.7,1015.7L-109.6,1014L-110.2,1012.5L-111.3,1011.3L-112.9,1010.6L-114.5,1010.5L-116.1,1011.1L-117.3,1012.3L-118,1013.8M-118,1013.8L-118.4,1016.1L-118.8,1018.5L-119,1020.9L-119.1,1023.4L-119,1025.8L-118.8,1028.2L-118.4,1030.6L-118,1032.9M-105.6,992.3L-106.5,993.6L-106.9,995.2L-106.6,996.9L-105.8,998.3L-104.4,999.2L-102.8,999.6L-101.2,999.4L-99.7,998.5M-99.7,998.5L-98.3,997.2L-96.8,996L-95.2,994.9L-93.5,993.9L-91.8,993L-90.1,992.2L-88.3,991.4L-86.5,990.8M-86.5,990.8L-85,990L-84,988.7L-83.5,987.2L-83.6,985.5L-84.4,984L-85.7,983L-87.3,982.5L-88.9,982.7M-88.9,982.7L-91.2,983.5L-93.5,984.4L-95.7,985.4L-97.8,986.5L-99.9,987.8L-101.8,989.2L-103.7,990.7L-105.6,992.3M-64.1,982.7L-65.8,982.5L-67.4,983L-68.7,984L-69.4,985.5L-69.6,987.2L-69.1,988.7L-68.1,990L-66.6,990.8M-66.6,990.8L-64.8,991.4L-61.2,993L-59.5,993.9L-57.9,994.9L-56.3,996L-54.8,997.2L-53.3,998.5M-53.3,998.5L-51.9,999.4L-50.3,999.6L-48.7,999.2L-47.3,998.3L-46.4,996.9L-46.2,995.2L-46.6,993.6L-47.5,992.3M-47.5,992.3L-49.3,990.7L-51.2,989.2L-53.2,987.8L-55.3,986.5L-57.4,985.4L-59.6,984.4L-61.8,983.5L-64.1,982.7M92.4,1013.8L91.8,1012.3L90.6,1011.1L89,1010.5L87.3,1010.6L85.8,1011.3L84.7,1012.5L84.1,1014L84.2,1015.7M84.2,1015.7L84.8,1019.5L85,1021.4L85,1025.3L84.8,1027.2L84.2,1031M84.2,1031L84.1,1032.7L84.7,1034.2L85.8,1035.4L87.3,1036.1L89,1036.2L90.6,1035.6L91.8,1034.4L92.4,1032.9M92.4,1032.9L92.9,1030.6L93.3,1028.2L93.5,1025.8L93.5,1020.9L93.3,1018.5L92.9,1016.1L92.4,1013.8M-204.1,1050.2L-198.8,1049.7L-193.8,1048.2L-189.1,1045.7L-185.1,1042.4L-181.7,1038.3L-179.2,1033.7L-177.7,1028.6L-177.2,1023.4L-177.7,1018.1L-179.2,1013L-181.7,1008.4L-185.1,1004.3L-189.1,1001L-193.8,998.5L-198.8,996.9L-204.1,996.4L-209.4,996.9L-214.4,998.5L-219.1,1001L-223.1,1004.3L-226.5,1008.4L-229,1013L-230.5,1018.1L-231,1023.4L-230.5,1028.6L-229,1033.7L-226.5,1038.3L-223.1,1042.4L-219.1,1045.7L-214.4,1048.2L-209.4,1049.7L-204.1,1050.2M318.5,982.7L316.9,982.5L315.3,983L314,984L313.2,985.5L313.1,987.2L313.6,988.7L314.6,990L316.1,990.8M316.1,990.8L317.9,991.4L319.7,992.2L321.4,993L323.1,993.9L324.8,994.9L326.4,996L327.9,997.2L329.4,998.5M329.4,998.5L330.8,999.4L332.4,999.6L334,999.2L335.4,998.3L336.2,996.9L336.5,995.2L336.1,993.6L335.2,992.3M335.2,992.3L333.3,990.7L331.4,989.2L329.5,987.8L327.4,986.5L325.3,985.4L323.1,984.4L320.8,983.5L318.5,982.7M277.1,992.3L276.2,993.6L275.8,995.2L276,996.9L276.9,998.3L278.3,999.2L279.9,999.6L281.5,999.4L282.9,998.5M282.9,998.5L284.4,997.2L285.9,996L287.5,994.9L289.1,993.9L290.8,993L294.4,991.4L296.2,990.8M296.2,990.8L297.7,990L298.7,988.7L299.2,987.2L299,985.5L298.3,984L297,983L295.4,982.5L293.7,982.7M293.7,982.7L291.4,983.5L289.2,984.4L287,985.4L284.9,986.5L282.8,987.8L280.8,989.2L278.9,990.7L277.1,992.3M264.7,1032.9L265.4,1034.4L266.6,1035.6L268.2,1036.2L269.8,1036.1L271.3,1035.4L272.5,1034.2L273.1,1032.7L273,1031M273,1031L272.6,1029.1L272.3,1027.2L272.1,1023.4L272.2,1021.4L272.3,1019.5L272.6,1017.6L273,1015.7M273,1015.7L273.1,1014L272.5,1012.5L271.3,1011.3L269.8,1010.6L268.2,1010.5L266.6,1011.1L265.4,1012.3L264.7,1013.8M264.7,1013.8L264.2,1016.1L263.9,1018.5L263.7,1020.9L263.6,1023.4L263.7,1025.8L263.9,1028.2L264.2,1030.6L264.7,1032.9M-162.7,1013.8L-163.4,1012.3L-164.6,1011.1L-166.1,1010.5L-167.8,1010.6L-169.3,1011.3L-170.4,1012.5L-171,1014L-171,1015.7M-171,1015.7L-170.6,1017.6L-170.3,1019.5L-170.1,1021.4L-170.1,1025.3L-170.3,1027.2L-170.6,1029.1L-171,1031M-171,1031L-171,1032.7L-170.4,1034.2L-169.3,1035.4L-167.8,1036.1L-166.1,1036.2L-164.6,1035.6L-163.4,1034.4L-162.7,1032.9M-162.7,1032.9L-162.2,1030.6L-161.6,1025.8L-161.6,1020.9L-162.2,1016.1L-162.7,1013.8M-175.1,1054.3L-174.1,1053L-173.7,1051.4L-174,1049.7L-174.9,1048.4L-176.2,1047.5L-177.8,1047.1L-179.5,1047.3L-180.9,1048.2M-180.9,1048.2L-182.3,1049.4L-183.9,1050.6L-185.4,1051.7L-187.1,1052.7L-188.8,1053.6L-190.5,1054.4L-192.3,1055.2L-194.2,1055.8M-194.2,1055.8L-195.6,1056.6L-196.7,1057.9L-197.2,1059.4L-197,1061.1L-196.2,1062.6L-194.9,1063.6L-193.3,1064.1L-191.7,1063.9M-191.7,1063.9L-189.4,1063.1L-187.2,1062.2L-185,1061.2L-182.8,1060.1L-180.8,1058.8L-178.8,1057.4L-176.9,1055.9L-175.1,1054.3M-216.5,1063.9L-214.9,1064.1L-213.3,1063.6L-212,1062.6L-211.2,1061.1L-211,1059.4L-211.5,1057.9L-212.6,1056.6L-214,1055.8M-214,1055.8L-215.9,1055.2L-217.7,1054.4L-219.4,1053.6L-221.1,1052.7L-222.8,1051.7L-224.3,1050.6L-225.9,1049.4L-227.3,1048.2M-227.3,1048.2L-228.7,1047.3L-230.4,1047.1L-232,1047.5L-233.3,1048.4L-234.2,1049.7L-234.5,1051.4L-234.1,1053L-233.1,1054.3M-233.1,1054.3L-231.3,1055.9L-229.4,1057.4L-227.4,1058.8L-225.4,1060.1L-223.2,1061.2L-221,1062.2L-218.8,1063.1L-216.5,1063.9M-245.5,1032.9L-244.8,1034.4L-243.6,1035.6L-242.1,1036.2L-240.4,1036.1L-238.9,1035.4L-237.8,1034.2L-237.2,1032.7L-237.2,1031M-237.2,1031L-237.6,1029.1L-237.9,1027.2L-238.1,1025.3L-238.1,1021.4L-237.9,1019.5L-237.6,1017.6L-237.2,1015.7M-237.2,1015.7L-237.2,1014L-237.8,1012.5L-238.9,1011.3L-240.4,1010.6L-242.1,1010.5L-243.6,1011.1L-244.8,1012.3L-245.5,1013.8M-245.5,1013.8L-246,1016.1L-246.3,1018.5L-246.5,1020.9L-246.6,1023.4L-246.5,1025.8L-246.3,1028.2L-246,1030.6L-245.5,1032.9M306.1,1050.2L311.4,1049.7L316.4,1048.2L321.1,1045.7L325.2,1042.4L328.5,1038.3L331,1033.7L332.6,1028.6L333.1,1023.4L332.6,1018.1L331,1013L328.5,1008.4L325.2,1004.3L321.1,1001L316.4,998.5L311.4,996.9L306.1,996.4L300.9,996.9L295.8,998.5L291.2,1001L287.1,1004.3L283.7,1008.4L281.3,1013L279.7,1018.1L279.2,1023.4L279.7,1028.6L281.3,1033.7L283.7,1038.3L287.1,1042.4L291.2,1045.7L295.8,1048.2L300.9,1049.7L306.1,1050.2M347.6,1013.8L346.9,1012.3L345.7,1011.1L344.1,1010.5L342.5,1010.6L341,1011.3L339.8,1012.5L339.2,1014L339.3,1015.7M339.3,1015.7L339.7,1017.6L340.1,1021.4L340.2,1023.4L340.1,1025.3L339.7,1029.1L339.3,1031M339.3,1031L339.2,1032.7L339.8,1034.2L341,1035.4L342.5,1036.1L344.1,1036.2L345.7,1035.6L346.9,1034.4L347.6,1032.9M347.6,1032.9L348,1030.6L348.4,1028.2L348.6,1025.8L348.7,1023.4L348.6,1020.9L348.4,1018.5L348,1016.1L347.6,1013.8M335.2,1054.3L336.1,1053L336.5,1051.4L336.2,1049.7L335.4,1048.4L334,1047.5L332.4,1047.1L330.8,1047.3L329.4,1048.2M329.4,1048.2L326.4,1050.6L324.8,1051.7L323.1,1052.7L321.4,1053.6L319.7,1054.4L317.9,1055.2L316.1,1055.8M316.1,1055.8L314.6,1056.6L313.6,1057.9L313.1,1059.4L313.2,1061.1L314,1062.6L315.3,1063.6L316.9,1064.1L318.5,1063.9M318.5,1063.9L320.8,1063.1L323.1,1062.2L325.3,1061.2L327.4,1060.1L329.5,1058.8L331.4,1057.4L333.3,1055.9L335.2,1054.3M293.7,1063.9L295.4,1064.1L297,1063.6L298.3,1062.6L299,1061.1L299.2,1059.4L298.7,1057.9L297.7,1056.6L296.2,1055.8M296.2,1055.8L294.4,1055.2L290.8,1053.6L289.1,1052.7L287.5,1051.7L285.9,1050.6L282.9,1048.2M282.9,1048.2L281.5,1047.3L279.9,1047.1L278.3,1047.5L276.9,1048.4L276,1049.7L275.8,1051.4L276.2,1053L277.1,1054.3M277.1,1054.3L278.9,1055.9L280.8,1057.4L282.8,1058.8L284.9,1060.1L287,1061.2L289.2,1062.2L291.4,1063.1L293.7,1063.9M191,982.7L189.3,982.5L187.8,983L186.5,984L185.7,985.5L185.5,987.2L186,988.7L187,990L188.5,990.8M188.5,990.8L190.3,991.4L193.9,993L195.6,993.9L197.2,994.9L198.8,996L200.3,997.2L201.8,998.5M201.8,998.5L203.2,999.4L204.8,999.6L206.5,999.2L207.8,998.3L208.7,996.9L208.9,995.2L208.6,993.6L207.6,992.3M207.6,992.3L205.8,990.7L203.9,989.2L201.9,987.8L199.8,986.5L197.7,985.4L195.5,984.4L193.3,983.5L191,982.7M149.6,992.3L148.6,993.6L148.2,995.2L148.5,996.9L149.4,998.3L150.7,999.2L152.3,999.6L154,999.4L155.4,998.5M155.4,998.5L156.8,997.2L158.3,996L159.9,994.9L161.6,993.9L163.3,993L165,992.2L166.8,991.4L168.7,990.8M168.7,990.8L170.1,990L171.2,988.7L171.6,987.2L171.5,985.5L170.7,984L169.4,983L167.8,982.5L166.2,982.7M166.2,982.7L163.9,983.5L161.6,984.4L159.4,985.4L157.3,986.5L155.3,987.8L153.3,989.2L151.4,990.7L149.6,992.3M137.2,1032.9L137.8,1034.4L139,1035.6L140.6,1036.2L142.3,1036.1L143.8,1035.4L144.9,1034.2L145.5,1032.7L145.4,1031M145.4,1031L144.8,1027.2L144.6,1025.3L144.6,1021.4L144.8,1019.5L145.4,1015.7M145.4,1015.7L145.5,1014L144.9,1012.5L143.8,1011.3L142.3,1010.6L140.6,1010.5L139,1011.1L137.8,1012.3L137.2,1013.8M137.2,1013.8L136.7,1016.1L136.3,1018.5L136.1,1020.9L136.1,1025.8L136.3,1028.2L136.7,1030.6L137.2,1032.9M166.2,1063.9L167.8,1064.1L169.4,1063.6L170.7,1062.6L171.5,1061.1L171.6,1059.4L171.2,1057.9L170.1,1056.6L168.7,1055.8M168.7,1055.8L166.8,1055.2L165,1054.4L163.3,1053.6L161.6,1052.7L159.9,1051.7L158.3,1050.6L156.8,1049.4L155.4,1048.2M155.4,1048.2L154,1047.3L152.3,1047.1L150.7,1047.5L149.4,1048.4L148.5,1049.7L148.2,1051.4L148.6,1053L149.6,1054.3M149.6,1054.3L151.4,1055.9L153.3,1057.4L155.3,1058.8L157.3,1060.1L159.4,1061.2L161.6,1062.2L163.9,1063.1L166.2,1063.9M-119.1,902.9L-111.1,902.4L-103.2,900.9L-95.6,898.4L-88.3,895L-81.6,890.7L-75.4,885.6L-69.9,879.8L-65.2,873.3L-61.3,866.3L-58.4,858.8L-56.4,851L-55.4,843.1L-55.4,835.1L-56.4,827.1L-58.4,819.4L-61.3,811.9L-65.2,804.9L-69.9,798.4L-75.4,792.6L-81.6,787.5L-88.3,783.2L-95.6,779.8L-103.2,777.3L-111.1,775.8L-119.1,775.3L-127.1,775.8L-134.9,777.3L-142.5,779.8L-149.8,783.2L-156.5,787.5L-162.7,792.6L-168.2,798.4L-172.9,804.9L-176.8,811.9L-179.7,819.4L-181.7,827.1L-182.7,835.1L-182.7,843.1L-181.7,851L-179.7,858.8L-176.8,866.3L-172.9,873.3L-168.2,879.8L-162.7,885.6L-156.5,890.7L-149.8,895L-142.5,898.4L-134.9,900.9L-127.1,902.4L-119.1,902.9M-40.7,819.4L-41.4,817.9L-42.7,816.8L-44.2,816.2L-45.9,816.3L-47.4,817L-48.5,818.3L-49,819.8L-49,821.5M-49,821.5L-48,825.8L-47.3,830.2L-46.9,834.7L-46.8,839.1L-46.9,843.5L-47.3,848L-48,852.4L-49,856.7M-49,856.7L-49,858.4L-48.5,859.9L-47.4,861.2L-45.9,861.9L-44.2,862L-42.7,861.4L-41.4,860.3L-40.7,858.8M-40.7,858.8L-39.6,853.9L-38.9,849L-38.4,844.1L-38.3,839.1L-38.4,834.1L-38.9,829.2L-39.6,824.3L-40.7,819.4M-62.8,897.1L-61.9,895.7L-61.5,894.1L-61.8,892.5L-62.7,891.1L-64.1,890.2L-65.7,889.8L-67.4,890.1L-68.8,891M-68.8,891L-72,894L-75.5,896.8L-79.1,899.4L-82.9,901.7L-86.8,903.8L-90.9,905.7L-95,907.3L-99.3,908.6M-99.3,908.6L-100.7,909.4L-101.8,910.6L-102.3,912.2L-102.2,913.9L-101.4,915.3L-100.2,916.4L-98.6,916.9L-96.9,916.8M-96.9,916.8L-92.2,915.3L-87.6,913.5L-83,911.4L-78.7,909.1L-74.4,906.4L-70.4,903.6L-66.5,900.5L-62.8,897.1M-141.2,916.8L-139.5,916.9L-137.9,916.4L-136.7,915.3L-135.9,913.9L-135.8,912.2L-136.3,910.6L-137.4,909.4L-138.9,908.6M-138.9,908.6L-143.1,907.3L-147.2,905.7L-151.3,903.8L-155.2,901.7L-159,899.4L-162.6,896.8L-166.1,894L-169.4,891M-169.4,891L-170.8,890.1L-172.4,889.8L-174,890.2L-175.4,891.1L-176.3,892.5L-176.6,894.1L-176.2,895.7L-175.3,897.1M-175.3,897.1L-171.6,900.5L-167.7,903.6L-163.7,906.4L-159.4,909.1L-155.1,911.4L-150.6,913.5L-145.9,915.3L-141.2,916.8M-197.4,858.8L-196.7,860.3L-195.5,861.4L-193.9,862L-192.2,861.9L-190.7,861.2L-189.6,859.9L-189.1,858.4L-189.2,856.7M-189.2,856.7L-190.1,852.4L-190.8,848L-191.2,843.5L-191.3,839.1L-191.2,834.7L-190.8,830.2L-190.1,825.8L-189.2,821.5M-189.2,821.5L-189.1,819.8L-189.6,818.3L-190.7,817L-192.2,816.3L-193.9,816.2L-195.5,816.8L-196.7,817.9L-197.4,819.4M-197.4,819.4L-198.5,824.3L-199.2,829.2L-199.7,834.1L-199.8,839.1L-199.7,844.1L-199.2,849L-198.5,853.9L-197.4,858.8M-175.3,781.1L-176.2,782.5L-176.6,784.1L-176.3,785.7L-175.4,787.1L-174,788L-172.4,788.4L-170.8,788.1L-169.4,787.2M-169.4,787.2L-166.1,784.2L-162.6,781.4L-159,778.8L-155.2,776.5L-151.3,774.4L-147.2,772.5L-143.1,770.9L-138.9,769.6M-138.9,769.6L-137.4,768.8L-136.3,767.6L-135.8,766L-135.9,764.3L-136.7,762.9L-137.9,761.8L-139.5,761.3L-141.2,761.4M-141.2,761.4L-145.9,762.9L-150.6,764.7L-155.1,766.8L-159.4,769.1L-163.7,771.8L-167.7,774.6L-171.6,777.7L-175.3,781.1M-96.9,761.4L-98.6,761.3L-100.2,761.8L-101.4,762.9L-102.2,764.3L-102.3,766L-101.8,767.6L-100.7,768.8L-99.3,769.6M-99.3,769.6L-95,770.9L-90.9,772.5L-86.8,774.4L-82.9,776.5L-79.1,778.8L-75.5,781.4L-72,784.2L-68.8,787.2M-68.8,787.2L-67.4,788.1L-65.7,788.4L-64.1,788L-62.7,787.1L-61.8,785.7L-61.5,784.1L-61.9,782.5L-62.8,781.1M-62.8,781.1L-66.5,777.7L-70.4,774.6L-74.4,771.8L-78.7,769.1L-83,766.8L-87.6,764.7L-92.2,762.9L-96.9,761.4M115.7,761.4L114,761.3L112.4,761.8L111.2,762.9L110.4,764.3L110.3,766L110.8,767.6L111.9,768.8L113.3,769.6M113.3,769.6L117.6,770.9L121.7,772.5L125.8,774.4L129.7,776.5L133.5,778.8L137.1,781.4L140.6,784.2L143.8,787.2M143.8,787.2L145.2,788.1L146.9,788.4L148.5,788L149.9,787.1L150.8,785.7L151.1,784.1L150.7,782.5L149.8,781.1M149.8,781.1L146.1,777.7L142.2,774.6L138.2,771.8L133.9,769.1L129.6,766.8L125,764.7L120.4,762.9L115.7,761.4M-309.5,761.4L-311.2,761.3L-312.8,761.8L-314,762.9L-314.8,764.3L-314.9,766L-314.4,767.6L-313.3,768.8L-311.9,769.6M-311.9,769.6L-307.6,770.9L-303.5,772.5L-299.4,774.4L-295.5,776.5L-291.7,778.8L-288.1,781.4L-284.6,784.2L-281.4,787.2M-281.4,787.2L-280,788.1L-278.3,788.4L-276.7,788L-275.3,787.1L-274.4,785.7L-274.1,784.1L-274.5,782.5L-275.4,781.1M-275.4,781.1L-279.1,777.7L-283,774.6L-287,771.8L-291.3,769.1L-295.6,766.8L-300.2,764.7L-304.8,762.9L-309.5,761.4M328.3,761.4L326.6,761.3L325,761.8L323.8,762.9L323,764.3L322.9,766L323.4,767.6L324.5,768.8L325.9,769.6M325.9,769.6L330.2,770.9L334.3,772.5L338.4,774.4L342.3,776.5L346.1,778.8L349.7,781.4L353.2,784.2L356.4,787.2M356.4,787.2L357.8,788.1L359.5,788.4L361.1,788L362.5,787.1L363.4,785.7L363.7,784.1L363.3,782.5L362.4,781.1M362.4,781.1L358.7,777.7L354.8,774.6L350.8,771.8L346.5,769.1L342.2,766.8L337.6,764.7L333,762.9L328.3,761.4M93.5,902.9L101.5,902.4L109.4,900.9L117,898.4L124.3,895L131,890.7L137.2,885.6L142.7,879.8L147.4,873.3L151.2,866.3L154.2,858.8L156.2,851L157.2,843.1L157.2,835.1L156.2,827.1L154.2,819.4L151.2,811.9L147.4,804.9L142.7,798.4L137.2,792.6L131,787.5L124.3,783.2L117,779.8L109.4,777.3L101.5,775.8L93.5,775.3L85.5,775.8L77.7,777.3L70.1,779.8L62.8,783.2L56.1,787.5L49.9,792.6L44.4,798.4L39.7,804.9L35.8,811.9L32.9,819.4L30.9,827.1L29.9,835.1L29.9,843.1L30.9,851L32.9,858.8L35.8,866.3L39.7,873.3L44.4,879.8L49.9,885.6L56.1,890.7L62.8,895L70.1,898.4L77.7,900.9L85.5,902.4L93.5,902.9M-331.7,902.9L-323.7,902.4L-315.8,900.9L-308.2,898.4L-300.9,895L-294.2,890.7L-288,885.6L-282.5,879.8L-277.8,873.3L-273.9,866.3L-271,858.8L-269,851L-268,843.1L-268,835.1L-269,827.1L-271,819.4L-273.9,811.9L-277.8,804.9L-282.5,798.4L-288,792.6L-294.2,787.5L-300.9,783.2L-308.2,779.8L-315.8,777.3L-323.7,775.8L-331.7,775.3L-339.7,775.8L-347.5,777.3L-355.1,779.8L-362.4,783.2L-369.1,787.5L-375.3,792.6L-380.8,798.4L-385.5,804.9L-389.4,811.9L-392.3,819.4L-394.3,827.1L-395.3,835.1L-395.3,843.1L-394.3,851L-392.3,858.8L-389.4,866.3L-385.5,873.3L-380.8,879.8L-375.3,885.6L-369.1,890.7L-362.4,895L-355.1,898.4L-347.5,900.9L-339.7,902.4L-331.7,902.9M306.1,902.9L314.1,902.4L322,900.9L329.6,898.4L336.9,895L343.6,890.7L349.8,885.6L355.3,879.8L360,873.3L363.8,866.3L366.8,858.8L368.8,851L369.8,843.1L369.8,835.1L368.8,827.1L366.8,819.4L363.8,811.9L360,804.9L355.3,798.4L349.8,792.6L343.6,787.5L336.9,783.2L329.6,779.8L322,777.3L314.1,775.8L306.1,775.3L298.1,775.8L290.3,777.3L282.7,779.8L275.4,783.2L268.7,787.5L262.5,792.6L257,798.4L252.3,804.9L248.4,811.9L245.5,819.4L243.5,827.1L242.5,835.1L242.5,843.1L243.5,851L245.5,858.8L248.4,866.3L252.3,873.3L257,879.8L262.5,885.6L268.7,890.7L275.4,895L282.7,898.4L290.3,900.9L298.1,902.4L306.1,902.9M171.9,819.4L171.2,817.9L169.9,816.8L168.4,816.2L166.7,816.3L165.2,817L164.1,818.3L163.6,819.8L163.6,821.5M163.6,821.5L164.6,825.8L165.3,830.2L165.7,834.7L165.8,839.1L165.7,843.5L165.3,848L164.6,852.4L163.6,856.7M163.6,856.7L163.6,858.4L164.1,859.9L165.2,861.2L166.7,861.9L168.4,862L169.9,861.4L171.2,860.3L171.9,858.8M171.9,858.8L173,853.9L173.7,849L174.2,844.1L174.3,839.1L174.2,834.1L173.7,829.2L173,824.3L171.9,819.4M-253.3,819.4L-254,817.9L-255.2,816.8L-256.8,816.2L-258.5,816.3L-260,817L-261.1,818.3L-261.6,819.8L-261.6,821.5M-261.6,821.5L-260.6,825.8L-259.9,830.2L-259.5,834.7L-259.4,839.1L-259.5,843.5L-259.9,848L-260.6,852.4L-261.6,856.7M-261.6,856.7L-261.6,858.4L-261.1,859.9L-260,861.2L-258.5,861.9L-256.8,862L-255.2,861.4L-254,860.3L-253.3,858.8M-253.3,858.8L-252.2,853.9L-251.5,849L-251,844.1L-250.9,839.1L-251,834.1L-251.5,829.2L-252.2,824.3L-253.3,819.4M384.5,819.4L383.8,817.9L382.5,816.8L381,816.2L379.3,816.3L377.8,817L376.7,818.3L376.2,819.8L376.2,821.5M376.2,821.5L377.2,825.8L377.9,830.2L378.3,834.7L378.4,839.1L378.3,843.5L377.9,848L377.2,852.4L376.2,856.7M376.2,856.7L376.2,858.4L376.7,859.9L377.8,861.2L379.3,861.9L381,862L382.5,861.4L383.8,860.3L384.5,858.8M384.5,858.8L385.5,853.9L386.3,849L386.8,844.1L386.9,839.1L386.8,834.1L386.3,829.2L385.5,824.3L384.5,819.4M149.8,897.1L150.7,895.7L151.1,894.1L150.8,892.5L149.9,891.1L148.5,890.2L146.9,889.8L145.2,890.1L143.8,891M143.8,891L140.6,894L137.1,896.8L133.5,899.4L129.7,901.7L125.8,903.8L121.7,905.7L117.6,907.3L113.3,908.6M113.3,908.6L111.9,909.4L110.8,910.6L110.3,912.2L110.4,913.9L111.2,915.3L112.4,916.4L114,916.9L115.7,916.8M115.7,916.8L120.4,915.3L125,913.5L129.6,911.4L133.9,909.1L138.2,906.4L142.2,903.6L146.1,900.5L149.8,897.1M-275.4,897.1L-274.5,895.7L-274.1,894.1L-274.4,892.5L-275.3,891.1L-276.7,890.2L-278.3,889.8L-280,890.1L-281.4,891M-281.4,891L-284.6,894L-288.1,896.8L-291.7,899.4L-295.5,901.7L-299.4,903.8L-303.5,905.7L-307.6,907.3L-311.9,908.6M-311.9,908.6L-313.3,909.4L-314.4,910.6L-314.9,912.2L-314.8,913.9L-314,915.3L-312.8,916.4L-311.2,916.9L-309.5,916.8M-309.5,916.8L-304.8,915.3L-300.2,913.5L-295.6,911.4L-291.3,909.1L-287,906.4L-283,903.6L-279.1,900.5L-275.4,897.1M362.4,897.1L363.3,895.7L363.7,894.1L363.4,892.5L362.5,891.1L361.1,890.2L359.5,889.8L357.8,890.1L356.4,891M356.4,891L353.2,894L349.7,896.8L346.1,899.4L342.3,901.7L338.4,903.8L334.3,905.7L330.2,907.3L325.9,908.6M325.9,908.6L324.5,909.4L323.4,910.6L322.9,912.2L323,913.9L323.8,915.3L325,916.4L326.6,916.9L328.3,916.8M328.3,916.8L333,915.3L337.6,913.5L342.2,911.4L346.5,909.1L350.8,906.4L354.8,903.6L358.7,900.5L362.4,897.1M71.4,916.8L73.1,916.9L74.6,916.4L75.9,915.3L76.7,913.9L76.8,912.2L76.3,910.6L75.2,909.4L73.7,908.6M73.7,908.6L69.5,907.3L65.4,905.7L61.3,903.8L57.4,901.7L53.6,899.4L50,896.8L46.5,894L43.2,891M43.2,891L41.8,890.1L40.2,889.8L38.6,890.2L37.2,891.1L36.3,892.5L36,894.1L36.4,895.7L37.3,897.1M37.3,897.1L41,900.5L44.9,903.6L48.9,906.4L53.1,909.1L57.5,911.4L62,913.5L66.7,915.3L71.4,916.8M-353.8,916.8L-352.1,916.9L-350.5,916.4L-349.3,915.3L-348.5,913.9L-348.4,912.2L-348.9,910.6L-350,909.4L-351.5,908.6M-351.5,908.6L-355.7,907.3L-359.8,905.7L-363.9,903.8L-367.8,901.7L-371.6,899.4L-375.2,896.8L-378.7,894L-382,891M-382,891L-383.4,890.1L-385,889.8L-386.6,890.2L-388,891.1L-388.9,892.5L-389.2,894.1L-388.8,895.7L-387.9,897.1M-387.9,897.1L-384.2,900.5L-380.3,903.6L-376.3,906.4L-372,909.1L-367.7,911.4L-363.2,913.5L-358.5,915.3L-353.8,916.8M284,916.8L285.7,916.9L287.2,916.4L288.5,915.3L289.3,913.9L289.4,912.2L288.9,910.6L287.8,909.4L286.3,908.6M286.3,908.6L282.1,907.3L278,905.7L273.9,903.8L270,901.7L266.2,899.4L262.6,896.8L259.1,894L255.8,891M255.8,891L254.4,890.1L252.8,889.8L251.2,890.2L249.8,891.1L248.9,892.5L248.6,894.1L249,895.7L249.9,897.1M249.9,897.1L253.6,900.5L257.5,903.6L261.5,906.4L265.7,909.1L270.1,911.4L274.6,913.5L279.3,915.3L284,916.8M15.2,858.8L15.9,860.3L17.1,861.4L18.7,862L20.4,861.9L21.9,861.2L23,859.9L23.5,858.4L23.4,856.7M23.4,856.7L22.5,852.4L21.8,848L21.4,843.5L21.3,839.1L21.4,834.7L21.8,830.2L22.5,825.8L23.4,821.5M23.4,821.5L23.5,819.8L23,818.3L21.9,817L20.4,816.3L18.7,816.2L17.1,816.8L15.9,817.9L15.2,819.4M15.2,819.4L14.1,824.3L13.4,829.2L12.9,834.1L12.8,839.1L12.9,844.1L13.4,849L14.1,853.9L15.2,858.8M-410,858.8L-409.3,860.3L-408.1,861.4L-406.5,862L-404.8,861.9L-403.3,861.2L-402.2,859.9L-401.7,858.4L-401.8,856.7M-401.8,856.7L-402.7,852.4L-403.4,848L-403.8,843.5L-403.9,839.1L-403.8,834.7L-403.4,830.2L-402.7,825.8L-401.8,821.5M-401.8,821.5L-401.7,819.8L-402.2,818.3L-403.3,817L-404.8,816.3L-406.5,816.2L-408.1,816.8L-409.3,817.9L-410,819.4M-410,819.4L-411.1,824.3L-411.8,829.2L-412.3,834.1L-412.4,839.1L-412.3,844.1L-411.8,849L-411.1,853.9L-410,858.8M227.8,858.8L228.5,860.3L229.7,861.4L231.3,862L233,861.9L234.5,861.2L235.6,859.9L236.1,858.4L236,856.7M236,856.7L235.1,852.4L234.4,848L234,843.5L233.9,839.1L234,834.7L234.4,830.2L235.1,825.8L236,821.5M236,821.5L236.1,819.8L235.6,818.3L234.5,817L233,816.3L231.3,816.2L229.7,816.8L228.5,817.9L227.8,819.4M227.8,819.4L226.7,824.3L226,829.2L225.5,834.1L225.4,839.1L225.5,844.1L226,849L226.7,853.9L227.8,858.8M37.3,781.1L36.4,782.5L36,784.1L36.3,785.7L37.2,787.1L38.6,788L40.2,788.4L41.8,788.1L43.2,787.2M43.2,787.2L46.5,784.2L50,781.4L53.6,778.8L57.4,776.5L61.3,774.4L65.4,772.5L69.5,770.9L73.7,769.6M73.7,769.6L75.2,768.8L76.3,767.6L76.8,766L76.7,764.3L75.9,762.9L74.6,761.8L73.1,761.3L71.4,761.4M71.4,761.4L66.7,762.9L62,764.7L57.5,766.8L53.1,769.1L48.9,771.8L44.9,774.6L41,777.7L37.3,781.1M-387.9,781.1L-388.8,782.5L-389.2,784.1L-388.9,785.7L-388,787.1L-386.6,788L-385,788.4L-383.4,788.1L-382,787.2M-382,787.2L-378.7,784.2L-375.2,781.4L-371.6,778.8L-367.8,776.5L-363.9,774.4L-359.8,772.5L-355.7,770.9L-351.5,769.6M-351.5,769.6L-350,768.8L-348.9,767.6L-348.4,766L-348.5,764.3L-349.3,762.9L-350.5,761.8L-352.1,761.3L-353.8,761.4M-353.8,761.4L-358.5,762.9L-363.2,764.7L-367.7,766.8L-372,769.1L-376.3,771.8L-380.3,774.6L-384.2,777.7L-387.9,781.1M249.9,781.1L249,782.5L248.6,784.1L248.9,785.7L249.8,787.1L251.2,788L252.8,788.4L254.4,788.1L255.8,787.2M255.8,787.2L259.1,784.2L262.6,781.4L266.2,778.8L270,776.5L273.9,774.4L278,772.5L282.1,770.9L286.3,769.6M286.3,769.6L287.8,768.8L288.9,767.6L289.4,766L289.3,764.3L288.5,762.9L287.2,761.8L285.7,761.3L284,761.4M284,761.4L279.3,762.9L274.6,764.7L270.1,766.8L265.7,769.1L261.5,771.8L257.5,774.6L253.6,777.7L249.9,781.1M-466.3,1103.2L-463.2,1102.6L-460.5,1101.1L-458.4,1098.7L-457.4,1095.7L-457.4,1092.5L-458.4,1089.6L-460.5,1087.2L-463.2,1085.6L-466.3,1085L-469.4,1085.6L-472.1,1087.2L-474.2,1089.6L-475.2,1092.5L-475.2,1095.7L-474.2,1098.7L-472.1,1101.1L-469.4,1102.6L-466.3,1103.2M-466.3,734.8L-463.2,734.2L-460.5,732.7L-458.4,730.2L-457.4,727.3L-457.4,724.1L-458.4,721.2L-460.5,718.8L-463.2,717.2L-466.3,716.6L-469.4,717.2L-472.1,718.8L-474.2,721.2L-475.2,724.1L-475.2,727.3L-474.2,730.2L-472.1,732.7L-469.4,734.2L-466.3,734.8M440.8,734.8L443.9,734.2L446.6,732.7L448.6,730.2L449.7,727.3L449.7,724.1L448.6,721.2L446.6,718.8L443.9,717.2L440.8,716.6L437.7,717.2L435,718.8L432.9,721.2L431.9,724.1L431.9,727.3L432.9,730.2L435,732.7L437.7,734.2L440.8,734.8M440.8,1103.2L443.9,1102.6L446.6,1101.1L448.6,1098.7L449.7,1095.7L449.7,1092.5L448.6,1089.6L446.6,1087.2L443.9,1085.6L440.8,1085L437.7,1085.6L435,1087.2L432.9,1089.6L431.9,1092.5L431.9,1095.7L432.9,1098.7L435,1101.1L437.7,1102.6L440.8,1103.2" style="fill:none;fill-rule:nonzero;stroke:black;stroke-width:0.73px;"/>
        </g>
    </g>
</svg>
