<?xml version="1.0" encoding="UTF-8" standalone="no"?><!DOCTYPE svg PUBLIC "-//W3C//DTD SVG 1.1//EN" "http://www.w3.org/Graphics/SVG/1.1/DTD/svg11.dtd"><svg width="100%" height="100%" viewBox="0 0 8000 4500" version="1.1" xmlns="http://www.w3.org/2000/svg" xmlns:xlink="http://www.w3.org/1999/xlink" xml:space="preserve" xmlns:serif="http://www.serif.com/" style="fill-rule:evenodd;clip-rule:evenodd;stroke-linejoin:round;stroke-miterlimit:2;"><path d="M7998.98,112.372c-0,-62.02 -50.352,-112.372 -112.372,-112.372l-7775.26,-0c-62.02,-0 -112.372,50.352 -112.372,112.372l-0,4275.26c-0,62.02 50.352,112.372 112.372,112.372l7775.26,-0c62.02,-0 112.372,-50.352 112.372,-112.372l-0,-4275.26Z" style="fill:#fafafa;"/><g><g><g><path d="M3976.28,3085.15l22.687,-45.379l22.692,45.379l-45.379,0Z" style="stroke:#000;stroke-width:6.25px;"/><path d="M3998.97,3672.56l0,-596.484" style="fill:none;stroke:#000;stroke-width:6.25px;stroke-miterlimit:1.5;"/></g></g><g><path d="M5564,3672.55l0,-746.552" style="fill:none;stroke:#000;stroke-width:6.25px;stroke-miterlimit:1.5;"/></g><g><path d="M5916.75,2893.26l-0,32.764l-705.513,-0l-0,-32.764" style="fill:none;stroke:#000;stroke-width:6.25px;stroke-miterlimit:1.5;"/></g><g><ellipse cx="3998.97" cy="3760.16" rx="155.86" ry="87.578" style="fill:none;stroke:#000;stroke-width:6.25px;stroke-linecap:round;stroke-miterlimit:1.5;"/></g><g><ellipse cx="5564.01" cy="3760.16" rx="155.86" ry="87.578" style="fill:none;stroke:#000;stroke-width:6.25px;stroke-linecap:round;stroke-miterlimit:1.5;"/></g><g><text x="3956.78px" y="3815.57px" style="font-family:'Roboto-Medium', 'Roboto';font-weight:500;font-size:153.78px;">1</text></g><g><text x="5521.81px" y="3815.57px" style="font-family:'Roboto-Medium', 'Roboto';font-weight:500;font-size:153.78px;">2</text></g><g><path d="M2392.75,3550.52l0,-153.09m-556.425,-0l-0,153.09m-0,0l13.739,13.739m528.457,0l14.229,-13.739m-523.059,13.739l-0,21.099m489.693,0l0,-21.099m3246.31,-13.739l13.739,13.739m528.457,0l14.23,-13.739m-0,0l-0,-153.09m-556.426,-0l0,153.09m33.366,13.739l-0,21.099m489.694,0l-0,-21.099m-3218.83,-1719.33l-0.982,3.925l-1.472,7.361l-0.49,7.85m-0,0l-0,23.062m-0,41.707l-0,41.708m-0,41.707l-0,41.708m-0,194.798l-0,25.024m306.181,-0l-0,-25.024m-306.181,25.024l0.49,4.416l0.982,3.925l1.472,3.926l2.453,3.925l2.453,3.435l6.87,4.907l3.925,1.962m269.381,0l3.925,-1.962l3.435,-2.454l2.944,-2.453l2.944,-3.435l1.963,-3.925l1.472,-3.926l0.981,-3.925l0.491,-4.416m-287.536,26.496l44.652,16.193m180.077,-0l44.652,-16.193m-15.702,-497.053l-5.397,-4.416m-227.183,-0l-5.888,4.416m233.071,-4.416l-10.304,-7.361l-6.87,-3.925l-3.925,-1.963l-3.435,-1.472l-3.925,-1.472m-170.265,0l-7.85,2.944l-6.87,3.926l-3.925,1.962l-3.435,2.454l-2.944,2.453l-3.435,2.454m23.553,517.662l0.981,0.49l1.472,0l0.981,0.491l0.982,0l1.472,0.491l3.434,-0m160.942,-0l3.925,-0l0.982,-0.491l1.472,0l0.981,-0.491l0.981,0l1.472,-0.49m-131.991,-554.463l-4.907,2.944l-5.397,2.944l-5.398,2.453l-5.397,2.944l-10.795,4.907l-5.888,1.963l-5.398,2.453m170.265,0l-5.888,-2.453l-5.398,-1.963l-10.795,-4.907l-5.397,-2.944l-5.398,-2.453l-10.794,-5.888m-0,-0l-0.491,-0.491m-81.943,0l-0.981,0.491m14.229,-45.633l0,3.435m55.447,-0l-0,-3.435m-44.652,-11.285l-1.962,-0l-3.926,1.962l-1.963,1.472l-1.472,1.472l-0.981,1.963l-0.491,1.963l0,2.453m55.447,0l-0,-2.453l-1.963,-3.926l-2.944,-2.944l-3.926,-1.962l-2.453,-0m-25.024,-6.87l-0,1.472l-0.491,0.982l-0.491,1.472l-1.962,1.962l-0.982,0.491l-1.472,0.491l-1.472,-0m30.422,-0l-0.981,-0l-1.472,-0.491l-0.982,-0.491l-1.472,-0.981l-0.49,-0.981l-0.982,-1.472l0,-0.982l-0.49,-1.472m-9.814,-19.627l-0.981,0l-1.472,0.491l-0.982,0.981l-1.472,0.491l-0.49,0.981l-0.982,1.472l0,1.472l-0.49,0.982m16.683,-0l-0,-0.982l-0.982,-2.944l-0.981,-0.981l-0.981,-0.491l-0.982,-0.981l-1.472,-0.491l-1.472,0m-9.813,6.87l-0,12.757m16.683,0l-0,-12.757m-480.862,178.605l-0.491,-7.85l-1.472,-7.361l-0.981,-3.925m-303.237,428.85l0.491,4.416l0.981,3.925l1.472,3.926l1.963,3.925l2.944,3.435l2.944,2.453l3.435,2.454l3.925,1.962m269.38,0l3.926,-1.962l6.869,-4.907l2.454,-3.435l2.453,-3.925l1.472,-3.926l0.981,-3.925l0.491,-4.416m-306.181,-25.024l-0,25.024m306.181,-0l0,-25.024m0,-194.798l0,-41.708m0,-41.707l0,-41.708m0,-41.707l0,-23.062m-288.026,436.21l44.651,16.193m180.078,-0l44.651,-16.193m-15.21,-497.053l-5.889,-4.416m0,-0l-2.944,-2.454l-6.869,-4.907l-3.435,-1.962l-3.925,-1.963l-3.435,-1.963l-7.851,-2.944m-175.171,533.855l1.472,0.49l0.982,0l0.981,0.491l1.472,0l0.981,0.491l3.926,-0m160.941,-0l3.435,-0l1.472,-0.491l0.981,0l0.982,-0.491l1.472,0l0.981,-0.49m-131.501,-554.463l-10.795,5.888l-5.397,2.453l-5.398,2.944l-5.397,2.454m153.581,6.869l-5.397,-2.453l-5.888,-1.963l-10.795,-4.907l-5.397,-2.944l-5.398,-2.453l-5.397,-2.944l-4.907,-2.944m-0,-0l-0.981,-0.491m-81.943,0l-0.491,0.491m13.739,-45.633l0,3.435m55.446,-0l0,-3.435m-44.16,-11.285l-2.454,-0l-3.925,1.962l-2.944,2.944l-1.963,3.926l0,2.453m55.446,0l0,-2.453l-0.49,-1.963l-0.982,-1.963l-1.472,-1.472l-1.962,-1.472l-3.926,-1.962l-1.963,-0m-25.024,-6.87l-0.491,1.472l0,0.982l-0.981,1.472l-0.491,0.981l-1.472,0.981l-0.981,0.491l-1.472,0.491l-0.981,-0m30.421,-0l-1.472,-0l-1.472,-0.491l-0.981,-0.491l-1.963,-1.962l-0.49,-1.472l-0.491,-0.982l0,-1.472m-16.683,-12.757l0,12.757m16.683,0l0,-12.757m-9.813,-6.87l-1.473,0l-1.472,0.491l-0.981,0.981l-0.981,0.491l-0.982,0.981l-0.981,2.944l0,0.982m16.683,-0l-0.491,-0.982l0,-1.472l-0.981,-1.472l-0.491,-0.981l-1.472,-0.491l-0.981,-0.981l-1.472,-0.491l-0.981,0m2348.86,570.165l-0,25.024m306.181,-0l-0,-25.024m-0,-194.798l-0,-41.708m-0,-41.707l-0,-41.708m-0,-41.707l-0,-23.062m-0,0l-0.491,-7.85l-1.472,-7.361l-0.49,-3.925m-303.728,428.85l0.49,4.416l0.982,3.925l1.472,3.926l2.453,3.925l2.454,3.435l2.944,2.453l3.925,2.454l3.925,1.962m269.381,0l3.435,-1.962l3.925,-2.454l2.944,-2.453l2.944,-3.435l1.963,-3.925l1.472,-3.926l0.981,-3.925l0.491,-4.416m-287.536,26.496l44.652,16.193m179.587,-0l45.142,-16.193m-15.702,-497.053l-5.888,-4.416m-226.692,-0l-5.888,4.416m232.58,-4.416l-2.944,-2.454l-6.869,-4.907l-3.435,-1.962l-3.925,-1.963l-3.435,-1.963l-7.851,-2.944m-169.773,0l-7.851,2.944l-3.435,1.963l-3.925,1.963l-3.435,1.962l-6.869,4.907l-2.945,2.454m23.553,517.662l0.981,0.49l0.982,0l1.472,0.491l0.981,0l1.472,0.491l3.435,-0m160.941,-0l3.435,-0l1.472,-0.491l0.981,0l1.472,-0.491l0.982,0l0.981,-0.49m-131.501,-554.463l-5.397,2.944l-4.907,2.944l-5.398,2.453l-5.397,2.944l-5.397,2.454l-5.889,2.453l-5.397,1.963l-5.397,2.453m169.773,0l-5.397,-2.453l-5.398,-1.963l-5.397,-2.453l-5.888,-2.454l-5.398,-2.944l-4.906,-2.453l-10.795,-5.888m-0,-0l-0.491,-0.491m-82.433,0l-0.491,0.491m13.739,-45.633l-0,3.435m55.937,-0l-0,-3.435m-44.652,-11.285l-1.962,-0l-2.454,0.981l-1.962,0.981l-2.944,2.944l-0.982,1.963l-0.49,1.963l-0.491,2.453m55.937,0l-0.491,-2.453l-0.49,-1.963l-0.982,-1.963l-2.944,-2.944l-3.925,-1.962l-2.454,-0m-25.024,-6.87l-0,1.472l-0.491,0.982l-0.49,1.472l-1.963,1.962l-1.472,0.491l-0.982,0.491l-1.472,-0m30.422,-0l-1.472,-0l-0.981,-0.491l-1.472,-0.491l-1.963,-1.962l-0.49,-1.472l-0.491,-0.982l-0,-1.472m-16.683,-12.757l-0,12.757m16.683,0l-0,-12.757m-9.814,-6.87l-1.472,0l-0.981,0.491l-1.472,0.981l-0.981,0.491l-0.982,0.981l-0.981,2.944l-0,0.982m16.683,-0l-0,-0.982l-0.981,-2.944l-0.982,-0.981l-0.981,-0.491l-1.472,-0.981l-0.982,-0.491l-1.472,0m471.539,595.189l0.491,4.416l0.49,3.925l3.926,7.851l2.944,3.435l2.944,2.453l3.435,2.454l3.925,1.962m269.381,0l3.925,-1.962l6.869,-4.907l2.454,-3.435l2.453,-3.925l1.472,-3.926l0.982,-3.925l-0,-4.416m-303.238,-428.85l-0.981,3.925l-0.981,7.361l-0.491,7.85m0,0l0,23.062m0,41.707l0,41.708m0,41.707l0,41.708m0,194.798l0,25.024m305.691,-0l-0,-25.024m-287.536,51.52l44.651,16.193m180.078,-0l44.652,-16.193m-248.282,-501.469l-5.397,4.416m33.856,-20.609l-3.925,1.472l-3.435,1.472l-3.925,1.963l-6.87,3.925l-10.304,7.361m23.552,517.662l1.473,0.49l0.981,0l0.981,0.491l1.472,0l0.982,0.491l3.925,-0m160.941,-0l3.435,-0l1.472,-0.491l0.981,0l0.982,-0.491l1.472,0l0.981,-0.49m-131.501,-554.463l-10.795,5.888l-5.397,2.453l-5.397,2.944l-10.795,4.907l-5.398,1.963l-5.888,2.453m153.582,-6.869l-5.398,-2.454l-5.397,-2.944l-5.398,-2.453l-5.397,-2.944l-4.907,-2.944m0,-0l-0.981,-0.491m-81.943,0l-0.491,0.491m25.025,-56.918l-2.454,-0l-3.925,1.962l-2.944,2.944l-1.963,3.926l0,2.453m55.446,0l0,-2.453l-0.49,-1.963l-0.982,-1.963l-1.472,-1.472l-1.962,-1.472l-3.926,-1.962l-1.962,-0m-44.652,11.285l0,3.435m55.446,-0l0,-3.435m-35.819,-18.155l-0.49,1.472l-0,0.982l-0.982,1.472l-0.49,0.981l-1.473,0.981l-0.981,0.491l-1.472,0.491l-1.472,-0m30.913,-0l-1.472,-0l-1.472,-0.491l-0.982,-0.491l-1.962,-1.962l-0.491,-1.472l-0.491,-0.982l0,-1.472m-9.813,-19.627l-1.472,0l-1.472,0.491l-0.982,0.981l-0.981,0.491l-0.981,0.981l-0.982,2.944l0,0.982m16.683,-0l-0.491,-0.982l0,-1.472l-0.981,-1.472l-0.491,-0.981l-1.472,-0.491l-0.981,-0.981l-1.472,-0.491l-1.472,0m-9.323,6.87l0,12.757m16.683,0l0,-12.757m-2039.25,178.605l-0,23.062m-0,41.707l-0,41.708m-0,41.707l-0,41.708m-0,194.798l-0,25.024m306.181,-0l0,-25.024m0,-196.27l0,-39.254m0,-44.161l0,-39.254m0,-44.161l0,-21.59m-306.181,409.714l0.491,4.416l0.981,3.925l1.472,3.926l1.963,3.925l2.944,3.435l2.944,2.453l3.925,2.454l3.435,1.962m269.38,0l3.926,-1.962l3.925,-2.454l2.944,-2.453l2.454,-3.435l2.453,-3.925l1.472,-3.926l0.981,-3.925l0.491,-4.416m0,-409.714l-0.491,-7.85l-1.472,-7.361l-0.49,-1.472m-301.275,-2.453l-0.49,3.925l-1.472,7.361l-0.491,7.85m18.155,436.21l45.142,16.193m179.587,-0l44.651,-16.193m-247.79,-501.469l-5.889,4.416m34.348,-20.609l-7.851,2.944l-3.926,1.963l-6.869,3.925l-6.869,4.907l-2.944,2.454m23.552,517.662l0.981,0.49l0.982,0l1.472,0.491l0.981,0l0.981,0.491l3.926,-0m160.941,-0l3.435,-0l1.472,-0.491l0.981,0l1.472,-0.491l0.982,0l0.981,-0.49m-131.501,-554.463l-10.795,5.888l-4.907,2.453l-5.397,2.944l-5.888,2.454l-5.397,2.453l-5.398,1.963l-5.397,2.453m43.67,-21.099l-0.491,0.491m13.739,-45.633l-0,3.435m11.286,-14.72l-2.454,-0l-3.925,1.962l-2.944,2.944l-0.982,1.963l-0.49,1.963l-0.491,2.453m19.627,-18.155l-0,1.472l-0.491,0.982l-0.981,1.472l-0.491,0.981l-0.981,0.981l-2.944,0.982l-0.981,-0m6.869,-19.627l-0,12.757m0.491,-15.211l-0.491,1.472l-0,0.982m787.043,178.605l-0.491,-7.85l-0.981,-7.361l-0.982,-3.925m-301.274,2.453l-0.491,1.472l-0.981,7.361l-0.491,7.85m0,0l0,21.59m0,44.161l0,39.254m0,44.161l0,39.254m0,196.27l0,25.024m305.691,-0l-0,-25.024m-0,-194.798l-0,-41.708m-0,-41.707l-0,-41.708m-0,-41.707l-0,-23.062m-305.691,409.714l0,4.416l0.982,3.925l3.925,7.851l2.453,3.435l6.87,4.907l3.925,1.962m269.381,0l3.925,-1.962l6.87,-4.907l2.453,-3.435l3.925,-7.851l0.982,-3.925l-0,-4.416m-287.536,26.496l44.652,16.193m180.077,-0l44.652,-16.193m-15.211,-497.053l-5.888,-4.416m-0,-0l-10.304,-7.361l-6.87,-3.925l-3.925,-1.963l-3.435,-1.472l-3.925,-1.472m-175.171,533.855l0.981,0.49l1.472,0l0.981,0.491l1.472,0l0.982,0.491l3.434,-0m160.942,-0l3.925,-0l0.982,-0.491l1.472,0l0.981,-0.491l1.472,0l0.981,-0.49m-4.906,-533.855l-5.889,-2.453l-5.397,-1.963l-10.795,-4.907l-5.397,-2.944l-5.398,-2.453l-5.397,-2.944l-4.907,-2.944m0,-0l-0.981,-0.491m-13.248,-45.142l-0,-2.453l-1.963,-3.926l-0.981,-1.472l-1.963,-1.472l-3.926,-1.962l-2.453,-0m11.286,14.72l-0,-3.435m-12.267,-11.285l-1.472,-0l-1.472,-0.491l-0.982,-0.491l-1.962,-1.962l-0.491,-1.472l-0.491,-0.982l-0.49,-1.472m-0,0l-0,-12.757m-0,-0l-0,-0.982l-0.491,-1.472m-1830.22,997.543l0,9.813m-2.453,-12.267l-0,14.72m55.937,31.404l-0,-11.777m-348.38,-463.687l0,69.185m479.881,-0l-0,-69.185m2657.49,344.453l0.982,0.982l4.907,3.925l3.434,1.963m445.042,-0l3.435,-1.963l4.907,-3.925l0.981,-0.982m-471.538,-344.453l-0,69.185m479.88,-0l-0,-69.185m-2566.23,-0l-0,69.185m1523.06,-0l-0,-69.185m-1596.66,-1154.56l-30.422,29.441l-10.304,12.267m-29.44,41.707l-12.758,22.08l-9.323,19.627m-15.211,41.708l-6.378,25.515l-2.944,16.192m-4.416,41.708l-0,33.856l0.49,7.851m868.004,-0l0.491,-7.851l0.491,-33.856m-4.907,-41.708l-2.944,-16.192l-6.379,-25.515m-15.211,-41.708l-9.323,-19.627l-12.267,-22.08m-812.557,250.244l7.85,41.708m7.361,41.707l7.85,41.707m7.36,41.708l7.851,41.707m7.36,41.708l7.851,41.707m7.36,41.707l0.982,5.398m727.18,34.838l7.36,-40.236m7.851,-41.707l7.36,-41.707m7.851,-41.708l7.36,-41.707m7.851,-41.708l7.36,-41.707m7.851,-41.707l7.36,-41.708m-1785.08,-333.659l-30.422,29.441l-10.304,12.267m-29.44,41.707l-12.758,22.08l-9.323,19.627m-15.211,41.708l-6.378,25.515l-2.944,16.192m-4.417,41.708l0,33.856l0.491,7.851m868.495,-0.491l-0,-7.36l0.491,-33.366m-4.907,-43.67l-2.944,-14.72l-4.416,-18.646m-851.321,159.96l7.85,41.708m7.361,41.707l7.85,41.707m7.36,41.708l7.851,41.707m7.36,41.708l7.851,41.707m7.36,41.707l7.851,41.708m7.36,41.707l7.851,42.198m7.851,41.707l7.36,41.708m7.851,41.707l7.36,41.708m736.503,-591.754l5.888,-31.894m-691.852,-408.733l-0.49,7.361l-0.982,6.869l-2.453,7.36l-2.453,6.87l-1.472,2.944m541.705,-4.416l-2.454,-5.398l-1.962,-7.36l-1.472,-6.869l-0.491,-7.361m0,0l0,-9.322m-0.981,-43.671l-0.491,-40.235m-0.491,-42.689l-0.981,-41.216m-521.588,-0l-0.49,41.707m-0.982,41.707l-0.49,41.708m-0.491,41.707l-0.491,10.304m2970.55,246.319l-4.416,18.646l-2.944,14.72m-4.416,43.67l-0,33.366l0.49,7.36m868.004,0.491l0.491,-7.851l0.491,-33.856m-4.907,-41.708l-2.944,-16.192l-6.379,-25.515m-15.211,-41.708l-9.323,-19.627l-12.266,-22.08m-29.932,-41.707l-10.304,-12.267l-30.422,-29.441m-741.41,336.113l5.889,31.894m736.503,591.754l7.85,-41.708m7.361,-41.707l7.85,-41.708m7.361,-41.707l7.85,-42.198m7.36,-41.707l7.851,-41.708m7.36,-41.707l7.851,-41.707m7.851,-41.708l7.36,-41.707m7.851,-41.708l7.36,-41.707m7.851,-41.707l7.36,-41.708m-692.342,-406.279l-0.491,7.361l-1.472,6.869l-1.963,7.36l-1.963,5.398m541.706,4.416l-1.472,-2.944l-2.944,-6.87l-1.963,-7.36l-1.472,-6.869l-0.491,-7.361m0,0l0,-10.304m-0.981,-41.707l-0.491,-41.708m-0.491,-41.707l-0.981,-41.707m-521.587,-0l-0.491,41.216m-0.981,42.689l-0.491,40.235m-0.981,43.671l-0,9.322m-1162.9,156.035l-12.758,22.08l-9.323,19.627m-15.211,41.708l-6.378,25.515l-2.944,16.192m-4.416,41.708l-0,33.856l0.49,7.851m868.004,-0l0.491,-7.851l0.491,-33.856m-4.907,-41.708l-2.944,-16.192l-6.379,-25.515m-15.211,-41.708l-9.323,-19.627l-12.267,-22.08m-29.931,-41.707l-10.304,-12.267l-30.422,-29.441m-741.9,333.659l7.85,41.708m7.361,41.707l7.85,41.707m7.361,41.708l7.85,41.707m7.36,41.708l7.851,41.707m7.36,41.707l7.361,40.236m727.18,-34.838l0.981,-5.398m7.851,-41.707l7.36,-41.707m7.851,-41.708l7.36,-41.707m7.851,-41.708l7.36,-41.707m7.851,-41.707l7.36,-41.708m-3874.37,1700.68l0,13.248m5848.85,0l0,-13.248m-4148.17,-368.497l-6.379,-12.267l-0,-0.491m-733.069,26.497l0,13.248m3833.64,-186.947l-611.872,-0m0,-0l0,263.983m0,0l611.872,0m0,0l0,-263.983m-3117.75,160.451l2.944,-2.454m0,0l2.454,-3.435m-0,0l1.962,-3.434m0,-0l0.982,-3.435m-0,0l-0,-3.925m-0,-0l-0.982,-3.926m0,0l-2.453,-3.434m0,-0l-3.435,-3.435m0,-0l-3.925,-1.963m-0,0l-4.416,-0.491m-0,0l-3.926,0.491m0,0l-3.434,1.472m-0,0l-2.944,2.944m-0,0l-0.982,3.926m0,-0l0.491,5.397m-0,-0l-0,2.453m-0,0l-0.491,2.454m0,-0l-2.944,3.434m0,0l-4.416,2.454m0,-0l-4.907,0.981m0,0l0.491,0m0,0l2.453,2.944m0,0l2.945,2.454m-0,-0l6.869,2.944m-0,-0l3.435,0.49m-0,0l3.925,-0.49m0,-0l3.925,-0.491m0,-0l3.435,-1.472m0,-0l2.944,-2.453m-304.218,-102.061l2.944,-5.888m-0,0l0.981,-2.944m0,0l0,-3.435m0,0l-0.491,-2.944m0,0l-1.962,-2.453m-0,-0l-0.982,-0.981m0,-0l-1.962,-0m-0,-0l-4.416,1.472m-0,-0l-4.416,3.434m-0,0l-5.398,4.907m0,0l-9.323,10.304m0,0l-5.888,7.36m0,0l-4.907,6.379m0,0l-3.925,6.379m0,-0l-6.379,14.229m0,0l23.553,-15.21m-0,-0l10.304,-6.87m-0,0l4.416,-3.925m-0,-0l4.416,-4.907m0,-0l3.435,-4.907m-175.662,76.545l-0.981,-3.925m-0,0l-1.472,-2.944m-0,0l-2.944,-1.963m-0,0l-2.944,0m-0,0l-3.435,1.963m-0,0l-2.453,2.944m-0,0l-1.472,4.416m-0,0l-0.491,4.416m-0,0l0.491,3.926m-0,-0l1.962,2.944m0,-0l2.454,1.472m-0,-0l3.434,-0m0,-0l2.944,-1.963m0,0l2.454,-2.944m-0,-0l1.962,-3.925m0,-0l0.491,-4.417m-256.623,0.982l7.36,-3.926m0,0l4.416,-3.925m0,0l1.472,-1.963m0,0l0,-1.962m0,-0l-0.981,-1.472m-0,-0l-1.963,-1.472m0,-0l-5.888,-1.472m0,-0l-8.832,-0m0,-0l-9.813,1.962m-0,0l-9.323,2.944m-0,0l-7.851,3.926m-0,-0l-4.416,3.925m-0,0l-0.982,1.963m0,-0l0,1.963m0,-0l0.982,1.962m-0,0l1.472,0.982m-0,-0l6.379,1.472m-0,-0l8.341,-0m0,-0l9.814,-1.472m-0,-0l9.813,-3.435m883.706,4.907l-2.944,2.453m6.378,-2.944l-3.434,0.491m6.379,0.49l-2.945,-0.981m6.379,2.944l-3.434,-1.963m5.888,4.907l-2.454,-2.944m3.926,6.379l-1.472,-3.435m1.472,6.869l-0,-3.434m-1.472,6.869l1.472,-3.435m-7.851,11.286l6.379,-7.851m-14.23,14.72l7.851,-6.869m-16.683,13.248l8.832,-6.379m-18.155,11.777l9.323,-5.398m-19.136,9.814l9.813,-4.416m-30.422,7.85l10.304,-0.981m-20.608,0l10.304,0.981m-19.136,-3.434l8.832,2.453m-17.174,-6.869l8.342,4.416m-15.211,-10.304l6.869,5.888m-12.266,-13.739l5.397,7.851m-7.36,-12.267l1.963,4.416m-4.907,-9.323l2.944,4.907m-4.907,-6.379l1.963,1.472m-3.926,-1.963l1.963,0.491m-4.416,-0l2.453,-0.491m-4.906,2.454l2.453,-1.963m-5.397,6.379l2.944,-4.416m-5.398,9.322l2.454,-4.906m-5.398,15.211l2.944,-10.305m-3.925,12.758l0.981,-2.453m-2.453,3.925l1.472,-1.472m-3.926,2.453l2.454,-0.981m-4.907,0.981l2.453,0m-5.888,-0.981l3.435,0.981m-6.379,-1.962l2.944,0.981m-5.397,-3.435l2.453,2.454m-3.925,-5.398l1.472,2.944m-1.472,-6.379l-0,3.435m0.981,-10.795l-0.981,7.36m-1.963,-3.434l2.944,-3.926m-6.869,6.87l3.925,-2.944m-8.341,5.888l4.416,-2.944m-8.832,4.907l4.416,-1.963m-14.721,4.416l10.305,-2.453m-19.627,2.944l9.322,-0.491m-14.72,-0l5.398,0.491m-10.795,-1.472l5.397,0.981m-10.304,-2.944l4.907,1.963m-9.323,-3.926l4.416,1.963m-8.832,-5.398l4.416,3.435m-8.342,-6.869l3.926,3.434m-6.87,-7.85l2.944,4.416m-5.888,-9.323l2.944,4.907m-5.397,-13.739l2.453,8.832m-4.906,-19.136l2.453,10.304m-5.397,-20.118l2.944,9.814m-5.398,-14.23l2.454,4.416m-5.398,-7.36l2.944,2.944m-9.813,-5.888l6.869,2.944m-14.229,-4.907l7.36,1.963m-22.571,-2.944l15.211,0.981m-30.422,-1.962l15.211,0.981m-29.932,-0.981l14.721,-0m-43.18,-0l28.459,-0m-56.427,0.49l27.968,-0.49m-62.806,80.47l34.838,-79.98m-36.801,82.924l1.963,-2.944m-4.907,4.907l2.944,-1.963m-6.379,2.454l3.435,-0.491m10.304,-68.204l-24.533,54.956m-0.982,-37.292l25.515,-17.664m-31.403,21.099l5.888,-3.435m-12.757,6.87l6.869,-3.435m-13.739,5.888l6.87,-2.453m-14.23,4.416l7.36,-1.963m-15.211,1.963l7.851,-0m-15.211,-1.472l7.36,1.472m-14.229,-4.907l6.869,3.435m-12.757,-8.832l5.888,5.397m-8.832,-10.795l2.944,5.398m-5.398,-11.286l2.454,5.888m-4.416,-3.434l1.962,-2.454m-10.304,9.814l8.342,-7.36m-17.174,13.739l8.832,-6.379m-18.155,10.795l9.323,-4.416m-19.136,7.36l9.813,-2.944m-14.72,3.925l4.907,-0.981m-10.305,0.49l5.398,0.491m-10.304,-1.472l4.906,0.981m-9.813,-2.944l4.907,1.963m-12.267,-7.851l7.36,5.888m-13.739,-13.248l6.379,7.36m-11.286,-15.701l4.907,8.341m-7.36,-17.664l2.453,9.323m-3.434,-16.683l0.981,7.36m-0.491,-14.72l-0.49,7.36m-12.267,3.434l12.757,-10.794m-26.496,22.571l13.739,-11.777m-27.969,22.081l14.23,-10.304m-22.081,14.72l7.851,-4.416m-15.211,7.851l7.36,-3.435m-17.664,7.36l10.304,-3.925m-22.08,6.378l11.776,-2.453m-17.664,2.944l5.888,-0.491m-10.795,0l4.907,0.491m-9.814,-1.472l4.907,0.981m-9.323,-3.434l4.416,2.453m-10.795,-0l6.379,-2.453m-13.739,2.944l7.36,-0.491m-14.229,-0.981l6.869,1.472m-13.739,-4.416l6.87,2.944m-10.795,-5.398l3.925,2.454m-6.869,-5.398l2.944,2.944m-5.397,-6.379l2.453,3.435m-3.925,-6.869l1.472,3.434m-6.379,-0.981l4.907,-2.453m-10.305,4.416l5.398,-1.963m-11.776,2.944l6.378,-0.981m-13.248,0.49l6.87,0.491m-13.249,-1.963l6.379,1.472m-12.267,-4.906l5.888,3.434m-10.794,-7.85l4.906,4.416m-8.832,-10.304l3.926,5.888m-7.361,-11.286l3.435,5.398m-7.36,-10.795l3.925,5.397m-6.378,-4.416l2.453,-0.981m-13.739,7.36l11.286,-6.379m-33.366,21.59l22.08,-15.211m-31.894,20.608l9.814,-5.397m-19.627,8.832l9.813,-3.435m-14.72,4.416l4.907,-0.981m-10.304,0.981l5.397,0m-10.795,-0.981l5.398,0.981m-10.795,-2.944l5.397,1.963m-9.323,-4.416l3.926,2.453m-6.87,-5.888l2.944,3.435m-4.416,-7.36l1.472,3.925m-1.962,-8.341l0.49,4.416m0,-13.739l-0.49,9.323m1.472,-18.646l-0.982,9.323m0.491,-16.683l0.491,7.36m-3.926,-4.416l3.435,-2.944m-16.683,16.683l13.248,-13.739m-25.024,27.968l11.776,-14.229m-26.006,31.894l14.23,-17.665m-26.987,36.31l12.757,-18.645m-24.043,38.272l11.286,-19.627m-21.099,40.236l9.813,-20.609m-17.174,40.236l7.361,-19.627m-14.23,39.254l6.869,-19.627m-19.136,59.862l12.267,-40.235m-31.403,37.291l1.963,1.963m39.254,-148.675l-42.199,144.749m36.31,-142.296l5.889,-2.453m-11.777,3.435l5.888,-0.982m-16.683,2.454l10.795,-1.472m-18.645,1.963l7.85,-0.491m-16.192,-0.491l8.342,0.982m-16.193,-2.454l7.851,1.472m-14.72,-5.397l6.869,3.925m-11.285,-6.869l4.416,2.944m-7.851,-7.36l3.435,4.416m-5.888,-9.323l2.453,4.907m-2.453,-7.851l-0,2.944m-0,-5.398l-0,2.454m2.453,-8.342l-2.453,5.888m5.888,-10.794l-3.435,4.906m7.36,-9.322l-3.925,4.416m8.832,-7.851l-4.907,3.435m10.304,-6.87l-5.397,3.435m11.286,-5.888l-5.889,2.453m17.174,-5.888l-11.285,3.435m20.608,-4.416l-9.323,0.981m19.136,-0.981l-9.813,-0m19.136,0.49l-9.323,-0.49m18.646,2.944l-9.323,-2.454m10.304,-0.981l-0.981,3.435m2.453,-4.907l-1.472,1.472m3.435,-1.472l-1.963,-0m4.907,0.981l-2.944,-0.981m5.888,2.944l-2.944,-1.963m8.342,6.87l-5.398,-4.907m6.87,7.36l-1.472,-2.453m1.472,4.906l-0,-2.453m-1.472,8.832l1.472,-6.379m-4.907,17.665l3.435,-11.286m-13.249,43.18l9.814,-31.894m0.981,17.664l-10.795,14.23m22.081,-28.459l-11.286,14.229m24.043,-29.931l-12.757,15.702m19.627,-23.062l-6.87,7.36m14.721,-12.758l-7.851,5.398m12.757,-7.851l-4.906,2.453m10.304,-3.925l-5.398,1.472m11.777,-1.472l-6.379,-0m12.267,0.491l-5.888,-0.491m11.285,2.453l-5.397,-1.962m9.813,4.906l-4.416,-2.944m7.851,7.36l-3.435,-4.416m5.398,9.814l-1.963,-5.398m1.963,10.795l-0,-5.397m-0,11.285l-0,-5.888m-0.982,17.174l0.982,-11.286m-0.982,17.665l0,-6.379m9.814,0.491l-9.814,5.888m20.609,-12.758l-10.795,6.87m22.08,-14.721l-11.285,7.851m22.571,-14.229l-11.286,6.378m17.174,-8.832l-5.888,2.454m11.285,-4.416l-5.397,1.962m11.285,-2.944l-5.888,0.982m11.286,-0.491l-5.398,-0.491m10.795,1.472l-5.397,-0.981m10.795,3.925l-5.398,-2.944m10.304,7.36l-4.906,-4.416m9.813,10.304l-4.907,-5.888m8.832,11.777l-3.925,-5.889m7.851,11.777l-3.926,-5.888m6.87,3.925l-2.944,1.963m10.304,-6.87l-7.36,4.907m13.248,-10.304l-5.888,5.397m12.267,-11.285l-6.379,5.888m12.758,-11.286l-6.379,5.398m9.813,-7.36l-3.434,1.962m6.869,-3.435l-3.435,1.473m10.795,-2.454l-7.36,0.981m14.72,0l-7.36,-0.981m14.72,2.454l-7.36,-1.473m14.23,4.907l-6.87,-3.434m12.758,7.85l-5.888,-4.416m9.813,9.814l-3.925,-5.398m4.907,8.832l-0.982,-3.434m1.963,6.869l-0.981,-3.435m0.981,6.87l0,-3.435m-0.981,7.36l0.981,-3.925m-0.981,4.907l-0,-0.982m1.962,5.398l-1.962,-4.416m4.907,6.869l-2.945,-2.453m6.379,3.434l-3.434,-0.981m7.85,0.981l-4.416,0m9.323,-0.49l-4.907,0.49m9.323,-2.453l-4.416,1.963m13.248,-5.398l-8.832,3.435m16.192,-7.851l-7.36,4.416m14.721,-9.813l-7.361,5.397m21.59,-17.173l-14.229,11.776m27.477,-24.534l-13.248,12.758m26.006,-24.534l-12.758,11.776m17.665,-24.043l-4.907,12.267m10.795,-24.043l-5.888,11.776m13.248,-22.571l-7.36,10.795m15.701,-21.59l-8.341,10.795m18.646,-21.099l-10.305,10.304m16.193,-14.72l-5.888,4.416m11.776,-7.851l-5.888,3.435m11.776,-5.888l-5.888,2.453m12.757,-3.925l-6.869,1.472m14.229,-1.963l-7.36,0.491m15.211,0.49l-7.851,-0.981m12.758,2.453l-4.907,-1.472m10.304,3.435l-5.397,-1.963m9.813,5.398l-4.416,-3.435m5.888,5.888l-1.472,-2.453m1.963,4.907l-0.491,-2.454m0.982,5.888l-0.491,-3.434m0,7.36l0.491,-3.926m-2.944,10.305l2.453,-6.379m-6.379,12.267l3.926,-5.888m-8.832,11.285l4.906,-5.397m-12.757,11.776l7.851,-6.379m-15.211,12.267l7.36,-5.888m-24.043,16.683l16.683,-10.795m-33.366,21.099l16.683,-10.304m-33.366,20.608l16.683,-10.304m-17.664,11.285l0.981,-0.981m-2.944,6.87l1.963,-5.889m-2.454,11.777l0.491,-5.888m-0.491,12.266l0,-6.378m1.963,12.267l-1.963,-5.889m4.907,9.814l-2.944,-3.925m6.869,6.378l-3.925,-2.453m7.851,3.435l-3.926,-0.982m8.832,0.982l-4.906,-0m9.323,-0.982l-4.417,0.982m9.323,-2.454l-4.906,1.472m12.757,-5.888l-7.851,4.416m15.702,-9.813l-7.851,5.397m14.23,-11.776l-6.379,6.379m19.136,-19.137l-12.757,12.758m17.173,-16.192l-4.416,3.434m8.832,-4.906l-4.416,1.472m9.323,-0.491l-4.907,-0.981m9.323,4.416l-4.416,-3.435m6.379,6.379l-1.963,-2.944m2.944,6.379l-0.981,-3.435m1.963,11.285l-0.982,-7.85m-1.472,14.72l2.454,-6.87m-3.926,11.286l1.472,-4.416m-1.472,6.869l0,-2.453m1.963,3.925l-1.963,-1.472m4.907,1.963l-2.944,-0.491m8.832,0l-5.888,0.491m12.267,-1.963l-6.379,1.472m11.286,-3.434l-4.907,1.962m13.248,-5.888l-8.341,3.926m16.192,-8.833l-7.851,4.907m24.043,-15.701l-16.192,10.794m-0,-9.322l16.192,-1.472m-20.118,0.981l3.926,0.491m-7.36,-2.454l3.434,1.963m-5.888,-4.907l2.454,2.944m-3.926,-6.379l1.472,3.435m-1.962,-6.869l0.49,3.434m0.491,-6.869l-0.981,3.435m3.434,-5.888l-2.453,2.453m5.888,-3.435l-3.435,0.982m29.441,-2.944l-26.006,1.962m51.521,-2.944l-25.515,0.982m38.272,-30.913l-12.757,29.931m16.192,-34.347l-3.435,4.416m7.851,-6.869l-4.416,2.453m9.323,-3.435l-4.907,0.982m10.304,-0l-5.397,-0.982m7.36,2.454l-1.963,-1.472m3.435,3.925l-1.472,-2.453m1.963,4.906l-0.491,-2.453m0,4.907l0.491,-2.454m-12.758,30.422l12.267,-27.968m26.497,27.478l-38.764,0.49m57.9,0l-19.136,-0.49m38.272,1.472l-19.136,-0.982m36.31,2.454l-17.174,-1.472m25.515,1.962l-8.341,-0.49m16.683,2.453l-8.342,-1.963m15.702,4.907l-7.36,-2.944m13.739,6.869l-6.379,-3.925m11.776,10.304l-5.397,-6.379m7.36,10.305l-1.963,-3.926m3.926,8.342l-1.963,-4.416m4.416,14.229l-2.453,-9.813m4.416,2.453l-1.963,7.36m6.379,-13.248l-4.416,5.888m10.304,-10.795l-5.888,4.907m13.248,-7.851l-7.36,2.944m18.645,-4.416l-11.285,1.472m17.174,-1.472l-5.889,0m11.777,0.981l-5.888,-0.981m11.285,2.454l-5.397,-1.473m10.304,4.417l-4.907,-2.944m9.323,6.378l-4.416,-3.434m7.851,8.341l-3.435,-4.907m3.925,5.398l-0.49,-0.491m1.472,-8.832l-0.982,9.323m1.963,-11.286l-0.981,1.963m2.453,-1.963l-1.472,0m3.925,0.982l-2.453,-0.982m4.416,3.435l-1.963,-2.453m6.379,8.341l-4.416,-5.888m5.398,9.323l-0.982,-3.435m1.472,5.888l-0.49,-2.453m-0.491,11.285l0.981,-8.832m3.926,6.87l-4.907,1.962m9.813,-2.453l-4.906,0.491m9.322,0.49l-4.416,-0.981m9.323,2.453l-4.907,-1.472m8.833,3.926l-3.926,-2.454m7.851,5.398l-3.925,-2.944m6.869,6.869l-2.944,-3.925m5.888,8.341l-2.944,-4.416m7.851,13.739l-4.907,-9.323m8.342,13.248l-3.435,-3.925m8.832,6.379l-5.397,-2.454m14.72,3.926l-9.323,-1.472m18.646,0.49l-9.323,0.982m21.59,-5.398l-12.267,4.416m23.552,-10.304l-11.285,5.888m21.099,-14.229l-9.814,8.341m18.646,-17.664l-8.832,9.323m-110.893,7.36l3.435,-0.491l2.453,-1.962l1.963,-2.945l0.49,-2.944l-0.49,-3.434l-1.963,-2.454l-2.453,-1.962l-3.435,-0.491l-2.944,0.491l-2.944,1.962l-1.963,2.454l-0.49,3.434l0.49,2.944l1.963,2.945l2.944,1.962l2.944,0.491m-227.673,-33.366l2.944,-0.981l2.944,-1.472l1.963,-2.944l0.49,-2.944l-0.49,-3.435l-1.963,-2.454l-2.944,-1.962l-2.944,-0.491l-3.435,0.491l-2.453,1.962l-1.963,2.454l-0.491,3.435l0.491,2.944l1.963,2.944l2.453,1.472l3.435,0.981m-518.153,61.825l3.435,-0.491l2.453,-1.962l1.963,-2.454l0.49,-3.434l-0.49,-2.944l-1.963,-2.945l-2.453,-1.472l-3.435,-0.981l-2.944,0.981l-2.944,1.472l-1.963,2.945l-0.49,2.944l0.49,3.434l1.963,2.454l2.944,1.962l2.944,0.491m-31.894,114.818l1.472,-1.472m-3.925,1.963l2.453,-0.491m-9.323,-0.491l6.87,0.982m-13.248,-2.944l6.378,1.962m527.967,-106.967l1.962,2.944m-2.453,-6.379l0.491,3.435m-0,-6.869l-0.491,3.434m342,-2.453l10.305,-2.453m-344.454,14.229l3.434,0.982m-5.888,-1.963l2.454,0.981m-5.398,-2.944l2.944,1.963m-542.196,96.663l0.982,1.472m-0.982,-1.963l0,0.491m345.436,653.088l67.222,0m-556.425,0l489.203,0m-10.795,13.739l-464.669,0m528.457,0l-63.788,0m44.651,21.099l-489.693,0m4224.71,-34.838l67.714,0m-556.426,0l488.712,0m-10.304,13.739l-464.669,0m528.457,0l-63.788,0m44.652,21.099l-489.694,0m133.464,-714.423l-0,-6.869m-0,0l-0,6.869m-194.798,0l-0,-6.869m-194.798,0l-0,6.869m194.798,-6.869l-0,6.869m-194.798,0l-0,-6.869m-2339.54,-1158.97l33.366,-0m-18.155,-26.497l2.944,0m-643.765,26.497l33.365,-0m-18.154,-26.497l2.944,0m2485.27,26.497l33.366,-0m-18.155,-26.497l2.944,0m607.947,26.497l33.366,-0m-18.155,-26.497l2.453,0m-1895.48,26.497l15.701,-0m627.573,-0l15.702,-0m-329.243,1242.39l32.875,-2.454l31.894,-7.36l30.913,-12.267l27.968,-17.173l25.515,-20.609l22.081,-25.024l18.155,-27.478l13.248,-29.931l8.832,-31.894l3.925,-32.875l-1.472,-32.875l-6.378,-32.385l-10.795,-31.403l-16.192,-28.95l-19.627,-26.006l-24.044,-23.061l-26.987,-19.137l-29.44,-14.72l-31.403,-9.813l-32.876,-4.907l-32.875,-0l-32.384,4.907l-31.894,9.813l-29.441,14.72l-26.987,19.137l-23.552,23.061l-20.118,26.006l-15.702,28.95l-11.285,31.403l-6.379,32.385l-0.981,32.875l3.435,32.875l8.832,31.894l13.739,29.931l17.664,27.478l22.08,25.024l25.515,20.609l28.459,17.173l30.422,12.267l32.385,7.36l32.875,2.454m0,14.229l-33.366,-2.453l-32.875,-7.36l-31.403,-11.776l-28.95,-16.683l-26.496,-20.609l-23.553,-24.043l-19.627,-26.987l-15.211,-29.931l-10.795,-31.894l-5.888,-32.875l-1.472,-33.366l3.926,-33.366l8.341,-32.384l13.248,-30.913l17.174,-28.459l21.59,-26.006l25.024,-22.08l27.969,-18.646l30.421,-14.23l31.894,-9.813l33.366,-4.416l33.366,-0l32.875,4.416l32.385,9.813l30.422,14.23l27.968,18.646l24.534,22.08l21.59,26.006l17.664,28.459l12.757,30.913l8.833,32.384l3.434,33.366l-0.981,33.366l-6.379,32.875l-10.795,31.894l-15.211,29.931l-19.627,26.987l-23.061,24.043l-26.497,20.609l-29.44,16.683l-31.403,11.776l-32.385,7.36l-33.366,2.453m0,48.577l36.801,-2.453l36.31,-7.36l35.328,-12.267l33.366,-16.683l30.422,-21.099l27.478,-25.025l24.043,-28.459l20.118,-31.403l15.701,-33.366l10.795,-35.819l6.379,-36.31l0.981,-37.291l-3.435,-36.801l-8.832,-36.31l-13.248,-34.838l-17.664,-32.384l-22.081,-29.932l-26.005,-26.496l-28.95,-23.062l-32.385,-19.136l-33.856,-14.72l-35.82,-9.814l-36.8,-4.907l-37.292,0l-36.8,4.907l-35.819,9.814l-34.348,14.72l-31.894,19.136l-29.44,23.062l-25.515,26.496l-22.081,29.932l-18.155,32.384l-13.248,34.838l-8.341,36.31l-3.926,36.801l1.472,37.291l5.889,36.31l11.285,35.819l15.702,33.366l19.627,31.403l24.043,28.459l27.478,25.025l30.912,21.099l32.875,16.683l35.329,12.267l36.31,7.36l37.291,2.453m-2434.24,-2360.64l0,44.16m4867.99,-44.16l-44.161,-0m-4779.17,-0l-44.652,-0m4867.99,-0l0,44.16m-21.59,0l-5.397,-15.21l-4.907,-13.739l-4.907,-9.814l-5.397,-4.907l-1.963,-0.49m-4801.74,44.16l4824.32,0m-4801.74,-44.16l-5.398,2.453l-4.906,8.342l-5.398,11.776l-4.906,15.211l-1.963,6.378m22.571,-44.16l4779.17,-0m-4823.83,1554.46l22.081,0m-22.081,-1510.3l0,1510.3m4867.99,-1510.3l0,1510.3m0,0l-21.59,0m-4824.32,0l4824.32,0m-2565.25,-776.248l-7.851,1.472l-6.87,4.907l-4.416,6.379l-1.963,8.341l1.963,7.851l4.416,6.87l6.87,4.416l7.851,1.472m-0,-0l305.69,-0m0,-0l8.342,-1.472l6.869,-4.416l4.416,-6.87l1.472,-7.851l-1.472,-8.341l-4.416,-6.379l-6.869,-4.907l-8.342,-1.472m0,0l-305.69,0m-0,-83.414l-7.851,1.472l-6.87,4.416l-4.416,6.869l-1.963,8.342l1.963,7.85l4.416,6.87l6.87,4.416l7.851,1.472m-0,-0l305.69,-0m0,-0l8.342,-1.472l6.869,-4.416l4.416,-6.87l1.472,-7.85l-1.472,-8.342l-4.416,-6.869l-6.869,-4.416l-8.342,-1.472m0,-0l-305.69,-0m-0,584.393l-7.851,1.472l-6.87,4.417l-4.416,6.869l-1.963,7.851l1.963,7.851l4.416,6.869l6.87,4.416l7.851,1.963m-0,-0l305.69,-0m0,-0l8.342,-1.963l6.869,-4.416l4.416,-6.869l1.472,-7.851l-1.472,-7.851l-4.416,-6.869l-6.869,-4.417l-8.342,-1.472m0,0l-305.69,0m-0,-83.905l-7.851,1.963l-6.87,4.416l-4.416,6.869l-1.963,7.851l1.963,7.851l4.416,6.869l6.87,4.416l7.851,1.963m-0,0l305.69,0m0,0l8.342,-1.963l6.869,-4.416l4.416,-6.869l1.472,-7.851l-1.472,-7.851l-4.416,-6.869l-6.869,-4.416l-8.342,-1.963m0,0l-305.69,0m-0,167.32l-7.851,1.472l-6.87,4.416l-4.416,6.87l-1.963,7.851l1.963,7.85l4.416,6.87l6.87,4.416l7.851,1.963m-0,-0l305.69,-0m0,-0l8.342,-1.963l6.869,-4.416l4.416,-6.87l1.472,-7.85l-1.472,-7.851l-4.416,-6.87l-6.869,-4.416l-8.342,-1.472m0,0l-305.69,0m-0,-417.564l-7.851,1.472l-6.87,4.907l-4.416,6.869l-1.963,7.851l1.963,7.851l4.416,6.869l6.87,4.416l7.851,1.472m-0,0l305.69,0m0,0l8.342,-1.472l6.869,-4.416l4.416,-6.869l1.472,-7.851l-1.472,-7.851l-4.416,-6.869l-6.869,-4.907l-8.342,-1.472m0,-0l-305.69,-0m-0,-333.659l-7.851,1.472l-6.87,4.416l-4.416,6.869l-1.963,7.851l1.963,8.342l4.416,6.869l6.87,4.416l7.851,1.472m-0,0l305.69,0m0,0l8.342,-1.472l6.869,-4.416l4.416,-6.869l1.472,-8.342l-1.472,-7.851l-4.416,-6.869l-6.869,-4.416l-8.342,-1.472m0,-0l-305.69,-0m-0,-83.415l-7.851,1.472l-6.87,4.416l-4.416,6.87l-1.963,7.85l1.963,8.342l4.416,6.379l6.87,4.906l7.851,1.472m-0,0l305.69,0m0,0l8.342,-1.472l6.869,-4.906l4.416,-6.379l1.472,-8.342l-1.472,-7.85l-4.416,-6.87l-6.869,-4.416l-8.342,-1.472m0,0l-305.69,0m-0,-83.415l-7.851,1.472l-6.87,4.416l-4.416,6.87l-1.963,7.851l1.963,8.341l4.416,6.379l6.87,4.907l7.851,1.472m-0,-0l305.69,-0m0,-0l8.342,-1.472l6.869,-4.907l4.416,-6.379l1.472,-8.341l-1.472,-7.851l-4.416,-6.87l-6.869,-4.416l-8.342,-1.472m0,0l-305.69,0m-0,-82.924l-7.851,1.472l-6.87,4.416l-4.416,6.87l-1.963,7.851l1.963,7.85l4.416,6.87l6.87,4.907l7.851,1.472m-0,-0l305.69,-0m0,-0l8.342,-1.472l6.869,-4.907l4.416,-6.87l1.472,-7.85l-1.472,-7.851l-4.416,-6.87l-6.869,-4.416l-8.342,-1.472m0,0l-305.69,0m-0,-83.415l-7.851,1.472l-6.87,4.417l-4.416,6.869l-1.963,7.851l1.963,7.851l4.416,6.869l6.87,4.416l7.851,1.963m-0,-0l305.69,-0m0,-0l8.342,-1.963l6.869,-4.416l4.416,-6.869l1.472,-7.851l-1.472,-7.851l-4.416,-6.869l-6.869,-4.417l-8.342,-1.472m0,0l-305.69,0m-0,-83.414l-7.851,1.472l-6.87,4.416l-4.416,6.869l-1.963,7.851l1.963,7.851l4.416,6.869l6.87,4.416l7.851,1.963m-0,0l305.69,0m0,0l8.342,-1.963l6.869,-4.416l4.416,-6.869l1.472,-7.851l-1.472,-7.851l-4.416,-6.869l-6.869,-4.416l-8.342,-1.472m0,-0l-305.69,-0m-0,666.827l-7.851,1.472l-6.87,4.907l-4.416,6.379l-1.963,8.341l1.963,7.851l4.416,6.869l6.87,4.416l7.851,1.472m-0,0l305.69,0m0,0l8.342,-1.472l6.869,-4.416l4.416,-6.869l1.472,-7.851l-1.472,-8.341l-4.416,-6.379l-6.869,-4.907l-8.342,-1.472m0,0l-305.69,0m-0,250.244l-7.851,1.963l-6.87,4.416l-4.416,6.87l-1.963,7.85l1.963,7.851l4.416,6.87l6.87,4.416l7.851,1.472m-0,-0l305.69,-0m0,-0l8.342,-1.472l6.869,-4.416l4.416,-6.87l1.472,-7.851l-1.472,-7.85l-4.416,-6.87l-6.869,-4.416l-8.342,-1.963m0,0l-305.69,0m-0,-83.414l-7.851,1.962l-6.87,4.416l-4.416,6.87l-1.963,7.851l1.963,7.85l4.416,6.87l6.87,4.416l7.851,1.472m-0,-0l305.69,-0m0,-0l8.342,-1.472l6.869,-4.416l4.416,-6.87l1.472,-7.85l-1.472,-7.851l-4.416,-6.87l-6.869,-4.416l-8.342,-1.962m0,-0l-305.69,-0m486.749,-250.245l-7.851,1.472l-6.869,4.907l-4.416,6.379l-1.963,8.341l1.963,7.851l4.416,6.87l6.869,4.416l7.851,1.472m0,-0l306.181,-0m0,-0l7.851,-1.472l6.87,-4.416l4.416,-6.87l1.472,-7.851l-1.472,-8.341l-4.416,-6.379l-6.87,-4.907l-7.851,-1.472m0,0l-306.181,0m-2434.24,0l-7.85,1.472l-6.87,4.907l-4.416,6.379l-1.472,8.341l1.472,7.851l4.416,6.87l6.87,4.416l7.85,1.472m0,-0l306.182,-0m-0,-0l7.85,-1.472l6.87,-4.416l4.416,-6.87l1.963,-7.851l-1.963,-8.341l-4.416,-6.379l-6.87,-4.907l-7.85,-1.472m-0,0l-306.182,0m2920.99,0l-7.851,1.472l-6.87,4.907l-4.416,6.379l-1.472,8.341l1.472,7.851l4.416,6.87l6.87,4.416l7.851,1.472m-0,-0l306.181,-0m-0,-0l7.851,-1.472l6.869,-4.416l4.416,-6.87l1.472,-7.851l-1.472,-8.341l-4.416,-6.379l-6.869,-4.907l-7.851,-1.472m-0,0l-306.181,0m486.749,0l-7.85,1.472l-6.87,4.907l-4.416,6.379l-1.472,8.341l1.472,7.851l4.416,6.87l6.87,4.416l7.85,1.472m0,-0l306.182,-0m-0,-0l7.85,-1.472l6.87,-4.416l4.416,-6.87l1.472,-7.851l-1.472,-8.341l-4.416,-6.379l-6.87,-4.907l-7.85,-1.472m-0,0l-306.182,0m486.75,0l-7.851,1.472l-6.869,4.907l-4.416,6.379l-1.472,8.341l1.472,7.851l4.416,6.87l6.869,4.416l7.851,1.472m-0,-0l306.181,-0m0,-0l7.851,-1.472l6.869,-4.416l4.416,-6.87l1.963,-7.851l-1.963,-8.341l-4.416,-6.379l-6.869,-4.907l-7.851,-1.472m0,0l-306.181,0m-2433.75,0l-8.342,1.472l-6.378,4.907l-4.907,6.379l-1.472,8.341l1.472,7.851l4.907,6.87l6.378,4.416l8.342,1.472m-0,-0l305.69,-0m0,-0l8.342,-1.472l6.379,-4.416l4.906,-6.87l1.472,-7.851l-1.472,-8.341l-4.906,-6.379l-6.379,-4.907l-8.342,-1.472m0,0l-305.69,0m-973.99,0l-7.851,1.472l-6.869,4.907l-4.416,6.379l-1.472,8.341l1.472,7.851l4.416,6.87l6.869,4.416l7.851,1.472m0,-0l306.181,-0m0,-0l7.851,-1.472l6.869,-4.416l4.417,-6.87l1.962,-7.851l-1.962,-8.341l-4.417,-6.379l-6.869,-4.907l-7.851,-1.472m0,0l-306.181,0m487.24,0l-8.341,1.472l-6.379,4.907l-4.907,6.379l-1.472,8.341l1.472,7.851l4.907,6.87l6.379,4.416l8.341,1.472m0,-0l305.691,-0m-0,-0l8.341,-1.472l6.379,-4.416l4.907,-6.87l1.472,-7.851l-1.472,-8.341l-4.907,-6.379l-6.379,-4.907l-8.341,-1.472m-0,0l-305.691,0m1460.25,-83.414l-7.851,1.472l-6.869,4.416l-4.416,6.869l-1.963,8.342l1.963,7.85l4.416,6.87l6.869,4.416l7.851,1.472m0,-0l306.181,-0m0,-0l7.851,-1.472l6.87,-4.416l4.416,-6.87l1.472,-7.85l-1.472,-8.342l-4.416,-6.869l-6.87,-4.416l-7.851,-1.472m0,-0l-306.181,-0m-2434.24,-0l-7.85,1.472l-6.87,4.416l-4.416,6.869l-1.472,8.342l1.472,7.85l4.416,6.87l6.87,4.416l7.85,1.472m0,-0l306.182,-0m-0,-0l7.85,-1.472l6.87,-4.416l4.416,-6.87l1.963,-7.85l-1.963,-8.342l-4.416,-6.869l-6.87,-4.416l-7.85,-1.472m-0,-0l-306.182,-0m2920.99,-0l-7.851,1.472l-6.87,4.416l-4.416,6.869l-1.472,8.342l1.472,7.85l4.416,6.87l6.87,4.416l7.851,1.472m-0,-0l306.181,-0m-0,-0l7.851,-1.472l6.869,-4.416l4.416,-6.87l1.472,-7.85l-1.472,-8.342l-4.416,-6.869l-6.869,-4.416l-7.851,-1.472m-0,-0l-306.181,-0m486.749,-0l-7.85,1.472l-6.87,4.416l-4.416,6.869l-1.472,8.342l1.472,7.85l4.416,6.87l6.87,4.416l7.85,1.472m0,-0l306.182,-0m-0,-0l7.85,-1.472l6.87,-4.416l4.416,-6.87l1.472,-7.85l-1.472,-8.342l-4.416,-6.869l-6.87,-4.416l-7.85,-1.472m-0,-0l-306.182,-0m486.75,-0l-7.851,1.472l-6.869,4.416l-4.416,6.869l-1.472,8.342l1.472,7.85l4.416,6.87l6.869,4.416l7.851,1.472m-0,-0l306.181,-0m0,-0l7.851,-1.472l6.869,-4.416l4.416,-6.87l1.963,-7.85l-1.963,-8.342l-4.416,-6.869l-6.869,-4.416l-7.851,-1.472m0,-0l-306.181,-0m-2433.75,-0l-8.342,1.472l-6.378,4.416l-4.907,6.869l-1.472,8.342l1.472,7.85l4.907,6.87l6.378,4.416l8.342,1.472m-0,-0l305.69,-0m0,-0l8.342,-1.472l6.379,-4.416l4.906,-6.87l1.472,-7.85l-1.472,-8.342l-4.906,-6.869l-6.379,-4.416l-8.342,-1.472m0,-0l-305.69,-0m-973.99,-0l-7.851,1.472l-6.869,4.416l-4.416,6.869l-1.472,8.342l1.472,7.85l4.416,6.87l6.869,4.416l7.851,1.472m0,-0l306.181,-0m0,-0l7.851,-1.472l6.869,-4.416l4.417,-6.87l1.962,-7.85l-1.962,-8.342l-4.417,-6.869l-6.869,-4.416l-7.851,-1.472m0,-0l-306.181,-0m487.24,-0l-8.341,1.472l-6.379,4.416l-4.907,6.869l-1.472,8.342l1.472,7.85l4.907,6.87l6.379,4.416l8.341,1.472m0,-0l305.691,-0m-0,-0l8.341,-1.472l6.379,-4.416l4.907,-6.87l1.472,-7.85l-1.472,-8.342l-4.907,-6.869l-6.379,-4.416l-8.341,-1.472m-0,-0l-305.691,-0m1460.25,584.393l-7.851,1.472l-6.869,4.417l-4.416,6.869l-1.963,7.851l1.963,7.851l4.416,6.869l6.869,4.416l7.851,1.963m0,-0l306.181,-0m0,-0l7.851,-1.963l6.87,-4.416l4.416,-6.869l1.472,-7.851l-1.472,-7.851l-4.416,-6.869l-6.87,-4.417l-7.851,-1.472m0,0l-306.181,0m-2434.24,0l-7.85,1.472l-6.87,4.417l-4.416,6.869l-1.472,7.851l1.472,7.851l4.416,6.869l6.87,4.416l7.85,1.963m0,-0l306.182,-0m-0,-0l7.85,-1.963l6.87,-4.416l4.416,-6.869l1.963,-7.851l-1.963,-7.851l-4.416,-6.869l-6.87,-4.417l-7.85,-1.472m-0,0l-306.182,0m2920.99,0l-7.851,1.472l-6.87,4.417l-4.416,6.869l-1.472,7.851l1.472,7.851l4.416,6.869l6.87,4.416l7.851,1.963m-0,-0l306.181,-0m-0,-0l7.851,-1.963l6.869,-4.416l4.416,-6.869l1.472,-7.851l-1.472,-7.851l-4.416,-6.869l-6.869,-4.417l-7.851,-1.472m-0,0l-306.181,0m486.749,0l-7.85,1.472l-6.87,4.417l-4.416,6.869l-1.472,7.851l1.472,7.851l4.416,6.869l6.87,4.416l7.85,1.963m0,-0l306.182,-0m-0,-0l7.85,-1.963l6.87,-4.416l4.416,-6.869l1.472,-7.851l-1.472,-7.851l-4.416,-6.869l-6.87,-4.417l-7.85,-1.472m-0,0l-306.182,0m486.75,0l-7.851,1.472l-6.869,4.417l-4.416,6.869l-1.472,7.851l1.472,7.851l4.416,6.869l6.869,4.416l7.851,1.963m-0,-0l306.181,-0m0,-0l7.851,-1.963l6.869,-4.416l4.416,-6.869l1.963,-7.851l-1.963,-7.851l-4.416,-6.869l-6.869,-4.417l-7.851,-1.472m0,0l-306.181,0m-2433.75,0l-8.342,1.472l-6.378,4.417l-4.907,6.869l-1.472,7.851l1.472,7.851l4.907,6.869l6.378,4.416l8.342,1.963m-0,-0l305.69,-0m0,-0l8.342,-1.963l6.379,-4.416l4.906,-6.869l1.472,-7.851l-1.472,-7.851l-4.906,-6.869l-6.379,-4.417l-8.342,-1.472m0,0l-305.69,0m-973.99,0l-7.851,1.472l-6.869,4.417l-4.416,6.869l-1.472,7.851l1.472,7.851l4.416,6.869l6.869,4.416l7.851,1.963m0,-0l306.181,-0m0,-0l7.851,-1.963l6.869,-4.416l4.417,-6.869l1.962,-7.851l-1.962,-7.851l-4.417,-6.869l-6.869,-4.417l-7.851,-1.472m0,0l-306.181,0m487.24,0l-8.341,1.472l-6.379,4.417l-4.907,6.869l-1.472,7.851l1.472,7.851l4.907,6.869l6.379,4.416l8.341,1.963m0,-0l305.691,-0m-0,-0l8.341,-1.963l6.379,-4.416l4.907,-6.869l1.472,-7.851l-1.472,-7.851l-4.907,-6.869l-6.379,-4.417l-8.341,-1.472m-0,0l-305.691,0m1460.25,-83.905l-7.851,1.963l-6.869,4.416l-4.416,6.869l-1.963,7.851l1.963,7.851l4.416,6.869l6.869,4.416l7.851,1.963m0,0l306.181,0m0,0l7.851,-1.963l6.87,-4.416l4.416,-6.869l1.472,-7.851l-1.472,-7.851l-4.416,-6.869l-6.87,-4.416l-7.851,-1.963m0,0l-306.181,0m-2434.24,0l-7.85,1.963l-6.87,4.416l-4.416,6.869l-1.472,7.851l1.472,7.851l4.416,6.869l6.87,4.416l7.85,1.963m0,0l306.182,0m-0,0l7.85,-1.963l6.87,-4.416l4.416,-6.869l1.963,-7.851l-1.963,-7.851l-4.416,-6.869l-6.87,-4.416l-7.85,-1.963m-0,0l-306.182,0m2920.99,0l-7.851,1.963l-6.87,4.416l-4.416,6.869l-1.472,7.851l1.472,7.851l4.416,6.869l6.87,4.416l7.851,1.963m-0,0l306.181,0m-0,0l7.851,-1.963l6.869,-4.416l4.416,-6.869l1.472,-7.851l-1.472,-7.851l-4.416,-6.869l-6.869,-4.416l-7.851,-1.963m-0,0l-306.181,0m486.749,0l-7.85,1.963l-6.87,4.416l-4.416,6.869l-1.472,7.851l1.472,7.851l4.416,6.869l6.87,4.416l7.85,1.963m0,0l306.182,0m-0,0l7.85,-1.963l6.87,-4.416l4.416,-6.869l1.472,-7.851l-1.472,-7.851l-4.416,-6.869l-6.87,-4.416l-7.85,-1.963m-0,0l-306.182,0m486.75,0l-7.851,1.963l-6.869,4.416l-4.416,6.869l-1.472,7.851l1.472,7.851l4.416,6.869l6.869,4.416l7.851,1.963m-0,0l306.181,0m0,0l7.851,-1.963l6.869,-4.416l4.416,-6.869l1.963,-7.851l-1.963,-7.851l-4.416,-6.869l-6.869,-4.416l-7.851,-1.963m0,0l-306.181,0m-2433.75,0l-8.342,1.963l-6.378,4.416l-4.907,6.869l-1.472,7.851l1.472,7.851l4.907,6.869l6.378,4.416l8.342,1.963m-0,0l305.69,0m0,0l8.342,-1.963l6.379,-4.416l4.906,-6.869l1.472,-7.851l-1.472,-7.851l-4.906,-6.869l-6.379,-4.416l-8.342,-1.963m0,0l-305.69,0m-973.99,0l-7.851,1.963l-6.869,4.416l-4.416,6.869l-1.472,7.851l1.472,7.851l4.416,6.869l6.869,4.416l7.851,1.963m0,0l306.181,0m0,0l7.851,-1.963l6.869,-4.416l4.417,-6.869l1.962,-7.851l-1.962,-7.851l-4.417,-6.869l-6.869,-4.416l-7.851,-1.963m0,0l-306.181,0m487.24,0l-8.341,1.963l-6.379,4.416l-4.907,6.869l-1.472,7.851l1.472,7.851l4.907,6.869l6.379,4.416l8.341,1.963m0,0l305.691,0m-0,0l8.341,-1.963l6.379,-4.416l4.907,-6.869l1.472,-7.851l-1.472,-7.851l-4.907,-6.869l-6.379,-4.416l-8.341,-1.963m-0,0l-305.691,0m1460.25,167.32l-7.851,1.472l-6.869,4.416l-4.416,6.87l-1.963,7.851l1.963,7.85l4.416,6.87l6.869,4.416l7.851,1.963m0,-0l306.181,-0m0,-0l7.851,-1.963l6.87,-4.416l4.416,-6.87l1.472,-7.85l-1.472,-7.851l-4.416,-6.87l-6.87,-4.416l-7.851,-1.472m0,0l-306.181,0m-2434.24,0l-7.85,1.472l-6.87,4.416l-4.416,6.87l-1.472,7.851l1.472,7.85l4.416,6.87l6.87,4.416l7.85,1.963m0,-0l306.182,-0m-0,-0l7.85,-1.963l6.87,-4.416l4.416,-6.87l1.963,-7.85l-1.963,-7.851l-4.416,-6.87l-6.87,-4.416l-7.85,-1.472m-0,0l-306.182,0m2920.99,0l-7.851,1.472l-6.87,4.416l-4.416,6.87l-1.472,7.851l1.472,7.85l4.416,6.87l6.87,4.416l7.851,1.963m-0,-0l306.181,-0m-0,-0l7.851,-1.963l6.869,-4.416l4.416,-6.87l1.472,-7.85l-1.472,-7.851l-4.416,-6.87l-6.869,-4.416l-7.851,-1.472m-0,0l-306.181,0m486.749,0l-7.85,1.472l-6.87,4.416l-4.416,6.87l-1.472,7.851l1.472,7.85l4.416,6.87l6.87,4.416l7.85,1.963m0,-0l306.182,-0m-0,-0l7.85,-1.963l6.87,-4.416l4.416,-6.87l1.472,-7.85l-1.472,-7.851l-4.416,-6.87l-6.87,-4.416l-7.85,-1.472m-0,0l-306.182,0m486.75,0l-7.851,1.472l-6.869,4.416l-4.416,6.87l-1.472,7.851l1.472,7.85l4.416,6.87l6.869,4.416l7.851,1.963m-0,-0l306.181,-0m0,-0l7.851,-1.963l6.869,-4.416l4.416,-6.87l1.963,-7.85l-1.963,-7.851l-4.416,-6.87l-6.869,-4.416l-7.851,-1.472m0,0l-306.181,0m-2433.75,0l-8.342,1.472l-6.378,4.416l-4.907,6.87l-1.472,7.851l1.472,7.85l4.907,6.87l6.378,4.416l8.342,1.963m-0,-0l305.69,-0m0,-0l8.342,-1.963l6.379,-4.416l4.906,-6.87l1.472,-7.85l-1.472,-7.851l-4.906,-6.87l-6.379,-4.416l-8.342,-1.472m0,0l-305.69,0m-973.99,0l-7.851,1.472l-6.869,4.416l-4.416,6.87l-1.472,7.851l1.472,7.85l4.416,6.87l6.869,4.416l7.851,1.963m0,-0l306.181,-0m0,-0l7.851,-1.963l6.869,-4.416l4.417,-6.87l1.962,-7.85l-1.962,-7.851l-4.417,-6.87l-6.869,-4.416l-7.851,-1.472m0,0l-306.181,0m487.24,0l-8.341,1.472l-6.379,4.416l-4.907,6.87l-1.472,7.851l1.472,7.85l4.907,6.87l6.379,4.416l8.341,1.963m0,-0l305.691,-0m-0,-0l8.341,-1.963l6.379,-4.416l4.907,-6.87l1.472,-7.85l-1.472,-7.851l-4.907,-6.87l-6.379,-4.416l-8.341,-1.472m-0,0l-305.691,0m1460.25,-417.564l-7.851,1.472l-6.869,4.907l-4.416,6.869l-1.963,7.851l1.963,7.851l4.416,6.869l6.869,4.416l7.851,1.472m0,0l306.181,0m0,0l7.851,-1.472l6.87,-4.416l4.416,-6.869l1.472,-7.851l-1.472,-7.851l-4.416,-6.869l-6.87,-4.907l-7.851,-1.472m0,-0l-306.181,-0m-2434.24,-0l-7.85,1.472l-6.87,4.907l-4.416,6.869l-1.472,7.851l1.472,7.851l4.416,6.869l6.87,4.416l7.85,1.472m0,0l306.182,0m-0,0l7.85,-1.472l6.87,-4.416l4.416,-6.869l1.963,-7.851l-1.963,-7.851l-4.416,-6.869l-6.87,-4.907l-7.85,-1.472m-0,-0l-306.182,-0m2920.99,-0l-7.851,1.472l-6.87,4.907l-4.416,6.869l-1.472,7.851l1.472,7.851l4.416,6.869l6.87,4.416l7.851,1.472m-0,0l306.181,0m-0,0l7.851,-1.472l6.869,-4.416l4.416,-6.869l1.472,-7.851l-1.472,-7.851l-4.416,-6.869l-6.869,-4.907l-7.851,-1.472m-0,-0l-306.181,-0m486.749,-0l-7.85,1.472l-6.87,4.907l-4.416,6.869l-1.472,7.851l1.472,7.851l4.416,6.869l6.87,4.416l7.85,1.472m0,0l306.182,0m-0,0l7.85,-1.472l6.87,-4.416l4.416,-6.869l1.472,-7.851l-1.472,-7.851l-4.416,-6.869l-6.87,-4.907l-7.85,-1.472m-0,-0l-306.182,-0m486.75,-0l-7.851,1.472l-6.869,4.907l-4.416,6.869l-1.472,7.851l1.472,7.851l4.416,6.869l6.869,4.416l7.851,1.472m-0,0l306.181,0m0,0l7.851,-1.472l6.869,-4.416l4.416,-6.869l1.963,-7.851l-1.963,-7.851l-4.416,-6.869l-6.869,-4.907l-7.851,-1.472m0,-0l-306.181,-0m-2433.75,-0l-8.342,1.472l-6.378,4.907l-4.907,6.869l-1.472,7.851l1.472,7.851l4.907,6.869l6.378,4.416l8.342,1.472m-0,0l305.69,0m0,0l8.342,-1.472l6.379,-4.416l4.906,-6.869l1.472,-7.851l-1.472,-7.851l-4.906,-6.869l-6.379,-4.907l-8.342,-1.472m0,-0l-305.69,-0m-973.99,-0l-7.851,1.472l-6.869,4.907l-4.416,6.869l-1.472,7.851l1.472,7.851l4.416,6.869l6.869,4.416l7.851,1.472m0,0l306.181,0m0,0l7.851,-1.472l6.869,-4.416l4.417,-6.869l1.962,-7.851l-1.962,-7.851l-4.417,-6.869l-6.869,-4.907l-7.851,-1.472m0,-0l-306.181,-0m487.24,-0l-8.341,1.472l-6.379,4.907l-4.907,6.869l-1.472,7.851l1.472,7.851l4.907,6.869l6.379,4.416l8.341,1.472m0,0l305.691,0m-0,0l8.341,-1.472l6.379,-4.416l4.907,-6.869l1.472,-7.851l-1.472,-7.851l-4.907,-6.869l-6.379,-4.907l-8.341,-1.472m-0,-0l-305.691,-0m1460.25,-333.659l-7.851,1.472l-6.869,4.416l-4.416,6.869l-1.963,7.851l1.963,8.342l4.416,6.869l6.869,4.416l7.851,1.472m0,0l306.181,0m0,0l7.851,-1.472l6.87,-4.416l4.416,-6.869l1.472,-8.342l-1.472,-7.851l-4.416,-6.869l-6.87,-4.416l-7.851,-1.472m0,-0l-306.181,-0m-2434.24,-0l-7.85,1.472l-6.87,4.416l-4.416,6.869l-1.472,7.851l1.472,8.342l4.416,6.869l6.87,4.416l7.85,1.472m0,0l306.182,0m-0,0l7.85,-1.472l6.87,-4.416l4.416,-6.869l1.963,-8.342l-1.963,-7.851l-4.416,-6.869l-6.87,-4.416l-7.85,-1.472m-0,-0l-306.182,-0m2920.99,-0l-7.851,1.472l-6.87,4.416l-4.416,6.869l-1.472,7.851l1.472,8.342l4.416,6.869l6.87,4.416l7.851,1.472m-0,0l306.181,0m-0,0l7.851,-1.472l6.869,-4.416l4.416,-6.869l1.472,-8.342l-1.472,-7.851l-4.416,-6.869l-6.869,-4.416l-7.851,-1.472m-0,-0l-306.181,-0m486.749,-0l-7.85,1.472l-6.87,4.416l-4.416,6.869l-1.472,7.851l1.472,8.342l4.416,6.869l6.87,4.416l7.85,1.472m0,0l306.182,0m-0,0l7.85,-1.472l6.87,-4.416l4.416,-6.869l1.472,-8.342l-1.472,-7.851l-4.416,-6.869l-6.87,-4.416l-7.85,-1.472m-0,-0l-306.182,-0m486.75,-0l-7.851,1.472l-6.869,4.416l-4.416,6.869l-1.472,7.851l1.472,8.342l4.416,6.869l6.869,4.416l7.851,1.472m-0,0l306.181,0m0,0l7.851,-1.472l6.869,-4.416l4.416,-6.869l1.963,-8.342l-1.963,-7.851l-4.416,-6.869l-6.869,-4.416l-7.851,-1.472m0,-0l-306.181,-0m-2433.75,-0l-8.342,1.472l-6.378,4.416l-4.907,6.869l-1.472,7.851l1.472,8.342l4.907,6.869l6.378,4.416l8.342,1.472m-0,0l305.69,0m0,0l8.342,-1.472l6.379,-4.416l4.906,-6.869l1.472,-8.342l-1.472,-7.851l-4.906,-6.869l-6.379,-4.416l-8.342,-1.472m0,-0l-305.69,-0m-973.99,-0l-7.851,1.472l-6.869,4.416l-4.416,6.869l-1.472,7.851l1.472,8.342l4.416,6.869l6.869,4.416l7.851,1.472m0,0l306.181,0m0,0l7.851,-1.472l6.869,-4.416l4.417,-6.869l1.962,-8.342l-1.962,-7.851l-4.417,-6.869l-6.869,-4.416l-7.851,-1.472m0,-0l-306.181,-0m487.24,-0l-8.341,1.472l-6.379,4.416l-4.907,6.869l-1.472,7.851l1.472,8.342l4.907,6.869l6.379,4.416l8.341,1.472m0,0l305.691,0m-0,0l8.341,-1.472l6.379,-4.416l4.907,-6.869l1.472,-8.342l-1.472,-7.851l-4.907,-6.869l-6.379,-4.416l-8.341,-1.472m-0,-0l-305.691,-0m1460.25,-83.415l-7.851,1.472l-6.869,4.416l-4.416,6.87l-1.963,7.85l1.963,8.342l4.416,6.379l6.869,4.906l7.851,1.472m0,0l306.181,0m0,0l7.851,-1.472l6.87,-4.906l4.416,-6.379l1.472,-8.342l-1.472,-7.85l-4.416,-6.87l-6.87,-4.416l-7.851,-1.472m0,0l-306.181,0m-2434.24,0l-7.85,1.472l-6.87,4.416l-4.416,6.87l-1.472,7.85l1.472,8.342l4.416,6.379l6.87,4.906l7.85,1.472m0,0l306.182,0m-0,0l7.85,-1.472l6.87,-4.906l4.416,-6.379l1.963,-8.342l-1.963,-7.85l-4.416,-6.87l-6.87,-4.416l-7.85,-1.472m-0,0l-306.182,0m2920.99,0l-7.851,1.472l-6.87,4.416l-4.416,6.87l-1.472,7.85l1.472,8.342l4.416,6.379l6.87,4.906l7.851,1.472m-0,0l306.181,0m-0,0l7.851,-1.472l6.869,-4.906l4.416,-6.379l1.472,-8.342l-1.472,-7.85l-4.416,-6.87l-6.869,-4.416l-7.851,-1.472m-0,0l-306.181,0m486.749,0l-7.85,1.472l-6.87,4.416l-4.416,6.87l-1.472,7.85l1.472,8.342l4.416,6.379l6.87,4.906l7.85,1.472m0,0l306.182,0m-0,0l7.85,-1.472l6.87,-4.906l4.416,-6.379l1.472,-8.342l-1.472,-7.85l-4.416,-6.87l-6.87,-4.416l-7.85,-1.472m-0,0l-306.182,0m486.75,0l-7.851,1.472l-6.869,4.416l-4.416,6.87l-1.472,7.85l1.472,8.342l4.416,6.379l6.869,4.906l7.851,1.472m-0,0l306.181,0m0,0l7.851,-1.472l6.869,-4.906l4.416,-6.379l1.963,-8.342l-1.963,-7.85l-4.416,-6.87l-6.869,-4.416l-7.851,-1.472m0,0l-306.181,0m-2433.75,0l-8.342,1.472l-6.378,4.416l-4.907,6.87l-1.472,7.85l1.472,8.342l4.907,6.379l6.378,4.906l8.342,1.472m-0,0l305.69,0m0,0l8.342,-1.472l6.379,-4.906l4.906,-6.379l1.472,-8.342l-1.472,-7.85l-4.906,-6.87l-6.379,-4.416l-8.342,-1.472m0,0l-305.69,0m-973.99,0l-7.851,1.472l-6.869,4.416l-4.416,6.87l-1.472,7.85l1.472,8.342l4.416,6.379l6.869,4.906l7.851,1.472m0,0l306.181,0m0,0l7.851,-1.472l6.869,-4.906l4.417,-6.379l1.962,-8.342l-1.962,-7.85l-4.417,-6.87l-6.869,-4.416l-7.851,-1.472m0,0l-306.181,0m487.24,0l-8.341,1.472l-6.379,4.416l-4.907,6.87l-1.472,7.85l1.472,8.342l4.907,6.379l6.379,4.906l8.341,1.472m0,0l305.691,0m-0,0l8.341,-1.472l6.379,-4.906l4.907,-6.379l1.472,-8.342l-1.472,-7.85l-4.907,-6.87l-6.379,-4.416l-8.341,-1.472m-0,0l-305.691,0m1460.25,-83.415l-7.851,1.472l-6.869,4.416l-4.416,6.87l-1.963,7.851l1.963,8.341l4.416,6.379l6.869,4.907l7.851,1.472m0,-0l306.181,-0m0,-0l7.851,-1.472l6.87,-4.907l4.416,-6.379l1.472,-8.341l-1.472,-7.851l-4.416,-6.87l-6.87,-4.416l-7.851,-1.472m0,0l-306.181,0m-2434.24,0l-7.85,1.472l-6.87,4.416l-4.416,6.87l-1.472,7.851l1.472,8.341l4.416,6.379l6.87,4.907l7.85,1.472m0,-0l306.182,-0m-0,-0l7.85,-1.472l6.87,-4.907l4.416,-6.379l1.963,-8.341l-1.963,-7.851l-4.416,-6.87l-6.87,-4.416l-7.85,-1.472m-0,0l-306.182,0m2920.99,0l-7.851,1.472l-6.87,4.416l-4.416,6.87l-1.472,7.851l1.472,8.341l4.416,6.379l6.87,4.907l7.851,1.472m-0,-0l306.181,-0m-0,-0l7.851,-1.472l6.869,-4.907l4.416,-6.379l1.472,-8.341l-1.472,-7.851l-4.416,-6.87l-6.869,-4.416l-7.851,-1.472m-0,0l-306.181,0m486.749,0l-7.85,1.472l-6.87,4.416l-4.416,6.87l-1.472,7.851l1.472,8.341l4.416,6.379l6.87,4.907l7.85,1.472m0,-0l306.182,-0m-0,-0l7.85,-1.472l6.87,-4.907l4.416,-6.379l1.472,-8.341l-1.472,-7.851l-4.416,-6.87l-6.87,-4.416l-7.85,-1.472m-0,0l-306.182,0m486.75,0l-7.851,1.472l-6.869,4.416l-4.416,6.87l-1.472,7.851l1.472,8.341l4.416,6.379l6.869,4.907l7.851,1.472m-0,-0l306.181,-0m0,-0l7.851,-1.472l6.869,-4.907l4.416,-6.379l1.963,-8.341l-1.963,-7.851l-4.416,-6.87l-6.869,-4.416l-7.851,-1.472m0,0l-306.181,0m-2433.75,0l-8.342,1.472l-6.378,4.416l-4.907,6.87l-1.472,7.851l1.472,8.341l4.907,6.379l6.378,4.907l8.342,1.472m-0,-0l305.69,-0m0,-0l8.342,-1.472l6.379,-4.907l4.906,-6.379l1.472,-8.341l-1.472,-7.851l-4.906,-6.87l-6.379,-4.416l-8.342,-1.472m0,0l-305.69,0m-973.99,0l-7.851,1.472l-6.869,4.416l-4.416,6.87l-1.472,7.851l1.472,8.341l4.416,6.379l6.869,4.907l7.851,1.472m0,-0l306.181,-0m0,-0l7.851,-1.472l6.869,-4.907l4.417,-6.379l1.962,-8.341l-1.962,-7.851l-4.417,-6.87l-6.869,-4.416l-7.851,-1.472m0,0l-306.181,0m487.24,0l-8.341,1.472l-6.379,4.416l-4.907,6.87l-1.472,7.851l1.472,8.341l4.907,6.379l6.379,4.907l8.341,1.472m0,-0l305.691,-0m-0,-0l8.341,-1.472l6.379,-4.907l4.907,-6.379l1.472,-8.341l-1.472,-7.851l-4.907,-6.87l-6.379,-4.416l-8.341,-1.472m-0,0l-305.691,0m1460.25,-82.924l-7.851,1.472l-6.869,4.416l-4.416,6.87l-1.963,7.851l1.963,7.85l4.416,6.87l6.869,4.907l7.851,1.472m0,-0l306.181,-0m0,-0l7.851,-1.472l6.87,-4.907l4.416,-6.87l1.472,-7.85l-1.472,-7.851l-4.416,-6.87l-6.87,-4.416l-7.851,-1.472m0,0l-306.181,0m-2434.24,0l-7.85,1.472l-6.87,4.416l-4.416,6.87l-1.472,7.851l1.472,7.85l4.416,6.87l6.87,4.907l7.85,1.472m0,-0l306.182,-0m-0,-0l7.85,-1.472l6.87,-4.907l4.416,-6.87l1.963,-7.85l-1.963,-7.851l-4.416,-6.87l-6.87,-4.416l-7.85,-1.472m-0,0l-306.182,0m2920.99,0l-7.851,1.472l-6.87,4.416l-4.416,6.87l-1.472,7.851l1.472,7.85l4.416,6.87l6.87,4.907l7.851,1.472m-0,-0l306.181,-0m-0,-0l7.851,-1.472l6.869,-4.907l4.416,-6.87l1.472,-7.85l-1.472,-7.851l-4.416,-6.87l-6.869,-4.416l-7.851,-1.472m-0,0l-306.181,0m486.749,0l-7.85,1.472l-6.87,4.416l-4.416,6.87l-1.472,7.851l1.472,7.85l4.416,6.87l6.87,4.907l7.85,1.472m0,-0l306.182,-0m-0,-0l7.85,-1.472l6.87,-4.907l4.416,-6.87l1.472,-7.85l-1.472,-7.851l-4.416,-6.87l-6.87,-4.416l-7.85,-1.472m-0,0l-306.182,0m486.75,0l-7.851,1.472l-6.869,4.416l-4.416,6.87l-1.472,7.851l1.472,7.85l4.416,6.87l6.869,4.907l7.851,1.472m-0,-0l306.181,-0m0,-0l7.851,-1.472l6.869,-4.907l4.416,-6.87l1.963,-7.85l-1.963,-7.851l-4.416,-6.87l-6.869,-4.416l-7.851,-1.472m0,0l-306.181,0m-2433.75,0l-8.342,1.472l-6.378,4.416l-4.907,6.87l-1.472,7.851l1.472,7.85l4.907,6.87l6.378,4.907l8.342,1.472m-0,-0l305.69,-0m0,-0l8.342,-1.472l6.379,-4.907l4.906,-6.87l1.472,-7.85l-1.472,-7.851l-4.906,-6.87l-6.379,-4.416l-8.342,-1.472m0,0l-305.69,0m-973.99,0l-7.851,1.472l-6.869,4.416l-4.416,6.87l-1.472,7.851l1.472,7.85l4.416,6.87l6.869,4.907l7.851,1.472m0,-0l306.181,-0m0,-0l7.851,-1.472l6.869,-4.907l4.417,-6.87l1.962,-7.85l-1.962,-7.851l-4.417,-6.87l-6.869,-4.416l-7.851,-1.472m0,0l-306.181,0m487.24,0l-8.341,1.472l-6.379,4.416l-4.907,6.87l-1.472,7.851l1.472,7.85l4.907,6.87l6.379,4.907l8.341,1.472m0,-0l305.691,-0m-0,-0l8.341,-1.472l6.379,-4.907l4.907,-6.87l1.472,-7.85l-1.472,-7.851l-4.907,-6.87l-6.379,-4.416l-8.341,-1.472m-0,0l-305.691,0m1460.25,-83.415l-7.851,1.472l-6.869,4.417l-4.416,6.869l-1.963,7.851l1.963,7.851l4.416,6.869l6.869,4.416l7.851,1.963m0,-0l306.181,-0m0,-0l7.851,-1.963l6.87,-4.416l4.416,-6.869l1.472,-7.851l-1.472,-7.851l-4.416,-6.869l-6.87,-4.417l-7.851,-1.472m0,0l-306.181,0m-2434.24,0l-7.85,1.472l-6.87,4.417l-4.416,6.869l-1.472,7.851l1.472,7.851l4.416,6.869l6.87,4.416l7.85,1.963m0,-0l306.182,-0m-0,-0l7.85,-1.963l6.87,-4.416l4.416,-6.869l1.963,-7.851l-1.963,-7.851l-4.416,-6.869l-6.87,-4.417l-7.85,-1.472m-0,0l-306.182,0m2920.99,0l-7.851,1.472l-6.87,4.417l-4.416,6.869l-1.472,7.851l1.472,7.851l4.416,6.869l6.87,4.416l7.851,1.963m-0,-0l306.181,-0m-0,-0l7.851,-1.963l6.869,-4.416l4.416,-6.869l1.472,-7.851l-1.472,-7.851l-4.416,-6.869l-6.869,-4.417l-7.851,-1.472m-0,0l-306.181,0m486.749,0l-7.85,1.472l-6.87,4.417l-4.416,6.869l-1.472,7.851l1.472,7.851l4.416,6.869l6.87,4.416l7.85,1.963m0,-0l306.182,-0m-0,-0l7.85,-1.963l6.87,-4.416l4.416,-6.869l1.472,-7.851l-1.472,-7.851l-4.416,-6.869l-6.87,-4.417l-7.85,-1.472m-0,0l-306.182,0m486.75,0l-7.851,1.472l-6.869,4.417l-4.416,6.869l-1.472,7.851l1.472,7.851l4.416,6.869l6.869,4.416l7.851,1.963m-0,-0l306.181,-0m0,-0l7.851,-1.963l6.869,-4.416l4.416,-6.869l1.963,-7.851l-1.963,-7.851l-4.416,-6.869l-6.869,-4.417l-7.851,-1.472m0,0l-306.181,0m-2433.75,0l-8.342,1.472l-6.378,4.417l-4.907,6.869l-1.472,7.851l1.472,7.851l4.907,6.869l6.378,4.416l8.342,1.963m-0,-0l305.69,-0m0,-0l8.342,-1.963l6.379,-4.416l4.906,-6.869l1.472,-7.851l-1.472,-7.851l-4.906,-6.869l-6.379,-4.417l-8.342,-1.472m0,0l-305.69,0m-973.99,0l-7.851,1.472l-6.869,4.417l-4.416,6.869l-1.472,7.851l1.472,7.851l4.416,6.869l6.869,4.416l7.851,1.963m0,-0l306.181,-0m0,-0l7.851,-1.963l6.869,-4.416l4.417,-6.869l1.962,-7.851l-1.962,-7.851l-4.417,-6.869l-6.869,-4.417l-7.851,-1.472m0,0l-306.181,0m487.24,0l-8.341,1.472l-6.379,4.417l-4.907,6.869l-1.472,7.851l1.472,7.851l4.907,6.869l6.379,4.416l8.341,1.963m0,-0l305.691,-0m-0,-0l8.341,-1.963l6.379,-4.416l4.907,-6.869l1.472,-7.851l-1.472,-7.851l-4.907,-6.869l-6.379,-4.417l-8.341,-1.472m-0,0l-305.691,0m1460.25,-83.414l-7.851,1.472l-6.869,4.416l-4.416,6.869l-1.963,7.851l1.963,7.851l4.416,6.869l6.869,4.416l7.851,1.963m0,0l306.181,0m0,0l7.851,-1.963l6.87,-4.416l4.416,-6.869l1.472,-7.851l-1.472,-7.851l-4.416,-6.869l-6.87,-4.416l-7.851,-1.472m0,-0l-306.181,-0m-2434.24,-0l-7.85,1.472l-6.87,4.416l-4.416,6.869l-1.472,7.851l1.472,7.851l4.416,6.869l6.87,4.416l7.85,1.963m0,0l306.182,0m-0,0l7.85,-1.963l6.87,-4.416l4.416,-6.869l1.963,-7.851l-1.963,-7.851l-4.416,-6.869l-6.87,-4.416l-7.85,-1.472m-0,-0l-306.182,-0m2920.99,-0l-7.851,1.472l-6.87,4.416l-4.416,6.869l-1.472,7.851l1.472,7.851l4.416,6.869l6.87,4.416l7.851,1.963m-0,0l306.181,0m-0,0l7.851,-1.963l6.869,-4.416l4.416,-6.869l1.472,-7.851l-1.472,-7.851l-4.416,-6.869l-6.869,-4.416l-7.851,-1.472m-0,-0l-306.181,-0m486.749,-0l-7.85,1.472l-6.87,4.416l-4.416,6.869l-1.472,7.851l1.472,7.851l4.416,6.869l6.87,4.416l7.85,1.963m0,0l306.182,0m-0,0l7.85,-1.963l6.87,-4.416l4.416,-6.869l1.472,-7.851l-1.472,-7.851l-4.416,-6.869l-6.87,-4.416l-7.85,-1.472m-0,-0l-306.182,-0m486.75,-0l-7.851,1.472l-6.869,4.416l-4.416,6.869l-1.472,7.851l1.472,7.851l4.416,6.869l6.869,4.416l7.851,1.963m-0,0l306.181,0m0,0l7.851,-1.963l6.869,-4.416l4.416,-6.869l1.963,-7.851l-1.963,-7.851l-4.416,-6.869l-6.869,-4.416l-7.851,-1.472m0,-0l-306.181,-0m-2433.75,-0l-8.342,1.472l-6.378,4.416l-4.907,6.869l-1.472,7.851l1.472,7.851l4.907,6.869l6.378,4.416l8.342,1.963m-0,0l305.69,0m0,0l8.342,-1.963l6.379,-4.416l4.906,-6.869l1.472,-7.851l-1.472,-7.851l-4.906,-6.869l-6.379,-4.416l-8.342,-1.472m0,-0l-305.69,-0m-973.99,-0l-7.851,1.472l-6.869,4.416l-4.416,6.869l-1.472,7.851l1.472,7.851l4.416,6.869l6.869,4.416l7.851,1.963m0,0l306.181,0m0,0l7.851,-1.963l6.869,-4.416l4.417,-6.869l1.962,-7.851l-1.962,-7.851l-4.417,-6.869l-6.869,-4.416l-7.851,-1.472m0,-0l-306.181,-0m487.24,-0l-8.341,1.472l-6.379,4.416l-4.907,6.869l-1.472,7.851l1.472,7.851l4.907,6.869l6.379,4.416l8.341,1.963m0,0l305.691,0m-0,0l8.341,-1.963l6.379,-4.416l4.907,-6.869l1.472,-7.851l-1.472,-7.851l-4.907,-6.869l-6.379,-4.416l-8.341,-1.472m-0,-0l-305.691,-0m1460.25,666.827l-7.851,1.472l-6.869,4.907l-4.416,6.379l-1.963,8.341l1.963,7.851l4.416,6.869l6.869,4.416l7.851,1.472m0,0l306.181,0m0,0l7.851,-1.472l6.87,-4.416l4.416,-6.869l1.472,-7.851l-1.472,-8.341l-4.416,-6.379l-6.87,-4.907l-7.851,-1.472m0,0l-306.181,0m-2434.24,0l-7.85,1.472l-6.87,4.907l-4.416,6.379l-1.472,8.341l1.472,7.851l4.416,6.869l6.87,4.416l7.85,1.472m0,0l306.182,0m-0,0l7.85,-1.472l6.87,-4.416l4.416,-6.869l1.963,-7.851l-1.963,-8.341l-4.416,-6.379l-6.87,-4.907l-7.85,-1.472m-0,0l-306.182,0m2920.99,0l-7.851,1.472l-6.87,4.907l-4.416,6.379l-1.472,8.341l1.472,7.851l4.416,6.869l6.87,4.416l7.851,1.472m-0,0l306.181,0m-0,0l7.851,-1.472l6.869,-4.416l4.416,-6.869l1.472,-7.851l-1.472,-8.341l-4.416,-6.379l-6.869,-4.907l-7.851,-1.472m-0,0l-306.181,0m486.749,0l-7.85,1.472l-6.87,4.907l-4.416,6.379l-1.472,8.341l1.472,7.851l4.416,6.869l6.87,4.416l7.85,1.472m0,0l306.182,0m-0,0l7.85,-1.472l6.87,-4.416l4.416,-6.869l1.472,-7.851l-1.472,-8.341l-4.416,-6.379l-6.87,-4.907l-7.85,-1.472m-0,0l-306.182,0m486.75,0l-7.851,1.472l-6.869,4.907l-4.416,6.379l-1.472,8.341l1.472,7.851l4.416,6.869l6.869,4.416l7.851,1.472m-0,0l306.181,0m0,0l7.851,-1.472l6.869,-4.416l4.416,-6.869l1.963,-7.851l-1.963,-8.341l-4.416,-6.379l-6.869,-4.907l-7.851,-1.472m0,0l-306.181,0m-2433.75,0l-8.342,1.472l-6.378,4.907l-4.907,6.379l-1.472,8.341l1.472,7.851l4.907,6.869l6.378,4.416l8.342,1.472m-0,0l305.69,0m0,0l8.342,-1.472l6.379,-4.416l4.906,-6.869l1.472,-7.851l-1.472,-8.341l-4.906,-6.379l-6.379,-4.907l-8.342,-1.472m0,0l-305.69,0m-973.99,0l-7.851,1.472l-6.869,4.907l-4.416,6.379l-1.472,8.341l1.472,7.851l4.416,6.869l6.869,4.416l7.851,1.472m0,0l306.181,0m0,0l7.851,-1.472l6.869,-4.416l4.417,-6.869l1.962,-7.851l-1.962,-8.341l-4.417,-6.379l-6.869,-4.907l-7.851,-1.472m0,0l-306.181,0m487.24,0l-8.341,1.472l-6.379,4.907l-4.907,6.379l-1.472,8.341l1.472,7.851l4.907,6.869l6.379,4.416l8.341,1.472m0,0l305.691,0m-0,0l8.341,-1.472l6.379,-4.416l4.907,-6.869l1.472,-7.851l-1.472,-8.341l-4.907,-6.379l-6.379,-4.907l-8.341,-1.472m-0,0l-305.691,0m1460.25,250.244l-7.851,1.963l-6.869,4.416l-4.416,6.87l-1.963,7.85l1.963,7.851l4.416,6.87l6.869,4.416l7.851,1.472m0,-0l306.181,-0m0,-0l7.851,-1.472l6.87,-4.416l4.416,-6.87l1.472,-7.851l-1.472,-7.85l-4.416,-6.87l-6.87,-4.416l-7.851,-1.963m0,0l-306.181,0m-2434.24,0l-7.85,1.963l-6.87,4.416l-4.416,6.87l-1.472,7.85l1.472,7.851l4.416,6.87l6.87,4.416l7.85,1.472m0,-0l306.182,-0m-0,-0l7.85,-1.472l6.87,-4.416l4.416,-6.87l1.963,-7.851l-1.963,-7.85l-4.416,-6.87l-6.87,-4.416l-7.85,-1.963m-0,0l-306.182,0m2920.99,0l-7.851,1.963l-6.87,4.416l-4.416,6.87l-1.472,7.85l1.472,7.851l4.416,6.87l6.87,4.416l7.851,1.472m-0,-0l306.181,-0m-0,-0l7.851,-1.472l6.869,-4.416l4.416,-6.87l1.472,-7.851l-1.472,-7.85l-4.416,-6.87l-6.869,-4.416l-7.851,-1.963m-0,0l-306.181,0m486.749,0l-7.85,1.963l-6.87,4.416l-4.416,6.87l-1.472,7.85l1.472,7.851l4.416,6.87l6.87,4.416l7.85,1.472m0,-0l306.182,-0m-0,-0l7.85,-1.472l6.87,-4.416l4.416,-6.87l1.472,-7.851l-1.472,-7.85l-4.416,-6.87l-6.87,-4.416l-7.85,-1.963m-0,0l-306.182,0m486.75,0l-7.851,1.963l-6.869,4.416l-4.416,6.87l-1.472,7.85l1.472,7.851l4.416,6.87l6.869,4.416l7.851,1.472m-0,-0l306.181,-0m0,-0l7.851,-1.472l6.869,-4.416l4.416,-6.87l1.963,-7.851l-1.963,-7.85l-4.416,-6.87l-6.869,-4.416l-7.851,-1.963m0,0l-306.181,0m-2433.75,0l-8.342,1.963l-6.378,4.416l-4.907,6.87l-1.472,7.85l1.472,7.851l4.907,6.87l6.378,4.416l8.342,1.472m-0,-0l305.69,-0m0,-0l8.342,-1.472l6.379,-4.416l4.906,-6.87l1.472,-7.851l-1.472,-7.85l-4.906,-6.87l-6.379,-4.416l-8.342,-1.963m0,0l-305.69,0m-973.99,0l-7.851,1.963l-6.869,4.416l-4.416,6.87l-1.472,7.85l1.472,7.851l4.416,6.87l6.869,4.416l7.851,1.472m0,-0l306.181,-0m0,-0l7.851,-1.472l6.869,-4.416l4.417,-6.87l1.962,-7.851l-1.962,-7.85l-4.417,-6.87l-6.869,-4.416l-7.851,-1.963m0,0l-306.181,0m487.24,0l-8.341,1.963l-6.379,4.416l-4.907,6.87l-1.472,7.85l1.472,7.851l4.907,6.87l6.379,4.416l8.341,1.472m0,-0l305.691,-0m-0,-0l8.341,-1.472l6.379,-4.416l4.907,-6.87l1.472,-7.851l-1.472,-7.85l-4.907,-6.87l-6.379,-4.416l-8.341,-1.963m-0,0l-305.691,0m1460.25,-83.414l-7.851,1.962l-6.869,4.416l-4.416,6.87l-1.963,7.851l1.963,7.85l4.416,6.87l6.869,4.416l7.851,1.472m0,-0l306.181,-0m0,-0l7.851,-1.472l6.87,-4.416l4.416,-6.87l1.472,-7.85l-1.472,-7.851l-4.416,-6.87l-6.87,-4.416l-7.851,-1.962m0,-0l-306.181,-0m-2434.24,-0l-7.85,1.962l-6.87,4.416l-4.416,6.87l-1.472,7.851l1.472,7.85l4.416,6.87l6.87,4.416l7.85,1.472m0,-0l306.182,-0m-0,-0l7.85,-1.472l6.87,-4.416l4.416,-6.87l1.963,-7.85l-1.963,-7.851l-4.416,-6.87l-6.87,-4.416l-7.85,-1.962m-0,-0l-306.182,-0m2920.99,-0l-7.851,1.962l-6.87,4.416l-4.416,6.87l-1.472,7.851l1.472,7.85l4.416,6.87l6.87,4.416l7.851,1.472m-0,-0l306.181,-0m-0,-0l7.851,-1.472l6.869,-4.416l4.416,-6.87l1.472,-7.85l-1.472,-7.851l-4.416,-6.87l-6.869,-4.416l-7.851,-1.962m-0,-0l-306.181,-0m486.749,-0l-7.85,1.962l-6.87,4.416l-4.416,6.87l-1.472,7.851l1.472,7.85l4.416,6.87l6.87,4.416l7.85,1.472m0,-0l306.182,-0m-0,-0l7.85,-1.472l6.87,-4.416l4.416,-6.87l1.472,-7.85l-1.472,-7.851l-4.416,-6.87l-6.87,-4.416l-7.85,-1.962m-0,-0l-306.182,-0m486.75,-0l-7.851,1.962l-6.869,4.416l-4.416,6.87l-1.472,7.851l1.472,7.85l4.416,6.87l6.869,4.416l7.851,1.472m-0,-0l306.181,-0m0,-0l7.851,-1.472l6.869,-4.416l4.416,-6.87l1.963,-7.85l-1.963,-7.851l-4.416,-6.87l-6.869,-4.416l-7.851,-1.962m0,-0l-306.181,-0m-2433.75,-0l-8.342,1.962l-6.378,4.416l-4.907,6.87l-1.472,7.851l1.472,7.85l4.907,6.87l6.378,4.416l8.342,1.472m-0,-0l305.69,-0m0,-0l8.342,-1.472l6.379,-4.416l4.906,-6.87l1.472,-7.85l-1.472,-7.851l-4.906,-6.87l-6.379,-4.416l-8.342,-1.962m0,-0l-305.69,-0m-973.99,-0l-7.851,1.962l-6.869,4.416l-4.416,6.87l-1.472,7.851l1.472,7.85l4.416,6.87l6.869,4.416l7.851,1.472m0,-0l306.181,-0m0,-0l7.851,-1.472l6.869,-4.416l4.417,-6.87l1.962,-7.85l-1.962,-7.851l-4.417,-6.87l-6.869,-4.416l-7.851,-1.962m0,-0l-306.181,-0m487.24,-0l-8.341,1.962l-6.379,4.416l-4.907,6.87l-1.472,7.851l1.472,7.85l4.907,6.87l6.379,4.416l8.341,1.472m0,-0l305.691,-0m-0,-0l8.341,-1.472l6.379,-4.416l4.907,-6.87l1.472,-7.85l-1.472,-7.851l-4.907,-6.87l-6.379,-4.416l-8.341,-1.962m-0,-0l-305.691,-0m-1285.57,-984.295l-22.081,0m4846.4,0l21.59,0m-21.59,1510.3l0,44.652m0,-0l-4824.32,-0m-0,-0l-0,-44.652m4818.92,-1525.51l4.416,6.378l1.963,8.832m-23.553,-44.16l16.683,3.434l14.721,9.323l9.322,14.721l3.435,16.682m-4867.99,0l3.435,-16.682l9.814,-14.721l14.229,-9.323l17.174,-3.434m-23.553,44.16l1.472,-8.832l4.417,-6.869m-5.889,1526l0,16.683m-21.099,0l21.099,0m-21.099,0l0,-16.683m21.099,16.683l0,27.969m0,-0l-21.099,-0m0,-0l0,-27.969m4867.99,0l0,-16.683m-20.608,16.683l20.608,0m-20.608,-16.683l-0,16.683m20.608,27.969l-20.608,-0m20.608,-27.969l0,27.969m-20.608,-0l-0,-27.969m-4847.38,52.993l22.081,-0m-22.081,-25.024l0,25.024m4867.99,-25.024l0,25.024m0,-0l-21.59,-0m-4824.32,44.161l-0,-44.161m4824.32,-0l0,44.161m0.982,-27.478l20.608,-0m-20.608,-16.683l-0,16.683m20.608,-0l0,-16.683m-20.608,44.161l-0,-27.478m20.608,-0l0,27.478m-4867.99,-27.478l21.099,-0m-21.099,27.478l0,-27.478m21.099,-0l0,27.478m-21.099,-27.478l0,-16.683m21.099,-0l0,16.683m-535.817,58.881l-1.472,-0l-0.981,0.491l-1.472,0.49l-1.963,1.963l-0.49,0.981l-0.491,1.472l-0,1.472m23.062,-6.869l-16.193,-0m5881.72,-0l-5865.53,-0m5888.1,6.869l-0,-1.472l-0.491,-1.472l-0.491,-0.981l-1.962,-1.963l-0.982,-0.49l-1.472,-0.491l-1.472,-0m6.87,6.869l-0,751.714m-6.87,6.87l1.472,-0l1.472,-0.491l0.982,-0.49l1.962,-1.963l0.491,-0.981l0.491,-1.472l-0,-1.473m-6.87,6.87l-15.701,-0m-5865.53,-0l5865.53,-0m-5881.72,-0l16.193,-0m-23.062,-6.87l-0,1.473l0.491,1.472l0.49,0.981l1.963,1.963l1.472,0.49l0.981,0.491l1.472,-0m-6.869,-758.584l-0,751.714m4207.54,-236.996l625.611,0m-0,0l-0,-277.722m-0,0l-625.611,0m0,0l0,277.722m-2760.05,-185.475l-0.491,-3.434l-1.962,-2.944l-2.944,-1.963l-3.435,-0.491l-3.435,0.491l-2.944,1.963l-1.962,2.944l-0.982,3.434l0.982,3.435l1.962,2.944l2.944,1.963l3.435,0.49l3.435,-0.49l2.944,-1.963l1.962,-2.944l0.491,-3.435m4441.1,-336.112l15.701,-0m-5881.23,-0l1.472,-10.795l1.962,-8.832l1.963,-7.36l1.472,-3.435l0.981,-0.981m0,-0l5849.34,-0m0,-0l1.963,1.962l1.472,4.907l1.963,8.342l1.962,9.813l0.982,6.379m-0,765.453l-3.926,6.379l-6.869,10.795l-3.926,4.906m0,0l-5836.09,0m-0,0l-3.926,-4.416l-3.434,-5.397l-3.926,-5.888l-3.434,-6.379m14.72,22.08l-1.963,0.491l-1.472,0.491l-1.472,0.981l-0.981,0.981l-0.491,0.982l0,1.472l0.491,1.472l0.49,0.981m5846.39,0l0.981,-0.981l0,-2.944l-0.49,-0.982l-1.963,-1.962l-1.963,-0.491l-1.472,-0.491m-236.505,249.263l241.412,-241.412m-247.3,243.375l2.453,-0l0.982,-0.491l0.49,0l0.491,-0.49l0.981,-0.491l0.491,-0.491m-14.72,1.963l8.832,-0m-8.832,-0l-5333.64,-0m-9.322,-0l9.322,-0m-14.72,-1.963l1.472,1.472l0.982,0l0.49,0.491l2.454,-0m-247.301,-243.375l241.903,241.412m5630.01,-271.343l6.87,-0m-0,-765.453l-0,6.869m-0,751.714l-0,6.87m-6.87,-765.453l6.87,-0m-5904.29,765.453l-6.869,-0m-0,-765.453l-0,6.869m-0,751.714l-0,6.87m6.869,-765.453l-6.869,-0m5890.55,-0l-0.981,-3.925l-1.963,-3.435l-0.49,-0m24.043,7.36l-2.454,-12.267l-6.379,-9.813l-10.304,-6.87l-11.776,-2.453m-5849.34,-0l-11.776,2.453l-9.813,6.87l-6.87,9.813l-2.453,12.267m24.043,-7.36l-2.453,3.435l-0.491,3.925m5881.23,787.533l-14.72,-14.72m14.72,14.72l3.926,-4.416l2.453,-5.397l1.963,-5.888l0.491,-6.379m-23.553,7.36l1.472,-1.963l0.982,-1.962l0.49,-3.435m-5881.23,22.08l14.72,-14.72m-2.944,-7.36l-0,2.453l0.981,2.454l1.963,2.453m-24.043,-7.36l0.491,6.379l1.962,5.397l2.944,5.398l3.926,4.906m14.72,-14.72l-0,0.491l0.981,0.49l0.491,0.982l1.472,0.981l2.453,2.453l0.982,1.473l0.981,0.49m-14.72,15.211l-0.981,-0.981l-0.982,-1.472l-1.472,-1.472l-1.472,-0.982l-2.453,-2.453l-0,-0.491m5870.44,-7.36l0.982,-0.49l1.472,-1.473l0.981,-1.472l1.472,-0.981l2.944,-2.944m14.72,14.72l-2.944,2.944l-1.472,0.982l-0.981,1.472l-2.453,2.453m-5877.8,0l241.903,241.412m5394.48,0l241.412,-241.412m-271.834,243.375l-0,9.323m-5333.64,-0l5333.64,-0m-5333.64,-0l0,-9.323m-20.608,-7.851l-7.851,7.851m0,-0l-0.49,-0l-0,-0.491l-0.491,0l-0.491,-0.49l0,-0.491l-0.49,-0.491m5392.52,1.963l-7.851,-7.851m9.814,5.888l-1.963,1.963m-5363.08,-0l0,9.323m0.981,-0l-0.981,-0m-5.397,-0l5.397,-0m5335.6,-9.323l0,9.323m0,-0l-0.981,-0m-5362.1,-9.323l1.963,2.453l2.453,1.472l2.944,1.472l2.454,1.472l5.888,1.963l2.944,0.491l3.435,-0m5341,-0l5.398,-0m-0,-0l2.944,-0l2.944,-0.491l5.888,-1.963l2.944,-1.472l4.907,-2.944l2.453,-2.453m-4656.02,-610.4l-0,5.398m973.008,-919.035l-104.513,0m292.442,0l-187.929,0m193.817,409.714l7.851,-0m-306.181,-0l298.33,-0m-17.174,26.496l6.87,0m-269.381,0l262.511,0m-42.688,16.193l4.906,-0m-180.077,-0l175.171,-0m28.459,-517.662l-227.183,-0m28.459,-16.193l170.265,0m-127.085,-20.608l83.415,-0m-69.186,-45.633l55.447,0m-36.31,-18.155l16.683,0m-16.683,-12.757l16.683,-0m-682.529,178.605l-21.099,0m222.766,0l-201.667,0m193.326,409.714l8.341,-0m-306.181,-0l297.84,-0m-17.174,26.496l6.869,0m-269.38,0l262.511,0m-42.198,16.193l4.416,-0m-180.078,-0l175.662,-0m27.968,-517.662l-175.661,-0m-7.36,-16.193l154.562,0m-126.594,-20.608l83.415,-0m-69.676,-45.633l55.446,0m-35.819,-18.155l16.683,0m-16.683,-12.757l16.683,-0m2640.32,588.319l7.851,-0m-306.181,-0l298.33,-0m-193.816,-409.714l-90.285,0m291.952,0l-201.667,0m176.152,436.21l7.36,0m-269.381,0l262.021,0m-42.198,16.193l4.416,-0m-179.587,-0l175.171,-0m27.968,-517.662l-226.692,-0m28.46,-16.193l169.773,0m-126.594,-20.608l83.415,-0m-69.676,-45.633l55.937,0m-36.31,-18.155l16.683,0m-16.683,-12.757l16.683,-0m762.509,588.319l7.851,-0m-305.691,-0l297.84,-0m-17.174,26.496l6.87,0m-269.381,0l262.511,0m-176.152,-436.21l-104.514,0m222.276,0l-117.762,0m133.954,452.403l4.416,-0m-180.078,-0l175.662,-0m-23.552,-517.662l-175.662,-0m28.459,-16.193l154.563,0m-110.893,-20.608l83.415,-0m-69.676,-45.633l55.446,0m-35.819,-18.155l16.683,0m-16.683,-12.757l16.683,-0m-1740.91,588.319l7.851,-0m-306.181,-0l298.33,-0m-193.816,-409.714l-104.514,0m306.181,0l-13.739,0m-139.352,0l-48.576,0m176.152,436.21l6.869,0m-269.38,0l262.511,0m-42.198,16.193l4.416,-0m-179.587,-0l175.171,-0m-93.228,-517.662l-105.495,-0m28.459,-16.193l84.886,0m-41.707,-20.608l25.025,-0m-11.286,-45.633l19.136,0m0.491,-18.155l8.341,0m-8.341,-12.757l3.435,-0m491.656,178.605l-13.739,0m305.691,0l-152.6,0m144.749,409.714l7.851,-0m-305.691,-0l297.84,-0m-17.174,26.496l6.87,0m-269.381,0l262.511,0m-42.688,16.193l4.906,-0m-180.077,-0l175.171,-0m28.459,-517.662l-105.986,-0m-7.851,-16.193l85.378,0m-68.204,-20.608l25.024,-0m-32.875,-45.633l18.646,0m-27.478,-18.155l7.851,0m-2.944,-12.757l2.944,-0m-842.489,-663.884l205.592,0m-342,0l136.408,0m-1043.17,0l263.492,0m-527.476,0l52.503,0m144.749,0l66.732,0m3129.53,0l66.731,0m144.75,0l52.011,0m-527.475,0l263.983,0m-1043.17,0l135.917,0m-342.001,0l206.084,0m-2933.75,1252.2l607.455,-0m479.881,-0l232.58,-0m306.181,-0l24.534,-0m601.567,-0l319.92,-0m601.568,-0l24.043,-0m306.181,-0l233.071,-0m479.88,-0l607.455,-0m-5336.58,856.228l-14.72,14.72m5877.8,0l-9.814,-9.813l-4.416,-4.907m-5621.66,256.132l7.85,-7.851m5378.78,0l7.851,7.851m-5370.44,1.963l-0,9.323m5346.4,-9.323l-0,9.323" style="fill:none;fill-rule:nonzero;stroke:#000;stroke-width:8.33px;stroke-linecap:round;stroke-miterlimit:10;"/></g></g></svg>