<?xml version="1.0" encoding="UTF-8" standalone="no"?>
<!DOCTYPE svg PUBLIC "-//W3C//DTD SVG 1.1//EN" "http://www.w3.org/Graphics/SVG/1.1/DTD/svg11.dtd">
<svg width="100%" height="100%" viewBox="0 0 1420 769" version="1.1" xmlns="http://www.w3.org/2000/svg" xmlns:xlink="http://www.w3.org/1999/xlink" xml:space="preserve" xmlns:serif="http://www.serif.com/" style="fill-rule:evenodd;clip-rule:evenodd;stroke-linejoin:round;stroke-miterlimit:1.5;">
    <g transform="matrix(1,0,0,1,-508.754,-338.4)">
        <clipPath id="_clip1">
            <rect x="0" y="0" width="2362.2" height="1417.32"/>
        </clipPath>
        <g clip-path="url(#_clip1)">
            <g id="Réteg-3" serif:id="Réteg 3">
            </g>
            <g id="Réteg-1" serif:id="Réteg 1">
            </g>
        </g>
        <g transform="matrix(0.89,0,0,0.839596,1050.07,-67.4884)">
            <g transform="matrix(1.1236,-0,-0,1.19105,-608.225,483.433)">
                <path d="M704.309,584.936L709.754,574.045L715.2,584.936L704.309,584.936Z"/>
                <path d="M709.754,725.914C709.754,725.914 709.754,615.031 709.754,582.758" style="fill:none;stroke:black;stroke-width:1.82px;"/>
            </g>
        </g>
        <g transform="matrix(0.89,1.93542e-10,1.82581e-10,0.770403,1425.68,25.7867)">
            <path d="M189.251,1348.03L189.251,1115.46" style="fill:none;stroke:black;stroke-width:2.18px;"/>
        </g>
        <g transform="matrix(-1.12912e-09,-0.89,0.728052,-2.62697e-09,697.337,1053.58)">
            <path d="M198.086,1348.03L189.251,1348.03L189.251,1115.46L198.086,1115.46" style="fill:none;stroke:black;stroke-width:2.05px;"/>
        </g>
        <g transform="matrix(1.69421,0,0,0.951981,921.251,-106.181)">
            <circle cx="175.454" cy="1251.62" r="22.079" style="fill:none;stroke:black;stroke-width:1.19px;stroke-linecap:round;"/>
        </g>
        <g transform="matrix(1.69421,0,0,0.951981,1296.86,-106.181)">
            <circle cx="175.454" cy="1251.62" r="22.079" style="fill:none;stroke:black;stroke-width:1.19px;stroke-linecap:round;"/>
        </g>
        <g transform="matrix(0.738146,0,0,0.738146,700.261,244.926)">
            <text x="688.372px" y="1156.56px" style="font-family:'Roboto-Medium', 'Roboto';font-weight:500;font-size:50px;">1</text>
        </g>
        <g transform="matrix(0.738146,0,0,0.738146,1075.87,244.926)">
            <text x="688.372px" y="1156.56px" style="font-family:'Roboto-Medium', 'Roboto';font-weight:500;font-size:50px;">2</text>
        </g>
        <g transform="matrix(1.17762,0,0,1.17762,833.015,347.178)">
            <path d="M0,584.1L0,552.9M-113.4,552.9L-113.4,584.1M-113.4,584.1L-110.6,586.9M-2.9,586.9L0,584.1M-106.6,586.9L-106.6,591.2M-6.8,591.2L-6.8,586.9M654.8,584.1L657.6,586.9M765.3,586.9L768.2,584.1M768.2,584.1L768.2,552.9M654.8,552.9L654.8,584.1M661.6,586.9L661.6,591.2M761.4,591.2L761.4,586.9M105.4,236.5L105.2,237.3L104.9,238.8L104.8,240.4M104.8,240.4L104.8,245.1M104.8,253.6L104.8,262.1M104.8,270.6L104.8,279.1M104.8,318.8L104.8,323.9M167.2,323.9L167.2,318.8M104.8,323.9L104.9,324.8L105.1,325.6L105.4,326.4L105.9,327.2L106.4,327.9L107.8,328.9L108.6,329.3M163.5,329.3L164.3,328.9L165,328.4L165.6,327.9L166.2,327.2L166.6,326.4L166.9,325.6L167.1,324.8L167.2,323.9M108.6,329.3L117.7,332.6M154.4,332.6L163.5,329.3M160.3,228L159.2,227.1M112.9,227.1L111.7,228M159.2,227.1L157.1,225.6L155.7,224.8L154.9,224.4L154.2,224.1L153.4,223.8M118.7,223.8L117.1,224.4L115.7,225.2L114.9,225.6L114.2,226.1L113.6,226.6L112.9,227.1M117.7,332.6L117.9,332.7L118.2,332.7L118.4,332.8L118.6,332.8L118.9,332.9L119.6,332.9M152.4,332.9L153.2,332.9L153.4,332.8L153.7,332.8L153.9,332.7L154.1,332.7L154.4,332.6M127.5,219.6L126.5,220.2L125.4,220.8L124.3,221.3L123.2,221.9L121,222.9L119.8,223.3L118.7,223.8M153.4,223.8L152.2,223.3L151.1,222.9L148.9,221.9L147.8,221.3L146.7,220.8L144.5,219.6M144.5,219.6L144.4,219.5M127.7,219.5L127.5,219.6M130.4,210.3L130.4,211M141.7,211L141.7,210.3M132.6,208L132.2,208L131.4,208.4L131,208.7L130.7,209L130.5,209.4L130.4,209.8L130.4,210.3M141.7,210.3L141.7,209.8L141.3,209L140.7,208.4L139.9,208L139.4,208M134.3,206.6L134.3,206.9L134.2,207.1L134.1,207.4L133.7,207.8L133.5,207.9L133.2,208L132.9,208M139.1,208L138.9,208L138.6,207.9L138.4,207.8L138.1,207.6L138,207.4L137.8,207.1L137.8,206.9L137.7,206.6M135.7,202.6L135.5,202.6L135.2,202.7L135,202.9L134.7,203L134.6,203.2L134.4,203.5L134.4,203.8L134.3,204M137.7,204L137.7,203.8L137.5,203.2L137.3,203L137.1,202.9L136.9,202.7L136.6,202.6L136.3,202.6M134.3,204L134.3,206.6M137.7,206.6L137.7,204M39.7,240.4L39.6,238.8L39.3,237.3L39.1,236.5M-22.7,323.9L-22.6,324.8L-22.4,325.6L-22.1,326.4L-21.7,327.2L-21.1,327.9L-20.5,328.4L-19.8,328.9L-19,329.3M35.9,329.3L36.7,328.9L38.1,327.9L38.6,327.2L39.1,326.4L39.4,325.6L39.6,324.8L39.7,323.9M-22.7,318.8L-22.7,323.9M39.7,323.9L39.7,318.8M39.7,279.1L39.7,270.6M39.7,262.1L39.7,253.6M39.7,245.1L39.7,240.4M-19,329.3L-9.9,332.6M26.8,332.6L35.9,329.3M32.8,228L31.6,227.1M31.6,227.1L31,226.6L29.6,225.6L28.9,225.2L28.1,224.8L27.4,224.4L25.8,223.8M-9.9,332.6L-9.6,332.7L-9.4,332.7L-9.2,332.8L-8.9,332.8L-8.7,332.9L-7.9,332.9M24.9,332.9L25.6,332.9L25.9,332.8L26.1,332.8L26.3,332.7L26.6,332.7L26.8,332.6M0,219.6L-2.2,220.8L-3.3,221.3L-4.4,221.9L-5.5,222.4M25.8,223.8L24.7,223.3L23.5,222.9L21.3,221.9L20.2,221.3L19.1,220.8L18,220.2L17,219.6M17,219.6L16.8,219.5M0.1,219.5L0,219.6M2.8,210.3L2.8,211M14.1,211L14.1,210.3M5.1,208L4.6,208L3.8,208.4L3.2,209L2.8,209.8L2.8,210.3M14.1,210.3L14.1,209.8L14,209.4L13.8,209L13.5,208.7L13.1,208.4L12.3,208L11.9,208M6.8,206.6L6.7,206.9L6.7,207.1L6.5,207.4L6.4,207.6L6.1,207.8L5.9,207.9L5.6,208L5.4,208M11.6,208L11.3,208L11,207.9L10.8,207.8L10.4,207.4L10.3,207.1L10.2,206.9L10.2,206.6M6.8,204L6.8,206.6M10.2,206.6L10.2,204M8.2,202.6L7.9,202.6L7.6,202.7L7.4,202.9L7.2,203L7,203.2L6.8,203.8L6.8,204M10.2,204L10.1,203.8L10.1,203.5L9.9,203.2L9.8,203L9.5,202.9L9.3,202.7L9,202.6L8.8,202.6M487.5,318.8L487.5,323.9M549.9,323.9L549.9,318.8M549.9,279.1L549.9,270.6M549.9,262.1L549.9,253.6M549.9,245.1L549.9,240.4M549.9,240.4L549.8,238.8L549.5,237.3L549.4,236.5M487.5,323.9L487.6,324.8L487.8,325.6L488.1,326.4L488.6,327.2L489.1,327.9L489.7,328.4L490.5,328.9L491.3,329.3M546.2,329.3L546.9,328.9L547.7,328.4L548.3,327.9L548.9,327.2L549.3,326.4L549.6,325.6L549.8,324.8L549.9,323.9M491.3,329.3L500.4,332.6M537,332.6L546.2,329.3M543,228L541.8,227.1M495.6,227.1L494.4,228M541.8,227.1L541.2,226.6L539.8,225.6L539.1,225.2L538.3,224.8L537.6,224.4L536,223.8M501.4,223.8L499.8,224.4L499.1,224.8L498.3,225.2L497.6,225.6L496.2,226.6L495.6,227.1M500.4,332.6L500.6,332.7L500.8,332.7L501.1,332.8L501.3,332.8L501.6,332.9L502.3,332.9M535.1,332.9L535.8,332.9L536.1,332.8L536.3,332.8L536.6,332.7L536.8,332.7L537,332.6M510.2,219.6L509.1,220.2L508.1,220.8L507,221.3L505.9,221.9L504.8,222.4L503.6,222.9L502.5,223.3L501.4,223.8M536,223.8L534.9,223.3L533.8,222.9L532.7,222.4L531.5,221.9L530.4,221.3L529.4,220.8L527.2,219.6M527.2,219.6L527.1,219.5M510.3,219.5L510.2,219.6M513,210.3L513,211M524.4,211L524.4,210.3M515.3,208L514.9,208L514.4,208.2L514,208.4L513.4,209L513.2,209.4L513.1,209.8L513,210.3M524.4,210.3L524.3,209.8L524.2,209.4L524,209L523.4,208.4L522.6,208L522.1,208M517,206.6L517,206.9L516.9,207.1L516.8,207.4L516.4,207.8L516.1,207.9L515.9,208L515.6,208M521.8,208L521.5,208L521.3,207.9L521,207.8L520.6,207.4L520.5,207.1L520.4,206.9L520.4,206.6M517,204L517,206.6M520.4,206.6L520.4,204M518.4,202.6L518.1,202.6L517.9,202.7L517.6,202.9L517.4,203L517.2,203.2L517,203.8L517,204M520.4,204L520.4,203.8L520.2,203.2L520,203L519.8,202.9L519.5,202.7L519.3,202.6L519,202.6M615.1,323.9L615.2,324.8L615.3,325.6L616.1,327.2L616.7,327.9L617.3,328.4L618,328.9L618.8,329.3M673.7,329.3L674.5,328.9L675.9,327.9L676.4,327.2L676.9,326.4L677.2,325.6L677.4,324.8L677.4,323.9M615.6,236.5L615.4,237.3L615.2,238.8L615.1,240.4M615.1,240.4L615.1,245.1M615.1,253.6L615.1,262.1M615.1,270.6L615.1,279.1M615.1,318.8L615.1,323.9M677.4,323.9L677.4,318.8M618.8,329.3L627.9,332.6M664.6,332.6L673.7,329.3M623.1,227.1L622,228M628.9,223.8L628.1,224.1L627.4,224.4L626.6,224.8L625.2,225.6L623.1,227.1M627.9,332.6L628.2,332.7L628.4,332.7L628.6,332.8L628.9,332.8L629.1,332.9L629.9,332.9M662.7,332.9L663.4,332.9L663.7,332.8L663.9,332.8L664.1,332.7L664.4,332.7L664.6,332.6M637.8,219.6L635.6,220.8L634.5,221.3L633.4,221.9L631.2,222.9L630.1,223.3L628.9,223.8M660.2,222.4L659.1,221.9L658,221.3L656.9,220.8L655.8,220.2L654.8,219.6M654.8,219.6L654.6,219.5M637.9,219.5L637.8,219.6M642.9,208L642.4,208L641.6,208.4L641,209L640.6,209.8L640.6,210.3M651.9,210.3L651.9,209.8L651.8,209.4L651.6,209L651.3,208.7L650.9,208.4L650.1,208L649.7,208M640.6,210.3L640.6,211M651.9,211L651.9,210.3M644.6,206.6L644.5,206.9L644.5,207.1L644.3,207.4L644.2,207.6L643.9,207.8L643.7,207.9L643.4,208L643.1,208M649.4,208L649.1,208L648.8,207.9L648.6,207.8L648.2,207.4L648.1,207.1L648,206.9L648,206.6M646,202.6L645.7,202.6L645.4,202.7L645.2,202.9L645,203L644.8,203.2L644.6,203.8L644.6,204M648,204L647.9,203.8L647.9,203.5L647.7,203.2L647.6,203L647.3,202.9L647.1,202.7L646.8,202.6L646.5,202.6M644.6,204L644.6,206.6M648,206.6L648,204M232.4,240.4L232.4,245.1M232.4,253.6L232.4,262.1M232.4,270.6L232.4,279.1M232.4,318.8L232.4,323.9M294.8,323.9L294.8,318.8M294.8,278.8L294.8,270.8M294.8,261.8L294.8,253.8M294.8,244.8L294.8,240.4M232.4,323.9L232.5,324.8L232.7,325.6L233,326.4L233.4,327.2L234,327.9L234.6,328.4L235.4,328.9L236.1,329.3M291,329.3L291.8,328.9L292.6,328.4L293.2,327.9L293.7,327.2L294.2,326.4L294.5,325.6L294.7,324.8L294.8,323.9M294.8,240.4L294.7,238.8L294.4,237.3L294.3,237M232.9,236.5L232.8,237.3L232.5,238.8L232.4,240.4M236.1,329.3L245.3,332.6M281.9,332.6L291,329.3M240.5,227.1L239.3,228M246.3,223.8L244.7,224.4L243.9,224.8L242.5,225.6L241.1,226.6L240.5,227.1M245.3,332.6L245.5,332.7L245.7,332.7L246,332.8L246.2,332.8L246.4,332.9L247.2,332.9M280,332.9L280.7,332.9L281,332.8L281.2,332.8L281.5,332.7L281.7,332.7L281.9,332.6M255.1,219.6L252.9,220.8L251.9,221.3L250.8,221.9L249.6,222.4L248.5,222.9L247.4,223.3L246.3,223.8M255.2,219.5L255.1,219.6M257.9,210.3L257.9,211M260.2,208L259.7,208L258.9,208.4L258.3,209L258.1,209.4L258,209.8L257.9,210.3M261.9,206.6L261.9,206.9L261.8,207.1L261.6,207.4L261.5,207.6L261.3,207.8L260.7,208L260.5,208M261.9,204L261.9,206.6M262,203.5L261.9,203.8L261.9,204M422.3,240.4L422.2,238.8L422,237.3L421.8,236.5M360.4,237L360.3,237.3L360.1,238.8L360,240.4M360,240.4L360,244.8M360,253.8L360,261.8M360,270.8L360,278.8M360,318.8L360,323.9M422.3,323.9L422.3,318.8M422.3,279.1L422.3,270.6M422.3,262.1L422.3,253.6M422.3,245.1L422.3,240.4M360,323.9L360,324.8L360.2,325.6L361,327.2L361.5,327.9L362.9,328.9L363.7,329.3M418.6,329.3L419.4,328.9L420.8,327.9L421.3,327.2L422.1,325.6L422.3,324.8L422.3,323.9M363.7,329.3L372.8,332.6M409.5,332.6L418.6,329.3M415.5,228L414.3,227.1M414.3,227.1L412.2,225.6L410.8,224.8L410,224.4L409.3,224.1L408.5,223.8M372.8,332.6L373,332.7L373.3,332.7L373.5,332.8L373.8,332.8L374,332.9L374.7,332.9M407.5,332.9L408.3,332.9L408.5,332.8L408.8,332.8L409,332.7L409.3,332.7L409.5,332.6M408.5,223.8L407.3,223.3L406.2,222.9L404,221.9L402.9,221.3L401.8,220.8L400.7,220.2L399.7,219.6M399.7,219.6L399.5,219.5M396.8,210.3L396.8,209.8L396.4,209L396.2,208.7L395.8,208.4L395,208L394.5,208M396.8,211L396.8,210.3M394.3,208L394,208L393.7,207.9L393.5,207.8L393.1,207.4L393,207.1L392.9,206.9L392.8,206.6M392.8,206.6L392.8,204M392.8,204L392.8,203.8L392.7,203.5M19.7,406.8L19.7,408.8M19.2,406.3L19.2,409.3M30.6,415.7L30.6,413.3M-40.4,318.8L-40.4,332.9M57.4,332.9L57.4,318.8M599,389L599.2,389.2L600.2,390L600.9,390.4M691.6,390.4L692.3,390L693.3,389.2L693.5,389M597.4,318.8L597.4,332.9M695.2,332.9L695.2,318.8M172.2,318.8L172.2,332.9M482.6,332.9L482.6,318.8M157.2,83.5L151,89.5L148.9,92M142.9,100.5L140.3,105L138.4,109M135.3,117.5L134,122.7L133.4,126M132.5,134.5L132.5,141.4L132.6,143M309.5,143L309.6,141.4L309.7,134.5M308.7,126L308.1,122.7L306.8,117.5M303.7,109L301.8,105L299.3,100.5M133.7,151.5L135.3,160M136.8,168.5L138.4,177M139.9,185.5L141.5,194M143,202.5L144.6,211M146.1,219.5L146.3,220.6M294.5,227.7L296,219.5M297.6,211L299.1,202.5M300.7,194L302.2,185.5M303.8,177L305.3,168.5M306.9,160L308.4,151.5M-55.4,83.5L-61.6,89.5L-63.7,92M-69.7,100.5L-72.3,105L-74.2,109M-77.3,117.5L-78.6,122.7L-79.2,126M-80.1,134.5L-80.1,141.4L-80,143M97,142.9L97,141.4L97.1,134.6M96.1,125.7L95.5,122.7L94.6,118.9M-78.9,151.5L-77.3,160M-75.8,168.5L-74.2,177M-72.7,185.5L-71.1,194M-69.6,202.5L-68,211M-66.5,219.5L-64.9,228M-63.4,236.5L-61.8,245.1M-60.2,253.6L-58.7,262.1M-57.1,270.6L-55.6,279.1M94.5,158.5L95.7,152M-45.3,68.7L-45.4,70.2L-45.6,71.6L-46.1,73.1L-46.6,74.5L-46.9,75.1M63.5,74.2L63,73.1L62.6,71.6L62.3,70.2L62.2,68.7M62.2,68.7L62.2,66.8M62,57.9L61.9,49.7M61.8,41L61.6,32.6M-44.7,32.6L-44.8,41.1M-45,49.6L-45.1,58.1M-45.2,66.6L-45.3,68.7M560.1,118.9L559.2,122.7L558.6,125.7M557.7,134.6L557.7,141.4L557.8,142.9M734.7,143L734.8,141.4L734.9,134.5M733.9,126L733.3,122.7L732,117.5M728.9,109L727,105L724.5,100.5M718.4,92L716.3,89.5L710.1,83.5M559,152L560.2,158.5M710.3,279.1L711.9,270.6M713.4,262.1L715,253.6M716.5,245.1L718.1,236.5M719.6,228L721.2,219.5M722.7,211L724.3,202.5M725.9,194L727.4,185.5M729,177L730.5,168.5M732.1,160L733.6,151.5M592.5,68.7L592.4,70.2L592.1,71.6L591.7,73.1L591.3,74.2M701.7,75.1L701.4,74.5L700.8,73.1L700.4,71.6L700.1,70.2L700,68.7M700,68.7L700,66.6M699.8,58.1L699.7,49.6M699.6,41.1L699.4,32.6M593.1,32.6L593,41M592.8,49.7L592.7,57.9M592.5,66.8L592.5,68.7M355.5,100.5L352.9,105L351,109M347.9,117.5L346.6,122.7L346,126M345.1,134.5L345.1,141.4L345.2,143M522.1,143L522.2,141.4L522.3,134.5M521.3,126L520.7,122.7L519.4,117.5M516.3,109L514.4,105L511.9,100.5M505.8,92L503.7,89.5L497.5,83.5M346.3,151.5L347.9,160M349.4,168.5L351,177M352.5,185.5L354.1,194M355.6,202.5L357.2,211M358.7,219.5L360.2,227.7M508.4,220.6L508.6,219.5M510.2,211L511.7,202.5M513.3,194L514.8,185.5M516.4,177L517.9,168.5M519.5,160L521,151.5M-268.6,498.1L-268.6,500.8M923.4,500.8L923.4,498.1M78,423L76.7,420.5L76.7,420.4M-72.7,425.8L-72.7,428.5M708.6,390.4L583.9,390.4M583.9,390.4L583.9,444.2M583.9,444.2L708.6,444.2M708.6,444.2L708.6,390.4M73.2,423.1L73.8,422.6M73.8,422.6L74.3,421.9M74.3,421.9L74.7,421.2M74.7,421.2L74.9,420.5M74.9,420.5L74.9,419.7M74.9,419.7L74.7,418.9M74.7,418.9L74.2,418.2M74.2,418.2L73.5,417.5M73.5,417.5L72.7,417.1M72.7,417.1L71.8,417M71.8,417L71,417.1M71,417.1L70.3,417.4M70.3,417.4L69.7,418M69.7,418L69.5,418.8M69.5,418.8L69.6,419.9M69.6,419.9L69.6,420.4M69.6,420.4L69.5,420.9M69.5,420.9L68.9,421.6M68.9,421.6L68,422.1M68,422.1L67,422.3M67,422.3L67.1,422.3M67.1,422.3L67.6,422.9M67.6,422.9L68.2,423.4M68.2,423.4L69.6,424M69.6,424L70.3,424.1M70.3,424.1L71.1,424M71.1,424L71.9,423.9M71.9,423.9L72.6,423.6M72.6,423.6L73.2,423.1M11.2,402.3L11.8,401.1M11.8,401.1L12,400.5M12,400.5L12,399.8M12,399.8L11.9,399.2M11.9,399.2L11.5,398.7M11.5,398.7L11.3,398.5M11.3,398.5L10.9,398.5M10.9,398.5L10,398.8M10,398.8L9.1,399.5M9.1,399.5L8,400.5M8,400.5L6.1,402.6M6.1,402.6L4.9,404.1M4.9,404.1L3.9,405.4M3.9,405.4L3.1,406.7M3.1,406.7L1.8,409.6M1.8,409.6L6.6,406.5M6.6,406.5L8.7,405.1M8.7,405.1L9.6,404.3M9.6,404.3L10.5,403.3M10.5,403.3L11.2,402.3M-24.6,417.9L-24.8,417.1M-24.8,417.1L-25.1,416.5M-25.1,416.5L-25.7,416.1M-25.7,416.1L-26.3,416.1M-26.3,416.1L-27,416.5M-27,416.5L-27.5,417.1M-27.5,417.1L-27.8,418M-27.8,418L-27.9,418.9M-27.9,418.9L-27.8,419.7M-27.8,419.7L-27.4,420.3M-27.4,420.3L-26.9,420.6M-26.9,420.6L-26.2,420.6M-26.2,420.6L-25.6,420.2M-25.6,420.2L-25.1,419.6M-25.1,419.6L-24.7,418.8M-24.7,418.8L-24.6,417.9M-76.9,418.1L-75.4,417.3M-75.4,417.3L-74.5,416.5M-74.5,416.5L-74.2,416.1M-74.2,416.1L-74.2,415.7M-74.2,415.7L-74.4,415.4M-74.4,415.4L-74.8,415.1M-74.8,415.1L-76,414.8M-76,414.8L-77.8,414.8M-77.8,414.8L-79.8,415.2M-79.8,415.2L-81.7,415.8M-81.7,415.8L-83.3,416.6M-83.3,416.6L-84.2,417.4M-84.2,417.4L-84.4,417.8M-84.4,417.8L-84.4,418.2M-84.4,418.2L-84.2,418.6M-84.2,418.6L-83.9,418.8M-83.9,418.8L-82.6,419.1M-82.6,419.1L-80.9,419.1M-80.9,419.1L-78.9,418.8M-78.9,418.8L-76.9,418.1M103.2,419.1L102.6,419.6M103.9,419L103.2,419.1M104.5,419.2L103.9,419M105.2,419.6L104.5,419.2M105.7,420.2L105.2,419.6M106,420.9L105.7,420.2M106,421.6L106,420.9M105.7,422.3L106,421.6M104.4,423.9L105.7,422.3M102.8,425.3L104.4,423.9M101,426.6L102.8,425.3M99.1,427.7L101,426.6M97.1,428.6L99.1,427.7M92.9,429.3L95,429.1M90.8,429.1L92.9,429.3M89,428.6L90.8,429.1M87.3,427.7L89,428.6M85.9,426.5L87.3,427.7M84.8,424.9L85.9,426.5M84.4,424L84.8,424.9M83.8,423L84.4,424M83.4,422.7L83.8,423M83,422.6L83.4,422.7M82.5,422.7L83,422.6M82,423.1L82.5,422.7M81.4,424L82,423.1M80.9,425L81.4,424M80.3,427.1L80.9,425M80.1,427.6L80.3,427.1M79.8,427.9L80.1,427.6M79.3,428.1L79.8,427.9M78.8,428.1L79.3,428.1M78.1,427.9L78.8,428.1M77.5,427.7L78.1,427.9M77,427.2L77.5,427.7M76.7,426.6L77,427.2M76.7,425.9L76.7,426.6M76.9,424.4L76.7,425.9M76.3,425.2L76.9,424.4M75.5,425.8L76.3,425.2M74.6,426.4L75.5,425.8M73.7,426.8L74.6,426.4M71.6,427.3L73.7,426.8M69.7,427.4L71.6,427.3M68.6,427.3L69.7,427.4M67.5,427.1L68.6,427.3M66.5,426.7L67.5,427.1M65.6,426.3L66.5,426.7M64.7,425.6L65.6,426.3M63.9,424.9L64.7,425.6M63.3,424L63.9,424.9M62.7,423L63.3,424M62.2,421.2L62.7,423M61.7,419.1L62.2,421.2M61.1,417.1L61.7,419.1M60.6,416.2L61.1,417.1M60,415.6L60.6,416.2M58.6,415L60,415.6M57.1,414.6L58.6,415M54,414.4L57.1,414.6M50.9,414.2L54,414.4M47.9,414.2L50.9,414.2M42.1,414.2L47.9,414.2M36.4,414.3L42.1,414.2M29.3,430.6L36.4,414.3M28.9,431.2L29.3,430.6M28.3,431.6L28.9,431.2M27.6,431.7L28.3,431.6M30.4,417.7L25.4,428.9M25.2,421.3L30.4,417.7M24,422L25.2,421.3M22.6,422.7L24,422M21.2,423.2L22.6,422.7M19.7,423.6L21.2,423.2M18.1,423.6L19.7,423.6M16.6,423.3L18.1,423.6M15.2,422.6L16.6,423.3M14,421.5L15.2,422.6M13.4,420.4L14,421.5M12.9,419.2L13.4,420.4M12.5,419.7L12.9,419.2M10.8,421.2L12.5,419.7M9,422.5L10.8,421.2M7.1,423.4L9,422.5M5.1,424L7.1,423.4M4.1,424.2L5.1,424M3,424.1L4.1,424.2M2,423.9L3,424.1M1,423.5L2,423.9M-0.5,422.3L1,423.5M-1.8,420.8L-0.5,422.3M-2.8,419.1L-1.8,420.8M-3.3,417.2L-2.8,419.1M-3.5,415.7L-3.3,417.2M-3.4,414.2L-3.5,415.7M-6,416.4L-3.4,414.2M-8.8,418.8L-6,416.4M-11.7,420.9L-8.8,418.8M-13.3,421.8L-11.7,420.9M-14.8,422.5L-13.3,421.8M-16.9,423.3L-14.8,422.5M-19.3,423.8L-16.9,423.3M-20.5,423.9L-19.3,423.8M-21.5,423.8L-20.5,423.9M-22.5,423.6L-21.5,423.8M-23.4,423.1L-22.5,423.6M-24.7,423.6L-23.4,423.1M-26.2,423.7L-24.7,423.6M-27.6,423.4L-26.2,423.7M-29,422.8L-27.6,423.4M-29.8,422.3L-29,422.8M-30.4,421.7L-29.8,422.3M-30.9,421L-30.4,421.7M-31.2,420.3L-30.9,421M-32.2,420.8L-31.2,420.3M-33.3,421.2L-32.2,420.8M-34.6,421.4L-33.3,421.2M-36,421.3L-34.6,421.4M-37.3,421L-36,421.3M-38.5,420.3L-37.3,421M-39.5,419.4L-38.5,420.3M-40.3,418.2L-39.5,419.4M-41,417.1L-40.3,418.2M-41.8,416L-41,417.1M-42.3,416.2L-41.8,416M-44.6,417.5L-42.3,416.2M-49.1,420.6L-44.6,417.5M-51.1,421.7L-49.1,420.6M-53.1,422.4L-51.1,421.7M-54.1,422.6L-53.1,422.4M-55.2,422.6L-54.1,422.6M-56.3,422.4L-55.2,422.6M-57.4,422L-56.3,422.4M-58.2,421.5L-57.4,422M-58.8,420.8L-58.2,421.5M-59.1,420L-58.8,420.8M-59.2,419.1L-59.1,420M-59.1,417.2L-59.2,419.1M-58.9,415.3L-59.1,417.2M-59,413.8L-58.9,415.3M-59.7,414.4L-59,413.8M-62.4,417.2L-59.7,414.4M-64.8,420.1L-62.4,417.2M-67.7,423.7L-64.8,420.1M-70.3,427.5L-67.7,423.7M-72.6,431.5L-70.3,427.5M-74.6,435.7L-72.6,431.5M-76.1,439.7L-74.6,435.7M-77.5,443.7L-76.1,439.7M-80,451.9L-77.5,443.7M-83.9,451.3L-83.5,451.7M-75.5,421.4L-84.1,450.9M-76.7,421.9L-75.5,421.4M-77.9,422.1L-76.7,421.9M-80.1,422.4L-77.9,422.1M-81.7,422.5L-80.1,422.4M-83.4,422.3L-81.7,422.5M-85,422L-83.4,422.3M-86.4,421.2L-85,422M-87.3,420.6L-86.4,421.2M-88,419.7L-87.3,420.6M-88.5,418.7L-88,419.7M-88.5,418.1L-88.5,418.7M-88.5,417.6L-88.5,418.1M-88,416.4L-88.5,417.6M-87.3,415.4L-88,416.4M-86.5,414.5L-87.3,415.4M-85.5,413.8L-86.5,414.5M-84.4,413.1L-85.5,413.8M-83.2,412.6L-84.4,413.1M-80.9,411.9L-83.2,412.6M-79,411.7L-80.9,411.9M-77,411.7L-79,411.7M-75.1,411.8L-77,411.7M-73.2,412.3L-75.1,411.8M-73,411.6L-73.2,412.3M-72.7,411.3L-73,411.6M-72.3,411.3L-72.7,411.3M-71.7,411.5L-72.3,411.3M-71.1,411.9L-71.7,411.5M-70,412.9L-71.1,411.9M-69.7,413.4L-70,412.9M-69.7,413.9L-69.7,413.4M-70,415.2L-69.7,413.9M-70.7,417.5L-70,415.2M-72.7,424L-70.7,417.5M-70.5,421.1L-72.7,424M-68.2,418.2L-70.5,421.1M-65.6,415L-68.2,418.2M-64.2,413.5L-65.6,415M-62.6,412.4L-64.2,413.5M-61.6,411.9L-62.6,412.4M-60.5,411.6L-61.6,411.9M-59.2,411.6L-60.5,411.6M-58,411.7L-59.2,411.6M-56.9,412.1L-58,411.7M-56,412.7L-56.9,412.1M-55.3,413.6L-56,412.7M-54.9,414.7L-55.3,413.6M-54.9,415.8L-54.9,414.7M-54.9,417L-54.9,415.8M-55.1,419.3L-54.9,417M-55.1,420.6L-55.1,419.3M-53.1,419.4L-55.1,420.6M-50.9,418L-53.1,419.4M-48.6,416.4L-50.9,418M-46.3,415.1L-48.6,416.4M-45.1,414.6L-46.3,415.1M-44,414.2L-45.1,414.6M-42.8,414L-44,414.2M-41.7,414.1L-42.8,414M-40.6,414.3L-41.7,414.1M-39.5,414.9L-40.6,414.3M-38.5,415.8L-39.5,414.9M-37.5,417L-38.5,415.8M-36.7,418.2L-37.5,417M-35.9,419.4L-36.7,418.2M-35.3,419L-35.9,419.4M-33.8,418L-35.3,419M-32.6,416.9L-33.8,418M-31.3,415.7L-32.6,416.9M-30,414.6L-31.3,415.7M-29.3,414.2L-30,414.6M-28.6,413.9L-29.3,414.2M-27.1,413.7L-28.6,413.9M-25.6,413.9L-27.1,413.7M-24.1,414.2L-25.6,413.9M-22.7,414.9L-24.1,414.2M-21.5,415.8L-22.7,414.9M-20.7,416.9L-21.5,415.8M-20.5,417.6L-20.7,416.9M-20.3,418.3L-20.5,417.6M-20.3,419L-20.3,418.3M-20.5,419.8L-20.3,419M-20.5,420L-20.5,419.8M-20.1,420.9L-20.5,420M-19.5,421.4L-20.1,420.9M-18.8,421.6L-19.5,421.4M-17.9,421.6L-18.8,421.6M-16.9,421.5L-17.9,421.6M-16,421.1L-16.9,421.5M-14.2,420.4L-16,421.1M-12.7,419.5L-14.2,420.4M-11.2,418.4L-12.7,419.5M-8.3,416L-11.2,418.4M-5.6,413.4L-8.3,416M-3,411L-5.6,413.4M-2,408.5L-3,411M-0.8,406.1L-2,408.5M0.7,403.9L-0.8,406.1M2.4,401.7L0.7,403.9M4.5,399.6L2.4,401.7M5.7,398.7L4.5,399.6M6.9,398L5.7,398.7M8.1,397.5L6.9,398M9.5,397.2L8.1,397.5M11,397.1L9.5,397.2M12.6,397.3L11,397.1M13.6,397.6L12.6,397.3M14.7,398L13.6,397.6M15.6,398.7L14.7,398M15.9,399.2L15.6,398.7M16,399.7L15.9,399.2M16.1,400.4L16,399.7M16,401.2L16.1,400.4M15.5,402.5L16,401.2M14.7,403.7L15.5,402.5M13.7,404.8L14.7,403.7M12.1,406.1L13.7,404.8M10.6,407.3L12.1,406.1M7.2,409.5L10.6,407.3M3.8,411.6L7.2,409.5M0.4,413.7L3.8,411.6M0.2,413.9L0.4,413.7M-0.2,415.1L0.2,413.9M-0.3,416.3L-0.2,415.1M-0.3,417.6L-0.3,416.3M0.1,418.8L-0.3,417.6M0.7,419.6L0.1,418.8M1.5,420.1L0.7,419.6M2.3,420.3L1.5,420.1M3.3,420.3L2.3,420.3M4.2,420.1L3.3,420.3M5.2,419.8L4.2,420.1M6.8,418.9L5.2,419.8M8.4,417.8L6.8,418.9M9.7,416.5L8.4,417.8M12.3,413.9L9.7,416.5M13.2,413.2L12.3,413.9M14.1,412.9L13.2,413.2M15.1,413.1L14.1,412.9M16,413.8L15.1,413.1M16.4,414.4L16,413.8M16.6,415.1L16.4,414.4M16.8,416.7L16.6,415.1M16.3,418.1L16.8,416.7M16,419L16.3,418.1M16,419.5L16,419M16.4,419.8L16,419.5M17,419.9L16.4,419.8M18.2,419.8L17,419.9M19.5,419.5L18.2,419.8M20.5,419.1L19.5,419.5M22.2,418.3L20.5,419.1M23.8,417.3L22.2,418.3M27.1,415.1L23.8,417.3M23.8,415.4L27.1,415.1M23,415.3L23.8,415.4M22.3,414.9L23,415.3M21.8,414.3L22.3,414.9M21.5,413.6L21.8,414.3M21.4,412.9L21.5,413.6M21.6,412.2L21.4,412.9M22.1,411.7L21.6,412.2M22.8,411.5L22.1,411.7M28.1,411.1L22.8,411.5M33.3,410.9L28.1,411.1M35.9,404.8L33.3,410.9M36.6,403.9L35.9,404.8M37.5,403.4L36.6,403.9M38.5,403.2L37.5,403.4M39.6,403.4L38.5,403.2M40,403.7L39.6,403.4M40.3,404.2L40,403.7M40.4,404.7L40.3,404.2M40.3,405.2L40.4,404.7M37.8,410.9L40.3,405.2M45.7,410.8L37.8,410.9M49.6,410.9L45.7,410.8M53.5,411.1L49.6,410.9M57,411.4L53.5,411.1M58.7,411.5L57,411.4M60.4,411.9L58.7,411.5M61.9,412.5L60.4,411.9M63.2,413.3L61.9,412.5M64.3,414.6L63.2,413.3M64.7,415.4L64.3,414.6M65.1,416.3L64.7,415.4M65.6,418.3L65.1,416.3M66,416.8L65.6,418.3M66.9,415.6L66,416.8M68.1,414.6L66.9,415.6M69.6,414L68.1,414.6M71.9,413.7L69.6,414M73.1,413.7L71.9,413.7M74.3,413.9L73.1,413.7M75.4,414.2L74.3,413.9M76.4,414.8L75.4,414.2M77.3,415.5L76.4,414.8M78,416.5L77.3,415.5M78.1,416.6L78,416.5M78.3,414.7L78.1,416.6M78.5,414.3L78.3,414.7M78.8,414.3L78.5,414.3M79.3,414.5L78.8,414.3M79.7,415L79.3,414.5M80.6,416.2L79.7,415M80.8,416.9L80.6,416.2M80.9,417.4L80.8,416.9M80.7,419.2L80.9,417.4M81.7,418.8L80.7,419.2M82.7,418.7L81.7,418.8M83.6,418.9L82.7,418.7M84.6,419.2L83.6,418.9M85.4,419.7L84.6,419.2M86.2,420.3L85.4,419.7M86.8,421.1L86.2,420.3M87.4,422L86.8,421.1M88.4,423.9L87.4,422M89.1,424.7L88.4,423.9M90.2,425.2L89.1,424.7M92.1,425.5L90.2,425.2M94,425.3L92.1,425.5M96.5,424.4L94,425.3M98.8,423.2L96.5,424.4M100.8,421.5L98.8,423.2M102.6,419.6L100.8,421.5M78.2,423L78.9,422.9L79.4,422.5L79.8,421.9L79.9,421.3L79.8,420.6L79.4,420.1L78.9,419.7L78.2,419.6L77.6,419.7L77,420.1L76.6,420.6L76.5,421.3L76.6,421.9L77,422.5L77.6,422.9L78.2,423M31.8,416.2L32.4,416L33,415.7L33.4,415.1L33.5,414.5L33.4,413.8L33,413.3L32.4,412.9L31.8,412.8L31.1,412.9L30.6,413.3L30.2,413.8L30.1,414.5L30.2,415.1L30.6,415.7L31.1,416L31.8,416.2M-73.8,428.8L-73.1,428.7L-72.6,428.3L-72.2,427.8L-72.1,427.1L-72.2,426.5L-72.6,425.9L-73.1,425.6L-73.8,425.4L-74.4,425.6L-75,425.9L-75.4,426.5L-75.5,427.1L-75.4,427.8L-75,428.3L-74.4,428.7L-73.8,428.8M-80.3,452.2L-80,451.9M-80.8,452.3L-80.3,452.2M-82.2,452.1L-80.8,452.3M-83.5,451.7L-82.2,452.1M25.4,430.3L25.8,430.9M25.3,429.6L25.4,430.3M25.4,428.9L25.3,429.6M95,429.1L97.1,428.6M26.9,431.5L27.6,431.7M26.4,431.3L26.9,431.5M25.8,430.9L26.4,431.3M-84.1,451L-83.9,451.3M-84.1,450.9L-84.1,451M-13.7,584.1L0,584.1M-113.4,584.1L-13.7,584.1M-15.9,586.9L-110.6,586.9M-2.9,586.9L-15.9,586.9M-6.8,591.2L-106.6,591.2M754.4,584.1L768.2,584.1M654.8,584.1L754.4,584.1M752.3,586.9L657.6,586.9M765.3,586.9L752.3,586.9M761.4,591.2L661.6,591.2M688.8,445.6L688.8,444.2M688.8,444.2L688.8,445.6M649.1,445.6L649.1,444.2M609.4,444.2L609.4,445.6M649.1,444.2L649.1,445.6M609.4,445.6L609.4,444.2M132.6,208L139.4,208M135.7,202.6L136.3,202.6M5.1,208L11.9,208M8.2,202.6L8.8,202.6M515.3,208L522.1,208M518.4,202.6L519,202.6M642.9,208L649.7,208M646,202.6L646.5,202.6M260.2,208L263.4,208M391.3,208L394.5,208M327.4,461.2L334.1,460.7L340.6,459.2L346.9,456.7L352.6,453.2L357.8,449L362.3,443.9L366,438.3L368.7,432.2L370.5,425.7L371.3,419L371,412.3L369.7,405.7L367.5,399.3L364.2,393.4L360.2,388.1L355.3,383.4L349.8,379.5L343.8,376.5L337.4,374.5L330.7,373.5L324,373.5L317.4,374.5L310.9,376.5L304.9,379.5L299.4,383.4L294.6,388.1L290.5,393.4L287.3,399.3L285,405.7L283.7,412.3L283.5,419L284.2,425.7L286,432.2L288.8,438.3L292.4,443.9L296.9,449L302.1,453.2L307.9,456.7L314.1,459.2L320.7,460.7L327.4,461.2M327.4,464.1L320.6,463.6L313.9,462.1L307.5,459.7L301.6,456.3L296.2,452.1L291.4,447.2L287.4,441.7L284.3,435.6L282.1,429.1L280.9,422.4L280.6,415.6L281.4,408.8L283.1,402.2L285.8,395.9L289.3,390.1L293.7,384.8L298.8,380.3L304.5,376.5L310.7,373.6L317.2,371.6L324,370.7L330.8,370.7L337.5,371.6L344.1,373.6L350.3,376.5L356,380.3L361,384.8L365.4,390.1L369,395.9L371.6,402.2L373.4,408.8L374.1,415.6L373.9,422.4L372.6,429.1L370.4,435.6L367.3,441.7L363.3,447.2L358.6,452.1L353.2,456.3L347.2,459.7L340.8,462.1L334.2,463.6L327.4,464.1M327.4,474L334.9,473.5L342.3,472L349.5,469.5L356.3,466.1L362.5,461.8L368.1,456.7L373,450.9L377.1,444.5L380.3,437.7L382.5,430.4L383.8,423L384,415.4L383.3,407.9L381.5,400.5L378.8,393.4L375.2,386.8L370.7,380.7L365.4,375.3L359.5,370.6L352.9,366.7L346,363.7L338.7,361.7L331.2,360.7L323.6,360.7L316.1,361.7L308.8,363.7L301.8,366.7L295.3,370.6L289.3,375.3L284.1,380.7L279.6,386.8L275.9,393.4L273.2,400.5L271.5,407.9L270.7,415.4L271,423L272.2,430.4L274.5,437.7L277.7,444.5L281.7,450.9L286.6,456.7L292.2,461.8L298.5,466.1L305.2,469.5L312.4,472L319.8,473.5L327.4,474M-168.7,-7.1L-168.7,1.9M823.4,-7.1L814.4,-7.1M-159.6,-7.1L-168.7,-7.1M823.4,-7.1L823.4,1.9M819,1.9L817.9,-1.2L816.9,-4L815.9,-6L814.8,-7L814.4,-7.1M-164.2,1.9L819,1.9M-159.6,-7.1L-160.7,-6.6L-161.7,-4.9L-162.8,-2.5L-163.8,0.6L-164.2,1.9M-159.6,-7.1L814.4,-7.1M-168.7,309.7L-164.2,309.7M-168.7,1.9L-168.7,309.7M823.4,1.9L823.4,309.7M823.4,309.7L819,309.7M-164.2,309.7L819,309.7M296.2,151.5L294.6,151.8L293.2,152.8L292.3,154.1L291.9,155.8L292.3,157.4L293.2,158.8L294.6,159.7L296.2,160M296.2,160L358.5,160M358.5,160L360.2,159.7L361.6,158.8L362.5,157.4L362.8,155.8L362.5,154.1L361.6,152.8L360.2,151.8L358.5,151.5M358.5,151.5L296.2,151.5M296.2,134.5L294.6,134.8L293.2,135.7L292.3,137.1L291.9,138.8L292.3,140.4L293.2,141.8L294.6,142.7L296.2,143M296.2,143L358.5,143M358.5,143L360.2,142.7L361.6,141.8L362.5,140.4L362.8,138.8L362.5,137.1L361.6,135.7L360.2,134.8L358.5,134.5M358.5,134.5L296.2,134.5M296.2,253.6L294.6,253.9L293.2,254.8L292.3,256.2L291.9,257.8L292.3,259.4L293.2,260.8L294.6,261.7L296.2,262.1M296.2,262.1L358.5,262.1M358.5,262.1L360.2,261.7L361.6,260.8L362.5,259.4L362.8,257.8L362.5,256.2L361.6,254.8L360.2,253.9L358.5,253.6M358.5,253.6L296.2,253.6M296.2,236.5L294.6,236.9L293.2,237.8L292.3,239.2L291.9,240.8L292.3,242.4L293.2,243.8L294.6,244.7L296.2,245.1M296.2,245.1L358.5,245.1M358.5,245.1L360.2,244.7L361.6,243.8L362.5,242.4L362.8,240.8L362.5,239.2L361.6,237.8L360.2,236.9L358.5,236.5M358.5,236.5L296.2,236.5M296.2,270.6L294.6,270.9L293.2,271.8L292.3,273.2L291.9,274.8L292.3,276.4L293.2,277.8L294.6,278.7L296.2,279.1M296.2,279.1L358.5,279.1M358.5,279.1L360.2,278.7L361.6,277.8L362.5,276.4L362.8,274.8L362.5,273.2L361.6,271.8L360.2,270.9L358.5,270.6M358.5,270.6L296.2,270.6M296.2,185.5L294.6,185.8L293.2,186.8L292.3,188.2L291.9,189.8L292.3,191.4L293.2,192.8L294.6,193.7L296.2,194M296.2,194L358.5,194M358.5,194L360.2,193.7L361.6,192.8L362.5,191.4L362.8,189.8L362.5,188.2L361.6,186.8L360.2,185.8L358.5,185.5M358.5,185.5L296.2,185.5M296.2,117.5L294.6,117.8L293.2,118.7L292.3,120.1L291.9,121.7L292.3,123.4L293.2,124.8L294.6,125.7L296.2,126M296.2,126L358.5,126M358.5,126L360.2,125.7L361.6,124.8L362.5,123.4L362.8,121.7L362.5,120.1L361.6,118.7L360.2,117.8L358.5,117.5M358.5,117.5L296.2,117.5M296.2,100.5L294.6,100.8L293.2,101.7L292.3,103.1L291.9,104.7L292.3,106.4L293.2,107.7L294.6,108.7L296.2,109M296.2,109L358.5,109M358.5,109L360.2,108.7L361.6,107.7L362.5,106.4L362.8,104.7L362.5,103.1L361.6,101.7L360.2,100.8L358.5,100.5M358.5,100.5L296.2,100.5M296.2,83.5L294.6,83.8L293.2,84.7L292.3,86.1L291.9,87.7L292.3,89.4L293.2,90.7L294.6,91.7L296.2,92M296.2,92L358.5,92M358.5,92L360.2,91.7L361.6,90.7L362.5,89.4L362.8,87.7L362.5,86.1L361.6,84.7L360.2,83.8L358.5,83.5M358.5,83.5L296.2,83.5M296.2,66.6L294.6,66.9L293.2,67.8L292.3,69.2L291.9,70.8L292.3,72.4L293.2,73.8L294.6,74.8L296.2,75.1M296.2,75.1L358.5,75.1M358.5,75.1L360.2,74.8L361.6,73.8L362.5,72.4L362.8,70.8L362.5,69.2L361.6,67.8L360.2,66.9L358.5,66.6M358.5,66.6L296.2,66.6M296.2,49.6L294.6,49.9L293.2,50.8L292.3,52.2L291.9,53.8L292.3,55.4L293.2,56.8L294.6,57.7L296.2,58.1M296.2,58.1L358.5,58.1M358.5,58.1L360.2,57.7L361.6,56.8L362.5,55.4L362.8,53.8L362.5,52.2L361.6,50.8L360.2,49.9L358.5,49.6M358.5,49.6L296.2,49.6M296.2,32.6L294.6,32.9L293.2,33.8L292.3,35.2L291.9,36.8L292.3,38.4L293.2,39.8L294.6,40.7L296.2,41.1M296.2,41.1L358.5,41.1M358.5,41.1L360.2,40.7L361.6,39.8L362.5,38.4L362.8,36.8L362.5,35.2L361.6,33.8L360.2,32.9L358.5,32.6M358.5,32.6L296.2,32.6M296.2,168.5L294.6,168.8L293.2,169.8L292.3,171.1L291.9,172.8L292.3,174.4L293.2,175.8L294.6,176.7L296.2,177M296.2,177L358.5,177M358.5,177L360.2,176.7L361.6,175.8L362.5,174.4L362.8,172.8L362.5,171.1L361.6,169.8L360.2,168.8L358.5,168.5M358.5,168.5L296.2,168.5M296.2,219.5L294.6,219.9L293.2,220.8L292.3,222.2L291.9,223.8L292.3,225.4L293.2,226.8L294.6,227.7L296.2,228M296.2,228L358.5,228M358.5,228L360.2,227.7L361.6,226.8L362.5,225.4L362.8,223.8L362.5,222.2L361.6,220.8L360.2,219.9L358.5,219.5M358.5,219.5L296.2,219.5M296.2,202.5L294.6,202.9L293.2,203.8L292.3,205.2L291.9,206.8L292.3,208.4L293.2,209.8L294.6,210.7L296.2,211M296.2,211L358.5,211M358.5,211L360.2,210.7L361.6,209.8L362.5,208.4L362.8,206.8L362.5,205.2L361.6,203.8L360.2,202.9L358.5,202.5M358.5,202.5L296.2,202.5M395.4,151.5L393.8,151.8L392.4,152.8L391.5,154.1L391.1,155.8L391.5,157.4L392.4,158.8L393.8,159.7L395.4,160M395.4,160L457.8,160M457.8,160L459.4,159.7L460.8,158.8L461.7,157.4L462,155.8L461.7,154.1L460.8,152.8L459.4,151.8L457.8,151.5M457.8,151.5L395.4,151.5M-100.7,151.5L-102.3,151.8L-103.7,152.8L-104.6,154.1L-104.9,155.8L-104.6,157.4L-103.7,158.8L-102.3,159.7L-100.7,160M-100.7,160L-38.3,160M-38.3,160L-36.7,159.7L-35.3,158.8L-34.4,157.4L-34,155.8L-34.4,154.1L-35.3,152.8L-36.7,151.8L-38.3,151.5M-38.3,151.5L-100.7,151.5M494.6,151.5L493,151.8L491.6,152.8L490.7,154.1L490.4,155.8L490.7,157.4L491.6,158.8L493,159.7L494.6,160M494.6,160L557,160M557,160L558.6,159.7L560,158.8L560.9,157.4L561.2,155.8L560.9,154.1L560,152.8L558.6,151.8L557,151.5M557,151.5L494.6,151.5M593.8,151.5L592.2,151.8L590.8,152.8L589.9,154.1L589.6,155.8L589.9,157.4L590.8,158.8L592.2,159.7L593.8,160M593.8,160L656.2,160M656.2,160L657.8,159.7L659.2,158.8L660.1,157.4L660.4,155.8L660.1,154.1L659.2,152.8L657.8,151.8L656.2,151.5M656.2,151.5L593.8,151.5M693,151.5L691.4,151.8L690,152.8L689.1,154.1L688.8,155.8L689.1,157.4L690,158.8L691.4,159.7L693,160M693,160L755.4,160M755.4,160L757,159.7L758.4,158.8L759.3,157.4L759.7,155.8L759.3,154.1L758.4,152.8L757,151.8L755.4,151.5M755.4,151.5L693,151.5M197,151.5L195.3,151.8L194,152.8L193,154.1L192.7,155.8L193,157.4L194,158.8L195.3,159.7L197,160M197,160L259.3,160M259.3,160L261,159.7L262.3,158.8L263.3,157.4L263.6,155.8L263.3,154.1L262.3,152.8L261,151.8L259.3,151.5M259.3,151.5L197,151.5M-1.5,151.5L-3.1,151.8L-4.5,152.8L-5.4,154.1L-5.7,155.8L-5.4,157.4L-4.5,158.8L-3.1,159.7L-1.5,160M-1.5,160L60.9,160M60.9,160L62.5,159.7L63.9,158.8L64.8,157.4L65.2,155.8L64.8,154.1L63.9,152.8L62.5,151.8L60.9,151.5M60.9,151.5L-1.5,151.5M97.8,151.5L96.1,151.8L94.8,152.8L93.8,154.1L93.5,155.8L93.8,157.4L94.8,158.8L96.1,159.7L97.8,160M97.8,160L160.1,160M160.1,160L161.8,159.7L163.1,158.8L164.1,157.4L164.4,155.8L164.1,154.1L163.1,152.8L161.8,151.8L160.1,151.5M160.1,151.5L97.8,151.5M395.4,134.5L393.8,134.8L392.4,135.7L391.5,137.1L391.1,138.8L391.5,140.4L392.4,141.8L393.8,142.7L395.4,143M395.4,143L457.8,143M457.8,143L459.4,142.7L460.8,141.8L461.7,140.4L462,138.8L461.7,137.1L460.8,135.7L459.4,134.8L457.8,134.5M457.8,134.5L395.4,134.5M-100.7,134.5L-102.3,134.8L-103.7,135.7L-104.6,137.1L-104.9,138.8L-104.6,140.4L-103.7,141.8L-102.3,142.7L-100.7,143M-100.7,143L-38.3,143M-38.3,143L-36.7,142.7L-35.3,141.8L-34.4,140.4L-34,138.8L-34.4,137.1L-35.3,135.7L-36.7,134.8L-38.3,134.5M-38.3,134.5L-100.7,134.5M494.6,134.5L493,134.8L491.6,135.7L490.7,137.1L490.4,138.8L490.7,140.4L491.6,141.8L493,142.7L494.6,143M494.6,143L557,143M557,143L558.6,142.7L560,141.8L560.9,140.4L561.2,138.8L560.9,137.1L560,135.7L558.6,134.8L557,134.5M557,134.5L494.6,134.5M593.8,134.5L592.2,134.8L590.8,135.7L589.9,137.1L589.6,138.8L589.9,140.4L590.8,141.8L592.2,142.7L593.8,143M593.8,143L656.2,143M656.2,143L657.8,142.7L659.2,141.8L660.1,140.4L660.4,138.8L660.1,137.1L659.2,135.7L657.8,134.8L656.2,134.5M656.2,134.5L593.8,134.5M693,134.5L691.4,134.8L690,135.7L689.1,137.1L688.8,138.8L689.1,140.4L690,141.8L691.4,142.7L693,143M693,143L755.4,143M755.4,143L757,142.7L758.4,141.8L759.3,140.4L759.7,138.8L759.3,137.1L758.4,135.7L757,134.8L755.4,134.5M755.4,134.5L693,134.5M197,134.5L195.3,134.8L194,135.7L193,137.1L192.7,138.8L193,140.4L194,141.8L195.3,142.7L197,143M197,143L259.3,143M259.3,143L261,142.7L262.3,141.8L263.3,140.4L263.6,138.8L263.3,137.1L262.3,135.7L261,134.8L259.3,134.5M259.3,134.5L197,134.5M-1.5,134.5L-3.1,134.8L-4.5,135.7L-5.4,137.1L-5.7,138.8L-5.4,140.4L-4.5,141.8L-3.1,142.7L-1.5,143M-1.5,143L60.9,143M60.9,143L62.5,142.7L63.9,141.8L64.8,140.4L65.2,138.8L64.8,137.1L63.9,135.7L62.5,134.8L60.9,134.5M60.9,134.5L-1.5,134.5M97.8,134.5L96.1,134.8L94.8,135.7L93.8,137.1L93.5,138.8L93.8,140.4L94.8,141.8L96.1,142.7L97.8,143M97.8,143L160.1,143M160.1,143L161.8,142.7L163.1,141.8L164.1,140.4L164.4,138.8L164.1,137.1L163.1,135.7L161.8,134.8L160.1,134.5M160.1,134.5L97.8,134.5M395.4,253.6L393.8,253.9L392.4,254.8L391.5,256.2L391.1,257.8L391.5,259.4L392.4,260.8L393.8,261.7L395.4,262.1M395.4,262.1L457.8,262.1M457.8,262.1L459.4,261.7L460.8,260.8L461.7,259.4L462,257.8L461.7,256.2L460.8,254.8L459.4,253.9L457.8,253.6M457.8,253.6L395.4,253.6M-100.7,253.6L-102.3,253.9L-103.7,254.8L-104.6,256.2L-104.9,257.8L-104.6,259.4L-103.7,260.8L-102.3,261.7L-100.7,262.1M-100.7,262.1L-38.3,262.1M-38.3,262.1L-36.7,261.7L-35.3,260.8L-34.4,259.4L-34,257.8L-34.4,256.2L-35.3,254.8L-36.7,253.9L-38.3,253.6M-38.3,253.6L-100.7,253.6M494.6,253.6L493,253.9L491.6,254.8L490.7,256.2L490.4,257.8L490.7,259.4L491.6,260.8L493,261.7L494.6,262.1M494.6,262.1L557,262.1M557,262.1L558.6,261.7L560,260.8L560.9,259.4L561.2,257.8L560.9,256.2L560,254.8L558.6,253.9L557,253.6M557,253.6L494.6,253.6M593.8,253.6L592.2,253.9L590.8,254.8L589.9,256.2L589.6,257.8L589.9,259.4L590.8,260.8L592.2,261.7L593.8,262.1M593.8,262.1L656.2,262.1M656.2,262.1L657.8,261.7L659.2,260.8L660.1,259.4L660.4,257.8L660.1,256.2L659.2,254.8L657.8,253.9L656.2,253.6M656.2,253.6L593.8,253.6M693,253.6L691.4,253.9L690,254.8L689.1,256.2L688.8,257.8L689.1,259.4L690,260.8L691.4,261.7L693,262.1M693,262.1L755.4,262.1M755.4,262.1L757,261.7L758.4,260.8L759.3,259.4L759.7,257.8L759.3,256.2L758.4,254.8L757,253.9L755.4,253.6M755.4,253.6L693,253.6M197,253.6L195.3,253.9L194,254.8L193,256.2L192.7,257.8L193,259.4L194,260.8L195.3,261.7L197,262.1M197,262.1L259.3,262.1M259.3,262.1L261,261.7L262.3,260.8L263.3,259.4L263.6,257.8L263.3,256.2L262.3,254.8L261,253.9L259.3,253.6M259.3,253.6L197,253.6M-1.5,253.6L-3.1,253.9L-4.5,254.8L-5.4,256.2L-5.7,257.8L-5.4,259.4L-4.5,260.8L-3.1,261.7L-1.5,262.1M-1.5,262.1L60.9,262.1M60.9,262.1L62.5,261.7L63.9,260.8L64.8,259.4L65.2,257.8L64.8,256.2L63.9,254.8L62.5,253.9L60.9,253.6M60.9,253.6L-1.5,253.6M97.8,253.6L96.1,253.9L94.8,254.8L93.8,256.2L93.5,257.8L93.8,259.4L94.8,260.8L96.1,261.7L97.8,262.1M97.8,262.1L160.1,262.1M160.1,262.1L161.8,261.7L163.1,260.8L164.1,259.4L164.4,257.8L164.1,256.2L163.1,254.8L161.8,253.9L160.1,253.6M160.1,253.6L97.8,253.6M395.4,236.5L393.8,236.9L392.4,237.8L391.5,239.2L391.1,240.8L391.5,242.4L392.4,243.8L393.8,244.7L395.4,245.1M395.4,245.1L457.8,245.1M457.8,245.1L459.4,244.7L460.8,243.8L461.7,242.4L462,240.8L461.7,239.2L460.8,237.8L459.4,236.9L457.8,236.5M457.8,236.5L395.4,236.5M-100.7,236.5L-102.3,236.9L-103.7,237.8L-104.6,239.2L-104.9,240.8L-104.6,242.4L-103.7,243.8L-102.3,244.7L-100.7,245.1M-100.7,245.1L-38.3,245.1M-38.3,245.1L-36.7,244.7L-35.3,243.8L-34.4,242.4L-34,240.8L-34.4,239.2L-35.3,237.8L-36.7,236.9L-38.3,236.5M-38.3,236.5L-100.7,236.5M494.6,236.5L493,236.9L491.6,237.8L490.7,239.2L490.4,240.8L490.7,242.4L491.6,243.8L493,244.7L494.6,245.1M494.6,245.1L557,245.1M557,245.1L558.6,244.7L560,243.8L560.9,242.4L561.2,240.8L560.9,239.2L560,237.8L558.6,236.9L557,236.5M557,236.5L494.6,236.5M593.8,236.5L592.2,236.9L590.8,237.8L589.9,239.2L589.6,240.8L589.9,242.4L590.8,243.8L592.2,244.7L593.8,245.1M593.8,245.1L656.2,245.1M656.2,245.1L657.8,244.7L659.2,243.8L660.1,242.4L660.4,240.8L660.1,239.2L659.2,237.8L657.8,236.9L656.2,236.5M656.2,236.5L593.8,236.5M693,236.5L691.4,236.9L690,237.8L689.1,239.2L688.8,240.8L689.1,242.4L690,243.8L691.4,244.7L693,245.1M693,245.1L755.4,245.1M755.4,245.1L757,244.7L758.4,243.8L759.3,242.4L759.7,240.8L759.3,239.2L758.4,237.8L757,236.9L755.4,236.5M755.4,236.5L693,236.5M197,236.5L195.3,236.9L194,237.8L193,239.2L192.7,240.8L193,242.4L194,243.8L195.3,244.7L197,245.1M197,245.1L259.3,245.1M259.3,245.1L261,244.7L262.3,243.8L263.3,242.4L263.6,240.8L263.3,239.2L262.3,237.8L261,236.9L259.3,236.5M259.3,236.5L197,236.5M-1.5,236.5L-3.1,236.9L-4.5,237.8L-5.4,239.2L-5.7,240.8L-5.4,242.4L-4.5,243.8L-3.1,244.7L-1.5,245.1M-1.5,245.1L60.9,245.1M60.9,245.1L62.5,244.7L63.9,243.8L64.8,242.4L65.2,240.8L64.8,239.2L63.9,237.8L62.5,236.9L60.9,236.5M60.9,236.5L-1.5,236.5M97.8,236.5L96.1,236.9L94.8,237.8L93.8,239.2L93.5,240.8L93.8,242.4L94.8,243.8L96.1,244.7L97.8,245.1M97.8,245.1L160.1,245.1M160.1,245.1L161.8,244.7L163.1,243.8L164.1,242.4L164.4,240.8L164.1,239.2L163.1,237.8L161.8,236.9L160.1,236.5M160.1,236.5L97.8,236.5M395.4,270.6L393.8,270.9L392.4,271.8L391.5,273.2L391.1,274.8L391.5,276.4L392.4,277.8L393.8,278.7L395.4,279.1M395.4,279.1L457.8,279.1M457.8,279.1L459.4,278.7L460.8,277.8L461.7,276.4L462,274.8L461.7,273.2L460.8,271.8L459.4,270.9L457.8,270.6M457.8,270.6L395.4,270.6M-100.7,270.6L-102.3,270.9L-103.7,271.8L-104.6,273.2L-104.9,274.8L-104.6,276.4L-103.7,277.8L-102.3,278.7L-100.7,279.1M-100.7,279.1L-38.3,279.1M-38.3,279.1L-36.7,278.7L-35.3,277.8L-34.4,276.4L-34,274.8L-34.4,273.2L-35.3,271.8L-36.7,270.9L-38.3,270.6M-38.3,270.6L-100.7,270.6M494.6,270.6L493,270.9L491.6,271.8L490.7,273.2L490.4,274.8L490.7,276.4L491.6,277.8L493,278.7L494.6,279.1M494.6,279.1L557,279.1M557,279.1L558.6,278.7L560,277.8L560.9,276.4L561.2,274.8L560.9,273.2L560,271.8L558.6,270.9L557,270.6M557,270.6L494.6,270.6M593.8,270.6L592.2,270.9L590.8,271.8L589.9,273.2L589.6,274.8L589.9,276.4L590.8,277.8L592.2,278.7L593.8,279.1M593.8,279.1L656.2,279.1M656.2,279.1L657.8,278.7L659.2,277.8L660.1,276.4L660.4,274.8L660.1,273.2L659.2,271.8L657.8,270.9L656.2,270.6M656.2,270.6L593.8,270.6M693,270.6L691.4,270.9L690,271.8L689.1,273.2L688.8,274.8L689.1,276.4L690,277.8L691.4,278.7L693,279.1M693,279.1L755.4,279.1M755.4,279.1L757,278.7L758.4,277.8L759.3,276.4L759.7,274.8L759.3,273.2L758.4,271.8L757,270.9L755.4,270.6M755.4,270.6L693,270.6M197,270.6L195.3,270.9L194,271.8L193,273.2L192.7,274.8L193,276.4L194,277.8L195.3,278.7L197,279.1M197,279.1L259.3,279.1M259.3,279.1L261,278.7L262.3,277.8L263.3,276.4L263.6,274.8L263.3,273.2L262.3,271.8L261,270.9L259.3,270.6M259.3,270.6L197,270.6M-1.5,270.6L-3.1,270.9L-4.5,271.8L-5.4,273.2L-5.7,274.8L-5.4,276.4L-4.5,277.8L-3.1,278.7L-1.5,279.1M-1.5,279.1L60.9,279.1M60.9,279.1L62.5,278.7L63.9,277.8L64.8,276.4L65.2,274.8L64.8,273.2L63.9,271.8L62.5,270.9L60.9,270.6M60.9,270.6L-1.5,270.6M97.8,270.6L96.1,270.9L94.8,271.8L93.8,273.2L93.5,274.8L93.8,276.4L94.8,277.8L96.1,278.7L97.8,279.1M97.8,279.1L160.1,279.1M160.1,279.1L161.8,278.7L163.1,277.8L164.1,276.4L164.4,274.8L164.1,273.2L163.1,271.8L161.8,270.9L160.1,270.6M160.1,270.6L97.8,270.6M395.4,185.5L393.8,185.8L392.4,186.8L391.5,188.2L391.1,189.8L391.5,191.4L392.4,192.8L393.8,193.7L395.4,194M395.4,194L457.8,194M457.8,194L459.4,193.7L460.8,192.8L461.7,191.4L462,189.8L461.7,188.2L460.8,186.8L459.4,185.8L457.8,185.5M457.8,185.5L395.4,185.5M-100.7,185.5L-102.3,185.8L-103.7,186.8L-104.6,188.2L-104.9,189.8L-104.6,191.4L-103.7,192.8L-102.3,193.7L-100.7,194M-100.7,194L-38.3,194M-38.3,194L-36.7,193.7L-35.3,192.8L-34.4,191.4L-34,189.8L-34.4,188.2L-35.3,186.8L-36.7,185.8L-38.3,185.5M-38.3,185.5L-100.7,185.5M494.6,185.5L493,185.8L491.6,186.8L490.7,188.2L490.4,189.8L490.7,191.4L491.6,192.8L493,193.7L494.6,194M494.6,194L557,194M557,194L558.6,193.7L560,192.8L560.9,191.4L561.2,189.8L560.9,188.2L560,186.8L558.6,185.8L557,185.5M557,185.5L494.6,185.5M593.8,185.5L592.2,185.8L590.8,186.8L589.9,188.2L589.6,189.8L589.9,191.4L590.8,192.8L592.2,193.7L593.8,194M593.8,194L656.2,194M656.2,194L657.8,193.7L659.2,192.8L660.1,191.4L660.4,189.8L660.1,188.2L659.2,186.8L657.8,185.8L656.2,185.5M656.2,185.5L593.8,185.5M693,185.5L691.4,185.8L690,186.8L689.1,188.2L688.8,189.8L689.1,191.4L690,192.8L691.4,193.7L693,194M693,194L755.4,194M755.4,194L757,193.7L758.4,192.8L759.3,191.4L759.7,189.8L759.3,188.2L758.4,186.8L757,185.8L755.4,185.5M755.4,185.5L693,185.5M197,185.5L195.3,185.8L194,186.8L193,188.2L192.7,189.8L193,191.4L194,192.8L195.3,193.7L197,194M197,194L259.3,194M259.3,194L261,193.7L262.3,192.8L263.3,191.4L263.6,189.8L263.3,188.2L262.3,186.8L261,185.8L259.3,185.5M259.3,185.5L197,185.5M-1.5,185.5L-3.1,185.8L-4.5,186.8L-5.4,188.2L-5.7,189.8L-5.4,191.4L-4.5,192.8L-3.1,193.7L-1.5,194M-1.5,194L60.9,194M60.9,194L62.5,193.7L63.9,192.8L64.8,191.4L65.2,189.8L64.8,188.2L63.9,186.8L62.5,185.8L60.9,185.5M60.9,185.5L-1.5,185.5M97.8,185.5L96.1,185.8L94.8,186.8L93.8,188.2L93.5,189.8L93.8,191.4L94.8,192.8L96.1,193.7L97.8,194M97.8,194L160.1,194M160.1,194L161.8,193.7L163.1,192.8L164.1,191.4L164.4,189.8L164.1,188.2L163.1,186.8L161.8,185.8L160.1,185.5M160.1,185.5L97.8,185.5M395.4,117.5L393.8,117.8L392.4,118.7L391.5,120.1L391.1,121.7L391.5,123.4L392.4,124.8L393.8,125.7L395.4,126M395.4,126L457.8,126M457.8,126L459.4,125.7L460.8,124.8L461.7,123.4L462,121.7L461.7,120.1L460.8,118.7L459.4,117.8L457.8,117.5M457.8,117.5L395.4,117.5M-100.7,117.5L-102.3,117.8L-103.7,118.7L-104.6,120.1L-104.9,121.7L-104.6,123.4L-103.7,124.8L-102.3,125.7L-100.7,126M-100.7,126L-38.3,126M-38.3,126L-36.7,125.7L-35.3,124.8L-34.4,123.4L-34,121.7L-34.4,120.1L-35.3,118.7L-36.7,117.8L-38.3,117.5M-38.3,117.5L-100.7,117.5M494.6,117.5L493,117.8L491.6,118.7L490.7,120.1L490.4,121.7L490.7,123.4L491.6,124.8L493,125.7L494.6,126M494.6,126L557,126M557,126L558.6,125.7L560,124.8L560.9,123.4L561.2,121.7L560.9,120.1L560,118.7L558.6,117.8L557,117.5M557,117.5L494.6,117.5M593.8,117.5L592.2,117.8L590.8,118.7L589.9,120.1L589.6,121.7L589.9,123.4L590.8,124.8L592.2,125.7L593.8,126M593.8,126L656.2,126M656.2,126L657.8,125.7L659.2,124.8L660.1,123.4L660.4,121.7L660.1,120.1L659.2,118.7L657.8,117.8L656.2,117.5M656.2,117.5L593.8,117.5M693,117.5L691.4,117.8L690,118.7L689.1,120.1L688.8,121.7L689.1,123.4L690,124.8L691.4,125.7L693,126M693,126L755.4,126M755.4,126L757,125.7L758.4,124.8L759.3,123.4L759.7,121.7L759.3,120.1L758.4,118.7L757,117.8L755.4,117.5M755.4,117.5L693,117.5M197,117.5L195.3,117.8L194,118.7L193,120.1L192.7,121.7L193,123.4L194,124.8L195.3,125.7L197,126M197,126L259.3,126M259.3,126L261,125.7L262.3,124.8L263.3,123.4L263.6,121.7L263.3,120.1L262.3,118.7L261,117.8L259.3,117.5M259.3,117.5L197,117.5M-1.5,117.5L-3.1,117.8L-4.5,118.7L-5.4,120.1L-5.7,121.7L-5.4,123.4L-4.5,124.8L-3.1,125.7L-1.5,126M-1.5,126L60.9,126M60.9,126L62.5,125.7L63.9,124.8L64.8,123.4L65.2,121.7L64.8,120.1L63.9,118.7L62.5,117.8L60.9,117.5M60.9,117.5L-1.5,117.5M97.8,117.5L96.1,117.8L94.8,118.7L93.8,120.1L93.5,121.7L93.8,123.4L94.8,124.8L96.1,125.7L97.8,126M97.8,126L160.1,126M160.1,126L161.8,125.7L163.1,124.8L164.1,123.4L164.4,121.7L164.1,120.1L163.1,118.7L161.8,117.8L160.1,117.5M160.1,117.5L97.8,117.5M395.4,100.5L393.8,100.8L392.4,101.7L391.5,103.1L391.1,104.7L391.5,106.4L392.4,107.7L393.8,108.7L395.4,109M395.4,109L457.8,109M457.8,109L459.4,108.7L460.8,107.7L461.7,106.4L462,104.7L461.7,103.1L460.8,101.7L459.4,100.8L457.8,100.5M457.8,100.5L395.4,100.5M-100.7,100.5L-102.3,100.8L-103.7,101.7L-104.6,103.1L-104.9,104.7L-104.6,106.4L-103.7,107.7L-102.3,108.7L-100.7,109M-100.7,109L-38.3,109M-38.3,109L-36.7,108.7L-35.3,107.7L-34.4,106.4L-34,104.7L-34.4,103.1L-35.3,101.7L-36.7,100.8L-38.3,100.5M-38.3,100.5L-100.7,100.5M494.6,100.5L493,100.8L491.6,101.7L490.7,103.1L490.4,104.7L490.7,106.4L491.6,107.7L493,108.7L494.6,109M494.6,109L557,109M557,109L558.6,108.7L560,107.7L560.9,106.4L561.2,104.7L560.9,103.1L560,101.7L558.6,100.8L557,100.5M557,100.5L494.6,100.5M593.8,100.5L592.2,100.8L590.8,101.7L589.9,103.1L589.6,104.7L589.9,106.4L590.8,107.7L592.2,108.7L593.8,109M593.8,109L656.2,109M656.2,109L657.8,108.7L659.2,107.7L660.1,106.4L660.4,104.7L660.1,103.1L659.2,101.7L657.8,100.8L656.2,100.5M656.2,100.5L593.8,100.5M693,100.5L691.4,100.8L690,101.7L689.1,103.1L688.8,104.7L689.1,106.4L690,107.7L691.4,108.7L693,109M693,109L755.4,109M755.4,109L757,108.7L758.4,107.7L759.3,106.4L759.7,104.7L759.3,103.1L758.4,101.7L757,100.8L755.4,100.5M755.4,100.5L693,100.5M197,100.5L195.3,100.8L194,101.7L193,103.1L192.7,104.7L193,106.4L194,107.7L195.3,108.7L197,109M197,109L259.3,109M259.3,109L261,108.7L262.3,107.7L263.3,106.4L263.6,104.7L263.3,103.1L262.3,101.7L261,100.8L259.3,100.5M259.3,100.5L197,100.5M-1.5,100.5L-3.1,100.8L-4.5,101.7L-5.4,103.1L-5.7,104.7L-5.4,106.4L-4.5,107.7L-3.1,108.7L-1.5,109M-1.5,109L60.9,109M60.9,109L62.5,108.7L63.9,107.7L64.8,106.4L65.2,104.7L64.8,103.1L63.9,101.7L62.5,100.8L60.9,100.5M60.9,100.5L-1.5,100.5M97.8,100.5L96.1,100.8L94.8,101.7L93.8,103.1L93.5,104.7L93.8,106.4L94.8,107.7L96.1,108.7L97.8,109M97.8,109L160.1,109M160.1,109L161.8,108.7L163.1,107.7L164.1,106.4L164.4,104.7L164.1,103.1L163.1,101.7L161.8,100.8L160.1,100.5M160.1,100.5L97.8,100.5M395.4,83.5L393.8,83.8L392.4,84.7L391.5,86.1L391.1,87.7L391.5,89.4L392.4,90.7L393.8,91.7L395.4,92M395.4,92L457.8,92M457.8,92L459.4,91.7L460.8,90.7L461.7,89.4L462,87.7L461.7,86.1L460.8,84.7L459.4,83.8L457.8,83.5M457.8,83.5L395.4,83.5M-100.7,83.5L-102.3,83.8L-103.7,84.7L-104.6,86.1L-104.9,87.7L-104.6,89.4L-103.7,90.7L-102.3,91.7L-100.7,92M-100.7,92L-38.3,92M-38.3,92L-36.7,91.7L-35.3,90.7L-34.4,89.4L-34,87.7L-34.4,86.1L-35.3,84.7L-36.7,83.8L-38.3,83.5M-38.3,83.5L-100.7,83.5M494.6,83.5L493,83.8L491.6,84.7L490.7,86.1L490.4,87.7L490.7,89.4L491.6,90.7L493,91.7L494.6,92M494.6,92L557,92M557,92L558.6,91.7L560,90.7L560.9,89.4L561.2,87.7L560.9,86.1L560,84.7L558.6,83.8L557,83.5M557,83.5L494.6,83.5M593.8,83.5L592.2,83.8L590.8,84.7L589.9,86.1L589.6,87.7L589.9,89.4L590.8,90.7L592.2,91.7L593.8,92M593.8,92L656.2,92M656.2,92L657.8,91.7L659.2,90.7L660.1,89.4L660.4,87.7L660.1,86.1L659.2,84.7L657.8,83.8L656.2,83.5M656.2,83.5L593.8,83.5M693,83.5L691.4,83.8L690,84.7L689.1,86.1L688.8,87.7L689.1,89.4L690,90.7L691.4,91.7L693,92M693,92L755.4,92M755.4,92L757,91.7L758.4,90.7L759.3,89.4L759.7,87.7L759.3,86.1L758.4,84.7L757,83.8L755.4,83.5M755.4,83.5L693,83.5M197,83.5L195.3,83.8L194,84.7L193,86.1L192.7,87.7L193,89.4L194,90.7L195.3,91.7L197,92M197,92L259.3,92M259.3,92L261,91.7L262.3,90.7L263.3,89.4L263.6,87.7L263.3,86.1L262.3,84.7L261,83.8L259.3,83.5M259.3,83.5L197,83.5M-1.5,83.5L-3.1,83.8L-4.5,84.7L-5.4,86.1L-5.7,87.7L-5.4,89.4L-4.5,90.7L-3.1,91.7L-1.5,92M-1.5,92L60.9,92M60.9,92L62.5,91.7L63.9,90.7L64.8,89.4L65.2,87.7L64.8,86.1L63.9,84.7L62.5,83.8L60.9,83.5M60.9,83.5L-1.5,83.5M97.8,83.5L96.1,83.8L94.8,84.7L93.8,86.1L93.5,87.7L93.8,89.4L94.8,90.7L96.1,91.7L97.8,92M97.8,92L160.1,92M160.1,92L161.8,91.7L163.1,90.7L164.1,89.4L164.4,87.7L164.1,86.1L163.1,84.7L161.8,83.8L160.1,83.5M160.1,83.5L97.8,83.5M395.4,66.6L393.8,66.9L392.4,67.8L391.5,69.2L391.1,70.8L391.5,72.4L392.4,73.8L393.8,74.8L395.4,75.1M395.4,75.1L457.8,75.1M457.8,75.1L459.4,74.8L460.8,73.8L461.7,72.4L462,70.8L461.7,69.2L460.8,67.8L459.4,66.9L457.8,66.6M457.8,66.6L395.4,66.6M-100.7,66.6L-102.3,66.9L-103.7,67.8L-104.6,69.2L-104.9,70.8L-104.6,72.4L-103.7,73.8L-102.3,74.8L-100.7,75.1M-100.7,75.1L-38.3,75.1M-38.3,75.1L-36.7,74.8L-35.3,73.8L-34.4,72.4L-34,70.8L-34.4,69.2L-35.3,67.8L-36.7,66.9L-38.3,66.6M-38.3,66.6L-100.7,66.6M494.6,66.6L493,66.9L491.6,67.8L490.7,69.2L490.4,70.8L490.7,72.4L491.6,73.8L493,74.8L494.6,75.1M494.6,75.1L557,75.1M557,75.1L558.6,74.8L560,73.8L560.9,72.4L561.2,70.8L560.9,69.2L560,67.8L558.6,66.9L557,66.6M557,66.6L494.6,66.6M593.8,66.6L592.2,66.9L590.8,67.8L589.9,69.2L589.6,70.8L589.9,72.4L590.8,73.8L592.2,74.8L593.8,75.1M593.8,75.1L656.2,75.1M656.2,75.1L657.8,74.8L659.2,73.8L660.1,72.4L660.4,70.8L660.1,69.2L659.2,67.8L657.8,66.9L656.2,66.6M656.2,66.6L593.8,66.6M693,66.6L691.4,66.9L690,67.8L689.1,69.2L688.8,70.8L689.1,72.4L690,73.8L691.4,74.8L693,75.1M693,75.1L755.4,75.1M755.4,75.1L757,74.8L758.4,73.8L759.3,72.4L759.7,70.8L759.3,69.2L758.4,67.8L757,66.9L755.4,66.6M755.4,66.6L693,66.6M197,66.6L195.3,66.9L194,67.8L193,69.2L192.7,70.8L193,72.4L194,73.8L195.3,74.8L197,75.1M197,75.1L259.3,75.1M259.3,75.1L261,74.8L262.3,73.8L263.3,72.4L263.6,70.8L263.3,69.2L262.3,67.8L261,66.9L259.3,66.6M259.3,66.6L197,66.6M-1.5,66.6L-3.1,66.9L-4.5,67.8L-5.4,69.2L-5.7,70.8L-5.4,72.4L-4.5,73.8L-3.1,74.8L-1.5,75.1M-1.5,75.1L60.9,75.1M60.9,75.1L62.5,74.8L63.9,73.8L64.8,72.4L65.2,70.8L64.8,69.2L63.9,67.8L62.5,66.9L60.9,66.6M60.9,66.6L-1.5,66.6M97.8,66.6L96.1,66.9L94.8,67.8L93.8,69.2L93.5,70.8L93.8,72.4L94.8,73.8L96.1,74.8L97.8,75.1M97.8,75.1L160.1,75.1M160.1,75.1L161.8,74.8L163.1,73.8L164.1,72.4L164.4,70.8L164.1,69.2L163.1,67.8L161.8,66.9L160.1,66.6M160.1,66.6L97.8,66.6M395.4,49.6L393.8,49.9L392.4,50.8L391.5,52.2L391.1,53.8L391.5,55.4L392.4,56.8L393.8,57.7L395.4,58.1M395.4,58.1L457.8,58.1M457.8,58.1L459.4,57.7L460.8,56.8L461.7,55.4L462,53.8L461.7,52.2L460.8,50.8L459.4,49.9L457.8,49.6M457.8,49.6L395.4,49.6M-100.7,49.6L-102.3,49.9L-103.7,50.8L-104.6,52.2L-104.9,53.8L-104.6,55.4L-103.7,56.8L-102.3,57.7L-100.7,58.1M-100.7,58.1L-38.3,58.1M-38.3,58.1L-36.7,57.7L-35.3,56.8L-34.4,55.4L-34,53.8L-34.4,52.2L-35.3,50.8L-36.7,49.9L-38.3,49.6M-38.3,49.6L-100.7,49.6M494.6,49.6L493,49.9L491.6,50.8L490.7,52.2L490.4,53.8L490.7,55.4L491.6,56.8L493,57.7L494.6,58.1M494.6,58.1L557,58.1M557,58.1L558.6,57.7L560,56.8L560.9,55.4L561.2,53.8L560.9,52.2L560,50.8L558.6,49.9L557,49.6M557,49.6L494.6,49.6M593.8,49.6L592.2,49.9L590.8,50.8L589.9,52.2L589.6,53.8L589.9,55.4L590.8,56.8L592.2,57.7L593.8,58.1M593.8,58.1L656.2,58.1M656.2,58.1L657.8,57.7L659.2,56.8L660.1,55.4L660.4,53.8L660.1,52.2L659.2,50.8L657.8,49.9L656.2,49.6M656.2,49.6L593.8,49.6M693,49.6L691.4,49.9L690,50.8L689.1,52.2L688.8,53.8L689.1,55.4L690,56.8L691.4,57.7L693,58.1M693,58.1L755.4,58.1M755.4,58.1L757,57.7L758.4,56.8L759.3,55.4L759.7,53.8L759.3,52.2L758.4,50.8L757,49.9L755.4,49.6M755.4,49.6L693,49.6M197,49.6L195.3,49.9L194,50.8L193,52.2L192.7,53.8L193,55.4L194,56.8L195.3,57.7L197,58.1M197,58.1L259.3,58.1M259.3,58.1L261,57.7L262.3,56.8L263.3,55.4L263.6,53.8L263.3,52.2L262.3,50.8L261,49.9L259.3,49.6M259.3,49.6L197,49.6M-1.5,49.6L-3.1,49.9L-4.5,50.8L-5.4,52.2L-5.7,53.8L-5.4,55.4L-4.5,56.8L-3.1,57.7L-1.5,58.1M-1.5,58.1L60.9,58.1M60.9,58.1L62.5,57.7L63.9,56.8L64.8,55.4L65.2,53.8L64.8,52.2L63.9,50.8L62.5,49.9L60.9,49.6M60.9,49.6L-1.5,49.6M97.8,49.6L96.1,49.9L94.8,50.8L93.8,52.2L93.5,53.8L93.8,55.4L94.8,56.8L96.1,57.7L97.8,58.1M97.8,58.1L160.1,58.1M160.1,58.1L161.8,57.7L163.1,56.8L164.1,55.4L164.4,53.8L164.1,52.2L163.1,50.8L161.8,49.9L160.1,49.6M160.1,49.6L97.8,49.6M395.4,32.6L393.8,32.9L392.4,33.8L391.5,35.2L391.1,36.8L391.5,38.4L392.4,39.8L393.8,40.7L395.4,41.1M395.4,41.1L457.8,41.1M457.8,41.1L459.4,40.7L460.8,39.8L461.7,38.4L462,36.8L461.7,35.2L460.8,33.8L459.4,32.9L457.8,32.6M457.8,32.6L395.4,32.6M-100.7,32.6L-102.3,32.9L-103.7,33.8L-104.6,35.2L-104.9,36.8L-104.6,38.4L-103.7,39.8L-102.3,40.7L-100.7,41.1M-100.7,41.1L-38.3,41.1M-38.3,41.1L-36.7,40.7L-35.3,39.8L-34.4,38.4L-34,36.8L-34.4,35.2L-35.3,33.8L-36.7,32.9L-38.3,32.6M-38.3,32.6L-100.7,32.6M494.6,32.6L493,32.9L491.6,33.8L490.7,35.2L490.4,36.8L490.7,38.4L491.6,39.8L493,40.7L494.6,41.1M494.6,41.1L557,41.1M557,41.1L558.6,40.7L560,39.8L560.9,38.4L561.2,36.8L560.9,35.2L560,33.8L558.6,32.9L557,32.6M557,32.6L494.6,32.6M593.8,32.6L592.2,32.9L590.8,33.8L589.9,35.2L589.6,36.8L589.9,38.4L590.8,39.8L592.2,40.7L593.8,41.1M593.8,41.1L656.2,41.1M656.2,41.1L657.8,40.7L659.2,39.8L660.1,38.4L660.4,36.8L660.1,35.2L659.2,33.8L657.8,32.9L656.2,32.6M656.2,32.6L593.8,32.6M693,32.6L691.4,32.9L690,33.8L689.1,35.2L688.8,36.8L689.1,38.4L690,39.8L691.4,40.7L693,41.1M693,41.1L755.4,41.1M755.4,41.1L757,40.7L758.4,39.8L759.3,38.4L759.7,36.8L759.3,35.2L758.4,33.8L757,32.9L755.4,32.6M755.4,32.6L693,32.6M197,32.6L195.3,32.9L194,33.8L193,35.2L192.7,36.8L193,38.4L194,39.8L195.3,40.7L197,41.1M197,41.1L259.3,41.1M259.3,41.1L261,40.7L262.3,39.8L263.3,38.4L263.6,36.8L263.3,35.2L262.3,33.8L261,32.9L259.3,32.6M259.3,32.6L197,32.6M-1.5,32.6L-3.1,32.9L-4.5,33.8L-5.4,35.2L-5.7,36.8L-5.4,38.4L-4.5,39.8L-3.1,40.7L-1.5,41.1M-1.5,41.1L60.9,41.1M60.9,41.1L62.5,40.7L63.9,39.8L64.8,38.4L65.2,36.8L64.8,35.2L63.9,33.8L62.5,32.9L60.9,32.6M60.9,32.6L-1.5,32.6M97.8,32.6L96.1,32.9L94.8,33.8L93.8,35.2L93.5,36.8L93.8,38.4L94.8,39.8L96.1,40.7L97.8,41.1M97.8,41.1L160.1,41.1M160.1,41.1L161.8,40.7L163.1,39.8L164.1,38.4L164.4,36.8L164.1,35.2L163.1,33.8L161.8,32.9L160.1,32.6M160.1,32.6L97.8,32.6M395.4,168.5L393.8,168.8L392.4,169.8L391.5,171.1L391.1,172.8L391.5,174.4L392.4,175.8L393.8,176.7L395.4,177M395.4,177L457.8,177M457.8,177L459.4,176.7L460.8,175.8L461.7,174.4L462,172.8L461.7,171.1L460.8,169.8L459.4,168.8L457.8,168.5M457.8,168.5L395.4,168.5M-100.7,168.5L-102.3,168.8L-103.7,169.8L-104.6,171.1L-104.9,172.8L-104.6,174.4L-103.7,175.8L-102.3,176.7L-100.7,177M-100.7,177L-38.3,177M-38.3,177L-36.7,176.7L-35.3,175.8L-34.4,174.4L-34,172.8L-34.4,171.1L-35.3,169.8L-36.7,168.8L-38.3,168.5M-38.3,168.5L-100.7,168.5M494.6,168.5L493,168.8L491.6,169.8L490.7,171.1L490.4,172.8L490.7,174.4L491.6,175.8L493,176.7L494.6,177M494.6,177L557,177M557,177L558.6,176.7L560,175.8L560.9,174.4L561.2,172.8L560.9,171.1L560,169.8L558.6,168.8L557,168.5M557,168.5L494.6,168.5M593.8,168.5L592.2,168.8L590.8,169.8L589.9,171.1L589.6,172.8L589.9,174.4L590.8,175.8L592.2,176.7L593.8,177M593.8,177L656.2,177M656.2,177L657.8,176.7L659.2,175.8L660.1,174.4L660.4,172.8L660.1,171.1L659.2,169.8L657.8,168.8L656.2,168.5M656.2,168.5L593.8,168.5M693,168.5L691.4,168.8L690,169.8L689.1,171.1L688.8,172.8L689.1,174.4L690,175.8L691.4,176.7L693,177M693,177L755.4,177M755.4,177L757,176.7L758.4,175.8L759.3,174.4L759.7,172.8L759.3,171.1L758.4,169.8L757,168.8L755.4,168.5M755.4,168.5L693,168.5M197,168.5L195.3,168.8L194,169.8L193,171.1L192.7,172.8L193,174.4L194,175.8L195.3,176.7L197,177M197,177L259.3,177M259.3,177L261,176.7L262.3,175.8L263.3,174.4L263.6,172.8L263.3,171.1L262.3,169.8L261,168.8L259.3,168.5M259.3,168.5L197,168.5M-1.5,168.5L-3.1,168.8L-4.5,169.8L-5.4,171.1L-5.7,172.8L-5.4,174.4L-4.5,175.8L-3.1,176.7L-1.5,177M-1.5,177L60.9,177M60.9,177L62.5,176.7L63.9,175.8L64.8,174.4L65.2,172.8L64.8,171.1L63.9,169.8L62.5,168.8L60.9,168.5M60.9,168.5L-1.5,168.5M97.8,168.5L96.1,168.8L94.8,169.8L93.8,171.1L93.5,172.8L93.8,174.4L94.8,175.8L96.1,176.7L97.8,177M97.8,177L160.1,177M160.1,177L161.8,176.7L163.1,175.8L164.1,174.4L164.4,172.8L164.1,171.1L163.1,169.8L161.8,168.8L160.1,168.5M160.1,168.5L97.8,168.5M395.4,219.5L393.8,219.9L392.4,220.8L391.5,222.2L391.1,223.8L391.5,225.4L392.4,226.8L393.8,227.7L395.4,228M395.4,228L457.8,228M457.8,228L459.4,227.7L460.8,226.8L461.7,225.4L462,223.8L461.7,222.2L460.8,220.8L459.4,219.9L457.8,219.5M457.8,219.5L395.4,219.5M-100.7,219.5L-102.3,219.9L-103.7,220.8L-104.6,222.2L-104.9,223.8L-104.6,225.4L-103.7,226.8L-102.3,227.7L-100.7,228M-100.7,228L-38.3,228M-38.3,228L-36.7,227.7L-35.3,226.8L-34.4,225.4L-34,223.8L-34.4,222.2L-35.3,220.8L-36.7,219.9L-38.3,219.5M-38.3,219.5L-100.7,219.5M494.6,219.5L493,219.9L491.6,220.8L490.7,222.2L490.4,223.8L490.7,225.4L491.6,226.8L493,227.7L494.6,228M494.6,228L557,228M557,228L558.6,227.7L560,226.8L560.9,225.4L561.2,223.8L560.9,222.2L560,220.8L558.6,219.9L557,219.5M557,219.5L494.6,219.5M593.8,219.5L592.2,219.9L590.8,220.8L589.9,222.2L589.6,223.8L589.9,225.4L590.8,226.8L592.2,227.7L593.8,228M593.8,228L656.2,228M656.2,228L657.8,227.7L659.2,226.8L660.1,225.4L660.4,223.8L660.1,222.2L659.2,220.8L657.8,219.9L656.2,219.5M656.2,219.5L593.8,219.5M693,219.5L691.4,219.9L690,220.8L689.1,222.2L688.8,223.8L689.1,225.4L690,226.8L691.4,227.7L693,228M693,228L755.4,228M755.4,228L757,227.7L758.4,226.8L759.3,225.4L759.7,223.8L759.3,222.2L758.4,220.8L757,219.9L755.4,219.5M755.4,219.5L693,219.5M197,219.5L195.3,219.9L194,220.8L193,222.2L192.7,223.8L193,225.4L194,226.8L195.3,227.7L197,228M197,228L259.3,228M259.3,228L261,227.7L262.3,226.8L263.3,225.4L263.6,223.8L263.3,222.2L262.3,220.8L261,219.9L259.3,219.5M259.3,219.5L197,219.5M-1.5,219.5L-3.1,219.9L-4.5,220.8L-5.4,222.2L-5.7,223.8L-5.4,225.4L-4.5,226.8L-3.1,227.7L-1.5,228M-1.5,228L60.9,228M60.9,228L62.5,227.7L63.9,226.8L64.8,225.4L65.2,223.8L64.8,222.2L63.9,220.8L62.5,219.9L60.9,219.5M60.9,219.5L-1.5,219.5M97.8,219.5L96.1,219.9L94.8,220.8L93.8,222.2L93.5,223.8L93.8,225.4L94.8,226.8L96.1,227.7L97.8,228M97.8,228L160.1,228M160.1,228L161.8,227.7L163.1,226.8L164.1,225.4L164.4,223.8L164.1,222.2L163.1,220.8L161.8,219.9L160.1,219.5M160.1,219.5L97.8,219.5M395.4,202.5L393.8,202.9L392.4,203.8L391.5,205.2L391.1,206.8L391.5,208.4L392.4,209.8L393.8,210.7L395.4,211M395.4,211L457.8,211M457.8,211L459.4,210.7L460.8,209.8L461.7,208.4L462,206.8L461.7,205.2L460.8,203.8L459.4,202.9L457.8,202.5M457.8,202.5L395.4,202.5M-100.7,202.5L-102.3,202.9L-103.7,203.8L-104.6,205.2L-104.9,206.8L-104.6,208.4L-103.7,209.8L-102.3,210.7L-100.7,211M-100.7,211L-38.3,211M-38.3,211L-36.7,210.7L-35.3,209.8L-34.4,208.4L-34,206.8L-34.4,205.2L-35.3,203.8L-36.7,202.9L-38.3,202.5M-38.3,202.5L-100.7,202.5M494.6,202.5L493,202.9L491.6,203.8L490.7,205.2L490.4,206.8L490.7,208.4L491.6,209.8L493,210.7L494.6,211M494.6,211L557,211M557,211L558.6,210.7L560,209.8L560.9,208.4L561.2,206.8L560.9,205.2L560,203.8L558.6,202.9L557,202.5M557,202.5L494.6,202.5M593.8,202.5L592.2,202.9L590.8,203.8L589.9,205.2L589.6,206.8L589.9,208.4L590.8,209.8L592.2,210.7L593.8,211M593.8,211L656.2,211M656.2,211L657.8,210.7L659.2,209.8L660.1,208.4L660.4,206.8L660.1,205.2L659.2,203.8L657.8,202.9L656.2,202.5M656.2,202.5L593.8,202.5M693,202.5L691.4,202.9L690,203.8L689.1,205.2L688.8,206.8L689.1,208.4L690,209.8L691.4,210.7L693,211M693,211L755.4,211M755.4,211L757,210.7L758.4,209.8L759.3,208.4L759.7,206.8L759.3,205.2L758.4,203.8L757,202.9L755.4,202.5M755.4,202.5L693,202.5M197,202.5L195.3,202.9L194,203.8L193,205.2L192.7,206.8L193,208.4L194,209.8L195.3,210.7L197,211M197,211L259.3,211M259.3,211L261,210.7L262.3,209.8L263.3,208.4L263.6,206.8L263.3,205.2L262.3,203.8L261,202.9L259.3,202.5M259.3,202.5L197,202.5M-1.5,202.5L-3.1,202.9L-4.5,203.8L-5.4,205.2L-5.7,206.8L-5.4,208.4L-4.5,209.8L-3.1,210.7L-1.5,211M-1.5,211L60.9,211M60.9,211L62.5,210.7L63.9,209.8L64.8,208.4L65.2,206.8L64.8,205.2L63.9,203.8L62.5,202.9L60.9,202.5M60.9,202.5L-1.5,202.5M97.8,202.5L96.1,202.9L94.8,203.8L93.8,205.2L93.5,206.8L93.8,208.4L94.8,209.8L96.1,210.7L97.8,211M97.8,211L160.1,211M160.1,211L161.8,210.7L163.1,209.8L164.1,208.4L164.4,206.8L164.1,205.2L163.1,203.8L161.8,202.9L160.1,202.5M160.1,202.5L97.8,202.5M-164.2,1.9L-168.7,1.9M819,1.9L823.4,1.9M819,309.7L819,318.8M819,318.8L-164.2,318.8M-164.2,318.8L-164.2,309.7M817.9,-1.2L818.8,0.1L819.2,1.9M814.4,-7.1L817.8,-6.4L820.8,-4.5L822.7,-1.5L823.4,1.9M-168.7,1.9L-168,-1.5L-166,-4.5L-163.1,-6.4L-159.6,-7.1M-164.4,1.9L-164.1,0.1L-163.2,-1.3M-164.4,309.7L-164.4,313.1M-168.7,313.1L-164.4,313.1M-168.7,313.1L-168.7,309.7M-164.4,313.1L-164.4,318.8M-164.4,318.8L-168.7,318.8M-168.7,318.8L-168.7,313.1M823.4,313.1L823.4,309.7M819.2,313.1L823.4,313.1M819.2,309.7L819.2,313.1M823.4,318.8L819.2,318.8M823.4,313.1L823.4,318.8M819.2,318.8L819.2,313.1M-168.7,323.9L-164.2,323.9M-168.7,318.8L-168.7,323.9M823.4,318.8L823.4,323.9M823.4,323.9L819,323.9M-164.2,332.9L-164.2,323.9M819,323.9L819,332.9M819.2,327.3L823.4,327.3M819.2,323.9L819.2,327.3M823.4,327.3L823.4,323.9M819.2,332.9L819.2,327.3M823.4,327.3L823.4,332.9M-168.7,327.3L-164.4,327.3M-168.7,332.9L-168.7,327.3M-164.4,327.3L-164.4,332.9M-168.7,327.3L-168.7,323.9M-164.4,323.9L-164.4,327.3M-273.6,339.3L-273.9,339.3L-274.1,339.4L-274.4,339.5L-274.8,339.9L-274.9,340.1L-275,340.4L-275,340.7M-270.3,339.3L-273.6,339.3M925.1,339.3L-270.3,339.3M929.7,340.7L929.7,340.4L929.6,340.1L929.5,339.9L929.1,339.5L928.9,339.4L928.6,339.3L928.3,339.3M929.7,340.7L929.7,493.9M928.3,495.3L928.6,495.3L928.9,495.2L929.1,495.1L929.5,494.7L929.6,494.5L929.7,494.2L929.7,493.9M928.3,495.3L925.1,495.3M-270.3,495.3L925.1,495.3M-273.6,495.3L-270.3,495.3M-275,493.9L-275,494.2L-274.9,494.5L-274.8,494.7L-274.4,495.1L-274.1,495.2L-273.9,495.3L-273.6,495.3M-275,340.7L-275,493.9M582.5,445.6L710,445.6M710,445.6L710,389M710,389L582.5,389M582.5,389L582.5,445.6M20,407.8L19.9,407.1L19.5,406.5L18.9,406.1L18.2,406L17.5,406.1L16.9,406.5L16.5,407.1L16.3,407.8L16.5,408.5L16.9,409.1L17.5,409.5L18.2,409.6L18.9,409.5L19.5,409.1L19.9,408.5L20,407.8M925.1,339.3L928.3,339.3M-270.3,339.3L-270,337.1L-269.6,335.3L-269.2,333.8L-268.9,333.1L-268.7,332.9M-268.7,332.9L923.4,332.9M923.4,332.9L923.8,333.3L924.1,334.3L924.5,336L924.9,338L925.1,339.3M925.1,495.3L924.3,496.6L922.9,498.8L922.1,499.8M922.1,499.8L-267.3,499.8M-267.3,499.8L-268.1,498.9L-268.8,497.8L-269.6,496.6L-270.3,495.3M-267.3,499.8L-267.7,499.9L-268,500L-268.3,500.2L-268.5,500.4L-268.6,500.6L-268.6,500.9L-268.5,501.2L-268.4,501.4M923.1,501.4L923.3,501.2L923.3,500.6L923.2,500.4L922.8,500L922.4,499.9L922.1,499.8M873.9,550.6L923.1,501.4M872.7,551L873.2,551L873.4,550.9L873.5,550.9L873.6,550.8L873.8,550.7L873.9,550.6M870.9,551L872.7,551M870.9,551L-216.1,551M-218,551L-216.1,551M-219.1,550.6L-218.8,550.9L-218.6,550.9L-218.5,551L-218,551M-268.4,501.4L-219.1,550.6M928.3,495.3L929.7,495.3M929.7,339.3L929.7,340.7M929.7,493.9L929.7,495.3M928.3,339.3L929.7,339.3M-273.6,495.3L-275,495.3M-275,339.3L-275,340.7M-275,493.9L-275,495.3M-273.6,339.3L-275,339.3M925.5,339.3L925.3,338.5L924.9,337.8L924.8,337.8M929.7,339.3L929.2,336.8L927.9,334.8L925.8,333.4L923.4,332.9M-268.7,332.9L-271.1,333.4L-273.1,334.8L-274.5,336.8L-275,339.3M-270.1,337.8L-270.6,338.5L-270.7,339.3M927.9,499.8L924.9,496.8M927.9,499.8L928.7,498.9L929.2,497.8L929.6,496.6L929.7,495.3M924.9,496.8L925.2,496.4L925.4,496L925.5,495.3M-273.1,499.8L-270.1,496.8M-270.7,495.3L-270.7,495.8L-270.5,496.3L-270.1,496.8M-275,495.3L-274.9,496.6L-274.5,497.7L-273.9,498.8L-273.1,499.8M-270.1,496.8L-270.1,496.9L-269.9,497L-269.8,497.2L-269.5,497.4L-269,497.9L-268.8,498.2L-268.6,498.3M-271.6,501.4L-271.8,501.2L-272,500.9L-272.3,500.6L-272.6,500.4L-273.1,499.9L-273.1,499.8M923.3,498.3L923.5,498.2L923.8,497.9L924,497.6L924.3,497.4L924.9,496.8M927.9,499.8L927.3,500.4L927,500.6L926.8,500.9L926.3,501.4M-271.6,501.4L-222.3,550.6M877.1,550.6L926.3,501.4M870.9,551L870.9,552.9M-216.1,552.9L870.9,552.9M-216.1,552.9L-216.1,551M-220.3,549.4L-221.9,551M-221.9,551L-222,551L-222,550.9L-222.1,550.9L-222.2,550.8L-222.2,550.7L-222.3,550.6M876.7,551L875.1,549.4M877.1,550.6L876.7,551M-216.3,551L-216.3,552.9M-216.1,552.9L-216.3,552.9M-217.4,552.9L-216.3,552.9M871.1,551L871.1,552.9M871.1,552.9L870.9,552.9M-221.9,551L-221.5,551.5L-221,551.8L-220.4,552.1L-219.9,552.4L-218.7,552.8L-218.1,552.9L-217.4,552.9M871.1,552.9L872.2,552.9M872.2,552.9L872.8,552.9L873.4,552.8L874.6,552.4L875.2,552.1L876.2,551.5L876.7,551M-72.2,426.6L-72.2,427.7M126.1,240.4L104.8,240.4M164.4,240.4L126.1,240.4M165.6,323.9L167.2,323.9M104.8,323.9L165.6,323.9M162.1,329.3L163.5,329.3M108.6,329.3L162.1,329.3M153.4,332.6L154.4,332.6M117.7,332.6L153.4,332.6M159.2,227.1L112.9,227.1M118.7,223.8L153.4,223.8M127.5,219.6L144.5,219.6M130.4,210.3L141.7,210.3M134.3,206.6L137.7,206.6M134.3,204L137.7,204M-1.4,240.4L-5.7,240.4M39.7,240.4L-1.4,240.4M38,323.9L39.7,323.9M-22.7,323.9L38,323.9M34.5,329.3L35.9,329.3M-19,329.3L34.5,329.3M25.9,332.6L26.8,332.6M-9.9,332.6L25.9,332.6M31.6,227.1L-4.2,227.1M-5.7,223.8L25.8,223.8M0,219.6L17,219.6M2.8,210.3L14.1,210.3M6.8,206.6L10.2,206.6M6.8,204L10.2,204M548.3,323.9L549.9,323.9M487.5,323.9L548.3,323.9M508.8,240.4L490.4,240.4M549.9,240.4L508.8,240.4M544.7,329.3L546.2,329.3M491.3,329.3L544.7,329.3M536.1,332.6L537,332.6M500.4,332.6L536.1,332.6M541.8,227.1L495.6,227.1M501.4,223.8L536,223.8M510.2,219.6L527.2,219.6M513,210.3L524.4,210.3M517,206.6L520.4,206.6M517,204L520.4,204M675.8,323.9L677.4,323.9M615.1,323.9L675.8,323.9M672.3,329.3L673.7,329.3M618.8,329.3L672.3,329.3M636.4,240.4L615.1,240.4M660.4,240.4L636.4,240.4M663.7,332.6L664.6,332.6M627.9,332.6L663.7,332.6M658.9,227.1L623.1,227.1M628.9,223.8L660.4,223.8M637.8,219.6L654.8,219.6M640.6,210.3L651.9,210.3M644.6,206.6L648,206.6M644.6,204L648,204M293.2,323.9L294.8,323.9M232.4,323.9L293.2,323.9M253.7,240.4L232.4,240.4M294.8,240.4L292,240.4M263.6,240.4L253.7,240.4M289.6,329.3L291,329.3M236.1,329.3L289.6,329.3M281,332.6L281.9,332.6M245.3,332.6L281,332.6M262,227.1L240.5,227.1M246.3,223.8L263.6,223.8M255.1,219.6L260.2,219.6M257.9,210.3L261.8,210.3M261.9,206.6L263.6,206.6M261.9,204L262.6,204M362.8,240.4L360,240.4M422.3,240.4L391.2,240.4M420.7,323.9L422.3,323.9M360,323.9L420.7,323.9M417.2,329.3L418.6,329.3M363.7,329.3L417.2,329.3M408.5,332.6L409.5,332.6M372.8,332.6L408.5,332.6M414.3,227.1L392.7,227.1M391.1,223.8L408.5,223.8M394.6,219.6L399.7,219.6M393,210.3L396.8,210.3M391.2,206.6L392.8,206.6M392.2,204L392.8,204M221.1,68.7L263,68.7M193.3,68.7L221.1,68.7M8.5,68.7L62.2,68.7M-45.3,68.7L-34.6,68.7M-5.1,68.7L8.5,68.7M646.3,68.7L659.9,68.7M689.4,68.7L700,68.7M592.5,68.7L646.3,68.7M433.7,68.7L461.4,68.7M391.7,68.7L433.7,68.7M-164.2,323.9L-40.4,323.9M57.4,323.9L104.8,323.9M167.2,323.9L172.2,323.9M294.8,323.9L360,323.9M482.6,323.9L487.5,323.9M549.9,323.9L597.4,323.9M695.2,323.9L819,323.9M-268.6,498.4L-271.6,501.4M926.3,501.4L924.3,499.4L923.4,498.4M-222.3,550.6L-220.7,549M875.5,549L877.1,550.6M-217.4,551L-217.4,552.9M872.2,551L872.2,552.9" style="fill:none;fill-rule:nonzero;stroke:black;stroke-width:0.71px;stroke-linecap:round;stroke-miterlimit:10;"/>
        </g>
    </g>
</svg>
