<?xml version="1.0" encoding="UTF-8" standalone="no"?><!DOCTYPE svg PUBLIC "-//W3C//DTD SVG 1.1//EN" "http://www.w3.org/Graphics/SVG/1.1/DTD/svg11.dtd"><svg width="100%" height="100%" viewBox="0 0 8000 4500" version="1.1" xmlns="http://www.w3.org/2000/svg" xmlns:xlink="http://www.w3.org/1999/xlink" xml:space="preserve" xmlns:serif="http://www.serif.com/" style="fill-rule:evenodd;clip-rule:evenodd;stroke-linejoin:round;stroke-miterlimit:2;"><path d="M8000,112.372c0,-62.02 -50.352,-112.372 -112.372,-112.372l-7775.26,0c-62.02,0 -112.372,50.352 -112.372,112.372l0,4275.26c0,62.02 50.352,112.372 112.372,112.372l7775.26,-0c62.02,-0 112.372,-50.352 112.372,-112.372l0,-4275.26Z" style="fill:#fafafa;"/><g><g><g><g><path d="M5741.44,1002.5l31.537,-63.071l31.534,63.071l-63.071,0Z" style="stroke:#000;stroke-width:8.33px;"/><path d="M5772.97,1148.12l0,-158.238" style="fill:none;stroke:#000;stroke-width:8.33px;stroke-linecap:round;stroke-miterlimit:1.5;"/></g></g><g><g><path d="M2195.52,1002.5l31.537,-63.071l31.538,63.071l-63.075,0Z" style="stroke:#000;stroke-width:8.33px;"/><path d="M2227.05,1148.12l0,-158.238" style="fill:none;stroke:#000;stroke-width:8.33px;stroke-linecap:round;stroke-miterlimit:1.5;"/></g></g></g><g><path d="M5462.06,3890.86l0,-103.497m-376.172,0l-0,103.497m-0,0l9.62,9.62m357.264,0l9.288,-9.62m-353.615,9.62l-0,13.932m331.058,0l0,-13.932m-2901.57,-9.62l9.288,9.62m357.264,0l9.288,-9.62m0,0l0,-103.497m-375.84,0l-0,103.497m22.557,9.62l-0,13.932m330.726,0l0,-13.932m-868.115,-294.9l-0,9.288m3953.79,-0l0,-9.288m-712.206,-357.265l-413.657,0m413.657,178.798l-0,-178.798m-413.657,178.798l413.657,0m-413.657,-178.798l-0,178.798m-1694.1,-69.993l1.991,-1.99m-0,-0l1.658,-1.991m0,0l0.995,-2.322m0,0l0.664,-2.653m-0,-0l0.332,-2.654m-0,-0l-0.664,-2.322m0,-0l-1.658,-2.654m-0,-0l-2.322,-1.99m-0,-0l-2.654,-1.327m-0,-0l-2.986,-0.664m0,0l-2.653,0.332m-0,0l-2.654,1.327m-0,-0l-1.659,1.659m0,-0l-0.663,2.985m-0,0l0.331,3.317m0,0l0,1.659m0,-0l-0.331,1.658m-0,0l-1.991,2.654m0,0l-2.985,1.659m-0,-0l-3.317,0.332m-0,-0l-0,0.331m-0,0l1.99,1.659m-0,-0l1.99,1.659m0,-0l4.644,1.99m0,-0l2.322,0.332m0,-0l2.654,-0m0,-0l2.322,-0.664m0,0l2.654,-0.995m0,-0l1.99,-1.327m-205.667,-68.998l1.99,-3.981m0,0l0.664,-2.322m-0,0l-0,-1.99m-0,-0l-0.332,-1.99m0,-0l-1.327,-1.991m0,0l-0.995,-0.663m-0,-0l-0.995,-0m-0,-0l-2.986,0.995m0,-0l-3.317,2.322m0,0l-3.317,3.317m-0,0l-6.303,7.298m0,0l-3.981,4.644m0,0l-3.317,4.313m0,-0l-2.654,4.644m0,-0l-4.312,9.62m0,-0l15.591,-10.284m0,0l6.966,-4.976m0,0l3.317,-2.653m0,-0l2.986,-2.986m-0,0l2.322,-3.317m-118.756,51.417l-0.664,-2.654m0,0l-1.327,-1.99m0,-0l-1.658,-0.995m-0,-0l-2.322,-0m-0,-0l-1.991,0.995m0,-0l-1.658,2.322m-0,-0l-1.327,2.654m-0,-0l-0.332,2.985m0,0l0.664,2.654m-0,-0l0.995,1.99m-0,0l1.99,0.995m-0,0l2.322,0m0,0l1.99,-0.995m0,0l1.659,-1.99m-0,-0l1.327,-2.986m-0,0l0.332,-2.985m-173.823,0.995l5.308,-2.654m-0,0l2.985,-2.985m0,-0l0.664,-1.327m-0,-0l-0,-1.327m-0,-0l-0.332,-0.995m0,-0l-1.327,-0.995m0,-0l-4.312,-0.996m-0,0l-5.639,0.332m-0,0l-6.635,0.995m0,0l-6.634,1.991m-0,-0l-4.976,2.653m-0,0l-2.986,2.986m0,-0l-0.663,1.327m0,-0l-0.332,1.327m0,-0l0.664,0.995m-0,-0l1.327,0.995m-0,0l3.98,0.995m0,0l5.971,0m0,0l6.635,-1.327m-0,0l6.302,-1.99m597.431,2.985l-1.658,1.659m3.98,-1.99l-2.322,0.331m4.644,0.332l-2.322,-0.663m4.644,1.99l-2.322,-1.327m3.981,3.317l-1.659,-1.99m2.654,4.312l-0.995,-2.322m0.995,4.645l0,-2.323m-0.995,4.976l0.995,-2.653m-5.639,7.629l4.644,-4.976m-9.62,9.952l4.976,-4.976m-10.947,9.288l5.971,-4.312m-12.274,7.961l6.303,-3.649m-12.937,6.303l6.634,-2.654m-13.6,4.313l6.966,-1.659m-13.932,2.322l6.966,-0.663m-13.933,-0l6.967,0.663m-18.577,-5.307l5.639,2.985m-10.283,-6.966l4.644,3.981m-8.293,-8.957l3.649,4.976m-4.976,-8.293l1.327,3.317m-3.317,-6.634l1.99,3.317m-3.317,-4.313l1.327,0.996m-2.654,-1.327l1.327,0.331m-2.986,0l1.659,-0.331m-3.317,1.99l1.658,-1.659m-3.98,4.645l2.322,-2.986m-3.981,5.971l1.659,-2.985m-3.649,10.283l1.99,-7.298m-2.322,8.625l0.332,-1.327m-1.659,2.322l1.327,-0.995m-2.654,1.658l1.327,-0.663m-2.985,0.663l1.658,0m-3.98,-0.663l2.322,0.663m-4.644,-1.326l2.322,0.663m-3.649,-2.322l1.327,1.659m-2.322,-3.649l0.995,1.99m-0.995,-3.981l-0,1.991m0.663,-7.298l-0.663,5.307m-1.327,-2.654l1.99,-2.653m-4.644,4.976l2.654,-2.323m-5.64,3.981l2.986,-1.658m-6.303,2.985l3.317,-1.327m-9.951,2.986l6.634,-1.659m-12.937,1.99l6.303,-0.331m-10.284,0.331l3.981,0m-7.298,-0.995l3.317,0.995m-6.634,-1.99l3.317,0.995m-6.634,-2.654l3.317,1.659m-5.971,-3.649l2.654,1.99m-5.308,-4.644l2.654,2.654m-4.644,-5.307l1.99,2.653m-3.98,-5.971l1.99,3.318m-3.649,-9.289l1.659,5.971m-3.318,-13.269l1.659,7.298m-3.649,-13.932l1.99,6.634m-3.649,-9.288l1.659,2.654m-3.649,-4.644l1.99,1.99m-6.634,-4.312l4.644,2.322m-9.952,-3.317l5.308,0.995m-15.591,-1.99l10.283,0.995m-20.235,-1.327l9.952,0.332m-19.903,-0.664l9.951,0.332m-29.191,-0.332l19.24,0m-38.48,0.664l19.24,-0.664m-46.109,57.72l1.99,-1.327m-4.312,1.658l2.322,-0.331m-4.644,-0l2.322,0.331m-3.649,-0.995l1.327,0.664m-3.318,-1.991l1.991,1.327m-3.318,-3.317l1.327,1.99m-1.658,-4.312l0.331,2.322m0,-4.644l-0.331,2.322m16.586,-39.807l-16.255,37.485m-0.663,-25.543l16.918,-11.942m-21.23,14.596l4.312,-2.654m-8.625,4.976l4.313,-2.322m-9.289,3.981l4.976,-1.659m-9.62,2.654l4.644,-0.995m-9.951,0.995l5.307,-0m-10.615,-0.995l5.308,0.995m-9.62,-3.317l4.312,2.322m-8.293,-5.971l3.981,3.649m-5.971,-6.966l1.99,3.317m-3.649,-7.298l1.659,3.981m-2.986,-2.322l1.327,-1.659m-6.966,6.634l5.639,-4.975m-11.942,8.956l6.303,-3.981m-12.274,7.298l5.971,-3.317m-12.605,5.308l6.634,-1.991m-10.283,2.322l3.649,-0.331m-6.966,0.331l3.317,0m-6.634,-0.995l3.317,0.995m-6.635,-2.322l3.318,1.327m-8.625,-5.307l5.307,3.98m-9.288,-8.625l3.981,4.645m-7.298,-10.284l3.317,5.639m-5.307,-11.942l1.99,6.303m-2.322,-11.61l0.332,5.307m-0,-10.283l-0.332,4.976m-8.293,2.654l8.625,-7.63m-17.913,15.259l9.288,-7.629m-19.24,14.595l9.952,-6.966m-14.928,9.952l4.976,-2.986m-10.283,5.64l5.307,-2.654m-12.274,4.976l6.967,-2.322m-14.596,3.98l7.629,-1.658m-11.61,1.99l3.981,-0.332m-7.63,0.332l3.649,0m-6.966,-0.995l3.317,0.995m-5.971,-2.654l2.654,1.659m-6.966,-0l4.312,-1.659m-9.288,1.991l4.976,-0.332m-9.62,-0.332l4.644,0.664m-9.62,-2.986l4.976,2.322m-7.298,-3.98l2.322,1.658m-4.312,-3.649l1.99,1.991m-3.649,-4.313l1.659,2.322m-2.654,-4.644l0.995,2.322m-4.644,-0.332l3.649,-1.99m-6.966,3.317l3.317,-1.327m-7.961,1.659l4.644,-0.332m-8.957,0.332l4.313,0m-8.625,-1.327l4.312,1.327m-8.293,-3.649l3.981,2.322m-7.298,-5.307l3.317,2.985m-5.971,-6.634l2.654,3.649m-4.976,-7.63l2.322,3.981m-4.976,-7.63l2.654,3.649m-4.644,-2.985l1.99,-0.664m-9.288,4.976l7.298,-4.312m-22.557,14.927l15.259,-10.615m-21.562,14.264l6.303,-3.649m-12.937,5.971l6.634,-2.322m-10.283,2.654l3.649,-0.332m-6.966,0.332l3.317,-0m-6.966,-0.332l3.649,0.332m-7.298,-1.659l3.649,1.327m-6.635,-3.317l2.986,1.99m-4.644,-3.981l1.658,1.991m-2.653,-4.976l0.995,2.985m-1.327,-5.639l0.332,2.654m-0,-9.288l-0.332,6.634m0.995,-12.605l-0.663,5.971m0.331,-11.279l0.332,5.308m-2.654,-3.317l2.322,-1.991m-11.278,11.279l8.956,-9.288m-17.249,18.908l8.293,-9.62m-17.581,21.893l9.288,-12.273m-18.245,24.879l8.957,-12.606m-32.509,66.345l4.312,-13.601m-12.937,40.47l8.625,-26.869m-9.288,27.864l0.663,-0.995m-2.322,1.327l1.659,-0.332m-6.303,0l4.644,0.332m-8.956,-1.99l4.312,1.658m-5.971,-2.653l1.659,0.995m26.537,-100.18l-28.528,97.526m24.548,-96.199l3.98,-1.327m-7.961,2.322l3.981,-0.995m-11.279,1.658l7.298,-0.663m-12.605,0.995l5.307,-0.332m-10.947,0l5.64,0.332m-10.947,-1.659l5.307,1.327m-10.283,-3.649l4.976,2.322m-7.63,-4.644l2.654,2.322m-4.976,-5.307l2.322,2.985m-3.981,-6.302l1.659,3.317m-1.99,-4.976l0.331,1.659m0,-3.649l-0.331,1.99m1.99,-5.639l-1.659,3.649m3.649,-6.967l-1.99,3.318m4.976,-6.303l-2.986,2.985m6.303,-5.639l-3.317,2.654m6.966,-4.644l-3.649,1.99m7.298,-3.649l-3.649,1.659m11.279,-3.981l-7.63,2.322m14.264,-3.317l-6.634,0.995m13.268,-0.995l-6.634,0m12.937,0.664l-6.303,-0.664m12.606,1.99l-6.303,-1.326m6.966,-0.996l-0.663,2.322m1.658,-3.317l-0.995,0.995m2.322,-0.995l-1.327,0m3.318,0.664l-1.991,-0.664m3.981,1.991l-1.99,-1.327m5.639,4.644l-3.649,-3.317m4.312,5.307l-0.663,-1.99m0.995,3.649l-0.332,-1.659m-0.995,5.639l1.327,-3.98m-3.317,11.61l1.99,-7.63m-8.625,29.524l6.635,-21.894m0.663,11.942l-7.298,9.952m14.928,-19.572l-7.63,9.62m16.255,-19.903l-8.625,10.283m13.269,-15.259l-4.644,4.976m9.951,-8.957l-5.307,3.981m8.625,-5.308l-3.318,1.327m6.967,-2.322l-3.649,0.995m7.629,-1.327l-3.98,0.332m7.961,0.332l-3.981,-0.664m7.63,1.659l-3.649,-0.995m6.966,2.985l-3.317,-1.99m5.639,4.976l-2.322,-2.986m3.317,6.635l-0.995,-3.649m1.327,7.629l-0.332,-3.98m0.332,7.629l-0,-3.649m-0.664,11.279l0.664,-7.63m-0.995,11.942l0.331,-4.312m6.635,0.663l-6.966,3.649m14.264,-8.624l-7.298,4.975m14.596,-9.951l-7.298,4.976m15.259,-9.62l-7.961,4.644m11.942,-6.303l-3.981,1.659m7.63,-2.654l-3.649,0.995m7.629,-1.659l-3.98,0.664m7.629,-0.664l-3.649,0m7.298,0.996l-3.649,-0.996m7.298,2.654l-3.649,-1.658m6.966,4.644l-3.317,-2.986m6.634,6.966l-3.317,-3.98m5.971,7.961l-2.654,-3.981m5.308,7.962l-2.654,-3.981m4.644,2.985l-1.99,0.996m6.966,-4.644l-4.976,3.648m8.957,-6.966l-3.981,3.318m7.962,-7.63l-3.981,4.312m8.625,-7.961l-4.644,3.649m6.966,-4.976l-2.322,1.327m4.644,-1.99l-2.322,0.663m7.298,-1.327l-4.976,0.664m9.951,-0.332l-4.975,-0.332m9.951,1.659l-4.976,-1.327m9.62,3.317l-4.644,-1.99m8.293,4.976l-3.649,-2.986m6.635,6.966l-2.986,-3.98m3.649,5.971l-0.663,-1.991m1.327,4.313l-0.664,-2.322m0.664,4.975l-0,-2.653m-0.664,4.976l0.664,-2.323m-0.664,3.318l0,-0.995m0.995,3.648l-0.995,-2.653m2.986,4.644l-1.991,-1.991m4.644,2.654l-2.653,-0.663m5.639,0.663l-2.986,0m5.971,-0.663l-2.985,0.663m6.303,-1.658l-3.318,0.995m9.289,-3.649l-5.971,2.654m10.946,-5.64l-4.975,2.986m9.951,-6.303l-4.976,3.317m14.265,-11.278l-9.289,7.961m18.577,-16.586l-9.288,8.625m17.912,-16.586l-8.624,7.961m11.942,-16.586l-3.318,8.625m7.298,-16.255l-3.98,7.63m8.624,-15.259l-4.644,7.629m10.284,-14.595l-5.64,6.966m12.938,-14.264l-7.298,7.298m10.947,-9.952l-3.649,2.654m7.629,-4.976l-3.98,2.322m8.293,-3.981l-4.313,1.659m8.957,-2.654l-4.644,0.995m9.288,-1.327l-4.644,0.332m9.951,0l-5.307,-0.332m8.956,1.327l-3.649,-0.995m7.298,2.654l-3.649,-1.659m6.635,3.981l-2.986,-2.322m3.981,3.649l-0.995,-1.327m1.327,3.317l-0.332,-1.99m0.663,4.312l-0.331,-2.322m-0,4.644l0.331,-2.322m-1.99,6.966l1.659,-4.644m-4.645,8.625l2.986,-3.981m-6.303,7.298l3.317,-3.317m-8.293,7.63l4.976,-4.313m-10.283,8.293l5.307,-3.98m-16.254,11.278l10.947,-7.298m-22.557,14.264l11.61,-6.966m-22.557,14.264l10.947,-7.298m-11.942,7.63l0.995,-0.332m-1.99,4.313l0.995,-3.981m-1.659,8.293l0.664,-4.312m-0.332,8.293l-0.332,-3.981m1.659,7.961l-1.327,-3.98m3.317,6.634l-1.99,-2.654m4.312,4.313l-2.322,-1.659m5.308,2.322l-2.986,-0.663m5.971,0.663l-2.985,0m6.302,-0.663l-3.317,0.663m6.635,-1.658l-3.318,0.995m8.625,-3.649l-5.307,2.654m10.283,-6.635l-4.976,3.981m9.62,-7.962l-4.644,3.981m13.269,-12.937l-8.625,8.956m11.61,-11.278l-2.985,2.322m5.971,-3.317l-2.986,0.995m5.971,-0.332l-2.985,-0.663m5.971,2.985l-2.986,-2.322m4.644,4.644l-1.658,-2.322m2.322,4.644l-0.664,-2.322m0.996,7.298l-0.332,-4.976m-1.327,9.952l1.659,-4.976m-2.322,7.63l0.663,-2.654m-0.663,4.312l-0,-1.658m1.326,2.654l-1.326,-0.996m2.985,1.327l-1.659,-0.331m5.971,0.331l-4.312,0m8.625,-1.327l-4.313,1.327m7.63,-2.322l-3.317,0.995m8.956,-3.649l-5.639,2.654m10.947,-5.971l-5.308,3.317m15.923,-10.615l-10.615,7.298m-0,-6.303l10.615,-0.995m-13.601,0.664l2.986,0.331m-4.976,-1.658l1.99,1.327m-3.98,-3.317l1.99,1.99m-2.985,-4.312l0.995,2.322m-0.995,-4.976l-0,2.654m0.331,-4.645l-0.331,1.991m1.99,-3.649l-1.659,1.658m4.313,-2.653l-2.654,0.995m20.235,-2.322l-17.581,1.327m34.83,-1.991l-17.249,0.664m25.874,-20.567l-8.625,19.903m10.616,-22.888l-1.991,2.985m4.976,-4.976l-2.985,1.991m6.634,-2.654l-3.649,0.663m7.298,0l-3.649,-0.663m4.976,1.99l-1.327,-1.327m2.322,2.654l-0.995,-1.327m1.327,2.986l-0.332,-1.659m-0,3.649l0.332,-1.99m-8.625,20.898l8.293,-18.908m17.913,18.245l-26.206,0.663m39.143,-0.332l-12.937,-0.331m25.874,0.995l-12.937,-0.664m24.216,1.659l-11.279,-0.995m17.25,1.658l-5.971,-0.663m11.278,1.659l-5.307,-0.996m10.615,2.986l-5.308,-1.99m9.62,4.975l-4.312,-2.985m7.961,6.966l-3.649,-3.981m4.976,6.635l-1.327,-2.654m2.654,5.639l-1.327,-2.985m2.654,9.62l-1.327,-6.635m2.985,1.991l-1.658,4.644m4.644,-8.957l-2.986,4.313m6.635,-7.298l-3.649,2.985m8.956,-4.976l-5.307,1.991m12.937,-3.317l-7.63,1.326m11.611,-0.995l-3.981,-0.331m7.961,0.663l-3.98,-0.332m7.298,1.659l-3.318,-1.327m6.966,2.985l-3.648,-1.658m6.302,4.312l-2.654,-2.654m5.308,5.971l-2.654,-3.317m2.986,3.649l-0.332,-0.332m0.995,-6.302l-0.663,6.634m1.327,-7.629l-0.664,0.995m1.659,-1.327l-0.995,0.332m2.322,0.663l-1.327,-0.995m2.985,2.654l-1.658,-1.659m4.644,5.639l-2.986,-3.98m3.649,5.971l-0.663,-1.991m0.995,3.649l-0.332,-1.658m-0.331,7.629l0.663,-5.971m2.654,4.976l-3.317,0.995m6.634,-1.327l-3.317,0.332m6.302,0l-2.985,-0.332m5.971,1.327l-2.986,-0.995m5.971,2.654l-2.985,-1.659m5.307,3.981l-2.322,-2.322m4.645,4.976l-2.323,-2.654m3.981,5.307l-1.658,-2.653m5.307,9.288l-3.649,-6.635m5.971,9.289l-2.322,-2.654m5.639,4.312l-3.317,-1.658m9.62,2.322l-6.303,-0.664m12.937,0l-6.634,0.664m14.928,-3.318l-8.294,2.654m15.923,-6.966l-7.629,4.312m14.264,-9.619l-6.635,5.307m12.606,-11.942l-5.971,6.635m-74.97,4.644l1.991,-0.332l1.99,-1.327l0.995,-1.659l0.664,-2.322l-0.664,-1.99l-0.995,-1.99l-1.99,-0.995l-1.991,-0.664l-2.322,0.664l-1.658,0.995l-1.327,1.99l-0.332,1.99l0.332,2.322l1.327,1.659l1.658,1.327l2.322,0.332m-153.918,-22.557l1.99,-0.332l1.99,-1.327l0.995,-1.659l0.664,-2.322l-0.664,-1.99l-0.995,-1.99l-1.99,-1.327l-1.99,-0.332l-2.322,0.332l-1.659,1.327l-1.327,1.99l-0.332,1.99l0.332,2.322l1.327,1.659l1.659,1.327l2.322,0.332m-350.298,42.128l1.99,-0.663l1.99,-0.995l1.327,-1.991l0.332,-1.99l-0.332,-2.322l-1.327,-1.659l-1.99,-1.327l-1.99,-0.331l-2.323,0.331l-1.658,1.327l-1.327,1.659l-0.332,2.322l0.332,1.99l1.327,1.991l1.658,0.995l2.323,0.663m-34.168,72.979l0,0.332m374.514,-65.681l1.327,-1.991m-344.327,17.25l6.302,-13.932m-11.61,26.869l5.308,-12.937m542.696,-23.884l5.971,1.659m-580.181,72.647l0.332,1.327m375.509,-68.999l23.552,-53.738m-361.577,57.056l7.63,-13.269m2736.04,519.144l45.446,0m-376.172,0l330.726,0m-6.966,9.62l-314.14,0m357.264,0l-43.124,0m29.855,13.932l-331.058,0m-2240.12,-23.552l45.445,0m-375.84,0l330.395,0m-6.967,9.62l-314.14,0m357.264,0l-43.124,0m29.855,13.932l-330.726,0m1439.34,-430.906l22.225,-1.659l21.894,-5.307l20.567,-8.293l19.24,-11.279l17.249,-14.264l14.928,-16.586l11.942,-18.908l9.288,-20.235l5.971,-21.562l2.322,-22.225l-0.663,-22.226l-4.313,-21.893l-7.629,-20.899l-10.616,-19.571l-13.6,-17.913l-15.923,-15.591l-18.244,-12.606l-19.904,-9.951l-21.23,-6.635l-22.225,-3.649l-22.226,0l-22.225,3.649l-21.23,6.635l-19.904,9.951l-18.244,12.606l-16.255,15.591l-13.268,17.913l-10.947,19.571l-7.298,20.899l-4.313,21.893l-0.995,22.226l2.654,22.225l5.971,21.562l8.957,20.235l12.273,18.908l14.928,16.586l17.249,14.264l18.908,11.279l20.899,8.293l21.562,5.307l22.225,1.659m0,9.288l-22.557,-1.658l-21.894,-4.976l-21.23,-7.962l-19.903,-10.946l-17.913,-13.933l-15.591,-16.254l-13.269,-18.576l-10.283,-20.235l-7.298,-21.231l-3.981,-22.225l-0.995,-22.889l2.322,-22.557l5.971,-21.893l8.625,-20.567l11.942,-19.572l14.596,-17.249l16.917,-15.26l18.909,-12.273l20.235,-9.62l21.893,-6.635l22.226,-3.317l22.888,0l22.226,3.317l21.562,6.635l20.566,9.62l18.909,12.273l16.917,15.26l14.596,17.249l11.61,19.572l8.957,20.567l5.639,21.893l2.654,22.557l-0.995,22.889l-3.981,22.225l-7.298,21.231l-10.283,20.235l-13.269,18.576l-15.591,16.254l-18.245,13.933l-19.571,10.946l-21.23,7.962l-21.894,4.976l-22.889,1.658m0,32.841l25.211,-1.659l24.547,-4.976l23.884,-8.293l22.226,-11.278l20.898,-14.264l18.577,-16.586l16.254,-19.24l13.601,-21.231l10.283,-22.888l7.629,-23.884l3.981,-24.879l0.995,-25.211l-2.653,-24.879l-5.64,-24.548l-8.956,-23.22l-12.274,-22.226l-14.927,-20.235l-17.25,-17.913l-19.903,-15.591l-21.562,-12.937l-23.221,-9.62l-24.215,-6.634l-24.879,-3.317l-24.88,-0l-25.21,3.317l-24.216,6.634l-22.889,9.62l-21.562,12.937l-19.903,15.591l-17.581,17.913l-14.596,20.235l-12.274,22.226l-8.956,23.22l-5.971,24.548l-2.322,24.879l0.663,25.211l4.313,24.879l7.297,23.884l10.615,22.888l13.601,21.231l16.254,19.24l18.577,16.586l20.567,14.264l22.557,11.278l23.884,8.293l24.547,4.976l24.879,1.659m-1645.34,-1596.25l-0,30.187m3291.01,-30.187l-30.186,0m-3230.97,0l-29.855,0m3291.01,0l0,30.187m-2472.99,1396.88l-3.98,-8.293m2030.47,-104.493l-0,4.644m-0,178.798l-0,4.644m-131.694,0l0,-4.644m0,-178.798l0,-4.644m0,0l0,4.644m0,178.798l0,4.644m-131.693,0l-0,-4.644m-0,-178.798l-0,-4.644m-0,0l-0,4.644m-0,178.798l-0,4.644m263.387,0l-0,-4.644m-0,-178.798l-0,-4.644m-2526.39,122.074l-0,8.956m-318.121,-1737.89l14.595,0m-14.595,-1021.37l-0,1021.37m14.595,-1021.37l-14.595,0m14.595,0l3261.82,0m-0,0l14.595,0m0,0l0,1021.37m0,0l-14.595,0m-3261.82,0l3261.82,0m-1734.24,-524.783l-5.64,0.995l-4.312,3.317l-3.317,4.313l-0.995,5.639l0.995,5.307l3.317,4.645l4.312,2.985l5.64,0.995m-0,0l206.662,0m0,0l5.308,-0.995l4.644,-2.985l3.317,-4.645l0.995,-5.307l-0.995,-5.639l-3.317,-4.313l-4.644,-3.317l-5.308,-0.995m0,-0l-206.662,-0m-0,-56.393l-5.64,0.995l-4.312,3.318l-3.317,4.312l-0.995,5.639l0.995,5.308l3.317,4.644l4.312,2.985l5.64,0.995m-0,0l206.662,0m0,0l5.308,-0.995l4.644,-2.985l3.317,-4.644l0.995,-5.308l-0.995,-5.639l-3.317,-4.312l-4.644,-3.318l-5.308,-0.995m0,0l-206.662,0m-0,395.081l-5.64,0.995l-4.312,2.985l-3.317,4.644l-0.995,5.308l0.995,5.308l3.317,4.644l4.312,2.985l5.64,1.327m-0,-0l206.662,-0m0,-0l5.308,-1.327l4.644,-2.985l3.317,-4.644l0.995,-5.308l-0.995,-5.308l-3.317,-4.644l-4.644,-2.985l-5.308,-0.995m0,-0l-206.662,-0m-0,-56.393l-5.64,0.995l-4.312,2.986l-3.317,4.644l-0.995,5.307l0.995,5.308l3.317,4.644l4.312,2.985l5.64,1.327m-0,0l206.662,0m0,0l5.308,-1.327l4.644,-2.985l3.317,-4.644l0.995,-5.308l-0.995,-5.307l-3.317,-4.644l-4.644,-2.986l-5.308,-0.995m0,-0l-206.662,-0m-0,112.785l-5.64,0.995l-4.312,2.986l-3.317,4.644l-0.995,5.308l0.995,5.307l3.317,4.644l4.312,2.986l5.64,1.327m-0,-0l206.662,-0m0,-0l5.308,-1.327l4.644,-2.986l3.317,-4.644l0.995,-5.307l-0.995,-5.308l-3.317,-4.644l-4.644,-2.986l-5.308,-0.995m0,0l-206.662,0m-0,-282.295l-5.64,1.327l-4.312,2.986l-3.317,4.644l-0.995,5.307l0.995,5.308l3.317,4.644l4.312,2.985l5.64,0.996m-0,-0l206.662,-0m0,-0l5.308,-0.996l4.644,-2.985l3.317,-4.644l0.995,-5.308l-0.995,-5.307l-3.317,-4.644l-4.644,-2.986l-5.308,-1.327m0,0l-206.662,0m-0,-225.571l-5.64,0.996l-4.312,2.985l-3.317,4.644l-0.995,5.639l0.995,5.308l3.317,4.644l4.312,2.986l5.64,0.995m-0,-0l206.662,-0m0,-0l5.308,-0.995l4.644,-2.986l3.317,-4.644l0.995,-5.308l-0.995,-5.639l-3.317,-4.644l-4.644,-2.985l-5.308,-0.996m0,0l-206.662,0m-0,-56.392l-5.64,0.995l-4.312,2.985l-3.317,4.645l-0.995,5.307l0.995,5.639l3.317,4.313l4.312,3.317l5.64,0.995m-0,0l206.662,0m0,0l5.308,-0.995l4.644,-3.317l3.317,-4.313l0.995,-5.639l-0.995,-5.307l-3.317,-4.645l-4.644,-2.985l-5.308,-0.995m0,-0l-206.662,-0m-0,-56.393l-5.64,0.995l-4.312,2.986l-3.317,4.644l-0.995,5.307l0.995,5.64l3.317,4.312l4.312,3.317l5.64,0.995m-0,0l206.662,0m0,0l5.308,-0.995l4.644,-3.317l3.317,-4.312l0.995,-5.64l-0.995,-5.307l-3.317,-4.644l-4.644,-2.986l-5.308,-0.995m0,0l-206.662,0m-0,-56.393l-5.64,0.996l-4.312,2.985l-3.317,4.644l-0.995,5.308l0.995,5.639l3.317,4.312l4.312,3.318l5.64,0.995m-0,-0l206.662,-0m0,-0l5.308,-0.995l4.644,-3.318l3.317,-4.312l0.995,-5.639l-0.995,-5.308l-3.317,-4.644l-4.644,-2.985l-5.308,-0.996m0,0l-206.662,0m-0,-56.392l-5.64,0.995l-4.312,2.985l-3.317,4.644l-0.995,5.308l0.995,5.308l3.317,4.644l4.312,2.985l5.64,1.327m-0,0l206.662,0m0,0l5.308,-1.327l4.644,-2.985l3.317,-4.644l0.995,-5.308l-0.995,-5.308l-3.317,-4.644l-4.644,-2.985l-5.308,-0.995m0,-0l-206.662,-0m-0,-56.393l-5.64,0.995l-4.312,2.986l-3.317,4.644l-0.995,5.307l0.995,5.308l3.317,4.644l4.312,2.985l5.64,1.327m-0,0l206.662,0m0,0l5.308,-1.327l4.644,-2.985l3.317,-4.644l0.995,-5.308l-0.995,-5.307l-3.317,-4.644l-4.644,-2.986l-5.308,-0.995m0,0l-206.662,0m-0,451.142l-5.64,0.995l-4.312,3.317l-3.317,4.312l-0.995,5.64l0.995,5.307l3.317,4.644l4.312,2.986l5.64,0.995m-0,-0l206.662,-0m0,-0l5.308,-0.995l4.644,-2.986l3.317,-4.644l0.995,-5.307l-0.995,-5.64l-3.317,-4.312l-4.644,-3.317l-5.308,-0.995m0,-0l-206.662,-0m-0,169.178l-5.64,1.326l-4.312,2.986l-3.317,4.644l-0.995,5.308l0.995,5.307l3.317,4.644l4.312,2.986l5.64,0.995m-0,-0l206.662,-0m0,-0l5.308,-0.995l4.644,-2.986l3.317,-4.644l0.995,-5.307l-0.995,-5.308l-3.317,-4.644l-4.644,-2.986l-5.308,-1.326m0,-0l-206.662,-0m-0,-56.393l-5.64,1.327l-4.312,2.985l-3.317,4.644l-0.995,5.308l0.995,5.307l3.317,4.645l4.312,2.985l5.64,0.995m-0,0l206.662,0m0,0l5.308,-0.995l4.644,-2.985l3.317,-4.645l0.995,-5.307l-0.995,-5.308l-3.317,-4.644l-4.644,-2.985l-5.308,-1.327m0,-0l-206.662,-0m329.068,-169.178l-5.64,0.995l-4.312,3.317l-3.317,4.313l-0.995,5.639l0.995,5.307l3.317,4.645l4.312,2.985l5.64,0.995m-0,0l206.662,0m0,0l5.639,-0.995l4.313,-2.985l3.317,-4.645l0.995,-5.307l-0.995,-5.639l-3.317,-4.313l-4.313,-3.317l-5.639,-0.995m0,-0l-206.662,-0m-1645.67,-0l-5.307,0.995l-4.644,3.317l-2.986,4.313l-0.995,5.639l0.995,5.307l2.986,4.645l4.644,2.985l5.307,0.995m0,0l206.995,0m-0,0l5.307,-0.995l4.644,-2.985l2.986,-4.645l0.995,-5.307l-0.995,-5.639l-2.986,-4.313l-4.644,-3.317l-5.307,-0.995m-0,-0l-206.995,-0m1974.74,-0l-5.307,0.995l-4.644,3.317l-2.986,4.313l-1.327,5.639l1.327,5.307l2.986,4.645l4.644,2.985l5.307,0.995m0,0l206.663,0m0,0l5.639,-0.995l4.644,-2.985l2.986,-4.645l0.995,-5.307l-0.995,-5.639l-2.986,-4.313l-4.644,-3.317l-5.639,-0.995m0,-0l-206.663,-0m329.068,-0l-5.307,0.995l-4.644,3.317l-2.986,4.313l-1.327,5.639l1.327,5.307l2.986,4.645l4.644,2.985l5.307,0.995m0,0l206.995,0m-0,0l5.307,-0.995l4.644,-2.985l2.986,-4.645l0.995,-5.307l-0.995,-5.639l-2.986,-4.313l-4.644,-3.317l-5.307,-0.995m-0,-0l-206.995,-0m329.068,-0l-5.307,0.995l-4.644,3.317l-2.986,4.313l-0.995,5.639l0.995,5.307l2.986,4.645l4.644,2.985l5.307,0.995m0,0l206.995,0m-0,0l5.307,-0.995l4.644,-2.985l2.986,-4.645l0.995,-5.307l-0.995,-5.639l-2.986,-4.313l-4.644,-3.317l-5.307,-0.995m-0,-0l-206.995,-0m-1645.67,-0l-5.307,0.995l-4.645,3.317l-2.985,4.313l-0.995,5.639l0.995,5.307l2.985,4.645l4.645,2.985l5.307,0.995m0,0l206.994,0m0,0l5.308,-0.995l4.644,-2.985l2.986,-4.645l1.326,-5.307l-1.326,-5.639l-2.986,-4.313l-4.644,-3.317l-5.308,-0.995m0,-0l-206.994,-0m-658.136,-0l-5.307,0.995l-4.644,3.317l-2.986,4.313l-0.995,5.639l0.995,5.307l2.986,4.645l4.644,2.985l5.307,0.995m0,0l206.995,0m-0,0l5.307,-0.995l4.644,-2.985l2.986,-4.645l0.995,-5.307l-0.995,-5.639l-2.986,-4.313l-4.644,-3.317l-5.307,-0.995m-0,-0l-206.995,-0m329.068,-0l-5.307,0.995l-4.644,3.317l-2.986,4.313l-0.995,5.639l0.995,5.307l2.986,4.645l4.644,2.985l5.307,0.995m0,0l206.995,0m-0,0l5.307,-0.995l4.644,-2.985l2.986,-4.645l0.995,-5.307l-0.995,-5.639l-2.986,-4.313l-4.644,-3.317l-5.307,-0.995m-0,-0l-206.995,-0m987.536,-56.393l-5.64,0.995l-4.312,3.318l-3.317,4.312l-0.995,5.639l0.995,5.308l3.317,4.644l4.312,2.985l5.64,0.995m-0,0l206.662,0m0,0l5.639,-0.995l4.313,-2.985l3.317,-4.644l0.995,-5.308l-0.995,-5.639l-3.317,-4.312l-4.313,-3.318l-5.639,-0.995m0,0l-206.662,0m-1645.67,0l-5.307,0.995l-4.644,3.318l-2.986,4.312l-0.995,5.639l0.995,5.308l2.986,4.644l4.644,2.985l5.307,0.995m0,0l206.995,0m-0,0l5.307,-0.995l4.644,-2.985l2.986,-4.644l0.995,-5.308l-0.995,-5.639l-2.986,-4.312l-4.644,-3.318l-5.307,-0.995m-0,0l-206.995,0m1974.74,0l-5.307,0.995l-4.644,3.318l-2.986,4.312l-1.327,5.639l1.327,5.308l2.986,4.644l4.644,2.985l5.307,0.995m0,0l206.663,0m0,0l5.639,-0.995l4.644,-2.985l2.986,-4.644l0.995,-5.308l-0.995,-5.639l-2.986,-4.312l-4.644,-3.318l-5.639,-0.995m0,0l-206.663,0m329.068,0l-5.307,0.995l-4.644,3.318l-2.986,4.312l-1.327,5.639l1.327,5.308l2.986,4.644l4.644,2.985l5.307,0.995m0,0l206.995,0m-0,0l5.307,-0.995l4.644,-2.985l2.986,-4.644l0.995,-5.308l-0.995,-5.639l-2.986,-4.312l-4.644,-3.318l-5.307,-0.995m-0,0l-206.995,0m329.068,0l-5.307,0.995l-4.644,3.318l-2.986,4.312l-0.995,5.639l0.995,5.308l2.986,4.644l4.644,2.985l5.307,0.995m0,0l206.995,0m-0,0l5.307,-0.995l4.644,-2.985l2.986,-4.644l0.995,-5.308l-0.995,-5.639l-2.986,-4.312l-4.644,-3.318l-5.307,-0.995m-0,0l-206.995,0m-1645.67,0l-5.307,0.995l-4.645,3.318l-2.985,4.312l-0.995,5.639l0.995,5.308l2.985,4.644l4.645,2.985l5.307,0.995m0,0l206.994,0m0,0l5.308,-0.995l4.644,-2.985l2.986,-4.644l1.326,-5.308l-1.326,-5.639l-2.986,-4.312l-4.644,-3.318l-5.308,-0.995m0,0l-206.994,0m-658.136,0l-5.307,0.995l-4.644,3.318l-2.986,4.312l-0.995,5.639l0.995,5.308l2.986,4.644l4.644,2.985l5.307,0.995m0,0l206.995,0m-0,0l5.307,-0.995l4.644,-2.985l2.986,-4.644l0.995,-5.308l-0.995,-5.639l-2.986,-4.312l-4.644,-3.318l-5.307,-0.995m-0,0l-206.995,0m329.068,0l-5.307,0.995l-4.644,3.318l-2.986,4.312l-0.995,5.639l0.995,5.308l2.986,4.644l4.644,2.985l5.307,0.995m0,0l206.995,0m-0,0l5.307,-0.995l4.644,-2.985l2.986,-4.644l0.995,-5.308l-0.995,-5.639l-2.986,-4.312l-4.644,-3.318l-5.307,-0.995m-0,0l-206.995,0m987.536,395.081l-5.64,0.995l-4.312,2.985l-3.317,4.644l-0.995,5.308l0.995,5.308l3.317,4.644l4.312,2.985l5.64,1.327m-0,-0l206.662,-0m0,-0l5.639,-1.327l4.313,-2.985l3.317,-4.644l0.995,-5.308l-0.995,-5.308l-3.317,-4.644l-4.313,-2.985l-5.639,-0.995m0,-0l-206.662,-0m-1645.67,-0l-5.307,0.995l-4.644,2.985l-2.986,4.644l-0.995,5.308l0.995,5.308l2.986,4.644l4.644,2.985l5.307,1.327m0,-0l206.995,-0m-0,-0l5.307,-1.327l4.644,-2.985l2.986,-4.644l0.995,-5.308l-0.995,-5.308l-2.986,-4.644l-4.644,-2.985l-5.307,-0.995m-0,-0l-206.995,-0m1974.74,-0l-5.307,0.995l-4.644,2.985l-2.986,4.644l-1.327,5.308l1.327,5.308l2.986,4.644l4.644,2.985l5.307,1.327m0,-0l206.663,-0m0,-0l5.639,-1.327l4.644,-2.985l2.986,-4.644l0.995,-5.308l-0.995,-5.308l-2.986,-4.644l-4.644,-2.985l-5.639,-0.995m0,-0l-206.663,-0m329.068,-0l-5.307,0.995l-4.644,2.985l-2.986,4.644l-1.327,5.308l1.327,5.308l2.986,4.644l4.644,2.985l5.307,1.327m0,-0l206.995,-0m-0,-0l5.307,-1.327l4.644,-2.985l2.986,-4.644l0.995,-5.308l-0.995,-5.308l-2.986,-4.644l-4.644,-2.985l-5.307,-0.995m-0,-0l-206.995,-0m329.068,-0l-5.307,0.995l-4.644,2.985l-2.986,4.644l-0.995,5.308l0.995,5.308l2.986,4.644l4.644,2.985l5.307,1.327m0,-0l206.995,-0m-0,-0l5.307,-1.327l4.644,-2.985l2.986,-4.644l0.995,-5.308l-0.995,-5.308l-2.986,-4.644l-4.644,-2.985l-5.307,-0.995m-0,-0l-206.995,-0m-1645.67,-0l-5.307,0.995l-4.645,2.985l-2.985,4.644l-0.995,5.308l0.995,5.308l2.985,4.644l4.645,2.985l5.307,1.327m0,-0l206.994,-0m0,-0l5.308,-1.327l4.644,-2.985l2.986,-4.644l1.326,-5.308l-1.326,-5.308l-2.986,-4.644l-4.644,-2.985l-5.308,-0.995m0,-0l-206.994,-0m-658.136,-0l-5.307,0.995l-4.644,2.985l-2.986,4.644l-0.995,5.308l0.995,5.308l2.986,4.644l4.644,2.985l5.307,1.327m0,-0l206.995,-0m-0,-0l5.307,-1.327l4.644,-2.985l2.986,-4.644l0.995,-5.308l-0.995,-5.308l-2.986,-4.644l-4.644,-2.985l-5.307,-0.995m-0,-0l-206.995,-0m329.068,-0l-5.307,0.995l-4.644,2.985l-2.986,4.644l-0.995,5.308l0.995,5.308l2.986,4.644l4.644,2.985l5.307,1.327m0,-0l206.995,-0m-0,-0l5.307,-1.327l4.644,-2.985l2.986,-4.644l0.995,-5.308l-0.995,-5.308l-2.986,-4.644l-4.644,-2.985l-5.307,-0.995m-0,-0l-206.995,-0m987.536,-56.393l-5.64,0.995l-4.312,2.986l-3.317,4.644l-0.995,5.307l0.995,5.308l3.317,4.644l4.312,2.985l5.64,1.327m-0,0l206.662,0m0,0l5.639,-1.327l4.313,-2.985l3.317,-4.644l0.995,-5.308l-0.995,-5.307l-3.317,-4.644l-4.313,-2.986l-5.639,-0.995m0,-0l-206.662,-0m-1645.67,-0l-5.307,0.995l-4.644,2.986l-2.986,4.644l-0.995,5.307l0.995,5.308l2.986,4.644l4.644,2.985l5.307,1.327m0,0l206.995,0m-0,0l5.307,-1.327l4.644,-2.985l2.986,-4.644l0.995,-5.308l-0.995,-5.307l-2.986,-4.644l-4.644,-2.986l-5.307,-0.995m-0,-0l-206.995,-0m1974.74,-0l-5.307,0.995l-4.644,2.986l-2.986,4.644l-1.327,5.307l1.327,5.308l2.986,4.644l4.644,2.985l5.307,1.327m0,0l206.663,0m0,0l5.639,-1.327l4.644,-2.985l2.986,-4.644l0.995,-5.308l-0.995,-5.307l-2.986,-4.644l-4.644,-2.986l-5.639,-0.995m0,-0l-206.663,-0m329.068,-0l-5.307,0.995l-4.644,2.986l-2.986,4.644l-1.327,5.307l1.327,5.308l2.986,4.644l4.644,2.985l5.307,1.327m0,0l206.995,0m-0,0l5.307,-1.327l4.644,-2.985l2.986,-4.644l0.995,-5.308l-0.995,-5.307l-2.986,-4.644l-4.644,-2.986l-5.307,-0.995m-0,-0l-206.995,-0m329.068,-0l-5.307,0.995l-4.644,2.986l-2.986,4.644l-0.995,5.307l0.995,5.308l2.986,4.644l4.644,2.985l5.307,1.327m0,0l206.995,0m-0,0l5.307,-1.327l4.644,-2.985l2.986,-4.644l0.995,-5.308l-0.995,-5.307l-2.986,-4.644l-4.644,-2.986l-5.307,-0.995m-0,-0l-206.995,-0m-1645.67,-0l-5.307,0.995l-4.645,2.986l-2.985,4.644l-0.995,5.307l0.995,5.308l2.985,4.644l4.645,2.985l5.307,1.327m0,0l206.994,0m0,0l5.308,-1.327l4.644,-2.985l2.986,-4.644l1.326,-5.308l-1.326,-5.307l-2.986,-4.644l-4.644,-2.986l-5.308,-0.995m0,-0l-206.994,-0m-658.136,-0l-5.307,0.995l-4.644,2.986l-2.986,4.644l-0.995,5.307l0.995,5.308l2.986,4.644l4.644,2.985l5.307,1.327m0,0l206.995,0m-0,0l5.307,-1.327l4.644,-2.985l2.986,-4.644l0.995,-5.308l-0.995,-5.307l-2.986,-4.644l-4.644,-2.986l-5.307,-0.995m-0,-0l-206.995,-0m329.068,-0l-5.307,0.995l-4.644,2.986l-2.986,4.644l-0.995,5.307l0.995,5.308l2.986,4.644l4.644,2.985l5.307,1.327m0,0l206.995,0m-0,0l5.307,-1.327l4.644,-2.985l2.986,-4.644l0.995,-5.308l-0.995,-5.307l-2.986,-4.644l-4.644,-2.986l-5.307,-0.995m-0,-0l-206.995,-0m987.536,112.785l-5.64,0.995l-4.312,2.986l-3.317,4.644l-0.995,5.308l0.995,5.307l3.317,4.644l4.312,2.986l5.64,1.327m-0,-0l206.662,-0m0,-0l5.639,-1.327l4.313,-2.986l3.317,-4.644l0.995,-5.307l-0.995,-5.308l-3.317,-4.644l-4.313,-2.986l-5.639,-0.995m0,0l-206.662,0m-1645.67,0l-5.307,0.995l-4.644,2.986l-2.986,4.644l-0.995,5.308l0.995,5.307l2.986,4.644l4.644,2.986l5.307,1.327m0,-0l206.995,-0m-0,-0l5.307,-1.327l4.644,-2.986l2.986,-4.644l0.995,-5.307l-0.995,-5.308l-2.986,-4.644l-4.644,-2.986l-5.307,-0.995m-0,0l-206.995,0m1974.74,0l-5.307,0.995l-4.644,2.986l-2.986,4.644l-1.327,5.308l1.327,5.307l2.986,4.644l4.644,2.986l5.307,1.327m0,-0l206.663,-0m0,-0l5.639,-1.327l4.644,-2.986l2.986,-4.644l0.995,-5.307l-0.995,-5.308l-2.986,-4.644l-4.644,-2.986l-5.639,-0.995m0,0l-206.663,0m329.068,0l-5.307,0.995l-4.644,2.986l-2.986,4.644l-1.327,5.308l1.327,5.307l2.986,4.644l4.644,2.986l5.307,1.327m0,-0l206.995,-0m-0,-0l5.307,-1.327l4.644,-2.986l2.986,-4.644l0.995,-5.307l-0.995,-5.308l-2.986,-4.644l-4.644,-2.986l-5.307,-0.995m-0,0l-206.995,0m329.068,0l-5.307,0.995l-4.644,2.986l-2.986,4.644l-0.995,5.308l0.995,5.307l2.986,4.644l4.644,2.986l5.307,1.327m0,-0l206.995,-0m-0,-0l5.307,-1.327l4.644,-2.986l2.986,-4.644l0.995,-5.307l-0.995,-5.308l-2.986,-4.644l-4.644,-2.986l-5.307,-0.995m-0,0l-206.995,0m-1645.67,0l-5.307,0.995l-4.645,2.986l-2.985,4.644l-0.995,5.308l0.995,5.307l2.985,4.644l4.645,2.986l5.307,1.327m0,-0l206.994,-0m0,-0l5.308,-1.327l4.644,-2.986l2.986,-4.644l1.326,-5.307l-1.326,-5.308l-2.986,-4.644l-4.644,-2.986l-5.308,-0.995m0,0l-206.994,0m-658.136,0l-5.307,0.995l-4.644,2.986l-2.986,4.644l-0.995,5.308l0.995,5.307l2.986,4.644l4.644,2.986l5.307,1.327m0,-0l206.995,-0m-0,-0l5.307,-1.327l4.644,-2.986l2.986,-4.644l0.995,-5.307l-0.995,-5.308l-2.986,-4.644l-4.644,-2.986l-5.307,-0.995m-0,0l-206.995,0m329.068,0l-5.307,0.995l-4.644,2.986l-2.986,4.644l-0.995,5.308l0.995,5.307l2.986,4.644l4.644,2.986l5.307,1.327m0,-0l206.995,-0m-0,-0l5.307,-1.327l4.644,-2.986l2.986,-4.644l0.995,-5.307l-0.995,-5.308l-2.986,-4.644l-4.644,-2.986l-5.307,-0.995m-0,0l-206.995,0m987.536,-282.295l-5.64,1.327l-4.312,2.986l-3.317,4.644l-0.995,5.307l0.995,5.308l3.317,4.644l4.312,2.985l5.64,0.996m-0,-0l206.662,-0m0,-0l5.639,-0.996l4.313,-2.985l3.317,-4.644l0.995,-5.308l-0.995,-5.307l-3.317,-4.644l-4.313,-2.986l-5.639,-1.327m0,0l-206.662,0m-1645.67,0l-5.307,1.327l-4.644,2.986l-2.986,4.644l-0.995,5.307l0.995,5.308l2.986,4.644l4.644,2.985l5.307,0.996m0,-0l206.995,-0m-0,-0l5.307,-0.996l4.644,-2.985l2.986,-4.644l0.995,-5.308l-0.995,-5.307l-2.986,-4.644l-4.644,-2.986l-5.307,-1.327m-0,0l-206.995,0m1974.74,0l-5.307,1.327l-4.644,2.986l-2.986,4.644l-1.327,5.307l1.327,5.308l2.986,4.644l4.644,2.985l5.307,0.996m0,-0l206.663,-0m0,-0l5.639,-0.996l4.644,-2.985l2.986,-4.644l0.995,-5.308l-0.995,-5.307l-2.986,-4.644l-4.644,-2.986l-5.639,-1.327m0,0l-206.663,0m329.068,0l-5.307,1.327l-4.644,2.986l-2.986,4.644l-1.327,5.307l1.327,5.308l2.986,4.644l4.644,2.985l5.307,0.996m0,-0l206.995,-0m-0,-0l5.307,-0.996l4.644,-2.985l2.986,-4.644l0.995,-5.308l-0.995,-5.307l-2.986,-4.644l-4.644,-2.986l-5.307,-1.327m-0,0l-206.995,0m329.068,0l-5.307,1.327l-4.644,2.986l-2.986,4.644l-0.995,5.307l0.995,5.308l2.986,4.644l4.644,2.985l5.307,0.996m0,-0l206.995,-0m-0,-0l5.307,-0.996l4.644,-2.985l2.986,-4.644l0.995,-5.308l-0.995,-5.307l-2.986,-4.644l-4.644,-2.986l-5.307,-1.327m-0,0l-206.995,0m-1645.67,0l-5.307,1.327l-4.645,2.986l-2.985,4.644l-0.995,5.307l0.995,5.308l2.985,4.644l4.645,2.985l5.307,0.996m0,-0l206.994,-0m0,-0l5.308,-0.996l4.644,-2.985l2.986,-4.644l1.326,-5.308l-1.326,-5.307l-2.986,-4.644l-4.644,-2.986l-5.308,-1.327m0,0l-206.994,0m-658.136,0l-5.307,1.327l-4.644,2.986l-2.986,4.644l-0.995,5.307l0.995,5.308l2.986,4.644l4.644,2.985l5.307,0.996m0,-0l206.995,-0m-0,-0l5.307,-0.996l4.644,-2.985l2.986,-4.644l0.995,-5.308l-0.995,-5.307l-2.986,-4.644l-4.644,-2.986l-5.307,-1.327m-0,0l-206.995,0m329.068,0l-5.307,1.327l-4.644,2.986l-2.986,4.644l-0.995,5.307l0.995,5.308l2.986,4.644l4.644,2.985l5.307,0.996m0,-0l206.995,-0m-0,-0l5.307,-0.996l4.644,-2.985l2.986,-4.644l0.995,-5.308l-0.995,-5.307l-2.986,-4.644l-4.644,-2.986l-5.307,-1.327m-0,0l-206.995,0m987.536,-225.571l-5.64,0.996l-4.312,2.985l-3.317,4.644l-0.995,5.639l0.995,5.308l3.317,4.644l4.312,2.986l5.64,0.995m-0,-0l206.662,-0m0,-0l5.639,-0.995l4.313,-2.986l3.317,-4.644l0.995,-5.308l-0.995,-5.639l-3.317,-4.644l-4.313,-2.985l-5.639,-0.996m0,0l-206.662,0m-1645.67,0l-5.307,0.996l-4.644,2.985l-2.986,4.644l-0.995,5.639l0.995,5.308l2.986,4.644l4.644,2.986l5.307,0.995m0,-0l206.995,-0m-0,-0l5.307,-0.995l4.644,-2.986l2.986,-4.644l0.995,-5.308l-0.995,-5.639l-2.986,-4.644l-4.644,-2.985l-5.307,-0.996m-0,0l-206.995,0m1974.74,0l-5.307,0.996l-4.644,2.985l-2.986,4.644l-1.327,5.639l1.327,5.308l2.986,4.644l4.644,2.986l5.307,0.995m0,-0l206.663,-0m0,-0l5.639,-0.995l4.644,-2.986l2.986,-4.644l0.995,-5.308l-0.995,-5.639l-2.986,-4.644l-4.644,-2.985l-5.639,-0.996m0,0l-206.663,0m329.068,0l-5.307,0.996l-4.644,2.985l-2.986,4.644l-1.327,5.639l1.327,5.308l2.986,4.644l4.644,2.986l5.307,0.995m0,-0l206.995,-0m-0,-0l5.307,-0.995l4.644,-2.986l2.986,-4.644l0.995,-5.308l-0.995,-5.639l-2.986,-4.644l-4.644,-2.985l-5.307,-0.996m-0,0l-206.995,0m329.068,0l-5.307,0.996l-4.644,2.985l-2.986,4.644l-0.995,5.639l0.995,5.308l2.986,4.644l4.644,2.986l5.307,0.995m0,-0l206.995,-0m-0,-0l5.307,-0.995l4.644,-2.986l2.986,-4.644l0.995,-5.308l-0.995,-5.639l-2.986,-4.644l-4.644,-2.985l-5.307,-0.996m-0,0l-206.995,0m-1645.67,0l-5.307,0.996l-4.645,2.985l-2.985,4.644l-0.995,5.639l0.995,5.308l2.985,4.644l4.645,2.986l5.307,0.995m0,-0l206.994,-0m0,-0l5.308,-0.995l4.644,-2.986l2.986,-4.644l1.326,-5.308l-1.326,-5.639l-2.986,-4.644l-4.644,-2.985l-5.308,-0.996m0,0l-206.994,0m-658.136,0l-5.307,0.996l-4.644,2.985l-2.986,4.644l-0.995,5.639l0.995,5.308l2.986,4.644l4.644,2.986l5.307,0.995m0,-0l206.995,-0m-0,-0l5.307,-0.995l4.644,-2.986l2.986,-4.644l0.995,-5.308l-0.995,-5.639l-2.986,-4.644l-4.644,-2.985l-5.307,-0.996m-0,0l-206.995,0m329.068,0l-5.307,0.996l-4.644,2.985l-2.986,4.644l-0.995,5.639l0.995,5.308l2.986,4.644l4.644,2.986l5.307,0.995m0,-0l206.995,-0m-0,-0l5.307,-0.995l4.644,-2.986l2.986,-4.644l0.995,-5.308l-0.995,-5.639l-2.986,-4.644l-4.644,-2.985l-5.307,-0.996m-0,0l-206.995,0m987.536,-56.392l-5.64,0.995l-4.312,2.985l-3.317,4.645l-0.995,5.307l0.995,5.639l3.317,4.313l4.312,3.317l5.64,0.995m-0,0l206.662,0m0,0l5.639,-0.995l4.313,-3.317l3.317,-4.313l0.995,-5.639l-0.995,-5.307l-3.317,-4.645l-4.313,-2.985l-5.639,-0.995m0,-0l-206.662,-0m-1645.67,-0l-5.307,0.995l-4.644,2.985l-2.986,4.645l-0.995,5.307l0.995,5.639l2.986,4.313l4.644,3.317l5.307,0.995m0,0l206.995,0m-0,0l5.307,-0.995l4.644,-3.317l2.986,-4.313l0.995,-5.639l-0.995,-5.307l-2.986,-4.645l-4.644,-2.985l-5.307,-0.995m-0,-0l-206.995,-0m1974.74,-0l-5.307,0.995l-4.644,2.985l-2.986,4.645l-1.327,5.307l1.327,5.639l2.986,4.313l4.644,3.317l5.307,0.995m0,0l206.663,0m0,0l5.639,-0.995l4.644,-3.317l2.986,-4.313l0.995,-5.639l-0.995,-5.307l-2.986,-4.645l-4.644,-2.985l-5.639,-0.995m0,-0l-206.663,-0m329.068,-0l-5.307,0.995l-4.644,2.985l-2.986,4.645l-1.327,5.307l1.327,5.639l2.986,4.313l4.644,3.317l5.307,0.995m0,0l206.995,0m-0,0l5.307,-0.995l4.644,-3.317l2.986,-4.313l0.995,-5.639l-0.995,-5.307l-2.986,-4.645l-4.644,-2.985l-5.307,-0.995m-0,-0l-206.995,-0m329.068,-0l-5.307,0.995l-4.644,2.985l-2.986,4.645l-0.995,5.307l0.995,5.639l2.986,4.313l4.644,3.317l5.307,0.995m0,0l206.995,0m-0,0l5.307,-0.995l4.644,-3.317l2.986,-4.313l0.995,-5.639l-0.995,-5.307l-2.986,-4.645l-4.644,-2.985l-5.307,-0.995m-0,-0l-206.995,-0m-1645.67,-0l-5.307,0.995l-4.645,2.985l-2.985,4.645l-0.995,5.307l0.995,5.639l2.985,4.313l4.645,3.317l5.307,0.995m0,0l206.994,0m0,0l5.308,-0.995l4.644,-3.317l2.986,-4.313l1.326,-5.639l-1.326,-5.307l-2.986,-4.645l-4.644,-2.985l-5.308,-0.995m0,-0l-206.994,-0m-658.136,-0l-5.307,0.995l-4.644,2.985l-2.986,4.645l-0.995,5.307l0.995,5.639l2.986,4.313l4.644,3.317l5.307,0.995m0,0l206.995,0m-0,0l5.307,-0.995l4.644,-3.317l2.986,-4.313l0.995,-5.639l-0.995,-5.307l-2.986,-4.645l-4.644,-2.985l-5.307,-0.995m-0,-0l-206.995,-0m329.068,-0l-5.307,0.995l-4.644,2.985l-2.986,4.645l-0.995,5.307l0.995,5.639l2.986,4.313l4.644,3.317l5.307,0.995m0,0l206.995,0m-0,0l5.307,-0.995l4.644,-3.317l2.986,-4.313l0.995,-5.639l-0.995,-5.307l-2.986,-4.645l-4.644,-2.985l-5.307,-0.995m-0,-0l-206.995,-0m987.536,-56.393l-5.64,0.995l-4.312,2.986l-3.317,4.644l-0.995,5.307l0.995,5.64l3.317,4.312l4.312,3.317l5.64,0.995m-0,0l206.662,0m0,0l5.639,-0.995l4.313,-3.317l3.317,-4.312l0.995,-5.64l-0.995,-5.307l-3.317,-4.644l-4.313,-2.986l-5.639,-0.995m0,0l-206.662,0m-1645.67,0l-5.307,0.995l-4.644,2.986l-2.986,4.644l-0.995,5.307l0.995,5.64l2.986,4.312l4.644,3.317l5.307,0.995m0,0l206.995,0m-0,0l5.307,-0.995l4.644,-3.317l2.986,-4.312l0.995,-5.64l-0.995,-5.307l-2.986,-4.644l-4.644,-2.986l-5.307,-0.995m-0,0l-206.995,0m1974.74,0l-5.307,0.995l-4.644,2.986l-2.986,4.644l-1.327,5.307l1.327,5.64l2.986,4.312l4.644,3.317l5.307,0.995m0,0l206.663,0m0,0l5.639,-0.995l4.644,-3.317l2.986,-4.312l0.995,-5.64l-0.995,-5.307l-2.986,-4.644l-4.644,-2.986l-5.639,-0.995m0,0l-206.663,0m329.068,0l-5.307,0.995l-4.644,2.986l-2.986,4.644l-1.327,5.307l1.327,5.64l2.986,4.312l4.644,3.317l5.307,0.995m0,0l206.995,0m-0,0l5.307,-0.995l4.644,-3.317l2.986,-4.312l0.995,-5.64l-0.995,-5.307l-2.986,-4.644l-4.644,-2.986l-5.307,-0.995m-0,0l-206.995,0m329.068,0l-5.307,0.995l-4.644,2.986l-2.986,4.644l-0.995,5.307l0.995,5.64l2.986,4.312l4.644,3.317l5.307,0.995m0,0l206.995,0m-0,0l5.307,-0.995l4.644,-3.317l2.986,-4.312l0.995,-5.64l-0.995,-5.307l-2.986,-4.644l-4.644,-2.986l-5.307,-0.995m-0,0l-206.995,0m-1645.67,0l-5.307,0.995l-4.645,2.986l-2.985,4.644l-0.995,5.307l0.995,5.64l2.985,4.312l4.645,3.317l5.307,0.995m0,0l206.994,0m0,0l5.308,-0.995l4.644,-3.317l2.986,-4.312l1.326,-5.64l-1.326,-5.307l-2.986,-4.644l-4.644,-2.986l-5.308,-0.995m0,0l-206.994,0m-658.136,0l-5.307,0.995l-4.644,2.986l-2.986,4.644l-0.995,5.307l0.995,5.64l2.986,4.312l4.644,3.317l5.307,0.995m0,0l206.995,0m-0,0l5.307,-0.995l4.644,-3.317l2.986,-4.312l0.995,-5.64l-0.995,-5.307l-2.986,-4.644l-4.644,-2.986l-5.307,-0.995m-0,0l-206.995,0m329.068,0l-5.307,0.995l-4.644,2.986l-2.986,4.644l-0.995,5.307l0.995,5.64l2.986,4.312l4.644,3.317l5.307,0.995m0,0l206.995,0m-0,0l5.307,-0.995l4.644,-3.317l2.986,-4.312l0.995,-5.64l-0.995,-5.307l-2.986,-4.644l-4.644,-2.986l-5.307,-0.995m-0,0l-206.995,0m987.536,-56.393l-5.64,0.996l-4.312,2.985l-3.317,4.644l-0.995,5.308l0.995,5.639l3.317,4.312l4.312,3.318l5.64,0.995m-0,-0l206.662,-0m0,-0l5.639,-0.995l4.313,-3.318l3.317,-4.312l0.995,-5.639l-0.995,-5.308l-3.317,-4.644l-4.313,-2.985l-5.639,-0.996m0,0l-206.662,0m-1645.67,0l-5.307,0.996l-4.644,2.985l-2.986,4.644l-0.995,5.308l0.995,5.639l2.986,4.312l4.644,3.318l5.307,0.995m0,-0l206.995,-0m-0,-0l5.307,-0.995l4.644,-3.318l2.986,-4.312l0.995,-5.639l-0.995,-5.308l-2.986,-4.644l-4.644,-2.985l-5.307,-0.996m-0,0l-206.995,0m1974.74,0l-5.307,0.996l-4.644,2.985l-2.986,4.644l-1.327,5.308l1.327,5.639l2.986,4.312l4.644,3.318l5.307,0.995m0,-0l206.663,-0m0,-0l5.639,-0.995l4.644,-3.318l2.986,-4.312l0.995,-5.639l-0.995,-5.308l-2.986,-4.644l-4.644,-2.985l-5.639,-0.996m0,0l-206.663,0m329.068,0l-5.307,0.996l-4.644,2.985l-2.986,4.644l-1.327,5.308l1.327,5.639l2.986,4.312l4.644,3.318l5.307,0.995m0,-0l206.995,-0m-0,-0l5.307,-0.995l4.644,-3.318l2.986,-4.312l0.995,-5.639l-0.995,-5.308l-2.986,-4.644l-4.644,-2.985l-5.307,-0.996m-0,0l-206.995,0m329.068,0l-5.307,0.996l-4.644,2.985l-2.986,4.644l-0.995,5.308l0.995,5.639l2.986,4.312l4.644,3.318l5.307,0.995m0,-0l206.995,-0m-0,-0l5.307,-0.995l4.644,-3.318l2.986,-4.312l0.995,-5.639l-0.995,-5.308l-2.986,-4.644l-4.644,-2.985l-5.307,-0.996m-0,0l-206.995,0m-1645.67,0l-5.307,0.996l-4.645,2.985l-2.985,4.644l-0.995,5.308l0.995,5.639l2.985,4.312l4.645,3.318l5.307,0.995m0,-0l206.994,-0m0,-0l5.308,-0.995l4.644,-3.318l2.986,-4.312l1.326,-5.639l-1.326,-5.308l-2.986,-4.644l-4.644,-2.985l-5.308,-0.996m0,0l-206.994,0m-658.136,0l-5.307,0.996l-4.644,2.985l-2.986,4.644l-0.995,5.308l0.995,5.639l2.986,4.312l4.644,3.318l5.307,0.995m0,-0l206.995,-0m-0,-0l5.307,-0.995l4.644,-3.318l2.986,-4.312l0.995,-5.639l-0.995,-5.308l-2.986,-4.644l-4.644,-2.985l-5.307,-0.996m-0,0l-206.995,0m329.068,0l-5.307,0.996l-4.644,2.985l-2.986,4.644l-0.995,5.308l0.995,5.639l2.986,4.312l4.644,3.318l5.307,0.995m0,-0l206.995,-0m-0,-0l5.307,-0.995l4.644,-3.318l2.986,-4.312l0.995,-5.639l-0.995,-5.308l-2.986,-4.644l-4.644,-2.985l-5.307,-0.996m-0,0l-206.995,0m987.536,-56.392l-5.64,0.995l-4.312,2.985l-3.317,4.644l-0.995,5.308l0.995,5.308l3.317,4.644l4.312,2.985l5.64,1.327m-0,0l206.662,0m0,0l5.639,-1.327l4.313,-2.985l3.317,-4.644l0.995,-5.308l-0.995,-5.308l-3.317,-4.644l-4.313,-2.985l-5.639,-0.995m0,-0l-206.662,-0m-1645.67,-0l-5.307,0.995l-4.644,2.985l-2.986,4.644l-0.995,5.308l0.995,5.308l2.986,4.644l4.644,2.985l5.307,1.327m0,0l206.995,0m-0,0l5.307,-1.327l4.644,-2.985l2.986,-4.644l0.995,-5.308l-0.995,-5.308l-2.986,-4.644l-4.644,-2.985l-5.307,-0.995m-0,-0l-206.995,-0m1974.74,-0l-5.307,0.995l-4.644,2.985l-2.986,4.644l-1.327,5.308l1.327,5.308l2.986,4.644l4.644,2.985l5.307,1.327m0,0l206.663,0m0,0l5.639,-1.327l4.644,-2.985l2.986,-4.644l0.995,-5.308l-0.995,-5.308l-2.986,-4.644l-4.644,-2.985l-5.639,-0.995m0,-0l-206.663,-0m329.068,-0l-5.307,0.995l-4.644,2.985l-2.986,4.644l-1.327,5.308l1.327,5.308l2.986,4.644l4.644,2.985l5.307,1.327m0,0l206.995,0m-0,0l5.307,-1.327l4.644,-2.985l2.986,-4.644l0.995,-5.308l-0.995,-5.308l-2.986,-4.644l-4.644,-2.985l-5.307,-0.995m-0,-0l-206.995,-0m329.068,-0l-5.307,0.995l-4.644,2.985l-2.986,4.644l-0.995,5.308l0.995,5.308l2.986,4.644l4.644,2.985l5.307,1.327m0,0l206.995,0m-0,0l5.307,-1.327l4.644,-2.985l2.986,-4.644l0.995,-5.308l-0.995,-5.308l-2.986,-4.644l-4.644,-2.985l-5.307,-0.995m-0,-0l-206.995,-0m-1645.67,-0l-5.307,0.995l-4.645,2.985l-2.985,4.644l-0.995,5.308l0.995,5.308l2.985,4.644l4.645,2.985l5.307,1.327m0,0l206.994,0m0,0l5.308,-1.327l4.644,-2.985l2.986,-4.644l1.326,-5.308l-1.326,-5.308l-2.986,-4.644l-4.644,-2.985l-5.308,-0.995m0,-0l-206.994,-0m-658.136,-0l-5.307,0.995l-4.644,2.985l-2.986,4.644l-0.995,5.308l0.995,5.308l2.986,4.644l4.644,2.985l5.307,1.327m0,0l206.995,0m-0,0l5.307,-1.327l4.644,-2.985l2.986,-4.644l0.995,-5.308l-0.995,-5.308l-2.986,-4.644l-4.644,-2.985l-5.307,-0.995m-0,-0l-206.995,-0m329.068,-0l-5.307,0.995l-4.644,2.985l-2.986,4.644l-0.995,5.308l0.995,5.308l2.986,4.644l4.644,2.985l5.307,1.327m0,0l206.995,0m-0,0l5.307,-1.327l4.644,-2.985l2.986,-4.644l0.995,-5.308l-0.995,-5.308l-2.986,-4.644l-4.644,-2.985l-5.307,-0.995m-0,-0l-206.995,-0m987.536,-56.393l-5.64,0.995l-4.312,2.986l-3.317,4.644l-0.995,5.307l0.995,5.308l3.317,4.644l4.312,2.985l5.64,1.327m-0,0l206.662,0m0,0l5.639,-1.327l4.313,-2.985l3.317,-4.644l0.995,-5.308l-0.995,-5.307l-3.317,-4.644l-4.313,-2.986l-5.639,-0.995m0,0l-206.662,0m-1645.67,0l-5.307,0.995l-4.644,2.986l-2.986,4.644l-0.995,5.307l0.995,5.308l2.986,4.644l4.644,2.985l5.307,1.327m0,0l206.995,0m-0,0l5.307,-1.327l4.644,-2.985l2.986,-4.644l0.995,-5.308l-0.995,-5.307l-2.986,-4.644l-4.644,-2.986l-5.307,-0.995m-0,0l-206.995,0m1974.74,0l-5.307,0.995l-4.644,2.986l-2.986,4.644l-1.327,5.307l1.327,5.308l2.986,4.644l4.644,2.985l5.307,1.327m0,0l206.663,0m0,0l5.639,-1.327l4.644,-2.985l2.986,-4.644l0.995,-5.308l-0.995,-5.307l-2.986,-4.644l-4.644,-2.986l-5.639,-0.995m0,0l-206.663,0m329.068,0l-5.307,0.995l-4.644,2.986l-2.986,4.644l-1.327,5.307l1.327,5.308l2.986,4.644l4.644,2.985l5.307,1.327m0,0l206.995,0m-0,0l5.307,-1.327l4.644,-2.985l2.986,-4.644l0.995,-5.308l-0.995,-5.307l-2.986,-4.644l-4.644,-2.986l-5.307,-0.995m-0,0l-206.995,0m329.068,0l-5.307,0.995l-4.644,2.986l-2.986,4.644l-0.995,5.307l0.995,5.308l2.986,4.644l4.644,2.985l5.307,1.327m0,0l206.995,0m-0,0l5.307,-1.327l4.644,-2.985l2.986,-4.644l0.995,-5.308l-0.995,-5.307l-2.986,-4.644l-4.644,-2.986l-5.307,-0.995m-0,0l-206.995,0m-1645.67,0l-5.307,0.995l-4.645,2.986l-2.985,4.644l-0.995,5.307l0.995,5.308l2.985,4.644l4.645,2.985l5.307,1.327m0,0l206.994,0m0,0l5.308,-1.327l4.644,-2.985l2.986,-4.644l1.326,-5.308l-1.326,-5.307l-2.986,-4.644l-4.644,-2.986l-5.308,-0.995m0,0l-206.994,0m-658.136,0l-5.307,0.995l-4.644,2.986l-2.986,4.644l-0.995,5.307l0.995,5.308l2.986,4.644l4.644,2.985l5.307,1.327m0,0l206.995,0m-0,0l5.307,-1.327l4.644,-2.985l2.986,-4.644l0.995,-5.308l-0.995,-5.307l-2.986,-4.644l-4.644,-2.986l-5.307,-0.995m-0,0l-206.995,0m329.068,0l-5.307,0.995l-4.644,2.986l-2.986,4.644l-0.995,5.307l0.995,5.308l2.986,4.644l4.644,2.985l5.307,1.327m0,0l206.995,0m-0,0l5.307,-1.327l4.644,-2.985l2.986,-4.644l0.995,-5.308l-0.995,-5.307l-2.986,-4.644l-4.644,-2.986l-5.307,-0.995m-0,0l-206.995,0m987.536,451.142l-5.64,0.995l-4.312,3.317l-3.317,4.312l-0.995,5.64l0.995,5.307l3.317,4.644l4.312,2.986l5.64,0.995m-0,-0l206.662,-0m0,-0l5.639,-0.995l4.313,-2.986l3.317,-4.644l0.995,-5.307l-0.995,-5.64l-3.317,-4.312l-4.313,-3.317l-5.639,-0.995m0,-0l-206.662,-0m-1645.67,-0l-5.307,0.995l-4.644,3.317l-2.986,4.312l-0.995,5.64l0.995,5.307l2.986,4.644l4.644,2.986l5.307,0.995m0,-0l206.995,-0m-0,-0l5.307,-0.995l4.644,-2.986l2.986,-4.644l0.995,-5.307l-0.995,-5.64l-2.986,-4.312l-4.644,-3.317l-5.307,-0.995m-0,-0l-206.995,-0m1974.74,-0l-5.307,0.995l-4.644,3.317l-2.986,4.312l-1.327,5.64l1.327,5.307l2.986,4.644l4.644,2.986l5.307,0.995m0,-0l206.663,-0m0,-0l5.639,-0.995l4.644,-2.986l2.986,-4.644l0.995,-5.307l-0.995,-5.64l-2.986,-4.312l-4.644,-3.317l-5.639,-0.995m0,-0l-206.663,-0m329.068,-0l-5.307,0.995l-4.644,3.317l-2.986,4.312l-1.327,5.64l1.327,5.307l2.986,4.644l4.644,2.986l5.307,0.995m0,-0l206.995,-0m-0,-0l5.307,-0.995l4.644,-2.986l2.986,-4.644l0.995,-5.307l-0.995,-5.64l-2.986,-4.312l-4.644,-3.317l-5.307,-0.995m-0,-0l-206.995,-0m329.068,-0l-5.307,0.995l-4.644,3.317l-2.986,4.312l-0.995,5.64l0.995,5.307l2.986,4.644l4.644,2.986l5.307,0.995m0,-0l206.995,-0m-0,-0l5.307,-0.995l4.644,-2.986l2.986,-4.644l0.995,-5.307l-0.995,-5.64l-2.986,-4.312l-4.644,-3.317l-5.307,-0.995m-0,-0l-206.995,-0m-1645.67,-0l-5.307,0.995l-4.645,3.317l-2.985,4.312l-0.995,5.64l0.995,5.307l2.985,4.644l4.645,2.986l5.307,0.995m0,-0l206.994,-0m0,-0l5.308,-0.995l4.644,-2.986l2.986,-4.644l1.326,-5.307l-1.326,-5.64l-2.986,-4.312l-4.644,-3.317l-5.308,-0.995m0,-0l-206.994,-0m-658.136,-0l-5.307,0.995l-4.644,3.317l-2.986,4.312l-0.995,5.64l0.995,5.307l2.986,4.644l4.644,2.986l5.307,0.995m0,-0l206.995,-0m-0,-0l5.307,-0.995l4.644,-2.986l2.986,-4.644l0.995,-5.307l-0.995,-5.64l-2.986,-4.312l-4.644,-3.317l-5.307,-0.995m-0,-0l-206.995,-0m329.068,-0l-5.307,0.995l-4.644,3.317l-2.986,4.312l-0.995,5.64l0.995,5.307l2.986,4.644l4.644,2.986l5.307,0.995m0,-0l206.995,-0m-0,-0l5.307,-0.995l4.644,-2.986l2.986,-4.644l0.995,-5.307l-0.995,-5.64l-2.986,-4.312l-4.644,-3.317l-5.307,-0.995m-0,-0l-206.995,-0m987.536,169.178l-5.64,1.326l-4.312,2.986l-3.317,4.644l-0.995,5.308l0.995,5.307l3.317,4.644l4.312,2.986l5.64,0.995m-0,-0l206.662,-0m0,-0l5.639,-0.995l4.313,-2.986l3.317,-4.644l0.995,-5.307l-0.995,-5.308l-3.317,-4.644l-4.313,-2.986l-5.639,-1.326m0,-0l-206.662,-0m-1645.67,-0l-5.307,1.326l-4.644,2.986l-2.986,4.644l-0.995,5.308l0.995,5.307l2.986,4.644l4.644,2.986l5.307,0.995m0,-0l206.995,-0m-0,-0l5.307,-0.995l4.644,-2.986l2.986,-4.644l0.995,-5.307l-0.995,-5.308l-2.986,-4.644l-4.644,-2.986l-5.307,-1.326m-0,-0l-206.995,-0m1974.74,-0l-5.307,1.326l-4.644,2.986l-2.986,4.644l-1.327,5.308l1.327,5.307l2.986,4.644l4.644,2.986l5.307,0.995m0,-0l206.663,-0m0,-0l5.639,-0.995l4.644,-2.986l2.986,-4.644l0.995,-5.307l-0.995,-5.308l-2.986,-4.644l-4.644,-2.986l-5.639,-1.326m0,-0l-206.663,-0m329.068,-0l-5.307,1.326l-4.644,2.986l-2.986,4.644l-1.327,5.308l1.327,5.307l2.986,4.644l4.644,2.986l5.307,0.995m0,-0l206.995,-0m-0,-0l5.307,-0.995l4.644,-2.986l2.986,-4.644l0.995,-5.307l-0.995,-5.308l-2.986,-4.644l-4.644,-2.986l-5.307,-1.326m-0,-0l-206.995,-0m329.068,-0l-5.307,1.326l-4.644,2.986l-2.986,4.644l-0.995,5.308l0.995,5.307l2.986,4.644l4.644,2.986l5.307,0.995m0,-0l206.995,-0m-0,-0l5.307,-0.995l4.644,-2.986l2.986,-4.644l0.995,-5.307l-0.995,-5.308l-2.986,-4.644l-4.644,-2.986l-5.307,-1.326m-0,-0l-206.995,-0m-1645.67,-0l-5.307,1.326l-4.645,2.986l-2.985,4.644l-0.995,5.308l0.995,5.307l2.985,4.644l4.645,2.986l5.307,0.995m0,-0l206.994,-0m0,-0l5.308,-0.995l4.644,-2.986l2.986,-4.644l1.326,-5.307l-1.326,-5.308l-2.986,-4.644l-4.644,-2.986l-5.308,-1.326m0,-0l-206.994,-0m-658.136,-0l-5.307,1.326l-4.644,2.986l-2.986,4.644l-0.995,5.308l0.995,5.307l2.986,4.644l4.644,2.986l5.307,0.995m0,-0l206.995,-0m-0,-0l5.307,-0.995l4.644,-2.986l2.986,-4.644l0.995,-5.307l-0.995,-5.308l-2.986,-4.644l-4.644,-2.986l-5.307,-1.326m-0,-0l-206.995,-0m329.068,-0l-5.307,1.326l-4.644,2.986l-2.986,4.644l-0.995,5.308l0.995,5.307l2.986,4.644l4.644,2.986l5.307,0.995m0,-0l206.995,-0m-0,-0l5.307,-0.995l4.644,-2.986l2.986,-4.644l0.995,-5.307l-0.995,-5.308l-2.986,-4.644l-4.644,-2.986l-5.307,-1.326m-0,-0l-206.995,-0m987.536,-56.393l-5.64,1.327l-4.312,2.985l-3.317,4.644l-0.995,5.308l0.995,5.307l3.317,4.645l4.312,2.985l5.64,0.995m-0,0l206.662,0m0,0l5.639,-0.995l4.313,-2.985l3.317,-4.645l0.995,-5.307l-0.995,-5.308l-3.317,-4.644l-4.313,-2.985l-5.639,-1.327m0,-0l-206.662,-0m-1645.67,-0l-5.307,1.327l-4.644,2.985l-2.986,4.644l-0.995,5.308l0.995,5.307l2.986,4.645l4.644,2.985l5.307,0.995m0,0l206.995,0m-0,0l5.307,-0.995l4.644,-2.985l2.986,-4.645l0.995,-5.307l-0.995,-5.308l-2.986,-4.644l-4.644,-2.985l-5.307,-1.327m-0,-0l-206.995,-0m1974.74,-0l-5.307,1.327l-4.644,2.985l-2.986,4.644l-1.327,5.308l1.327,5.307l2.986,4.645l4.644,2.985l5.307,0.995m0,0l206.663,0m0,0l5.639,-0.995l4.644,-2.985l2.986,-4.645l0.995,-5.307l-0.995,-5.308l-2.986,-4.644l-4.644,-2.985l-5.639,-1.327m0,-0l-206.663,-0m329.068,-0l-5.307,1.327l-4.644,2.985l-2.986,4.644l-1.327,5.308l1.327,5.307l2.986,4.645l4.644,2.985l5.307,0.995m0,0l206.995,0m-0,0l5.307,-0.995l4.644,-2.985l2.986,-4.645l0.995,-5.307l-0.995,-5.308l-2.986,-4.644l-4.644,-2.985l-5.307,-1.327m-0,-0l-206.995,-0m329.068,-0l-5.307,1.327l-4.644,2.985l-2.986,4.644l-0.995,5.308l0.995,5.307l2.986,4.645l4.644,2.985l5.307,0.995m0,0l206.995,0m-0,0l5.307,-0.995l4.644,-2.985l2.986,-4.645l0.995,-5.307l-0.995,-5.308l-2.986,-4.644l-4.644,-2.985l-5.307,-1.327m-0,-0l-206.995,-0m-1645.67,-0l-5.307,1.327l-4.645,2.985l-2.985,4.644l-0.995,5.308l0.995,5.307l2.985,4.645l4.645,2.985l5.307,0.995m0,0l206.994,0m0,0l5.308,-0.995l4.644,-2.985l2.986,-4.645l1.326,-5.307l-1.326,-5.308l-2.986,-4.644l-4.644,-2.985l-5.308,-1.327m0,-0l-206.994,-0m-658.136,-0l-5.307,1.327l-4.644,2.985l-2.986,4.644l-0.995,5.308l0.995,5.307l2.986,4.645l4.644,2.985l5.307,0.995m0,0l206.995,0m-0,0l5.307,-0.995l4.644,-2.985l2.986,-4.645l0.995,-5.307l-0.995,-5.308l-2.986,-4.644l-4.644,-2.985l-5.307,-1.327m-0,-0l-206.995,-0m329.068,-0l-5.307,1.327l-4.644,2.985l-2.986,4.644l-0.995,5.308l0.995,5.307l2.986,4.645l4.644,2.985l5.307,0.995m0,0l206.995,0m-0,0l5.307,-0.995l4.644,-2.985l2.986,-4.645l0.995,-5.307l-0.995,-5.308l-2.986,-4.644l-4.644,-2.985l-5.307,-1.327m-0,-0l-206.995,-0m-853.851,-695.62l3230.97,-0m15.591,29.854l-3.649,-10.283l-3.318,-9.288l-3.649,-6.635l-3.317,-3.317l-1.658,-0.331m-3230.97,-0l-3.318,1.658l-3.317,5.639l-3.649,7.962l-3.317,10.283l-1.659,4.312m3261.82,1021.37l-0,30.187m-0,0l-3261.82,0m0,0l0,-30.187m3258.17,-1031.65l2.985,4.312l1.327,5.971m-16.254,-29.854l11.61,2.322l9.62,6.302l6.634,9.952l2.322,11.278m-3277.08,0l1.327,-5.971l2.985,-4.644m-18.244,10.615l2.322,-11.278l6.302,-9.952l9.952,-6.302l11.279,-2.322m-29.855,1062.5l13.932,0m-0,18.908l-13.932,0m-0,0l-0,-18.908m13.932,0l-0,18.908m-13.932,-18.908l-0,-11.279m13.932,0l-0,11.279m3277.08,18.908l-13.932,0m0,-18.908l13.932,0m0,0l0,18.908m-13.932,0l0,-18.908m13.932,0l0,-11.279m-13.932,0l0,11.279m-0.663,311.487l-3.649,-10.615l-3.318,-8.957l-3.649,-6.634l-3.317,-3.649l-1.658,-0.332m-3246.23,30.187l3261.82,-0m-3246.56,-30.187l-3.318,1.99l-3.317,5.308l-3.649,8.293l-3.317,9.952l-1.659,4.644m15.26,-30.187l3230.97,0m-3260.82,1098.33l14.595,0m-14.595,-1068.14l-0,1068.14m3276.41,-1068.14l14.595,-0m0,-0l0,1068.14m0,0l-14.595,0m-3261.82,0l3261.82,0m-3261.82,-1068.14l-14.595,-0m14.595,1098.33l0,-30.187m3261.82,0l-0,30.187m-3276.41,-1098.33l2.322,-11.611l6.302,-9.62l9.952,-6.634l11.279,-2.322m-15.923,30.187l1.327,-6.303l2.985,-4.312m3242.58,-19.572l11.61,2.322l9.62,6.634l6.634,9.62l2.322,11.611m-18.244,-10.615l2.985,4.312l1.327,6.303m13.932,1079.42l0,-11.279m-13.932,11.279l13.932,-0m-13.932,-11.279l0,11.279m0,18.908l0,-18.908m13.932,-0l0,18.908m-3291.01,-18.908l13.932,-0m-13.932,18.908l-0,-18.908m13.932,-0l-0,18.908m-13.932,-18.908l-0,-11.279m13.932,0l-0,11.279m3608.8,18.908l0.995,0.995l1.327,3.649l1.327,5.308l0.995,6.634l0.995,4.313m0,-0l-3965.73,-0m-0,-0l1.327,-6.967l1.327,-6.302l0.995,-4.644l1.327,-2.654l0.663,-0.332m0,0l3954.45,0m-3970.71,20.899l-0.996,-0l-0.663,0.331l-0.995,0.332l-1.327,1.327l-0.663,1.99l-0,0.664m15.259,-4.644l-10.615,-0m3976.35,-0l10.615,-0m4.644,4.644l0,-0.664l-0.663,-1.99l-1.327,-1.327l-0.995,-0.332l-0.663,-0.331l-0.996,-0m4.644,4.644l0,508.529m-4.644,4.644l0.996,-0.332l0.663,0l0.995,-0.663l0.664,-0.332l0.663,-0.995l0.332,-0.663l0.331,-0.996l0,-0.663m-4.644,4.644l-10.615,0m-3965.73,0l3965.73,0m-3976.35,0l10.615,0m-15.259,-4.644l-0,0.663l0.331,0.996l0.332,0.663l0.663,0.995l0.664,0.332l0.995,0.663l0.663,0l0.996,0.332m-4.644,-513.173l-0,508.529m2844.51,-160.222l422.945,0m-0,0l-0,-188.086m-0,0l-422.945,0m-0,0l-0,188.086m-1865.93,-125.722l-0.331,-2.322l-1.327,-1.99l-1.99,-1.327l-2.323,-0.332l-2.653,0.332l-1.991,1.327l-1.327,1.99l-0.331,2.322l0.331,2.322l1.327,1.99l1.991,1.327l2.653,0.664l2.323,-0.664l1.99,-1.327l1.327,-1.99l0.331,-2.322m2992.46,305.516l-3945.83,-0m0,-0l-2.322,-3.318l-2.653,-3.649l-2.322,-3.98l-2.654,-3.981m3965.73,0l-2.654,3.981l-2.322,3.98l-2.653,3.649l-2.322,3.318m-3945.83,-0l-0.995,-0l-1.327,0.331l-1.327,1.327l-0.331,0.995l-0,1.659l0.663,0.663m3952.46,0l0.663,-1.326l0,-0.996l-0.331,-0.995l-0.664,-0.663l-0.995,-0.664l-0.995,-0.331l-0.995,-0m-160.222,168.514l163.539,-163.539m-167.188,164.866l0.995,0l0.664,-0.332l0.331,0l0.664,-0.331l0.663,-0.664l0.332,0m-9.952,1.327l6.303,0m-6.303,0l-3605.81,0m-5.971,0l5.971,0m-9.952,-1.327l0.332,0l0.663,0.332l0.664,0.663l0.663,0l0.664,0.332l0.995,0m-167.188,-164.866l163.207,163.539m-180.456,-183.442l-4.644,0m4.644,-517.817l-4.644,-0m-0,-0l-0,4.644m-0,508.529l-0,4.644m3991.61,0l4.644,0m0,-517.817l0,4.644m0,508.529l0,4.644m-4.644,-517.817l4.644,-0m-13.932,-0l-0.663,-2.654l-1.659,-2.322m16.254,4.976l-1.658,-7.962l-4.644,-6.966l-6.635,-4.312l-7.961,-1.659m-3959.1,15.923l-0.332,-0l-1.327,2.322l-0.663,2.654m6.966,-20.899l-7.961,1.659l-6.966,4.312l-4.313,6.966l-1.658,7.962m13.932,517.817l0.332,1.659l1.658,3.317m-9.951,9.952l9.951,-9.952m-15.922,-4.976l0.331,3.981l1.327,3.98l1.659,3.649l2.654,3.318m3983.98,-0l-9.952,-9.952m0,-0l0.995,-1.327l0.995,-1.659l0.332,-1.99m7.63,14.928l2.654,-3.318l1.99,-3.649l1.327,-3.98l0.331,-3.981m-3980.33,4.976l0.332,-0l4.976,4.976m-9.952,9.951l-0.663,-0.663l-0.996,-0.663l-0.663,-0.996l-2.654,-2.653l-0.331,-0m3969.05,-4.976l0.664,-0.664l0.663,-0.995l0.995,-0.663l2.654,-2.654m9.952,9.952l-2.654,2.653l-0.663,0.996l-0.996,0.663l-0.663,0.663m-3973.69,0l163.207,163.539m3647.28,0l163.207,-163.539m-184.106,164.866l0,5.971m-3605.81,0l3605.81,0m-3605.81,0l-0,-5.971m-13.601,-5.307l-5.307,5.307m-0,0l-0.332,0l0,-0.332l-0.332,0l0,-0.331l-0.663,-0.664l-0.332,0m3645.62,1.327l-5.307,-5.307m6.966,3.98l-0.332,0l-0.995,0.995l-0,0.332l-0.332,0m-3629.37,5.971l3.649,0m0,-5.971l0,5.971m0.664,0l-0.664,0m3607.14,-5.971l-0,5.971m-0,0l-0.664,0m0.664,0l3.649,0m-3629.03,-5.971l1.327,1.327l1.658,1.327l1.991,0.995l1.658,0.995l1.991,0.664l3.98,0.663l1.99,0m3614.44,0l2.322,0l3.98,-0.663l1.991,-0.664l1.658,-0.995l1.991,-0.995l1.658,-1.327l1.327,-1.327m-3147.38,-412.993l0,3.649m-651.501,234.858l-6.635,6.303l-3.317,3.317m3973.69,0l-6.635,-6.634l-3.317,-2.986m-3800.53,173.159l5.308,-5.307m3636.33,-0l5.639,5.307m-3631.03,1.327l0,5.971m3614.44,-5.971l-0,5.971" style="fill:none;fill-rule:nonzero;stroke:#000;stroke-width:6.25px;stroke-linecap:round;stroke-miterlimit:10;"/></g></g></svg>