<?xml version="1.0" encoding="UTF-8" standalone="no"?><!DOCTYPE svg PUBLIC "-//W3C//DTD SVG 1.1//EN" "http://www.w3.org/Graphics/SVG/1.1/DTD/svg11.dtd"><svg width="100%" height="100%" viewBox="0 0 8000 4500" version="1.1" xmlns="http://www.w3.org/2000/svg" xmlns:xlink="http://www.w3.org/1999/xlink" xml:space="preserve" xmlns:serif="http://www.serif.com/" style="fill-rule:evenodd;clip-rule:evenodd;stroke-linecap:round;stroke-linejoin:round;stroke-miterlimit:10;"><g><path d="M8000,112.372c0,-62.02 -50.352,-112.372 -112.372,-112.372l-7775.26,0c-62.02,0 -112.372,50.352 -112.372,112.372l0,4275.26c0,62.02 50.352,112.372 112.372,112.372l7775.26,-0c62.02,-0 112.372,-50.352 112.372,-112.372l0,-4275.26Z" style="fill:#fafafa;"/><g><path d="M3426.15,3261.62l0,-54.695m-198.797,-0l-0,54.695m-0,0l4.908,4.909m188.805,-0l5.084,-4.909m-186.876,4.909l-0,7.538m174.955,-0l0,-7.538m1159.83,-4.909l4.908,4.909m188.805,-0l5.084,-4.909m0,0l0,-54.695m-198.797,-0l-0,54.695m11.92,4.909l0,7.538m174.956,-0l0,-7.538m-1150.01,-614.274l-0.35,1.403l-0.526,2.629l-0.176,2.805m0,0l0,8.239m0,14.901l0,14.902m0,14.901l0,14.901m0,69.596l0,8.941m109.391,-0l0,-8.941m-109.391,8.941l0.176,1.578l0.35,1.402l0.526,1.403l0.877,1.402l0.876,1.227l2.454,1.753l1.403,0.701m96.243,0l1.403,-0.701l1.227,-0.876l1.052,-0.877l1.051,-1.227l0.702,-1.402l0.526,-1.403l0.35,-1.402l0.175,-1.578m-102.729,9.466l15.953,5.786m64.337,-0l15.953,-5.786m-5.61,-177.585l-1.928,-1.578m-81.167,0l-2.104,1.578m83.271,-1.578l-3.681,-2.629l-2.455,-1.403l-1.402,-0.701l-1.227,-0.526l-1.403,-0.526m-60.831,0l-2.805,1.052l-2.454,1.402l-1.403,0.702l-1.227,0.876l-1.052,0.877l-1.227,0.876m8.415,184.949l0.35,0.175l0.526,-0l0.351,0.175l0.351,0l0.525,0.175l1.228,0m57.5,0l1.403,0l0.35,-0.175l0.526,0l0.351,-0.175l0.35,-0l0.526,-0.175m-47.157,-198.097l-1.753,1.052l-1.929,1.052l-1.928,0.877l-1.928,1.051l-3.857,1.753l-2.104,0.702l-1.928,0.876m60.831,0l-2.103,-0.876l-1.929,-0.702l-3.857,-1.753l-1.928,-1.051l-1.928,-0.877l-3.857,-2.104m-0,0l-0.175,-0.175m-29.277,0l-0.35,0.175m5.084,-16.303l-0,1.227m19.809,-0l0,-1.227m-15.953,-4.032l-0.701,-0l-1.402,0.701l-0.701,0.526l-0.526,0.526l-0.351,0.701l-0.175,0.701l-0,0.877m19.809,-0l0,-0.877l-0.701,-1.402l-1.052,-1.052l-1.402,-0.701l-0.877,-0m-8.94,-2.455l-0,0.526l-0.176,0.351l-0.175,0.526l-0.701,0.701l-0.351,0.175l-0.526,0.176l-0.526,-0m10.869,-0l-0.35,-0l-0.526,-0.176l-0.351,-0.175l-0.526,-0.35l-0.175,-0.351l-0.351,-0.526l0,-0.351l-0.175,-0.526m-3.506,-7.012l-0.351,0l-0.526,0.176l-0.35,0.35l-0.526,0.175l-0.175,0.351l-0.351,0.526l-0,0.526l-0.175,0.351m5.96,-0l0,-0.351l-0.351,-1.052l-0.35,-0.351l-0.351,-0.175l-0.35,-0.35l-0.526,-0.176l-0.526,0m-3.506,2.455l-0,4.557m5.96,0l0,-4.557m-171.8,63.811l-0.175,-2.805l-0.526,-2.629l-0.351,-1.403m-108.339,153.218l0.175,1.578l0.351,1.402l0.525,1.403l0.702,1.402l1.052,1.227l1.051,0.877l1.227,0.876l1.403,0.701m96.243,0l1.403,-0.701l2.454,-1.753l0.876,-1.227l0.877,-1.402l0.526,-1.403l0.351,-1.402l0.175,-1.578m-109.391,-8.941l-0,8.941m109.391,-0l-0,-8.941m-0,-69.596l-0,-14.901m-0,-14.901l-0,-14.902m-0,-14.901l-0,-8.239m-102.905,155.847l15.953,5.786m64.337,-0l15.953,-5.786m-5.434,-177.585l-2.104,-1.578m-0,0l-1.052,-0.876l-2.454,-1.753l-1.227,-0.702l-1.403,-0.701l-1.227,-0.701l-2.805,-1.052m-62.584,190.734l0.526,0.175l0.35,-0l0.351,0.175l0.526,0l0.351,0.175l1.402,0m57.5,0l1.228,0l0.526,-0.175l0.35,0l0.351,-0.175l0.526,-0l0.35,-0.175m-46.982,-198.097l-3.857,2.104l-1.928,0.877l-1.928,1.051l-1.929,0.877m54.871,2.454l-1.928,-0.876l-2.104,-0.702l-3.857,-1.753l-1.928,-1.051l-1.928,-0.877l-1.929,-1.052l-1.753,-1.052m0,0l-0.35,-0.175m-29.277,0l-0.175,0.175m4.909,-16.303l-0,1.227m19.809,-0l0,-1.227m-15.777,-4.032l-0.877,-0l-1.402,0.701l-1.052,1.052l-0.701,1.402l-0,0.877m19.809,-0l0,-0.877l-0.175,-0.701l-0.351,-0.701l-0.525,-0.526l-0.702,-0.526l-1.402,-0.701l-0.701,-0m-8.941,-2.455l-0.175,0.526l-0,0.351l-0.351,0.526l-0.175,0.351l-0.526,0.35l-0.351,0.175l-0.526,0.176l-0.35,-0m10.869,-0l-0.526,-0l-0.526,-0.176l-0.351,-0.175l-0.701,-0.701l-0.175,-0.526l-0.176,-0.351l0,-0.526m-5.96,-4.557l-0,4.557m5.96,0l0,-4.557m-3.506,-2.455l-0.526,0l-0.526,0.176l-0.35,0.35l-0.351,0.175l-0.35,0.351l-0.351,1.052l-0,0.351m5.96,-0l-0.175,-0.351l0,-0.526l-0.351,-0.526l-0.175,-0.351l-0.526,-0.175l-0.35,-0.35l-0.526,-0.176l-0.351,0m839.192,203.706l-0,8.941m109.391,-0l0,-8.941m0,-69.596l0,-14.901m0,-14.901l0,-14.902m0,-14.901l0,-8.239m0,0l-0.175,-2.805l-0.526,-2.629l-0.175,-1.403m-108.515,153.218l0.175,1.578l0.351,1.402l0.526,1.403l0.876,1.402l0.877,1.227l1.052,0.877l1.402,0.876l1.403,0.701m96.243,0l1.227,-0.701l1.402,-0.876l1.052,-0.877l1.052,-1.227l0.701,-1.402l0.526,-1.403l0.351,-1.402l0.175,-1.578m-102.729,9.466l15.952,5.786m64.163,-0l16.128,-5.786m-5.61,-177.585l-2.104,-1.578m-80.991,0l-2.104,1.578m83.095,-1.578l-1.052,-0.876l-2.454,-1.753l-1.227,-0.702l-1.402,-0.701l-1.228,-0.701l-2.804,-1.052m-60.656,0l-2.805,1.052l-1.228,0.701l-1.402,0.701l-1.227,0.702l-2.454,1.753l-1.052,0.876m8.414,184.949l0.351,0.175l0.351,-0l0.526,0.175l0.35,0l0.526,0.175l1.227,0m57.501,0l1.227,0l0.526,-0.175l0.35,0l0.526,-0.175l0.351,-0l0.351,-0.175m-46.983,-198.097l-1.928,1.052l-1.753,1.052l-1.928,0.877l-1.929,1.051l-1.928,0.877l-2.104,0.876l-1.928,0.702l-1.928,0.876m60.656,0l-1.929,-0.876l-1.928,-0.702l-1.929,-0.876l-2.103,-0.877l-1.929,-1.051l-1.753,-0.877l-3.856,-2.104m-0,0l-0.176,-0.175m-29.451,0l-0.176,0.175m4.909,-16.303l0,1.227m19.985,-0l-0,-1.227m-15.953,-4.032l-0.701,-0l-0.877,0.35l-0.701,0.351l-1.052,1.052l-0.35,0.701l-0.176,0.701l-0.175,0.877m19.985,-0l-0.175,-0.877l-0.176,-0.701l-0.35,-0.701l-1.052,-1.052l-1.403,-0.701l-0.876,-0m-8.941,-2.455l0,0.526l-0.175,0.351l-0.175,0.526l-0.702,0.701l-0.525,0.175l-0.351,0.176l-0.526,-0m10.869,-0l-0.526,-0l-0.351,-0.176l-0.525,-0.175l-0.702,-0.701l-0.175,-0.526l-0.175,-0.351l-0,-0.526m-5.961,-4.557l0,4.557m5.961,0l-0,-4.557m-3.506,-2.455l-0.526,0l-0.351,0.176l-0.526,0.35l-0.35,0.175l-0.351,0.351l-0.351,1.052l0,0.351m5.961,-0l-0,-0.351l-0.351,-1.052l-0.35,-0.351l-0.351,-0.175l-0.526,-0.35l-0.351,-0.176l-0.526,0m168.47,212.647l0.175,1.578l0.176,1.402l1.402,2.805l1.052,1.227l1.052,0.877l1.227,0.876l1.402,0.701m96.243,0l1.403,-0.701l2.454,-1.753l0.877,-1.227l0.876,-1.402l0.526,-1.403l0.351,-1.402l-0,-1.578m-108.34,-153.218l-0.35,1.403l-0.351,2.629l-0.175,2.805m-0,0l-0,8.239m-0,14.901l-0,14.902m-0,14.901l-0,14.901m-0,69.596l-0,8.941m109.216,-0l-0,-8.941m-102.73,18.407l15.953,5.786m64.338,-0l15.952,-5.786m-88.705,-179.163l-1.928,1.578m12.096,-7.363l-1.402,0.526l-1.227,0.526l-1.403,0.701l-2.454,1.403l-3.682,2.629m8.415,184.949l0.526,0.175l0.351,-0l0.35,0.175l0.526,0l0.351,0.175l1.402,0m57.501,0l1.227,0l0.526,-0.175l0.35,0l0.351,-0.175l0.526,-0l0.351,-0.175m-46.983,-198.097l-3.856,2.104l-1.929,0.877l-1.928,1.051l-3.857,1.753l-1.928,0.702l-2.104,0.876m54.871,-2.454l-1.928,-0.877l-1.929,-1.051l-1.928,-0.877l-1.928,-1.052l-1.753,-1.052m-0,0l-0.351,-0.175m-29.276,0l-0.176,0.175m8.941,-20.335l-0.876,-0l-1.403,0.701l-1.052,1.052l-0.701,1.402l0,0.877m19.81,-0l-0,-0.877l-0.176,-0.701l-0.35,-0.701l-0.526,-0.526l-0.701,-0.526l-1.403,-0.701l-0.701,-0m-15.953,4.032l0,1.227m19.81,-0l-0,-1.227m-12.798,-6.487l-0.175,0.526l-0,0.351l-0.351,0.526l-0.175,0.351l-0.526,0.35l-0.35,0.175l-0.526,0.176l-0.526,-0m11.044,-0l-0.526,-0l-0.526,-0.176l-0.35,-0.175l-0.702,-0.701l-0.175,-0.526l-0.175,-0.351l-0,-0.526m-3.506,-7.012l-0.526,0l-0.526,0.176l-0.351,0.35l-0.35,0.175l-0.351,0.351l-0.351,1.052l0,0.351m5.961,-0l-0.176,-0.351l0,-0.526l-0.35,-0.526l-0.176,-0.351l-0.525,-0.175l-0.351,-0.35l-0.526,-0.176l-0.526,0m-3.331,2.455l0,4.557m5.961,0l-0,-4.557m-728.574,63.811l0,8.239m0,14.901l0,14.902m0,14.901l0,14.901m0,69.596l0,8.941m109.391,-0l0,-8.941m0,-70.122l0,-14.025m0,-15.777l0,-14.025m0,-15.777l0,-7.714m-109.391,146.381l0.176,1.578l0.35,1.402l0.526,1.403l0.701,1.402l1.052,1.227l1.052,0.877l1.402,0.876l1.228,0.701m96.243,0l1.402,-0.701l1.403,-0.876l1.052,-0.877l0.876,-1.227l0.877,-1.402l0.526,-1.403l0.35,-1.402l0.175,-1.578m0,-146.381l-0.175,-2.805l-0.526,-2.629l-0.175,-0.526m-107.638,-0.877l-0.176,1.403l-0.525,2.629l-0.176,2.805m6.487,155.847l16.128,5.786m64.162,-0l15.953,-5.786m-88.53,-179.163l-2.104,1.578m12.272,-7.363l-2.805,1.052l-1.402,0.701l-2.455,1.403l-2.454,1.753l-1.052,0.876m8.415,184.949l0.35,0.175l0.351,-0l0.526,0.175l0.351,0l0.35,0.175l1.403,0m57.5,0l1.227,0l0.526,-0.175l0.351,0l0.526,-0.175l0.35,-0l0.351,-0.175m-46.982,-198.097l-3.857,2.104l-1.753,0.877l-1.928,1.051l-2.104,0.877l-1.928,0.876l-1.929,0.702l-1.928,0.876m15.602,-7.538l-0.175,0.175m4.908,-16.303l0,1.227m4.032,-5.259l-0.876,-0l-1.403,0.701l-1.051,1.052l-0.351,0.701l-0.175,0.701l-0.176,0.877m7.013,-6.487l-0,0.526l-0.176,0.351l-0.35,0.526l-0.176,0.351l-0.35,0.35l-1.052,0.351l-0.351,-0m2.455,-7.012l-0,4.557m0.175,-5.434l-0.175,0.526l-0,0.351m281.191,63.811l-0.175,-2.805l-0.351,-2.629l-0.35,-1.403m-107.639,0.877l-0.175,0.526l-0.35,2.629l-0.176,2.805m0,0l0,7.714m0,15.777l0,14.025m0,15.777l0,14.025m0,70.122l0,8.941m109.216,-0l0,-8.941m0,-69.596l0,-14.901m0,-14.901l0,-14.902m0,-14.901l0,-8.239m-109.216,146.381l0,1.578l0.351,1.402l1.402,2.805l0.877,1.227l2.454,1.753l1.403,0.701m96.243,0l1.402,-0.701l2.455,-1.753l0.876,-1.227l1.403,-2.805l0.35,-1.402l0,-1.578m-102.729,9.466l15.952,5.786m64.338,-0l15.953,-5.786m-5.435,-177.585l-2.103,-1.578m-0,0l-3.682,-2.629l-2.454,-1.403l-1.403,-0.701l-1.227,-0.526l-1.402,-0.526m-62.585,190.734l0.351,0.175l0.526,-0l0.351,0.175l0.526,0l0.35,0.175l1.227,0m57.501,0l1.402,0l0.351,-0.175l0.526,0l0.35,-0.175l0.526,-0l0.351,-0.175m-1.753,-190.734l-2.104,-0.876l-1.928,-0.702l-3.857,-1.753l-1.928,-1.051l-1.929,-0.877l-1.928,-1.052l-1.753,-1.052m-0,0l-0.351,-0.175m-4.733,-16.128l0,-0.877l-0.701,-1.402l-0.351,-0.526l-0.701,-0.526l-1.403,-0.701l-0.876,-0m4.032,5.259l0,-1.227m-4.383,-4.032l-0.526,-0l-0.525,-0.176l-0.351,-0.175l-0.701,-0.701l-0.176,-0.526l-0.175,-0.351l-0.175,-0.526m-0,0l-0,-4.557m-0,-0l-0,-0.351l-0.176,-0.526m-653.892,356.398l-0,3.506m-0.877,-4.383l-0,5.26m19.985,11.219l-0,-4.207m-124.468,-165.665l0,24.718m171.45,0l0,-24.718m949.46,123.065l0.35,0.351l1.753,1.402l1.227,0.702m159.003,-0l1.227,-0.702l1.754,-1.402l0.35,-0.351m-168.469,-123.065l-0,24.718m171.449,0l0,-24.718m-916.852,0l-0,24.718m544.151,0l-0,-24.718m-570.447,-412.496l-10.869,10.519l-3.682,4.382m-10.518,14.901l-4.558,7.889l-3.331,7.012m-5.434,14.901l-2.279,9.116l-1.052,5.786m-1.578,14.901l0,12.096l0.175,2.805m310.118,-0l0.175,-2.805l0.175,-12.096m-1.753,-14.901l-1.052,-5.786l-2.279,-9.116m-5.434,-14.901l-3.331,-7.012l-4.383,-7.889m-290.307,89.407l2.805,14.901m2.629,14.901l2.805,14.901m2.63,14.901l2.805,14.901m2.629,14.901l2.805,14.901m2.63,14.901l0.35,1.928m259.805,12.447l2.629,-14.375m2.805,-14.901l2.63,-14.901m2.805,-14.901l2.629,-14.901m2.805,-14.901l2.63,-14.901m2.805,-14.901l2.629,-14.901m-637.765,-119.209l-10.869,10.519l-3.681,4.382m-10.518,14.901l-4.558,7.889l-3.331,7.012m-5.435,14.901l-2.279,9.116l-1.052,5.786m-1.577,14.901l-0,12.096l0.175,2.805m310.292,-0.176l0,-2.629l0.176,-11.921m-1.753,-15.602l-1.052,-5.26l-1.578,-6.661m-304.157,57.15l2.805,14.901m2.63,14.901l2.805,14.901m2.629,14.901l2.805,14.901m2.63,14.901l2.805,14.901m2.629,14.901l2.805,14.901m2.63,14.901l2.805,15.076m2.805,14.901l2.629,14.902m2.805,14.901l2.63,14.901m263.135,-211.42l2.103,-11.395m-247.182,-146.03l-0.175,2.63l-0.351,2.454l-0.876,2.629l-0.877,2.455l-0.526,1.052m193.539,-1.578l-0.877,-1.929l-0.701,-2.629l-0.526,-2.454l-0.175,-2.63m-0,-0l-0,-3.331m-0.351,-15.602l-0.175,-14.375m-0.175,-15.252l-0.351,-14.726m-186.351,0l-0.175,14.901m-0.351,14.901l-0.175,14.901m-0.175,14.901l-0.176,3.682m1061.31,88.004l-1.577,6.661l-1.052,5.26m-1.578,15.602l0,11.921l0.175,2.629m310.117,0.176l0.176,-2.805l0.175,-12.096m-1.753,-14.901l-1.052,-5.786l-2.279,-9.116m-5.434,-14.901l-3.331,-7.012l-4.383,-7.889m-10.694,-14.901l-3.681,-4.382l-10.869,-10.519m-264.888,120.085l2.104,11.395m263.135,211.42l2.805,-14.901m2.629,-14.901l2.805,-14.902m2.63,-14.901l2.805,-15.076m2.629,-14.901l2.805,-14.901m2.63,-14.901l2.805,-14.901m2.804,-14.901l2.63,-14.901m2.805,-14.901l2.63,-14.901m2.804,-14.901l2.63,-14.901m-247.357,-145.154l-0.176,2.63l-0.526,2.454l-0.701,2.629l-0.701,1.929m193.538,1.578l-0.526,-1.052l-1.051,-2.455l-0.702,-2.629l-0.526,-2.454l-0.175,-2.63m0,-0l0,-3.682m-0.351,-14.901l-0.175,-14.901m-0.175,-14.901l-0.351,-14.901m-186.35,0l-0.176,14.726m-0.35,15.252l-0.176,14.375m-0.35,15.602l-0,3.331m-415.477,55.747l-4.558,7.889l-3.33,7.012m-5.435,14.901l-2.279,9.116l-1.052,5.786m-1.577,14.901l-0,12.096l0.175,2.805m310.117,-0l0.175,-2.805l0.176,-12.096m-1.754,-14.901l-1.051,-5.786l-2.279,-9.116m-5.435,-14.901l-3.331,-7.012l-4.382,-7.889m-10.694,-14.901l-3.681,-4.382l-10.869,-10.519m-265.064,119.209l2.805,14.901m2.63,14.901l2.805,14.901m2.629,14.901l2.805,14.901m2.63,14.901l2.805,14.901m2.629,14.901l2.63,14.375m259.804,-12.447l0.351,-1.928m2.804,-14.901l2.63,-14.901m2.805,-14.901l2.63,-14.901m2.804,-14.901l2.63,-14.901m2.805,-14.901l2.63,-14.901m-1384.22,607.612l0,4.733m2089.65,-0l-0,-4.733m-1482.04,-131.655l-2.279,-4.383l0,-0.175m-261.908,9.466l0,4.733m1369.67,-66.791l-218.607,-0m0,-0l0,94.315m0,-0l218.607,-0m0,-0l0,-94.315m-1113.9,57.325l1.052,-0.877m0,0l0.877,-1.227m-0,0l0.701,-1.227m0,0l0.351,-1.227m-0,-0l-0,-1.403m-0,0l-0.351,-1.402m0,-0l-0.876,-1.227m-0,-0l-1.228,-1.227m0,-0l-1.402,-0.702m-0,0l-1.578,-0.175m0,0l-1.402,0.175m-0,0l-1.227,0.526m-0,0l-1.052,1.052m-0,0l-0.351,1.403m0,-0l0.175,1.928m0,0l0,0.877m0,-0l-0.175,0.876m0,0l-1.052,1.227m0,0l-1.577,0.877m-0,-0l-1.754,0.35m0,0l0.176,0m-0,0l0.876,1.052m0,0l1.052,0.877m0,-0l2.454,1.052m0,-0l1.228,0.175m-0,-0l1.402,-0.175m0,-0l1.402,-0.176m0,0l1.228,-0.526m-0,0l1.051,-0.876m-108.69,-36.464l1.052,-2.104m0,0l0.351,-1.051m-0,-0l-0,-1.228m-0,0l-0.175,-1.051m-0,-0l-0.702,-0.877m0,0l-0.35,-0.351m-0,0l-0.701,0m-0,0l-1.578,0.526m-0,0l-1.578,1.228m0,-0l-1.928,1.753m-0,-0l-3.331,3.681m-0,0l-2.104,2.63m0,-0l-1.753,2.279m0,-0l-1.402,2.279m-0,-0l-2.279,5.083m-0,0l8.414,-5.434m0,-0l3.682,-2.454m-0,-0l1.578,-1.403m-0,0l1.577,-1.753m0,0l1.227,-1.753m-62.759,27.348l-0.351,-1.403m0,0l-0.526,-1.051m0,-0l-1.052,-0.702m0,0l-1.051,0m-0,0l-1.228,0.702m0,-0l-0.876,1.051m-0,0l-0.526,1.578m-0,0l-0.175,1.578m-0,-0l0.175,1.402m-0,0l0.701,1.052m0,0l0.877,0.526m-0,0l1.227,0m-0,0l1.052,-0.701m-0,-0l0.876,-1.052m0,0l0.701,-1.402m0,-0l0.176,-1.578m-91.685,0.351l2.629,-1.403m0,0l1.578,-1.402m-0,-0l0.526,-0.702m-0,0l-0,-0.701m-0,0l-0.351,-0.526m0,0l-0.701,-0.526m-0,0l-2.104,-0.526m0,0l-3.155,0m-0,0l-3.506,0.702m-0,-0l-3.331,1.051m-0,0l-2.805,1.403m-0,-0l-1.578,1.402m0,0l-0.35,0.702m-0,-0l-0,0.701m-0,-0l0.35,0.701m0,0l0.526,0.351m0,-0l2.279,0.526m0,-0l2.98,-0m0,-0l3.506,-0.526m0,-0l3.507,-1.227m315.726,1.753l-1.051,0.876m2.279,-1.052l-1.228,0.176m2.279,0.175l-1.051,-0.351m2.279,1.052l-1.228,-0.701m2.104,1.753l-0.876,-1.052m1.402,2.279l-0.526,-1.227m0.526,2.454l-0,-1.227m-0.526,2.454l0.526,-1.227m-2.805,4.032l2.279,-2.805m-5.084,5.26l2.805,-2.455m-5.96,4.734l3.155,-2.279m-6.486,4.207l3.331,-1.928m-6.837,3.506l3.506,-1.578m-10.869,2.805l3.681,-0.351m-7.363,0l3.682,0.351m-6.837,-1.227l3.155,0.876m-6.135,-2.454l2.98,1.578m-5.435,-3.682l2.455,2.104m-4.383,-4.909l1.928,2.805m-2.629,-4.382l0.701,1.577m-1.753,-3.33l1.052,1.753m-1.753,-2.279l0.701,0.526m-1.403,-0.702l0.702,0.176m-1.578,-0l0.876,-0.176m-1.753,0.877l0.877,-0.701m-1.928,2.279l1.051,-1.578m-1.928,3.331l0.877,-1.753m-1.929,5.434l1.052,-3.681m-1.402,4.558l0.35,-0.877m-0.876,1.403l0.526,-0.526m-1.403,0.876l0.877,-0.35m-1.753,0.35l0.876,0m-2.104,-0.35l1.228,0.35m-2.279,-0.701l1.051,0.351m-1.928,-1.228l0.877,0.877m-1.403,-1.928l0.526,1.051m-0.526,-2.279l0,1.228m0.351,-3.857l-0.351,2.629m-0.701,-1.227l1.052,-1.402m-2.454,2.454l1.402,-1.052m-2.98,2.104l1.578,-1.052m-3.156,1.753l1.578,-0.701m-5.259,1.578l3.681,-0.877m-7.012,1.052l3.331,-0.175m-5.26,-0l1.929,0.175m-3.857,-0.526l1.928,0.351m-3.681,-1.052l1.753,0.701m-3.331,-1.402l1.578,0.701m-3.156,-1.928l1.578,1.227m-2.98,-2.455l1.402,1.228m-2.454,-2.805l1.052,1.577m-2.104,-3.33l1.052,1.753m-1.928,-4.909l0.876,3.156m-1.753,-6.837l0.877,3.681m-1.929,-7.188l1.052,3.507m-1.928,-5.084l0.876,1.577m-1.928,-2.629l1.052,1.052m-3.506,-2.104l2.454,1.052m-5.084,-1.753l2.63,0.701m-8.064,-1.052l5.434,0.351m-10.869,-0.701l5.435,0.35m-10.694,-0.35l5.259,-0m-15.427,-0l10.168,-0m-20.16,0.175l9.992,-0.175m-22.439,28.75l12.447,-28.575m-13.148,29.627l0.701,-1.052m-1.753,1.753l1.052,-0.701m-2.279,0.876l1.227,-0.175m3.681,-24.368l-8.765,19.635m-0.351,-13.324l9.116,-6.311m-11.219,7.538l2.103,-1.227m-4.558,2.455l2.455,-1.228m-4.909,2.104l2.454,-0.876m-5.083,1.577l2.629,-0.701m-5.434,0.701l2.805,0m-5.435,-0.526l2.63,0.526m-5.084,-1.753l2.454,1.227m-4.558,-3.155l2.104,1.928m-3.156,-3.856l1.052,1.928m-1.928,-4.032l0.876,2.104m-1.578,-1.228l0.702,-0.876m-3.682,3.506l2.98,-2.63m-6.135,4.909l3.155,-2.279m-6.486,3.857l3.331,-1.578m-6.837,2.63l3.506,-1.052m-5.259,1.402l1.753,-0.35m-3.682,0.175l1.929,0.175m-3.682,-0.526l1.753,0.351m-3.506,-1.052l1.753,0.701m-4.382,-2.805l2.629,2.104m-4.908,-4.733l2.279,2.629m-4.032,-5.609l1.753,2.98m-2.63,-6.311l0.877,3.331m-1.228,-5.961l0.351,2.63m-0.175,-5.259l-0.176,2.629m-4.382,1.227l4.558,-3.856m-9.467,8.064l4.909,-4.208m-9.993,7.889l5.084,-3.681m-7.889,5.259l2.805,-1.578m-5.434,2.805l2.629,-1.227m-6.311,2.629l3.682,-1.402m-7.889,2.279l4.207,-0.877m-6.311,1.052l2.104,-0.175m-3.857,0l1.753,0.175m-3.506,-0.526l1.753,0.351m-3.331,-1.227l1.578,0.876m-3.857,0l2.279,-0.876m-4.908,1.052l2.629,-0.176m-5.083,-0.35l2.454,0.526m-4.909,-1.578l2.455,1.052m-3.857,-1.929l1.402,0.877m-2.454,-1.928l1.052,1.051m-1.929,-2.279l0.877,1.228m-1.402,-2.455l0.525,1.227m-2.279,-0.35l1.754,-0.877m-3.682,1.578l1.928,-0.701m-4.207,1.052l2.279,-0.351m-4.733,0.175l2.454,0.176m-4.733,-0.702l2.279,0.526m-4.383,-1.753l2.104,1.227m-3.857,-2.804l1.753,1.577m-3.155,-3.681l1.402,2.104m-2.629,-4.033l1.227,1.929m-2.63,-3.857l1.403,1.928m-2.279,-1.577l0.876,-0.351m-4.908,2.63l4.032,-2.279m-11.921,7.713l7.889,-5.434m-11.395,7.363l3.506,-1.929m-7.013,3.156l3.507,-1.227m-5.26,1.577l1.753,-0.35m-3.681,0.35l1.928,0m-3.856,-0.35l1.928,0.35m-3.857,-1.052l1.929,0.702m-3.331,-1.578l1.402,0.876m-2.454,-2.103l1.052,1.227m-1.578,-2.63l0.526,1.403m-0.701,-2.98l0.175,1.577m0,-4.908l-0.175,3.331m0.526,-6.662l-0.351,3.331m0.175,-5.961l0.176,2.63m-1.403,-1.578l1.227,-1.052m-5.96,5.961l4.733,-4.909m-8.94,9.993l4.207,-5.084m-9.291,11.395l5.084,-6.311m-9.642,12.972l4.558,-6.661m-8.59,13.674l4.032,-7.013m-7.538,14.375l3.506,-7.362m-6.136,14.375l2.63,-7.013m-5.084,14.025l2.454,-7.012m-6.837,21.387l4.383,-14.375m-11.22,13.323l0.701,0.701m14.025,-53.117l-15.077,51.715m12.973,-50.839l2.104,-0.876m-4.208,1.227l2.104,-0.351m-5.96,0.877l3.856,-0.526m-6.661,0.701l2.805,-0.175m-5.785,-0.176l2.98,0.351m-5.785,-0.877l2.805,0.526m-5.26,-1.928l2.455,1.402m-4.032,-2.454l1.577,1.052m-2.804,-2.63l1.227,1.578m-2.104,-3.331l0.877,1.753m-0.877,-2.804l-0,1.051m-0,-1.928l-0,0.877m0.877,-2.981l-0.877,2.104m2.104,-3.857l-1.227,1.753m2.629,-3.33l-1.402,1.577m3.155,-2.805l-1.753,1.228m3.682,-2.455l-1.929,1.227m4.032,-2.103l-2.103,0.876m6.135,-2.103l-4.032,1.227m7.363,-1.578l-3.331,0.351m6.837,-0.351l-3.506,-0m6.837,0.175l-3.331,-0.175m6.662,1.052l-3.331,-0.877m3.681,-0.35l-0.35,1.227m0.876,-1.753l-0.526,0.526m1.228,-0.526l-0.702,-0m1.753,0.35l-1.051,-0.35m2.103,1.052l-1.052,-0.702m2.981,2.455l-1.929,-1.753m2.455,2.629l-0.526,-0.876m0.526,1.753l-0,-0.877m-0.526,3.156l0.526,-2.279m-1.753,6.311l1.227,-4.032m-4.734,15.427l3.507,-11.395m0.35,6.311l-3.857,5.084m7.889,-10.168l-4.032,5.084m8.59,-10.694l-4.558,5.61m7.012,-8.24l-2.454,2.63m5.259,-4.558l-2.805,1.928m4.558,-2.804l-1.753,0.876m3.682,-1.402l-1.929,0.526m4.208,-0.526l-2.279,-0m4.382,0.175l-2.103,-0.175m4.032,0.876l-1.929,-0.701m3.507,1.753l-1.578,-1.052m2.805,2.63l-1.227,-1.578m1.928,3.506l-0.701,-1.928m0.701,3.856l-0,-1.928m-0,4.032l-0,-2.104m-0.351,6.136l0.351,-4.032m-0.351,6.311l0,-2.279m3.506,0.176l-3.506,2.103m7.363,-4.558l-3.857,2.455m7.889,-5.26l-4.032,2.805m8.064,-5.084l-4.032,2.279m6.136,-3.155l-2.104,0.876m4.032,-1.577l-1.928,0.701m4.032,-1.052l-2.104,0.351m4.032,-0.176l-1.928,-0.175m3.857,0.526l-1.929,-0.351m3.857,1.403l-1.928,-1.052m3.681,2.629l-1.753,-1.577m3.506,3.681l-1.753,-2.104m3.156,4.208l-1.403,-2.104m2.805,4.208l-1.402,-2.104m2.454,1.402l-1.052,0.702m3.682,-2.455l-2.63,1.753m4.733,-3.681l-2.103,1.928m4.382,-4.032l-2.279,2.104m4.558,-4.032l-2.279,1.928m3.506,-2.629l-1.227,0.701m2.455,-1.227l-1.228,0.526m3.857,-0.877l-2.629,0.351m5.259,-0l-2.63,-0.351m5.259,0.877l-2.629,-0.526m5.084,1.753l-2.455,-1.227m4.558,2.804l-2.103,-1.577m3.506,3.506l-1.403,-1.929m1.753,3.156l-0.35,-1.227m0.701,2.454l-0.351,-1.227m0.351,2.454l-0,-1.227m-0.351,2.63l0.351,-1.403m-0.351,1.753l0,-0.35m0.702,1.928l-0.702,-1.578m1.753,2.455l-1.051,-0.877m2.279,1.227l-1.228,-0.35m2.805,0.35l-1.577,0m3.33,-0.175l-1.753,0.175m3.331,-0.876l-1.578,0.701m4.734,-1.928l-3.156,1.227m5.785,-2.805l-2.629,1.578m5.259,-3.507l-2.63,1.929m7.714,-6.136l-5.084,4.207m9.817,-8.765l-4.733,4.558m9.291,-8.765l-4.558,4.207m6.311,-8.59l-1.753,4.383m3.857,-8.59l-2.104,4.207m4.733,-8.064l-2.629,3.857m5.61,-7.714l-2.981,3.857m6.662,-7.538l-3.681,3.681m5.785,-5.259l-2.104,1.578m4.207,-2.805l-2.103,1.227m4.207,-2.104l-2.104,0.877m4.558,-1.403l-2.454,0.526m5.084,-0.701l-2.63,0.175m5.435,0.176l-2.805,-0.351m4.558,0.877l-1.753,-0.526m3.681,1.227l-1.928,-0.701m3.506,1.928l-1.578,-1.227m2.104,2.104l-0.526,-0.877m0.701,1.753l-0.175,-0.876m0.35,2.103l-0.175,-1.227m0,2.63l0.175,-1.403m-1.051,3.682l0.876,-2.279m-2.279,4.382l1.403,-2.103m-3.156,4.032l1.753,-1.929m-4.558,4.208l2.805,-2.279m-5.434,4.382l2.629,-2.103m-8.59,5.96l5.961,-3.857m-11.921,7.539l5.96,-3.682m-11.921,7.363l5.961,-3.681m-6.311,4.032l0.35,-0.351m-1.051,2.454l0.701,-2.103m-0.877,4.207l0.176,-2.104m-0.176,4.383l0,-2.279m0.701,4.383l-0.701,-2.104m1.753,3.506l-1.052,-1.402m2.455,2.279l-1.403,-0.877m2.805,1.227l-1.402,-0.35m3.155,0.35l-1.753,0m3.331,-0.35l-1.578,0.35m3.331,-0.876l-1.753,0.526m4.558,-2.104l-2.805,1.578m5.61,-3.506l-2.805,1.928m5.084,-4.207l-2.279,2.279m6.837,-6.837l-4.558,4.558m6.136,-5.785l-1.578,1.227m3.155,-1.753l-1.577,0.526m3.33,-0.176l-1.753,-0.35m3.331,1.577l-1.578,-1.227m2.279,2.279l-0.701,-1.052m1.052,2.279l-0.351,-1.227m0.702,4.032l-0.351,-2.805m-0.526,5.26l0.877,-2.455m-1.403,4.032l0.526,-1.577m-0.526,2.454l0,-0.877m0.701,1.403l-0.701,-0.526m1.753,0.701l-1.052,-0.175m3.156,-0l-2.104,0.175m4.383,-0.701l-2.279,0.526m4.032,-1.227l-1.753,0.701m4.733,-2.104l-2.98,1.403m5.785,-3.156l-2.805,1.753m8.59,-5.61l-5.785,3.857m0,-3.331l5.785,-0.526m-7.187,0.351l1.402,0.175m-2.63,-0.876l1.228,0.701m-2.104,-1.753l0.876,1.052m-1.402,-2.279l0.526,1.227m-0.701,-2.454l0.175,1.227m0.175,-2.455l-0.35,1.228m1.227,-2.104l-0.877,0.876m2.104,-1.227l-1.227,0.351m10.518,-1.052l-9.291,0.701m18.407,-1.052l-9.116,0.351m13.674,-11.044l-4.558,10.693m5.785,-12.271l-1.227,1.578m2.805,-2.455l-1.578,0.877m3.331,-1.227l-1.753,0.35m3.682,0l-1.929,-0.35m2.63,0.876l-0.701,-0.526m1.227,1.403l-0.526,-0.877m0.701,1.753l-0.175,-0.876m-0,1.753l0.175,-0.877m-4.558,10.869l4.383,-9.992m9.466,9.817l-13.849,0.175m20.686,0l-6.837,-0.175m13.674,0.526l-6.837,-0.351m12.973,0.877l-6.136,-0.526m9.116,0.701l-2.98,-0.175m5.96,0.877l-2.98,-0.702m5.61,1.753l-2.63,-1.051m4.909,2.454l-2.279,-1.403m4.207,3.682l-1.928,-2.279m2.629,3.681l-0.701,-1.402m1.403,2.98l-0.702,-1.578m1.578,5.084l-0.876,-3.506m1.577,0.877l-0.701,2.629m2.279,-4.733l-1.578,2.104m3.682,-3.857l-2.104,1.753m4.733,-2.805l-2.629,1.052m6.661,-1.578l-4.032,0.526m6.136,-0.526l-2.104,0m4.208,0.351l-2.104,-0.351m4.032,0.877l-1.928,-0.526m3.681,1.577l-1.753,-1.051m3.331,2.279l-1.578,-1.228m2.805,2.981l-1.227,-1.753m1.402,1.928l-0.175,-0.175m0.526,-3.156l-0.351,3.331m0.702,-4.032l-0.351,0.701m0.877,-0.701l-0.526,-0m1.402,0.351l-0.876,-0.351m1.577,1.227l-0.701,-0.876m2.279,2.98l-1.578,-2.104m1.929,3.331l-0.351,-1.227m0.526,2.103l-0.175,-0.876m-0.176,4.032l0.351,-3.156m1.403,2.455l-1.754,0.701m3.507,-0.877l-1.753,0.176m3.33,0.175l-1.577,-0.351m3.33,0.877l-1.753,-0.526m3.156,1.402l-1.403,-0.876m2.805,1.928l-1.402,-1.052m2.454,2.455l-1.052,-1.403m2.104,2.98l-1.052,-1.577m2.805,4.908l-1.753,-3.331m2.98,4.734l-1.227,-1.403m3.156,2.279l-1.929,-0.876m5.259,1.402l-3.33,-0.526m6.661,0.176l-3.331,0.35m7.714,-1.928l-4.383,1.578m8.415,-3.682l-4.032,2.104m7.538,-5.084l-3.506,2.98m6.662,-6.311l-3.156,3.331m-39.619,2.63l1.227,-0.176l0.876,-0.701l0.702,-1.052l0.175,-1.052l-0.175,-1.227l-0.702,-0.876l-0.876,-0.702l-1.227,-0.175l-1.052,0.175l-1.052,0.702l-0.701,0.876l-0.175,1.227l0.175,1.052l0.701,1.052l1.052,0.701l1.052,0.176m-81.342,-11.921l1.051,-0.351l1.052,-0.526l0.702,-1.052l0.175,-1.051l-0.175,-1.228l-0.702,-0.876l-1.052,-0.701l-1.051,-0.176l-1.228,0.176l-0.876,0.701l-0.701,0.876l-0.176,1.228l0.176,1.051l0.701,1.052l0.876,0.526l1.228,0.351m-185.124,22.088l1.227,-0.175l0.877,-0.701l0.701,-0.877l0.175,-1.227l-0.175,-1.052l-0.701,-1.052l-0.877,-0.525l-1.227,-0.351l-1.052,0.351l-1.052,0.525l-0.701,1.052l-0.175,1.052l0.175,1.227l0.701,0.877l1.052,0.701l1.052,0.175m-11.395,41.022l0.526,-0.526m-1.402,0.701l0.876,-0.175m-3.331,-0.175l2.455,0.35m-4.734,-1.052l2.279,0.702m188.63,-38.217l0.701,1.052m-0.876,-2.279l0.175,1.227m-0,-2.454l-0.175,1.227m122.188,-0.877l3.682,-0.876m-123.065,5.084l1.227,0.35m-2.104,-0.701l0.877,0.351m-1.929,-1.052l1.052,0.701m-193.714,34.535l0.351,0.526m-0.351,-0.701l0,0.175m123.416,233.333l24.017,0m-198.797,0l174.78,0m-3.857,4.909l-166.015,-0m188.805,-0l-22.79,-0m15.953,7.538l-174.955,-0m1509.39,-12.447l24.192,0m-198.797,0l174.605,0m-3.682,4.909l-166.015,-0m188.805,-0l-22.79,-0m15.953,7.538l-174.956,-0m47.684,-255.246l-0,-2.454m-0,-0l-0,2.454m-69.597,-0l0,-2.454m-69.597,-0l0,2.454m69.597,-2.454l0,2.454m-69.597,-0l0,-2.454m-835.861,-414.074l11.921,-0m-6.486,-9.467l1.052,0m-230.002,9.467l11.921,-0m-6.487,-9.467l1.052,0m887.927,9.467l11.921,-0m-6.486,-9.467l1.051,0m217.205,9.467l11.921,-0m-6.486,-9.467l0.876,0m-677.209,9.467l5.61,-0m224.217,-0l5.61,-0m-117.631,443.876l11.746,-0.877l11.395,-2.63l11.044,-4.382l9.993,-6.136l9.116,-7.363l7.888,-8.94l6.487,-9.818l4.733,-10.693l3.155,-11.395l1.403,-11.746l-0.526,-11.745l-2.279,-11.57l-3.857,-11.22l-5.785,-10.343l-7.012,-9.291l-8.59,-8.24l-9.642,-6.837l-10.518,-5.259l-11.22,-3.506l-11.746,-1.753l-11.745,-0l-11.57,1.753l-11.395,3.506l-10.519,5.259l-9.641,6.837l-8.415,8.24l-7.188,9.291l-5.61,10.343l-4.032,11.22l-2.279,11.57l-0.35,11.745l1.227,11.746l3.156,11.395l4.908,10.693l6.311,9.818l7.889,8.94l9.116,7.363l10.168,6.136l10.869,4.382l11.57,2.63l11.745,0.877m0,5.083l-11.92,-0.876l-11.746,-2.63l-11.22,-4.207l-10.343,-5.96l-9.466,-7.363l-8.415,-8.59l-7.012,-9.642l-5.435,-10.694l-3.856,-11.395l-2.104,-11.745l-0.526,-11.921l1.402,-11.921l2.981,-11.57l4.733,-11.044l6.136,-10.168l7.713,-9.291l8.941,-7.889l9.992,-6.662l10.869,-5.084l11.395,-3.506l11.921,-1.578l11.921,0l11.745,1.578l11.571,3.506l10.869,5.084l9.992,6.662l8.765,7.889l7.714,9.291l6.311,10.168l4.558,11.044l3.155,11.57l1.227,11.921l-0.35,11.921l-2.279,11.745l-3.857,11.395l-5.434,10.694l-7.013,9.642l-8.239,8.59l-9.467,7.363l-10.518,5.96l-11.22,4.207l-11.57,2.63l-11.921,0.876m0,17.356l13.148,-0.877l12.973,-2.629l12.622,-4.383l11.921,-5.96l10.869,-7.539l9.817,-8.94l8.59,-10.168l7.188,-11.22l5.609,-11.92l3.857,-12.798l2.279,-12.972l0.351,-13.324l-1.227,-13.148l-3.156,-12.972l-4.733,-12.447l-6.311,-11.57l-7.889,-10.694l-9.291,-9.467l-10.343,-8.239l-11.571,-6.837l-12.096,-5.259l-12.797,-3.506l-13.148,-1.753l-13.323,-0l-13.148,1.753l-12.798,3.506l-12.271,5.259l-11.395,6.837l-10.518,8.239l-9.116,9.467l-7.889,10.694l-6.486,11.57l-4.734,12.447l-2.98,12.972l-1.402,13.148l0.526,13.324l2.103,12.972l4.032,12.798l5.61,11.92l7.012,11.22l8.59,10.168l9.818,8.94l11.044,7.539l11.745,5.96l12.622,4.383l12.973,2.629l13.323,0.877m-869.695,-843.399l0,15.777m1739.22,-15.777l-15.777,-0m-1707.49,-0l-15.953,-0m1739.22,-0l0,15.777m-7.713,0l-1.929,-5.434l-1.753,-4.909l-1.753,-3.506l-1.928,-1.753l-0.701,-0.175m-1715.55,15.777l1723.61,0m-1715.55,-15.777l-1.928,0.876l-1.753,2.98l-1.929,4.208l-1.753,5.434l-0.701,2.279m8.064,-15.777l1707.49,-0m-1723.44,555.37l7.889,0m-7.889,-539.593l0,539.593m1739.22,-539.593l0,539.593m0,0l-7.713,0m-1723.61,0l1723.61,0m-916.502,-277.334l-2.805,0.526l-2.454,1.753l-1.578,2.279l-0.701,2.98l0.701,2.805l1.578,2.454l2.454,1.578l2.805,0.526m-0,-0l109.216,-0m-0,-0l2.98,-0.526l2.454,-1.578l1.578,-2.454l0.526,-2.805l-0.526,-2.98l-1.578,-2.279l-2.454,-1.753l-2.98,-0.526m-0,-0l-109.216,-0m-0,-29.802l-2.805,0.525l-2.454,1.578l-1.578,2.455l-0.701,2.98l0.701,2.805l1.578,2.454l2.454,1.578l2.805,0.526m-0,-0l109.216,-0m-0,-0l2.98,-0.526l2.454,-1.578l1.578,-2.454l0.526,-2.805l-0.526,-2.98l-1.578,-2.455l-2.454,-1.578l-2.98,-0.525m-0,-0l-109.216,-0m-0,208.789l-2.805,0.526l-2.454,1.578l-1.578,2.454l-0.701,2.805l0.701,2.805l1.578,2.455l2.454,1.577l2.805,0.702m-0,-0l109.216,-0m-0,-0l2.98,-0.702l2.454,-1.577l1.578,-2.455l0.526,-2.805l-0.526,-2.805l-1.578,-2.454l-2.454,-1.578l-2.98,-0.526m-0,0l-109.216,0m-0,-29.977l-2.805,0.701l-2.454,1.578l-1.578,2.454l-0.701,2.805l0.701,2.805l1.578,2.454l2.454,1.578l2.805,0.701m-0,0l109.216,0m-0,0l2.98,-0.701l2.454,-1.578l1.578,-2.454l0.526,-2.805l-0.526,-2.805l-1.578,-2.454l-2.454,-1.578l-2.98,-0.701m-0,0l-109.216,0m-0,59.78l-2.805,0.525l-2.454,1.578l-1.578,2.455l-0.701,2.804l0.701,2.805l1.578,2.455l2.454,1.577l2.805,0.702m-0,-0l109.216,-0m-0,-0l2.98,-0.702l2.454,-1.577l1.578,-2.455l0.526,-2.805l-0.526,-2.804l-1.578,-2.455l-2.454,-1.578l-2.98,-0.525m-0,-0l-109.216,-0m-0,-149.186l-2.805,0.526l-2.454,1.753l-1.578,2.454l-0.701,2.805l0.701,2.805l1.578,2.454l2.454,1.578l2.805,0.526m-0,-0l109.216,-0m-0,-0l2.98,-0.526l2.454,-1.578l1.578,-2.454l0.526,-2.805l-0.526,-2.805l-1.578,-2.454l-2.454,-1.753l-2.98,-0.526m-0,-0l-109.216,-0m-0,-119.209l-2.805,0.526l-2.454,1.578l-1.578,2.454l-0.701,2.805l0.701,2.981l1.578,2.454l2.454,1.578l2.805,0.526m-0,-0l109.216,-0m-0,-0l2.98,-0.526l2.454,-1.578l1.578,-2.454l0.526,-2.981l-0.526,-2.805l-1.578,-2.454l-2.454,-1.578l-2.98,-0.526m-0,0l-109.216,0m-0,-29.802l-2.805,0.526l-2.454,1.578l-1.578,2.454l-0.701,2.805l0.701,2.98l1.578,2.279l2.454,1.753l2.805,0.526m-0,0l109.216,0m-0,0l2.98,-0.526l2.454,-1.753l1.578,-2.279l0.526,-2.98l-0.526,-2.805l-1.578,-2.454l-2.454,-1.578l-2.98,-0.526m-0,0l-109.216,0m-0,-29.802l-2.805,0.526l-2.454,1.578l-1.578,2.454l-0.701,2.805l0.701,2.98l1.578,2.279l2.454,1.753l2.805,0.526m-0,0l109.216,0m-0,0l2.98,-0.526l2.454,-1.753l1.578,-2.279l0.526,-2.98l-0.526,-2.805l-1.578,-2.454l-2.454,-1.578l-2.98,-0.526m-0,0l-109.216,0m-0,-29.627l-2.805,0.526l-2.454,1.578l-1.578,2.454l-0.701,2.805l0.701,2.805l1.578,2.455l2.454,1.753l2.805,0.526m-0,-0l109.216,-0m-0,-0l2.98,-0.526l2.454,-1.753l1.578,-2.455l0.526,-2.805l-0.526,-2.805l-1.578,-2.454l-2.454,-1.578l-2.98,-0.526m-0,0l-109.216,0m-0,-29.802l-2.805,0.526l-2.454,1.578l-1.578,2.454l-0.701,2.805l0.701,2.805l1.578,2.454l2.454,1.578l2.805,0.701m-0,0l109.216,0m-0,0l2.98,-0.701l2.454,-1.578l1.578,-2.454l0.526,-2.805l-0.526,-2.805l-1.578,-2.454l-2.454,-1.578l-2.98,-0.526m-0,0l-109.216,0m-0,-29.802l-2.805,0.526l-2.454,1.578l-1.578,2.454l-0.701,2.805l0.701,2.805l1.578,2.454l2.454,1.578l2.805,0.701m-0,0l109.216,0m-0,0l2.98,-0.701l2.454,-1.578l1.578,-2.454l0.526,-2.805l-0.526,-2.805l-1.578,-2.454l-2.454,-1.578l-2.98,-0.526m-0,0l-109.216,0m-0,238.242l-2.805,0.526l-2.454,1.753l-1.578,2.279l-0.701,2.98l0.701,2.805l1.578,2.454l2.454,1.578l2.805,0.526m-0,-0l109.216,-0m-0,-0l2.98,-0.526l2.454,-1.578l1.578,-2.454l0.526,-2.805l-0.526,-2.98l-1.578,-2.279l-2.454,-1.753l-2.98,-0.526m-0,-0l-109.216,-0m-0,89.406l-2.805,0.701l-2.454,1.578l-1.578,2.454l-0.701,2.805l0.701,2.805l1.578,2.454l2.454,1.578l2.805,0.526m-0,0l109.216,0m-0,0l2.98,-0.526l2.454,-1.578l1.578,-2.454l0.526,-2.805l-0.526,-2.805l-1.578,-2.454l-2.454,-1.578l-2.98,-0.701m-0,0l-109.216,0m-0,-29.802l-2.805,0.701l-2.454,1.578l-1.578,2.454l-0.701,2.805l0.701,2.805l1.578,2.454l2.454,1.578l2.805,0.526m-0,-0l109.216,-0m-0,-0l2.98,-0.526l2.454,-1.578l1.578,-2.454l0.526,-2.805l-0.526,-2.805l-1.578,-2.454l-2.454,-1.578l-2.98,-0.701m-0,-0l-109.216,-0m173.904,-89.406l-2.805,0.526l-2.454,1.753l-1.578,2.279l-0.701,2.98l0.701,2.805l1.578,2.454l2.454,1.578l2.805,0.526m-0,-0l109.391,-0m-0,-0l2.805,-0.526l2.454,-1.578l1.578,-2.454l0.526,-2.805l-0.526,-2.98l-1.578,-2.279l-2.454,-1.753l-2.805,-0.526m-0,-0l-109.391,-0m-869.695,-0l-2.805,0.526l-2.455,1.753l-1.577,2.279l-0.526,2.98l0.526,2.805l1.577,2.454l2.455,1.578l2.805,0.526m-0,-0l109.391,-0m-0,-0l2.805,-0.526l2.454,-1.578l1.578,-2.454l0.701,-2.805l-0.701,-2.98l-1.578,-2.279l-2.454,-1.753l-2.805,-0.526m-0,-0l-109.391,-0m1043.6,-0l-2.805,0.526l-2.455,1.753l-1.577,2.279l-0.526,2.98l0.526,2.805l1.577,2.454l2.455,1.578l2.805,0.526m-0,-0l109.391,-0m-0,-0l2.805,-0.526l2.454,-1.578l1.578,-2.454l0.526,-2.805l-0.526,-2.98l-1.578,-2.279l-2.454,-1.753l-2.805,-0.526m-0,-0l-109.391,-0m173.904,-0l-2.805,0.526l-2.455,1.753l-1.577,2.279l-0.526,2.98l0.526,2.805l1.577,2.454l2.455,1.578l2.805,0.526m-0,-0l109.391,-0m-0,-0l2.805,-0.526l2.454,-1.578l1.578,-2.454l0.526,-2.805l-0.526,-2.98l-1.578,-2.279l-2.454,-1.753l-2.805,-0.526m-0,-0l-109.391,-0m173.904,-0l-2.805,0.526l-2.455,1.753l-1.577,2.279l-0.526,2.98l0.526,2.805l1.577,2.454l2.455,1.578l2.805,0.526m-0,-0l109.391,-0m-0,-0l2.805,-0.526l2.454,-1.578l1.578,-2.454l0.701,-2.805l-0.701,-2.98l-1.578,-2.279l-2.454,-1.753l-2.805,-0.526m-0,-0l-109.391,-0m-869.52,-0l-2.98,0.526l-2.279,1.753l-1.753,2.279l-0.526,2.98l0.526,2.805l1.753,2.454l2.279,1.578l2.98,0.526m-0,-0l109.216,-0m-0,-0l2.98,-0.526l2.279,-1.578l1.753,-2.454l0.526,-2.805l-0.526,-2.98l-1.753,-2.279l-2.279,-1.753l-2.98,-0.526m-0,-0l-109.216,-0m-347.983,-0l-2.805,0.526l-2.455,1.753l-1.577,2.279l-0.526,2.98l0.526,2.805l1.577,2.454l2.455,1.578l2.805,0.526m-0,-0l109.391,-0m-0,-0l2.805,-0.526l2.454,-1.578l1.578,-2.454l0.701,-2.805l-0.701,-2.98l-1.578,-2.279l-2.454,-1.753l-2.805,-0.526m-0,-0l-109.391,-0m174.079,-0l-2.98,0.526l-2.279,1.753l-1.753,2.279l-0.526,2.98l0.526,2.805l1.753,2.454l2.279,1.578l2.98,0.526m-0,-0l109.216,-0m-0,-0l2.98,-0.526l2.279,-1.578l1.753,-2.454l0.526,-2.805l-0.526,-2.98l-1.753,-2.279l-2.279,-1.753l-2.98,-0.526m-0,-0l-109.216,-0m521.712,-29.802l-2.805,0.525l-2.454,1.578l-1.578,2.455l-0.701,2.98l0.701,2.805l1.578,2.454l2.454,1.578l2.805,0.526m-0,-0l109.391,-0m-0,-0l2.805,-0.526l2.454,-1.578l1.578,-2.454l0.526,-2.805l-0.526,-2.98l-1.578,-2.455l-2.454,-1.578l-2.805,-0.525m-0,-0l-109.391,-0m-869.695,-0l-2.805,0.525l-2.455,1.578l-1.577,2.455l-0.526,2.98l0.526,2.805l1.577,2.454l2.455,1.578l2.805,0.526m-0,-0l109.391,-0m-0,-0l2.805,-0.526l2.454,-1.578l1.578,-2.454l0.701,-2.805l-0.701,-2.98l-1.578,-2.455l-2.454,-1.578l-2.805,-0.525m-0,-0l-109.391,-0m1043.6,-0l-2.805,0.525l-2.455,1.578l-1.577,2.455l-0.526,2.98l0.526,2.805l1.577,2.454l2.455,1.578l2.805,0.526m-0,-0l109.391,-0m-0,-0l2.805,-0.526l2.454,-1.578l1.578,-2.454l0.526,-2.805l-0.526,-2.98l-1.578,-2.455l-2.454,-1.578l-2.805,-0.525m-0,-0l-109.391,-0m173.904,-0l-2.805,0.525l-2.455,1.578l-1.577,2.455l-0.526,2.98l0.526,2.805l1.577,2.454l2.455,1.578l2.805,0.526m-0,-0l109.391,-0m-0,-0l2.805,-0.526l2.454,-1.578l1.578,-2.454l0.526,-2.805l-0.526,-2.98l-1.578,-2.455l-2.454,-1.578l-2.805,-0.525m-0,-0l-109.391,-0m173.904,-0l-2.805,0.525l-2.455,1.578l-1.577,2.455l-0.526,2.98l0.526,2.805l1.577,2.454l2.455,1.578l2.805,0.526m-0,-0l109.391,-0m-0,-0l2.805,-0.526l2.454,-1.578l1.578,-2.454l0.701,-2.805l-0.701,-2.98l-1.578,-2.455l-2.454,-1.578l-2.805,-0.525m-0,-0l-109.391,-0m-869.52,-0l-2.98,0.525l-2.279,1.578l-1.753,2.455l-0.526,2.98l0.526,2.805l1.753,2.454l2.279,1.578l2.98,0.526m-0,-0l109.216,-0m-0,-0l2.98,-0.526l2.279,-1.578l1.753,-2.454l0.526,-2.805l-0.526,-2.98l-1.753,-2.455l-2.279,-1.578l-2.98,-0.525m-0,-0l-109.216,-0m-347.983,-0l-2.805,0.525l-2.455,1.578l-1.577,2.455l-0.526,2.98l0.526,2.805l1.577,2.454l2.455,1.578l2.805,0.526m-0,-0l109.391,-0m-0,-0l2.805,-0.526l2.454,-1.578l1.578,-2.454l0.701,-2.805l-0.701,-2.98l-1.578,-2.455l-2.454,-1.578l-2.805,-0.525m-0,-0l-109.391,-0m174.079,-0l-2.98,0.525l-2.279,1.578l-1.753,2.455l-0.526,2.98l0.526,2.805l1.753,2.454l2.279,1.578l2.98,0.526m-0,-0l109.216,-0m-0,-0l2.98,-0.526l2.279,-1.578l1.753,-2.454l0.526,-2.805l-0.526,-2.98l-1.753,-2.455l-2.279,-1.578l-2.98,-0.525m-0,-0l-109.216,-0m521.712,208.789l-2.805,0.526l-2.454,1.578l-1.578,2.454l-0.701,2.805l0.701,2.805l1.578,2.455l2.454,1.577l2.805,0.702m-0,-0l109.391,-0m-0,-0l2.805,-0.702l2.454,-1.577l1.578,-2.455l0.526,-2.805l-0.526,-2.805l-1.578,-2.454l-2.454,-1.578l-2.805,-0.526m-0,0l-109.391,0m-869.695,0l-2.805,0.526l-2.455,1.578l-1.577,2.454l-0.526,2.805l0.526,2.805l1.577,2.455l2.455,1.577l2.805,0.702m-0,-0l109.391,-0m-0,-0l2.805,-0.702l2.454,-1.577l1.578,-2.455l0.701,-2.805l-0.701,-2.805l-1.578,-2.454l-2.454,-1.578l-2.805,-0.526m-0,0l-109.391,0m1043.6,0l-2.805,0.526l-2.455,1.578l-1.577,2.454l-0.526,2.805l0.526,2.805l1.577,2.455l2.455,1.577l2.805,0.702m-0,-0l109.391,-0m-0,-0l2.805,-0.702l2.454,-1.577l1.578,-2.455l0.526,-2.805l-0.526,-2.805l-1.578,-2.454l-2.454,-1.578l-2.805,-0.526m-0,0l-109.391,0m173.904,0l-2.805,0.526l-2.455,1.578l-1.577,2.454l-0.526,2.805l0.526,2.805l1.577,2.455l2.455,1.577l2.805,0.702m-0,-0l109.391,-0m-0,-0l2.805,-0.702l2.454,-1.577l1.578,-2.455l0.526,-2.805l-0.526,-2.805l-1.578,-2.454l-2.454,-1.578l-2.805,-0.526m-0,0l-109.391,0m173.904,0l-2.805,0.526l-2.455,1.578l-1.577,2.454l-0.526,2.805l0.526,2.805l1.577,2.455l2.455,1.577l2.805,0.702m-0,-0l109.391,-0m-0,-0l2.805,-0.702l2.454,-1.577l1.578,-2.455l0.701,-2.805l-0.701,-2.805l-1.578,-2.454l-2.454,-1.578l-2.805,-0.526m-0,0l-109.391,0m-869.52,0l-2.98,0.526l-2.279,1.578l-1.753,2.454l-0.526,2.805l0.526,2.805l1.753,2.455l2.279,1.577l2.98,0.702m-0,-0l109.216,-0m-0,-0l2.98,-0.702l2.279,-1.577l1.753,-2.455l0.526,-2.805l-0.526,-2.805l-1.753,-2.454l-2.279,-1.578l-2.98,-0.526m-0,0l-109.216,0m-347.983,0l-2.805,0.526l-2.455,1.578l-1.577,2.454l-0.526,2.805l0.526,2.805l1.577,2.455l2.455,1.577l2.805,0.702m-0,-0l109.391,-0m-0,-0l2.805,-0.702l2.454,-1.577l1.578,-2.455l0.701,-2.805l-0.701,-2.805l-1.578,-2.454l-2.454,-1.578l-2.805,-0.526m-0,0l-109.391,0m174.079,0l-2.98,0.526l-2.279,1.578l-1.753,2.454l-0.526,2.805l0.526,2.805l1.753,2.455l2.279,1.577l2.98,0.702m-0,-0l109.216,-0m-0,-0l2.98,-0.702l2.279,-1.577l1.753,-2.455l0.526,-2.805l-0.526,-2.805l-1.753,-2.454l-2.279,-1.578l-2.98,-0.526m-0,0l-109.216,0m521.712,-29.977l-2.805,0.701l-2.454,1.578l-1.578,2.454l-0.701,2.805l0.701,2.805l1.578,2.454l2.454,1.578l2.805,0.701m-0,0l109.391,0m-0,0l2.805,-0.701l2.454,-1.578l1.578,-2.454l0.526,-2.805l-0.526,-2.805l-1.578,-2.454l-2.454,-1.578l-2.805,-0.701m-0,0l-109.391,0m-869.695,0l-2.805,0.701l-2.455,1.578l-1.577,2.454l-0.526,2.805l0.526,2.805l1.577,2.454l2.455,1.578l2.805,0.701m-0,0l109.391,0m-0,0l2.805,-0.701l2.454,-1.578l1.578,-2.454l0.701,-2.805l-0.701,-2.805l-1.578,-2.454l-2.454,-1.578l-2.805,-0.701m-0,0l-109.391,0m1043.6,0l-2.805,0.701l-2.455,1.578l-1.577,2.454l-0.526,2.805l0.526,2.805l1.577,2.454l2.455,1.578l2.805,0.701m-0,0l109.391,0m-0,0l2.805,-0.701l2.454,-1.578l1.578,-2.454l0.526,-2.805l-0.526,-2.805l-1.578,-2.454l-2.454,-1.578l-2.805,-0.701m-0,0l-109.391,0m173.904,0l-2.805,0.701l-2.455,1.578l-1.577,2.454l-0.526,2.805l0.526,2.805l1.577,2.454l2.455,1.578l2.805,0.701m-0,0l109.391,0m-0,0l2.805,-0.701l2.454,-1.578l1.578,-2.454l0.526,-2.805l-0.526,-2.805l-1.578,-2.454l-2.454,-1.578l-2.805,-0.701m-0,0l-109.391,0m173.904,0l-2.805,0.701l-2.455,1.578l-1.577,2.454l-0.526,2.805l0.526,2.805l1.577,2.454l2.455,1.578l2.805,0.701m-0,0l109.391,0m-0,0l2.805,-0.701l2.454,-1.578l1.578,-2.454l0.701,-2.805l-0.701,-2.805l-1.578,-2.454l-2.454,-1.578l-2.805,-0.701m-0,0l-109.391,0m-869.52,0l-2.98,0.701l-2.279,1.578l-1.753,2.454l-0.526,2.805l0.526,2.805l1.753,2.454l2.279,1.578l2.98,0.701m-0,0l109.216,0m-0,0l2.98,-0.701l2.279,-1.578l1.753,-2.454l0.526,-2.805l-0.526,-2.805l-1.753,-2.454l-2.279,-1.578l-2.98,-0.701m-0,0l-109.216,0m-347.983,0l-2.805,0.701l-2.455,1.578l-1.577,2.454l-0.526,2.805l0.526,2.805l1.577,2.454l2.455,1.578l2.805,0.701m-0,0l109.391,0m-0,0l2.805,-0.701l2.454,-1.578l1.578,-2.454l0.701,-2.805l-0.701,-2.805l-1.578,-2.454l-2.454,-1.578l-2.805,-0.701m-0,0l-109.391,0m174.079,0l-2.98,0.701l-2.279,1.578l-1.753,2.454l-0.526,2.805l0.526,2.805l1.753,2.454l2.279,1.578l2.98,0.701m-0,0l109.216,0m-0,0l2.98,-0.701l2.279,-1.578l1.753,-2.454l0.526,-2.805l-0.526,-2.805l-1.753,-2.454l-2.279,-1.578l-2.98,-0.701m-0,0l-109.216,0m521.712,59.78l-2.805,0.525l-2.454,1.578l-1.578,2.455l-0.701,2.804l0.701,2.805l1.578,2.455l2.454,1.577l2.805,0.702m-0,-0l109.391,-0m-0,-0l2.805,-0.702l2.454,-1.577l1.578,-2.455l0.526,-2.805l-0.526,-2.804l-1.578,-2.455l-2.454,-1.578l-2.805,-0.525m-0,-0l-109.391,-0m-869.695,-0l-2.805,0.525l-2.455,1.578l-1.577,2.455l-0.526,2.804l0.526,2.805l1.577,2.455l2.455,1.577l2.805,0.702m-0,-0l109.391,-0m-0,-0l2.805,-0.702l2.454,-1.577l1.578,-2.455l0.701,-2.805l-0.701,-2.804l-1.578,-2.455l-2.454,-1.578l-2.805,-0.525m-0,-0l-109.391,-0m1043.6,-0l-2.805,0.525l-2.455,1.578l-1.577,2.455l-0.526,2.804l0.526,2.805l1.577,2.455l2.455,1.577l2.805,0.702m-0,-0l109.391,-0m-0,-0l2.805,-0.702l2.454,-1.577l1.578,-2.455l0.526,-2.805l-0.526,-2.804l-1.578,-2.455l-2.454,-1.578l-2.805,-0.525m-0,-0l-109.391,-0m173.904,-0l-2.805,0.525l-2.455,1.578l-1.577,2.455l-0.526,2.804l0.526,2.805l1.577,2.455l2.455,1.577l2.805,0.702m-0,-0l109.391,-0m-0,-0l2.805,-0.702l2.454,-1.577l1.578,-2.455l0.526,-2.805l-0.526,-2.804l-1.578,-2.455l-2.454,-1.578l-2.805,-0.525m-0,-0l-109.391,-0m173.904,-0l-2.805,0.525l-2.455,1.578l-1.577,2.455l-0.526,2.804l0.526,2.805l1.577,2.455l2.455,1.577l2.805,0.702m-0,-0l109.391,-0m-0,-0l2.805,-0.702l2.454,-1.577l1.578,-2.455l0.701,-2.805l-0.701,-2.804l-1.578,-2.455l-2.454,-1.578l-2.805,-0.525m-0,-0l-109.391,-0m-869.52,-0l-2.98,0.525l-2.279,1.578l-1.753,2.455l-0.526,2.804l0.526,2.805l1.753,2.455l2.279,1.577l2.98,0.702m-0,-0l109.216,-0m-0,-0l2.98,-0.702l2.279,-1.577l1.753,-2.455l0.526,-2.805l-0.526,-2.804l-1.753,-2.455l-2.279,-1.578l-2.98,-0.525m-0,-0l-109.216,-0m-347.983,-0l-2.805,0.525l-2.455,1.578l-1.577,2.455l-0.526,2.804l0.526,2.805l1.577,2.455l2.455,1.577l2.805,0.702m-0,-0l109.391,-0m-0,-0l2.805,-0.702l2.454,-1.577l1.578,-2.455l0.701,-2.805l-0.701,-2.804l-1.578,-2.455l-2.454,-1.578l-2.805,-0.525m-0,-0l-109.391,-0m174.079,-0l-2.98,0.525l-2.279,1.578l-1.753,2.455l-0.526,2.804l0.526,2.805l1.753,2.455l2.279,1.577l2.98,0.702m-0,-0l109.216,-0m-0,-0l2.98,-0.702l2.279,-1.577l1.753,-2.455l0.526,-2.805l-0.526,-2.804l-1.753,-2.455l-2.279,-1.578l-2.98,-0.525m-0,-0l-109.216,-0m521.712,-149.186l-2.805,0.526l-2.454,1.753l-1.578,2.454l-0.701,2.805l0.701,2.805l1.578,2.454l2.454,1.578l2.805,0.526m-0,-0l109.391,-0m-0,-0l2.805,-0.526l2.454,-1.578l1.578,-2.454l0.526,-2.805l-0.526,-2.805l-1.578,-2.454l-2.454,-1.753l-2.805,-0.526m-0,-0l-109.391,-0m-869.695,-0l-2.805,0.526l-2.455,1.753l-1.577,2.454l-0.526,2.805l0.526,2.805l1.577,2.454l2.455,1.578l2.805,0.526m-0,-0l109.391,-0m-0,-0l2.805,-0.526l2.454,-1.578l1.578,-2.454l0.701,-2.805l-0.701,-2.805l-1.578,-2.454l-2.454,-1.753l-2.805,-0.526m-0,-0l-109.391,-0m1043.6,-0l-2.805,0.526l-2.455,1.753l-1.577,2.454l-0.526,2.805l0.526,2.805l1.577,2.454l2.455,1.578l2.805,0.526m-0,-0l109.391,-0m-0,-0l2.805,-0.526l2.454,-1.578l1.578,-2.454l0.526,-2.805l-0.526,-2.805l-1.578,-2.454l-2.454,-1.753l-2.805,-0.526m-0,-0l-109.391,-0m173.904,-0l-2.805,0.526l-2.455,1.753l-1.577,2.454l-0.526,2.805l0.526,2.805l1.577,2.454l2.455,1.578l2.805,0.526m-0,-0l109.391,-0m-0,-0l2.805,-0.526l2.454,-1.578l1.578,-2.454l0.526,-2.805l-0.526,-2.805l-1.578,-2.454l-2.454,-1.753l-2.805,-0.526m-0,-0l-109.391,-0m173.904,-0l-2.805,0.526l-2.455,1.753l-1.577,2.454l-0.526,2.805l0.526,2.805l1.577,2.454l2.455,1.578l2.805,0.526m-0,-0l109.391,-0m-0,-0l2.805,-0.526l2.454,-1.578l1.578,-2.454l0.701,-2.805l-0.701,-2.805l-1.578,-2.454l-2.454,-1.753l-2.805,-0.526m-0,-0l-109.391,-0m-869.52,-0l-2.98,0.526l-2.279,1.753l-1.753,2.454l-0.526,2.805l0.526,2.805l1.753,2.454l2.279,1.578l2.98,0.526m-0,-0l109.216,-0m-0,-0l2.98,-0.526l2.279,-1.578l1.753,-2.454l0.526,-2.805l-0.526,-2.805l-1.753,-2.454l-2.279,-1.753l-2.98,-0.526m-0,-0l-109.216,-0m-347.983,-0l-2.805,0.526l-2.455,1.753l-1.577,2.454l-0.526,2.805l0.526,2.805l1.577,2.454l2.455,1.578l2.805,0.526m-0,-0l109.391,-0m-0,-0l2.805,-0.526l2.454,-1.578l1.578,-2.454l0.701,-2.805l-0.701,-2.805l-1.578,-2.454l-2.454,-1.753l-2.805,-0.526m-0,-0l-109.391,-0m174.079,-0l-2.98,0.526l-2.279,1.753l-1.753,2.454l-0.526,2.805l0.526,2.805l1.753,2.454l2.279,1.578l2.98,0.526m-0,-0l109.216,-0m-0,-0l2.98,-0.526l2.279,-1.578l1.753,-2.454l0.526,-2.805l-0.526,-2.805l-1.753,-2.454l-2.279,-1.753l-2.98,-0.526m-0,-0l-109.216,-0m521.712,-119.209l-2.805,0.526l-2.454,1.578l-1.578,2.454l-0.701,2.805l0.701,2.981l1.578,2.454l2.454,1.578l2.805,0.526m-0,-0l109.391,-0m-0,-0l2.805,-0.526l2.454,-1.578l1.578,-2.454l0.526,-2.981l-0.526,-2.805l-1.578,-2.454l-2.454,-1.578l-2.805,-0.526m-0,0l-109.391,0m-869.695,0l-2.805,0.526l-2.455,1.578l-1.577,2.454l-0.526,2.805l0.526,2.981l1.577,2.454l2.455,1.578l2.805,0.526m-0,-0l109.391,-0m-0,-0l2.805,-0.526l2.454,-1.578l1.578,-2.454l0.701,-2.981l-0.701,-2.805l-1.578,-2.454l-2.454,-1.578l-2.805,-0.526m-0,0l-109.391,0m1043.6,0l-2.805,0.526l-2.455,1.578l-1.577,2.454l-0.526,2.805l0.526,2.981l1.577,2.454l2.455,1.578l2.805,0.526m-0,-0l109.391,-0m-0,-0l2.805,-0.526l2.454,-1.578l1.578,-2.454l0.526,-2.981l-0.526,-2.805l-1.578,-2.454l-2.454,-1.578l-2.805,-0.526m-0,0l-109.391,0m173.904,0l-2.805,0.526l-2.455,1.578l-1.577,2.454l-0.526,2.805l0.526,2.981l1.577,2.454l2.455,1.578l2.805,0.526m-0,-0l109.391,-0m-0,-0l2.805,-0.526l2.454,-1.578l1.578,-2.454l0.526,-2.981l-0.526,-2.805l-1.578,-2.454l-2.454,-1.578l-2.805,-0.526m-0,0l-109.391,0m173.904,0l-2.805,0.526l-2.455,1.578l-1.577,2.454l-0.526,2.805l0.526,2.981l1.577,2.454l2.455,1.578l2.805,0.526m-0,-0l109.391,-0m-0,-0l2.805,-0.526l2.454,-1.578l1.578,-2.454l0.701,-2.981l-0.701,-2.805l-1.578,-2.454l-2.454,-1.578l-2.805,-0.526m-0,0l-109.391,0m-869.52,0l-2.98,0.526l-2.279,1.578l-1.753,2.454l-0.526,2.805l0.526,2.981l1.753,2.454l2.279,1.578l2.98,0.526m-0,-0l109.216,-0m-0,-0l2.98,-0.526l2.279,-1.578l1.753,-2.454l0.526,-2.981l-0.526,-2.805l-1.753,-2.454l-2.279,-1.578l-2.98,-0.526m-0,0l-109.216,0m-347.983,0l-2.805,0.526l-2.455,1.578l-1.577,2.454l-0.526,2.805l0.526,2.981l1.577,2.454l2.455,1.578l2.805,0.526m-0,-0l109.391,-0m-0,-0l2.805,-0.526l2.454,-1.578l1.578,-2.454l0.701,-2.981l-0.701,-2.805l-1.578,-2.454l-2.454,-1.578l-2.805,-0.526m-0,0l-109.391,0m174.079,0l-2.98,0.526l-2.279,1.578l-1.753,2.454l-0.526,2.805l0.526,2.981l1.753,2.454l2.279,1.578l2.98,0.526m-0,-0l109.216,-0m-0,-0l2.98,-0.526l2.279,-1.578l1.753,-2.454l0.526,-2.981l-0.526,-2.805l-1.753,-2.454l-2.279,-1.578l-2.98,-0.526m-0,0l-109.216,0m521.712,-29.802l-2.805,0.526l-2.454,1.578l-1.578,2.454l-0.701,2.805l0.701,2.98l1.578,2.279l2.454,1.753l2.805,0.526m-0,0l109.391,0m-0,0l2.805,-0.526l2.454,-1.753l1.578,-2.279l0.526,-2.98l-0.526,-2.805l-1.578,-2.454l-2.454,-1.578l-2.805,-0.526m-0,0l-109.391,0m-869.695,0l-2.805,0.526l-2.455,1.578l-1.577,2.454l-0.526,2.805l0.526,2.98l1.577,2.279l2.455,1.753l2.805,0.526m-0,0l109.391,0m-0,0l2.805,-0.526l2.454,-1.753l1.578,-2.279l0.701,-2.98l-0.701,-2.805l-1.578,-2.454l-2.454,-1.578l-2.805,-0.526m-0,0l-109.391,0m1043.6,0l-2.805,0.526l-2.455,1.578l-1.577,2.454l-0.526,2.805l0.526,2.98l1.577,2.279l2.455,1.753l2.805,0.526m-0,0l109.391,0m-0,0l2.805,-0.526l2.454,-1.753l1.578,-2.279l0.526,-2.98l-0.526,-2.805l-1.578,-2.454l-2.454,-1.578l-2.805,-0.526m-0,0l-109.391,0m173.904,0l-2.805,0.526l-2.455,1.578l-1.577,2.454l-0.526,2.805l0.526,2.98l1.577,2.279l2.455,1.753l2.805,0.526m-0,0l109.391,0m-0,0l2.805,-0.526l2.454,-1.753l1.578,-2.279l0.526,-2.98l-0.526,-2.805l-1.578,-2.454l-2.454,-1.578l-2.805,-0.526m-0,0l-109.391,0m173.904,0l-2.805,0.526l-2.455,1.578l-1.577,2.454l-0.526,2.805l0.526,2.98l1.577,2.279l2.455,1.753l2.805,0.526m-0,0l109.391,0m-0,0l2.805,-0.526l2.454,-1.753l1.578,-2.279l0.701,-2.98l-0.701,-2.805l-1.578,-2.454l-2.454,-1.578l-2.805,-0.526m-0,0l-109.391,0m-869.52,0l-2.98,0.526l-2.279,1.578l-1.753,2.454l-0.526,2.805l0.526,2.98l1.753,2.279l2.279,1.753l2.98,0.526m-0,0l109.216,0m-0,0l2.98,-0.526l2.279,-1.753l1.753,-2.279l0.526,-2.98l-0.526,-2.805l-1.753,-2.454l-2.279,-1.578l-2.98,-0.526m-0,0l-109.216,0m-347.983,0l-2.805,0.526l-2.455,1.578l-1.577,2.454l-0.526,2.805l0.526,2.98l1.577,2.279l2.455,1.753l2.805,0.526m-0,0l109.391,0m-0,0l2.805,-0.526l2.454,-1.753l1.578,-2.279l0.701,-2.98l-0.701,-2.805l-1.578,-2.454l-2.454,-1.578l-2.805,-0.526m-0,0l-109.391,0m174.079,0l-2.98,0.526l-2.279,1.578l-1.753,2.454l-0.526,2.805l0.526,2.98l1.753,2.279l2.279,1.753l2.98,0.526m-0,0l109.216,0m-0,0l2.98,-0.526l2.279,-1.753l1.753,-2.279l0.526,-2.98l-0.526,-2.805l-1.753,-2.454l-2.279,-1.578l-2.98,-0.526m-0,0l-109.216,0m521.712,-29.802l-2.805,0.526l-2.454,1.578l-1.578,2.454l-0.701,2.805l0.701,2.98l1.578,2.279l2.454,1.753l2.805,0.526m-0,0l109.391,0m-0,0l2.805,-0.526l2.454,-1.753l1.578,-2.279l0.526,-2.98l-0.526,-2.805l-1.578,-2.454l-2.454,-1.578l-2.805,-0.526m-0,0l-109.391,0m-869.695,0l-2.805,0.526l-2.455,1.578l-1.577,2.454l-0.526,2.805l0.526,2.98l1.577,2.279l2.455,1.753l2.805,0.526m-0,0l109.391,0m-0,0l2.805,-0.526l2.454,-1.753l1.578,-2.279l0.701,-2.98l-0.701,-2.805l-1.578,-2.454l-2.454,-1.578l-2.805,-0.526m-0,0l-109.391,0m1043.6,0l-2.805,0.526l-2.455,1.578l-1.577,2.454l-0.526,2.805l0.526,2.98l1.577,2.279l2.455,1.753l2.805,0.526m-0,0l109.391,0m-0,0l2.805,-0.526l2.454,-1.753l1.578,-2.279l0.526,-2.98l-0.526,-2.805l-1.578,-2.454l-2.454,-1.578l-2.805,-0.526m-0,0l-109.391,0m173.904,0l-2.805,0.526l-2.455,1.578l-1.577,2.454l-0.526,2.805l0.526,2.98l1.577,2.279l2.455,1.753l2.805,0.526m-0,0l109.391,0m-0,0l2.805,-0.526l2.454,-1.753l1.578,-2.279l0.526,-2.98l-0.526,-2.805l-1.578,-2.454l-2.454,-1.578l-2.805,-0.526m-0,0l-109.391,0m173.904,0l-2.805,0.526l-2.455,1.578l-1.577,2.454l-0.526,2.805l0.526,2.98l1.577,2.279l2.455,1.753l2.805,0.526m-0,0l109.391,0m-0,0l2.805,-0.526l2.454,-1.753l1.578,-2.279l0.701,-2.98l-0.701,-2.805l-1.578,-2.454l-2.454,-1.578l-2.805,-0.526m-0,0l-109.391,0m-869.52,0l-2.98,0.526l-2.279,1.578l-1.753,2.454l-0.526,2.805l0.526,2.98l1.753,2.279l2.279,1.753l2.98,0.526m-0,0l109.216,0m-0,0l2.98,-0.526l2.279,-1.753l1.753,-2.279l0.526,-2.98l-0.526,-2.805l-1.753,-2.454l-2.279,-1.578l-2.98,-0.526m-0,0l-109.216,0m-347.983,0l-2.805,0.526l-2.455,1.578l-1.577,2.454l-0.526,2.805l0.526,2.98l1.577,2.279l2.455,1.753l2.805,0.526m-0,0l109.391,0m-0,0l2.805,-0.526l2.454,-1.753l1.578,-2.279l0.701,-2.98l-0.701,-2.805l-1.578,-2.454l-2.454,-1.578l-2.805,-0.526m-0,0l-109.391,0m174.079,0l-2.98,0.526l-2.279,1.578l-1.753,2.454l-0.526,2.805l0.526,2.98l1.753,2.279l2.279,1.753l2.98,0.526m-0,0l109.216,0m-0,0l2.98,-0.526l2.279,-1.753l1.753,-2.279l0.526,-2.98l-0.526,-2.805l-1.753,-2.454l-2.279,-1.578l-2.98,-0.526m-0,0l-109.216,0m521.712,-29.627l-2.805,0.526l-2.454,1.578l-1.578,2.454l-0.701,2.805l0.701,2.805l1.578,2.455l2.454,1.753l2.805,0.526m-0,-0l109.391,-0m-0,-0l2.805,-0.526l2.454,-1.753l1.578,-2.455l0.526,-2.805l-0.526,-2.805l-1.578,-2.454l-2.454,-1.578l-2.805,-0.526m-0,0l-109.391,0m-869.695,0l-2.805,0.526l-2.455,1.578l-1.577,2.454l-0.526,2.805l0.526,2.805l1.577,2.455l2.455,1.753l2.805,0.526m-0,-0l109.391,-0m-0,-0l2.805,-0.526l2.454,-1.753l1.578,-2.455l0.701,-2.805l-0.701,-2.805l-1.578,-2.454l-2.454,-1.578l-2.805,-0.526m-0,0l-109.391,0m1043.6,0l-2.805,0.526l-2.455,1.578l-1.577,2.454l-0.526,2.805l0.526,2.805l1.577,2.455l2.455,1.753l2.805,0.526m-0,-0l109.391,-0m-0,-0l2.805,-0.526l2.454,-1.753l1.578,-2.455l0.526,-2.805l-0.526,-2.805l-1.578,-2.454l-2.454,-1.578l-2.805,-0.526m-0,0l-109.391,0m173.904,0l-2.805,0.526l-2.455,1.578l-1.577,2.454l-0.526,2.805l0.526,2.805l1.577,2.455l2.455,1.753l2.805,0.526m-0,-0l109.391,-0m-0,-0l2.805,-0.526l2.454,-1.753l1.578,-2.455l0.526,-2.805l-0.526,-2.805l-1.578,-2.454l-2.454,-1.578l-2.805,-0.526m-0,0l-109.391,0m173.904,0l-2.805,0.526l-2.455,1.578l-1.577,2.454l-0.526,2.805l0.526,2.805l1.577,2.455l2.455,1.753l2.805,0.526m-0,-0l109.391,-0m-0,-0l2.805,-0.526l2.454,-1.753l1.578,-2.455l0.701,-2.805l-0.701,-2.805l-1.578,-2.454l-2.454,-1.578l-2.805,-0.526m-0,0l-109.391,0m-869.52,0l-2.98,0.526l-2.279,1.578l-1.753,2.454l-0.526,2.805l0.526,2.805l1.753,2.455l2.279,1.753l2.98,0.526m-0,-0l109.216,-0m-0,-0l2.98,-0.526l2.279,-1.753l1.753,-2.455l0.526,-2.805l-0.526,-2.805l-1.753,-2.454l-2.279,-1.578l-2.98,-0.526m-0,0l-109.216,0m-347.983,0l-2.805,0.526l-2.455,1.578l-1.577,2.454l-0.526,2.805l0.526,2.805l1.577,2.455l2.455,1.753l2.805,0.526m-0,-0l109.391,-0m-0,-0l2.805,-0.526l2.454,-1.753l1.578,-2.455l0.701,-2.805l-0.701,-2.805l-1.578,-2.454l-2.454,-1.578l-2.805,-0.526m-0,0l-109.391,0m174.079,0l-2.98,0.526l-2.279,1.578l-1.753,2.454l-0.526,2.805l0.526,2.805l1.753,2.455l2.279,1.753l2.98,0.526m-0,-0l109.216,-0m-0,-0l2.98,-0.526l2.279,-1.753l1.753,-2.455l0.526,-2.805l-0.526,-2.805l-1.753,-2.454l-2.279,-1.578l-2.98,-0.526m-0,0l-109.216,0m521.712,-29.802l-2.805,0.526l-2.454,1.578l-1.578,2.454l-0.701,2.805l0.701,2.805l1.578,2.454l2.454,1.578l2.805,0.701m-0,0l109.391,0m-0,0l2.805,-0.701l2.454,-1.578l1.578,-2.454l0.526,-2.805l-0.526,-2.805l-1.578,-2.454l-2.454,-1.578l-2.805,-0.526m-0,0l-109.391,0m-869.695,0l-2.805,0.526l-2.455,1.578l-1.577,2.454l-0.526,2.805l0.526,2.805l1.577,2.454l2.455,1.578l2.805,0.701m-0,0l109.391,0m-0,0l2.805,-0.701l2.454,-1.578l1.578,-2.454l0.701,-2.805l-0.701,-2.805l-1.578,-2.454l-2.454,-1.578l-2.805,-0.526m-0,0l-109.391,0m1043.6,0l-2.805,0.526l-2.455,1.578l-1.577,2.454l-0.526,2.805l0.526,2.805l1.577,2.454l2.455,1.578l2.805,0.701m-0,0l109.391,0m-0,0l2.805,-0.701l2.454,-1.578l1.578,-2.454l0.526,-2.805l-0.526,-2.805l-1.578,-2.454l-2.454,-1.578l-2.805,-0.526m-0,0l-109.391,0m173.904,0l-2.805,0.526l-2.455,1.578l-1.577,2.454l-0.526,2.805l0.526,2.805l1.577,2.454l2.455,1.578l2.805,0.701m-0,0l109.391,0m-0,0l2.805,-0.701l2.454,-1.578l1.578,-2.454l0.526,-2.805l-0.526,-2.805l-1.578,-2.454l-2.454,-1.578l-2.805,-0.526m-0,0l-109.391,0m173.904,0l-2.805,0.526l-2.455,1.578l-1.577,2.454l-0.526,2.805l0.526,2.805l1.577,2.454l2.455,1.578l2.805,0.701m-0,0l109.391,0m-0,0l2.805,-0.701l2.454,-1.578l1.578,-2.454l0.701,-2.805l-0.701,-2.805l-1.578,-2.454l-2.454,-1.578l-2.805,-0.526m-0,0l-109.391,0m-869.52,0l-2.98,0.526l-2.279,1.578l-1.753,2.454l-0.526,2.805l0.526,2.805l1.753,2.454l2.279,1.578l2.98,0.701m-0,0l109.216,0m-0,0l2.98,-0.701l2.279,-1.578l1.753,-2.454l0.526,-2.805l-0.526,-2.805l-1.753,-2.454l-2.279,-1.578l-2.98,-0.526m-0,0l-109.216,0m-347.983,0l-2.805,0.526l-2.455,1.578l-1.577,2.454l-0.526,2.805l0.526,2.805l1.577,2.454l2.455,1.578l2.805,0.701m-0,0l109.391,0m-0,0l2.805,-0.701l2.454,-1.578l1.578,-2.454l0.701,-2.805l-0.701,-2.805l-1.578,-2.454l-2.454,-1.578l-2.805,-0.526m-0,0l-109.391,0m174.079,0l-2.98,0.526l-2.279,1.578l-1.753,2.454l-0.526,2.805l0.526,2.805l1.753,2.454l2.279,1.578l2.98,0.701m-0,0l109.216,0m-0,0l2.98,-0.701l2.279,-1.578l1.753,-2.454l0.526,-2.805l-0.526,-2.805l-1.753,-2.454l-2.279,-1.578l-2.98,-0.526m-0,0l-109.216,0m521.712,-29.802l-2.805,0.526l-2.454,1.578l-1.578,2.454l-0.701,2.805l0.701,2.805l1.578,2.454l2.454,1.578l2.805,0.701m-0,0l109.391,0m-0,0l2.805,-0.701l2.454,-1.578l1.578,-2.454l0.526,-2.805l-0.526,-2.805l-1.578,-2.454l-2.454,-1.578l-2.805,-0.526m-0,0l-109.391,0m-869.695,0l-2.805,0.526l-2.455,1.578l-1.577,2.454l-0.526,2.805l0.526,2.805l1.577,2.454l2.455,1.578l2.805,0.701m-0,0l109.391,0m-0,0l2.805,-0.701l2.454,-1.578l1.578,-2.454l0.701,-2.805l-0.701,-2.805l-1.578,-2.454l-2.454,-1.578l-2.805,-0.526m-0,0l-109.391,0m1043.6,0l-2.805,0.526l-2.455,1.578l-1.577,2.454l-0.526,2.805l0.526,2.805l1.577,2.454l2.455,1.578l2.805,0.701m-0,0l109.391,0m-0,0l2.805,-0.701l2.454,-1.578l1.578,-2.454l0.526,-2.805l-0.526,-2.805l-1.578,-2.454l-2.454,-1.578l-2.805,-0.526m-0,0l-109.391,0m173.904,0l-2.805,0.526l-2.455,1.578l-1.577,2.454l-0.526,2.805l0.526,2.805l1.577,2.454l2.455,1.578l2.805,0.701m-0,0l109.391,0m-0,0l2.805,-0.701l2.454,-1.578l1.578,-2.454l0.526,-2.805l-0.526,-2.805l-1.578,-2.454l-2.454,-1.578l-2.805,-0.526m-0,0l-109.391,0m173.904,0l-2.805,0.526l-2.455,1.578l-1.577,2.454l-0.526,2.805l0.526,2.805l1.577,2.454l2.455,1.578l2.805,0.701m-0,0l109.391,0m-0,0l2.805,-0.701l2.454,-1.578l1.578,-2.454l0.701,-2.805l-0.701,-2.805l-1.578,-2.454l-2.454,-1.578l-2.805,-0.526m-0,0l-109.391,0m-869.52,0l-2.98,0.526l-2.279,1.578l-1.753,2.454l-0.526,2.805l0.526,2.805l1.753,2.454l2.279,1.578l2.98,0.701m-0,0l109.216,0m-0,0l2.98,-0.701l2.279,-1.578l1.753,-2.454l0.526,-2.805l-0.526,-2.805l-1.753,-2.454l-2.279,-1.578l-2.98,-0.526m-0,0l-109.216,0m-347.983,0l-2.805,0.526l-2.455,1.578l-1.577,2.454l-0.526,2.805l0.526,2.805l1.577,2.454l2.455,1.578l2.805,0.701m-0,0l109.391,0m-0,0l2.805,-0.701l2.454,-1.578l1.578,-2.454l0.701,-2.805l-0.701,-2.805l-1.578,-2.454l-2.454,-1.578l-2.805,-0.526m-0,0l-109.391,0m174.079,0l-2.98,0.526l-2.279,1.578l-1.753,2.454l-0.526,2.805l0.526,2.805l1.753,2.454l2.279,1.578l2.98,0.701m-0,0l109.216,0m-0,0l2.98,-0.701l2.279,-1.578l1.753,-2.454l0.526,-2.805l-0.526,-2.805l-1.753,-2.454l-2.279,-1.578l-2.98,-0.526m-0,0l-109.216,0m521.712,238.242l-2.805,0.526l-2.454,1.753l-1.578,2.279l-0.701,2.98l0.701,2.805l1.578,2.454l2.454,1.578l2.805,0.526m-0,-0l109.391,-0m-0,-0l2.805,-0.526l2.454,-1.578l1.578,-2.454l0.526,-2.805l-0.526,-2.98l-1.578,-2.279l-2.454,-1.753l-2.805,-0.526m-0,-0l-109.391,-0m-869.695,-0l-2.805,0.526l-2.455,1.753l-1.577,2.279l-0.526,2.98l0.526,2.805l1.577,2.454l2.455,1.578l2.805,0.526m-0,-0l109.391,-0m-0,-0l2.805,-0.526l2.454,-1.578l1.578,-2.454l0.701,-2.805l-0.701,-2.98l-1.578,-2.279l-2.454,-1.753l-2.805,-0.526m-0,-0l-109.391,-0m1043.6,-0l-2.805,0.526l-2.455,1.753l-1.577,2.279l-0.526,2.98l0.526,2.805l1.577,2.454l2.455,1.578l2.805,0.526m-0,-0l109.391,-0m-0,-0l2.805,-0.526l2.454,-1.578l1.578,-2.454l0.526,-2.805l-0.526,-2.98l-1.578,-2.279l-2.454,-1.753l-2.805,-0.526m-0,-0l-109.391,-0m173.904,-0l-2.805,0.526l-2.455,1.753l-1.577,2.279l-0.526,2.98l0.526,2.805l1.577,2.454l2.455,1.578l2.805,0.526m-0,-0l109.391,-0m-0,-0l2.805,-0.526l2.454,-1.578l1.578,-2.454l0.526,-2.805l-0.526,-2.98l-1.578,-2.279l-2.454,-1.753l-2.805,-0.526m-0,-0l-109.391,-0m173.904,-0l-2.805,0.526l-2.455,1.753l-1.577,2.279l-0.526,2.98l0.526,2.805l1.577,2.454l2.455,1.578l2.805,0.526m-0,-0l109.391,-0m-0,-0l2.805,-0.526l2.454,-1.578l1.578,-2.454l0.701,-2.805l-0.701,-2.98l-1.578,-2.279l-2.454,-1.753l-2.805,-0.526m-0,-0l-109.391,-0m-869.52,-0l-2.98,0.526l-2.279,1.753l-1.753,2.279l-0.526,2.98l0.526,2.805l1.753,2.454l2.279,1.578l2.98,0.526m-0,-0l109.216,-0m-0,-0l2.98,-0.526l2.279,-1.578l1.753,-2.454l0.526,-2.805l-0.526,-2.98l-1.753,-2.279l-2.279,-1.753l-2.98,-0.526m-0,-0l-109.216,-0m-347.983,-0l-2.805,0.526l-2.455,1.753l-1.577,2.279l-0.526,2.98l0.526,2.805l1.577,2.454l2.455,1.578l2.805,0.526m-0,-0l109.391,-0m-0,-0l2.805,-0.526l2.454,-1.578l1.578,-2.454l0.701,-2.805l-0.701,-2.98l-1.578,-2.279l-2.454,-1.753l-2.805,-0.526m-0,-0l-109.391,-0m174.079,-0l-2.98,0.526l-2.279,1.753l-1.753,2.279l-0.526,2.98l0.526,2.805l1.753,2.454l2.279,1.578l2.98,0.526m-0,-0l109.216,-0m-0,-0l2.98,-0.526l2.279,-1.578l1.753,-2.454l0.526,-2.805l-0.526,-2.98l-1.753,-2.279l-2.279,-1.753l-2.98,-0.526m-0,-0l-109.216,-0m521.712,89.406l-2.805,0.701l-2.454,1.578l-1.578,2.454l-0.701,2.805l0.701,2.805l1.578,2.454l2.454,1.578l2.805,0.526m-0,0l109.391,0m-0,0l2.805,-0.526l2.454,-1.578l1.578,-2.454l0.526,-2.805l-0.526,-2.805l-1.578,-2.454l-2.454,-1.578l-2.805,-0.701m-0,0l-109.391,0m-869.695,0l-2.805,0.701l-2.455,1.578l-1.577,2.454l-0.526,2.805l0.526,2.805l1.577,2.454l2.455,1.578l2.805,0.526m-0,0l109.391,0m-0,0l2.805,-0.526l2.454,-1.578l1.578,-2.454l0.701,-2.805l-0.701,-2.805l-1.578,-2.454l-2.454,-1.578l-2.805,-0.701m-0,0l-109.391,0m1043.6,0l-2.805,0.701l-2.455,1.578l-1.577,2.454l-0.526,2.805l0.526,2.805l1.577,2.454l2.455,1.578l2.805,0.526m-0,0l109.391,0m-0,0l2.805,-0.526l2.454,-1.578l1.578,-2.454l0.526,-2.805l-0.526,-2.805l-1.578,-2.454l-2.454,-1.578l-2.805,-0.701m-0,0l-109.391,0m173.904,0l-2.805,0.701l-2.455,1.578l-1.577,2.454l-0.526,2.805l0.526,2.805l1.577,2.454l2.455,1.578l2.805,0.526m-0,0l109.391,0m-0,0l2.805,-0.526l2.454,-1.578l1.578,-2.454l0.526,-2.805l-0.526,-2.805l-1.578,-2.454l-2.454,-1.578l-2.805,-0.701m-0,0l-109.391,0m173.904,0l-2.805,0.701l-2.455,1.578l-1.577,2.454l-0.526,2.805l0.526,2.805l1.577,2.454l2.455,1.578l2.805,0.526m-0,0l109.391,0m-0,0l2.805,-0.526l2.454,-1.578l1.578,-2.454l0.701,-2.805l-0.701,-2.805l-1.578,-2.454l-2.454,-1.578l-2.805,-0.701m-0,0l-109.391,0m-869.52,0l-2.98,0.701l-2.279,1.578l-1.753,2.454l-0.526,2.805l0.526,2.805l1.753,2.454l2.279,1.578l2.98,0.526m-0,0l109.216,0m-0,0l2.98,-0.526l2.279,-1.578l1.753,-2.454l0.526,-2.805l-0.526,-2.805l-1.753,-2.454l-2.279,-1.578l-2.98,-0.701m-0,0l-109.216,0m-347.983,0l-2.805,0.701l-2.455,1.578l-1.577,2.454l-0.526,2.805l0.526,2.805l1.577,2.454l2.455,1.578l2.805,0.526m-0,0l109.391,0m-0,0l2.805,-0.526l2.454,-1.578l1.578,-2.454l0.701,-2.805l-0.701,-2.805l-1.578,-2.454l-2.454,-1.578l-2.805,-0.701m-0,0l-109.391,0m174.079,0l-2.98,0.701l-2.279,1.578l-1.753,2.454l-0.526,2.805l0.526,2.805l1.753,2.454l2.279,1.578l2.98,0.526m-0,0l109.216,0m-0,0l2.98,-0.526l2.279,-1.578l1.753,-2.454l0.526,-2.805l-0.526,-2.805l-1.753,-2.454l-2.279,-1.578l-2.98,-0.701m-0,0l-109.216,0m521.712,-29.802l-2.805,0.701l-2.454,1.578l-1.578,2.454l-0.701,2.805l0.701,2.805l1.578,2.454l2.454,1.578l2.805,0.526m-0,-0l109.391,-0m-0,-0l2.805,-0.526l2.454,-1.578l1.578,-2.454l0.526,-2.805l-0.526,-2.805l-1.578,-2.454l-2.454,-1.578l-2.805,-0.701m-0,-0l-109.391,-0m-869.695,-0l-2.805,0.701l-2.455,1.578l-1.577,2.454l-0.526,2.805l0.526,2.805l1.577,2.454l2.455,1.578l2.805,0.526m-0,-0l109.391,-0m-0,-0l2.805,-0.526l2.454,-1.578l1.578,-2.454l0.701,-2.805l-0.701,-2.805l-1.578,-2.454l-2.454,-1.578l-2.805,-0.701m-0,-0l-109.391,-0m1043.6,-0l-2.805,0.701l-2.455,1.578l-1.577,2.454l-0.526,2.805l0.526,2.805l1.577,2.454l2.455,1.578l2.805,0.526m-0,-0l109.391,-0m-0,-0l2.805,-0.526l2.454,-1.578l1.578,-2.454l0.526,-2.805l-0.526,-2.805l-1.578,-2.454l-2.454,-1.578l-2.805,-0.701m-0,-0l-109.391,-0m173.904,-0l-2.805,0.701l-2.455,1.578l-1.577,2.454l-0.526,2.805l0.526,2.805l1.577,2.454l2.455,1.578l2.805,0.526m-0,-0l109.391,-0m-0,-0l2.805,-0.526l2.454,-1.578l1.578,-2.454l0.526,-2.805l-0.526,-2.805l-1.578,-2.454l-2.454,-1.578l-2.805,-0.701m-0,-0l-109.391,-0m173.904,-0l-2.805,0.701l-2.455,1.578l-1.577,2.454l-0.526,2.805l0.526,2.805l1.577,2.454l2.455,1.578l2.805,0.526m-0,-0l109.391,-0m-0,-0l2.805,-0.526l2.454,-1.578l1.578,-2.454l0.701,-2.805l-0.701,-2.805l-1.578,-2.454l-2.454,-1.578l-2.805,-0.701m-0,-0l-109.391,-0m-869.52,-0l-2.98,0.701l-2.279,1.578l-1.753,2.454l-0.526,2.805l0.526,2.805l1.753,2.454l2.279,1.578l2.98,0.526m-0,-0l109.216,-0m-0,-0l2.98,-0.526l2.279,-1.578l1.753,-2.454l0.526,-2.805l-0.526,-2.805l-1.753,-2.454l-2.279,-1.578l-2.98,-0.701m-0,-0l-109.216,-0m-347.983,-0l-2.805,0.701l-2.455,1.578l-1.577,2.454l-0.526,2.805l0.526,2.805l1.577,2.454l2.455,1.578l2.805,0.526m-0,-0l109.391,-0m-0,-0l2.805,-0.526l2.454,-1.578l1.578,-2.454l0.701,-2.805l-0.701,-2.805l-1.578,-2.454l-2.454,-1.578l-2.805,-0.701m-0,-0l-109.391,-0m174.079,-0l-2.98,0.701l-2.279,1.578l-1.753,2.454l-0.526,2.805l0.526,2.805l1.753,2.454l2.279,1.578l2.98,0.526m-0,-0l109.216,-0m-0,-0l2.98,-0.526l2.279,-1.578l1.753,-2.454l0.526,-2.805l-0.526,-2.805l-1.753,-2.454l-2.279,-1.578l-2.98,-0.701m-0,-0l-109.216,-0m-459.303,-351.665l-7.889,0m1731.5,0l7.713,0m-7.713,539.593l-0,15.953m-0,0l-1723.61,0m0,0l0,-15.953m1721.68,-545.027l1.578,2.279l0.701,3.155m-8.414,-15.777l5.96,1.227l5.259,3.331l3.331,5.259l1.227,5.96m-1739.22,0l1.227,-5.96l3.507,-5.259l5.083,-3.331l6.136,-1.227m-8.415,15.777l0.526,-3.155l1.578,-2.455m-2.104,545.203l0,5.961m-7.538,-0l7.538,-0m-7.538,-0l0,-5.961m7.538,5.961l0,9.992m0,0l-7.538,0m0,0l0,-9.992m1739.22,-0l0,-5.961m-7.363,5.961l7.363,-0m-7.363,-5.961l0,5.961m7.363,9.992l-7.363,0m7.363,-9.992l0,9.992m-7.363,0l0,-9.992m-1731.85,18.933l7.889,-0m-7.889,-8.941l0,8.941m1739.22,-8.941l0,8.941m0,-0l-7.713,-0m-1723.61,15.777l0,-15.777m1723.61,-0l-0,15.777m0.35,-9.817l7.363,0m-7.363,-5.96l0,5.96m7.363,0l0,-5.96m-7.363,15.777l0,-9.817m7.363,0l0,9.817m-1739.22,-9.817l7.538,0m-7.538,9.817l0,-9.817m7.538,0l0,9.817m-7.538,-9.817l0,-5.96m7.538,-0l0,5.96m-191.434,21.037l-0.526,0l-0.351,0.175l-0.526,0.176l-0.701,0.701l-0.175,0.351l-0.175,0.525l-0,0.526m8.239,-2.454l-5.785,0m2101.4,0l-2095.61,0m2103.68,2.454l-0,-0.526l-0.175,-0.525l-0.176,-0.351l-0.701,-0.701l-0.351,-0.176l-0.525,-0.175l-0.526,0m2.454,2.454l-0,268.57m-2.454,2.454l0.526,0l0.525,-0.175l0.351,-0.176l0.701,-0.701l0.176,-0.35l0.175,-0.526l-0,-0.526m-2.454,2.454l-5.61,0m-2095.61,0l2095.61,0m-2101.4,0l5.785,0m-8.239,-2.454l-0,0.526l0.175,0.526l0.175,0.35l0.701,0.701l0.526,0.176l0.351,0.175l0.526,0m-2.454,-271.024l-0,268.57m1503.25,-84.673l223.516,-0m-0,-0l-0,-99.224m-0,0l-223.516,0m0,0l0,99.224m-986.099,-66.266l-0.175,-1.227l-0.701,-1.052l-1.052,-0.701l-1.227,-0.176l-1.227,0.176l-1.052,0.701l-0.701,1.052l-0.351,1.227l0.351,1.227l0.701,1.052l1.052,0.701l1.227,0.175l1.227,-0.175l1.052,-0.701l0.701,-1.052l0.175,-1.227m1586.7,-120.085l5.61,0m-2101.22,0l0.526,-3.857l0.701,-3.155l0.701,-2.63l0.526,-1.227l0.351,-0.351m-0,0l2089.83,0m-0,0l0.701,0.702l0.526,1.753l0.701,2.98l0.701,3.506l0.351,2.279m-0,273.478l-1.403,2.279l-2.454,3.857l-1.402,1.753m-0,-0l-2085.1,-0m0,-0l-1.402,-1.578l-1.227,-1.928l-1.403,-2.104l-1.227,-2.279m5.259,7.889l-0.701,0.175l-0.526,0.175l-0.526,0.351l-0.351,0.351l-0.175,0.35l0,0.526l0.175,0.526l0.176,0.351m2088.78,-0l0.35,-0.351l0,-1.052l-0.175,-0.35l-0.701,-0.702l-0.701,-0.175l-0.526,-0.175m-84.498,89.056l86.251,-86.251m-88.355,86.952l0.877,-0l0.35,-0.176l0.176,0l0.175,-0.175l0.351,-0.175l0.175,-0.175m-5.259,0.701l3.155,-0m-3.155,-0l-1905.58,-0m-3.331,-0l3.331,-0m-5.259,-0.701l0.526,0.525l0.35,0l0.176,0.176l0.876,-0m-88.354,-86.952l86.426,86.251m2011.47,-96.945l2.454,0m-0,-273.478l-0,2.454m-0,268.57l-0,2.454m-2.454,-273.478l2.454,0m-2109.46,273.478l-2.454,0m-0,-273.478l-0,2.454m-0,268.57l-0,2.454m2.454,-273.478l-2.454,0m2104.55,0l-0.351,-1.402l-0.701,-1.228l-0.175,0m8.59,2.63l-0.877,-4.383l-2.279,-3.506l-3.681,-2.454l-4.207,-0.877m-2089.83,0l-4.208,0.877l-3.506,2.454l-2.454,3.506l-0.876,4.383m8.59,-2.63l-0.877,1.228l-0.175,1.402m2101.22,281.367l-5.259,-5.259m5.259,5.259l1.403,-1.578l0.876,-1.928l0.702,-2.104l0.175,-2.279m-8.415,2.63l0.526,-0.702l0.351,-0.701l0.175,-1.227m-2101.22,7.889l5.26,-5.259m-1.052,-2.63l-0,0.877l0.35,0.876l0.702,0.877m-8.59,-2.63l0.175,2.279l0.701,1.928l1.052,1.929l1.402,1.753m5.26,-5.259l-0,0.175l0.35,0.175l0.175,0.351l0.526,0.351l0.877,0.876l0.351,0.526l0.35,0.175m-5.259,5.435l-0.351,-0.351l-0.35,-0.526l-0.526,-0.526l-0.526,-0.35l-0.877,-0.877l0,-0.175m2097.37,-2.63l0.351,-0.175l0.526,-0.526l0.35,-0.526l0.526,-0.35l1.052,-1.052m5.259,5.259l-1.051,1.052l-0.526,0.35l-0.351,0.526l-0.877,0.877m-2099.99,-0l86.426,86.251m1927.32,-0l86.25,-86.251m-97.119,86.952l-0,3.331m-1905.58,-0l1905.58,-0m-1905.58,-0l0,-3.331m-7.363,-2.805l-2.805,2.805m0,-0l-0.175,-0l-0,-0.176l-0.175,0l-0.176,-0.175l0,-0.175l-0.175,-0.175m1926.62,0.701l-2.804,-2.805m3.506,2.104l-0.702,0.701m-1916.1,-0l0,3.331m0.351,-0l-0.351,-0m-1.928,-0l1.928,-0m1906.28,-3.331l0,3.331m0,-0l-0.35,-0m-1915.75,-3.331l0.701,0.876l0.877,0.526l1.052,0.526l0.876,0.526l2.104,0.701l1.052,0.176l1.227,-0m1908.21,-0l1.929,-0m-0,-0l1.052,-0l1.051,-0.176l2.104,-0.701l1.052,-0.526l1.753,-1.052l0.876,-0.876m-1663.48,-218.081l-0,1.928m347.633,-328.349l-37.341,0m104.483,0l-67.142,0m69.246,146.381l2.804,-0m-109.391,-0l106.587,-0m-6.136,9.466l2.454,0m-96.243,0l93.789,0m-15.252,5.786l1.753,-0m-64.337,-0l62.584,-0m10.168,-184.949l-81.167,0m10.168,-5.785l60.831,0m-45.404,-7.363l29.802,0m-24.718,-16.303l19.809,-0m-12.972,-6.487l5.96,0m-5.96,-4.557l5.96,-0m-243.851,63.811l-7.538,0m79.589,0l-72.051,0m69.071,146.381l2.98,-0m-109.391,-0l106.411,-0m-6.136,9.466l2.454,0m-96.243,0l93.789,0m-15.076,5.786l1.577,-0m-64.337,-0l62.76,-0m9.992,-184.949l-62.76,0m-2.629,-5.785l55.221,0m-45.229,-7.363l29.802,0m-24.893,-16.303l19.809,-0m-12.797,-6.487l5.96,0m-5.96,-4.557l5.96,-0m943.324,210.192l2.805,-0m-109.391,-0l106.586,-0m-69.246,-146.381l-32.256,0m104.307,0l-72.051,0m62.935,155.847l2.63,0m-96.243,0l93.613,0m-15.076,5.786l1.578,-0m-64.163,-0l62.585,-0m9.992,-184.949l-80.991,0m10.168,-5.785l60.656,0m-45.23,-7.363l29.803,0m-24.894,-16.303l19.985,-0m-12.973,-6.487l5.961,0m-5.961,-4.557l5.961,-0m272.426,210.192l2.805,-0m-109.216,-0l106.411,-0m-6.136,9.466l2.454,0m-96.243,0l93.789,0m-62.935,-155.847l-37.34,0m79.414,0l-42.074,0m47.859,161.633l1.578,-0m-64.338,-0l62.76,-0m-8.415,-184.949l-62.76,0m10.168,-5.785l55.222,0m-39.62,-7.363l29.803,0m-24.894,-16.303l19.81,-0m-12.798,-6.487l5.961,0m-5.961,-4.557l5.961,-0m-621.987,210.192l2.804,-0m-109.391,-0l106.587,-0m-69.246,-146.381l-37.341,0m109.391,0l-4.908,0m-49.787,0l-17.355,0m62.935,155.847l2.454,0m-96.243,0l93.789,0m-15.077,5.786l1.578,-0m-64.162,-0l62.584,-0m-33.308,-184.949l-37.691,0m10.168,-5.785l30.328,0m-14.901,-7.363l8.94,0m-4.032,-16.303l6.837,-0m0.176,-6.487l2.98,0m-2.98,-4.557l1.227,-0m175.657,63.811l-4.909,0m109.216,0l-54.52,0m51.715,146.381l2.805,-0m-109.216,-0l106.411,-0m-6.135,9.466l2.454,0m-96.243,0l93.789,0m-15.252,5.786l1.753,-0m-64.338,-0l62.585,-0m10.168,-184.949l-37.867,0m-2.804,-5.785l30.503,0m-24.368,-7.363l8.941,0m-11.746,-16.303l6.662,-0m-9.817,-6.487l2.805,0m-1.052,-4.557l1.052,-0m-301.001,-237.19l73.453,-0m-122.189,-0l48.736,-0m-372.702,-0l94.14,-0m-188.455,-0l18.758,-0m51.716,-0l23.841,-0m1118.11,-0l23.841,-0m51.716,-0l18.582,-0m-188.454,-0l94.315,-0m-372.702,-0l48.56,-0m-122.189,-0l73.629,-0m-1048.16,447.382l217.029,-0m171.45,-0l83.095,-0m109.391,-0l8.766,-0m214.925,-0l114.3,-0m214.926,-0l8.59,-0m109.391,-0l83.271,-0m171.449,-0l217.03,-0m-1906.63,305.91l-5.259,5.259m2099.99,-0l-3.506,-3.506l-1.577,-1.753m-2008.49,91.51l2.805,-2.805m1921.71,-0l2.805,2.805m-1918.73,0.701l0,3.331m1910.14,-3.331l-0,3.331" style="fill:none;fill-rule:nonzero;stroke:#000;stroke-width:6.03px;"/></g><g><text x="5263.25px" y="2346.59px" style="font-family:'Roboto-Light', 'Roboto';font-weight:300;font-size:168.445px;">200mm</text></g><g><text x="2163.7px" y="2346.59px" style="font-family:'Roboto-Light', 'Roboto';font-weight:300;font-size:168.445px;">200mm</text></g><g><text x="4153.93px" y="1750.65px" style="font-family:'Roboto-Light', 'Roboto';font-weight:300;font-size:168.445px;">200mm</text></g><g><g><path d="M6190.63,2479.33l86.01,-43.009l-86.01,-43.009l-0,86.018Z"/><path d="M4988.83,2479.33l-86.018,-43.009l86.018,-43.009l-0,86.018Z"/><path d="M6207.83,2436.32l-1236.21,-0" style="fill:none;stroke:#000;stroke-width:14.33px;stroke-miterlimit:1.5;"/></g></g><g><g><path d="M3013.33,2479.33l86.01,-43.009l-86.01,-43.009l-0,86.018Z"/><path d="M1811.52,2479.33l-86.011,-43.009l86.011,-43.009l-0,86.018Z"/><path d="M3030.53,2436.32l-1236.21,-0" style="fill:none;stroke:#000;stroke-width:14.33px;stroke-miterlimit:1.5;"/></g></g><g><g><path d="M3956.01,2109.29l43.979,87.957l43.986,-87.957l-87.965,0Z"/><path d="M3956.01,1337.85l43.979,-87.957l43.986,87.957l-87.965,-0Z"/><path d="M3999.99,2126.88l-0,-806.62" style="fill:none;stroke:#000;stroke-width:14.69px;stroke-miterlimit:1.5;"/></g></g><g><g><rect x="5165.33" y="3281.71" width="267.747" height="6.728" style="fill:#040505;"/></g><g><rect x="2566.14" y="3281.71" width="268.549" height="6.728" style="fill:#040505;"/></g><g><path d="M6341.11,3283.52l-203.975,201.843c-0.865,0.856 -0.865,2.245 0,3.102c0.865,0.856 2.269,0.856 3.135,-0l203.975,-201.843c0.865,-0.857 0.865,-2.246 -0,-3.102c-0.866,-0.857 -2.27,-0.857 -3.135,-0Z" style="fill:#231e1e;"/></g><g><path d="M6137.15,3283.52l-203.975,201.843c-0.866,0.856 -0.866,2.245 -0,3.102c0.865,0.856 2.269,0.856 3.135,-0l203.974,-201.843c0.866,-0.857 0.866,-2.246 0,-3.102c-0.865,-0.857 -2.269,-0.857 -3.134,-0Z" style="fill:#231e1e;"/></g><g><path d="M5939.98,3283.52l-203.975,201.843c-0.865,0.856 -0.865,2.245 0,3.102c0.866,0.856 2.27,0.856 3.135,-0l203.975,-201.843c0.865,-0.857 0.865,-2.246 0,-3.102c-0.865,-0.857 -2.269,-0.857 -3.135,-0Z" style="fill:#231e1e;"/></g><g><path d="M5736.01,3283.52l-203.975,201.843c-0.865,0.856 -0.865,2.245 0,3.102c0.866,0.856 2.269,0.856 3.135,-0l203.975,-201.843c0.865,-0.857 0.865,-2.246 -0,-3.102c-0.866,-0.857 -2.269,-0.857 -3.135,-0Z" style="fill:#231e1e;"/></g><g><path d="M5535.3,3283.52l-203.975,201.843c-0.865,0.856 -0.865,2.245 0,3.102c0.866,0.856 2.269,0.856 3.135,-0l203.975,-201.843c0.865,-0.857 0.865,-2.246 -0,-3.102c-0.866,-0.857 -2.27,-0.857 -3.135,-0Z" style="fill:#231e1e;"/></g><g><path d="M5331.33,3283.52l-203.975,201.843c-0.866,0.856 -0.866,2.245 -0,3.102c0.865,0.856 2.269,0.856 3.135,-0l203.975,-201.843c0.865,-0.857 0.865,-2.246 -0,-3.102c-0.866,-0.857 -2.27,-0.857 -3.135,-0Z" style="fill:#231e1e;"/></g><g><path d="M5104.27,3283.52l-203.975,201.843c-0.865,0.856 -0.865,2.245 0,3.102c0.866,0.856 2.269,0.856 3.135,-0l203.975,-201.843c0.865,-0.857 0.865,-2.246 -0,-3.102c-0.866,-0.857 -2.269,-0.857 -3.135,-0Z" style="fill:#231e1e;"/></g><g><path d="M4900.3,3283.52l-203.975,201.843c-0.865,0.856 -0.865,2.245 -0,3.102c0.865,0.856 2.269,0.856 3.135,-0l203.975,-201.843c0.865,-0.857 0.865,-2.246 -0,-3.102c-0.866,-0.857 -2.27,-0.857 -3.135,-0Z" style="fill:#231e1e;"/></g><g><path d="M4703.14,3283.52l-203.974,201.843c-0.866,0.856 -0.866,2.245 -0,3.102c0.865,0.856 2.269,0.856 3.134,-0l203.975,-201.843c0.866,-0.857 0.866,-2.246 0,-3.102c-0.865,-0.857 -2.269,-0.857 -3.135,-0Z" style="fill:#231e1e;"/></g><g><path d="M4499.17,3283.52l-203.975,201.843c-0.865,0.856 -0.865,2.245 0,3.102c0.866,0.856 2.27,0.856 3.135,-0l203.975,-201.843c0.865,-0.857 0.865,-2.246 -0,-3.102c-0.865,-0.857 -2.269,-0.857 -3.135,-0Z" style="fill:#231e1e;"/></g><g><path d="M4298.45,3283.52l-203.975,201.843c-0.865,0.856 -0.865,2.245 0,3.102c0.866,0.856 2.269,0.856 3.135,-0l203.975,-201.843c0.865,-0.857 0.865,-2.246 -0,-3.102c-0.866,-0.857 -2.269,-0.857 -3.135,-0Z" style="fill:#231e1e;"/></g><g><path d="M4094.49,3283.52l-203.975,201.843c-0.865,0.856 -0.865,2.245 -0,3.102c0.865,0.856 2.269,0.856 3.135,-0l203.975,-201.843c0.865,-0.857 0.865,-2.246 -0,-3.102c-0.866,-0.857 -2.27,-0.857 -3.135,-0Z" style="fill:#231e1e;"/></g><g><path d="M3888.63,3283.52l-203.975,201.843c-0.866,0.856 -0.866,2.245 -0,3.102c0.865,0.856 2.269,0.856 3.134,-0l203.975,-201.843c0.866,-0.857 0.866,-2.246 0,-3.102c-0.865,-0.857 -2.269,-0.857 -3.134,-0Z" style="fill:#231e1e;"/></g><g><path d="M3684.66,3283.52l-203.975,201.843c-0.866,0.856 -0.866,2.245 -0,3.102c0.865,0.856 2.269,0.856 3.134,-0l203.975,-201.843c0.866,-0.857 0.866,-2.246 0,-3.102c-0.865,-0.857 -2.269,-0.857 -3.134,-0Z" style="fill:#231e1e;"/></g><g><path d="M3487.5,3283.52l-203.975,201.843c-0.865,0.856 -0.865,2.245 0,3.102c0.866,0.856 2.269,0.856 3.135,-0l203.975,-201.843c0.865,-0.857 0.865,-2.246 -0,-3.102c-0.866,-0.857 -2.269,-0.857 -3.135,-0Z" style="fill:#231e1e;"/></g><g><path d="M3283.53,3283.52l-203.975,201.843c-0.865,0.856 -0.865,2.245 -0,3.102c0.865,0.856 2.269,0.856 3.135,-0l203.975,-201.843c0.865,-0.857 0.865,-2.246 -0,-3.102c-0.866,-0.857 -2.27,-0.857 -3.135,-0Z" style="fill:#231e1e;"/></g><g><path d="M3082.89,3283.52l-203.975,201.843c-0.865,0.856 -0.865,2.245 0,3.102c0.866,0.856 2.269,0.856 3.135,-0l203.975,-201.843c0.865,-0.857 0.865,-2.246 -0,-3.102c-0.866,-0.857 -2.269,-0.857 -3.135,-0Z" style="fill:#231e1e;"/></g><g><path d="M2878.92,3283.52l-203.975,201.843c-0.865,0.856 -0.865,2.245 -0,3.102c0.865,0.856 2.269,0.856 3.135,-0l203.975,-201.843c0.865,-0.857 0.865,-2.246 -0,-3.102c-0.866,-0.857 -2.27,-0.857 -3.135,-0Z" style="fill:#231e1e;"/></g><g><path d="M2651.86,3283.52l-203.975,201.843c-0.865,0.856 -0.865,2.245 0,3.102c0.866,0.856 2.27,0.856 3.135,-0l203.975,-201.843c0.865,-0.857 0.865,-2.246 -0,-3.102c-0.865,-0.857 -2.269,-0.857 -3.135,-0Z" style="fill:#231e1e;"/></g><g><path d="M2447.89,3283.52l-203.975,201.843c-0.865,0.856 -0.865,2.245 0,3.102c0.865,0.856 2.269,0.856 3.135,-0l203.975,-201.843c0.865,-0.857 0.865,-2.246 -0,-3.102c-0.866,-0.857 -2.27,-0.857 -3.135,-0Z" style="fill:#231e1e;"/></g><g><path d="M2250.66,3283.52l-203.975,201.843c-0.865,0.856 -0.865,2.245 0,3.102c0.866,0.856 2.27,0.856 3.135,-0l203.975,-201.843c0.865,-0.857 0.865,-2.246 -0,-3.102c-0.866,-0.857 -2.269,-0.857 -3.135,-0Z" style="fill:#231e1e;"/></g><g><path d="M2046.69,3283.52l-203.975,201.843c-0.865,0.856 -0.865,2.245 0,3.102c0.865,0.856 2.269,0.856 3.135,-0l203.975,-201.843c0.865,-0.857 0.865,-2.246 -0,-3.102c-0.866,-0.857 -2.27,-0.857 -3.135,-0Z" style="fill:#231e1e;"/></g><g><path d="M1846.05,3283.52l-203.975,201.843c-0.865,0.856 -0.865,2.245 0,3.102c0.866,0.856 2.27,0.856 3.135,-0l203.975,-201.843c0.865,-0.857 0.865,-2.246 -0,-3.102c-0.865,-0.857 -2.269,-0.857 -3.135,-0Z" style="fill:#231e1e;"/></g><g><path d="M1655.76,3283.52l-203.975,201.843c-0.865,0.856 -0.865,2.245 0,3.102c0.865,0.856 2.269,0.856 3.135,-0l203.975,-201.843c0.865,-0.857 0.865,-2.246 -0,-3.102c-0.866,-0.857 -2.27,-0.857 -3.135,-0Z" style="fill:#231e1e;"/></g><g><path d="M6545.08,3281.04l-203.975,201.843c-0.865,0.856 -0.865,2.246 0,3.102c0.866,0.856 2.27,0.856 3.135,-0l203.975,-201.843c0.865,-0.856 0.865,-2.245 -0,-3.102c-0.865,-0.856 -2.269,-0.856 -3.135,0Z" style="fill:#231e1e;"/></g><g><path d="M6545.08,3018.64l-203.975,201.843c-0.865,0.856 -0.865,2.245 0,3.102c0.866,0.856 2.27,0.856 3.135,-0l203.975,-201.843c0.865,-0.857 0.865,-2.246 -0,-3.102c-0.865,-0.856 -2.269,-0.856 -3.135,-0Z" style="fill:#231e1e;"/></g><g><path d="M6545.08,2829.93l-203.975,201.843c-0.865,0.856 -0.865,2.245 0,3.102c0.866,0.856 2.27,0.856 3.135,-0l203.975,-201.843c0.865,-0.857 0.865,-2.246 -0,-3.102c-0.865,-0.857 -2.269,-0.857 -3.135,-0Z" style="fill:#231e1e;"/></g><g><path d="M6545.08,2628.09l-203.975,201.842c-0.865,0.857 -0.865,2.246 0,3.102c0.866,0.857 2.27,0.857 3.135,0l203.975,-201.843c0.865,-0.856 0.865,-2.245 -0,-3.101c-0.865,-0.857 -2.269,-0.857 -3.135,-0Z" style="fill:#231e1e;"/></g><g><path d="M6545.08,2439.39l-203.975,201.843c-0.865,0.857 -0.865,2.246 0,3.102c0.866,0.857 2.27,0.857 3.135,0l203.975,-201.843c0.865,-0.856 0.865,-2.245 -0,-3.102c-0.865,-0.856 -2.269,-0.856 -3.135,0Z" style="fill:#231e1e;"/></g><g><path d="M6545.08,2237.54l-203.975,201.843c-0.865,0.856 -0.865,2.245 0,3.102c0.866,0.856 2.27,0.856 3.135,-0l203.975,-201.843c0.865,-0.856 0.865,-2.246 -0,-3.102c-0.865,-0.856 -2.269,-0.856 -3.135,-0Z" style="fill:#231e1e;"/></g><g><path d="M6545.08,2048.84l-203.975,201.843c-0.865,0.856 -0.865,2.246 0,3.102c0.866,0.856 2.27,0.856 3.135,-0l203.975,-201.843c0.865,-0.856 0.865,-2.246 -0,-3.102c-0.865,-0.856 -2.269,-0.856 -3.135,0Z" style="fill:#231e1e;"/></g><g><path d="M6545.08,1831.83l-203.975,201.843c-0.865,0.856 -0.865,2.245 0,3.102c0.866,0.856 2.27,0.856 3.135,-0l203.975,-201.843c0.865,-0.857 0.865,-2.246 -0,-3.102c-0.865,-0.857 -2.269,-0.857 -3.135,-0Z" style="fill:#231e1e;"/></g><g><path d="M6545.08,1629.98l-203.975,201.843c-0.865,0.857 -0.865,2.246 0,3.102c0.866,0.857 2.27,0.857 3.135,0l203.975,-201.843c0.865,-0.856 0.865,-2.245 -0,-3.102c-0.865,-0.856 -2.269,-0.856 -3.135,0Z" style="fill:#231e1e;"/></g><g><path d="M6545.08,1441.28l-203.975,201.843c-0.865,0.857 -0.865,2.246 0,3.102c0.866,0.856 2.27,0.856 3.135,0l203.975,-201.843c0.865,-0.856 0.865,-2.245 -0,-3.102c-0.865,-0.856 -2.269,-0.856 -3.135,0Z" style="fill:#231e1e;"/></g><g><path d="M6545.08,1239.44l-203.975,201.843c-0.865,0.856 -0.865,2.245 0,3.102c0.866,0.856 2.27,0.856 3.135,-0l203.975,-201.843c0.865,-0.856 0.865,-2.246 -0,-3.102c-0.865,-0.856 -2.269,-0.856 -3.135,0Z" style="fill:#231e1e;"/></g><g><path d="M6550.1,1216.24c-0,-1.857 -1.523,-3.364 -3.4,-3.364l-203.977,-0c-1.876,-0 -3.399,1.507 -3.399,3.364l-0,2066.35c-0,1.857 1.523,3.364 3.399,3.364l203.977,0c1.877,0 3.4,-1.507 3.4,-3.364l-0,-2066.35Zm-6.799,3.364l-0,2059.62l-197.178,-0l-0,-2059.62l197.178,-0Z" style="fill:#231e1e;"/></g><g><path d="M1655.76,3021.12l-203.975,201.842c-0.865,0.857 -0.865,2.246 0,3.102c0.865,0.857 2.269,0.857 3.135,0l203.975,-201.843c0.865,-0.856 0.865,-2.245 -0,-3.101c-0.866,-0.857 -2.27,-0.857 -3.135,-0Z" style="fill:#231e1e;"/></g><g><path d="M1655.76,2832.43l-203.975,201.843c-0.865,0.856 -0.865,2.245 0,3.101c0.865,0.857 2.269,0.857 3.135,0l203.975,-201.842c0.865,-0.857 0.865,-2.246 -0,-3.102c-0.866,-0.857 -2.27,-0.857 -3.135,-0Z" style="fill:#231e1e;"/></g><g><path d="M1655.76,2630.58l-203.975,201.843c-0.865,0.856 -0.865,2.246 0,3.102c0.865,0.856 2.269,0.856 3.135,0l203.975,-201.843c0.865,-0.856 0.865,-2.245 -0,-3.102c-0.866,-0.856 -2.27,-0.856 -3.135,0Z" style="fill:#231e1e;"/></g><g><path d="M1655.76,2441.87l-203.975,201.843c-0.865,0.856 -0.865,2.246 0,3.102c0.865,0.856 2.269,0.856 3.135,-0l203.975,-201.843c0.865,-0.856 0.865,-2.246 -0,-3.102c-0.866,-0.856 -2.27,-0.856 -3.135,0Z" style="fill:#231e1e;"/></g><g><path d="M1655.76,2240.03l-203.975,201.843c-0.865,0.856 -0.865,2.245 0,3.102c0.865,0.856 2.269,0.856 3.135,-0l203.975,-201.843c0.865,-0.857 0.865,-2.246 -0,-3.102c-0.866,-0.856 -2.27,-0.856 -3.135,-0Z" style="fill:#231e1e;"/></g><g><path d="M1655.76,2051.33l-203.975,201.843c-0.865,0.856 -0.865,2.245 0,3.102c0.865,0.856 2.269,0.856 3.135,-0l203.975,-201.843c0.865,-0.857 0.865,-2.246 -0,-3.102c-0.866,-0.857 -2.27,-0.857 -3.135,-0Z" style="fill:#231e1e;"/></g><g><path d="M1655.76,1834.32l-203.975,201.842c-0.865,0.857 -0.865,2.246 0,3.102c0.865,0.857 2.269,0.857 3.135,0l203.975,-201.843c0.865,-0.856 0.865,-2.245 -0,-3.101c-0.866,-0.857 -2.27,-0.857 -3.135,-0Z" style="fill:#231e1e;"/></g><g><path d="M1655.76,1632.47l-203.975,201.843c-0.865,0.856 -0.865,2.245 0,3.102c0.865,0.856 2.269,0.856 3.135,-0l203.975,-201.843c0.865,-0.856 0.865,-2.246 -0,-3.102c-0.866,-0.856 -2.27,-0.856 -3.135,0Z" style="fill:#231e1e;"/></g><g><path d="M1655.76,1443.76l-203.975,201.843c-0.865,0.856 -0.865,2.245 0,3.102c0.865,0.856 2.269,0.856 3.135,-0l203.975,-201.843c0.865,-0.857 0.865,-2.246 -0,-3.102c-0.866,-0.856 -2.27,-0.856 -3.135,-0Z" style="fill:#231e1e;"/></g><g><path d="M1655.76,1241.92l-203.975,201.843c-0.865,0.856 -0.865,2.245 0,3.101c0.865,0.857 2.269,0.857 3.135,0l203.975,-201.842c0.865,-0.857 0.865,-2.246 -0,-3.102c-0.866,-0.857 -2.27,-0.857 -3.135,-0Z" style="fill:#231e1e;"/></g><g><path d="M1660.73,1218.73c0,-1.857 -1.523,-3.364 -3.399,-3.364l-203.977,0c-1.877,0 -3.4,1.507 -3.4,3.364l-0,2066.35c-0,1.857 1.523,3.364 3.4,3.364l203.977,-0c1.876,-0 3.399,-1.507 3.399,-3.364l0,-2066.35Zm-6.799,3.364l-0,2059.62l-197.178,-0l0,-2059.62l197.178,0Z" style="fill:#231e1e;"/></g><g><path d="M1453.3,3281.71c-1.877,0 -3.4,1.507 -3.4,3.364l0,201.845c0,1.857 1.523,3.364 3.4,3.364l5093.35,0c1.877,0 3.4,-1.507 3.4,-3.364l0,-201.845c0,-1.857 -1.523,-3.364 -3.4,-3.364l-5093.35,0Zm3.399,6.729l5086.55,-0l-0,195.116l-5086.55,0l0,-195.116Z" style="fill:#231e1e;"/></g><g><path d="M6341.11,1012.85l-203.975,201.843c-0.865,0.856 -0.865,2.245 0,3.102c0.865,0.856 2.269,0.856 3.135,-0l203.975,-201.843c0.865,-0.857 0.865,-2.246 -0,-3.102c-0.866,-0.857 -2.27,-0.857 -3.135,-0Z" style="fill:#231e1e;"/></g><g><path d="M6137.15,1012.85l-203.975,201.843c-0.866,0.856 -0.866,2.245 -0,3.102c0.865,0.856 2.269,0.856 3.135,-0l203.974,-201.843c0.866,-0.857 0.866,-2.246 0,-3.102c-0.865,-0.857 -2.269,-0.857 -3.134,-0Z" style="fill:#231e1e;"/></g><g><path d="M5939.98,1012.85l-203.975,201.843c-0.865,0.856 -0.865,2.245 0,3.102c0.866,0.856 2.27,0.856 3.135,-0l203.975,-201.843c0.865,-0.857 0.865,-2.246 0,-3.102c-0.865,-0.857 -2.269,-0.857 -3.135,-0Z" style="fill:#231e1e;"/></g><g><path d="M5736.01,1012.85l-203.975,201.843c-0.865,0.856 -0.865,2.245 0,3.102c0.866,0.856 2.269,0.856 3.135,-0l203.975,-201.843c0.865,-0.857 0.865,-2.246 -0,-3.102c-0.866,-0.857 -2.269,-0.857 -3.135,-0Z" style="fill:#231e1e;"/></g><g><path d="M5535.3,1012.85l-203.975,201.843c-0.865,0.856 -0.865,2.245 0,3.102c0.866,0.856 2.269,0.856 3.135,-0l203.975,-201.843c0.865,-0.857 0.865,-2.246 -0,-3.102c-0.866,-0.857 -2.27,-0.857 -3.135,-0Z" style="fill:#231e1e;"/></g><g><path d="M5331.33,1012.85l-203.975,201.843c-0.866,0.856 -0.866,2.245 -0,3.102c0.865,0.856 2.269,0.856 3.135,-0l203.975,-201.843c0.865,-0.857 0.865,-2.246 -0,-3.102c-0.866,-0.857 -2.27,-0.857 -3.135,-0Z" style="fill:#231e1e;"/></g><g><path d="M5104.27,1012.85l-203.975,201.843c-0.865,0.856 -0.865,2.245 0,3.102c0.866,0.856 2.269,0.856 3.135,-0l203.975,-201.843c0.865,-0.857 0.865,-2.246 -0,-3.102c-0.866,-0.857 -2.269,-0.857 -3.135,-0Z" style="fill:#231e1e;"/></g><g><path d="M4900.3,1012.85l-203.975,201.843c-0.865,0.856 -0.865,2.245 -0,3.102c0.865,0.856 2.269,0.856 3.135,-0l203.975,-201.843c0.865,-0.857 0.865,-2.246 -0,-3.102c-0.866,-0.857 -2.27,-0.857 -3.135,-0Z" style="fill:#231e1e;"/></g><g><path d="M4703.14,1012.85l-203.974,201.843c-0.866,0.856 -0.866,2.245 -0,3.102c0.865,0.856 2.269,0.856 3.134,-0l203.975,-201.843c0.866,-0.857 0.866,-2.246 0,-3.102c-0.865,-0.857 -2.269,-0.857 -3.135,-0Z" style="fill:#231e1e;"/></g><g><path d="M4499.17,1012.85l-203.975,201.843c-0.865,0.856 -0.865,2.245 0,3.102c0.866,0.856 2.27,0.856 3.135,-0l203.975,-201.843c0.865,-0.857 0.865,-2.246 -0,-3.102c-0.865,-0.857 -2.269,-0.857 -3.135,-0Z" style="fill:#231e1e;"/></g><g><path d="M4298.45,1012.85l-203.975,201.843c-0.865,0.856 -0.865,2.245 0,3.102c0.866,0.856 2.269,0.856 3.135,-0l203.975,-201.843c0.865,-0.857 0.865,-2.246 -0,-3.102c-0.866,-0.857 -2.269,-0.857 -3.135,-0Z" style="fill:#231e1e;"/></g><g><path d="M4094.49,1012.85l-203.975,201.843c-0.865,0.856 -0.865,2.245 -0,3.102c0.865,0.856 2.269,0.856 3.135,-0l203.975,-201.843c0.865,-0.857 0.865,-2.246 -0,-3.102c-0.866,-0.857 -2.27,-0.857 -3.135,-0Z" style="fill:#231e1e;"/></g><g><path d="M3888.63,1012.85l-203.975,201.843c-0.866,0.856 -0.866,2.245 -0,3.102c0.865,0.856 2.269,0.856 3.134,-0l203.975,-201.843c0.866,-0.857 0.866,-2.246 0,-3.102c-0.865,-0.857 -2.269,-0.857 -3.134,-0Z" style="fill:#231e1e;"/></g><g><path d="M3684.66,1012.85l-203.975,201.843c-0.866,0.856 -0.866,2.245 -0,3.102c0.865,0.856 2.269,0.856 3.134,-0l203.975,-201.843c0.866,-0.857 0.866,-2.246 0,-3.102c-0.865,-0.857 -2.269,-0.857 -3.134,-0Z" style="fill:#231e1e;"/></g><g><path d="M3487.5,1012.85l-203.975,201.843c-0.865,0.856 -0.865,2.245 0,3.102c0.866,0.856 2.269,0.856 3.135,-0l203.975,-201.843c0.865,-0.857 0.865,-2.246 -0,-3.102c-0.866,-0.857 -2.269,-0.857 -3.135,-0Z" style="fill:#231e1e;"/></g><g><path d="M3283.53,1012.85l-203.975,201.843c-0.865,0.856 -0.865,2.245 -0,3.102c0.865,0.856 2.269,0.856 3.135,-0l203.975,-201.843c0.865,-0.857 0.865,-2.246 -0,-3.102c-0.866,-0.857 -2.27,-0.857 -3.135,-0Z" style="fill:#231e1e;"/></g><g><path d="M3082.89,1012.85l-203.975,201.843c-0.865,0.856 -0.865,2.245 0,3.102c0.866,0.856 2.269,0.856 3.135,-0l203.975,-201.843c0.865,-0.857 0.865,-2.246 -0,-3.102c-0.866,-0.857 -2.269,-0.857 -3.135,-0Z" style="fill:#231e1e;"/></g><g><path d="M2878.92,1012.85l-203.975,201.843c-0.865,0.856 -0.865,2.245 -0,3.102c0.865,0.856 2.269,0.856 3.135,-0l203.975,-201.843c0.865,-0.857 0.865,-2.246 -0,-3.102c-0.866,-0.857 -2.27,-0.857 -3.135,-0Z" style="fill:#231e1e;"/></g><g><path d="M2651.86,1012.85l-203.975,201.843c-0.865,0.856 -0.865,2.245 0,3.102c0.866,0.856 2.27,0.856 3.135,-0l203.975,-201.843c0.865,-0.857 0.865,-2.246 -0,-3.102c-0.865,-0.857 -2.269,-0.857 -3.135,-0Z" style="fill:#231e1e;"/></g><g><path d="M2447.89,1012.85l-203.975,201.843c-0.865,0.856 -0.865,2.245 0,3.102c0.865,0.856 2.269,0.856 3.135,-0l203.975,-201.843c0.865,-0.857 0.865,-2.246 -0,-3.102c-0.866,-0.857 -2.27,-0.857 -3.135,-0Z" style="fill:#231e1e;"/></g><g><path d="M2250.66,1012.85l-203.975,201.843c-0.865,0.856 -0.865,2.245 0,3.102c0.866,0.856 2.27,0.856 3.135,-0l203.975,-201.843c0.865,-0.857 0.865,-2.246 -0,-3.102c-0.866,-0.857 -2.269,-0.857 -3.135,-0Z" style="fill:#231e1e;"/></g><g><path d="M2046.69,1012.85l-203.975,201.843c-0.865,0.856 -0.865,2.245 0,3.102c0.865,0.856 2.269,0.856 3.135,-0l203.975,-201.843c0.865,-0.857 0.865,-2.246 -0,-3.102c-0.866,-0.857 -2.27,-0.857 -3.135,-0Z" style="fill:#231e1e;"/></g><g><path d="M1846.05,1012.85l-203.975,201.843c-0.865,0.856 -0.865,2.245 0,3.102c0.866,0.856 2.27,0.856 3.135,-0l203.975,-201.843c0.865,-0.857 0.865,-2.246 -0,-3.102c-0.865,-0.857 -2.269,-0.857 -3.135,-0Z" style="fill:#231e1e;"/></g><g><path d="M1655.76,1012.85l-203.975,201.843c-0.865,0.856 -0.865,2.245 0,3.102c0.865,0.856 2.269,0.856 3.135,-0l203.975,-201.843c0.865,-0.857 0.865,-2.246 -0,-3.102c-0.866,-0.857 -2.27,-0.857 -3.135,-0Z" style="fill:#231e1e;"/></g><g><path d="M6545.08,1010.36l-203.975,201.843c-0.865,0.856 -0.865,2.245 0,3.102c0.866,0.856 2.27,0.856 3.135,-0l203.975,-201.843c0.865,-0.857 0.865,-2.246 -0,-3.102c-0.865,-0.856 -2.269,-0.856 -3.135,-0Z" style="fill:#231e1e;"/></g><g><path d="M1453.3,1011.03c-1.877,-0 -3.4,1.507 -3.4,3.364l0,201.845c0,1.856 1.523,3.364 3.4,3.364l5093.35,-0c1.877,-0 3.4,-1.508 3.4,-3.364l0,-201.845c0,-1.857 -1.523,-3.364 -3.4,-3.364l-5093.35,-0Zm3.399,6.728l5086.55,-0l-0,195.116l-5086.55,0l0,-195.116Z" style="fill:#231e1e;"/></g></g></g></svg>