<?xml version="1.0" encoding="UTF-8" standalone="no"?>
<!DOCTYPE svg PUBLIC "-//W3C//DTD SVG 1.1//EN" "http://www.w3.org/Graphics/SVG/1.1/DTD/svg11.dtd">
<svg width="100%" height="100%" viewBox="0 0 1920 1080" version="1.1" xmlns="http://www.w3.org/2000/svg" xmlns:xlink="http://www.w3.org/1999/xlink" xml:space="preserve" xmlns:serif="http://www.serif.com/" style="fill-rule:evenodd;clip-rule:evenodd;stroke-linecap:square;stroke-miterlimit:1.5;">
    <g transform="matrix(1,0,0,0.986541,1.08002e-12,0)">
        <path d="M1920,27.337C1920,12.249 1907.91,0 1893.03,0L26.969,0C12.085,0 0,12.249 0,27.337L0,1067.4C0,1082.48 12.085,1094.73 26.969,1094.73L1893.03,1094.73C1907.91,1094.73 1920,1082.48 1920,1067.4L1920,27.337Z" style="fill:rgb(250,250,250);"/>
    </g>
    <g id="description" transform="matrix(1,0,0,1,-21,0)">
        <g transform="matrix(1,0,0,1,-124.679,192.024)">
            <text x="1082.48px" y="108.667px" style="font-family:'Inter-Regular', 'Inter';font-size:36px;">1<tspan x="1097.67px " y="108.667px ">.</tspan> P<tspan x="1140.37px 1161.18px 1189.76px " y="108.667px 108.667px 108.667px ">owe</tspan>r / Input Select<tspan x="1460.28px " y="108.667px ">o</tspan>r</text>
        </g>
        <g transform="matrix(1,0,0,1,-125.19,302.402)">
            <text x="1082.48px" y="108.667px" style="font-family:'Inter-Regular', 'Inter';font-size:36px;">2. V<tspan x="1146.81px " y="108.667px ">o</tspan>lume Up</text>
        </g>
        <g transform="matrix(1,0,0,1,-125.139,416.693)">
            <text x="1082.48px" y="108.667px" style="font-family:'Inter-Regular', 'Inter';font-size:36px;">3<tspan x="1104.57px " y="108.667px ">.</tspan> V<tspan x="1147.12px " y="108.667px ">o</tspan>lume Do<tspan x="1307.12px " y="108.667px ">w</tspan>n</text>
        </g>
        <g transform="matrix(1,0,0,1,-124.576,524.259)">
            <text x="1082.48px" y="108.667px" style="font-family:'Inter-Regular', 'Inter';font-size:36px;">4<tspan x="1104.37px " y="108.667px ">.</tspan> Mut<tspan x="1190.22px " y="108.667px ">e</tspan> / Brightness</text>
        </g>
    </g>
    <g id="gombfeliratok" transform="matrix(1,0,0,1,0,-5)">
        <g transform="matrix(1,0,0,1,-276.722,64.0387)">
            <text x="936.581px" y="195.896px" style="font-family:'Inter-Medium', 'Inter';font-weight:500;font-size:16px;">PO<tspan x="958.951px " y="195.896px ">W</tspan>ER</text>
        </g>
        <g transform="matrix(1,0,0,1,-266.253,173.053)">
            <g transform="matrix(16,0,0,16,967.428,195.896)">
                <path d="M0.285,-0.122L0.285,-0.602L0.381,-0.602L0.381,-0.122L0.285,-0.122ZM0.093,-0.315L0.093,-0.41L0.573,-0.41L0.573,-0.315L0.093,-0.315Z" style="fill-rule:nonzero;"/>
            </g>
            <text x="936.581px" y="195.896px" style="font-family:'Inter-Medium', 'Inter';font-weight:500;font-size:16px;">V<tspan x="947.201px " y="195.896px ">O</tspan>L</text>
        </g>
        <g transform="matrix(1,0,0,1,-264.441,284.44)">
            <g transform="matrix(16,0,0,16,967.428,195.896)">
                <rect x="0.07" y="-0.41" width="0.322" height="0.092" style="fill-rule:nonzero;"/>
            </g>
            <text x="936.581px" y="195.896px" style="font-family:'Inter-Medium', 'Inter';font-weight:500;font-size:16px;">V<tspan x="947.201px " y="195.896px ">O</tspan>L</text>
        </g>
        <g transform="matrix(1,0,0,1,-268.812,389.942)">
            <text x="936.581px" y="195.896px" style="font-family:'Inter-Medium', 'Inter';font-weight:500;font-size:16px;">MUTE</text>
        </g>
    </g>
    <g transform="matrix(1,0,0,1,-168.19,-225.725)">
        <g transform="matrix(0.678462,0,0,1.13679,-118.6,-116.402)">
            <path d="M1616.18,478.985C1616.18,473.73 1612.68,468.691 1606.45,464.976C1600.23,461.26 1591.78,459.173 1582.98,459.173L1298.21,459.173C1289.41,459.173 1280.96,461.26 1274.74,464.976C1268.51,468.691 1265.02,473.73 1265.02,478.985L1265.02,1072.97C1265.02,1078.23 1268.51,1083.27 1274.74,1086.98C1280.96,1090.7 1289.41,1092.79 1298.21,1092.79L1582.98,1092.79C1591.78,1092.79 1600.23,1090.7 1606.45,1086.98C1612.68,1083.27 1616.18,1078.23 1616.18,1072.97L1616.18,478.985Z" style="fill:none;stroke:rgb(29,29,27);stroke-width:2.68px;"/>
        </g>
        <g transform="matrix(0.310901,0,0,0.310901,423.877,343.397)">
            <circle cx="1398.87" cy="556.436" r="71.285" style="fill:none;stroke:rgb(29,29,27);stroke-width:8.06px;"/>
        </g>
        <g transform="matrix(0.310901,0,0,0.310901,423.877,454.209)">
            <circle cx="1398.87" cy="556.436" r="71.285" style="fill:none;stroke:rgb(29,29,27);stroke-width:8.06px;"/>
        </g>
        <g transform="matrix(0.310901,0,0,0.310901,423.877,565.022)">
            <circle cx="1398.87" cy="556.436" r="71.285" style="fill:none;stroke:rgb(29,29,27);stroke-width:8.06px;"/>
        </g>
        <g transform="matrix(0.388627,0,0,0.388627,315.15,632.586)">
            <circle cx="1398.87" cy="556.436" r="71.285" style="fill:none;stroke:rgb(29,29,27);stroke-width:6.45px;"/>
        </g>
    </g>
</svg>
