<?xml version="1.0" encoding="UTF-8" standalone="no"?><!DOCTYPE svg PUBLIC "-//W3C//DTD SVG 1.1//EN" "http://www.w3.org/Graphics/SVG/1.1/DTD/svg11.dtd"><svg width="100%" height="100%" viewBox="0 0 8000 4500" version="1.1" xmlns="http://www.w3.org/2000/svg" xmlns:xlink="http://www.w3.org/1999/xlink" xml:space="preserve" xmlns:serif="http://www.serif.com/" style="fill-rule:evenodd;clip-rule:evenodd;stroke-linecap:square;stroke-miterlimit:1.5;"><path d="M8000,112.372c0,-62.02 -50.352,-112.372 -112.372,-112.372l-7775.26,0c-62.02,0 -112.372,50.352 -112.372,112.372l0,4275.26c0,62.02 50.352,112.372 112.372,112.372l7775.26,-0c62.02,-0 112.372,-50.352 112.372,-112.372l0,-4275.26Z" style="fill:#fafafa;"/><g><g id="Réteg-1" serif:id="Réteg 1"><g><g><path d="M2908.27,839.985c3.373,-55.693 49.579,-99.669 106.111,-99.669c58.75,-0 106.324,47.567 106.324,106.323c-0,58.75 -47.574,106.318 -106.324,106.318c-1.677,0 -3.039,1.361 -3.039,3.039c0,1.677 1.362,3.038 3.039,3.038c62.105,0 112.401,-50.29 112.401,-112.395c-0,-62.11 -50.296,-112.401 -112.401,-112.401c-59.765,0 -108.609,46.504 -112.176,105.382c-0.104,1.671 1.173,3.112 2.85,3.215c1.671,0.103 3.112,-1.173 3.215,-2.85Z" style="fill:#231f20;"/></g><g><path d="M3530.24,839.985c3.373,-55.693 49.579,-99.669 106.111,-99.669c58.75,-0 106.323,47.567 106.323,106.323c0,58.75 -47.573,106.318 -106.323,106.318c-1.678,0 -3.039,1.361 -3.039,3.039c-0,1.677 1.361,3.038 3.039,3.038c62.104,0 112.401,-50.29 112.401,-112.395c-0,-62.11 -50.297,-112.401 -112.401,-112.401c-59.765,0 -108.609,46.504 -112.177,105.382c-0.103,1.671 1.173,3.112 2.851,3.215c1.671,0.103 3.111,-1.173 3.215,-2.85Z" style="fill:#231f20;"/></g><g><path d="M2928.74,824.139l-23.047,8.18l-21.884,-10.908l19.236,54.611l25.695,-51.883Z" style="fill:#231f20;fill-rule:nonzero;"/></g><g><path d="M3550.71,824.139l-23.046,8.18l-21.884,-10.908l19.236,54.611l25.694,-51.883Z" style="fill:#231f20;fill-rule:nonzero;"/></g></g><g><g><path d="M2908.27,3649.88c3.373,-55.693 49.579,-99.669 106.111,-99.669c58.75,0 106.324,47.568 106.324,106.324c-0,58.75 -47.574,106.318 -106.324,106.318c-1.677,-0 -3.039,1.361 -3.039,3.038c0,1.678 1.362,3.039 3.039,3.039c62.105,0 112.401,-50.29 112.401,-112.395c-0,-62.111 -50.296,-112.401 -112.401,-112.401c-59.765,-0 -108.609,46.504 -112.176,105.382c-0.104,1.671 1.173,3.111 2.85,3.215c1.671,0.103 3.112,-1.173 3.215,-2.851Z" style="fill:#231f20;"/></g><g><path d="M3530.24,3649.88c3.373,-55.693 49.579,-99.669 106.111,-99.669c58.75,0 106.323,47.568 106.323,106.324c0,58.75 -47.573,106.318 -106.323,106.318c-1.678,-0 -3.039,1.361 -3.039,3.038c-0,1.678 1.361,3.039 3.039,3.039c62.104,0 112.401,-50.29 112.401,-112.395c-0,-62.111 -50.297,-112.401 -112.401,-112.401c-59.765,-0 -108.609,46.504 -112.177,105.382c-0.103,1.671 1.173,3.111 2.851,3.215c1.671,0.103 3.111,-1.173 3.215,-2.851Z" style="fill:#231f20;"/></g><g><path d="M2928.74,3634.03l-23.047,8.181l-21.884,-10.908l19.236,54.61l25.695,-51.883Z" style="fill:#231f20;fill-rule:nonzero;"/></g><g><path d="M3550.71,3634.03l-23.046,8.181l-21.884,-10.908l19.236,54.61l25.694,-51.883Z" style="fill:#231f20;fill-rule:nonzero;"/></g></g><g><text x="2981.72px" y="1071.69px" style="font-family:'Roboto-Regular', 'Roboto';font-size:119.119px;">a.</text></g><g><text x="2982.71px" y="3504.71px" style="font-family:'Roboto-Regular', 'Roboto';font-size:119.119px;">c.</text></g><g><text x="3599.75px" y="1072.68px" style="font-family:'Roboto-Regular', 'Roboto';font-size:119.119px;">b.</text></g><g><text x="3599.4px" y="3504.71px" style="font-family:'Roboto-Regular', 'Roboto';font-size:119.119px;">d.</text></g></g><g><path d="M3854.35,749.353c0,-26.552 -10.555,-52.013 -29.342,-70.784c-18.757,-18.776 -44.238,-29.321 -70.776,-29.321l-858.75,0c-26.537,0 -52.019,10.545 -70.776,29.321c-18.787,18.771 -29.312,44.232 -29.312,70.784l0,3001.25c0,26.578 10.525,52.044 29.312,70.789c18.757,18.797 44.239,29.357 70.776,29.357l858.75,-0c26.538,-0 52.019,-10.56 70.776,-29.357c18.787,-18.745 29.342,-44.211 29.342,-70.789l0,-3001.25Z" style="fill:none;stroke:#1d1d1b;stroke-width:11.14px;"/></g><g><path d="M5204.61,749.353c-0,-26.552 -10.555,-52.013 -29.342,-70.784c-18.757,-18.776 -44.239,-29.321 -70.776,-29.321l-858.751,0c-26.537,0 -52.019,10.545 -70.775,29.321c-18.788,18.771 -29.312,44.232 -29.312,70.784l-0,3001.25c-0,26.578 10.524,52.044 29.312,70.789c18.756,18.797 44.238,29.357 70.775,29.357l858.751,-0c26.537,-0 52.019,-10.56 70.776,-29.357c18.787,-18.745 29.342,-44.211 29.342,-70.789l-0,-3001.25Z" style="fill:none;stroke:#1d1d1b;stroke-width:11.14px;"/></g><g><path d="M3780.56,749.353l0,3001.25c0,7.024 -2.774,13.693 -7.689,18.645c-4.946,4.952 -11.64,7.731 -18.637,7.731l-858.75,-0c-6.966,-0 -13.691,-2.779 -18.606,-7.731c-4.946,-4.952 -7.72,-11.621 -7.72,-18.645l-0,-3001.25c-0,-6.988 2.774,-13.683 7.72,-18.624c4.915,-4.937 11.64,-7.711 18.606,-7.711l858.75,0c6.997,0 13.691,2.774 18.637,7.711c4.915,4.941 7.689,11.636 7.689,18.624Z" style="fill:none;stroke:#1d1d1b;stroke-width:11.14px;"/></g><g><path d="M5130.81,749.353l0,3001.25c0,7.024 -2.774,13.693 -7.69,18.645c-4.945,4.952 -11.64,7.731 -18.636,7.731l-858.751,-0c-6.966,-0 -13.69,-2.779 -18.606,-7.731c-4.945,-4.952 -7.72,-11.621 -7.72,-18.645l0,-3001.25c0,-6.988 2.775,-13.683 7.72,-18.624c4.916,-4.937 11.64,-7.711 18.606,-7.711l858.751,0c6.996,0 13.691,2.774 18.636,7.711c4.916,4.941 7.69,11.636 7.69,18.624Z" style="fill:none;stroke:#1d1d1b;stroke-width:11.14px;"/></g><g><path d="M5086.47,950.914l-0,2598.14c-0,6.978 -2.791,13.691 -7.736,18.638c-4.918,4.902 -11.632,7.685 -18.622,7.685l-769.997,-0c-6.99,-0 -13.676,-2.783 -18.622,-7.685c-4.945,-4.947 -7.708,-11.66 -7.708,-18.638l-0,-2598.14c-0,-6.987 2.763,-13.682 7.708,-18.624c4.946,-4.938 11.632,-7.711 18.622,-7.711l769.997,-0c6.99,-0 13.704,2.773 18.622,7.711c4.945,4.942 7.736,11.637 7.736,18.624Z" style="fill:none;stroke:#1d1d1b;stroke-width:11.14px;"/></g><g><text x="4531.61px" y="3216.69px" style="font-family:'SFUIText-Regular', 'SF UI Text';font-size:74.99px;">CR2032</text></g><g><text x="4625.59px" y="3336.72px" style="font-family:'SFUIText-Regular', 'SF UI Text';font-size:74.99px;">3<tspan x="4671.51px " y="3336.72px ">V</tspan></text></g><g><text x="4600.74px" y="3133.62px" style="font-family:'SFUIText-Regular', 'SF UI Text';font-size:229.391px;">+</text></g><g><circle cx="3014.98" cy="843.807" r="60.433" style="fill:none;stroke:#1d1d1b;stroke-width:5.57px;"/><g><circle cx="3014.98" cy="3656.17" r="60.433" style="fill:none;stroke:#1d1d1b;stroke-width:5.57px;"/></g><g><circle cx="3634.74" cy="843.807" r="60.433" style="fill:none;stroke:#1d1d1b;stroke-width:5.57px;"/></g><g><circle cx="3634.74" cy="3656.17" r="60.433" style="fill:none;stroke:#1d1d1b;stroke-width:5.57px;"/></g><g><path d="M3035.84,843.806l15.264,-15.264l-20.867,-20.866l-15.263,15.263l-15.27,-15.269l-20.864,20.864l15.269,15.27l-15.266,15.266l20.867,20.867l15.266,-15.267l15.269,15.269l20.864,-20.864l-15.269,-15.269Z" style="fill:none;stroke:#1d1d1b;stroke-width:5.57px;"/></g><g><path d="M3035.84,3656.17l15.264,-15.264l-20.867,-20.866l-15.263,15.263l-15.27,-15.269l-20.864,20.865l15.269,15.269l-15.266,15.266l20.867,20.867l15.266,-15.267l15.269,15.27l20.864,-20.865l-15.269,-15.269Z" style="fill:none;stroke:#1d1d1b;stroke-width:5.57px;"/></g><g><path d="M3655.61,843.806l15.263,-15.264l-20.866,-20.866l-15.264,15.263l-15.269,-15.269l-20.865,20.864l15.27,15.27l-15.267,15.266l20.867,20.867l15.266,-15.267l15.269,15.269l20.865,-20.864l-15.269,-15.269Z" style="fill:none;stroke:#1d1d1b;stroke-width:5.57px;"/></g><g><path d="M3655.61,3656.17l15.263,-15.264l-20.866,-20.866l-15.264,15.263l-15.269,-15.269l-20.865,20.865l15.27,15.269l-15.267,15.266l20.867,20.867l15.266,-15.267l15.269,15.27l20.865,-20.865l-15.269,-15.269Z" style="fill:none;stroke:#1d1d1b;stroke-width:5.57px;"/></g></g><circle cx="4675.11" cy="3190.27" r="256.798" style="fill:none;stroke:#1d1d1b;stroke-width:11.14px;"/></g></svg>