<?xml version="1.0" encoding="UTF-8" standalone="no"?><!DOCTYPE svg PUBLIC "-//W3C//DTD SVG 1.1//EN" "http://www.w3.org/Graphics/SVG/1.1/DTD/svg11.dtd"><svg width="100%" height="100%" viewBox="0 0 2134 1067" version="1.1" xmlns="http://www.w3.org/2000/svg" xmlns:xlink="http://www.w3.org/1999/xlink" xml:space="preserve" xmlns:serif="http://www.serif.com/" style="fill-rule:evenodd;clip-rule:evenodd;stroke-linejoin:round;stroke-miterlimit:2;"><g id="Artboard1"><clipPath id="_clip1"><path d="M2133.33,45.651c0,-25.195 -20.455,-45.651 -45.651,-45.651l-2042.03,0c-25.195,0 -45.651,20.456 -45.651,45.651l0,975.364c0,25.196 20.456,45.652 45.651,45.652l2042.03,-0c25.196,-0 45.651,-20.456 45.651,-45.652l0,-975.364Z"/></clipPath><g clip-path="url(#_clip1)"><rect x="0" y="0" width="2133.33" height="1066.67" style="fill:#fafafa;"/></g><rect x="650" y="116.667" width="833.335" height="833.334" style="fill:none;"/><g id="hot-surface.ai" serif:id="hot surface.ai"><rect x="112.753" y="83.529" width="1907.84" height="899.536" style="fill:none;"/><g id="hot-surface.ai1" serif:id="hot surface.ai"><g><g><g id="Réteg-1" serif:id="Réteg 1"><g><path d="M633.553,904.512l850.483,0l-425.246,-736.534l-425.237,736.534Zm860.767,40.769l-871.051,-0c-12.597,-0 -23.88,-6.513 -30.169,-17.419c-6.298,-10.895 -6.288,-23.921 0,-34.826l435.531,-754.35c6.289,-10.906 17.561,-17.418 30.148,-17.418c12.598,-0 23.87,6.512 30.169,17.408l435.541,754.36c6.289,10.895 6.289,23.921 -0,34.826c-6.309,10.906 -17.581,17.419 -30.169,17.419" style="fill:#1e1c1a;fill-rule:nonzero;"/></g><g><rect x="882.453" y="796.817" width="352.669" height="32.941" style="fill:#1e1c1a;"/></g><g><path d="M1070.15,771.835c-5.616,-4.352 -9.927,-7.675 -14.86,-11.497c5.208,-10.233 11.007,-19.752 15.074,-29.964c13.137,-33.043 2.792,-63.029 -14.065,-91.454c-13.373,-22.535 -24.839,-45.478 -27.927,-71.957c-3.496,-30.087 6.768,-55.914 23.697,-82.026c6.095,4.067 11.333,7.583 14.157,9.468c-5.575,20.14 -12.577,38.629 -15.503,57.749c-3.72,24.247 6.228,46.068 18.785,66.442c16.541,26.836 29.526,54.834 28.079,87.296c-1.091,24.563 -9.122,46.507 -27.437,65.943" style="fill:#1e1c1a;fill-rule:nonzero;"/></g><g><path d="M980.768,771.835c-5.616,-4.352 -9.917,-7.675 -14.86,-11.497c5.208,-10.233 11.017,-19.752 15.074,-29.964c13.137,-33.043 2.792,-63.029 -14.065,-91.454c-13.373,-22.535 -24.839,-45.478 -27.927,-71.957c-3.496,-30.087 6.778,-55.914 23.697,-82.026c6.095,4.067 11.333,7.583 14.157,9.468c-5.575,20.14 -12.577,38.629 -15.503,57.749c-3.72,24.247 6.228,46.068 18.785,66.442c16.531,26.836 29.526,54.834 28.079,87.296c-1.091,24.563 -9.122,46.507 -27.437,65.943" style="fill:#1e1c1a;fill-rule:nonzero;"/></g><g><path d="M1153.37,771.835c-5.627,-4.352 -9.928,-7.675 -14.861,-11.497c5.209,-10.233 11.008,-19.752 15.075,-29.964c13.137,-33.043 2.792,-63.029 -14.066,-91.454c-13.372,-22.535 -24.838,-45.478 -27.926,-71.957c-3.496,-30.087 6.768,-55.914 23.697,-82.026c6.084,4.067 11.333,7.583 14.146,9.468c-5.575,20.14 -12.567,38.629 -15.492,57.749c-3.72,24.247 6.218,46.068 18.784,66.442c16.532,26.836 29.527,54.834 28.08,87.296c-1.091,24.563 -9.122,46.507 -27.437,65.943" style="fill:#1e1c1a;fill-rule:nonzero;"/></g></g></g></g></g></g></g></svg>