<?xml version="1.0" encoding="UTF-8" standalone="no"?><!DOCTYPE svg PUBLIC "-//W3C//DTD SVG 1.1//EN" "http://www.w3.org/Graphics/SVG/1.1/DTD/svg11.dtd"><svg width="100%" height="100%" viewBox="0 0 2134 1067" version="1.1" xmlns="http://www.w3.org/2000/svg" xmlns:xlink="http://www.w3.org/1999/xlink" xml:space="preserve" xmlns:serif="http://www.serif.com/" style="fill-rule:evenodd;clip-rule:evenodd;stroke-linejoin:round;stroke-miterlimit:2;"><g id="Artboard1"><clipPath id="_clip1"><path d="M2133.33,45.651c0,-25.195 -20.455,-45.651 -45.651,-45.651l-2042.03,0c-25.195,0 -45.651,20.456 -45.651,45.651l0,975.364c0,25.196 20.456,45.652 45.651,45.652l2042.03,-0c25.196,-0 45.651,-20.456 45.651,-45.652l0,-975.364Z"/></clipPath><g clip-path="url(#_clip1)"><rect x="0" y="0" width="2133.33" height="1066.67" style="fill:#fafafa;"/></g><rect x="650" y="116.667" width="833.335" height="833.334" style="fill:none;"/><g id="CE.ai"><rect x="621.762" y="211.342" width="889.793" height="643.973" style="fill:none;"/><g id="CE.ai1" serif:id="CE.ai"><g><g id="Réteg-1" serif:id="Réteg 1"><g><path d="M975.504,841.293l-39.949,0c-162.233,0 -294.211,-131.977 -294.211,-294.209c0,-162.205 131.978,-294.181 294.211,-294.181l39.949,-0l0,79.925l-39.949,0c-118.166,0 -214.284,96.118 -214.284,214.256c-0,118.165 96.118,214.284 214.284,214.284l39.949,-0l0,79.925Z" style="fill:#1e1c1a;fill-rule:nonzero;"/></g><g><path d="M1429.6,343.821l39.949,0l-0,-79.925l-39.949,-0c-162.233,-0 -294.183,131.976 -294.183,294.181c0,162.232 131.95,294.209 294.183,294.209l39.949,0l-0,-79.926l-39.949,0c-104.495,0 -191.705,-75.219 -210.475,-174.306l190.612,-0l0,-79.926l-190.612,0c18.77,-99.116 105.98,-174.307 210.475,-174.307" style="fill:#1e1c1a;fill-rule:nonzero;"/></g></g></g></g></g></g></svg>