<?xml version="1.0" encoding="UTF-8" standalone="no"?><!DOCTYPE svg PUBLIC "-//W3C//DTD SVG 1.1//EN" "http://www.w3.org/Graphics/SVG/1.1/DTD/svg11.dtd"><svg width="100%" height="100%" viewBox="0 0 2134 1067" version="1.1" xmlns="http://www.w3.org/2000/svg" xmlns:xlink="http://www.w3.org/1999/xlink" xml:space="preserve" xmlns:serif="http://www.serif.com/" style="fill-rule:evenodd;clip-rule:evenodd;stroke-linejoin:round;stroke-miterlimit:2;"><g id="Artboard1"><clipPath id="_clip1"><path d="M2133.33,45.651c0,-25.195 -20.455,-45.651 -45.651,-45.651l-2042.03,0c-25.195,0 -45.651,20.456 -45.651,45.651l0,975.364c0,25.196 20.456,45.652 45.651,45.652l2042.03,-0c25.196,-0 45.651,-20.456 45.651,-45.652l0,-975.364Z"/></clipPath><g clip-path="url(#_clip1)"><rect x="0" y="0" width="2133.33" height="1066.67" style="fill:#fafafa;"/></g><rect x="650" y="116.667" width="833.335" height="833.334" style="fill:none;"/><g><path d="M1328.37,452.879c-0,48.255 -15.139,88.941 -43.524,123.003c-28.385,33.116 -64.34,50.148 -106.918,50.148c-21.762,-0 -42.578,-4.731 -62.448,-12.301c-19.869,-8.515 -42.577,-23.654 -68.124,-46.362c-26.493,-22.709 -45.417,-36.901 -56.771,-42.578c-11.354,-5.677 -23.654,-8.516 -35.954,-8.516c-24.601,0 -42.578,8.516 -55.825,24.601c-13.246,17.031 -18.923,39.739 -18.923,68.124l-74.748,0.947c-0,-49.202 14.193,-89.887 42.578,-121.111c28.385,-32.17 63.394,-48.255 106.918,-48.255c22.708,0 45.416,5.677 67.178,15.139c21.762,9.462 45.417,27.439 72.856,52.04c27.439,24.6 51.093,38.793 70.017,41.631l13.246,0.947c23.654,-0 42.578,-8.516 57.717,-26.493c14.192,-17.978 21.762,-41.632 21.762,-70.964l70.963,0Z" style="fill:#1e1c1a;fill-rule:nonzero;"/></g></g></svg>