<?xml version="1.0" encoding="UTF-8" standalone="no"?><!DOCTYPE svg PUBLIC "-//W3C//DTD SVG 1.1//EN" "http://www.w3.org/Graphics/SVG/1.1/DTD/svg11.dtd"><svg width="100%" height="100%" viewBox="0 0 2134 1067" version="1.1" xmlns="http://www.w3.org/2000/svg" xmlns:xlink="http://www.w3.org/1999/xlink" xml:space="preserve" xmlns:serif="http://www.serif.com/" style="fill-rule:evenodd;clip-rule:evenodd;stroke-linejoin:round;stroke-miterlimit:2;"><g id="Artboard1"><clipPath id="_clip1"><path d="M2133.33,45.651c0,-25.195 -20.455,-45.651 -45.651,-45.651l-2042.03,0c-25.195,0 -45.651,20.456 -45.651,45.651l0,975.364c0,25.196 20.456,45.652 45.651,45.652l2042.03,-0c25.196,-0 45.651,-20.456 45.651,-45.652l0,-975.364Z"/></clipPath><g clip-path="url(#_clip1)"><rect x="0" y="0" width="2133.33" height="1066.67" style="fill:#fafafa;"/></g><rect x="650" y="116.667" width="833.335" height="833.334" style="fill:none;"/><g id="Kuka.ai"><rect x="134.972" y="83.607" width="1863.38" height="899.456" style="fill:none;"/><g id="Kuka.ai1" serif:id="Kuka.ai"><g><g><g id="Réteg-1" serif:id="Réteg 1"><path d="M1201.83,804.904c-0,14.96 -12.212,27.176 -27.25,27.176c-15.001,0 -27.251,-12.216 -27.251,-27.176c0,-14.96 12.25,-27.176 27.251,-27.176c15.038,-0 27.25,12.216 27.25,27.176m-91.89,-2.782l-153.287,0l-8.141,-105.811l114.127,-113.818l103.573,103.331l-4.334,55.781c-28.683,5.751 -50.656,30.522 -51.938,60.517m-180.387,-352.278l106.589,106.262l-91.399,91.152l-15.19,-197.414Zm-4.372,-57.21l-2.035,-26.688c3.279,0.677 6.709,1.053 10.139,1.053l247.287,-0c3.468,-0 6.898,-0.376 10.215,-1.053l-1.282,16.577l-132.558,-0c-10.327,-0 -18.732,8.344 -18.732,18.681l0,59.728c0,10.3 8.405,18.644 18.732,18.644l55.933,0l-50.241,50.143l-137.458,-137.085Zm-5.993,-77.094c0,-7.781 6.295,-14.095 14.097,-14.095l247.287,-0c7.802,-0 14.172,6.314 14.172,14.095c0,7.781 -6.37,14.096 -14.172,14.096l-247.287,-0c-7.802,-0 -14.097,-6.315 -14.097,-14.096m231.119,126.711l-74.627,-0l-0,-22.403l97.091,0l-22.464,22.403Zm90.118,-22.403l0,22.403l-17.978,-0l1.62,-20.749l1.659,-1.654l14.699,0Zm-58.383,59.728l-12.098,157.195l-80.847,-80.665l76.701,-76.53l16.244,0Zm22.803,191.964l14.775,-191.964l39.537,0c10.328,0 18.733,-8.344 18.733,-18.644l-0,-59.728c-0,-9.059 -6.483,-16.614 -15.114,-18.305l130.183,-129.868c7.349,-7.255 7.349,-19.095 -0,-26.387c-7.274,-7.293 -19.147,-7.293 -26.459,-0l-138.023,137.648l3.242,-42.399c0.188,-1.429 0.301,-2.857 0.339,-4.323l0.037,-0.601c0.038,-0.188 0.038,-0.414 0.038,-0.602c0,-0.263 0.038,-0.526 0.038,-0.827l-0,-0.263c-0.038,-0.301 -0.038,-0.601 -0.076,-0.864c-0.603,-27.853 -23.443,-50.331 -51.523,-50.331l-247.287,-0c-27.967,-0 -50.845,22.44 -51.486,50.255c0,0.339 -0.037,0.639 -0.037,0.978c-0,0.075 -0.038,0.15 -0.038,0.225c-0,0.263 0.038,0.489 0.075,0.714l0,0.715l0.038,0.714c0.075,1.391 0.188,2.781 0.339,4.172l2.337,30.221l-125.773,-125.432c-7.312,-7.293 -19.185,-7.293 -26.497,-0c-7.274,7.292 -7.274,19.132 0,26.387l156.642,156.255l20.994,272.779l-177.636,177.117c-7.274,7.292 -7.274,19.132 0,26.387c3.656,3.646 8.481,5.488 13.267,5.488c4.787,-0 9.536,-1.842 13.23,-5.488l154.908,-154.451l6.973,91.114c0.791,9.736 8.895,17.216 18.694,17.216l180.689,-0c11.495,17.967 31.66,29.995 54.576,29.995c35.693,0 64.677,-28.98 64.677,-64.539c-0,-26.913 -16.584,-50.03 -40.065,-59.69l1.846,-24.621l165.462,164.976c3.656,3.646 8.48,5.488 13.267,5.488c4.749,-0 9.574,-1.842 13.192,-5.488c7.349,-7.255 7.349,-19.095 -0,-26.387l-188.114,-187.642Z" style="fill:#1e1c1a;fill-rule:nonzero;"/></g></g></g></g></g></g></svg>