<?xml version="1.0" encoding="UTF-8" standalone="no"?><!DOCTYPE svg PUBLIC "-//W3C//DTD SVG 1.1//EN" "http://www.w3.org/Graphics/SVG/1.1/DTD/svg11.dtd"><svg width="100%" height="100%" viewBox="0 0 2134 1067" version="1.1" xmlns="http://www.w3.org/2000/svg" xmlns:xlink="http://www.w3.org/1999/xlink" xml:space="preserve" xmlns:serif="http://www.serif.com/" style="fill-rule:evenodd;clip-rule:evenodd;stroke-linejoin:round;stroke-miterlimit:2;"><g id="Artboard1"><clipPath id="_clip1"><path d="M2133.33,45.651c0,-25.195 -20.455,-45.651 -45.651,-45.651l-2042.03,0c-25.195,0 -45.651,20.456 -45.651,45.651l0,975.364c0,25.196 20.456,45.652 45.651,45.652l2042.03,-0c25.196,-0 45.651,-20.456 45.651,-45.652l0,-975.364Z"/></clipPath><g clip-path="url(#_clip1)"><rect x="0" y="0" width="2133.33" height="1066.67" style="fill:#fafafa;"/></g><rect x="650" y="116.667" width="833.335" height="833.334" style="fill:none;"/><g id="figyel.ai"><rect x="116.317" y="85.21" width="1900.71" height="896.175" style="fill:none;"/><g id="figyel.ai1" serif:id="figyel.ai"><g><g><g id="Réteg-1" serif:id="Réteg 1"><g><path d="M647.423,900.782l838.494,0l-419.252,-726.148l-419.242,726.148Zm848.633,40.194l-858.772,0c-12.42,0 -23.544,-6.421 -29.744,-17.173c-6.21,-10.741 -6.2,-23.583 0,-34.335l429.392,-743.713c6.199,-10.752 17.313,-17.172 29.723,-17.172c12.42,-0 23.533,6.42 29.743,17.162l429.402,743.723c6.2,10.742 6.2,23.584 -0,34.335c-6.22,10.752 -17.334,17.173 -29.744,17.173" style="fill:#1e1c1a;fill-rule:nonzero;"/></g><g><path d="M1111.17,378.687c-0,11.777 -3.889,51.348 -11.657,118.702c-7.777,67.355 -14.6,132.468 -20.488,195.351l-27.563,0c-5.185,-62.883 -11.606,-127.996 -19.253,-195.351c-7.657,-67.354 -11.476,-106.925 -11.476,-118.702c0,-13.424 4.231,-24.729 12.712,-33.913c8.481,-9.184 19.313,-13.776 32.507,-13.776c13.183,-0 24.025,4.542 32.496,13.595c8.481,9.074 12.722,20.439 12.722,34.094m3.175,426.033c-0,13.193 -4.763,24.437 -14.299,33.742c-9.546,9.305 -20.911,13.957 -34.094,13.957c-13.194,0 -24.559,-4.652 -34.095,-13.957c-9.536,-9.305 -14.309,-20.549 -14.309,-33.742c0,-13.184 4.773,-24.549 14.309,-34.084c9.536,-9.536 20.901,-14.309 34.095,-14.309c13.183,-0 24.548,4.773 34.094,14.309c9.536,9.535 14.299,20.9 14.299,34.084" style="fill:#1e1c1a;fill-rule:nonzero;"/></g></g></g></g></g></g></g></svg>