<?xml version="1.0" encoding="UTF-8" standalone="no"?><!DOCTYPE svg PUBLIC "-//W3C//DTD SVG 1.1//EN" "http://www.w3.org/Graphics/SVG/1.1/DTD/svg11.dtd"><svg width="100%" height="100%" viewBox="0 0 8000 4500" version="1.1" xmlns="http://www.w3.org/2000/svg" xmlns:xlink="http://www.w3.org/1999/xlink" xml:space="preserve" xmlns:serif="http://www.serif.com/" style="fill-rule:evenodd;clip-rule:evenodd;stroke-linecap:round;stroke-linejoin:round;stroke-miterlimit:10;"><path d="M8000,112.372c0,-62.02 -50.352,-112.372 -112.372,-112.372l-7775.26,0c-62.02,0 -112.372,50.352 -112.372,112.372l0,4275.26c0,62.02 50.352,112.372 112.372,112.372l7775.26,-0c62.02,-0 112.372,-50.352 112.372,-112.372l0,-4275.26Z" style="fill:#fafafa;"/><g><g><path d="M4117.34,2008.31l-0,-52.665m-235.61,-0l0,52.665m-405.617,131.202l20.327,19.403l18.48,21.251l15.707,24.023l12.935,24.947l10.164,25.871l8.315,26.795l4.62,28.642l0.924,27.719m864.824,0l0.924,-27.719l4.62,-28.642l7.391,-26.795l11.088,-25.871l12.935,-24.947l15.707,-24.023l18.48,-21.251l20.327,-19.403m-1047.77,-131.202l0,131.202m1047.77,0l-0,-131.202m-956.296,628.291l26.795,26.795m811.234,0l26.795,-26.795m-864.824,-298.438l0,298.438m864.824,0l-0,-298.438m91.472,-198.651l-1047.77,0m1047.77,-131.202l-1047.77,0m929.501,655.086l-811.234,0m-26.795,-26.795l864.824,0m-432.412,-298.438l-432.412,0m864.824,0l-432.412,0" style="fill:none;fill-rule:nonzero;stroke:#000;stroke-width:6.56px;"/></g><text x="3821.5px" y="3374.54px" style="font-family:'Inter-Medium', 'Inter';font-weight:500;font-size:150px;">Push</text><text x="5011.9px" y="2543.16px" style="font-family:'Inter-Medium', 'Inter';font-weight:500;font-size:150px;">R<tspan x="5107.62px " y="2543.16px ">o</tspan>tat<tspan x="5394.04px " y="2543.16px ">e</tspan></text><text x="3677.73px" y="1195.6px" style="font-family:'Inter-Medium', 'Inter';font-weight:500;font-size:150px;">T<tspan x="3763.44px " y="1195.6px ">o</tspan>p vie<tspan x="4196.29px " y="1195.6px ">w</tspan></text><text x="4646.24px" y="2458.03px" style="font-family:'Inter-Medium', 'Inter';font-weight:500;font-size:150px;">+</text><text x="3257.24px" y="2454.3px" style="font-family:'Inter-Medium', 'Inter';font-weight:500;font-size:150px;">-</text><text x="2512.91px" y="2543.16px" style="font-family:'Inter-Medium', 'Inter';font-weight:500;font-size:150px;">R<tspan x="2608.63px " y="2543.16px ">o</tspan>tat<tspan x="2895.04px " y="2543.16px ">e</tspan></text><rect x="2970.71" y="1394.51" width="2058.58" height="561.133" style="fill:#ebebeb;"/><rect x="2970.73" y="1947.31" width="2058.58" height="8.333"/><path d="M4028.15,2846.44l-28.125,-84.375l-28.125,84.375l56.25,0Z" style="fill:#0e0e10;"/><path d="M4000.02,2829.57l0,349.167" style="fill:none;stroke:#0e0e10;stroke-width:6.25px;stroke-miterlimit:1.5;"/><path d="M3143.83,2461.4l-84.375,28.125l84.375,28.125l-0,-56.25Z" style="fill:#0e0e10;"/><path d="M3126.95,2489.52l349.166,0" style="fill:none;stroke:#0e0e10;stroke-width:6.25px;stroke-miterlimit:1.5;"/><path d="M4856.18,2517.65l84.375,-28.125l-84.375,-28.125l0,56.25Z" style="fill:#0e0e10;"/><path d="M4873.05,2489.52l-349.166,0" style="fill:none;stroke:#0e0e10;stroke-width:6.25px;stroke-miterlimit:1.5;"/></g></svg>