<?xml version="1.0" encoding="UTF-8" standalone="no"?><!DOCTYPE svg PUBLIC "-//W3C//DTD SVG 1.1//EN" "http://www.w3.org/Graphics/SVG/1.1/DTD/svg11.dtd"><svg width="100%" height="100%" viewBox="0 0 8000 4500" version="1.1" xmlns="http://www.w3.org/2000/svg" xmlns:xlink="http://www.w3.org/1999/xlink" xml:space="preserve" xmlns:serif="http://www.serif.com/" style="fill-rule:evenodd;clip-rule:evenodd;stroke-linecap:round;stroke-linejoin:round;stroke-miterlimit:1.5;"><path d="M7998.98,112.372c-0,-62.02 -50.352,-112.372 -112.372,-112.372l-7775.26,-0c-62.02,-0 -112.372,50.352 -112.372,112.372l-0,4275.26c-0,62.02 50.352,112.372 112.372,112.372l7775.26,-0c62.02,-0 112.372,-50.352 112.372,-112.372l-0,-4275.26Z" style="fill:#fafafa;"/><rect x="3103.14" y="1833.33" width="1875" height="833.333" style="fill:#fafafa;stroke:#000;stroke-width:6.25px;"/><g><circle cx="4039.62" cy="2590.85" r="41.667" style="fill:#0e0e10;"/><g><circle cx="4631.75" cy="2235.69" r="83.333" style="fill:#0e0e10;"/><path d="M4715.09,2242.14c-0,-10.76 -8.736,-19.496 -19.496,-19.496l-127.675,-0c-10.76,-0 -19.496,8.736 -19.496,19.496l-0,86.008c-0,10.76 8.736,19.496 19.496,19.496l127.675,-0c10.76,-0 19.496,-8.736 19.496,-19.496l-0,-86.008Z" style="fill:#0e0e10;"/></g><g><g><path d="M3770.91,2438.03l-0,-166.666l-41.667,-0l-0,166.666l41.667,0Z" style="fill:#0e0e10;"/><path d="M3750.08,2458.87l-20.833,-20.834l41.667,0l-20.834,20.834Z" style="fill:#0e0e10;"/><path d="M3750.08,2250.53l20.834,20.834l-41.667,-0l20.833,-20.834Z" style="fill:#0e0e10;"/></g><g><rect x="3780.96" y="2446.77" width="166.667" height="41.667" style="fill:#0e0e10;"/><path d="M3968.46,2467.6l-20.833,20.833l-0,-41.666l20.833,20.833Z" style="fill:#0e0e10;"/><path d="M3760.13,2467.6l20.833,-20.833l0,41.666l-20.833,-20.833Z" style="fill:#0e0e10;"/></g><g><rect x="3780.96" y="2228.26" width="166.667" height="41.667" style="fill:#0e0e10;"/><path d="M3968.46,2249.1l-20.833,20.833l-0,-41.667l20.833,20.834Z" style="fill:#0e0e10;"/><path d="M3760.13,2249.1l20.833,-20.834l0,41.667l-20.833,-20.833Z" style="fill:#0e0e10;"/></g><g><path d="M3998.61,2438.03l0,-166.666l-41.666,-0l-0,166.666l41.666,0Z" style="fill:#0e0e10;"/><path d="M3977.78,2458.87l-20.833,-20.834l41.666,0l-20.833,20.834Z" style="fill:#0e0e10;"/><path d="M3977.78,2250.53l20.833,20.834l-41.666,-0l20.833,-20.834Z" style="fill:#0e0e10;"/></g><g><path d="M3771.28,2228.26l0,-166.666l-41.667,-0l0,166.666l41.667,0Z" style="fill:#0e0e10;"/><path d="M3750.44,2249.1l-20.834,-20.834l41.667,0l-20.833,20.834Z" style="fill:#0e0e10;"/><path d="M3750.44,2040.76l20.833,20.834l-41.667,-0l20.834,-20.834Z" style="fill:#0e0e10;"/></g><g><rect x="3780.96" y="2011.57" width="166.667" height="41.667" style="fill:#0e0e10;"/><path d="M3968.46,2032.4l-20.833,20.833l-0,-41.666l20.833,20.833Z" style="fill:#0e0e10;"/><path d="M3760.13,2032.4l20.833,-20.833l0,41.666l-20.833,-20.833Z" style="fill:#0e0e10;"/></g><g><path d="M3998.98,2228.26l-0,-166.666l-41.667,-0l0,166.666l41.667,0Z" style="fill:#0e0e10;"/><path d="M3978.14,2249.1l-20.833,-20.834l41.667,0l-20.834,20.834Z" style="fill:#0e0e10;"/><path d="M3978.14,2040.76l20.834,20.834l-41.667,-0l20.833,-20.834Z" style="fill:#0e0e10;"/></g></g><g><g><path d="M4123.98,2438.03l-0,-166.666l-41.667,-0l0,166.666l41.667,0Z" style="fill:#0e0e10;"/><path d="M4103.15,2458.87l-20.833,-20.834l41.667,0l-20.834,20.834Z" style="fill:#0e0e10;"/><path d="M4103.15,2250.53l20.834,20.834l-41.667,-0l20.833,-20.834Z" style="fill:#0e0e10;"/></g><g><rect x="4134.03" y="2446.77" width="166.667" height="41.667" style="fill:#0e0e10;"/><path d="M4321.53,2467.6l-20.833,20.833l0,-41.666l20.833,20.833Z" style="fill:#0e0e10;"/><path d="M4113.2,2467.6l20.833,-20.833l0,41.666l-20.833,-20.833Z" style="fill:#0e0e10;"/></g><g><rect x="4134.03" y="2228.26" width="166.667" height="41.667" style="fill:#0e0e10;"/><path d="M4321.53,2249.1l-20.833,20.833l0,-41.667l20.833,20.834Z" style="fill:#0e0e10;"/><path d="M4113.2,2249.1l20.833,-20.834l0,41.667l-20.833,-20.833Z" style="fill:#0e0e10;"/></g><g><path d="M4351.68,2438.03l-0,-166.666l-41.667,-0l-0,166.666l41.667,0Z" style="fill:#0e0e10;"/><path d="M4330.85,2458.87l-20.833,-20.834l41.667,0l-20.834,20.834Z" style="fill:#0e0e10;"/><path d="M4330.85,2250.53l20.834,20.834l-41.667,-0l20.833,-20.834Z" style="fill:#0e0e10;"/></g><g><path d="M4124.35,2228.26l0,-166.666l-41.666,-0l-0,166.666l41.666,0Z" style="fill:#0e0e10;"/><path d="M4103.51,2249.1l-20.833,-20.834l41.666,0l-20.833,20.834Z" style="fill:#0e0e10;"/><path d="M4103.51,2040.76l20.833,20.834l-41.666,-0l20.833,-20.834Z" style="fill:#0e0e10;"/></g><g><rect x="4134.03" y="2011.57" width="166.667" height="41.667" style="fill:#0e0e10;"/><path d="M4321.53,2032.4l-20.833,20.833l0,-41.666l20.833,20.833Z" style="fill:#0e0e10;"/><path d="M4113.2,2032.4l20.833,-20.833l0,41.666l-20.833,-20.833Z" style="fill:#0e0e10;"/></g><g><path d="M4352.05,2228.26l-0,-166.666l-41.667,-0l0,166.666l41.667,0Z" style="fill:#0e0e10;"/><path d="M4331.21,2249.1l-20.834,-20.834l41.667,0l-20.833,20.834Z" style="fill:#0e0e10;"/><path d="M4331.21,2040.76l20.833,20.834l-41.667,-0l20.834,-20.834Z" style="fill:#0e0e10;"/></g></g><path d="M4068.77,2821.68l-28.125,-84.375l-28.125,84.375l56.25,-0Z" style="fill:#0e0e10;"/><path d="M4040.64,2804.81l0,349.166" style="fill:none;stroke:#0e0e10;stroke-width:6.25px;"/><path d="M4854.19,2221.88l-84.375,28.125l84.375,28.125l0,-56.25Z" style="fill:#0e0e10;"/><path d="M4837.31,2250l349.167,0" style="fill:none;stroke:#0e0e10;stroke-width:6.25px;"/><path d="M4012.52,1878.37l28.125,84.375l28.125,-84.375l-56.25,0Z" style="fill:#0e0e10;"/><path d="M4040.64,1895.24l0,-349.166" style="fill:none;stroke:#0e0e10;stroke-width:6.25px;"/><text x="3542.68px" y="3359.62px" style="font-family:'Inter-Medium', 'Inter';font-weight:500;font-size:150px;">Stand-By LED</text><text x="5270.22px" y="2304.39px" style="font-family:'Inter-Medium', 'Inter';font-weight:500;font-size:150px;">IR Sensor</text><text x="3119.85px" y="1410.6px" style="font-family:'Inter-Medium', 'Inter';font-weight:500;font-size:150px;">2 Digit 7 Segment Displa<tspan x="4870.36px " y="1410.6px ">y</tspan></text></g></svg>