<?xml version="1.0" encoding="UTF-8" standalone="no"?><!DOCTYPE svg PUBLIC "-//W3C//DTD SVG 1.1//EN" "http://www.w3.org/Graphics/SVG/1.1/DTD/svg11.dtd"><svg width="100%" height="100%" viewBox="0 0 1600 800" version="1.1" xmlns="http://www.w3.org/2000/svg" xmlns:xlink="http://www.w3.org/1999/xlink" xml:space="preserve" xmlns:serif="http://www.serif.com/" style="fill-rule:evenodd;clip-rule:evenodd;stroke-linecap:round;stroke-linejoin:round;stroke-miterlimit:1.5;"><clipPath id="_clip1"><path d="M1600,34.239c-0,-18.897 -15.342,-34.239 -34.239,-34.239l-1531.52,0c-18.897,0 -34.239,15.342 -34.239,34.239l0,731.522c0,18.897 15.342,34.239 34.239,34.239l1531.52,-0c18.897,-0 34.239,-15.342 34.239,-34.239l-0,-731.522Z"/></clipPath><g clip-path="url(#_clip1)"><rect x="0" y="0" width="1600" height="800" style="fill:#fafafa;"/></g><circle cx="800" cy="691.848" r="39.063" style="fill:none;stroke:#c8c8c8;stroke-width:8.33px;"/><g><g><path d="M597.699,541.026l-0,-125l-31.25,-0l-0,125l31.25,-0Z" style="fill:#c8c8c8;"/><path d="M582.074,556.651l-15.625,-15.625l31.25,-0l-15.625,15.625Z" style="fill:#c8c8c8;"/><path d="M582.074,400.401l15.625,15.625l-31.25,-0l15.625,-15.625Z" style="fill:#c8c8c8;"/></g><g><rect x="605.237" y="547.576" width="125" height="31.25" style="fill:#c8c8c8;"/><path d="M745.862,563.201l-15.625,15.625l-0,-31.25l15.625,15.625Z" style="fill:#c8c8c8;"/><path d="M589.612,563.201l15.625,-15.625l-0,31.25l-15.625,-15.625Z" style="fill:#c8c8c8;"/></g><g><rect x="605.237" y="383.698" width="125" height="31.25" style="fill:#0e0e10;"/><path d="M745.862,399.323l-15.625,15.625l-0,-31.25l15.625,15.625Z" style="fill:#0e0e10;"/><path d="M589.612,399.323l15.625,-15.625l-0,31.25l-15.625,-15.625Z" style="fill:#0e0e10;"/></g><g><path d="M768.475,541.026l0,-125l-31.25,-0l0,125l31.25,-0Z" style="fill:#c8c8c8;"/><path d="M752.85,556.651l-15.625,-15.625l31.25,-0l-15.625,15.625Z" style="fill:#c8c8c8;"/><path d="M752.85,400.401l15.625,15.625l-31.25,-0l15.625,-15.625Z" style="fill:#c8c8c8;"/></g><g><path d="M597.974,383.698l-0,-125l-31.25,0l-0,125l31.25,0Z" style="fill:#c8c8c8;"/><path d="M582.349,399.323l-15.625,-15.625l31.25,0l-15.625,15.625Z" style="fill:#c8c8c8;"/><path d="M582.349,243.073l15.625,15.625l-31.25,0l15.625,-15.625Z" style="fill:#c8c8c8;"/></g><g><rect x="605.237" y="221.174" width="125" height="31.25" style="fill:#c8c8c8;"/><path d="M745.862,236.799l-15.625,15.625l-0,-31.25l15.625,15.625Z" style="fill:#c8c8c8;"/><path d="M589.612,236.799l15.625,-15.625l-0,31.25l-15.625,-15.625Z" style="fill:#c8c8c8;"/></g><g><path d="M768.75,383.698l0,-125l-31.25,0l0,125l31.25,0Z" style="fill:#c8c8c8;"/><path d="M753.125,399.323l-15.625,-15.625l31.25,0l-15.625,15.625Z" style="fill:#c8c8c8;"/><path d="M753.125,243.073l15.625,15.625l-31.25,0l15.625,-15.625Z" style="fill:#c8c8c8;"/></g></g><g><g><path d="M862.5,541.026l0,-125l-31.25,-0l0,125l31.25,-0Z" style="fill:#c8c8c8;"/><path d="M846.875,556.651l-15.625,-15.625l31.25,-0l-15.625,15.625Z" style="fill:#c8c8c8;"/><path d="M846.875,400.401l15.625,15.625l-31.25,-0l15.625,-15.625Z" style="fill:#c8c8c8;"/></g><g><rect x="870.038" y="547.576" width="125" height="31.25" style="fill:#c8c8c8;"/><path d="M1010.66,563.201l-15.625,15.625l0,-31.25l15.625,15.625Z" style="fill:#c8c8c8;"/><path d="M854.413,563.201l15.625,-15.625l0,31.25l-15.625,-15.625Z" style="fill:#c8c8c8;"/></g><g><rect x="870.038" y="383.698" width="125" height="31.25" style="fill:#0e0e10;"/><path d="M1010.66,399.323l-15.625,15.625l0,-31.25l15.625,15.625Z" style="fill:#0e0e10;"/><path d="M854.413,399.323l15.625,-15.625l0,31.25l-15.625,-15.625Z" style="fill:#0e0e10;"/></g><g><path d="M1033.28,541.026l0,-125l-31.25,-0l0,125l31.25,-0Z" style="fill:#c8c8c8;"/><path d="M1017.65,556.651l-15.625,-15.625l31.25,-0l-15.625,15.625Z" style="fill:#c8c8c8;"/><path d="M1017.65,400.401l15.625,15.625l-31.25,-0l15.625,-15.625Z" style="fill:#c8c8c8;"/></g><g><path d="M862.775,383.698l-0,-125l-31.25,0l-0,125l31.25,0Z" style="fill:#c8c8c8;"/><path d="M847.15,399.323l-15.625,-15.625l31.25,0l-15.625,15.625Z" style="fill:#c8c8c8;"/><path d="M847.15,243.073l15.625,15.625l-31.25,0l15.625,-15.625Z" style="fill:#c8c8c8;"/></g><g><rect x="870.038" y="221.174" width="125" height="31.25" style="fill:#c8c8c8;"/><path d="M1010.66,236.799l-15.625,15.625l0,-31.25l15.625,15.625Z" style="fill:#c8c8c8;"/><path d="M854.413,236.799l15.625,-15.625l0,31.25l-15.625,-15.625Z" style="fill:#c8c8c8;"/></g><g><path d="M1033.55,383.698l0,-125l-31.25,0l0,125l31.25,0Z" style="fill:#c8c8c8;"/><path d="M1017.93,399.323l-15.625,-15.625l31.25,0l-15.625,15.625Z" style="fill:#c8c8c8;"/><path d="M1017.93,243.073l15.625,15.625l-31.25,0l15.625,-15.625Z" style="fill:#c8c8c8;"/></g></g></svg>